<?xml version="1.0" encoding="us-ascii" standalone="no"?><svg xmlns="http://www.w3.org/2000/svg" xmlns:xlink="http://www.w3.org/1999/xlink" contentStyleType="text/css" height="280px" preserveAspectRatio="none" style="width:1197px;height:280px;background:#FFFFFF;" version="1.1" viewBox="0 0 1197 280" width="1197px" zoomAndPan="magnify"><defs/><g><!--cluster <<agr ExamQuestion>>--><g id="cluster_&lt;&lt;agr ExamQuestion&gt;&gt;"><path d="M8.5,6.0137 L153.5,6.0137 A3.75,3.75 0 0 1 156,8.5137 L163,30.6348 L1187.5,30.6348 A2.5,2.5 0 0 1 1190,33.1348 L1190,270.5137 A2.5,2.5 0 0 1 1187.5,273.0137 L8.5,273.0137 A2.5,2.5 0 0 1 6,270.5137 L6,8.5137 A2.5,2.5 0 0 1 8.5,6.0137 " fill="none" style="stroke:#000000;stroke-width:1.5;"/><line style="stroke:#000000;stroke-width:1.5;" x1="6" x2="163" y1="30.6348" y2="30.6348"/><text fill="#000000" font-family="sans-serif" font-size="14" font-weight="bold" lengthAdjust="spacing" textLength="144" x="10" y="23.1211">&#171;agr ExamQuestion&#187;</text></g><!--class ExamQuestion--><g id="elem_ExamQuestion"><rect codeLine="4" fill="#F1F1F1" height="76.543" id="ExamQuestion" rx="2.5" ry="2.5" style="stroke:#181818;stroke-width:0.5;" width="123" x="585.5" y="43.0137"/><ellipse cx="600.5" cy="73.2852" fill="#ADD1B2" rx="11" ry="11" style="stroke:#181818;stroke-width:1.0;"/><path d="M603.2656,69.1602 Q603.4219,68.9414 603.6094,68.832 Q603.7969,68.7227 604.0156,68.7227 Q604.3906,68.7227 604.625,68.9883 Q604.8594,69.2383 604.8594,69.8477 L604.8594,71.3008 Q604.8594,71.9102 604.625,72.1758 Q604.3906,72.4414 604.0156,72.4414 Q603.6719,72.4414 603.4688,72.2383 Q603.2656,72.0508 603.1563,71.5352 Q603.1094,71.1758 602.9219,70.9883 Q602.5938,70.6133 601.9844,70.3945 Q601.375,70.1758 600.75,70.1758 Q599.9844,70.1758 599.3438,70.5039 Q598.7188,70.832 598.2188,71.582 Q597.7344,72.332 597.7344,73.3633 L597.7344,74.457 Q597.7344,75.6914 598.625,76.5195 Q599.5156,77.332 601.1094,77.332 Q602.0469,77.332 602.7031,77.082 Q603.0938,76.9258 603.5156,76.4883 Q603.7813,76.2227 603.9219,76.1445 Q604.0781,76.0664 604.2813,76.0664 Q604.6094,76.0664 604.8594,76.332 Q605.125,76.582 605.125,76.9258 Q605.125,77.2695 604.7813,77.6758 Q604.2813,78.2539 603.4844,78.582 Q602.4063,79.0352 601.1094,79.0352 Q599.5938,79.0352 598.3906,78.4102 Q597.4063,77.9102 596.7188,76.8477 Q596.0313,75.7695 596.0313,74.4883 L596.0313,73.332 Q596.0313,72.0039 596.6406,70.8633 Q597.2656,69.707 598.3594,69.0977 Q599.4531,68.4727 600.6875,68.4727 Q601.4219,68.4727 602.0625,68.6445 Q602.7188,68.8008 603.2656,69.1602 Z " fill="#000000"/><text fill="#000000" font-family="sans-serif" font-size="12" font-style="italic" lengthAdjust="spacing" textLength="43" x="638.5" y="60.9629">&#171;entity&#187;</text><text fill="#000000" font-family="sans-serif" font-size="12" font-style="italic" lengthAdjust="spacing" textLength="35" x="642.5" y="76.9238">&#171;root&#187;</text><text fill="#000000" font-family="sans-serif" font-size="14" lengthAdjust="spacing" textLength="91" x="614.5" y="95.043">ExamQuestion</text><line style="stroke:#181818;stroke-width:0.5;" x1="586.5" x2="707.5" y1="103.5566" y2="103.5566"/><line style="stroke:#181818;stroke-width:0.5;" x1="586.5" x2="707.5" y1="111.5566" y2="111.5566"/></g><!--class ExamQuestionStatement--><g id="elem_ExamQuestionStatement"><rect codeLine="5" fill="#F1F1F1" height="60.582" id="ExamQuestionStatement" rx="2.5" ry="2.5" style="stroke:#181818;stroke-width:0.5;" width="187" x="22.5" y="188.0137"/><ellipse cx="37.5" cy="210.3047" fill="#ADD1B2" rx="11" ry="11" style="stroke:#181818;stroke-width:1.0;"/><path d="M40.2656,206.1797 Q40.4219,205.9609 40.6094,205.8516 Q40.7969,205.7422 41.0156,205.7422 Q41.3906,205.7422 41.625,206.0078 Q41.8594,206.2578 41.8594,206.8672 L41.8594,208.3203 Q41.8594,208.9297 41.625,209.1953 Q41.3906,209.4609 41.0156,209.4609 Q40.6719,209.4609 40.4688,209.2578 Q40.2656,209.0703 40.1563,208.5547 Q40.1094,208.1953 39.9219,208.0078 Q39.5938,207.6328 38.9844,207.4141 Q38.375,207.1953 37.75,207.1953 Q36.9844,207.1953 36.3438,207.5234 Q35.7188,207.8516 35.2188,208.6016 Q34.7344,209.3516 34.7344,210.3828 L34.7344,211.4766 Q34.7344,212.7109 35.625,213.5391 Q36.5156,214.3516 38.1094,214.3516 Q39.0469,214.3516 39.7031,214.1016 Q40.0938,213.9453 40.5156,213.5078 Q40.7813,213.2422 40.9219,213.1641 Q41.0781,213.0859 41.2813,213.0859 Q41.6094,213.0859 41.8594,213.3516 Q42.125,213.6016 42.125,213.9453 Q42.125,214.2891 41.7813,214.6953 Q41.2813,215.2734 40.4844,215.6016 Q39.4063,216.0547 38.1094,216.0547 Q36.5938,216.0547 35.3906,215.4297 Q34.4063,214.9297 33.7188,213.8672 Q33.0313,212.7891 33.0313,211.5078 L33.0313,210.3516 Q33.0313,209.0234 33.6406,207.8828 Q34.2656,206.7266 35.3594,206.1172 Q36.4531,205.4922 37.6875,205.4922 Q38.4219,205.4922 39.0625,205.6641 Q39.7188,205.8203 40.2656,206.1797 Z " fill="#000000"/><text fill="#000000" font-family="sans-serif" font-size="12" font-style="italic" lengthAdjust="spacing" textLength="27" x="115.5" y="205.9629">&#171;vo&#187;</text><text fill="#000000" font-family="sans-serif" font-size="14" lengthAdjust="spacing" textLength="155" x="51.5" y="224.082">ExamQuestionStatement</text><line style="stroke:#181818;stroke-width:0.5;" x1="23.5" x2="208.5" y1="232.5957" y2="232.5957"/><line style="stroke:#181818;stroke-width:0.5;" x1="23.5" x2="208.5" y1="240.5957" y2="240.5957"/></g><!--class ExamQuestionFeedback--><g id="elem_ExamQuestionFeedback"><rect codeLine="6" fill="#F1F1F1" height="60.582" id="ExamQuestionFeedback" rx="2.5" ry="2.5" style="stroke:#181818;stroke-width:0.5;" width="186" x="245" y="188.0137"/><ellipse cx="260" cy="210.3047" fill="#ADD1B2" rx="11" ry="11" style="stroke:#181818;stroke-width:1.0;"/><path d="M262.7656,206.1797 Q262.9219,205.9609 263.1094,205.8516 Q263.2969,205.7422 263.5156,205.7422 Q263.8906,205.7422 264.125,206.0078 Q264.3594,206.2578 264.3594,206.8672 L264.3594,208.3203 Q264.3594,208.9297 264.125,209.1953 Q263.8906,209.4609 263.5156,209.4609 Q263.1719,209.4609 262.9688,209.2578 Q262.7656,209.0703 262.6563,208.5547 Q262.6094,208.1953 262.4219,208.0078 Q262.0938,207.6328 261.4844,207.4141 Q260.875,207.1953 260.25,207.1953 Q259.4844,207.1953 258.8438,207.5234 Q258.2188,207.8516 257.7188,208.6016 Q257.2344,209.3516 257.2344,210.3828 L257.2344,211.4766 Q257.2344,212.7109 258.125,213.5391 Q259.0156,214.3516 260.6094,214.3516 Q261.5469,214.3516 262.2031,214.1016 Q262.5938,213.9453 263.0156,213.5078 Q263.2813,213.2422 263.4219,213.1641 Q263.5781,213.0859 263.7813,213.0859 Q264.1094,213.0859 264.3594,213.3516 Q264.625,213.6016 264.625,213.9453 Q264.625,214.2891 264.2813,214.6953 Q263.7813,215.2734 262.9844,215.6016 Q261.9063,216.0547 260.6094,216.0547 Q259.0938,216.0547 257.8906,215.4297 Q256.9063,214.9297 256.2188,213.8672 Q255.5313,212.7891 255.5313,211.5078 L255.5313,210.3516 Q255.5313,209.0234 256.1406,207.8828 Q256.7656,206.7266 257.8594,206.1172 Q258.9531,205.4922 260.1875,205.4922 Q260.9219,205.4922 261.5625,205.6641 Q262.2188,205.8203 262.7656,206.1797 Z " fill="#000000"/><text fill="#000000" font-family="sans-serif" font-size="12" font-style="italic" lengthAdjust="spacing" textLength="27" x="337.5" y="205.9629">&#171;vo&#187;</text><text fill="#000000" font-family="sans-serif" font-size="14" lengthAdjust="spacing" textLength="154" x="274" y="224.082">ExamQuestionFeedback</text><line style="stroke:#181818;stroke-width:0.5;" x1="246" x2="430" y1="232.5957" y2="232.5957"/><line style="stroke:#181818;stroke-width:0.5;" x1="246" x2="430" y1="240.5957" y2="240.5957"/></g><!--class ExamQuestionValue--><g id="elem_ExamQuestionValue"><rect codeLine="7" fill="#F1F1F1" height="60.582" id="ExamQuestionValue" rx="2.5" ry="2.5" style="stroke:#181818;stroke-width:0.5;" width="159" x="466.5" y="188.0137"/><ellipse cx="481.5" cy="210.3047" fill="#ADD1B2" rx="11" ry="11" style="stroke:#181818;stroke-width:1.0;"/><path d="M484.2656,206.1797 Q484.4219,205.9609 484.6094,205.8516 Q484.7969,205.7422 485.0156,205.7422 Q485.3906,205.7422 485.625,206.0078 Q485.8594,206.2578 485.8594,206.8672 L485.8594,208.3203 Q485.8594,208.9297 485.625,209.1953 Q485.3906,209.4609 485.0156,209.4609 Q484.6719,209.4609 484.4688,209.2578 Q484.2656,209.0703 484.1563,208.5547 Q484.1094,208.1953 483.9219,208.0078 Q483.5938,207.6328 482.9844,207.4141 Q482.375,207.1953 481.75,207.1953 Q480.9844,207.1953 480.3438,207.5234 Q479.7188,207.8516 479.2188,208.6016 Q478.7344,209.3516 478.7344,210.3828 L478.7344,211.4766 Q478.7344,212.7109 479.625,213.5391 Q480.5156,214.3516 482.1094,214.3516 Q483.0469,214.3516 483.7031,214.1016 Q484.0938,213.9453 484.5156,213.5078 Q484.7813,213.2422 484.9219,213.1641 Q485.0781,213.0859 485.2813,213.0859 Q485.6094,213.0859 485.8594,213.3516 Q486.125,213.6016 486.125,213.9453 Q486.125,214.2891 485.7813,214.6953 Q485.2813,215.2734 484.4844,215.6016 Q483.4063,216.0547 482.1094,216.0547 Q480.5938,216.0547 479.3906,215.4297 Q478.4063,214.9297 477.7188,213.8672 Q477.0313,212.7891 477.0313,211.5078 L477.0313,210.3516 Q477.0313,209.0234 477.6406,207.8828 Q478.2656,206.7266 479.3594,206.1172 Q480.4531,205.4922 481.6875,205.4922 Q482.4219,205.4922 483.0625,205.6641 Q483.7188,205.8203 484.2656,206.1797 Z " fill="#000000"/><text fill="#000000" font-family="sans-serif" font-size="12" font-style="italic" lengthAdjust="spacing" textLength="27" x="545.5" y="205.9629">&#171;vo&#187;</text><text fill="#000000" font-family="sans-serif" font-size="14" lengthAdjust="spacing" textLength="127" x="495.5" y="224.082">ExamQuestionValue</text><line style="stroke:#181818;stroke-width:0.5;" x1="467.5" x2="624.5" y1="232.5957" y2="232.5957"/><line style="stroke:#181818;stroke-width:0.5;" x1="467.5" x2="624.5" y1="240.5957" y2="240.5957"/></g><!--class ExamQuestionSolution--><g id="elem_ExamQuestionSolution"><rect codeLine="8" fill="#F1F1F1" height="60.582" id="ExamQuestionSolution" rx="2.5" ry="2.5" style="stroke:#181818;stroke-width:0.5;" width="174" x="661" y="188.0137"/><ellipse cx="676" cy="210.3047" fill="#ADD1B2" rx="11" ry="11" style="stroke:#181818;stroke-width:1.0;"/><path d="M678.7656,206.1797 Q678.9219,205.9609 679.1094,205.8516 Q679.2969,205.7422 679.5156,205.7422 Q679.8906,205.7422 680.125,206.0078 Q680.3594,206.2578 680.3594,206.8672 L680.3594,208.3203 Q680.3594,208.9297 680.125,209.1953 Q679.8906,209.4609 679.5156,209.4609 Q679.1719,209.4609 678.9688,209.2578 Q678.7656,209.0703 678.6563,208.5547 Q678.6094,208.1953 678.4219,208.0078 Q678.0938,207.6328 677.4844,207.4141 Q676.875,207.1953 676.25,207.1953 Q675.4844,207.1953 674.8438,207.5234 Q674.2188,207.8516 673.7188,208.6016 Q673.2344,209.3516 673.2344,210.3828 L673.2344,211.4766 Q673.2344,212.7109 674.125,213.5391 Q675.0156,214.3516 676.6094,214.3516 Q677.5469,214.3516 678.2031,214.1016 Q678.5938,213.9453 679.0156,213.5078 Q679.2813,213.2422 679.4219,213.1641 Q679.5781,213.0859 679.7813,213.0859 Q680.1094,213.0859 680.3594,213.3516 Q680.625,213.6016 680.625,213.9453 Q680.625,214.2891 680.2813,214.6953 Q679.7813,215.2734 678.9844,215.6016 Q677.9063,216.0547 676.6094,216.0547 Q675.0938,216.0547 673.8906,215.4297 Q672.9063,214.9297 672.2188,213.8672 Q671.5313,212.7891 671.5313,211.5078 L671.5313,210.3516 Q671.5313,209.0234 672.1406,207.8828 Q672.7656,206.7266 673.8594,206.1172 Q674.9531,205.4922 676.1875,205.4922 Q676.9219,205.4922 677.5625,205.6641 Q678.2188,205.8203 678.7656,206.1797 Z " fill="#000000"/><text fill="#000000" font-family="sans-serif" font-size="12" font-style="italic" lengthAdjust="spacing" textLength="27" x="747.5" y="205.9629">&#171;vo&#187;</text><text fill="#000000" font-family="sans-serif" font-size="14" lengthAdjust="spacing" textLength="142" x="690" y="224.082">ExamQuestionSolution</text><line style="stroke:#181818;stroke-width:0.5;" x1="662" x2="834" y1="232.5957" y2="232.5957"/><line style="stroke:#181818;stroke-width:0.5;" x1="662" x2="834" y1="240.5957" y2="240.5957"/></g><!--class ExamQuestionType--><g id="elem_ExamQuestionType"><rect codeLine="9" fill="#F1F1F1" height="76.543" id="ExamQuestionType" rx="2.5" ry="2.5" style="stroke:#181818;stroke-width:0.5;" width="155" x="870.5" y="180.0137"/><ellipse cx="885.5" cy="210.2852" fill="#ADD1B2" rx="11" ry="11" style="stroke:#181818;stroke-width:1.0;"/><path d="M888.2656,206.1602 Q888.4219,205.9414 888.6094,205.832 Q888.7969,205.7227 889.0156,205.7227 Q889.3906,205.7227 889.625,205.9883 Q889.8594,206.2383 889.8594,206.8477 L889.8594,208.3008 Q889.8594,208.9102 889.625,209.1758 Q889.3906,209.4414 889.0156,209.4414 Q888.6719,209.4414 888.4688,209.2383 Q888.2656,209.0508 888.1563,208.5352 Q888.1094,208.1758 887.9219,207.9883 Q887.5938,207.6133 886.9844,207.3945 Q886.375,207.1758 885.75,207.1758 Q884.9844,207.1758 884.3438,207.5039 Q883.7188,207.832 883.2188,208.582 Q882.7344,209.332 882.7344,210.3633 L882.7344,211.457 Q882.7344,212.6914 883.625,213.5195 Q884.5156,214.332 886.1094,214.332 Q887.0469,214.332 887.7031,214.082 Q888.0938,213.9258 888.5156,213.4883 Q888.7813,213.2227 888.9219,213.1445 Q889.0781,213.0664 889.2813,213.0664 Q889.6094,213.0664 889.8594,213.332 Q890.125,213.582 890.125,213.9258 Q890.125,214.2695 889.7813,214.6758 Q889.2813,215.2539 888.4844,215.582 Q887.4063,216.0352 886.1094,216.0352 Q884.5938,216.0352 883.3906,215.4102 Q882.4063,214.9102 881.7188,213.8477 Q881.0313,212.7695 881.0313,211.4883 L881.0313,210.332 Q881.0313,209.0039 881.6406,207.8633 Q882.2656,206.707 883.3594,206.0977 Q884.4531,205.4727 885.6875,205.4727 Q886.4219,205.4727 887.0625,205.6445 Q887.7188,205.8008 888.2656,206.1602 Z " fill="#000000"/><text fill="#000000" font-family="sans-serif" font-size="12" font-style="italic" lengthAdjust="spacing" textLength="27" x="947.5" y="197.9629">&#171;vo&#187;</text><text fill="#000000" font-family="sans-serif" font-size="12" font-style="italic" lengthAdjust="spacing" textLength="46" x="938" y="213.9238">&#171;enum&#187;</text><text fill="#000000" font-family="sans-serif" font-size="14" lengthAdjust="spacing" textLength="123" x="899.5" y="232.043">ExamQuestionType</text><line style="stroke:#181818;stroke-width:0.5;" x1="871.5" x2="1024.5" y1="240.5566" y2="240.5566"/><line style="stroke:#181818;stroke-width:0.5;" x1="871.5" x2="1024.5" y1="248.5566" y2="248.5566"/></g><!--class ExamSection--><g id="elem_ExamSection"><rect fill="#F1F1F1" height="48" id="ExamSection" rx="2.5" ry="2.5" style="stroke:#181818;stroke-width:0.5;" width="113" x="1060.5" y="194.5137"/><ellipse cx="1075.5" cy="210.5137" fill="#ADD1B2" rx="11" ry="11" style="stroke:#181818;stroke-width:1.0;"/><path d="M1078.2656,206.3887 Q1078.4219,206.1699 1078.6094,206.0605 Q1078.7969,205.9512 1079.0156,205.9512 Q1079.3906,205.9512 1079.625,206.2168 Q1079.8594,206.4668 1079.8594,207.0762 L1079.8594,208.5293 Q1079.8594,209.1387 1079.625,209.4043 Q1079.3906,209.6699 1079.0156,209.6699 Q1078.6719,209.6699 1078.4688,209.4668 Q1078.2656,209.2793 1078.1563,208.7637 Q1078.1094,208.4043 1077.9219,208.2168 Q1077.5938,207.8418 1076.9844,207.623 Q1076.375,207.4043 1075.75,207.4043 Q1074.9844,207.4043 1074.3438,207.7324 Q1073.7188,208.0605 1073.2188,208.8105 Q1072.7344,209.5605 1072.7344,210.5918 L1072.7344,211.6855 Q1072.7344,212.9199 1073.625,213.748 Q1074.5156,214.5605 1076.1094,214.5605 Q1077.0469,214.5605 1077.7031,214.3105 Q1078.0938,214.1543 1078.5156,213.7168 Q1078.7813,213.4512 1078.9219,213.373 Q1079.0781,213.2949 1079.2813,213.2949 Q1079.6094,213.2949 1079.8594,213.5605 Q1080.125,213.8105 1080.125,214.1543 Q1080.125,214.498 1079.7813,214.9043 Q1079.2813,215.4824 1078.4844,215.8105 Q1077.4063,216.2637 1076.1094,216.2637 Q1074.5938,216.2637 1073.3906,215.6387 Q1072.4063,215.1387 1071.7188,214.0762 Q1071.0313,212.998 1071.0313,211.7168 L1071.0313,210.5605 Q1071.0313,209.2324 1071.6406,208.0918 Q1072.2656,206.9355 1073.3594,206.3262 Q1074.4531,205.7012 1075.6875,205.7012 Q1076.4219,205.7012 1077.0625,205.873 Q1077.7188,206.0293 1078.2656,206.3887 Z " fill="#000000"/><text fill="#000000" font-family="sans-serif" font-size="14" lengthAdjust="spacing" textLength="81" x="1089.5" y="216.3105">ExamSection</text><line style="stroke:#181818;stroke-width:0.5;" x1="1061.5" x2="1172.5" y1="226.5137" y2="226.5137"/><line style="stroke:#181818;stroke-width:0.5;" x1="1061.5" x2="1172.5" y1="234.5137" y2="234.5137"/></g><!--reverse link ExamQuestion to ExamSection--><g id="link_ExamQuestion_ExamSection"><path codeLine="11" d="M713.85,94.1437 C793.71,109.1337 930.63,138.3237 1043,180.0137 C1053.8,184.0237 1065.08,189.1837 1075.48,194.3937 " fill="none" id="ExamQuestion-backto-ExamSection" style="stroke:#181818;stroke-width:1.0;"/><polygon fill="#181818" points="708.67,93.1837,716.7865,98.7624,713.5857,94.0982,718.2498,90.8973,708.67,93.1837" style="stroke:#181818;stroke-width:1.0;"/><text fill="#000000" font-family="sans-serif" font-size="13" lengthAdjust="spacing" textLength="5" x="716.4907" y="90.6439">*</text></g><!--link ExamQuestion to ExamQuestionValue--><g id="link_ExamQuestion_ExamQuestionValue"><path codeLine="12" d="M618.87,120.1237 C604,139.9937 585.89,164.2037 571.44,183.5037 " fill="none" id="ExamQuestion-to-ExamQuestionValue" style="stroke:#181818;stroke-width:1.0;"/><polygon fill="#181818" points="568.23,187.8037,576.8107,182.9693,571.214,183.7917,570.3916,178.195,568.23,187.8037" style="stroke:#181818;stroke-width:1.0;"/><text fill="#000000" font-family="sans-serif" font-size="13" lengthAdjust="spacing" textLength="7" x="565.0931" y="176.818">1</text></g><!--link ExamQuestion to ExamQuestionFeedback--><g id="link_ExamQuestion_ExamQuestionFeedback"><path codeLine="13" d="M585.21,109.5037 C534.78,131.5437 463.43,162.7137 410.34,185.9137 " fill="none" id="ExamQuestion-to-ExamQuestionFeedback" style="stroke:#181818;stroke-width:1.0;"/><polygon fill="#181818" points="405.58,187.9837,415.4286,188.0522,410.1631,185.9848,412.2305,180.7193,405.58,187.9837" style="stroke:#181818;stroke-width:1.0;"/><text fill="#000000" font-family="sans-serif" font-size="13" lengthAdjust="spacing" textLength="5" x="414.8162" y="176.5517">*</text></g><!--link ExamQuestion to ExamQuestionSolution--><g id="link_ExamQuestion_ExamQuestionSolution"><path codeLine="14" d="M675.13,120.1237 C690,139.9937 708.11,164.2037 722.56,183.5037 " fill="none" id="ExamQuestion-to-ExamQuestionSolution" style="stroke:#181818;stroke-width:1.0;"/><polygon fill="#181818" points="725.77,187.8037,723.6084,178.195,722.786,183.7917,717.1893,182.9693,725.77,187.8037" style="stroke:#181818;stroke-width:1.0;"/><text fill="#000000" font-family="sans-serif" font-size="13" lengthAdjust="spacing" textLength="5" x="715.6694" y="176.818">*</text></g><!--link ExamQuestion to ExamQuestionType--><g id="link_ExamQuestion_ExamQuestionType"><path codeLine="15" d="M708.64,110.1637 C753.96,130.4837 816.03,158.3237 865.61,180.5637 " fill="none" id="ExamQuestion-to-ExamQuestionType" style="stroke:#181818;stroke-width:1.0;"/><polygon fill="#181818" points="870.36,182.6937,863.8028,175.345,865.8028,180.6365,860.5113,182.6365,870.36,182.6937" style="stroke:#181818;stroke-width:1.0;"/><text fill="#000000" font-family="sans-serif" font-size="13" lengthAdjust="spacing" textLength="7" x="855.6263" y="175.5334">1</text></g><!--link ExamQuestion to ExamQuestionStatement--><g id="link_ExamQuestion_ExamQuestionStatement"><path codeLine="16" d="M585.47,94.9237 C503.38,111.9237 353.76,144.4137 228,180.0137 C220.95,182.0137 213.68,184.1837 206.39,186.4337 " fill="none" id="ExamQuestion-to-ExamQuestionStatement" style="stroke:#181818;stroke-width:1.0;"/><polygon fill="#181818" points="201.35,188.0137,211.1353,189.1304,206.1199,186.5142,208.7361,181.4987,201.35,188.0137" style="stroke:#181818;stroke-width:1.0;"/><text fill="#000000" font-family="sans-serif" font-size="13" lengthAdjust="spacing" textLength="7" x="212.2547" y="176.5883">1</text></g><!--SRC=[ZT7F2y8W50Vmkt-5U0a6Dhg6UAjxBBg_tAD6EiTyHX7xttE31T6FpOF2y-FZVN5n9ch2EiyR2pL5PvV6kpm6b0RILbPmQi4nre2vm0cvK2fL-EO6RXSnKELhhSM3yRICXH3UhhXIM5D5TwsLQhqdhH_T3riG4Bh4qwEh_mEtYEKnZJFb3c0ZJg72szYV4sn_RyPMVQJe1ZlWjxmY4rn9EHGBD7tj4qcfkLY9ps5_q4nypJzFZm7dZT7dd2TVtyLOzmG0]--></g></svg>