<?xml version="1.0" encoding="us-ascii" standalone="no"?><svg xmlns="http://www.w3.org/2000/svg" xmlns:xlink="http://www.w3.org/1999/xlink" contentStyleType="text/css" height="688px" preserveAspectRatio="none" style="width:1035px;height:688px;background:#FFFFFF;" version="1.1" viewBox="0 0 1035 688" width="1035px" zoomAndPan="magnify"><defs/><g><!--cluster <<agr Exam>>--><g id="cluster_&lt;&lt;agr Exam&gt;&gt;"><path d="M8.5,6.0137 L89.5,6.0137 A3.75,3.75 0 0 1 92,8.5137 L99,30.6348 L1025.5,30.6348 A2.5,2.5 0 0 1 1028,33.1348 L1028,678.5137 A2.5,2.5 0 0 1 1025.5,681.0137 L8.5,681.0137 A2.5,2.5 0 0 1 6,678.5137 L6,8.5137 A2.5,2.5 0 0 1 8.5,6.0137 " fill="none" style="stroke:#000000;stroke-width:1.5;"/><line style="stroke:#000000;stroke-width:1.5;" x1="6" x2="99" y1="30.6348" y2="30.6348"/><text fill="#000000" font-family="sans-serif" font-size="14" font-weight="bold" lengthAdjust="spacing" textLength="80" x="10" y="23.1211">&#171;agr Exam&#187;</text></g><!--class Exam--><g id="elem_Exam"><rect codeLine="4" fill="#F1F1F1" height="76.543" id="Exam" rx="2.5" ry="2.5" style="stroke:#181818;stroke-width:0.5;" width="71" x="265.5" y="170.0137"/><ellipse cx="280.5" cy="200.2852" fill="#ADD1B2" rx="11" ry="11" style="stroke:#181818;stroke-width:1.0;"/><path d="M283.2656,196.1602 Q283.4219,195.9414 283.6094,195.832 Q283.7969,195.7227 284.0156,195.7227 Q284.3906,195.7227 284.625,195.9883 Q284.8594,196.2383 284.8594,196.8477 L284.8594,198.3008 Q284.8594,198.9102 284.625,199.1758 Q284.3906,199.4414 284.0156,199.4414 Q283.6719,199.4414 283.4688,199.2383 Q283.2656,199.0508 283.1563,198.5352 Q283.1094,198.1758 282.9219,197.9883 Q282.5938,197.6133 281.9844,197.3945 Q281.375,197.1758 280.75,197.1758 Q279.9844,197.1758 279.3438,197.5039 Q278.7188,197.832 278.2188,198.582 Q277.7344,199.332 277.7344,200.3633 L277.7344,201.457 Q277.7344,202.6914 278.625,203.5195 Q279.5156,204.332 281.1094,204.332 Q282.0469,204.332 282.7031,204.082 Q283.0938,203.9258 283.5156,203.4883 Q283.7813,203.2227 283.9219,203.1445 Q284.0781,203.0664 284.2813,203.0664 Q284.6094,203.0664 284.8594,203.332 Q285.125,203.582 285.125,203.9258 Q285.125,204.2695 284.7813,204.6758 Q284.2813,205.2539 283.4844,205.582 Q282.4063,206.0352 281.1094,206.0352 Q279.5938,206.0352 278.3906,205.4102 Q277.4063,204.9102 276.7188,203.8477 Q276.0313,202.7695 276.0313,201.4883 L276.0313,200.332 Q276.0313,199.0039 276.6406,197.8633 Q277.2656,196.707 278.3594,196.0977 Q279.4531,195.4727 280.6875,195.4727 Q281.4219,195.4727 282.0625,195.6445 Q282.7188,195.8008 283.2656,196.1602 Z " fill="#000000"/><text fill="#000000" font-family="sans-serif" font-size="12" font-style="italic" lengthAdjust="spacing" textLength="43" x="292.5" y="187.9629">&#171;entity&#187;</text><text fill="#000000" font-family="sans-serif" font-size="12" font-style="italic" lengthAdjust="spacing" textLength="35" x="296.5" y="203.9238">&#171;root&#187;</text><text fill="#000000" font-family="sans-serif" font-size="14" lengthAdjust="spacing" textLength="34" x="297" y="222.043">Exam</text><line style="stroke:#181818;stroke-width:0.5;" x1="266.5" x2="335.5" y1="230.5566" y2="230.5566"/><line style="stroke:#181818;stroke-width:0.5;" x1="266.5" x2="335.5" y1="238.5566" y2="238.5566"/></g><!--class ExamTitle--><g id="elem_ExamTitle"><rect codeLine="5" fill="#F1F1F1" height="60.582" id="ExamTitle" rx="2.5" ry="2.5" style="stroke:#181818;stroke-width:0.5;" width="93" x="69.5" y="326.0137"/><ellipse cx="84.5" cy="348.3047" fill="#ADD1B2" rx="11" ry="11" style="stroke:#181818;stroke-width:1.0;"/><path d="M87.2656,344.1797 Q87.4219,343.9609 87.6094,343.8516 Q87.7969,343.7422 88.0156,343.7422 Q88.3906,343.7422 88.625,344.0078 Q88.8594,344.2578 88.8594,344.8672 L88.8594,346.3203 Q88.8594,346.9297 88.625,347.1953 Q88.3906,347.4609 88.0156,347.4609 Q87.6719,347.4609 87.4688,347.2578 Q87.2656,347.0703 87.1563,346.5547 Q87.1094,346.1953 86.9219,346.0078 Q86.5938,345.6328 85.9844,345.4141 Q85.375,345.1953 84.75,345.1953 Q83.9844,345.1953 83.3438,345.5234 Q82.7188,345.8516 82.2188,346.6016 Q81.7344,347.3516 81.7344,348.3828 L81.7344,349.4766 Q81.7344,350.7109 82.625,351.5391 Q83.5156,352.3516 85.1094,352.3516 Q86.0469,352.3516 86.7031,352.1016 Q87.0938,351.9453 87.5156,351.5078 Q87.7813,351.2422 87.9219,351.1641 Q88.0781,351.0859 88.2813,351.0859 Q88.6094,351.0859 88.8594,351.3516 Q89.125,351.6016 89.125,351.9453 Q89.125,352.2891 88.7813,352.6953 Q88.2813,353.2734 87.4844,353.6016 Q86.4063,354.0547 85.1094,354.0547 Q83.5938,354.0547 82.3906,353.4297 Q81.4063,352.9297 80.7188,351.8672 Q80.0313,350.7891 80.0313,349.5078 L80.0313,348.3516 Q80.0313,347.0234 80.6406,345.8828 Q81.2656,344.7266 82.3594,344.1172 Q83.4531,343.4922 84.6875,343.4922 Q85.4219,343.4922 86.0625,343.6641 Q86.7188,343.8203 87.2656,344.1797 Z " fill="#000000"/><text fill="#000000" font-family="sans-serif" font-size="12" font-style="italic" lengthAdjust="spacing" textLength="27" x="115.5" y="343.9629">&#171;vo&#187;</text><text fill="#000000" font-family="sans-serif" font-size="14" lengthAdjust="spacing" textLength="61" x="98.5" y="362.082">ExamTitle</text><line style="stroke:#181818;stroke-width:0.5;" x1="70.5" x2="161.5" y1="370.5957" y2="370.5957"/><line style="stroke:#181818;stroke-width:0.5;" x1="70.5" x2="161.5" y1="378.5957" y2="378.5957"/></g><!--class ExamHeader--><g id="elem_ExamHeader"><rect codeLine="6" fill="#F1F1F1" height="60.582" id="ExamHeader" rx="2.5" ry="2.5" style="stroke:#181818;stroke-width:0.5;" width="112" x="198" y="326.0137"/><ellipse cx="213" cy="348.3047" fill="#ADD1B2" rx="11" ry="11" style="stroke:#181818;stroke-width:1.0;"/><path d="M215.7656,344.1797 Q215.9219,343.9609 216.1094,343.8516 Q216.2969,343.7422 216.5156,343.7422 Q216.8906,343.7422 217.125,344.0078 Q217.3594,344.2578 217.3594,344.8672 L217.3594,346.3203 Q217.3594,346.9297 217.125,347.1953 Q216.8906,347.4609 216.5156,347.4609 Q216.1719,347.4609 215.9688,347.2578 Q215.7656,347.0703 215.6563,346.5547 Q215.6094,346.1953 215.4219,346.0078 Q215.0938,345.6328 214.4844,345.4141 Q213.875,345.1953 213.25,345.1953 Q212.4844,345.1953 211.8438,345.5234 Q211.2188,345.8516 210.7188,346.6016 Q210.2344,347.3516 210.2344,348.3828 L210.2344,349.4766 Q210.2344,350.7109 211.125,351.5391 Q212.0156,352.3516 213.6094,352.3516 Q214.5469,352.3516 215.2031,352.1016 Q215.5938,351.9453 216.0156,351.5078 Q216.2813,351.2422 216.4219,351.1641 Q216.5781,351.0859 216.7813,351.0859 Q217.1094,351.0859 217.3594,351.3516 Q217.625,351.6016 217.625,351.9453 Q217.625,352.2891 217.2813,352.6953 Q216.7813,353.2734 215.9844,353.6016 Q214.9063,354.0547 213.6094,354.0547 Q212.0938,354.0547 210.8906,353.4297 Q209.9063,352.9297 209.2188,351.8672 Q208.5313,350.7891 208.5313,349.5078 L208.5313,348.3516 Q208.5313,347.0234 209.1406,345.8828 Q209.7656,344.7266 210.8594,344.1172 Q211.9531,343.4922 213.1875,343.4922 Q213.9219,343.4922 214.5625,343.6641 Q215.2188,343.8203 215.7656,344.1797 Z " fill="#000000"/><text fill="#000000" font-family="sans-serif" font-size="12" font-style="italic" lengthAdjust="spacing" textLength="43" x="245.5" y="343.9629">&#171;entity&#187;</text><text fill="#000000" font-family="sans-serif" font-size="14" lengthAdjust="spacing" textLength="80" x="227" y="362.082">ExamHeader</text><line style="stroke:#181818;stroke-width:0.5;" x1="199" x2="309" y1="370.5957" y2="370.5957"/><line style="stroke:#181818;stroke-width:0.5;" x1="199" x2="309" y1="378.5957" y2="378.5957"/></g><!--class ExamHeaderTextualDescription--><g id="elem_ExamHeaderTextualDescription"><rect codeLine="7" fill="#F1F1F1" height="60.582" id="ExamHeaderTextualDescription" rx="2.5" ry="2.5" style="stroke:#181818;stroke-width:0.5;" width="229" x="22.5" y="466.0137"/><ellipse cx="37.5" cy="488.3047" fill="#ADD1B2" rx="11" ry="11" style="stroke:#181818;stroke-width:1.0;"/><path d="M40.2656,484.1797 Q40.4219,483.9609 40.6094,483.8516 Q40.7969,483.7422 41.0156,483.7422 Q41.3906,483.7422 41.625,484.0078 Q41.8594,484.2578 41.8594,484.8672 L41.8594,486.3203 Q41.8594,486.9297 41.625,487.1953 Q41.3906,487.4609 41.0156,487.4609 Q40.6719,487.4609 40.4688,487.2578 Q40.2656,487.0703 40.1563,486.5547 Q40.1094,486.1953 39.9219,486.0078 Q39.5938,485.6328 38.9844,485.4141 Q38.375,485.1953 37.75,485.1953 Q36.9844,485.1953 36.3438,485.5234 Q35.7188,485.8516 35.2188,486.6016 Q34.7344,487.3516 34.7344,488.3828 L34.7344,489.4766 Q34.7344,490.7109 35.625,491.5391 Q36.5156,492.3516 38.1094,492.3516 Q39.0469,492.3516 39.7031,492.1016 Q40.0938,491.9453 40.5156,491.5078 Q40.7813,491.2422 40.9219,491.1641 Q41.0781,491.0859 41.2813,491.0859 Q41.6094,491.0859 41.8594,491.3516 Q42.125,491.6016 42.125,491.9453 Q42.125,492.2891 41.7813,492.6953 Q41.2813,493.2734 40.4844,493.6016 Q39.4063,494.0547 38.1094,494.0547 Q36.5938,494.0547 35.3906,493.4297 Q34.4063,492.9297 33.7188,491.8672 Q33.0313,490.7891 33.0313,489.5078 L33.0313,488.3516 Q33.0313,487.0234 33.6406,485.8828 Q34.2656,484.7266 35.3594,484.1172 Q36.4531,483.4922 37.6875,483.4922 Q38.4219,483.4922 39.0625,483.6641 Q39.7188,483.8203 40.2656,484.1797 Z " fill="#000000"/><text fill="#000000" font-family="sans-serif" font-size="12" font-style="italic" lengthAdjust="spacing" textLength="27" x="136.5" y="483.9629">&#171;vo&#187;</text><text fill="#000000" font-family="sans-serif" font-size="14" lengthAdjust="spacing" textLength="197" x="51.5" y="502.082">ExamHeaderTextualDescription</text><line style="stroke:#181818;stroke-width:0.5;" x1="23.5" x2="250.5" y1="510.5957" y2="510.5957"/><line style="stroke:#181818;stroke-width:0.5;" x1="23.5" x2="250.5" y1="518.5957" y2="518.5957"/></g><!--class ExamSection--><g id="elem_ExamSection"><rect codeLine="8" fill="#F1F1F1" height="60.582" id="ExamSection" rx="2.5" ry="2.5" style="stroke:#181818;stroke-width:0.5;" width="113" x="345.5" y="326.0137"/><ellipse cx="360.5" cy="348.3047" fill="#ADD1B2" rx="11" ry="11" style="stroke:#181818;stroke-width:1.0;"/><path d="M363.2656,344.1797 Q363.4219,343.9609 363.6094,343.8516 Q363.7969,343.7422 364.0156,343.7422 Q364.3906,343.7422 364.625,344.0078 Q364.8594,344.2578 364.8594,344.8672 L364.8594,346.3203 Q364.8594,346.9297 364.625,347.1953 Q364.3906,347.4609 364.0156,347.4609 Q363.6719,347.4609 363.4688,347.2578 Q363.2656,347.0703 363.1563,346.5547 Q363.1094,346.1953 362.9219,346.0078 Q362.5938,345.6328 361.9844,345.4141 Q361.375,345.1953 360.75,345.1953 Q359.9844,345.1953 359.3438,345.5234 Q358.7188,345.8516 358.2188,346.6016 Q357.7344,347.3516 357.7344,348.3828 L357.7344,349.4766 Q357.7344,350.7109 358.625,351.5391 Q359.5156,352.3516 361.1094,352.3516 Q362.0469,352.3516 362.7031,352.1016 Q363.0938,351.9453 363.5156,351.5078 Q363.7813,351.2422 363.9219,351.1641 Q364.0781,351.0859 364.2813,351.0859 Q364.6094,351.0859 364.8594,351.3516 Q365.125,351.6016 365.125,351.9453 Q365.125,352.2891 364.7813,352.6953 Q364.2813,353.2734 363.4844,353.6016 Q362.4063,354.0547 361.1094,354.0547 Q359.5938,354.0547 358.3906,353.4297 Q357.4063,352.9297 356.7188,351.8672 Q356.0313,350.7891 356.0313,349.5078 L356.0313,348.3516 Q356.0313,347.0234 356.6406,345.8828 Q357.2656,344.7266 358.3594,344.1172 Q359.4531,343.4922 360.6875,343.4922 Q361.4219,343.4922 362.0625,343.6641 Q362.7188,343.8203 363.2656,344.1797 Z " fill="#000000"/><text fill="#000000" font-family="sans-serif" font-size="12" font-style="italic" lengthAdjust="spacing" textLength="43" x="393.5" y="343.9629">&#171;entity&#187;</text><text fill="#000000" font-family="sans-serif" font-size="14" lengthAdjust="spacing" textLength="81" x="374.5" y="362.082">ExamSection</text><line style="stroke:#181818;stroke-width:0.5;" x1="346.5" x2="457.5" y1="370.5957" y2="370.5957"/><line style="stroke:#181818;stroke-width:0.5;" x1="346.5" x2="457.5" y1="378.5957" y2="378.5957"/></g><!--class ExamSectionTextualDescription--><g id="elem_ExamSectionTextualDescription"><rect codeLine="9" fill="#F1F1F1" height="60.582" id="ExamSectionTextualDescription" rx="2.5" ry="2.5" style="stroke:#181818;stroke-width:0.5;" width="230" x="287" y="466.0137"/><ellipse cx="302" cy="488.3047" fill="#ADD1B2" rx="11" ry="11" style="stroke:#181818;stroke-width:1.0;"/><path d="M304.7656,484.1797 Q304.9219,483.9609 305.1094,483.8516 Q305.2969,483.7422 305.5156,483.7422 Q305.8906,483.7422 306.125,484.0078 Q306.3594,484.2578 306.3594,484.8672 L306.3594,486.3203 Q306.3594,486.9297 306.125,487.1953 Q305.8906,487.4609 305.5156,487.4609 Q305.1719,487.4609 304.9688,487.2578 Q304.7656,487.0703 304.6563,486.5547 Q304.6094,486.1953 304.4219,486.0078 Q304.0938,485.6328 303.4844,485.4141 Q302.875,485.1953 302.25,485.1953 Q301.4844,485.1953 300.8438,485.5234 Q300.2188,485.8516 299.7188,486.6016 Q299.2344,487.3516 299.2344,488.3828 L299.2344,489.4766 Q299.2344,490.7109 300.125,491.5391 Q301.0156,492.3516 302.6094,492.3516 Q303.5469,492.3516 304.2031,492.1016 Q304.5938,491.9453 305.0156,491.5078 Q305.2813,491.2422 305.4219,491.1641 Q305.5781,491.0859 305.7813,491.0859 Q306.1094,491.0859 306.3594,491.3516 Q306.625,491.6016 306.625,491.9453 Q306.625,492.2891 306.2813,492.6953 Q305.7813,493.2734 304.9844,493.6016 Q303.9063,494.0547 302.6094,494.0547 Q301.0938,494.0547 299.8906,493.4297 Q298.9063,492.9297 298.2188,491.8672 Q297.5313,490.7891 297.5313,489.5078 L297.5313,488.3516 Q297.5313,487.0234 298.1406,485.8828 Q298.7656,484.7266 299.8594,484.1172 Q300.9531,483.4922 302.1875,483.4922 Q302.9219,483.4922 303.5625,483.6641 Q304.2188,483.8203 304.7656,484.1797 Z " fill="#000000"/><text fill="#000000" font-family="sans-serif" font-size="12" font-style="italic" lengthAdjust="spacing" textLength="27" x="401.5" y="483.9629">&#171;vo&#187;</text><text fill="#000000" font-family="sans-serif" font-size="14" lengthAdjust="spacing" textLength="198" x="316" y="502.082">ExamSectionTextualDescription</text><line style="stroke:#181818;stroke-width:0.5;" x1="288" x2="516" y1="510.5957" y2="510.5957"/><line style="stroke:#181818;stroke-width:0.5;" x1="288" x2="516" y1="518.5957" y2="518.5957"/></g><!--class ExamQuestion--><g id="elem_ExamQuestion"><rect codeLine="10" fill="#F1F1F1" height="60.582" id="ExamQuestion" rx="2.5" ry="2.5" style="stroke:#181818;stroke-width:0.5;" width="123" x="552.5" y="466.0137"/><ellipse cx="567.5" cy="488.3047" fill="#ADD1B2" rx="11" ry="11" style="stroke:#181818;stroke-width:1.0;"/><path d="M570.2656,484.1797 Q570.4219,483.9609 570.6094,483.8516 Q570.7969,483.7422 571.0156,483.7422 Q571.3906,483.7422 571.625,484.0078 Q571.8594,484.2578 571.8594,484.8672 L571.8594,486.3203 Q571.8594,486.9297 571.625,487.1953 Q571.3906,487.4609 571.0156,487.4609 Q570.6719,487.4609 570.4688,487.2578 Q570.2656,487.0703 570.1563,486.5547 Q570.1094,486.1953 569.9219,486.0078 Q569.5938,485.6328 568.9844,485.4141 Q568.375,485.1953 567.75,485.1953 Q566.9844,485.1953 566.3438,485.5234 Q565.7188,485.8516 565.2188,486.6016 Q564.7344,487.3516 564.7344,488.3828 L564.7344,489.4766 Q564.7344,490.7109 565.625,491.5391 Q566.5156,492.3516 568.1094,492.3516 Q569.0469,492.3516 569.7031,492.1016 Q570.0938,491.9453 570.5156,491.5078 Q570.7813,491.2422 570.9219,491.1641 Q571.0781,491.0859 571.2813,491.0859 Q571.6094,491.0859 571.8594,491.3516 Q572.125,491.6016 572.125,491.9453 Q572.125,492.2891 571.7813,492.6953 Q571.2813,493.2734 570.4844,493.6016 Q569.4063,494.0547 568.1094,494.0547 Q566.5938,494.0547 565.3906,493.4297 Q564.4063,492.9297 563.7188,491.8672 Q563.0313,490.7891 563.0313,489.5078 L563.0313,488.3516 Q563.0313,487.0234 563.6406,485.8828 Q564.2656,484.7266 565.3594,484.1172 Q566.4531,483.4922 567.6875,483.4922 Q568.4219,483.4922 569.0625,483.6641 Q569.7188,483.8203 570.2656,484.1797 Z " fill="#000000"/><text fill="#000000" font-family="sans-serif" font-size="12" font-style="italic" lengthAdjust="spacing" textLength="43" x="605.5" y="483.9629">&#171;entity&#187;</text><text fill="#000000" font-family="sans-serif" font-size="14" lengthAdjust="spacing" textLength="91" x="581.5" y="502.082">ExamQuestion</text><line style="stroke:#181818;stroke-width:0.5;" x1="553.5" x2="674.5" y1="510.5957" y2="510.5957"/><line style="stroke:#181818;stroke-width:0.5;" x1="553.5" x2="674.5" y1="518.5957" y2="518.5957"/></g><!--class ExamQuestionStatement--><g id="elem_ExamQuestionStatement"><rect codeLine="11" fill="#F1F1F1" height="60.582" id="ExamQuestionStatement" rx="2.5" ry="2.5" style="stroke:#181818;stroke-width:0.5;" width="187" x="22.5" y="596.0137"/><ellipse cx="37.5" cy="618.3047" fill="#ADD1B2" rx="11" ry="11" style="stroke:#181818;stroke-width:1.0;"/><path d="M40.2656,614.1797 Q40.4219,613.9609 40.6094,613.8516 Q40.7969,613.7422 41.0156,613.7422 Q41.3906,613.7422 41.625,614.0078 Q41.8594,614.2578 41.8594,614.8672 L41.8594,616.3203 Q41.8594,616.9297 41.625,617.1953 Q41.3906,617.4609 41.0156,617.4609 Q40.6719,617.4609 40.4688,617.2578 Q40.2656,617.0703 40.1563,616.5547 Q40.1094,616.1953 39.9219,616.0078 Q39.5938,615.6328 38.9844,615.4141 Q38.375,615.1953 37.75,615.1953 Q36.9844,615.1953 36.3438,615.5234 Q35.7188,615.8516 35.2188,616.6016 Q34.7344,617.3516 34.7344,618.3828 L34.7344,619.4766 Q34.7344,620.7109 35.625,621.5391 Q36.5156,622.3516 38.1094,622.3516 Q39.0469,622.3516 39.7031,622.1016 Q40.0938,621.9453 40.5156,621.5078 Q40.7813,621.2422 40.9219,621.1641 Q41.0781,621.0859 41.2813,621.0859 Q41.6094,621.0859 41.8594,621.3516 Q42.125,621.6016 42.125,621.9453 Q42.125,622.2891 41.7813,622.6953 Q41.2813,623.2734 40.4844,623.6016 Q39.4063,624.0547 38.1094,624.0547 Q36.5938,624.0547 35.3906,623.4297 Q34.4063,622.9297 33.7188,621.8672 Q33.0313,620.7891 33.0313,619.5078 L33.0313,618.3516 Q33.0313,617.0234 33.6406,615.8828 Q34.2656,614.7266 35.3594,614.1172 Q36.4531,613.4922 37.6875,613.4922 Q38.4219,613.4922 39.0625,613.6641 Q39.7188,613.8203 40.2656,614.1797 Z " fill="#000000"/><text fill="#000000" font-family="sans-serif" font-size="12" font-style="italic" lengthAdjust="spacing" textLength="27" x="115.5" y="613.9629">&#171;vo&#187;</text><text fill="#000000" font-family="sans-serif" font-size="14" lengthAdjust="spacing" textLength="155" x="51.5" y="632.082">ExamQuestionStatement</text><line style="stroke:#181818;stroke-width:0.5;" x1="23.5" x2="208.5" y1="640.5957" y2="640.5957"/><line style="stroke:#181818;stroke-width:0.5;" x1="23.5" x2="208.5" y1="648.5957" y2="648.5957"/></g><!--class ExamQuestionNumber--><g id="elem_ExamQuestionNumber"><rect codeLine="12" fill="#F1F1F1" height="60.582" id="ExamQuestionNumber" rx="2.5" ry="2.5" style="stroke:#181818;stroke-width:0.5;" width="172" x="245" y="596.0137"/><ellipse cx="260" cy="618.3047" fill="#ADD1B2" rx="11" ry="11" style="stroke:#181818;stroke-width:1.0;"/><path d="M262.7656,614.1797 Q262.9219,613.9609 263.1094,613.8516 Q263.2969,613.7422 263.5156,613.7422 Q263.8906,613.7422 264.125,614.0078 Q264.3594,614.2578 264.3594,614.8672 L264.3594,616.3203 Q264.3594,616.9297 264.125,617.1953 Q263.8906,617.4609 263.5156,617.4609 Q263.1719,617.4609 262.9688,617.2578 Q262.7656,617.0703 262.6563,616.5547 Q262.6094,616.1953 262.4219,616.0078 Q262.0938,615.6328 261.4844,615.4141 Q260.875,615.1953 260.25,615.1953 Q259.4844,615.1953 258.8438,615.5234 Q258.2188,615.8516 257.7188,616.6016 Q257.2344,617.3516 257.2344,618.3828 L257.2344,619.4766 Q257.2344,620.7109 258.125,621.5391 Q259.0156,622.3516 260.6094,622.3516 Q261.5469,622.3516 262.2031,622.1016 Q262.5938,621.9453 263.0156,621.5078 Q263.2813,621.2422 263.4219,621.1641 Q263.5781,621.0859 263.7813,621.0859 Q264.1094,621.0859 264.3594,621.3516 Q264.625,621.6016 264.625,621.9453 Q264.625,622.2891 264.2813,622.6953 Q263.7813,623.2734 262.9844,623.6016 Q261.9063,624.0547 260.6094,624.0547 Q259.0938,624.0547 257.8906,623.4297 Q256.9063,622.9297 256.2188,621.8672 Q255.5313,620.7891 255.5313,619.5078 L255.5313,618.3516 Q255.5313,617.0234 256.1406,615.8828 Q256.7656,614.7266 257.8594,614.1172 Q258.9531,613.4922 260.1875,613.4922 Q260.9219,613.4922 261.5625,613.6641 Q262.2188,613.8203 262.7656,614.1797 Z " fill="#000000"/><text fill="#000000" font-family="sans-serif" font-size="12" font-style="italic" lengthAdjust="spacing" textLength="27" x="330.5" y="613.9629">&#171;vo&#187;</text><text fill="#000000" font-family="sans-serif" font-size="14" lengthAdjust="spacing" textLength="140" x="274" y="632.082">ExamQuestionNumber</text><line style="stroke:#181818;stroke-width:0.5;" x1="246" x2="416" y1="640.5957" y2="640.5957"/><line style="stroke:#181818;stroke-width:0.5;" x1="246" x2="416" y1="648.5957" y2="648.5957"/></g><!--class ExamQuestionValue--><g id="elem_ExamQuestionValue"><rect codeLine="13" fill="#F1F1F1" height="60.582" id="ExamQuestionValue" rx="2.5" ry="2.5" style="stroke:#181818;stroke-width:0.5;" width="159" x="452.5" y="596.0137"/><ellipse cx="467.5" cy="618.3047" fill="#ADD1B2" rx="11" ry="11" style="stroke:#181818;stroke-width:1.0;"/><path d="M470.2656,614.1797 Q470.4219,613.9609 470.6094,613.8516 Q470.7969,613.7422 471.0156,613.7422 Q471.3906,613.7422 471.625,614.0078 Q471.8594,614.2578 471.8594,614.8672 L471.8594,616.3203 Q471.8594,616.9297 471.625,617.1953 Q471.3906,617.4609 471.0156,617.4609 Q470.6719,617.4609 470.4688,617.2578 Q470.2656,617.0703 470.1563,616.5547 Q470.1094,616.1953 469.9219,616.0078 Q469.5938,615.6328 468.9844,615.4141 Q468.375,615.1953 467.75,615.1953 Q466.9844,615.1953 466.3438,615.5234 Q465.7188,615.8516 465.2188,616.6016 Q464.7344,617.3516 464.7344,618.3828 L464.7344,619.4766 Q464.7344,620.7109 465.625,621.5391 Q466.5156,622.3516 468.1094,622.3516 Q469.0469,622.3516 469.7031,622.1016 Q470.0938,621.9453 470.5156,621.5078 Q470.7813,621.2422 470.9219,621.1641 Q471.0781,621.0859 471.2813,621.0859 Q471.6094,621.0859 471.8594,621.3516 Q472.125,621.6016 472.125,621.9453 Q472.125,622.2891 471.7813,622.6953 Q471.2813,623.2734 470.4844,623.6016 Q469.4063,624.0547 468.1094,624.0547 Q466.5938,624.0547 465.3906,623.4297 Q464.4063,622.9297 463.7188,621.8672 Q463.0313,620.7891 463.0313,619.5078 L463.0313,618.3516 Q463.0313,617.0234 463.6406,615.8828 Q464.2656,614.7266 465.3594,614.1172 Q466.4531,613.4922 467.6875,613.4922 Q468.4219,613.4922 469.0625,613.6641 Q469.7188,613.8203 470.2656,614.1797 Z " fill="#000000"/><text fill="#000000" font-family="sans-serif" font-size="12" font-style="italic" lengthAdjust="spacing" textLength="27" x="531.5" y="613.9629">&#171;vo&#187;</text><text fill="#000000" font-family="sans-serif" font-size="14" lengthAdjust="spacing" textLength="127" x="481.5" y="632.082">ExamQuestionValue</text><line style="stroke:#181818;stroke-width:0.5;" x1="453.5" x2="610.5" y1="640.5957" y2="640.5957"/><line style="stroke:#181818;stroke-width:0.5;" x1="453.5" x2="610.5" y1="648.5957" y2="648.5957"/></g><!--class ExamQuestionSolution--><g id="elem_ExamQuestionSolution"><rect codeLine="14" fill="#F1F1F1" height="60.582" id="ExamQuestionSolution" rx="2.5" ry="2.5" style="stroke:#181818;stroke-width:0.5;" width="174" x="647" y="596.0137"/><ellipse cx="662" cy="618.3047" fill="#ADD1B2" rx="11" ry="11" style="stroke:#181818;stroke-width:1.0;"/><path d="M664.7656,614.1797 Q664.9219,613.9609 665.1094,613.8516 Q665.2969,613.7422 665.5156,613.7422 Q665.8906,613.7422 666.125,614.0078 Q666.3594,614.2578 666.3594,614.8672 L666.3594,616.3203 Q666.3594,616.9297 666.125,617.1953 Q665.8906,617.4609 665.5156,617.4609 Q665.1719,617.4609 664.9688,617.2578 Q664.7656,617.0703 664.6563,616.5547 Q664.6094,616.1953 664.4219,616.0078 Q664.0938,615.6328 663.4844,615.4141 Q662.875,615.1953 662.25,615.1953 Q661.4844,615.1953 660.8438,615.5234 Q660.2188,615.8516 659.7188,616.6016 Q659.2344,617.3516 659.2344,618.3828 L659.2344,619.4766 Q659.2344,620.7109 660.125,621.5391 Q661.0156,622.3516 662.6094,622.3516 Q663.5469,622.3516 664.2031,622.1016 Q664.5938,621.9453 665.0156,621.5078 Q665.2813,621.2422 665.4219,621.1641 Q665.5781,621.0859 665.7813,621.0859 Q666.1094,621.0859 666.3594,621.3516 Q666.625,621.6016 666.625,621.9453 Q666.625,622.2891 666.2813,622.6953 Q665.7813,623.2734 664.9844,623.6016 Q663.9063,624.0547 662.6094,624.0547 Q661.0938,624.0547 659.8906,623.4297 Q658.9063,622.9297 658.2188,621.8672 Q657.5313,620.7891 657.5313,619.5078 L657.5313,618.3516 Q657.5313,617.0234 658.1406,615.8828 Q658.7656,614.7266 659.8594,614.1172 Q660.9531,613.4922 662.1875,613.4922 Q662.9219,613.4922 663.5625,613.6641 Q664.2188,613.8203 664.7656,614.1797 Z " fill="#000000"/><text fill="#000000" font-family="sans-serif" font-size="12" font-style="italic" lengthAdjust="spacing" textLength="27" x="733.5" y="613.9629">&#171;vo&#187;</text><text fill="#000000" font-family="sans-serif" font-size="14" lengthAdjust="spacing" textLength="142" x="676" y="632.082">ExamQuestionSolution</text><line style="stroke:#181818;stroke-width:0.5;" x1="648" x2="820" y1="640.5957" y2="640.5957"/><line style="stroke:#181818;stroke-width:0.5;" x1="648" x2="820" y1="648.5957" y2="648.5957"/></g><!--class ExamQuestionType--><g id="elem_ExamQuestionType"><rect codeLine="15" fill="#F1F1F1" height="76.543" id="ExamQuestionType" rx="2.5" ry="2.5" style="stroke:#181818;stroke-width:0.5;" width="155" x="856.5" y="588.0137"/><ellipse cx="871.5" cy="618.2852" fill="#ADD1B2" rx="11" ry="11" style="stroke:#181818;stroke-width:1.0;"/><path d="M874.2656,614.1602 Q874.4219,613.9414 874.6094,613.832 Q874.7969,613.7227 875.0156,613.7227 Q875.3906,613.7227 875.625,613.9883 Q875.8594,614.2383 875.8594,614.8477 L875.8594,616.3008 Q875.8594,616.9102 875.625,617.1758 Q875.3906,617.4414 875.0156,617.4414 Q874.6719,617.4414 874.4688,617.2383 Q874.2656,617.0508 874.1563,616.5352 Q874.1094,616.1758 873.9219,615.9883 Q873.5938,615.6133 872.9844,615.3945 Q872.375,615.1758 871.75,615.1758 Q870.9844,615.1758 870.3438,615.5039 Q869.7188,615.832 869.2188,616.582 Q868.7344,617.332 868.7344,618.3633 L868.7344,619.457 Q868.7344,620.6914 869.625,621.5195 Q870.5156,622.332 872.1094,622.332 Q873.0469,622.332 873.7031,622.082 Q874.0938,621.9258 874.5156,621.4883 Q874.7813,621.2227 874.9219,621.1445 Q875.0781,621.0664 875.2813,621.0664 Q875.6094,621.0664 875.8594,621.332 Q876.125,621.582 876.125,621.9258 Q876.125,622.2695 875.7813,622.6758 Q875.2813,623.2539 874.4844,623.582 Q873.4063,624.0352 872.1094,624.0352 Q870.5938,624.0352 869.3906,623.4102 Q868.4063,622.9102 867.7188,621.8477 Q867.0313,620.7695 867.0313,619.4883 L867.0313,618.332 Q867.0313,617.0039 867.6406,615.8633 Q868.2656,614.707 869.3594,614.0977 Q870.4531,613.4727 871.6875,613.4727 Q872.4219,613.4727 873.0625,613.6445 Q873.7188,613.8008 874.2656,614.1602 Z " fill="#000000"/><text fill="#000000" font-family="sans-serif" font-size="12" font-style="italic" lengthAdjust="spacing" textLength="27" x="933.5" y="605.9629">&#171;vo&#187;</text><text fill="#000000" font-family="sans-serif" font-size="12" font-style="italic" lengthAdjust="spacing" textLength="46" x="924" y="621.9238">&#171;enum&#187;</text><text fill="#000000" font-family="sans-serif" font-size="14" lengthAdjust="spacing" textLength="123" x="885.5" y="640.043">ExamQuestionType</text><line style="stroke:#181818;stroke-width:0.5;" x1="857.5" x2="1010.5" y1="648.5566" y2="648.5566"/><line style="stroke:#181818;stroke-width:0.5;" x1="857.5" x2="1010.5" y1="656.5566" y2="656.5566"/></g><!--class Teacher--><g id="elem_Teacher"><rect fill="#F1F1F1" height="48" id="Teacher" rx="2.5" ry="2.5" style="stroke:#181818;stroke-width:0.5;" width="85" x="258.5" y="43.0137"/><ellipse cx="273.5" cy="59.0137" fill="#ADD1B2" rx="11" ry="11" style="stroke:#181818;stroke-width:1.0;"/><path d="M276.2656,54.8887 Q276.4219,54.6699 276.6094,54.5605 Q276.7969,54.4512 277.0156,54.4512 Q277.3906,54.4512 277.625,54.7168 Q277.8594,54.9668 277.8594,55.5762 L277.8594,57.0293 Q277.8594,57.6387 277.625,57.9043 Q277.3906,58.1699 277.0156,58.1699 Q276.6719,58.1699 276.4688,57.9668 Q276.2656,57.7793 276.1563,57.2637 Q276.1094,56.9043 275.9219,56.7168 Q275.5938,56.3418 274.9844,56.123 Q274.375,55.9043 273.75,55.9043 Q272.9844,55.9043 272.3438,56.2324 Q271.7188,56.5605 271.2188,57.3105 Q270.7344,58.0605 270.7344,59.0918 L270.7344,60.1855 Q270.7344,61.4199 271.625,62.248 Q272.5156,63.0605 274.1094,63.0605 Q275.0469,63.0605 275.7031,62.8105 Q276.0938,62.6543 276.5156,62.2168 Q276.7813,61.9512 276.9219,61.873 Q277.0781,61.7949 277.2813,61.7949 Q277.6094,61.7949 277.8594,62.0605 Q278.125,62.3105 278.125,62.6543 Q278.125,62.998 277.7813,63.4043 Q277.2813,63.9824 276.4844,64.3105 Q275.4063,64.7637 274.1094,64.7637 Q272.5938,64.7637 271.3906,64.1387 Q270.4063,63.6387 269.7188,62.5762 Q269.0313,61.498 269.0313,60.2168 L269.0313,59.0605 Q269.0313,57.7324 269.6406,56.5918 Q270.2656,55.4355 271.3594,54.8262 Q272.4531,54.2012 273.6875,54.2012 Q274.4219,54.2012 275.0625,54.373 Q275.7188,54.5293 276.2656,54.8887 Z " fill="#000000"/><text fill="#000000" font-family="sans-serif" font-size="14" lengthAdjust="spacing" textLength="53" x="287.5" y="64.8105">Teacher</text><line style="stroke:#181818;stroke-width:0.5;" x1="259.5" x2="342.5" y1="75.0137" y2="75.0137"/><line style="stroke:#181818;stroke-width:0.5;" x1="259.5" x2="342.5" y1="83.0137" y2="83.0137"/></g><!--class Course--><g id="elem_Course"><rect fill="#F1F1F1" height="48" id="Course" rx="2.5" ry="2.5" style="stroke:#181818;stroke-width:0.5;" width="78" x="494" y="332.5137"/><ellipse cx="509" cy="348.5137" fill="#ADD1B2" rx="11" ry="11" style="stroke:#181818;stroke-width:1.0;"/><path d="M511.7656,344.3887 Q511.9219,344.1699 512.1094,344.0605 Q512.2969,343.9512 512.5156,343.9512 Q512.8906,343.9512 513.125,344.2168 Q513.3594,344.4668 513.3594,345.0762 L513.3594,346.5293 Q513.3594,347.1387 513.125,347.4043 Q512.8906,347.6699 512.5156,347.6699 Q512.1719,347.6699 511.9688,347.4668 Q511.7656,347.2793 511.6563,346.7637 Q511.6094,346.4043 511.4219,346.2168 Q511.0938,345.8418 510.4844,345.623 Q509.875,345.4043 509.25,345.4043 Q508.4844,345.4043 507.8438,345.7324 Q507.2188,346.0605 506.7188,346.8105 Q506.2344,347.5605 506.2344,348.5918 L506.2344,349.6855 Q506.2344,350.9199 507.125,351.748 Q508.0156,352.5605 509.6094,352.5605 Q510.5469,352.5605 511.2031,352.3105 Q511.5938,352.1543 512.0156,351.7168 Q512.2813,351.4512 512.4219,351.373 Q512.5781,351.2949 512.7813,351.2949 Q513.1094,351.2949 513.3594,351.5605 Q513.625,351.8105 513.625,352.1543 Q513.625,352.498 513.2813,352.9043 Q512.7813,353.4824 511.9844,353.8105 Q510.9063,354.2637 509.6094,354.2637 Q508.0938,354.2637 506.8906,353.6387 Q505.9063,353.1387 505.2188,352.0762 Q504.5313,350.998 504.5313,349.7168 L504.5313,348.5605 Q504.5313,347.2324 505.1406,346.0918 Q505.7656,344.9355 506.8594,344.3262 Q507.9531,343.7012 509.1875,343.7012 Q509.9219,343.7012 510.5625,343.873 Q511.2188,344.0293 511.7656,344.3887 Z " fill="#000000"/><text fill="#000000" font-family="sans-serif" font-size="14" lengthAdjust="spacing" textLength="46" x="523" y="354.3105">Course</text><line style="stroke:#181818;stroke-width:0.5;" x1="495" x2="571" y1="364.5137" y2="364.5137"/><line style="stroke:#181818;stroke-width:0.5;" x1="495" x2="571" y1="372.5137" y2="372.5137"/></g><!--link Teacher to Exam--><g id="link_Teacher_Exam"><path codeLine="17" d="M301,91.0537 C301,111.0637 301,140.5737 301,164.8737 " fill="none" id="Teacher-to-Exam" style="stroke:#181818;stroke-width:1.0;"/><polygon fill="#181818" points="301,169.9737,305,160.9737,301,164.9737,297,160.9737,301,169.9737" style="stroke:#181818;stroke-width:1.0;"/><text fill="#000000" font-family="sans-serif" font-size="13" lengthAdjust="spacing" textLength="43" x="302" y="136.042">creates</text><text fill="#000000" font-family="sans-serif" font-size="13" lengthAdjust="spacing" textLength="5" x="295.5547" y="158.6896">*</text></g><!--link Exam to ExamTitle--><g id="link_Exam_ExamTitle"><path codeLine="18" d="M265.33,237.6637 C234.58,261.9337 190.15,296.9937 157.75,322.5637 " fill="none" id="Exam-to-ExamTitle" style="stroke:#181818;stroke-width:1.0;"/><polygon fill="#181818" points="153.47,325.9437,163.0185,323.5301,157.4021,322.8552,158.077,317.2387,153.47,325.9437" style="stroke:#181818;stroke-width:1.0;"/><text fill="#000000" font-family="sans-serif" font-size="13" lengthAdjust="spacing" textLength="7" x="153.4763" y="314.9869">1</text></g><!--link Exam to ExamHeader--><g id="link_Exam_ExamHeader"><path codeLine="19" d="M288.9,247.1137 C281.56,269.8937 272.28,298.7437 265.13,320.9437 " fill="none" id="Exam-to-ExamHeader" style="stroke:#181818;stroke-width:1.0;"/><polygon fill="#181818" points="263.54,325.8637,270.1015,318.5188,265.0696,321.1034,262.485,316.0715,263.54,325.8637" style="stroke:#181818;stroke-width:1.0;"/><text fill="#000000" font-family="sans-serif" font-size="13" lengthAdjust="spacing" textLength="7" x="257.7858" y="314.8904">1</text></g><!--link ExamHeader to ExamHeaderTextualDescription--><g id="link_ExamHeader_ExamHeaderTextualDescription"><path codeLine="20" d="M228.9,387.1137 C210.24,409.1337 184.76,439.1837 165.36,462.0637 " fill="none" id="ExamHeader-to-ExamHeaderTextualDescription" style="stroke:#181818;stroke-width:1.0;"/><polygon fill="#181818" points="162.06,465.9537,170.9277,461.6685,165.2904,462.1373,164.8215,456.4999,162.06,465.9537" style="stroke:#181818;stroke-width:1.0;"/><text fill="#000000" font-family="sans-serif" font-size="13" lengthAdjust="spacing" textLength="22" x="143.1356" y="454.5152">0..1</text></g><!--link Exam to ExamSection--><g id="link_Exam_ExamSection"><path codeLine="21" d="M327.01,247.1137 C342.9,270.0837 363.06,299.2237 378.47,321.5037 " fill="none" id="Exam-to-ExamSection" style="stroke:#181818;stroke-width:1.0;"/><polygon fill="#181818" points="381.49,325.8637,379.6646,316.1854,378.6477,321.7501,373.083,320.7332,381.49,325.8637" style="stroke:#181818;stroke-width:1.0;"/><text fill="#000000" font-family="sans-serif" font-size="13" lengthAdjust="spacing" textLength="26" x="361" y="292.042">have</text><text fill="#000000" font-family="sans-serif" font-size="13" lengthAdjust="spacing" textLength="5" x="371.7442" y="314.8904">*</text></g><!--link ExamSection to ExamSectionTextualDescription--><g id="link_ExamSection_ExamSectionTextualDescription"><path codeLine="22" d="M402,387.1137 C402,408.7637 402,438.1937 402,460.9237 " fill="none" id="ExamSection-to-ExamSectionTextualDescription" style="stroke:#181818;stroke-width:1.0;"/><polygon fill="#181818" points="402,465.9537,406,456.9537,402,460.9537,398,456.9537,402,465.9537" style="stroke:#181818;stroke-width:1.0;"/><text fill="#000000" font-family="sans-serif" font-size="13" lengthAdjust="spacing" textLength="22" x="377.5938" y="454.5152">0..1</text></g><!--link ExamQuestion to ExamQuestionValue--><g id="link_ExamQuestion_ExamQuestionValue"><path codeLine="23" d="M594.98,527.2037 C582.67,546.4237 566.59,571.5137 553.77,591.5337 " fill="none" id="ExamQuestion-to-ExamQuestionValue" style="stroke:#181818;stroke-width:1.0;"/><polygon fill="#181818" points="550.92,595.9837,559.1432,590.5634,553.6173,591.7736,552.4071,586.2477,550.92,595.9837" style="stroke:#181818;stroke-width:1.0;"/><text fill="#000000" font-family="sans-serif" font-size="13" lengthAdjust="spacing" textLength="7" x="547.2931" y="584.5517">1</text></g><!--link ExamQuestion to ExamQuestionNumber--><g id="link_ExamQuestion_ExamQuestionNumber"><path codeLine="24" d="M552.24,525.4437 C507.75,545.5737 447.63,572.7637 401.29,593.7237 " fill="none" id="ExamQuestion-to-ExamQuestionNumber" style="stroke:#181818;stroke-width:1.0;"/><polygon fill="#181818" points="396.56,595.8637,406.4087,595.8065,401.1172,593.8065,403.1172,588.515,396.56,595.8637" style="stroke:#181818;stroke-width:1.0;"/><text fill="#000000" font-family="sans-serif" font-size="13" lengthAdjust="spacing" textLength="7" x="402.3599" y="584.8904">1</text></g><!--link ExamSection to ExamQuestion--><g id="link_ExamSection_ExamQuestion"><path codeLine="25" d="M447.48,387.1137 C481.85,409.4937 528.99,440.1737 564.34,463.1937 " fill="none" id="ExamSection-to-ExamQuestion" style="stroke:#181818;stroke-width:1.0;"/><polygon fill="#181818" points="568.6,465.9537,563.2449,457.6879,564.4114,463.2232,558.8761,464.3897,568.6,465.9537" style="stroke:#181818;stroke-width:1.0;"/><text fill="#000000" font-family="sans-serif" font-size="13" lengthAdjust="spacing" textLength="26" x="521" y="432.042">have</text><text fill="#000000" font-family="sans-serif" font-size="13" lengthAdjust="spacing" textLength="5" x="553.1219" y="454.5152">*</text></g><!--link ExamQuestion to ExamQuestionSolution--><g id="link_ExamQuestion_ExamQuestionSolution"><path codeLine="26" d="M641.83,527.2037 C660.01,546.5837 683.77,571.9337 702.62,592.0437 " fill="none" id="ExamQuestion-to-ExamQuestionSolution" style="stroke:#181818;stroke-width:1.0;"/><polygon fill="#181818" points="706.32,595.9837,703.1021,586.6753,702.9079,592.3289,697.2544,592.1347,706.32,595.9837" style="stroke:#181818;stroke-width:1.0;"/><text fill="#000000" font-family="sans-serif" font-size="13" lengthAdjust="spacing" textLength="7" x="692.4994" y="584.5517">1</text></g><!--link ExamQuestion to ExamQuestionType--><g id="link_ExamQuestion_ExamQuestionType"><path codeLine="27" d="M675.7,522.1937 C725.68,542.1837 796.55,570.5337 851.42,592.4837 " fill="none" id="ExamQuestion-to-ExamQuestionType" style="stroke:#181818;stroke-width:1.0;"/><polygon fill="#181818" points="856.35,594.4537,849.4793,587.3972,851.7076,592.5967,846.5081,594.8251,856.35,594.4537" style="stroke:#181818;stroke-width:1.0;"/><text fill="#000000" font-family="sans-serif" font-size="13" lengthAdjust="spacing" textLength="7" x="841.6154" y="587.6518">1</text></g><!--link ExamQuestion to ExamQuestionStatement--><g id="link_ExamQuestion_ExamQuestionStatement"><path codeLine="28" d="M552.21,521.6637 C546.43,523.5937 540.63,525.4137 535,527.0137 C401.18,565.0237 362.45,552.3037 228,588.0137 C220.53,589.9937 212.84,592.2137 205.14,594.5437 " fill="none" id="ExamQuestion-to-ExamQuestionStatement" style="stroke:#181818;stroke-width:1.0;"/><polygon fill="#181818" points="200.35,596.0037,210.1281,597.1821,205.1292,594.5342,207.777,589.5353,200.35,596.0037" style="stroke:#181818;stroke-width:1.0;"/><text fill="#000000" font-family="sans-serif" font-size="13" lengthAdjust="spacing" textLength="7" x="211.0359" y="584.5761">1</text></g><!--link Exam to Course--><g id="link_Exam_Course"><path codeLine="29" d="M336.74,232.0037 C378.65,258.3737 447.96,301.9937 492,329.7137 " fill="none" id="Exam-to-Course" style="stroke:#181818;stroke-width:1.0;"/><polygon fill="#181818" points="496.45,332.5137,490.9578,324.3383,492.2164,329.8534,486.7014,331.112,496.45,332.5137" style="stroke:#181818;stroke-width:1.0;"/><text fill="#000000" font-family="sans-serif" font-size="13" lengthAdjust="spacing" textLength="60" x="438" y="292.042">belongs to</text><text fill="#000000" font-family="sans-serif" font-size="13" lengthAdjust="spacing" textLength="7" x="479.1872" y="321.2512">1</text></g><!--SRC=[ZP9DYuCm48Rl_HKXnqBBxhM4N7ONzbHObBrFiuELZKRoKLhA_lUDqTYgjPgBCFFuEkEJ2iGlP4WeOv1fyd66WdDwNH5_X0HZGeaGnh2qkRrmpfXMod9Ehdy3AisjH4-U5EUZvYV23-gxd0aYnRDr8D_H29rNDbVbL6A2ecrFHhR8yimlXsOkD3A91Ok5n-R2zguuXDMVKjyW7Sv1YPAkVivWwQMAKVKYhWXiW5C4SVJJR3QSq3LjzEw8qEYtCG49fT1_fJUnZrkDjAxNMWx4otRRWyOM1f7jDD7hZXpXTFjiB0-o9nLtBtPEx-Vk_VLbQAFnyJphFZgS_MbkTBgChjKkp8ttSspkJJbjq4zvGAdAp12hLlv- -FCF]--></g></svg>