<?xml version="1.0" encoding="us-ascii" standalone="no"?><svg xmlns="http://www.w3.org/2000/svg" xmlns:xlink="http://www.w3.org/1999/xlink" contentStyleType="text/css" height="319px" preserveAspectRatio="none" style="width:628px;height:319px;background:#FFFFFF;" version="1.1" viewBox="0 0 628 319" width="628px" zoomAndPan="magnify"><defs/><g><!--cluster <<agr SharedBoard>>--><g id="cluster_&lt;&lt;agr SharedBoard&gt;&gt;"><path d="M8.5,6.0137 L144.5,6.0137 A3.75,3.75 0 0 1 147,8.5137 L154,30.6348 L475.5,30.6348 A2.5,2.5 0 0 1 478,33.1348 L478,238.5137 A2.5,2.5 0 0 1 475.5,241.0137 L8.5,241.0137 A2.5,2.5 0 0 1 6,238.5137 L6,8.5137 A2.5,2.5 0 0 1 8.5,6.0137 " fill="none" style="stroke:#000000;stroke-width:1.5;"/><line style="stroke:#000000;stroke-width:1.5;" x1="6" x2="154" y1="30.6348" y2="30.6348"/><text fill="#000000" font-family="sans-serif" font-size="14" font-weight="bold" lengthAdjust="spacing" textLength="135" x="10" y="23.1211">&#171;agr SharedBoard&#187;</text></g><!--class SharedBoard--><g id="elem_SharedBoard"><rect codeLine="7" fill="#F1F1F1" height="60.543" id="SharedBoard" rx="2.5" ry="2.5" style="stroke:#181818;stroke-width:0.5;" width="90" x="355" y="43.0137"/><text fill="#000000" font-family="sans-serif" font-size="12" font-style="italic" lengthAdjust="spacing" textLength="43" x="378.5" y="60.9629">&#171;entity&#187;</text><text fill="#000000" font-family="sans-serif" font-size="12" font-style="italic" lengthAdjust="spacing" textLength="35" x="382.5" y="76.9238">&#171;root&#187;</text><text fill="#000000" font-family="sans-serif" font-size="14" lengthAdjust="spacing" textLength="84" x="358" y="95.043">SharedBoard</text></g><!--class SharedBoardTitle--><g id="elem_SharedBoardTitle"><rect codeLine="8" fill="#F1F1F1" height="44.582" id="SharedBoardTitle" rx="2.5" ry="2.5" style="stroke:#181818;stroke-width:0.5;" width="117" x="22.5" y="172.0137"/><text fill="#000000" font-family="sans-serif" font-size="12" font-style="italic" lengthAdjust="spacing" textLength="27" x="67.5" y="189.9629">&#171;vo&#187;</text><text fill="#000000" font-family="sans-serif" font-size="14" lengthAdjust="spacing" textLength="111" x="25.5" y="208.082">SharedBoardTitle</text></g><!--class CreationTimestamp--><g id="elem_CreationTimestamp"><rect codeLine="9" fill="#F1F1F1" height="44.582" id="CreationTimestamp" rx="2.5" ry="2.5" style="stroke:#181818;stroke-width:0.5;" width="129" x="174.5" y="172.0137"/><text fill="#000000" font-family="sans-serif" font-size="12" font-style="italic" lengthAdjust="spacing" textLength="27" x="225.5" y="189.9629">&#171;vo&#187;</text><text fill="#000000" font-family="sans-serif" font-size="14" lengthAdjust="spacing" textLength="123" x="177.5" y="208.082">CreationTimestamp</text></g><!--class SharedBoardState--><g id="elem_SharedBoardState"><rect codeLine="10" fill="#F1F1F1" height="60.543" id="SharedBoardState" rx="2.5" ry="2.5" style="stroke:#181818;stroke-width:0.5;" width="123" x="338.5" y="164.0137"/><text fill="#000000" font-family="sans-serif" font-size="12" font-style="italic" lengthAdjust="spacing" textLength="27" x="386.5" y="181.9629">&#171;vo&#187;</text><text fill="#000000" font-family="sans-serif" font-size="12" font-style="italic" lengthAdjust="spacing" textLength="46" x="377" y="197.9238">&#171;enum&#187;</text><text fill="#000000" font-family="sans-serif" font-size="14" lengthAdjust="spacing" textLength="117" x="341.5" y="216.043">SharedBoardState</text></g><!--class PostIt--><g id="elem_PostIt"><rect codeLine="16" fill="#F1F1F1" height="28.6211" id="PostIt" rx="2.5" ry="2.5" style="stroke:#181818;stroke-width:0.5;" width="41" x="496.5" y="180.0137"/><text fill="#000000" font-family="sans-serif" font-size="14" lengthAdjust="spacing" textLength="35" x="499.5" y="200.1211">PostIt</text></g><!--class PostItContent--><g id="elem_PostItContent"><rect codeLine="17" fill="#F1F1F1" height="28.6211" id="PostItContent" rx="2.5" ry="2.5" style="stroke:#181818;stroke-width:0.5;" width="91" x="471.5" y="285.0137"/><text fill="#000000" font-family="sans-serif" font-size="14" lengthAdjust="spacing" textLength="85" x="474.5" y="305.1211">PostItContent</text></g><!--class History--><g id="elem_History"><rect codeLine="18" fill="#F1F1F1" height="28.6211" id="History" rx="2.5" ry="2.5" style="stroke:#181818;stroke-width:0.5;" width="49" x="572.5" y="180.0137"/><text fill="#000000" font-family="sans-serif" font-size="14" lengthAdjust="spacing" textLength="43" x="575.5" y="200.1211">History</text></g><!--link SharedBoard to SharedBoardState--><g id="link_SharedBoard_SharedBoardState"><path codeLine="12" d="M400,104.2337 C400,120.7037 400,141.2737 400,158.5237 " fill="none" id="SharedBoard-to-SharedBoardState" style="stroke:#181818;stroke-width:1.0;"/><polygon fill="#181818" points="400,163.7537,404,154.7537,400,158.7537,396,154.7537,400,163.7537" style="stroke:#181818;stroke-width:1.0;"/><text fill="#000000" font-family="sans-serif" font-size="13" lengthAdjust="spacing" textLength="7" x="392.2781" y="152.7618">1</text></g><!--link SharedBoard to SharedBoardTitle--><g id="link_SharedBoard_SharedBoardTitle"><path codeLine="13" d="M354.68,90.9437 C305.81,108.7137 225.75,138.0137 157,164.0137 C151.83,165.9637 146.47,168.0137 141.1,170.0737 " fill="none" id="SharedBoard-to-SharedBoardTitle" style="stroke:#181818;stroke-width:1.0;"/><polygon fill="#181818" points="136.16,171.9737,145.9963,172.4702,140.8256,170.1759,143.1199,165.0052,136.16,171.9737" style="stroke:#181818;stroke-width:1.0;"/><text fill="#000000" font-family="sans-serif" font-size="13" lengthAdjust="spacing" textLength="7" x="143.0436" y="160.7553">1</text></g><!--link SharedBoard to CreationTimestamp--><g id="link_SharedBoard_CreationTimestamp"><path codeLine="14" d="M359.79,104.2337 C332.93,124.0837 298.02,149.8937 272.64,168.6437 " fill="none" id="SharedBoard-to-CreationTimestamp" style="stroke:#181818;stroke-width:1.0;"/><polygon fill="#181818" points="268.34,171.8337,277.9537,169.6941,272.3588,168.8589,273.194,163.264,268.34,171.8337" style="stroke:#181818;stroke-width:1.0;"/><text fill="#000000" font-family="sans-serif" font-size="13" lengthAdjust="spacing" textLength="7" x="268.2845" y="160.5776">1</text></g><!--link SharedBoard to History--><g id="link_SharedBoard_History"><path codeLine="19" d="M445.06,99.1337 C476.33,116.5637 518.72,140.8637 555,164.0137 C561.35,168.0637 568.08,172.6537 574.25,176.9837 " fill="none" id="SharedBoard-to-History" style="stroke:#181818;stroke-width:1.0;"/><polygon fill="#181818" points="578.43,179.9337,573.3863,171.4743,574.346,177.0491,568.7711,178.0087,578.43,179.9337" style="stroke:#181818;stroke-width:1.0;"/><text fill="#000000" font-family="sans-serif" font-size="13" lengthAdjust="spacing" textLength="7" x="563.5676" y="168.8591">1</text></g><!--link SharedBoard to PostIt--><g id="link_SharedBoard_PostIt"><path codeLine="20" d="M429.22,104.2337 C451.56,126.9537 481.57,157.4737 500.08,176.3037 " fill="none" id="SharedBoard-to-PostIt" style="stroke:#181818;stroke-width:1.0;"/><polygon fill="#181818" points="503.62,179.9037,500.159,170.683,500.1132,176.3396,494.4565,176.2938,503.62,179.9037" style="stroke:#181818;stroke-width:1.0;"/><text fill="#000000" font-family="sans-serif" font-size="13" lengthAdjust="spacing" textLength="5" x="492.9628" y="168.8184">*</text></g><!--link PostIt to PostItContent--><g id="link_PostIt_PostItContent"><path codeLine="22" d="M517,209.4037 C517,227.5537 517,259.3937 517,279.6937 " fill="none" id="PostIt-to-PostItContent" style="stroke:#181818;stroke-width:1.0;"/><polygon fill="#181818" points="517,284.8437,521,275.8437,517,279.8437,513,275.8437,517,284.8437" style="stroke:#181818;stroke-width:1.0;"/><text fill="#000000" font-family="sans-serif" font-size="13" lengthAdjust="spacing" textLength="7" x="508.7531" y="273.737">1</text></g><!--SRC=[ZP313e8m38RlUufbHnCEtfSTvA8t4tY12XKM6IDRDI74TnTmCKCmiQUr_zV-VrRh4dcXNT6WP_NKN3KsPNYZwQZd1iq5dMUiW-865N8X9LIEPpKuB0yMNAcK61WVgsZ0-rYH4blIr2ibfREMb1gUssIkgK4f7_OBIHq2QTlcsg0dCDq64vt922YScRplPaPdDg9uaYWkzcAr-Gyu9_q9hlAoEEdPUZhHi1wbjgNngnRAKNkohW-pBRD0REix4MvFyeoysy_smfcDzG80]--></g></svg>