<?xml version="1.0" encoding="us-ascii" standalone="no"?><svg xmlns="http://www.w3.org/2000/svg" xmlns:xlink="http://www.w3.org/1999/xlink" contentStyleType="text/css" height="1076px" preserveAspectRatio="none" style="width:3348px;height:1076px;background:#FFFFFF;" version="1.1" viewBox="0 0 3348 1076" width="3348px" zoomAndPan="magnify"><defs/><g><rect fill="#FFFFFF" height="860.9844" style="stroke:#181818;stroke-width:1.0;" width="10" x="17.5" y="98.2422"/><rect fill="#FFFFFF" height="162.4551" style="stroke:#181818;stroke-width:1.0;" width="10" x="358.5" y="121.5332"/><rect fill="#FFFFFF" height="31.291" style="stroke:#181818;stroke-width:1.0;" width="10" x="358.5" y="315.2793"/><rect fill="#FFFFFF" height="581.3652" style="stroke:#181818;stroke-width:1.0;" width="10" x="358.5" y="377.8613"/><rect fill="#FFFFFF" height="96.873" style="stroke:#181818;stroke-width:1.0;" width="10" x="780.5" y="155.8242"/><rect fill="#FFFFFF" height="518.7832" style="stroke:#181818;stroke-width:1.0;" width="10" x="977" y="409.1523"/><rect fill="#FFFFFF" height="31.291" style="stroke:#181818;stroke-width:1.0;" width="10" x="1201.5" y="190.1152"/><rect fill="#FFFFFF" height="410.9102" style="stroke:#181818;stroke-width:1.0;" width="10" x="1506" y="503.0254"/><rect fill="#FFFFFF" height="31.291" style="stroke:#181818;stroke-width:1.0;" width="10" x="1891" y="440.4434"/><rect fill="#FFFFFF" height="365.6191" style="stroke:#181818;stroke-width:1.0;" width="10" x="1891" y="534.3164"/><rect fill="#FFFFFF" height="258.7461" style="stroke:#181818;stroke-width:1.0;" width="10" x="2330" y="609.8984"/><rect fill="#FFFFFF" height="59.291" style="stroke:#181818;stroke-width:1.0;" width="10" x="2749" y="641.1895"/><rect fill="#FFFFFF" height="14" style="stroke:#181818;stroke-width:1.0;" width="10" x="2888" y="672.4805"/><rect fill="#FFFFFF" height="122.873" style="stroke:#181818;stroke-width:1.0;" width="10" x="2985" y="731.7715"/><rect fill="none" height="50.582" style="stroke:#000000;stroke-width:1.5;" width="801" x="2248" y="791.0625"/><line style="stroke:#181818;stroke-width:0.5;stroke-dasharray:5.0,5.0;" x1="22" x2="22" y1="88.2422" y2="977.2266"/><line style="stroke:#181818;stroke-width:0.5;stroke-dasharray:5.0,5.0;" x1="363" x2="363" y1="88.2422" y2="977.2266"/><line style="stroke:#181818;stroke-width:0.5;stroke-dasharray:5.0,5.0;" x1="785.5" x2="785.5" y1="88.2422" y2="977.2266"/><line style="stroke:#181818;stroke-width:0.5;stroke-dasharray:5.0,5.0;" x1="981.5" x2="981.5" y1="88.2422" y2="977.2266"/><line style="stroke:#181818;stroke-width:0.5;stroke-dasharray:5.0,5.0;" x1="1206.5" x2="1206.5" y1="88.2422" y2="977.2266"/><line style="stroke:#181818;stroke-width:0.5;stroke-dasharray:5.0,5.0;" x1="1511" x2="1511" y1="88.2422" y2="977.2266"/><line style="stroke:#181818;stroke-width:0.5;stroke-dasharray:5.0,5.0;" x1="1895.5" x2="1895.5" y1="88.2422" y2="977.2266"/><line style="stroke:#181818;stroke-width:0.5;stroke-dasharray:5.0,5.0;" x1="2335" x2="2335" y1="88.2422" y2="977.2266"/><line style="stroke:#181818;stroke-width:0.5;stroke-dasharray:5.0,5.0;" x1="2753.5" x2="2753.5" y1="88.2422" y2="977.2266"/><line style="stroke:#181818;stroke-width:0.5;stroke-dasharray:5.0,5.0;" x1="2893" x2="2893" y1="88.2422" y2="977.2266"/><line style="stroke:#181818;stroke-width:0.5;stroke-dasharray:5.0,5.0;" x1="2990" x2="2990" y1="88.2422" y2="977.2266"/><text fill="#000000" font-family="sans-serif" font-size="14" lengthAdjust="spacing" textLength="29" x="5" y="84.7285">User</text><ellipse cx="22.5" cy="18.1211" fill="#E2E2F0" rx="8" ry="8" style="stroke:#181818;stroke-width:0.5;"/><path d="M22.5,26.1211 L22.5,53.1211 M9.5,34.1211 L35.5,34.1211 M22.5,53.1211 L9.5,68.1211 M22.5,53.1211 L35.5,68.1211 " fill="none" style="stroke:#181818;stroke-width:0.5;"/><text fill="#000000" font-family="sans-serif" font-size="14" lengthAdjust="spacing" textLength="29" x="5" y="991.334">User</text><ellipse cx="22.5" cy="1003.3477" fill="#E2E2F0" rx="8" ry="8" style="stroke:#181818;stroke-width:0.5;"/><path d="M22.5,1011.3477 L22.5,1038.3477 M9.5,1019.3477 L35.5,1019.3477 M22.5,1038.3477 L9.5,1053.3477 M22.5,1038.3477 L35.5,1053.3477 " fill="none" style="stroke:#181818;stroke-width:0.5;"/><rect fill="#E2E2F0" height="51.2422" rx="2.5" ry="2.5" style="stroke:#181818;stroke-width:0.5;" width="109" x="309" y="36"/><text fill="#000000" font-family="sans-serif" font-size="14" font-style="italic" lengthAdjust="spacing" textLength="95" x="316" y="58.1074">&#171;presentation&#187;</text><text fill="#000000" font-family="sans-serif" font-size="14" lengthAdjust="spacing" textLength="90" x="318.5" y="76.7285">CreatePostItUI</text><rect fill="#E2E2F0" height="51.2422" rx="2.5" ry="2.5" style="stroke:#181818;stroke-width:0.5;" width="109" x="309" y="976.2266"/><text fill="#000000" font-family="sans-serif" font-size="14" font-style="italic" lengthAdjust="spacing" textLength="95" x="316" y="998.334">&#171;presentation&#187;</text><text fill="#000000" font-family="sans-serif" font-size="14" lengthAdjust="spacing" textLength="90" x="318.5" y="1016.9551">CreatePostItUI</text><rect fill="#E2E2F0" height="51.2422" rx="2.5" ry="2.5" style="stroke:#181818;stroke-width:0.5;" width="226" x="672.5" y="36"/><text fill="#000000" font-family="sans-serif" font-size="14" font-style="italic" lengthAdjust="spacing" textLength="84" x="743.5" y="58.1074">&#171;application&#187;</text><text fill="#000000" font-family="sans-serif" font-size="14" lengthAdjust="spacing" textLength="212" x="679.5" y="76.7285">ListWritableSharedBoardsService</text><rect fill="#E2E2F0" height="51.2422" rx="2.5" ry="2.5" style="stroke:#181818;stroke-width:0.5;" width="226" x="672.5" y="976.2266"/><text fill="#000000" font-family="sans-serif" font-size="14" font-style="italic" lengthAdjust="spacing" textLength="84" x="743.5" y="998.334">&#171;application&#187;</text><text fill="#000000" font-family="sans-serif" font-size="14" lengthAdjust="spacing" textLength="212" x="679.5" y="1016.9551">ListWritableSharedBoardsService</text><rect fill="#E2E2F0" height="51.2422" rx="2.5" ry="2.5" style="stroke:#181818;stroke-width:0.5;" width="147" x="908.5" y="36"/><text fill="#000000" font-family="sans-serif" font-size="14" font-style="italic" lengthAdjust="spacing" textLength="84" x="940" y="58.1074">&#171;application&#187;</text><text fill="#000000" font-family="sans-serif" font-size="14" lengthAdjust="spacing" textLength="133" x="915.5" y="76.7285">SendRequestService</text><rect fill="#E2E2F0" height="51.2422" rx="2.5" ry="2.5" style="stroke:#181818;stroke-width:0.5;" width="147" x="908.5" y="976.2266"/><text fill="#000000" font-family="sans-serif" font-size="14" font-style="italic" lengthAdjust="spacing" textLength="84" x="940" y="998.334">&#171;application&#187;</text><text fill="#000000" font-family="sans-serif" font-size="14" lengthAdjust="spacing" textLength="133" x="915.5" y="1016.9551">SendRequestService</text><text fill="#000000" font-family="sans-serif" font-size="14" font-style="italic" lengthAdjust="spacing" textLength="89" x="1159" y="66.1074">&#171;persistence&#187;</text><text fill="#000000" font-family="sans-serif" font-size="14" lengthAdjust="spacing" textLength="230" x="1088.5" y="84.7285">SharedBoardParticipationRepository</text><path d="M1188.5,15 C1188.5,5 1206.5,5 1206.5,5 C1206.5,5 1224.5,5 1224.5,15 L1224.5,41 C1224.5,51 1206.5,51 1206.5,51 C1206.5,51 1188.5,51 1188.5,41 L1188.5,15 " fill="#E2E2F0" style="stroke:#181818;stroke-width:1.5;"/><path d="M1188.5,15 C1188.5,25 1206.5,25 1206.5,25 C1206.5,25 1224.5,25 1224.5,15 " fill="none" style="stroke:#181818;stroke-width:1.5;"/><text fill="#000000" font-family="sans-serif" font-size="14" font-style="italic" lengthAdjust="spacing" textLength="89" x="1159" y="991.334">&#171;persistence&#187;</text><text fill="#000000" font-family="sans-serif" font-size="14" lengthAdjust="spacing" textLength="230" x="1088.5" y="1009.9551">SharedBoardParticipationRepository</text><path d="M1188.5,1023.4688 C1188.5,1013.4688 1206.5,1013.4688 1206.5,1013.4688 C1206.5,1013.4688 1224.5,1013.4688 1224.5,1023.4688 L1224.5,1049.4688 C1224.5,1059.4688 1206.5,1059.4688 1206.5,1059.4688 C1206.5,1059.4688 1188.5,1059.4688 1188.5,1049.4688 L1188.5,1023.4688 " fill="#E2E2F0" style="stroke:#181818;stroke-width:1.5;"/><path d="M1188.5,1023.4688 C1188.5,1033.4688 1206.5,1033.4688 1206.5,1033.4688 C1206.5,1033.4688 1224.5,1033.4688 1224.5,1023.4688 " fill="none" style="stroke:#181818;stroke-width:1.5;"/><rect fill="#E2E2F0" height="51.2422" rx="2.5" ry="2.5" style="stroke:#181818;stroke-width:0.5;" width="236" x="1393" y="36"/><text fill="#000000" font-family="sans-serif" font-size="14" font-style="italic" lengthAdjust="spacing" textLength="60" x="1481" y="58.1074">&#171;service&#187;</text><text fill="#000000" font-family="sans-serif" font-size="14" lengthAdjust="spacing" textLength="222" x="1400" y="76.7285">SendPostItCreationRequestService</text><rect fill="#E2E2F0" height="51.2422" rx="2.5" ry="2.5" style="stroke:#181818;stroke-width:0.5;" width="236" x="1393" y="976.2266"/><text fill="#000000" font-family="sans-serif" font-size="14" font-style="italic" lengthAdjust="spacing" textLength="60" x="1481" y="998.334">&#171;service&#187;</text><text fill="#000000" font-family="sans-serif" font-size="14" lengthAdjust="spacing" textLength="222" x="1400" y="1016.9551">SendPostItCreationRequestService</text><rect fill="#E2E2F0" height="51.2422" rx="2.5" ry="2.5" style="stroke:#181818;stroke-width:0.5;" width="69" x="1861.5" y="36"/><text fill="#000000" font-family="sans-serif" font-size="14" font-style="italic" lengthAdjust="spacing" textLength="55" x="1868.5" y="58.1074">&#171;server&#187;</text><text fill="#000000" font-family="sans-serif" font-size="14" lengthAdjust="spacing" textLength="42" x="1875" y="76.7285">Server</text><rect fill="#E2E2F0" height="51.2422" rx="2.5" ry="2.5" style="stroke:#181818;stroke-width:0.5;" width="69" x="1861.5" y="976.2266"/><text fill="#000000" font-family="sans-serif" font-size="14" font-style="italic" lengthAdjust="spacing" textLength="55" x="1868.5" y="998.334">&#171;server&#187;</text><text fill="#000000" font-family="sans-serif" font-size="14" lengthAdjust="spacing" textLength="42" x="1875" y="1016.9551">Server</text><rect fill="#E2E2F0" height="51.2422" rx="2.5" ry="2.5" style="stroke:#181818;stroke-width:0.5;" width="154" x="2258" y="36"/><text fill="#000000" font-family="sans-serif" font-size="14" font-style="italic" lengthAdjust="spacing" textLength="84" x="2293" y="58.1074">&#171;application&#187;</text><text fill="#000000" font-family="sans-serif" font-size="14" lengthAdjust="spacing" textLength="140" x="2265" y="76.7285">CreatePostItController</text><rect fill="#E2E2F0" height="51.2422" rx="2.5" ry="2.5" style="stroke:#181818;stroke-width:0.5;" width="154" x="2258" y="976.2266"/><text fill="#000000" font-family="sans-serif" font-size="14" font-style="italic" lengthAdjust="spacing" textLength="84" x="2293" y="998.334">&#171;application&#187;</text><text fill="#000000" font-family="sans-serif" font-size="14" lengthAdjust="spacing" textLength="140" x="2265" y="1016.9551">CreatePostItController</text><rect fill="#E2E2F0" height="51.2422" rx="2.5" ry="2.5" style="stroke:#181818;stroke-width:0.5;" width="97" x="2705.5" y="36"/><text fill="#000000" font-family="sans-serif" font-size="14" font-style="italic" lengthAdjust="spacing" textLength="59" x="2724.5" y="58.1074">&#171;factory&#187;</text><text fill="#000000" font-family="sans-serif" font-size="14" lengthAdjust="spacing" textLength="83" x="2712.5" y="76.7285">PostItFactory</text><rect fill="#E2E2F0" height="51.2422" rx="2.5" ry="2.5" style="stroke:#181818;stroke-width:0.5;" width="97" x="2705.5" y="976.2266"/><text fill="#000000" font-family="sans-serif" font-size="14" font-style="italic" lengthAdjust="spacing" textLength="59" x="2724.5" y="998.334">&#171;factory&#187;</text><text fill="#000000" font-family="sans-serif" font-size="14" lengthAdjust="spacing" textLength="83" x="2712.5" y="1016.9551">PostItFactory</text><rect fill="#E2E2F0" height="51.2422" rx="2.5" ry="2.5" style="stroke:#181818;stroke-width:0.5;" width="76" x="2855" y="36"/><text fill="#000000" font-family="sans-serif" font-size="14" font-style="italic" lengthAdjust="spacing" textLength="62" x="2862" y="58.1074">&#171;domain&#187;</text><text fill="#000000" font-family="sans-serif" font-size="14" lengthAdjust="spacing" textLength="35" x="2875.5" y="76.7285">PostIt</text><rect fill="#E2E2F0" height="51.2422" rx="2.5" ry="2.5" style="stroke:#181818;stroke-width:0.5;" width="76" x="2855" y="976.2266"/><text fill="#000000" font-family="sans-serif" font-size="14" font-style="italic" lengthAdjust="spacing" textLength="62" x="2862" y="998.334">&#171;domain&#187;</text><text fill="#000000" font-family="sans-serif" font-size="14" lengthAdjust="spacing" textLength="35" x="2875.5" y="1016.9551">PostIt</text><rect fill="#E2E2F0" height="51.2422" rx="2.5" ry="2.5" style="stroke:#181818;stroke-width:0.5;" width="98" x="2941" y="36"/><text fill="#000000" font-family="sans-serif" font-size="14" font-style="italic" lengthAdjust="spacing" textLength="62" x="2959" y="58.1074">&#171;domain&#187;</text><text fill="#000000" font-family="sans-serif" font-size="14" lengthAdjust="spacing" textLength="84" x="2948" y="76.7285">SharedBoard</text><rect fill="#E2E2F0" height="51.2422" rx="2.5" ry="2.5" style="stroke:#181818;stroke-width:0.5;" width="98" x="2941" y="976.2266"/><text fill="#000000" font-family="sans-serif" font-size="14" font-style="italic" lengthAdjust="spacing" textLength="62" x="2959" y="998.334">&#171;domain&#187;</text><text fill="#000000" font-family="sans-serif" font-size="14" lengthAdjust="spacing" textLength="84" x="2948" y="1016.9551">SharedBoard</text><rect fill="#FFFFFF" height="860.9844" style="stroke:#181818;stroke-width:1.0;" width="10" x="17.5" y="98.2422"/><rect fill="#FFFFFF" height="162.4551" style="stroke:#181818;stroke-width:1.0;" width="10" x="358.5" y="121.5332"/><rect fill="#FFFFFF" height="31.291" style="stroke:#181818;stroke-width:1.0;" width="10" x="358.5" y="315.2793"/><rect fill="#FFFFFF" height="581.3652" style="stroke:#181818;stroke-width:1.0;" width="10" x="358.5" y="377.8613"/><rect fill="#FFFFFF" height="96.873" style="stroke:#181818;stroke-width:1.0;" width="10" x="780.5" y="155.8242"/><rect fill="#FFFFFF" height="518.7832" style="stroke:#181818;stroke-width:1.0;" width="10" x="977" y="409.1523"/><rect fill="#FFFFFF" height="31.291" style="stroke:#181818;stroke-width:1.0;" width="10" x="1201.5" y="190.1152"/><rect fill="#FFFFFF" height="410.9102" style="stroke:#181818;stroke-width:1.0;" width="10" x="1506" y="503.0254"/><rect fill="#FFFFFF" height="31.291" style="stroke:#181818;stroke-width:1.0;" width="10" x="1891" y="440.4434"/><rect fill="#FFFFFF" height="365.6191" style="stroke:#181818;stroke-width:1.0;" width="10" x="1891" y="534.3164"/><rect fill="#FFFFFF" height="258.7461" style="stroke:#181818;stroke-width:1.0;" width="10" x="2330" y="609.8984"/><rect fill="#FFFFFF" height="59.291" style="stroke:#181818;stroke-width:1.0;" width="10" x="2749" y="641.1895"/><rect fill="#FFFFFF" height="14" style="stroke:#181818;stroke-width:1.0;" width="10" x="2888" y="672.4805"/><rect fill="#FFFFFF" height="122.873" style="stroke:#181818;stroke-width:1.0;" width="10" x="2985" y="731.7715"/><polygon fill="#181818" points="346.5,117.5332,356.5,121.5332,346.5,125.5332,350.5,121.5332" style="stroke:#181818;stroke-width:1.0;"/><line style="stroke:#181818;stroke-width:1.0;" x1="27.5" x2="352.5" y1="121.5332" y2="121.5332"/><text fill="#000000" font-family="sans-serif" font-size="13" lengthAdjust="spacing" textLength="134" x="34.5" y="116.2705">asks to create a post-it</text><polygon fill="#181818" points="768.5,151.8242,778.5,155.8242,768.5,159.8242,772.5,155.8242" style="stroke:#181818;stroke-width:1.0;"/><line style="stroke:#181818;stroke-width:1.0;" x1="368.5" x2="774.5" y1="155.8242" y2="155.8242"/><text fill="#000000" font-family="sans-serif" font-size="13" lengthAdjust="spacing" textLength="393" x="375.5" y="150.5615">List&lt;SharedBoardDTO&gt; sharedBoards = listWritableSharedBoards()</text><path d="M795,134.5332 L795,161.5332 L1033,161.5332 L1033,144.5332 L1023,134.5332 L795,134.5332 " fill="#FEFFDD" style="stroke:#181818;stroke-width:0.5;"/><path d="M1023,134.5332 L1023,144.5332 L1033,144.5332 L1023,134.5332 " fill="#FEFFDD" style="stroke:#181818;stroke-width:0.5;"/><text fill="#000000" font-family="sans-serif" font-size="13" lengthAdjust="spacing" textLength="217" x="801" y="153.5615">The user is obtained through session.</text><polygon fill="#181818" points="1189.5,186.1152,1199.5,190.1152,1189.5,194.1152,1193.5,190.1152" style="stroke:#181818;stroke-width:1.0;"/><line style="stroke:#181818;stroke-width:1.0;" x1="790.5" x2="1195.5" y1="190.1152" y2="190.1152"/><text fill="#000000" font-family="sans-serif" font-size="13" lengthAdjust="spacing" textLength="392" x="797.5" y="184.8525">List&lt;SharedBoard&gt; sharedBoards = listWritableSharedBoards(user)</text><polygon fill="#181818" points="801.5,217.4063,791.5,221.4063,801.5,225.4063,797.5,221.4063" style="stroke:#181818;stroke-width:1.0;"/><line style="stroke:#181818;stroke-width:1.0;stroke-dasharray:2.0,2.0;" x1="795.5" x2="1205.5" y1="221.4063" y2="221.4063"/><text fill="#000000" font-family="sans-serif" font-size="13" lengthAdjust="spacing" textLength="196" x="807.5" y="216.1436">List&lt;SharedBoard&gt; sharedBoards</text><polygon fill="#181818" points="379.5,248.6973,369.5,252.6973,379.5,256.6973,375.5,252.6973" style="stroke:#181818;stroke-width:1.0;"/><line style="stroke:#181818;stroke-width:1.0;stroke-dasharray:2.0,2.0;" x1="373.5" x2="784.5" y1="252.6973" y2="252.6973"/><text fill="#000000" font-family="sans-serif" font-size="13" lengthAdjust="spacing" textLength="222" x="385.5" y="247.4346">List&lt;SharedBoardDTO&gt; sharedBoards</text><polygon fill="#181818" points="38.5,279.9883,28.5,283.9883,38.5,287.9883,34.5,283.9883" style="stroke:#181818;stroke-width:1.0;"/><line style="stroke:#181818;stroke-width:1.0;stroke-dasharray:2.0,2.0;" x1="32.5" x2="362.5" y1="283.9883" y2="283.9883"/><text fill="#000000" font-family="sans-serif" font-size="13" lengthAdjust="spacing" textLength="307" x="44.5" y="278.7256">shows writable shared boards and asks to select one</text><polygon fill="#181818" points="346.5,311.2793,356.5,315.2793,346.5,319.2793,350.5,315.2793" style="stroke:#181818;stroke-width:1.0;"/><line style="stroke:#181818;stroke-width:1.0;" x1="27.5" x2="352.5" y1="315.2793" y2="315.2793"/><text fill="#000000" font-family="sans-serif" font-size="13" lengthAdjust="spacing" textLength="146" x="34.5" y="310.0166">selects one shared board</text><polygon fill="#181818" points="38.5,342.5703,28.5,346.5703,38.5,350.5703,34.5,346.5703" style="stroke:#181818;stroke-width:1.0;"/><line style="stroke:#181818;stroke-width:1.0;stroke-dasharray:2.0,2.0;" x1="32.5" x2="362.5" y1="346.5703" y2="346.5703"/><text fill="#000000" font-family="sans-serif" font-size="13" lengthAdjust="spacing" textLength="283" x="44.5" y="341.3076">asks for a row, column and content for the post-it</text><polygon fill="#181818" points="346.5,373.8613,356.5,377.8613,346.5,381.8613,350.5,377.8613" style="stroke:#181818;stroke-width:1.0;"/><line style="stroke:#181818;stroke-width:1.0;" x1="27.5" x2="352.5" y1="377.8613" y2="377.8613"/><text fill="#000000" font-family="sans-serif" font-size="13" lengthAdjust="spacing" textLength="81" x="34.5" y="372.5986">inputs all data</text><polygon fill="#181818" points="965,405.1523,975,409.1523,965,413.1523,969,409.1523" style="stroke:#181818;stroke-width:1.0;"/><line style="stroke:#181818;stroke-width:1.0;" x1="368.5" x2="971" y1="409.1523" y2="409.1523"/><text fill="#000000" font-family="sans-serif" font-size="13" lengthAdjust="spacing" textLength="387" x="375.5" y="403.8896">sendPostItCreationRequest(row, column, content, shareBoardDTO)</text><polygon fill="#181818" points="1879,436.4434,1889,440.4434,1879,444.4434,1883,440.4434" style="stroke:#181818;stroke-width:1.0;"/><line style="stroke:#181818;stroke-width:1.0;" x1="987" x2="1885" y1="440.4434" y2="440.4434"/><text fill="#000000" font-family="sans-serif" font-size="13" lengthAdjust="spacing" textLength="162" x="994" y="435.1807">establishes TCP connection</text><polygon fill="#181818" points="998,467.7344,988,471.7344,998,475.7344,994,471.7344" style="stroke:#181818;stroke-width:1.0;"/><line style="stroke:#181818;stroke-width:1.0;stroke-dasharray:2.0,2.0;" x1="992" x2="1895" y1="471.7344" y2="471.7344"/><text fill="#000000" font-family="sans-serif" font-size="13" lengthAdjust="spacing" textLength="115" x="1004" y="466.4717">accepts the request</text><polygon fill="#181818" points="1494,499.0254,1504,503.0254,1494,507.0254,1498,503.0254" style="stroke:#181818;stroke-width:1.0;"/><line style="stroke:#181818;stroke-width:1.0;" x1="987" x2="1500" y1="503.0254" y2="503.0254"/><text fill="#000000" font-family="sans-serif" font-size="13" lengthAdjust="spacing" textLength="500" x="994" y="497.7627">String feedback = sendPostItCreationRequest(row, column, content, sharedBoardDTO)</text><polygon fill="#181818" points="1879,530.3164,1889,534.3164,1879,538.3164,1883,534.3164" style="stroke:#181818;stroke-width:1.0;"/><line style="stroke:#181818;stroke-width:1.0;" x1="1516" x2="1885" y1="534.3164" y2="534.3164"/><text fill="#000000" font-family="sans-serif" font-size="13" lengthAdjust="spacing" textLength="147" x="1523" y="529.0537">sends post-it data related</text><line style="stroke:#181818;stroke-width:1.0;" x1="1901" x2="1943" y1="565.6074" y2="565.6074"/><line style="stroke:#181818;stroke-width:1.0;" x1="1943" x2="1943" y1="565.6074" y2="578.6074"/><line style="stroke:#181818;stroke-width:1.0;" x1="1902" x2="1943" y1="578.6074" y2="578.6074"/><polygon fill="#181818" points="1912,574.6074,1902,578.6074,1912,582.6074,1908,578.6074" style="stroke:#181818;stroke-width:1.0;"/><text fill="#000000" font-family="sans-serif" font-size="13" lengthAdjust="spacing" textLength="273" x="1908" y="560.3447">creats a new thread to attend the client request</text><polygon fill="#181818" points="2318,605.8984,2328,609.8984,2318,613.8984,2322,609.8984" style="stroke:#181818;stroke-width:1.0;"/><line style="stroke:#181818;stroke-width:1.0;" x1="1901" x2="2324" y1="609.8984" y2="609.8984"/><text fill="#000000" font-family="sans-serif" font-size="13" lengthAdjust="spacing" textLength="410" x="1908" y="604.6357">String feedback = createPostIt(row, column, content, sharedBoardTitle)</text><polygon fill="#181818" points="2737,637.1895,2747,641.1895,2737,645.1895,2741,641.1895" style="stroke:#181818;stroke-width:1.0;"/><line style="stroke:#181818;stroke-width:1.0;" x1="2340" x2="2743" y1="641.1895" y2="641.1895"/><text fill="#000000" font-family="sans-serif" font-size="13" lengthAdjust="spacing" textLength="390" x="2347" y="635.9268">PostIt postIt = createPostIt(row, column, content, sharedBoardTitle)</text><polygon fill="#181818" points="2876,668.4805,2886,672.4805,2876,676.4805,2880,672.4805" style="stroke:#181818;stroke-width:1.0;"/><line style="stroke:#181818;stroke-width:1.0;" x1="2759" x2="2882" y1="672.4805" y2="672.4805"/><text fill="#000000" font-family="sans-serif" font-size="13" lengthAdjust="spacing" textLength="110" x="2766" y="667.2178">creates new post-it</text><polygon fill="#181818" points="2770,682.4805,2760,686.4805,2770,690.4805,2766,686.4805" style="stroke:#181818;stroke-width:1.0;"/><line style="stroke:#181818;stroke-width:1.0;stroke-dasharray:2.0,2.0;" x1="2764" x2="2892" y1="686.4805" y2="686.4805"/><polygon fill="#181818" points="2351,696.4805,2341,700.4805,2351,704.4805,2347,700.4805" style="stroke:#181818;stroke-width:1.0;"/><line style="stroke:#181818;stroke-width:1.0;stroke-dasharray:2.0,2.0;" x1="2345" x2="2753" y1="700.4805" y2="700.4805"/><polygon fill="#181818" points="2973,727.7715,2983,731.7715,2973,735.7715,2977,731.7715" style="stroke:#181818;stroke-width:1.0;"/><line style="stroke:#181818;stroke-width:1.0;" x1="2340" x2="2979" y1="731.7715" y2="731.7715"/><text fill="#000000" font-family="sans-serif" font-size="13" lengthAdjust="spacing" textLength="184" x="2347" y="726.5088">insertPostIt(row, column, postit)</text><line style="stroke:#181818;stroke-width:1.0;" x1="2995" x2="3037" y1="763.0625" y2="763.0625"/><line style="stroke:#181818;stroke-width:1.0;" x1="3037" x2="3037" y1="763.0625" y2="776.0625"/><line style="stroke:#181818;stroke-width:1.0;" x1="2996" x2="3037" y1="776.0625" y2="776.0625"/><polygon fill="#181818" points="3006,772.0625,2996,776.0625,3006,780.0625,3002,776.0625" style="stroke:#181818;stroke-width:1.0;"/><text fill="#000000" font-family="sans-serif" font-size="13" lengthAdjust="spacing" textLength="339" x="3002" y="757.7998">verifies all the requirements to create a post-it successfully</text><path d="M2248,791.0625 L2309,791.0625 L2309,800.3535 L2299,810.3535 L2248,810.3535 L2248,791.0625 " fill="#EEEEEE" style="stroke:#000000;stroke-width:1.5;"/><rect fill="none" height="50.582" style="stroke:#000000;stroke-width:1.5;" width="801" x="2248" y="791.0625"/><text fill="#000000" font-family="sans-serif" font-size="13" font-weight="bold" lengthAdjust="spacing" textLength="16" x="2263" y="806.0908">alt</text><text fill="#000000" font-family="sans-serif" font-size="11" font-weight="bold" lengthAdjust="spacing" textLength="228" x="2324" y="804.9326">[position is already occupied or is invalid]</text><polygon fill="#181818" points="2351,829.6445,2341,833.6445,2351,837.6445,2347,833.6445" style="stroke:#181818;stroke-width:1.0;"/><line style="stroke:#181818;stroke-width:1.0;stroke-dasharray:2.0,2.0;" x1="2345" x2="2984" y1="833.6445" y2="833.6445"/><text fill="#000000" font-family="sans-serif" font-size="13" lengthAdjust="spacing" textLength="333" x="2357" y="828.3818">throws IllegalArgumentException and aborts the proccess</text><polygon fill="#181818" points="2351,850.6445,2341,854.6445,2351,858.6445,2347,854.6445" style="stroke:#181818;stroke-width:1.0;"/><line style="stroke:#181818;stroke-width:1.0;stroke-dasharray:2.0,2.0;" x1="2345" x2="2989" y1="854.6445" y2="854.6445"/><polygon fill="#181818" points="1912,864.6445,1902,868.6445,1912,872.6445,1908,868.6445" style="stroke:#181818;stroke-width:1.0;"/><line style="stroke:#181818;stroke-width:1.0;stroke-dasharray:2.0,2.0;" x1="1906" x2="2334" y1="868.6445" y2="868.6445"/><polygon fill="#181818" points="1527,895.9355,1517,899.9355,1527,903.9355,1523,899.9355" style="stroke:#181818;stroke-width:1.0;"/><line style="stroke:#181818;stroke-width:1.0;stroke-dasharray:2.0,2.0;" x1="1521" x2="1895" y1="899.9355" y2="899.9355"/><text fill="#000000" font-family="sans-serif" font-size="13" lengthAdjust="spacing" textLength="351" x="1533" y="894.6729">answers with the operation success and respective message</text><polygon fill="#181818" points="998,909.9355,988,913.9355,998,917.9355,994,913.9355" style="stroke:#181818;stroke-width:1.0;"/><line style="stroke:#181818;stroke-width:1.0;stroke-dasharray:2.0,2.0;" x1="992" x2="1510" y1="913.9355" y2="913.9355"/><polygon fill="#181818" points="379.5,923.9355,369.5,927.9355,379.5,931.9355,375.5,927.9355" style="stroke:#181818;stroke-width:1.0;"/><line style="stroke:#181818;stroke-width:1.0;stroke-dasharray:2.0,2.0;" x1="373.5" x2="981" y1="927.9355" y2="927.9355"/><polygon fill="#181818" points="33.5,955.2266,23.5,959.2266,33.5,963.2266,29.5,959.2266" style="stroke:#181818;stroke-width:1.0;"/><line style="stroke:#181818;stroke-width:1.0;stroke-dasharray:2.0,2.0;" x1="27.5" x2="362.5" y1="959.2266" y2="959.2266"/><text fill="#000000" font-family="sans-serif" font-size="13" lengthAdjust="spacing" textLength="147" x="39.5" y="953.9639">shows operation success</text><!--SRC=[fLPDRzim3BthL-ZO0Ss0vHXq0RPk0meCMD6asB5GP2OHgaYU92Vhlnz9sOaSE-smNV9Xau-FJ-IpbKu-oCS8GQee6_mMjGh9Q5Chb-Hj09NWtiTqbnxlECJ8cviwG0INL3BUpUUzZEycff_19BMoiDYg0DLdhq8L5n3sHWD1nBt-W22ghgtHOnWBSDK3_6eWfdxQT91MAQoa8iYYrdq7HJ4FKFjeiCaNnbZLJm6lK0yG8d85fs6aV6wPssUG4JA84VE5GNxOPprZ_fK38Pp5bUBUUfU2jpRdQRxpf5EmhmgLSxyftVMtnf-OiSvNHgCf32L9XW8hlrDc8Fz9IcwY-5ja2AnXzaWpJmrzoCcSvcE6MSzH9j_s8HKNd9XKv1Y1aHZFmp3ZiRaf2dzP_fYNbQFyAEs5qRfwTy8bEE4y_WfciqrYkStyf8dIhn9IXqgcRV3DPel74oEA-bxWWKjA4io6M7LpCcJszxIeRacjnHH7yCdb_ljLH0KZCCora_nD0NiOf1BfJzcapWn3_I7AGzj7cobNkKdbgkEPHh20G-OTb8XqdkK4vAX8OJsimGIS6721DRgHai4VhgNsjjavhgrnEz1l-6x24-t6wHK2njKDrbVMIlA8yScRCjCBstvLiBZkA5pdRZg9-vCt5On9s7dnPn9nK4yJjn3bylQUO1mAWrMAJ0uMRSxaH4rf3JKsGIs7JAftYcrULnCjQIONAHYtaMk0QgNqCyxdFpLOZNT8nNhz4NZipeELHgOMewkB_HNPx0zuIDB1WROIL4KZfbAYZQIsjJLqy5tt9upI8iUwreMvljteqYGBHQi5kYWhOM6ss5bdfdN- -jzw12eO6IkqxjpAWuD3wWmSD4U9DdZICYldeut8i7t9oZ1EEskoz7pQ9TGzZVMMIvGpSaeK9SW04u_Hh0ta3Uq6t0JOeLIZpmuP6ro76DUDjIz2MTRUq3YJjojBm_CYlTPDRT1jF5k-SNjbpHcLmVJGym3DxmuVlnjbFuLDGoo-_gRj8toslvKFxIhMmJCJVcmWaTVGU_jQQDFJ-xWIPNG9qhS6SWON3_Z-8WycRPcJnzSPtkrE9YQDhsarkSqUv0wlgGsC-yVHTCuU4gstiAUUtPgEFZy6DCuikln7Rmr_0000]--></g></svg>