<?xml version="1.0" encoding="UTF-8" standalone="no"?><svg xmlns="http://www.w3.org/2000/svg" xmlns:xlink="http://www.w3.org/1999/xlink" contentStyleType="text/css" height="975.8px" preserveAspectRatio="none" style="width:543px;height:975px;background:#282828;" version="1.1" viewBox="0 0 543 975" width="543.25px" zoomAndPan="magnify"><defs/><g><!--MD5=[b110f5355061fb3ceca7c492aa18dd29]
cluster <<agr SystemUser>>--><g id="cluster_&lt;&lt;agr SystemUser&gt;&gt;"><path d="M6.97,4.9688 L119.31,4.9688 A1.5375,1.5375 0 0 1 120.335,5.9938 L123.205,18.3911 L140.425,18.3911 A1.025,1.025 0 0 1 141.45,19.4161 L141.45,124.8938 A1.025,1.025 0 0 1 140.425,125.9188 L6.97,125.9188 A1.025,1.025 0 0 1 5.945,124.8938 L5.945,5.9938 A1.025,1.025 0 0 1 6.97,4.9688 " fill="#282828" style="stroke:#33FF33;stroke-width:0.41;"/><line style="stroke:#33FF33;stroke-width:0.41;" x1="5.945" x2="123.205" y1="18.3911" y2="18.3911"/><text fill="#33FF33" font-family="Verdana" font-size="9.02" font-weight="bold" lengthAdjust="spacing" textLength="111.93" x="7.585" y="14.8573">&lt;&lt;agr SystemUser&gt;&gt;</text></g><!--MD5=[92bfed150496a7311125cbdbdd0ce21b]
cluster <<agr SharedBoard>>--><g id="cluster_&lt;&lt;agr SharedBoard&gt;&gt;"><path d="M5.535,537.1488 L123.205,537.1488 A1.5375,1.5375 0 0 1 124.23,538.1738 L127.1,550.5711 L500.815,550.5711 A1.025,1.025 0 0 1 501.84,551.5961 L501.84,971.9538 A1.025,1.025 0 0 1 500.815,972.9788 L5.535,972.9788 A1.025,1.025 0 0 1 4.51,971.9538 L4.51,538.1738 A1.025,1.025 0 0 1 5.535,537.1488 " fill="#282828" style="stroke:#33FF33;stroke-width:0.41;"/><line style="stroke:#33FF33;stroke-width:0.41;" x1="4.51" x2="127.1" y1="550.5711" y2="550.5711"/><text fill="#33FF33" font-family="Verdana" font-size="9.02" font-weight="bold" lengthAdjust="spacing" textLength="117.26" x="6.15" y="547.0373">&lt;&lt;agr SharedBoard&gt;&gt;</text></g><!--MD5=[4c8328f4ce941bfcc7f2e44cea617c34]
cluster <<agr SharedBoardParticipation>>--><g id="cluster_&lt;&lt;agr SharedBoardParticipation&gt;&gt;"><path d="M70.315,135.7588 L253.585,135.7588 A1.5375,1.5375 0 0 1 254.61,136.7838 L257.48,149.1811 L539.355,149.1811 A1.025,1.025 0 0 1 540.38,150.2061 L540.38,339.3238 A1.025,1.025 0 0 1 539.355,340.3488 L70.315,340.3488 A1.025,1.025 0 0 1 69.29,339.3238 L69.29,136.7838 A1.025,1.025 0 0 1 70.315,135.7588 " fill="#282828" style="stroke:#33FF33;stroke-width:0.41;"/><line style="stroke:#33FF33;stroke-width:0.41;" x1="69.29" x2="257.48" y1="149.1811" y2="149.1811"/><text fill="#33FF33" font-family="Verdana" font-size="9.02" font-weight="bold" lengthAdjust="spacing" textLength="182.86" x="70.93" y="145.6473">&lt;&lt;agr SharedBoardParticipation&gt;&gt;</text></g><!--MD5=[e2d269eecff81f70c1d3952d953915b9]
cluster <<agr PostItModification>>--><g id="cluster_&lt;&lt;agr PostItModification&gt;&gt;"><path d="M244.155,376.8388 L389.705,376.8388 A1.5375,1.5375 0 0 1 390.73,377.8638 L393.6,390.2611 L498.355,390.2611 A1.025,1.025 0 0 1 499.38,391.2861 L499.38,423.7838 A1.025,1.025 0 0 1 498.355,424.8088 L244.155,424.8088 A1.025,1.025 0 0 1 243.13,423.7838 L243.13,377.8638 A1.025,1.025 0 0 1 244.155,376.8388 " fill="#282828" style="stroke:#33FF33;stroke-width:0.41;"/><line style="stroke:#33FF33;stroke-width:0.41;" x1="243.13" x2="393.6" y1="390.2611" y2="390.2611"/><text fill="#33FF33" font-family="Verdana" font-size="9.02" font-weight="bold" lengthAdjust="spacing" textLength="145.14" x="244.77" y="386.7273">&lt;&lt;agr PostItModification&gt;&gt;</text></g><!--MD5=[bc064d979c32666ae52f3d7624591b7b]
class SystemUser--><g id="elem_SystemUser"><rect codeLine="9" fill="#282828" height="23.0349" id="SystemUser" rx="1.025" ry="1.025" style="stroke:#33FF33;stroke-width:0.41;" width="37.31" x="12.505" y="96.3988"/><text fill="#33FF33" font-family="Verdana" font-size="4.92" font-style="italic" lengthAdjust="spacing" textLength="20.91" x="20.705" y="103.3953">«entity»</text><text fill="#33FF33" font-family="Verdana" font-size="4.92" font-style="italic" lengthAdjust="spacing" textLength="16.4" x="22.96" y="109.3747">«root»</text><text fill="#33FF33" font-family="Verdana" font-size="5.74" lengthAdjust="spacing" textLength="34.85" x="13.735" y="116.1785">SystemUser</text></g><!--MD5=[9a6e98b13a389138a8ee3cd2798f9215]
class UserName--><g id="elem_UserName"><rect codeLine="10" fill="#282828" height="17.0554" id="UserName" rx="1.025" ry="1.025" style="stroke:#33FF33;stroke-width:0.41;" width="31.57" x="97.58" y="102.1388"/><text fill="#33FF33" font-family="Verdana" font-size="4.92" font-style="italic" lengthAdjust="spacing" textLength="12.3" x="107.215" y="109.1353">«vo»</text><text fill="#33FF33" font-family="Verdana" font-size="5.74" lengthAdjust="spacing" textLength="29.11" x="98.81" y="115.9391">UserName</text></g><!--MD5=[88967cc527ac608118ac16caae449e3f]
class UserPassword--><g id="elem_UserPassword"><rect codeLine="11" fill="#282828" height="17.0554" id="UserPassword" rx="1.025" ry="1.025" style="stroke:#33FF33;stroke-width:0.41;" width="43.05" x="91.84" y="23.4188"/><text fill="#33FF33" font-family="Verdana" font-size="4.92" font-style="italic" lengthAdjust="spacing" textLength="12.3" x="107.215" y="30.4153">«vo»</text><text fill="#33FF33" font-family="Verdana" font-size="5.74" lengthAdjust="spacing" textLength="40.59" x="93.07" y="37.2191">UserPassword</text></g><!--MD5=[3762909e135fb728396985e200594027]
class SharedBoard--><g id="elem_SharedBoard"><rect codeLine="18" fill="#282828" height="23.0349" id="SharedBoard" rx="1.025" ry="1.025" style="stroke:#33FF33;stroke-width:0.41;" width="40.18" x="11.07" y="660.5588"/><text fill="#33FF33" font-family="Verdana" font-size="4.92" font-style="italic" lengthAdjust="spacing" textLength="20.91" x="20.705" y="667.5553">«entity»</text><text fill="#33FF33" font-family="Verdana" font-size="4.92" font-style="italic" lengthAdjust="spacing" textLength="16.4" x="22.96" y="673.5347">«root»</text><text fill="#33FF33" font-family="Verdana" font-size="5.74" lengthAdjust="spacing" textLength="37.72" x="12.3" y="680.3385">SharedBoard</text></g><!--MD5=[83e42a9f30fdc28229f8d64c3c36b66a]
class BoardTitle--><g id="elem_BoardTitle"><rect codeLine="19" fill="#282828" height="17.0554" id="BoardTitle" rx="1.025" ry="1.025" style="stroke:#33FF33;stroke-width:0.41;" width="31.57" x="97.58" y="742.1488"/><text fill="#33FF33" font-family="Verdana" font-size="4.92" font-style="italic" lengthAdjust="spacing" textLength="12.3" x="107.215" y="749.1453">«vo»</text><text fill="#33FF33" font-family="Verdana" font-size="5.74" lengthAdjust="spacing" textLength="29.11" x="98.81" y="755.9491">BoardTitle</text></g><!--MD5=[fea3dc74c7473bae0133d22265a91e2f]
class Cell--><g id="elem_Cell"><rect codeLine="20" fill="#282828" height="17.0554" id="Cell" rx="1.025" ry="1.025" style="stroke:#33FF33;stroke-width:0.41;" width="21.73" x="102.5" y="663.4288"/><text fill="#33FF33" font-family="Verdana" font-size="4.92" font-style="italic" lengthAdjust="spacing" textLength="20.91" x="102.91" y="670.4253">«entity»</text><text fill="#33FF33" font-family="Verdana" font-size="5.74" lengthAdjust="spacing" textLength="9.84" x="108.445" y="677.2291">Cell</text></g><!--MD5=[e06ef809dd6be8ce79b58fe0a1161eb8]
class Column--><g id="elem_Column"><rect codeLine="21" fill="#282828" height="17.0554" id="Column" rx="1.025" ry="1.025" style="stroke:#33FF33;stroke-width:0.41;" width="24.19" x="262.605" y="870.4788"/><text fill="#33FF33" font-family="Verdana" font-size="4.92" font-style="italic" lengthAdjust="spacing" textLength="20.91" x="264.245" y="877.4753">«entity»</text><text fill="#33FF33" font-family="Verdana" font-size="5.74" lengthAdjust="spacing" textLength="21.73" x="263.835" y="884.2791">Column</text></g><!--MD5=[2bd289739aa8926a38c978348ac882a6]
class ColumnTitle--><g id="elem_ColumnTitle"><rect codeLine="22" fill="#282828" height="17.0554" id="ColumnTitle" rx="1.025" ry="1.025" style="stroke:#33FF33;stroke-width:0.41;" width="36.08" x="448.13" y="949.1988"/><text fill="#33FF33" font-family="Verdana" font-size="4.92" font-style="italic" lengthAdjust="spacing" textLength="12.3" x="460.02" y="956.1953">«vo»</text><text fill="#33FF33" font-family="Verdana" font-size="5.74" lengthAdjust="spacing" textLength="33.62" x="449.36" y="962.9991">ColumnTitle</text></g><!--MD5=[1abe8c4c2d506751d30f72533bdcc2a4]
class ColumnNumber--><g id="elem_ColumnNumber"><rect codeLine="23" fill="#282828" height="17.0554" id="ColumnNumber" rx="1.025" ry="1.025" style="stroke:#33FF33;stroke-width:0.41;" width="46.74" x="442.8" y="870.4788"/><text fill="#33FF33" font-family="Verdana" font-size="4.92" font-style="italic" lengthAdjust="spacing" textLength="12.3" x="460.02" y="877.4753">«vo»</text><text fill="#33FF33" font-family="Verdana" font-size="5.74" lengthAdjust="spacing" textLength="44.28" x="444.03" y="884.2791">ColumnNumber</text></g><!--MD5=[05aedcff764caeeb5d443618a4d90de7]
class Row--><g id="elem_Row"><rect codeLine="24" fill="#282828" height="17.0554" id="Row" rx="1.025" ry="1.025" style="stroke:#33FF33;stroke-width:0.41;" width="21.73" x="263.835" y="713.0388"/><text fill="#33FF33" font-family="Verdana" font-size="4.92" font-style="italic" lengthAdjust="spacing" textLength="20.91" x="264.245" y="720.0353">«entity»</text><text fill="#33FF33" font-family="Verdana" font-size="5.74" lengthAdjust="spacing" textLength="12.3" x="268.55" y="726.8391">Row</text></g><!--MD5=[48e1d27d5bf63e6c3627f560016c0236]
class RowTitle--><g id="elem_RowTitle"><rect codeLine="25" fill="#282828" height="17.0554" id="RowTitle" rx="1.025" ry="1.025" style="stroke:#33FF33;stroke-width:0.41;" width="26.65" x="452.845" y="791.7588"/><text fill="#33FF33" font-family="Verdana" font-size="4.92" font-style="italic" lengthAdjust="spacing" textLength="12.3" x="460.02" y="798.7553">«vo»</text><text fill="#33FF33" font-family="Verdana" font-size="5.74" lengthAdjust="spacing" textLength="24.19" x="454.075" y="805.5591">RowTitle</text></g><!--MD5=[6270cae7caa10827b6ec550de9ea9827]
class RowNumber--><g id="elem_RowNumber"><rect codeLine="26" fill="#282828" height="17.0554" id="RowNumber" rx="1.025" ry="1.025" style="stroke:#33FF33;stroke-width:0.41;" width="37.31" x="447.515" y="713.0388"/><text fill="#33FF33" font-family="Verdana" font-size="4.92" font-style="italic" lengthAdjust="spacing" textLength="12.3" x="460.02" y="720.0353">«vo»</text><text fill="#33FF33" font-family="Verdana" font-size="5.74" lengthAdjust="spacing" textLength="34.85" x="448.745" y="726.8391">RowNumber</text></g><!--MD5=[458552462bbdcbc92793825846cc11c0]
class PostIt--><g id="elem_PostIt"><rect codeLine="27" fill="#282828" height="17.0554" id="PostIt" rx="1.025" ry="1.025" style="stroke:#33FF33;stroke-width:0.41;" width="21.73" x="263.835" y="613.4088"/><text fill="#33FF33" font-family="Verdana" font-size="4.92" font-style="italic" lengthAdjust="spacing" textLength="20.91" x="264.245" y="620.4053">«entity»</text><text fill="#33FF33" font-family="Verdana" font-size="5.74" lengthAdjust="spacing" textLength="17.22" x="266.09" y="627.2091">PostIt</text></g><!--MD5=[f2f0d05636fa2653b2cd4b8db9a3a616]
class CreationTimestamp--><g id="elem_CreationTimestamp"><rect codeLine="28" fill="#282828" height="17.0554" id="CreationTimestamp" rx="1.025" ry="1.025" style="stroke:#33FF33;stroke-width:0.41;" width="58.22" x="437.06" y="634.3188"/><text fill="#33FF33" font-family="Verdana" font-size="4.92" font-style="italic" lengthAdjust="spacing" textLength="12.3" x="460.02" y="641.3153">«vo»</text><text fill="#33FF33" font-family="Verdana" font-size="5.74" lengthAdjust="spacing" textLength="55.76" x="438.29" y="648.1191">CreationTimestamp</text></g><!--MD5=[fd7366e9f96236d9aa60dcc04f2b83e5]
class Content--><g id="elem_Content"><rect codeLine="29" fill="#282828" height="17.0554" id="Content" rx="1.025" ry="1.025" style="stroke:#33FF33;stroke-width:0.41;" width="25.83" x="453.255" y="555.5988"/><text fill="#33FF33" font-family="Verdana" font-size="4.92" font-style="italic" lengthAdjust="spacing" textLength="12.3" x="460.02" y="562.5953">«vo»</text><text fill="#33FF33" font-family="Verdana" font-size="5.74" lengthAdjust="spacing" textLength="23.37" x="454.485" y="569.3991">Content</text></g><!--MD5=[f571bf22324d4c4a7242538c26f4d98c]
class SharedBoardParticipation--><g id="elem_SharedBoardParticipation"><rect codeLine="47" fill="#282828" height="23.0349" id="SharedBoardParticipation" rx="1.025" ry="1.025" style="stroke:#33FF33;stroke-width:0.41;" width="75.03" x="75.85" y="209.9688"/><text fill="#33FF33" font-family="Verdana" font-size="4.92" font-style="italic" lengthAdjust="spacing" textLength="20.91" x="102.91" y="216.9653">«entity»</text><text fill="#33FF33" font-family="Verdana" font-size="4.92" font-style="italic" lengthAdjust="spacing" textLength="16.4" x="105.165" y="222.9447">«root»</text><text fill="#33FF33" font-family="Verdana" font-size="5.74" lengthAdjust="spacing" textLength="72.57" x="77.08" y="229.7485">SharedBoardParticipation</text></g><!--MD5=[a7e0804515709e556f13ed1297f351ac]
class UserPermission--><g id="elem_UserPermission"><rect codeLine="48" fill="#282828" height="23.0349" id="UserPermission" rx="1.025" ry="1.025" style="stroke:#33FF33;stroke-width:0.41;" width="46.33" x="251.535" y="154.2088"/><text fill="#33FF33" font-family="Verdana" font-size="4.92" font-style="italic" lengthAdjust="spacing" textLength="12.3" x="268.55" y="161.2053">«vo»</text><text fill="#33FF33" font-family="Verdana" font-size="4.92" font-style="italic" lengthAdjust="spacing" textLength="20.91" x="264.245" y="167.1847">«enum»</text><text fill="#33FF33" font-family="Verdana" font-size="5.74" lengthAdjust="spacing" textLength="43.87" x="252.765" y="173.9885">UserPermission</text></g><g id="elem_GMN35"><path d="M175.48,323.1288 L175.48,333.7066 L373.92,333.7066 L373.92,327.2288 L369.82,323.1288 L175.48,323.1288 " fill="#282828" style="stroke:#33FF33;stroke-width:0.41;"/><path d="M369.82,323.1288 L369.82,327.2288 L373.92,327.2288 L369.82,323.1288 " fill="#282828" style="stroke:#33FF33;stroke-width:0.41;"/><text fill="#33FF33" font-family="Verdana" font-size="5.33" lengthAdjust="spacing" textLength="189.83" x="177.94" y="330.5375">This tells what permission the user contains in a specific SharedBoard</text></g><!--MD5=[51fd3fce36c976f35b405d5800336138]
class UserStatus--><g id="elem_UserStatus"><rect codeLine="50" fill="#282828" height="23.0349" id="UserStatus" rx="1.025" ry="1.025" style="stroke:#33FF33;stroke-width:0.41;" width="34.85" x="257.275" y="238.6688"/><text fill="#33FF33" font-family="Verdana" font-size="4.92" font-style="italic" lengthAdjust="spacing" textLength="12.3" x="268.55" y="245.6653">«vo»</text><text fill="#33FF33" font-family="Verdana" font-size="4.92" font-style="italic" lengthAdjust="spacing" textLength="20.91" x="264.245" y="251.6447">«enum»</text><text fill="#33FF33" font-family="Verdana" font-size="5.74" lengthAdjust="spacing" textLength="32.39" x="258.505" y="258.4485">UserStatus</text></g><g id="elem_GMN39"><path d="M398.52,244.8188 L398.52,248.5088 L292.1947,250.1488 L398.52,251.7888 L398.52,255.3966 A0,0 0 0 0 398.52,255.3966 L533.82,255.3966 A0,0 0 0 0 533.82,255.3966 L533.82,248.9188 L529.72,244.8188 L398.52,244.8188 A0,0 0 0 0 398.52,244.8188 " fill="#282828" style="stroke:#33FF33;stroke-width:0.41;"/><path d="M529.72,244.8188 L529.72,248.9188 L533.82,248.9188 L529.72,244.8188 " fill="#282828" style="stroke:#33FF33;stroke-width:0.41;"/><text fill="#33FF33" font-family="Verdana" font-size="5.33" lengthAdjust="spacing" textLength="126.69" x="400.98" y="252.2275">This tells if the user is a guest or a participant</text></g><!--MD5=[6625cacb085ce09cd54e71fbf9538668]
class PostItModification--><g id="elem_PostItModification"><rect codeLine="60" fill="#282828" height="23.0349" id="PostItModification" rx="1.025" ry="1.025" style="stroke:#33FF33;stroke-width:0.41;" width="53.3" x="439.52" y="395.2888"/><text fill="#33FF33" font-family="Verdana" font-size="4.92" font-style="italic" lengthAdjust="spacing" textLength="20.91" x="455.715" y="402.2853">«entity»</text><text fill="#33FF33" font-family="Verdana" font-size="4.92" font-style="italic" lengthAdjust="spacing" textLength="16.4" x="457.97" y="408.2647">«root»</text><text fill="#33FF33" font-family="Verdana" font-size="5.74" lengthAdjust="spacing" textLength="50.84" x="440.75" y="415.0685">PostItModification</text></g><!--MD5=[c8e494d84838be845717fe7e82907e86]
class SharedBoardCell--><g id="elem_SharedBoardCell"><rect fill="#282828" height="11.076" id="SharedBoardCell" rx="1.025" ry="1.025" style="stroke:#33FF33;stroke-width:0.41;" width="50.02" x="249.69" y="395.4938"/><text fill="#33FF33" font-family="Verdana" font-size="5.74" lengthAdjust="spacing" textLength="47.56" x="250.92" y="403.3147">SharedBoardCell</text></g><!--MD5=[ec4b41d87a035c3f1948d59ccd51dd25]
link SystemUser to UserName--><g id="link_SystemUser_UserName"><path codeLine="13" d="M49.8355,108.5225 C63.4475,109.0022 81.9303,109.6541 95.3742,110.1297 " fill="none" id="SystemUser-to-UserName" style="stroke:#33FF33;stroke-width:0.41;"/><polygon fill="#33FF33" points="97.4898,110.2035,93.8582,108.4381,95.441,110.1333,93.7458,111.7161,97.4898,110.2035" style="stroke:#33FF33;stroke-width:0.41;"/><text fill="#33FF33" font-family="Verdana" font-size="5.33" lengthAdjust="spacing" textLength="3.28" x="53.0733" y="114.494">1</text><text fill="#33FF33" font-family="Verdana" font-size="5.33" lengthAdjust="spacing" textLength="3.28" x="90.9804" y="116.074">1</text></g><!--MD5=[df920ce72f6aadcf91be3be9046ad77a]
link SystemUser to UserPassword--><g id="link_SystemUser_UserPassword"><path codeLine="14" d="M41.7954,96.3701 C48.4784,89.0188 57.5189,79.3961 66.01,71.3888 C77.1292,60.9051 90.5567,49.79 100.1958,42.0533 " fill="none" id="SystemUser-to-UserPassword" style="stroke:#33FF33;stroke-width:0.41;"/><polygon fill="#33FF33" points="101.8317,40.7495,97.9253,41.7723,100.2303,42.0295,99.9732,44.3345,101.8317,40.7495" style="stroke:#33FF33;stroke-width:0.41;"/><text fill="#33FF33" font-family="Verdana" font-size="5.33" lengthAdjust="spacing" textLength="3.28" x="40.708" y="92.0548">1</text><text fill="#33FF33" font-family="Verdana" font-size="5.33" lengthAdjust="spacing" textLength="3.28" x="95.3407" y="49.0434">1</text></g><!--MD5=[a61d8b58aa1bcd141e508d3354c0fb40]
link SharedBoard to BoardTitle--><g id="link_SharedBoard_BoardTitle"><path codeLine="31" d="M40.9262,683.6541 C47.6133,691.7229 56.99,702.5674 66.01,711.3988 C76.9283,722.0916 90.3804,733.178 100.081,740.8532 " fill="none" id="SharedBoard-to-BoardTitle" style="stroke:#33FF33;stroke-width:0.41;"/><polygon fill="#33FF33" points="101.7251,742.1488,99.8443,738.5756,100.1158,740.879,97.8124,741.1505,101.7251,742.1488" style="stroke:#33FF33;stroke-width:0.41;"/><text fill="#33FF33" font-family="Verdana" font-size="5.33" lengthAdjust="spacing" textLength="3.28" x="94.2121" y="737.7113">1</text></g><!--MD5=[cf6099374887ae4fbefe86fb043b4b37]
link Cell to Column--><g id="link_Cell_Column"><path codeLine="32" d="M123.451,680.7472 C131.4747,688.3117 142.8317,699.8368 150.88,711.3988 C164.9389,731.5954 162.0238,740.4022 175.48,761.0088 C203.688,804.1982 245.5121,849.3679 264.4008,868.9946 " fill="none" id="Cell-to-Column" style="stroke:#33FF33;stroke-width:0.41;"/><polygon fill="#33FF33" points="265.8276,870.4747,264.4468,866.6801,264.4046,868.9991,262.0857,868.9569,265.8276,870.4747" style="stroke:#33FF33;stroke-width:0.41;"/><text fill="#33FF33" font-family="Verdana" font-size="5.33" lengthAdjust="spacing" textLength="3.69" x="121.8728" y="689.1884">*</text><text fill="#33FF33" font-family="Verdana" font-size="5.33" lengthAdjust="spacing" textLength="3.28" x="259.1968" y="866.0359">1</text></g><!--MD5=[af531668c4b2523acc4c83e34301bfb0]
link Cell to Row--><g id="link_Cell_Row"><path codeLine="33" d="M124.3079,675.2942 C152.7455,684.0846 230.9981,708.2705 261.6989,717.7579 " fill="none" id="Cell-to-Row" style="stroke:#33FF33;stroke-width:0.41;"/><polygon fill="#33FF33" points="263.8227,718.4139,260.7776,715.7619,261.8632,717.8115,259.8137,718.8971,263.8227,718.4139" style="stroke:#33FF33;stroke-width:0.41;"/><text fill="#33FF33" font-family="Verdana" font-size="5.33" lengthAdjust="spacing" textLength="3.69" x="127.5848" y="682.3381">*</text><text fill="#33FF33" font-family="Verdana" font-size="5.33" lengthAdjust="spacing" textLength="3.28" x="257.3351" y="723.7947">1</text></g><!--MD5=[d7b5bd00dc78842bc19c5ed9353a54c1]
link SharedBoard to Cell--><g id="link_SharedBoard_Cell"><path codeLine="34" d="M51.2705,672.0388 C66.4815,672.0388 87.0758,672.0388 100.1917,672.0388 " fill="none" id="SharedBoard-to-Cell" style="stroke:#33FF33;stroke-width:0.41;"/><polygon fill="#33FF33" points="102.3893,672.0388,98.6993,670.3988,100.3393,672.0388,98.6993,673.6788,102.3893,672.0388" style="stroke:#33FF33;stroke-width:0.41;"/><text fill="#33FF33" font-family="Verdana" font-size="5.33" lengthAdjust="spacing" textLength="3.69" x="95.5743" y="678.207">*</text></g><!--MD5=[2915adadebdc1d702007ee158deb9d92]
link Row to RowNumber--><g id="link_Row_RowNumber"><path codeLine="35" d="M285.6306,721.6488 C316.1141,721.6488 404.8873,721.6488 445.2969,721.6488 " fill="none" id="Row-to-RowNumber" style="stroke:#33FF33;stroke-width:0.41;"/><polygon fill="#33FF33" points="447.4207,721.6488,443.7307,720.0088,445.3707,721.6488,443.7307,723.2888,447.4207,721.6488" style="stroke:#33FF33;stroke-width:0.41;"/></g><!--MD5=[d0db21e7ea234173eb335171c920c0b6]
link Row to RowTitle--><g id="link_Row_RowTitle"><path codeLine="36" d="M285.6306,725.9948 C317.6106,739.1968 413.7351,778.8889 450.8811,794.227 " fill="none" id="Row-to-RowTitle" style="stroke:#33FF33;stroke-width:0.41;"/><polygon fill="#33FF33" points="452.8204,795.0265,450.0296,792.1081,450.924,794.2481,448.784,795.1424,452.8204,795.0265" style="stroke:#33FF33;stroke-width:0.41;"/></g><!--MD5=[5fc02342b073558faf3663735d41a666]
link Cell to PostIt--><g id="link_Cell_PostIt"><path codeLine="37" d="M124.3079,668.7588 C152.7455,659.8946 230.9981,635.5078 261.6989,625.9425 " fill="none" id="Cell-to-PostIt" style="stroke:#33FF33;stroke-width:0.41;"/><polygon fill="#33FF33" points="263.8227,625.2783,259.812,624.8095,261.8654,625.8878,260.7871,627.9412,263.8227,625.2783" style="stroke:#33FF33;stroke-width:0.41;"/><text fill="#33FF33" font-family="Verdana" font-size="5.33" lengthAdjust="spacing" textLength="3.28" x="127.5323" y="674.128">1</text><text fill="#33FF33" font-family="Verdana" font-size="5.33" lengthAdjust="spacing" textLength="3.28" x="257.3351" y="632.3233">1</text></g><!--MD5=[4b2510738061fabf0a69a8e45a611fc0]
link Column to ColumnNumber--><g id="link_Column_ColumnNumber"><path codeLine="38" d="M286.8934,879.0888 C317.3113,879.0888 398.9956,879.0888 440.6229,879.0888 " fill="none" id="Column-to-ColumnNumber" style="stroke:#33FF33;stroke-width:0.41;"/><polygon fill="#33FF33" points="442.6975,879.0888,439.0075,877.4488,440.6475,879.0888,439.0075,880.7288,442.6975,879.0888" style="stroke:#33FF33;stroke-width:0.41;"/></g><!--MD5=[5e3ddfcb2e558516f282add12abeb45f]
link Column to ColumnTitle--><g id="link_Column_ColumnTitle"><path codeLine="39" d="M286.8934,883.9555 C318.7053,897.0919 406.6052,933.3851 446.1005,949.6908 " fill="none" id="Column-to-ColumnTitle" style="stroke:#33FF33;stroke-width:0.41;"/><polygon fill="#33FF33" points="448.0562,950.4985,445.2763,947.5697,446.1627,949.713,444.0194,950.5994,448.0562,950.4985" style="stroke:#33FF33;stroke-width:0.41;"/></g><!--MD5=[512ff2d0365a141fa9444e9be618cddf]
link PostIt to CreationTimestamp--><g id="link_PostIt_CreationTimestamp"><path codeLine="40" d="M285.6306,623.1709 C313.7156,626.2541 391.2794,634.7616 434.9116,639.5463 " fill="none" id="PostIt-to-CreationTimestamp" style="stroke:#33FF33;stroke-width:0.41;"/><polygon fill="#33FF33" points="436.9657,639.7718,433.4755,637.741,434.9278,639.5493,433.1195,641.0016,436.9657,639.7718" style="stroke:#33FF33;stroke-width:0.41;"/></g><!--MD5=[d169426e0fc7faeee53011ef1e88d799]
link PostIt to Content--><g id="link_PostIt_Content"><path codeLine="41" d="M285.6306,618.829 C317.6926,609.1079 414.2353,579.8339 451.1722,568.6327 " fill="none" id="PostIt-to-Content" style="stroke:#33FF33;stroke-width:0.41;"/><polygon fill="#33FF33" points="453.2017,568.0177,449.1954,567.5127,451.239,568.6095,450.1422,570.6531,453.2017,568.0177" style="stroke:#33FF33;stroke-width:0.41;"/></g><!--MD5=[408f11395ed52002b4859e23ea865523]
link GMN35 to UserPermission--><g id="link_GMN35_UserPermission"><path d="M239.645,323.1124 C218.694,318.2785 192.8558,309.2134 175.48,292.3788 C164.9061,282.137 165.9639,276.0813 163.18,261.6288 C158.547,237.5823 158.3543,225.4217 175.48,207.9188 C196.2301,186.7095 229.3212,175.5739 251.5145,170.1701 " fill="none" id="GMN35-UserPermission" style="stroke:#33FF33;stroke-width:0.41;stroke-dasharray:7.0,7.0;"/></g><!--MD5=[c144ca6af167310fbeea43b517d5046b]
link SharedBoardParticipation to UserPermission--><g id="link_SharedBoardParticipation_UserPermission"><path codeLine="53" d="M146.8374,209.9647 C177.3578,199.3621 221.9904,183.8559 249.5342,174.2865 " fill="none" id="SharedBoardParticipation-to-UserPermission" style="stroke:#33FF33;stroke-width:0.41;"/><polygon fill="#33FF33" points="251.4899,173.61,247.4657,173.2757,249.5541,174.2847,248.5451,176.373,251.4899,173.61" style="stroke:#33FF33;stroke-width:0.41;"/></g><!--MD5=[564c5d6510d625b3f4c0ebbaba049249]
link SharedBoardParticipation to UserStatus--><g id="link_SharedBoardParticipation_UserStatus"><path codeLine="54" d="M151.003,228.1072 C183.5693,233.9292 229.5508,242.1497 255.1635,246.7294 " fill="none" id="SharedBoardParticipation-to-UserStatus" style="stroke:#33FF33;stroke-width:0.41;"/><polygon fill="#33FF33" points="257.275,247.1066,253.928,244.8476,255.2565,246.7487,253.3553,248.0772,257.275,247.1066" style="stroke:#33FF33;stroke-width:0.41;"/></g><!--MD5=[2cd3fd2f9034458a377dbfefb16f8fd1]
reverse link SharedBoard to SharedBoardParticipation--><g id="link_SharedBoard_SharedBoardParticipation"><path codeLine="55" d="M34.0464,658.3325 C46.2234,590.908 99.6382,295.1832 110.8763,232.9616 " fill="none" id="SharedBoard-backto-SharedBoardParticipation" style="stroke:#33FF33;stroke-width:0.41;"/><polygon fill="#33FF33" points="33.6651,660.4481,35.9319,657.1064,34.0277,658.4305,32.7036,656.5263,33.6651,660.4481" style="stroke:#33FF33;stroke-width:0.41;"/><text fill="#33FF33" font-family="Verdana" font-size="5.33" lengthAdjust="spacing" textLength="3.28" x="30.596" y="656.1128">1</text></g><!--MD5=[18685700dbc4ef54633fec50ef75f1ab]
reverse link SystemUser to SharedBoardParticipation--><g id="link_SystemUser_SharedBoardParticipation"><path codeLine="56" d="M41.0451,121.1013 C57.1171,143.5283 89.462,188.6652 104.6812,209.9032 " fill="none" id="SystemUser-backto-SharedBoardParticipation" style="stroke:#33FF33;stroke-width:0.41;"/><polygon fill="#33FF33" points="39.8233,119.3916,40.6441,123.3454,41.0193,121.0566,43.308,121.4318,39.8233,119.3916" style="stroke:#33FF33;stroke-width:0.41;"/><text fill="#33FF33" font-family="Verdana" font-size="5.33" lengthAdjust="spacing" textLength="3.28" x="38.1674" y="128.1529">1</text></g><!--MD5=[adf73031583d0ea9a536d7321a838f97]
link PostIt to PostItModification--><g id="link_PostIt_PostItModification"><path codeLine="62" d="M285.688,615.5367 C304.8268,603.4622 345.8227,576.0004 373.92,545.7588 C412.0828,504.6891 445.1083,446.1206 458.8966,420.1061 " fill="none" id="PostIt-to-PostItModification" style="stroke:#33FF33;stroke-width:0.41;"/><polygon fill="#33FF33" points="459.856,418.2898,456.6775,420.7804,458.8949,420.1006,459.5747,422.3181,459.856,418.2898" style="stroke:#33FF33;stroke-width:0.41;"/><text fill="#33FF33" font-family="Verdana" font-size="5.33" lengthAdjust="spacing" textLength="3.28" x="288.7661" y="620.1249">1</text><text fill="#33FF33" font-family="Verdana" font-size="5.33" lengthAdjust="spacing" textLength="3.69" x="454.2792" y="427.053">*</text></g><!--MD5=[a0fcea28e016921efc3fa878fa204061]
link SystemUser to PostItModification--><g id="link_SystemUser_PostItModification"><path codeLine="63" d="M32.0579,119.4654 C34.0382,162.3637 42.5252,311.7513 66.01,352.2388 C96.8994,405.4896 117.2354,417.1746 175.48,437.1088 C258.9232,465.6653 286.8442,451.1185 373.92,437.1088 C395.8345,433.5828 419.6022,425.6083 437.47,418.7203 " fill="none" id="SystemUser-to-PostItModification" style="stroke:#33FF33;stroke-width:0.41;"/><polygon fill="#33FF33" points="439.397,417.9741,435.3636,417.7813,437.4861,418.7163,436.551,420.8388,439.397,417.9741" style="stroke:#33FF33;stroke-width:0.41;"/><text fill="#33FF33" font-family="Verdana" font-size="5.33" lengthAdjust="spacing" textLength="3.28" x="28.6156" y="128.059">1</text><text fill="#33FF33" font-family="Verdana" font-size="5.33" lengthAdjust="spacing" textLength="3.69" x="432.5769" y="424.9085">*</text></g><!--MD5=[5cbb7049c1404e7f21c34ee50b816cda]
link SharedBoardCell to PostItModification--><g id="link_SharedBoardCell_PostItModification"><path codeLine="64" d="M299.8371,401.775 C335.1914,402.8369 400.0083,404.7885 437.306,405.9119 " fill="none" id="SharedBoardCell-to-PostItModification" style="stroke:#33FF33;stroke-width:0.41;"/><polygon fill="#33FF33" points="439.3929,405.9734,435.7512,404.2287,437.3437,405.9149,435.6576,407.5074,439.3929,405.9734" style="stroke:#33FF33;stroke-width:0.41;"/><text fill="#33FF33" font-family="Verdana" font-size="5.33" lengthAdjust="spacing" textLength="3.28" x="302.9332" y="407.5941">1</text><text fill="#33FF33" font-family="Verdana" font-size="5.33" lengthAdjust="spacing" textLength="3.28" x="433.0048" y="411.5952">1</text></g><!--MD5=[00de988739016b1e34af760d59e5578a]
@startuml DDD
!theme crt-green
skinparam nodesep 150
hide empty members
left to right direction
hide circle
hide fields

package "<<agr SystemUser>>"{
    class SystemUser<<entity>><<root>>{}
    class UserName<<vo>>{}
    class UserPassword<<vo>>{}

    SystemUser "1" - -> "1" UserName
    SystemUser "1" - -> "1" UserPassword
}

package "<<agr SharedBoard>>"{
    class SharedBoard<<entity>><<root>>{}
    class BoardTitle<<vo>>{}
    class Cell<<entity>>{}
    class Column<<entity>>{}
    class ColumnTitle<<vo>>{}
    class ColumnNumber<<vo>>{}
    class Row<<entity>>{}
    class RowTitle<<vo>>{}
    class RowNumber<<vo>>{}
    class PostIt<<entity>>{}
    class CreationTimestamp<<vo>>{}
    class Content<<vo>>{}

    SharedBoard - -> "1" BoardTitle
    Cell "*" - -> "1" Column
    Cell "*" - -> "1" Row
    SharedBoard - -> "*" Cell
    Row - -> RowNumber
    Row - -> RowTitle
    Cell "1" - -> "1" PostIt
    Column - -> ColumnNumber
    Column - -> ColumnTitle
    PostIt - -> CreationTimestamp
    PostIt - -> Content


}

package "<<agr SharedBoardParticipation>>"{
    class SharedBoardParticipation<<entity>><<root>>{}
    class UserPermission<<vo>><<enum>>{}
    note top: This tells what permission the user contains in a specific SharedBoard
    class UserStatus <<vo>><<enum>>{}
    note right: This tells if the user is a guest or a participant

    SharedBoardParticipation - -> UserPermission
    SharedBoardParticipation - -> UserStatus
    SharedBoard "1" <- - SharedBoardParticipation
    SystemUser "1" <- - SharedBoardParticipation
}

package "<<agr PostItModification>>"{
    class PostItModification<<entity>><<root>>{}

    PostIt "1" - -> "*" PostItModification
    SystemUser "1" - -> "*" PostItModification
    SharedBoardCell "1" - -> "1" PostItModification

}
@enduml

@startuml DDD





<style>
  root {
    BackgroundColor #282828
    FontColor #33FF33
    FontName Verdana
    HyperLinkColor #33FF33
    LineColor #33FF33
    LineThickness 1
    Margin 5
  }
  box {
    LineStyle 12-18
    LineThickness 3
  }
  caption {
    LineThickness 0
  }
  footer {
    LineThickness 0
  }
  groupHeader {
    BackgroundColor #33FF33
    FontColor #282828
    FontStyle bold
  }
  header {
    LineThickness 0
  }
  node {
    MaximumWidth 300
  }
  referenceHeader {
    BackgroundColor #33FF33
    FontColor #282828
    FontStyle bold
  }
  separator {
    BackgroundColor #33FF33
    FontColor #282828
    FontStyle bold
  }
  title {
    FontSize 22
    LineThickness 0
  }
</style>

skinparam ArrowLollipopColor #33FF33
skinparam BackgroundColor #282828
skinparam DefaultFontName Verdana
skinparam DefaultMonospacedFontName Courier
skinparam LifelineStrategy solid
skinparam ParticipantPadding 10
skinparam SequenceLifeLineBorderColor #33FF33
skinparam Shadowing false
skinparam UseBetaStyle true

skinparam Activity {
  BackgroundColor #282828
  BarColor #33FF33
  BorderColor #33FF33
  FontColor #33FF33
  FontName Verdana
}
skinparam Boundary {
  FontColor #33FF33
}
skinparam Box {
  Padding 5
}
skinparam CircledCharacter {
  FontColor #282828
  FontName Courier
  Radius 9
}
skinparam Class {
  BackgroundColor #282828
  BorderColor #33FF33
  FontColor #33FF33
  FontName Verdana
}
skinparam ClassAttribute {
  FontColor #33FF33
  FontName Verdana
}
skinparam ClassStereotype {
  FontColor #33FF33
  FontName Verdana
}
skinparam Footer {
  FontColor #33FF33
  FontName Verdana
}
skinparam Header {
  FontColor #33FF33
  FontName Verdana
}
skinparam Hyperlink {
  Color #33FF33
}
skinparam IconPackage {
  Color #33FF33
  BackgroundColor #282828
}
skinparam IconPrivate {
  Color #33FF33
  BackgroundColor #282828
}
skinparam IconProtected {
  Color #33FF33
  BackgroundColor #282828
}
skinparam IconPublic {
  Color #33FF33
  BackgroundColor #282828
}
skinparam Note {
  FontColor #33FF33
  FontName Verdana
}
skinparam Object {
  BorderColor #33FF33
}
skinparam Package {
  BorderColor #33FF33
  FontColor #33FF33
  FontName Verdana
}
skinparam State {
  BackgroundColor #282828
  BorderColor #33FF33
}
skinparam StereotypeA {
  BackgroundColor #33FF33
  BorderColor #33FF33
}
skinparam StereotypeC {
  BackgroundColor #33FF33
  BorderColor #33FF33
}
skinparam StereotypeE {
  BackgroundColor #33FF33
  BorderColor #33FF33
}
skinparam StereotypeI {
  BackgroundColor #33FF33
  BorderColor #33FF33
}
skinparam StereotypeN {
  BackgroundColor #33FF33
  BorderColor #33FF33
}
skinparam UseCaseStereoType {
  FontColor #33FF33
  FontName Verdana
}
skinparam nodesep 150
hide empty members
left to right direction
hide circle
hide fields

package "<<agr SystemUser>>"{
    class SystemUser<<entity>><<root>>{}
    class UserName<<vo>>{}
    class UserPassword<<vo>>{}

    SystemUser "1" - -> "1" UserName
    SystemUser "1" - -> "1" UserPassword
}

package "<<agr SharedBoard>>"{
    class SharedBoard<<entity>><<root>>{}
    class BoardTitle<<vo>>{}
    class Cell<<entity>>{}
    class Column<<entity>>{}
    class ColumnTitle<<vo>>{}
    class ColumnNumber<<vo>>{}
    class Row<<entity>>{}
    class RowTitle<<vo>>{}
    class RowNumber<<vo>>{}
    class PostIt<<entity>>{}
    class CreationTimestamp<<vo>>{}
    class Content<<vo>>{}

    SharedBoard - -> "1" BoardTitle
    Cell "*" - -> "1" Column
    Cell "*" - -> "1" Row
    SharedBoard - -> "*" Cell
    Row - -> RowNumber
    Row - -> RowTitle
    Cell "1" - -> "1" PostIt
    Column - -> ColumnNumber
    Column - -> ColumnTitle
    PostIt - -> CreationTimestamp
    PostIt - -> Content


}

package "<<agr SharedBoardParticipation>>"{
    class SharedBoardParticipation<<entity>><<root>>{}
    class UserPermission<<vo>><<enum>>{}
    note top: This tells what permission the user contains in a specific SharedBoard
    class UserStatus <<vo>><<enum>>{}
    note right: This tells if the user is a guest or a participant

    SharedBoardParticipation - -> UserPermission
    SharedBoardParticipation - -> UserStatus
    SharedBoard "1" <- - SharedBoardParticipation
    SystemUser "1" <- - SharedBoardParticipation
}

package "<<agr PostItModification>>"{
    class PostItModification<<entity>><<root>>{}

    PostIt "1" - -> "*" PostItModification
    SystemUser "1" - -> "*" PostItModification
    SharedBoardCell "1" - -> "1" PostItModification

}
@enduml

PlantUML version 1.2022.12(Sun Oct 23 19:12:26 BST 2022)
(GPL source distribution)
Java Runtime: OpenJDK Runtime Environment
JVM: OpenJDK 64-Bit Server VM
Default Encoding: Cp1252
Language: en
Country: US
--></g></svg>