<?xml version="1.0" encoding="UTF-8" standalone="no"?><svg xmlns="http://www.w3.org/2000/svg" xmlns:xlink="http://www.w3.org/1999/xlink" contentStyleType="text/css" height="716px" preserveAspectRatio="none" style="width:1022px;height:716px;background:#FFFFFF;" version="1.1" viewBox="0 0 1022 716" width="1022px" zoomAndPan="magnify"><defs/><g><!--MD5=[f0a3ccf107fc0f49d4bab9434f93a3f5]
class AddCourseUI--><g id="elem_AddCourseUI"><rect codeLine="2" fill="#F1F1F1" height="118.4375" id="AddCourseUI" rx="2.5" ry="2.5" style="stroke:#181818;stroke-width:0.5;" width="187" x="343" y="7"/><ellipse cx="390.75" cy="23" fill="#ADD1B2" rx="11" ry="11" style="stroke:#181818;stroke-width:1.0;"/><path d="M392.75,19.5 Q392.9531,19 393.1875,18.75 Q393.4219,18.5 393.6875,18.5 Q394.1563,18.5 394.4531,18.7813 Q394.75,19.0625 394.75,19.7188 L394.75,21.2813 Q394.75,21.9375 394.4688,22.2188 Q394.1875,22.5 393.75,22.5 Q393.3594,22.5 393.1094,22.3281 Q392.8594,22.1563 392.75,21.7031 Q392.7031,21.3906 392.5313,21.2188 Q392.2188,20.8906 391.6563,20.7031 Q391.0938,20.5 390.5313,20.5 Q389.8281,20.5 389.2344,20.7813 Q388.6563,21.0625 388.2031,21.6875 Q387.75,22.3125 387.75,23.1719 L387.75,24.0938 Q387.75,25.125 388.5938,25.8125 Q389.4375,26.5 390.9375,26.5 Q391.8281,26.5 392.4531,26.2969 Q392.8125,26.1875 393.2188,25.8281 Q393.4844,25.625 393.625,25.5625 Q393.7656,25.5 393.9375,25.5 Q394.2656,25.5 394.5,25.7656 Q394.75,26.0156 394.75,26.375 Q394.75,26.7188 394.4063,27.125 Q393.9063,27.7188 393.1094,28.0469 Q392.0625,28.5 390.7813,28.5 Q389.2813,28.5 388.0781,27.9063 Q387.1094,27.4375 386.4219,26.4219 Q385.75,25.4063 385.75,24.2031 L385.75,23.1094 Q385.75,21.8594 386.3438,20.7656 Q386.9531,19.6719 388,19.0938 Q389.0625,18.5 390.25,18.5 Q390.9688,18.5 391.5938,18.75 Q392.2188,19 392.75,19.5 Z " fill="#000000"/><text fill="#000000" font-family="sans-serif" font-size="14" lengthAdjust="spacing" textLength="83" x="411.25" y="28.7285">AddCourseUI</text><line style="stroke:#181818;stroke-width:0.5;" x1="344" x2="529" y1="39" y2="39"/><line style="stroke:#181818;stroke-width:0.5;" x1="344" x2="529" y1="47" y2="47"/><ellipse cx="354" cy="61.3047" fill="#84BE84" rx="3" ry="3" style="stroke:#038048;stroke-width:1.0;"/><text fill="#000000" font-family="sans-serif" font-size="14" lengthAdjust="spacing" textLength="119" x="363" y="65.5332">requestInputData()</text><ellipse cx="354" cy="78.9141" fill="#84BE84" rx="3" ry="3" style="stroke:#038048;stroke-width:1.0;"/><text fill="#000000" font-family="sans-serif" font-size="14" lengthAdjust="spacing" textLength="117" x="363" y="83.1426">showTeacherList()</text><ellipse cx="354" cy="96.5234" fill="#84BE84" rx="3" ry="3" style="stroke:#038048;stroke-width:1.0;"/><text fill="#000000" font-family="sans-serif" font-size="14" lengthAdjust="spacing" textLength="100" x="363" y="100.752">selectTeacher()</text><ellipse cx="354" cy="114.1328" fill="#84BE84" rx="3" ry="3" style="stroke:#038048;stroke-width:1.0;"/><text fill="#000000" font-family="sans-serif" font-size="14" lengthAdjust="spacing" textLength="161" x="363" y="118.3613">presentOperationResult()</text></g><!--MD5=[1db5b5826e46289ec41b458574cc9cf1]
class ListTeacherService--><g id="elem_ListTeacherService"><rect codeLine="9" fill="#F1F1F1" height="65.6094" id="ListTeacherService" rx="2.5" ry="2.5" style="stroke:#181818;stroke-width:0.5;" width="154" x="149.5" y="299"/><ellipse cx="164.5" cy="315" fill="#ADD1B2" rx="11" ry="11" style="stroke:#181818;stroke-width:1.0;"/><path d="M166.5,311.5 Q166.7031,311 166.9375,310.75 Q167.1719,310.5 167.4375,310.5 Q167.9063,310.5 168.2031,310.7813 Q168.5,311.0625 168.5,311.7188 L168.5,313.2813 Q168.5,313.9375 168.2188,314.2188 Q167.9375,314.5 167.5,314.5 Q167.1094,314.5 166.8594,314.3281 Q166.6094,314.1563 166.5,313.7031 Q166.4531,313.3906 166.2813,313.2188 Q165.9688,312.8906 165.4063,312.7031 Q164.8438,312.5 164.2813,312.5 Q163.5781,312.5 162.9844,312.7813 Q162.4063,313.0625 161.9531,313.6875 Q161.5,314.3125 161.5,315.1719 L161.5,316.0938 Q161.5,317.125 162.3438,317.8125 Q163.1875,318.5 164.6875,318.5 Q165.5781,318.5 166.2031,318.2969 Q166.5625,318.1875 166.9688,317.8281 Q167.2344,317.625 167.375,317.5625 Q167.5156,317.5 167.6875,317.5 Q168.0156,317.5 168.25,317.7656 Q168.5,318.0156 168.5,318.375 Q168.5,318.7188 168.1563,319.125 Q167.6563,319.7188 166.8594,320.0469 Q165.8125,320.5 164.5313,320.5 Q163.0313,320.5 161.8281,319.9063 Q160.8594,319.4375 160.1719,318.4219 Q159.5,317.4063 159.5,316.2031 L159.5,315.1094 Q159.5,313.8594 160.0938,312.7656 Q160.7031,311.6719 161.75,311.0938 Q162.8125,310.5 164,310.5 Q164.7188,310.5 165.3438,310.75 Q165.9688,311 166.5,311.5 Z " fill="#000000"/><text fill="#000000" font-family="sans-serif" font-size="14" lengthAdjust="spacing" textLength="122" x="178.5" y="320.7285">ListTeacherService</text><line style="stroke:#181818;stroke-width:0.5;" x1="150.5" x2="302.5" y1="331" y2="331"/><line style="stroke:#181818;stroke-width:0.5;" x1="150.5" x2="302.5" y1="339" y2="339"/><ellipse cx="160.5" cy="353.3047" fill="#84BE84" rx="3" ry="3" style="stroke:#038048;stroke-width:1.0;"/><text fill="#000000" font-family="sans-serif" font-size="14" lengthAdjust="spacing" textLength="87" x="169.5" y="357.5332">listTeachers()</text></g><!--MD5=[da26703859f477a8bbe6420799c9dcde]
class CreateCourseController--><g id="elem_CreateCourseController"><rect codeLine="13" fill="#F1F1F1" height="65.6094" id="CreateCourseController" rx="2.5" ry="2.5" style="stroke:#181818;stroke-width:0.5;" width="183" x="591" y="203"/><ellipse cx="606" cy="219" fill="#ADD1B2" rx="11" ry="11" style="stroke:#181818;stroke-width:1.0;"/><path d="M608,215.5 Q608.2031,215 608.4375,214.75 Q608.6719,214.5 608.9375,214.5 Q609.4063,214.5 609.7031,214.7813 Q610,215.0625 610,215.7188 L610,217.2813 Q610,217.9375 609.7188,218.2188 Q609.4375,218.5 609,218.5 Q608.6094,218.5 608.3594,218.3281 Q608.1094,218.1563 608,217.7031 Q607.9531,217.3906 607.7813,217.2188 Q607.4688,216.8906 606.9063,216.7031 Q606.3438,216.5 605.7813,216.5 Q605.0781,216.5 604.4844,216.7813 Q603.9063,217.0625 603.4531,217.6875 Q603,218.3125 603,219.1719 L603,220.0938 Q603,221.125 603.8438,221.8125 Q604.6875,222.5 606.1875,222.5 Q607.0781,222.5 607.7031,222.2969 Q608.0625,222.1875 608.4688,221.8281 Q608.7344,221.625 608.875,221.5625 Q609.0156,221.5 609.1875,221.5 Q609.5156,221.5 609.75,221.7656 Q610,222.0156 610,222.375 Q610,222.7188 609.6563,223.125 Q609.1563,223.7188 608.3594,224.0469 Q607.3125,224.5 606.0313,224.5 Q604.5313,224.5 603.3281,223.9063 Q602.3594,223.4375 601.6719,222.4219 Q601,221.4063 601,220.2031 L601,219.1094 Q601,217.8594 601.5938,216.7656 Q602.2031,215.6719 603.25,215.0938 Q604.3125,214.5 605.5,214.5 Q606.2188,214.5 606.8438,214.75 Q607.4688,215 608,215.5 Z " fill="#000000"/><text fill="#000000" font-family="sans-serif" font-size="14" lengthAdjust="spacing" textLength="151" x="620" y="224.7285">CreateCourseController</text><line style="stroke:#181818;stroke-width:0.5;" x1="592" x2="773" y1="235" y2="235"/><line style="stroke:#181818;stroke-width:0.5;" x1="592" x2="773" y1="243" y2="243"/><ellipse cx="602" cy="257.3047" fill="#84BE84" rx="3" ry="3" style="stroke:#038048;stroke-width:1.0;"/><text fill="#000000" font-family="sans-serif" font-size="14" lengthAdjust="spacing" textLength="96" x="611" y="261.5332">createCourse()</text></g><!--MD5=[013c6f59d4a29837d18eac180e2f5223]
class FindTeacherByAcronymService--><g id="elem_FindTeacherByAcronymService"><rect codeLine="17" fill="#F1F1F1" height="65.6094" id="FindTeacherByAcronymService" rx="2.5" ry="2.5" style="stroke:#181818;stroke-width:0.5;" width="231" x="385" y="430"/><ellipse cx="400" cy="446" fill="#ADD1B2" rx="11" ry="11" style="stroke:#181818;stroke-width:1.0;"/><path d="M402,442.5 Q402.2031,442 402.4375,441.75 Q402.6719,441.5 402.9375,441.5 Q403.4063,441.5 403.7031,441.7813 Q404,442.0625 404,442.7188 L404,444.2813 Q404,444.9375 403.7188,445.2188 Q403.4375,445.5 403,445.5 Q402.6094,445.5 402.3594,445.3281 Q402.1094,445.1563 402,444.7031 Q401.9531,444.3906 401.7813,444.2188 Q401.4688,443.8906 400.9063,443.7031 Q400.3438,443.5 399.7813,443.5 Q399.0781,443.5 398.4844,443.7813 Q397.9063,444.0625 397.4531,444.6875 Q397,445.3125 397,446.1719 L397,447.0938 Q397,448.125 397.8438,448.8125 Q398.6875,449.5 400.1875,449.5 Q401.0781,449.5 401.7031,449.2969 Q402.0625,449.1875 402.4688,448.8281 Q402.7344,448.625 402.875,448.5625 Q403.0156,448.5 403.1875,448.5 Q403.5156,448.5 403.75,448.7656 Q404,449.0156 404,449.375 Q404,449.7188 403.6563,450.125 Q403.1563,450.7188 402.3594,451.0469 Q401.3125,451.5 400.0313,451.5 Q398.5313,451.5 397.3281,450.9063 Q396.3594,450.4375 395.6719,449.4219 Q395,448.4063 395,447.2031 L395,446.1094 Q395,444.8594 395.5938,443.7656 Q396.2031,442.6719 397.25,442.0938 Q398.3125,441.5 399.5,441.5 Q400.2188,441.5 400.8438,441.75 Q401.4688,442 402,442.5 Z " fill="#000000"/><text fill="#000000" font-family="sans-serif" font-size="14" lengthAdjust="spacing" textLength="199" x="414" y="451.7285">FindTeacherByAcronymService</text><line style="stroke:#181818;stroke-width:0.5;" x1="386" x2="615" y1="462" y2="462"/><line style="stroke:#181818;stroke-width:0.5;" x1="386" x2="615" y1="470" y2="470"/><ellipse cx="396" cy="484.3047" fill="#84BE84" rx="3" ry="3" style="stroke:#038048;stroke-width:1.0;"/><text fill="#000000" font-family="sans-serif" font-size="14" lengthAdjust="spacing" textLength="157" x="405" y="488.5332">findTeacherByAcronym()</text></g><!--MD5=[54a33dd013dd881697601ca49de6dfbc]
class AuthorizationService--><g id="elem_AuthorizationService"><rect codeLine="21" fill="#F1F1F1" height="65.6094" id="AuthorizationService" rx="2.5" ry="2.5" style="stroke:#181818;stroke-width:0.5;" width="259" x="7" y="626.5"/><ellipse cx="67.75" cy="642.5" fill="#ADD1B2" rx="11" ry="11" style="stroke:#181818;stroke-width:1.0;"/><path d="M69.75,639 Q69.9531,638.5 70.1875,638.25 Q70.4219,638 70.6875,638 Q71.1563,638 71.4531,638.2813 Q71.75,638.5625 71.75,639.2188 L71.75,640.7813 Q71.75,641.4375 71.4688,641.7188 Q71.1875,642 70.75,642 Q70.3594,642 70.1094,641.8281 Q69.8594,641.6563 69.75,641.2031 Q69.7031,640.8906 69.5313,640.7188 Q69.2188,640.3906 68.6563,640.2031 Q68.0938,640 67.5313,640 Q66.8281,640 66.2344,640.2813 Q65.6563,640.5625 65.2031,641.1875 Q64.75,641.8125 64.75,642.6719 L64.75,643.5938 Q64.75,644.625 65.5938,645.3125 Q66.4375,646 67.9375,646 Q68.8281,646 69.4531,645.7969 Q69.8125,645.6875 70.2188,645.3281 Q70.4844,645.125 70.625,645.0625 Q70.7656,645 70.9375,645 Q71.2656,645 71.5,645.2656 Q71.75,645.5156 71.75,645.875 Q71.75,646.2188 71.4063,646.625 Q70.9063,647.2188 70.1094,647.5469 Q69.0625,648 67.7813,648 Q66.2813,648 65.0781,647.4063 Q64.1094,646.9375 63.4219,645.9219 Q62.75,644.9063 62.75,643.7031 L62.75,642.6094 Q62.75,641.3594 63.3438,640.2656 Q63.9531,639.1719 65,638.5938 Q66.0625,638 67.25,638 Q67.9688,638 68.5938,638.25 Q69.2188,638.5 69.75,639 Z " fill="#000000"/><text fill="#000000" font-family="sans-serif" font-size="14" lengthAdjust="spacing" textLength="129" x="88.25" y="648.2285">AuthorizationService</text><line style="stroke:#181818;stroke-width:0.5;" x1="8" x2="265" y1="658.5" y2="658.5"/><line style="stroke:#181818;stroke-width:0.5;" x1="8" x2="265" y1="666.5" y2="666.5"/><ellipse cx="18" cy="680.8047" fill="#84BE84" rx="3" ry="3" style="stroke:#038048;stroke-width:1.0;"/><text fill="#000000" font-family="sans-serif" font-size="14" lengthAdjust="spacing" textLength="233" x="27" y="685.0332">ensureAuthenticatedUserHasAnyOf()</text></g><!--MD5=[4066b0363c5a91ff3b6e03e0428953a9]
class Course--><g id="elem_Course"><rect codeLine="25" fill="#F1F1F1" height="136.0469" id="Course" rx="2.5" ry="2.5" style="stroke:#181818;stroke-width:0.5;" width="95" x="920" y="395"/><ellipse cx="942.65" cy="411" fill="#ADD1B2" rx="11" ry="11" style="stroke:#181818;stroke-width:1.0;"/><path d="M944.65,407.5 Q944.8531,407 945.0875,406.75 Q945.3219,406.5 945.5875,406.5 Q946.0563,406.5 946.3531,406.7813 Q946.65,407.0625 946.65,407.7188 L946.65,409.2813 Q946.65,409.9375 946.3688,410.2188 Q946.0875,410.5 945.65,410.5 Q945.2594,410.5 945.0094,410.3281 Q944.7594,410.1563 944.65,409.7031 Q944.6031,409.3906 944.4313,409.2188 Q944.1188,408.8906 943.5563,408.7031 Q942.9938,408.5 942.4313,408.5 Q941.7281,408.5 941.1344,408.7813 Q940.5563,409.0625 940.1031,409.6875 Q939.65,410.3125 939.65,411.1719 L939.65,412.0938 Q939.65,413.125 940.4938,413.8125 Q941.3375,414.5 942.8375,414.5 Q943.7281,414.5 944.3531,414.2969 Q944.7125,414.1875 945.1188,413.8281 Q945.3844,413.625 945.525,413.5625 Q945.6656,413.5 945.8375,413.5 Q946.1656,413.5 946.4,413.7656 Q946.65,414.0156 946.65,414.375 Q946.65,414.7188 946.3063,415.125 Q945.8063,415.7188 945.0094,416.0469 Q943.9625,416.5 942.6813,416.5 Q941.1813,416.5 939.9781,415.9063 Q939.0094,415.4375 938.3219,414.4219 Q937.65,413.4063 937.65,412.2031 L937.65,411.1094 Q937.65,409.8594 938.2438,408.7656 Q938.8531,407.6719 939.9,407.0938 Q940.9625,406.5 942.15,406.5 Q942.8688,406.5 943.4938,406.75 Q944.1188,407 944.65,407.5 Z " fill="#000000"/><text fill="#000000" font-family="sans-serif" font-size="14" lengthAdjust="spacing" textLength="46" x="958.35" y="416.7285">Course</text><line style="stroke:#181818;stroke-width:0.5;" x1="921" x2="1014" y1="427" y2="427"/><rect fill="none" height="6" style="stroke:#C82930;stroke-width:1.0;" width="6" x="928" y="438.3047"/><text fill="#000000" font-family="sans-serif" font-size="14" lengthAdjust="spacing" textLength="31" x="940" y="445.5332">code</text><rect fill="none" height="6" style="stroke:#C82930;stroke-width:1.0;" width="6" x="928" y="455.9141"/><text fill="#000000" font-family="sans-serif" font-size="14" lengthAdjust="spacing" textLength="22" x="940" y="463.1426">title</text><rect fill="none" height="6" style="stroke:#C82930;stroke-width:1.0;" width="6" x="928" y="473.5234"/><text fill="#000000" font-family="sans-serif" font-size="14" lengthAdjust="spacing" textLength="69" x="940" y="480.752">description</text><rect fill="none" height="6" style="stroke:#C82930;stroke-width:1.0;" width="6" x="928" y="491.1328"/><text fill="#000000" font-family="sans-serif" font-size="14" lengthAdjust="spacing" textLength="41" x="940" y="498.3613">regent</text><line style="stroke:#181818;stroke-width:0.5;" x1="921" x2="1014" y1="505.4375" y2="505.4375"/><ellipse cx="931" cy="519.7422" fill="#84BE84" rx="3" ry="3" style="stroke:#038048;stroke-width:1.0;"/><text fill="#000000" font-family="sans-serif" font-size="14" lengthAdjust="spacing" textLength="50" x="940" y="523.9707">create()</text></g><!--MD5=[e357f1fd68df466d60efd00f0c47fbc0]
class CourseRepository--><g id="elem_CourseRepository"><rect codeLine="33" fill="#F1F1F1" height="83.2188" id="CourseRepository" rx="2.5" ry="2.5" style="stroke:#181818;stroke-width:0.5;" width="146" x="786.5" y="618"/><ellipse cx="801.5" cy="634" fill="#ADD1B2" rx="11" ry="11" style="stroke:#181818;stroke-width:1.0;"/><path d="M803.5,630.5 Q803.7031,630 803.9375,629.75 Q804.1719,629.5 804.4375,629.5 Q804.9063,629.5 805.2031,629.7813 Q805.5,630.0625 805.5,630.7188 L805.5,632.2813 Q805.5,632.9375 805.2188,633.2188 Q804.9375,633.5 804.5,633.5 Q804.1094,633.5 803.8594,633.3281 Q803.6094,633.1563 803.5,632.7031 Q803.4531,632.3906 803.2813,632.2188 Q802.9688,631.8906 802.4063,631.7031 Q801.8438,631.5 801.2813,631.5 Q800.5781,631.5 799.9844,631.7813 Q799.4063,632.0625 798.9531,632.6875 Q798.5,633.3125 798.5,634.1719 L798.5,635.0938 Q798.5,636.125 799.3438,636.8125 Q800.1875,637.5 801.6875,637.5 Q802.5781,637.5 803.2031,637.2969 Q803.5625,637.1875 803.9688,636.8281 Q804.2344,636.625 804.375,636.5625 Q804.5156,636.5 804.6875,636.5 Q805.0156,636.5 805.25,636.7656 Q805.5,637.0156 805.5,637.375 Q805.5,637.7188 805.1563,638.125 Q804.6563,638.7188 803.8594,639.0469 Q802.8125,639.5 801.5313,639.5 Q800.0313,639.5 798.8281,638.9063 Q797.8594,638.4375 797.1719,637.4219 Q796.5,636.4063 796.5,635.2031 L796.5,634.1094 Q796.5,632.8594 797.0938,631.7656 Q797.7031,630.6719 798.75,630.0938 Q799.8125,629.5 801,629.5 Q801.7188,629.5 802.3438,629.75 Q802.9688,630 803.5,630.5 Z " fill="#000000"/><text fill="#000000" font-family="sans-serif" font-size="14" lengthAdjust="spacing" textLength="114" x="815.5" y="639.7285">CourseRepository</text><line style="stroke:#181818;stroke-width:0.5;" x1="787.5" x2="931.5" y1="650" y2="650"/><line style="stroke:#181818;stroke-width:0.5;" x1="787.5" x2="931.5" y1="658" y2="658"/><ellipse cx="797.5" cy="672.3047" fill="#84BE84" rx="3" ry="3" style="stroke:#038048;stroke-width:1.0;"/><text fill="#000000" font-family="sans-serif" font-size="14" lengthAdjust="spacing" textLength="84" x="806.5" y="676.5332">repositories()</text><ellipse cx="797.5" cy="689.9141" fill="#84BE84" rx="3" ry="3" style="stroke:#038048;stroke-width:1.0;"/><text fill="#000000" font-family="sans-serif" font-size="14" lengthAdjust="spacing" textLength="83" x="806.5" y="694.1426">save(course)</text></g><!--MD5=[713d3355b50d800759ae0fcd65e0b94d]
class TeacherRepository--><g id="elem_TeacherRepository"><rect codeLine="38" fill="#F1F1F1" height="100.8281" id="TeacherRepository" rx="2.5" ry="2.5" style="stroke:#181818;stroke-width:0.5;" width="237" x="347" y="609"/><ellipse cx="400.75" cy="625" fill="#ADD1B2" rx="11" ry="11" style="stroke:#181818;stroke-width:1.0;"/><path d="M402.75,621.5 Q402.9531,621 403.1875,620.75 Q403.4219,620.5 403.6875,620.5 Q404.1563,620.5 404.4531,620.7813 Q404.75,621.0625 404.75,621.7188 L404.75,623.2813 Q404.75,623.9375 404.4688,624.2188 Q404.1875,624.5 403.75,624.5 Q403.3594,624.5 403.1094,624.3281 Q402.8594,624.1563 402.75,623.7031 Q402.7031,623.3906 402.5313,623.2188 Q402.2188,622.8906 401.6563,622.7031 Q401.0938,622.5 400.5313,622.5 Q399.8281,622.5 399.2344,622.7813 Q398.6563,623.0625 398.2031,623.6875 Q397.75,624.3125 397.75,625.1719 L397.75,626.0938 Q397.75,627.125 398.5938,627.8125 Q399.4375,628.5 400.9375,628.5 Q401.8281,628.5 402.4531,628.2969 Q402.8125,628.1875 403.2188,627.8281 Q403.4844,627.625 403.625,627.5625 Q403.7656,627.5 403.9375,627.5 Q404.2656,627.5 404.5,627.7656 Q404.75,628.0156 404.75,628.375 Q404.75,628.7188 404.4063,629.125 Q403.9063,629.7188 403.1094,630.0469 Q402.0625,630.5 400.7813,630.5 Q399.2813,630.5 398.0781,629.9063 Q397.1094,629.4375 396.4219,628.4219 Q395.75,627.4063 395.75,626.2031 L395.75,625.1094 Q395.75,623.8594 396.3438,622.7656 Q396.9531,621.6719 398,621.0938 Q399.0625,620.5 400.25,620.5 Q400.9688,620.5 401.5938,620.75 Q402.2188,621 402.75,621.5 Z " fill="#000000"/><text fill="#000000" font-family="sans-serif" font-size="14" lengthAdjust="spacing" textLength="121" x="421.25" y="630.7285">TeacherRepository</text><line style="stroke:#181818;stroke-width:0.5;" x1="348" x2="583" y1="641" y2="641"/><line style="stroke:#181818;stroke-width:0.5;" x1="348" x2="583" y1="649" y2="649"/><ellipse cx="358" cy="663.3047" fill="#84BE84" rx="3" ry="3" style="stroke:#038048;stroke-width:1.0;"/><text fill="#000000" font-family="sans-serif" font-size="14" lengthAdjust="spacing" textLength="84" x="367" y="667.5332">repositories()</text><ellipse cx="358" cy="680.9141" fill="#84BE84" rx="3" ry="3" style="stroke:#038048;stroke-width:1.0;"/><text fill="#000000" font-family="sans-serif" font-size="14" lengthAdjust="spacing" textLength="48" x="367" y="685.1426">findAll()</text><ellipse cx="358" cy="698.5234" fill="#84BE84" rx="3" ry="3" style="stroke:#038048;stroke-width:1.0;"/><text fill="#000000" font-family="sans-serif" font-size="14" lengthAdjust="spacing" textLength="211" x="367" y="702.752">findTeacherByAcronym(acronym)</text></g><!--MD5=[ec650e510bac774e1b73d8d408df09fa]
link AddCourseUI to ListTeacherService--><g id="link_AddCourseUI_ListTeacherService"><path codeLine="44" d="M342.9,81.25 C298.86,93.17 250.25,115.01 223.5,155 C196.02,196.08 204.46,255.51 214.4,293.7 " fill="none" id="AddCourseUI-to-ListTeacherService" style="stroke:#181818;stroke-width:1.0;stroke-dasharray:7.0,7.0;"/><polygon fill="#181818" points="215.75,298.71,217.2996,288.9838,214.4635,293.8784,209.5689,291.0423,215.75,298.71" style="stroke:#181818;stroke-width:1.0;"/><text fill="#000000" font-family="sans-serif" font-size="13" lengthAdjust="spacing" textLength="30" x="224.5" y="169.4951">Uses</text></g><!--MD5=[19f89de88d36bc559b1efc709977227b]
link ListTeacherService to AddCourseUI--><g id="link_ListTeacherService_AddCourseUI"><path codeLine="53" d="M232.63,298.95 C241.23,261.07 259.95,197.79 295.5,155 C307.55,140.49 322.64,127.66 338.43,116.59 " fill="none" id="ListTeacherService-to-AddCourseUI" style="stroke:#181818;stroke-width:1.0;"/><polygon fill="#181818" points="342.9,113.51,333.2175,115.3126,338.7798,116.3426,337.7497,121.9049,342.9,113.51" style="stroke:#181818;stroke-width:1.0;"/><text fill="#000000" font-family="sans-serif" font-size="13" lengthAdjust="spacing" textLength="113" x="296.5" y="169.4951">Returns teacher list</text></g><!--MD5=[8244ced6e128c587a12afcd1c690cdfb]
link AddCourseUI to CreateCourseController--><g id="link_AddCourseUI_CreateCourseController"><path codeLine="45" d="M530.03,93.65 C566.64,107.51 607.07,127.46 637.5,155 C650.56,166.82 660.74,183.35 668.08,198.32 " fill="none" id="AddCourseUI-to-CreateCourseController" style="stroke:#181818;stroke-width:1.0;stroke-dasharray:7.0,7.0;"/><polygon fill="#181818" points="670.27,202.91,670.0241,193.0642,668.1259,198.3931,662.797,196.4948,670.27,202.91" style="stroke:#181818;stroke-width:1.0;"/><text fill="#000000" font-family="sans-serif" font-size="13" lengthAdjust="spacing" textLength="30" x="652.5" y="169.4951">Uses</text></g><!--MD5=[544603c6f08e3d4df3cb269368436ffb]
link CreateCourseController to AddCourseUI--><g id="link_CreateCourseController_AddCourseUI"><path codeLine="50" d="M590.93,212.78 C563.95,203.4 535.52,190.47 512.5,173 C497,161.24 483.35,145.43 472.04,129.62 " fill="none" id="CreateCourseController-to-AddCourseUI" style="stroke:#181818;stroke-width:1.0;"/><polygon fill="#181818" points="468.92,125.16,470.8065,134.8265,471.7883,129.2555,477.3593,130.2373,468.92,125.16" style="stroke:#181818;stroke-width:1.0;"/><text fill="#000000" font-family="sans-serif" font-size="13" lengthAdjust="spacing" textLength="115" x="513.5" y="169.4951">Returns new course</text></g><!--MD5=[8dc1a01796cca702ff67465c0ec43a56]
link AddCourseUI to FindTeacherByAcronymService--><g id="link_AddCourseUI_FindTeacherByAcronymService"><path codeLine="46" d="M438.28,125.05 C441.09,185.58 448.25,282.9 466.5,365 C471,385.22 478.4,407.05 485.16,424.87 " fill="none" id="AddCourseUI-to-FindTeacherByAcronymService" style="stroke:#181818;stroke-width:1.0;stroke-dasharray:7.0,7.0;"/><polygon fill="#181818" points="487.05,429.78,487.5727,419.945,485.2647,425.1096,480.1001,422.8015,487.05,429.78" style="stroke:#181818;stroke-width:1.0;"/><text fill="#000000" font-family="sans-serif" font-size="13" lengthAdjust="spacing" textLength="30" x="450.5" y="241.4951">Uses</text></g><!--MD5=[fdd7abc28e043f40d57c08bb9837eccc]
link CreateCourseController to FindTeacherByAcronymService--><g id="link_CreateCourseController_FindTeacherByAcronymService"><path codeLine="47" d="M590.98,243.8 C553.88,251.6 514.46,267.41 491.5,299 C465.14,335.27 474.8,388.97 486.03,424.7 " fill="none" id="CreateCourseController-to-FindTeacherByAcronymService" style="stroke:#181818;stroke-width:1.0;"/><polygon fill="#181818" points="487.69,429.84,488.7183,420.045,486.1475,425.0839,481.1086,422.513,487.69,429.84" style="stroke:#181818;stroke-width:1.0;"/><text fill="#000000" font-family="sans-serif" font-size="13" lengthAdjust="spacing" textLength="151" x="492.5" y="337.4951">Finds teacher by acronym</text></g><!--MD5=[aaa41fc912c29e64b2200a704f020dfc]
link FindTeacherByAcronymService to CreateCourseController--><g id="link_FindTeacherByAcronymService_CreateCourseController"><path codeLine="56" d="M571.09,429.86 C598.89,413.97 628.81,392.28 648.5,365 C667.75,338.32 676.11,301.47 679.73,274.16 " fill="none" id="FindTeacherByAcronymService-to-CreateCourseController" style="stroke:#181818;stroke-width:1.0;"/><polygon fill="#181818" points="680.35,269.18,675.2527,277.6072,679.7228,274.1405,683.1895,278.6107,680.35,269.18" style="stroke:#181818;stroke-width:1.0;"/><text fill="#000000" font-family="sans-serif" font-size="13" lengthAdjust="spacing" textLength="92" x="675.5" y="337.4951">Returns teacher</text></g><!--MD5=[f337bd8f9b34b2852a32a6f4d2a6647a]
link CreateCourseController to Course--><g id="link_CreateCourseController_Course"><path codeLine="48" d="M774.21,267.41 C793.74,276.03 813.56,286.54 830.5,299 C864.55,324.05 895.52,359.25 919.37,390.53 " fill="none" id="CreateCourseController-to-Course" style="stroke:#181818;stroke-width:1.0;"/><polygon fill="#181818" points="922.54,394.72,920.3181,385.125,919.5309,390.7269,913.9291,389.9396,922.54,394.72" style="stroke:#181818;stroke-width:1.0;"/><text fill="#000000" font-family="sans-serif" font-size="13" lengthAdjust="spacing" textLength="88" x="897.5" y="337.4951">Creates course</text></g><!--MD5=[4b9f05a94914b37aca59e6da977abcc1]
link CreateCourseController to CourseRepository--><g id="link_CreateCourseController_CourseRepository"><path codeLine="49" d="M746.69,269.29 C758.08,277.58 768.76,287.48 776.5,299 C835.13,386.25 797.61,428.87 822.5,531 C829.18,558.39 837.92,588.71 845.23,612.91 " fill="none" id="CreateCourseController-to-CourseRepository" style="stroke:#181818;stroke-width:1.0;"/><polygon fill="#181818" points="846.76,617.97,847.9651,608.1951,845.3036,613.1868,840.312,610.5253,846.76,617.97" style="stroke:#181818;stroke-width:1.0;"/><text fill="#000000" font-family="sans-serif" font-size="13" lengthAdjust="spacing" textLength="78" x="823.5" y="468.4951">Saves course</text></g><!--MD5=[14acc795d0a551ceb2f2ecee27d14bd9]
link ListTeacherService to AuthorizationService--><g id="link_ListTeacherService_AuthorizationService"><path codeLine="51" d="M175.62,365.2 C166.03,373.69 157.22,383.69 151.5,395 C114.42,468.27 121.91,568.1 129.73,621.38 " fill="none" id="ListTeacherService-to-AuthorizationService" style="stroke:#181818;stroke-width:1.0;stroke-dasharray:7.0,7.0;"/><polygon fill="#181818" points="130.49,626.39,133.108,616.8955,129.7469,621.4455,125.1968,618.0844,130.49,626.39" style="stroke:#181818;stroke-width:1.0;"/><text fill="#000000" font-family="sans-serif" font-size="13" lengthAdjust="spacing" textLength="30" x="152.5" y="468.4951">Uses</text></g><!--MD5=[789ad205fb04aaffefa6ea8a861f945e]
link ListTeacherService to TeacherRepository--><g id="link_ListTeacherService_TeacherRepository"><path codeLine="52" d="M221.89,365.31 C216.23,419.37 214.13,527.3 277.5,579 C296.68,594.65 319.39,607.67 342.27,618.34 " fill="none" id="ListTeacherService-to-TeacherRepository" style="stroke:#181818;stroke-width:1.0;"/><polygon fill="#181818" points="346.85,620.45,340.3398,613.0596,342.306,618.3638,337.0019,620.33,346.85,620.45" style="stroke:#181818;stroke-width:1.0;"/><text fill="#000000" font-family="sans-serif" font-size="13" lengthAdjust="spacing" textLength="121" x="241.5" y="468.4951">Retrieves teacher list</text></g><!--MD5=[ad3034a2adffa1a05c3fb737fcdfbc20]
link FindTeacherByAcronymService to AuthorizationService--><g id="link_FindTeacherByAcronymService_AuthorizationService"><path codeLine="54" d="M440.39,496.12 C374.43,531.36 268.94,587.73 201.2,623.93 " fill="none" id="FindTeacherByAcronymService-to-AuthorizationService" style="stroke:#181818;stroke-width:1.0;stroke-dasharray:7.0,7.0;"/><polygon fill="#181818" points="196.39,626.5,206.2122,625.7759,200.7974,624.1389,202.4344,618.7241,196.39,626.5" style="stroke:#181818;stroke-width:1.0;"/><text fill="#000000" font-family="sans-serif" font-size="13" lengthAdjust="spacing" textLength="30" x="319.5" y="575.4951">Uses</text></g><!--MD5=[02e882a821dee7aab5b7a09accaa5e2c]
link FindTeacherByAcronymService to TeacherRepository--><g id="link_FindTeacherByAcronymService_TeacherRepository"><path codeLine="55" d="M494.72,496.12 C489.46,525.32 481.6,569.04 475.35,603.75 " fill="none" id="FindTeacherByAcronymService-to-TeacherRepository" style="stroke:#181818;stroke-width:1.0;"/><polygon fill="#181818" points="474.44,608.81,479.9729,600.6622,475.3269,603.8893,472.0998,599.2432,474.44,608.81" style="stroke:#181818;stroke-width:1.0;"/><text fill="#000000" font-family="sans-serif" font-size="13" lengthAdjust="spacing" textLength="172" x="483.5" y="575.4951">Retrieves teacher by acronym</text></g><!--MD5=[d06ca1fa7b63d592dad1600aacebcdbe]
link Course to CourseRepository--><g id="link_Course_CourseRepository"><path codeLine="57" d="M930.18,531.21 C915.09,558.39 898.06,589.05 884.5,613.47 " fill="none" id="Course-to-CourseRepository" style="stroke:#181818;stroke-width:1.0;"/><polygon fill="#181818" points="882.01,617.95,889.8774,612.0252,884.4382,613.5792,882.8842,608.14,882.01,617.95" style="stroke:#181818;stroke-width:1.0;"/><text fill="#000000" font-family="sans-serif" font-size="13" lengthAdjust="spacing" textLength="91" x="914.5" y="575.4951">Persists course</text></g><!--MD5=[ac1fb08e7e748450562a3862ed7dd975]
@startuml

class AddCourseUI {
  +requestInputData()
  +showTeacherList()
  +selectTeacher()
  +presentOperationResult()
}

class ListTeacherService {
  +listTeachers()
}

class CreateCourseController {
  +createCourse()
}

class FindTeacherByAcronymService {
  +findTeacherByAcronym()
}

class AuthorizationService {
  +ensureAuthenticatedUserHasAnyOf()
}

class Course {
  -code
  -title
  -description
  -regent
  +create()
}

class CourseRepository {
  +repositories()
  +save(course)
}

class TeacherRepository {
  +repositories()
  +findAll()
  +findTeacherByAcronym(acronym)
}

AddCourseUI ..> ListTeacherService : Uses
AddCourseUI ..> CreateCourseController : Uses
AddCourseUI ..> FindTeacherByAcronymService : Uses
CreateCourseController - -> FindTeacherByAcronymService : Finds teacher by acronym
CreateCourseController - -> Course : Creates course
CreateCourseController - -> CourseRepository : Saves course
CreateCourseController - -> AddCourseUI : Returns new course
ListTeacherService ..> AuthorizationService : Uses
ListTeacherService - -> TeacherRepository : Retrieves teacher list
ListTeacherService - -> AddCourseUI : Returns teacher list
FindTeacherByAcronymService ..> AuthorizationService : Uses
FindTeacherByAcronymService - -> TeacherRepository : Retrieves teacher by acronym
FindTeacherByAcronymService - -> CreateCourseController : Returns teacher
Course - -> CourseRepository : Persists course

@enduml

PlantUML version 1.2022.12(Sun Oct 23 19:12:26 BST 2022)
(GPL source distribution)
Java Runtime: OpenJDK Runtime Environment
JVM: OpenJDK 64-Bit Server VM
Default Encoding: Cp1252
Language: en
Country: US
--></g></svg>