<?xml version="1.0" encoding="UTF-8" standalone="no"?><svg xmlns="http://www.w3.org/2000/svg" xmlns:xlink="http://www.w3.org/1999/xlink" contentStyleType="text/css" height="1223px" preserveAspectRatio="none" style="width:610px;height:1223px;background:#282828;" version="1.1" viewBox="0 0 610 1223" width="610px" zoomAndPan="magnify"><defs/><g><!--MD5=[35923cb12c05676ebce80b9ded9f376d]
cluster <<agr Teacher>>--><g id="cluster_&lt;&lt;agr Teacher&gt;&gt;"><path d="M13.5,12.1191 L239.5,12.1191 A3.75,3.75 0 0 1 242,14.6191 L249,44.8564 L600.5,44.8564 A2.5,2.5 0 0 1 603,47.3564 L603,496.6191 A2.5,2.5 0 0 1 600.5,499.1191 L13.5,499.1191 A2.5,2.5 0 0 1 11,496.6191 L11,14.6191 A2.5,2.5 0 0 1 13.5,12.1191 " fill="#282828" style="stroke:#33FF33;stroke-width:1.0;"/><line style="stroke:#33FF33;stroke-width:1.0;" x1="11" x2="249" y1="44.8564" y2="44.8564"/><text fill="#33FF33" font-family="Verdana" font-size="22" font-weight="bold" lengthAdjust="spacing" textLength="225" x="15" y="36.2373">&lt;&lt;agr Teacher&gt;&gt;</text></g><!--MD5=[df5f7f76be0a19fa1db0f289a7d91cae]
cluster <<agr Course>>--><g id="cluster_&lt;&lt;agr Course&gt;&gt;"><path d="M31,523.1191 L243,523.1191 A3.75,3.75 0 0 1 245.5,525.6191 L252.5,555.8564 L390.5,555.8564 A2.5,2.5 0 0 1 393,558.3564 L393,1213.6191 A2.5,2.5 0 0 1 390.5,1216.1191 L31,1216.1191 A2.5,2.5 0 0 1 28.5,1213.6191 L28.5,525.6191 A2.5,2.5 0 0 1 31,523.1191 " fill="#282828" style="stroke:#33FF33;stroke-width:1.0;"/><line style="stroke:#33FF33;stroke-width:1.0;" x1="28.5" x2="252.5" y1="555.8564" y2="555.8564"/><text fill="#33FF33" font-family="Verdana" font-size="22" font-weight="bold" lengthAdjust="spacing" textLength="211" x="32.5" y="547.2373">&lt;&lt;agr Course&gt;&gt;</text></g><!--MD5=[61a83f88cb8b7d3a80bc8c481f3736bf]
class Teacher--><g id="elem_Teacher"><rect codeLine="9" fill="#282828" height="56.1826" id="Teacher" rx="2.5" ry="2.5" style="stroke:#33FF33;stroke-width:1.0;" width="83" x="282" y="302.1191"/><ellipse cx="295" cy="330.2104" fill="#282828" rx="9" ry="9" style="stroke:#33FF33;stroke-width:1.0;"/><path d="M297,326.7104 Q297.2031,326.2104 297.4375,325.9604 Q297.6719,325.7104 297.9375,325.7104 Q298.4063,325.7104 298.7031,325.9917 Q299,326.2729 299,326.9292 L299,328.4917 Q299,329.1479 298.7188,329.4292 Q298.4375,329.7104 298,329.7104 Q297.6094,329.7104 297.3594,329.5386 Q297.1094,329.3667 297,328.9136 Q296.9531,328.6011 296.7813,328.4292 Q296.4688,328.1011 295.9063,327.9136 Q295.3438,327.7104 294.7813,327.7104 Q294.0781,327.7104 293.4844,327.9917 Q292.9063,328.2729 292.4531,328.8979 Q292,329.5229 292,330.3823 L292,331.3042 Q292,332.3354 292.8438,333.0229 Q293.6875,333.7104 295.1875,333.7104 Q296.0781,333.7104 296.7031,333.5073 Q297.0625,333.3979 297.4688,333.0386 Q297.7344,332.8354 297.875,332.7729 Q298.0156,332.7104 298.1875,332.7104 Q298.5156,332.7104 298.75,332.9761 Q299,333.2261 299,333.5854 Q299,333.9292 298.6563,334.3354 Q298.1563,334.9292 297.3594,335.2573 Q296.3125,335.7104 295.0313,335.7104 Q293.5313,335.7104 292.3281,335.1167 Q291.3594,334.6479 290.6719,333.6323 Q290,332.6167 290,331.4136 L290,330.3198 Q290,329.0698 290.5938,327.9761 Q291.2031,326.8823 292.25,326.3042 Q293.3125,325.7104 294.5,325.7104 Q295.2188,325.7104 295.8438,325.9604 Q296.4688,326.2104 297,326.7104 Z " fill="#33FF33"/><text fill="#33FF33" font-family="Verdana" font-size="12" font-style="italic" lengthAdjust="spacing" textLength="51" x="309" y="319.1836">«entity»</text><text fill="#33FF33" font-family="Verdana" font-size="12" font-style="italic" lengthAdjust="spacing" textLength="40" x="314.5" y="333.7676">«root»</text><text fill="#33FF33" font-family="Verdana" font-size="14" lengthAdjust="spacing" textLength="55" x="307" y="350.3623">Teacher</text></g><!--MD5=[739264bb8c13fd453fd6fc4eef2b32cc]
class Acronym--><g id="elem_Acronym"><rect codeLine="10" fill="#282828" height="41.5986" id="Acronym" rx="2.5" ry="2.5" style="stroke:#33FF33;stroke-width:1.0;" width="90" x="468.5" y="441.1191"/><ellipse cx="481.5" cy="461.9185" fill="#282828" rx="9" ry="9" style="stroke:#33FF33;stroke-width:1.0;"/><path d="M483.5,458.4185 Q483.7031,457.9185 483.9375,457.6685 Q484.1719,457.4185 484.4375,457.4185 Q484.9063,457.4185 485.2031,457.6997 Q485.5,457.981 485.5,458.6372 L485.5,460.1997 Q485.5,460.856 485.2188,461.1372 Q484.9375,461.4185 484.5,461.4185 Q484.1094,461.4185 483.8594,461.2466 Q483.6094,461.0747 483.5,460.6216 Q483.4531,460.3091 483.2813,460.1372 Q482.9688,459.8091 482.4063,459.6216 Q481.8438,459.4185 481.2813,459.4185 Q480.5781,459.4185 479.9844,459.6997 Q479.4063,459.981 478.9531,460.606 Q478.5,461.231 478.5,462.0903 L478.5,463.0122 Q478.5,464.0435 479.3438,464.731 Q480.1875,465.4185 481.6875,465.4185 Q482.5781,465.4185 483.2031,465.2153 Q483.5625,465.106 483.9688,464.7466 Q484.2344,464.5435 484.375,464.481 Q484.5156,464.4185 484.6875,464.4185 Q485.0156,464.4185 485.25,464.6841 Q485.5,464.9341 485.5,465.2935 Q485.5,465.6372 485.1563,466.0435 Q484.6563,466.6372 483.8594,466.9653 Q482.8125,467.4185 481.5313,467.4185 Q480.0313,467.4185 478.8281,466.8247 Q477.8594,466.356 477.1719,465.3403 Q476.5,464.3247 476.5,463.1216 L476.5,462.0278 Q476.5,460.7778 477.0938,459.6841 Q477.7031,458.5903 478.75,458.0122 Q479.8125,457.4185 481,457.4185 Q481.7188,457.4185 482.3438,457.6685 Q482.9688,457.9185 483.5,458.4185 Z " fill="#33FF33"/><text fill="#33FF33" font-family="Verdana" font-size="12" font-style="italic" lengthAdjust="spacing" textLength="30" x="509.5" y="458.1836">«vo»</text><text fill="#33FF33" font-family="Verdana" font-size="14" lengthAdjust="spacing" textLength="62" x="493.5" y="474.7783">Acronym</text></g><!--MD5=[d92d9e883939eee4186895798e1fdba2]
class TaxPayerNumber--><g id="elem_TaxPayerNumber"><rect codeLine="11" fill="#282828" height="41.5986" id="TaxPayerNumber" rx="2.5" ry="2.5" style="stroke:#33FF33;stroke-width:1.0;" width="147" x="440" y="249.1191"/><ellipse cx="453" cy="269.9185" fill="#282828" rx="9" ry="9" style="stroke:#33FF33;stroke-width:1.0;"/><path d="M455,266.4185 Q455.2031,265.9185 455.4375,265.6685 Q455.6719,265.4185 455.9375,265.4185 Q456.4063,265.4185 456.7031,265.6997 Q457,265.981 457,266.6372 L457,268.1997 Q457,268.856 456.7188,269.1372 Q456.4375,269.4185 456,269.4185 Q455.6094,269.4185 455.3594,269.2466 Q455.1094,269.0747 455,268.6216 Q454.9531,268.3091 454.7813,268.1372 Q454.4688,267.8091 453.9063,267.6216 Q453.3438,267.4185 452.7813,267.4185 Q452.0781,267.4185 451.4844,267.6997 Q450.9063,267.981 450.4531,268.606 Q450,269.231 450,270.0903 L450,271.0122 Q450,272.0435 450.8438,272.731 Q451.6875,273.4185 453.1875,273.4185 Q454.0781,273.4185 454.7031,273.2153 Q455.0625,273.106 455.4688,272.7466 Q455.7344,272.5435 455.875,272.481 Q456.0156,272.4185 456.1875,272.4185 Q456.5156,272.4185 456.75,272.6841 Q457,272.9341 457,273.2935 Q457,273.6372 456.6563,274.0435 Q456.1563,274.6372 455.3594,274.9653 Q454.3125,275.4185 453.0313,275.4185 Q451.5313,275.4185 450.3281,274.8247 Q449.3594,274.356 448.6719,273.3403 Q448,272.3247 448,271.1216 L448,270.0278 Q448,268.7778 448.5938,267.6841 Q449.2031,266.5903 450.25,266.0122 Q451.3125,265.4185 452.5,265.4185 Q453.2188,265.4185 453.8438,265.6685 Q454.4688,265.9185 455,266.4185 Z " fill="#33FF33"/><text fill="#33FF33" font-family="Verdana" font-size="12" font-style="italic" lengthAdjust="spacing" textLength="30" x="509.5" y="266.1836">«vo»</text><text fill="#33FF33" font-family="Verdana" font-size="14" lengthAdjust="spacing" textLength="119" x="465" y="282.7783">TaxPayerNumber</text></g><!--MD5=[3adb951617f02218a93676affdecd4f3]
class DateOfBirth--><g id="elem_DateOfBirth"><rect codeLine="12" fill="#282828" height="41.5986" id="DateOfBirth" rx="2.5" ry="2.5" style="stroke:#33FF33;stroke-width:1.0;" width="111" x="458" y="57.1191"/><ellipse cx="471" cy="77.9185" fill="#282828" rx="9" ry="9" style="stroke:#33FF33;stroke-width:1.0;"/><path d="M473,74.4185 Q473.2031,73.9185 473.4375,73.6685 Q473.6719,73.4185 473.9375,73.4185 Q474.4063,73.4185 474.7031,73.6997 Q475,73.981 475,74.6372 L475,76.1997 Q475,76.856 474.7188,77.1372 Q474.4375,77.4185 474,77.4185 Q473.6094,77.4185 473.3594,77.2466 Q473.1094,77.0747 473,76.6216 Q472.9531,76.3091 472.7813,76.1372 Q472.4688,75.8091 471.9063,75.6216 Q471.3438,75.4185 470.7813,75.4185 Q470.0781,75.4185 469.4844,75.6997 Q468.9063,75.981 468.4531,76.606 Q468,77.231 468,78.0903 L468,79.0122 Q468,80.0435 468.8438,80.731 Q469.6875,81.4185 471.1875,81.4185 Q472.0781,81.4185 472.7031,81.2153 Q473.0625,81.106 473.4688,80.7466 Q473.7344,80.5435 473.875,80.481 Q474.0156,80.4185 474.1875,80.4185 Q474.5156,80.4185 474.75,80.6841 Q475,80.9341 475,81.2935 Q475,81.6372 474.6563,82.0435 Q474.1563,82.6372 473.3594,82.9653 Q472.3125,83.4185 471.0313,83.4185 Q469.5313,83.4185 468.3281,82.8247 Q467.3594,82.356 466.6719,81.3403 Q466,80.3247 466,79.1216 L466,78.0278 Q466,76.7778 466.5938,75.6841 Q467.2031,74.5903 468.25,74.0122 Q469.3125,73.4185 470.5,73.4185 Q471.2188,73.4185 471.8438,73.6685 Q472.4688,73.9185 473,74.4185 Z " fill="#33FF33"/><text fill="#33FF33" font-family="Verdana" font-size="12" font-style="italic" lengthAdjust="spacing" textLength="30" x="509.5" y="74.1836">«vo»</text><text fill="#33FF33" font-family="Verdana" font-size="14" lengthAdjust="spacing" textLength="83" x="483" y="90.7783">DateOfBirth</text></g><!--MD5=[bc064d979c32666ae52f3d7624591b7b]
class SystemUser--><g id="elem_SystemUser"><rect fill="#282828" height="28" id="SystemUser" rx="2.5" ry="2.5" style="stroke:#33FF33;stroke-width:1.0;" width="113" x="27" y="316.1191"/><ellipse cx="40" cy="330.1191" fill="#282828" rx="9" ry="9" style="stroke:#33FF33;stroke-width:1.0;"/><path d="M42,326.6191 Q42.2031,326.1191 42.4375,325.8691 Q42.6719,325.6191 42.9375,325.6191 Q43.4063,325.6191 43.7031,325.9004 Q44,326.1816 44,326.8379 L44,328.4004 Q44,329.0566 43.7188,329.3379 Q43.4375,329.6191 43,329.6191 Q42.6094,329.6191 42.3594,329.4473 Q42.1094,329.2754 42,328.8223 Q41.9531,328.5098 41.7813,328.3379 Q41.4688,328.0098 40.9063,327.8223 Q40.3438,327.6191 39.7813,327.6191 Q39.0781,327.6191 38.4844,327.9004 Q37.9063,328.1816 37.4531,328.8066 Q37,329.4316 37,330.291 L37,331.2129 Q37,332.2441 37.8438,332.9316 Q38.6875,333.6191 40.1875,333.6191 Q41.0781,333.6191 41.7031,333.416 Q42.0625,333.3066 42.4688,332.9473 Q42.7344,332.7441 42.875,332.6816 Q43.0156,332.6191 43.1875,332.6191 Q43.5156,332.6191 43.75,332.8848 Q44,333.1348 44,333.4941 Q44,333.8379 43.6563,334.2441 Q43.1563,334.8379 42.3594,335.166 Q41.3125,335.6191 40.0313,335.6191 Q38.5313,335.6191 37.3281,335.0254 Q36.3594,334.5566 35.6719,333.541 Q35,332.5254 35,331.3223 L35,330.2285 Q35,328.9785 35.5938,327.8848 Q36.2031,326.791 37.25,326.2129 Q38.3125,325.6191 39.5,325.6191 Q40.2188,325.6191 40.8438,325.8691 Q41.4688,326.1191 42,326.6191 Z " fill="#33FF33"/><text fill="#33FF33" font-family="Verdana" font-size="14" lengthAdjust="spacing" textLength="85" x="52" y="335.687">SystemUser</text></g><!--MD5=[4066b0363c5a91ff3b6e03e0428953a9]
class Course--><g id="elem_Course"><rect codeLine="21" fill="#282828" height="56.1826" id="Course" rx="2.5" ry="2.5" style="stroke:#33FF33;stroke-width:1.0;" width="78" x="44.5" y="767.1191"/><ellipse cx="57.5" cy="795.2104" fill="#282828" rx="9" ry="9" style="stroke:#33FF33;stroke-width:1.0;"/><path d="M59.5,791.7104 Q59.7031,791.2104 59.9375,790.9604 Q60.1719,790.7104 60.4375,790.7104 Q60.9063,790.7104 61.2031,790.9917 Q61.5,791.2729 61.5,791.9292 L61.5,793.4917 Q61.5,794.1479 61.2188,794.4292 Q60.9375,794.7104 60.5,794.7104 Q60.1094,794.7104 59.8594,794.5386 Q59.6094,794.3667 59.5,793.9136 Q59.4531,793.6011 59.2813,793.4292 Q58.9688,793.1011 58.4063,792.9136 Q57.8438,792.7104 57.2813,792.7104 Q56.5781,792.7104 55.9844,792.9917 Q55.4063,793.2729 54.9531,793.8979 Q54.5,794.5229 54.5,795.3823 L54.5,796.3042 Q54.5,797.3354 55.3438,798.0229 Q56.1875,798.7104 57.6875,798.7104 Q58.5781,798.7104 59.2031,798.5073 Q59.5625,798.3979 59.9688,798.0386 Q60.2344,797.8354 60.375,797.7729 Q60.5156,797.7104 60.6875,797.7104 Q61.0156,797.7104 61.25,797.9761 Q61.5,798.2261 61.5,798.5854 Q61.5,798.9292 61.1563,799.3354 Q60.6563,799.9292 59.8594,800.2573 Q58.8125,800.7104 57.5313,800.7104 Q56.0313,800.7104 54.8281,800.1167 Q53.8594,799.6479 53.1719,798.6323 Q52.5,797.6167 52.5,796.4136 L52.5,795.3198 Q52.5,794.0698 53.0938,792.9761 Q53.7031,791.8823 54.75,791.3042 Q55.8125,790.7104 57,790.7104 Q57.7188,790.7104 58.3438,790.9604 Q58.9688,791.2104 59.5,791.7104 Z " fill="#33FF33"/><text fill="#33FF33" font-family="Verdana" font-size="12" font-style="italic" lengthAdjust="spacing" textLength="51" x="69" y="784.1836">«entity»</text><text fill="#33FF33" font-family="Verdana" font-size="12" font-style="italic" lengthAdjust="spacing" textLength="40" x="74.5" y="798.7676">«root»</text><text fill="#33FF33" font-family="Verdana" font-size="14" lengthAdjust="spacing" textLength="50" x="69.5" y="815.3623">Course</text></g><!--MD5=[ba580110b1777f63e0f1dfe3fcefdac0]
class Code--><g id="elem_Code"><rect codeLine="22" fill="#282828" height="41.5986" id="Code" rx="2.5" ry="2.5" style="stroke:#33FF33;stroke-width:1.0;" width="64" x="291.5" y="1158.1191"/><ellipse cx="304.5" cy="1178.9185" fill="#282828" rx="9" ry="9" style="stroke:#33FF33;stroke-width:1.0;"/><path d="M306.5,1175.4185 Q306.7031,1174.9185 306.9375,1174.6685 Q307.1719,1174.4185 307.4375,1174.4185 Q307.9063,1174.4185 308.2031,1174.6997 Q308.5,1174.981 308.5,1175.6372 L308.5,1177.1997 Q308.5,1177.856 308.2188,1178.1372 Q307.9375,1178.4185 307.5,1178.4185 Q307.1094,1178.4185 306.8594,1178.2466 Q306.6094,1178.0747 306.5,1177.6216 Q306.4531,1177.3091 306.2813,1177.1372 Q305.9688,1176.8091 305.4063,1176.6216 Q304.8438,1176.4185 304.2813,1176.4185 Q303.5781,1176.4185 302.9844,1176.6997 Q302.4063,1176.981 301.9531,1177.606 Q301.5,1178.231 301.5,1179.0903 L301.5,1180.0122 Q301.5,1181.0435 302.3438,1181.731 Q303.1875,1182.4185 304.6875,1182.4185 Q305.5781,1182.4185 306.2031,1182.2153 Q306.5625,1182.106 306.9688,1181.7466 Q307.2344,1181.5435 307.375,1181.481 Q307.5156,1181.4185 307.6875,1181.4185 Q308.0156,1181.4185 308.25,1181.6841 Q308.5,1181.9341 308.5,1182.2935 Q308.5,1182.6372 308.1563,1183.0435 Q307.6563,1183.6372 306.8594,1183.9653 Q305.8125,1184.4185 304.5313,1184.4185 Q303.0313,1184.4185 301.8281,1183.8247 Q300.8594,1183.356 300.1719,1182.3403 Q299.5,1181.3247 299.5,1180.1216 L299.5,1179.0278 Q299.5,1177.7778 300.0938,1176.6841 Q300.7031,1175.5903 301.75,1175.0122 Q302.8125,1174.4185 304,1174.4185 Q304.7188,1174.4185 305.3438,1174.6685 Q305.9688,1174.9185 306.5,1175.4185 Z " fill="#33FF33"/><text fill="#33FF33" font-family="Verdana" font-size="12" font-style="italic" lengthAdjust="spacing" textLength="30" x="319.5" y="1175.1836">«vo»</text><text fill="#33FF33" font-family="Verdana" font-size="14" lengthAdjust="spacing" textLength="36" x="316.5" y="1191.7783">Code</text></g><!--MD5=[009695af4e54f3bba8a9c60dca3e1c94]
class Description--><g id="elem_Description"><rect codeLine="23" fill="#282828" height="41.5986" id="Description" rx="2.5" ry="2.5" style="stroke:#33FF33;stroke-width:1.0;" width="107" x="270" y="966.1191"/><ellipse cx="283" cy="986.9185" fill="#282828" rx="9" ry="9" style="stroke:#33FF33;stroke-width:1.0;"/><path d="M285,983.4185 Q285.2031,982.9185 285.4375,982.6685 Q285.6719,982.4185 285.9375,982.4185 Q286.4063,982.4185 286.7031,982.6997 Q287,982.981 287,983.6372 L287,985.1997 Q287,985.856 286.7188,986.1372 Q286.4375,986.4185 286,986.4185 Q285.6094,986.4185 285.3594,986.2466 Q285.1094,986.0747 285,985.6216 Q284.9531,985.3091 284.7813,985.1372 Q284.4688,984.8091 283.9063,984.6216 Q283.3438,984.4185 282.7813,984.4185 Q282.0781,984.4185 281.4844,984.6997 Q280.9063,984.981 280.4531,985.606 Q280,986.231 280,987.0903 L280,988.0122 Q280,989.0435 280.8438,989.731 Q281.6875,990.4185 283.1875,990.4185 Q284.0781,990.4185 284.7031,990.2153 Q285.0625,990.106 285.4688,989.7466 Q285.7344,989.5435 285.875,989.481 Q286.0156,989.4185 286.1875,989.4185 Q286.5156,989.4185 286.75,989.6841 Q287,989.9341 287,990.2935 Q287,990.6372 286.6563,991.0435 Q286.1563,991.6372 285.3594,991.9653 Q284.3125,992.4185 283.0313,992.4185 Q281.5313,992.4185 280.3281,991.8247 Q279.3594,991.356 278.6719,990.3403 Q278,989.3247 278,988.1216 L278,987.0278 Q278,985.7778 278.5938,984.6841 Q279.2031,983.5903 280.25,983.0122 Q281.3125,982.4185 282.5,982.4185 Q283.2188,982.4185 283.8438,982.6685 Q284.4688,982.9185 285,983.4185 Z " fill="#33FF33"/><text fill="#33FF33" font-family="Verdana" font-size="12" font-style="italic" lengthAdjust="spacing" textLength="30" x="319.5" y="983.1836">«vo»</text><text fill="#33FF33" font-family="Verdana" font-size="14" lengthAdjust="spacing" textLength="79" x="295" y="999.7783">Description</text></g><!--MD5=[90111e5cdc788a7ef73a3273c23dcc2b]
class Title--><g id="elem_Title"><rect codeLine="24" fill="#282828" height="41.5986" id="Title" rx="2.5" ry="2.5" style="stroke:#33FF33;stroke-width:1.0;" width="57" x="295" y="774.1191"/><ellipse cx="308" cy="794.9185" fill="#282828" rx="9" ry="9" style="stroke:#33FF33;stroke-width:1.0;"/><path d="M310,791.4185 Q310.2031,790.9185 310.4375,790.6685 Q310.6719,790.4185 310.9375,790.4185 Q311.4063,790.4185 311.7031,790.6997 Q312,790.981 312,791.6372 L312,793.1997 Q312,793.856 311.7188,794.1372 Q311.4375,794.4185 311,794.4185 Q310.6094,794.4185 310.3594,794.2466 Q310.1094,794.0747 310,793.6216 Q309.9531,793.3091 309.7813,793.1372 Q309.4688,792.8091 308.9063,792.6216 Q308.3438,792.4185 307.7813,792.4185 Q307.0781,792.4185 306.4844,792.6997 Q305.9063,792.981 305.4531,793.606 Q305,794.231 305,795.0903 L305,796.0122 Q305,797.0435 305.8438,797.731 Q306.6875,798.4185 308.1875,798.4185 Q309.0781,798.4185 309.7031,798.2153 Q310.0625,798.106 310.4688,797.7466 Q310.7344,797.5435 310.875,797.481 Q311.0156,797.4185 311.1875,797.4185 Q311.5156,797.4185 311.75,797.6841 Q312,797.9341 312,798.2935 Q312,798.6372 311.6563,799.0435 Q311.1563,799.6372 310.3594,799.9653 Q309.3125,800.4185 308.0313,800.4185 Q306.5313,800.4185 305.3281,799.8247 Q304.3594,799.356 303.6719,798.3403 Q303,797.3247 303,796.1216 L303,795.0278 Q303,793.7778 303.5938,792.6841 Q304.2031,791.5903 305.25,791.0122 Q306.3125,790.4185 307.5,790.4185 Q308.2188,790.4185 308.8438,790.6685 Q309.4688,790.9185 310,791.4185 Z " fill="#33FF33"/><text fill="#33FF33" font-family="Verdana" font-size="12" font-style="italic" lengthAdjust="spacing" textLength="30" x="319.5" y="791.1836">«vo»</text><text fill="#33FF33" font-family="Verdana" font-size="14" lengthAdjust="spacing" textLength="29" x="320" y="807.7783">Title</text></g><!--MD5=[60d6b92408f98aed8df94d5c6e04aa63]
class State--><g id="elem_State"><rect codeLine="25" fill="#282828" height="56.1826" id="State" rx="2.5" ry="2.5" style="stroke:#33FF33;stroke-width:1.0;" width="75" x="286" y="568.1191"/><ellipse cx="299" cy="596.2104" fill="#282828" rx="9" ry="9" style="stroke:#33FF33;stroke-width:1.0;"/><path d="M301,592.7104 Q301.2031,592.2104 301.4375,591.9604 Q301.6719,591.7104 301.9375,591.7104 Q302.4063,591.7104 302.7031,591.9917 Q303,592.2729 303,592.9292 L303,594.4917 Q303,595.1479 302.7188,595.4292 Q302.4375,595.7104 302,595.7104 Q301.6094,595.7104 301.3594,595.5386 Q301.1094,595.3667 301,594.9136 Q300.9531,594.6011 300.7813,594.4292 Q300.4688,594.1011 299.9063,593.9136 Q299.3438,593.7104 298.7813,593.7104 Q298.0781,593.7104 297.4844,593.9917 Q296.9063,594.2729 296.4531,594.8979 Q296,595.5229 296,596.3823 L296,597.3042 Q296,598.3354 296.8438,599.0229 Q297.6875,599.7104 299.1875,599.7104 Q300.0781,599.7104 300.7031,599.5073 Q301.0625,599.3979 301.4688,599.0386 Q301.7344,598.8354 301.875,598.7729 Q302.0156,598.7104 302.1875,598.7104 Q302.5156,598.7104 302.75,598.9761 Q303,599.2261 303,599.5854 Q303,599.9292 302.6563,600.3354 Q302.1563,600.9292 301.3594,601.2573 Q300.3125,601.7104 299.0313,601.7104 Q297.5313,601.7104 296.3281,601.1167 Q295.3594,600.6479 294.6719,599.6323 Q294,598.6167 294,597.4136 L294,596.3198 Q294,595.0698 294.5938,593.9761 Q295.2031,592.8823 296.25,592.3042 Q297.3125,591.7104 298.5,591.7104 Q299.2188,591.7104 299.8438,591.9604 Q300.4688,592.2104 301,592.7104 Z " fill="#33FF33"/><text fill="#33FF33" font-family="Verdana" font-size="12" font-style="italic" lengthAdjust="spacing" textLength="30" x="319.5" y="585.1836">«vo»</text><text fill="#33FF33" font-family="Verdana" font-size="12" font-style="italic" lengthAdjust="spacing" textLength="51" x="309" y="599.7676">«enum»</text><text fill="#33FF33" font-family="Verdana" font-size="14" lengthAdjust="spacing" textLength="38" x="315.5" y="616.3623">State</text></g><!--MD5=[f813d3652d12c19387be5741d6198500]
reverse link SystemUser to Teacher--><g id="link_SystemUser_Teacher"><path codeLine="14" d="M145.16,330.1191 C188.01,330.1191 244.28,330.1191 281.83,330.1191 " fill="none" id="SystemUser-backto-Teacher" style="stroke:#33FF33;stroke-width:1.0;"/><polygon fill="#33FF33" points="140,330.1191,149,334.1191,145,330.1191,149,326.1191,140,330.1191" style="stroke:#33FF33;stroke-width:1.0;"/><text fill="#33FF33" font-family="Verdana" font-size="13" lengthAdjust="spacing" textLength="8" x="148.1297" y="344.2505">1</text></g><!--MD5=[11f940fd4cae057b8e7923b67496b82a]
link Teacher to Acronym--><g id="link_Teacher_Acronym"><path codeLine="15" d="M364.83,358.4391 C398.6,382.1391 446.25,415.6091 478.21,438.0391 " fill="none" id="Teacher-to-Acronym" style="stroke:#33FF33;stroke-width:1.0;"/><polygon fill="#33FF33" points="482.41,440.9891,477.3663,432.5297,478.326,438.1046,472.7511,439.0642,482.41,440.9891" style="stroke:#33FF33;stroke-width:1.0;"/><text fill="#33FF33" font-family="Verdana" font-size="13" lengthAdjust="spacing" textLength="8" x="463.6637" y="430.4749">1</text></g><!--MD5=[5ccd9a2dca12a83d1f1a9ea3e12c08ad]
link Teacher to DateOfBirth--><g id="link_Teacher_DateOfBirth"><path codeLine="16" d="M345.28,301.8791 C368.35,270.5791 406.7,218.6491 440,174.1191 C457.91,150.1691 478.46,122.9791 493.1,103.6691 " fill="none" id="Teacher-to-DateOfBirth" style="stroke:#33FF33;stroke-width:1.0;"/><polygon fill="#33FF33" points="496.32,99.4291,487.7009,104.1947,493.304,103.4171,494.0816,109.0203,496.32,99.4291" style="stroke:#33FF33;stroke-width:1.0;"/><text fill="#33FF33" font-family="Verdana" font-size="13" lengthAdjust="spacing" textLength="8" x="483.1574" y="119.6677">1</text></g><!--MD5=[02933c490c74384cb341558a01603184]
link Teacher to TaxPayerNumber--><g id="link_Teacher_TaxPayerNumber"><path codeLine="17" d="M365.29,317.0991 C387.66,309.9591 416.02,300.9091 441.86,292.6591 " fill="none" id="Teacher-to-TaxPayerNumber" style="stroke:#33FF33;stroke-width:1.0;"/><polygon fill="#33FF33" points="446.66,291.1291,436.8707,290.0475,441.8956,292.6457,439.2973,297.6706,446.66,291.1291" style="stroke:#33FF33;stroke-width:1.0;"/><text fill="#33FF33" font-family="Verdana" font-size="13" lengthAdjust="spacing" textLength="8" x="424.0493" y="310.203">1</text></g><!--MD5=[6893f384ff0ef933df1c7749ea824a41]
link Course to State--><g id="link_Course_State"><path codeLine="27" d="M118.09,767.0291 C162,730.3191 238.69,666.1891 284.62,627.7891 " fill="none" id="Course-to-State" style="stroke:#33FF33;stroke-width:1.0;"/><polygon fill="#33FF33" points="288.69,624.3891,279.2202,627.0952,284.8547,627.5971,284.3529,633.2316,288.69,624.3891" style="stroke:#33FF33;stroke-width:1.0;"/><text fill="#33FF33" font-family="Verdana" font-size="13" lengthAdjust="spacing" textLength="8" x="272.2003" y="645.3511">1</text></g><!--MD5=[22fbf65ce2adace958a9a6aab0fc3d5d]
link Course to Title--><g id="link_Course_Title"><path codeLine="28" d="M122.74,795.1191 C168.95,795.1191 245.94,795.1191 289.61,795.1191 " fill="none" id="Course-to-Title" style="stroke:#33FF33;stroke-width:1.0;"/><polygon fill="#33FF33" points="294.77,795.1191,285.77,791.1191,289.77,795.1191,285.77,799.1191,294.77,795.1191" style="stroke:#33FF33;stroke-width:1.0;"/><text fill="#33FF33" font-family="Verdana" font-size="13" lengthAdjust="spacing" textLength="8" x="279.2012" y="810.0622">1</text></g><!--MD5=[3bb0c3a02b5f89787288109fed45d2b4]
link Course to Description--><g id="link_Course_Description"><path codeLine="29" d="M119.36,823.2391 C166.02,860.8791 248,927.0191 292.2,962.6791 " fill="none" id="Course-to-Description" style="stroke:#33FF33;stroke-width:1.0;"/><polygon fill="#33FF33" points="296.36,966.0291,291.8622,957.2673,292.4668,962.8918,286.8424,963.4964,296.36,966.0291" style="stroke:#33FF33;stroke-width:1.0;"/><text fill="#33FF33" font-family="Verdana" font-size="13" lengthAdjust="spacing" textLength="8" x="278.8234" y="955.5271">1</text></g><!--MD5=[006a8456a0dc3f5efeb6a338a72ec64d]
link Course to Code--><g id="link_Course_Code"><path codeLine="30" d="M98.06,823.1791 C114.18,855.9191 142.36,911.3991 170,957.1191 C214.46,1030.6691 273.69,1113.0391 303.56,1153.6591 " fill="none" id="Course-to-Code" style="stroke:#33FF33;stroke-width:1.0;"/><polygon fill="#33FF33" points="306.71,1157.9291,304.5868,1148.3119,303.7421,1153.9053,298.1486,1153.0606,306.71,1157.9291" style="stroke:#33FF33;stroke-width:1.0;"/><text fill="#33FF33" font-family="Verdana" font-size="13" lengthAdjust="spacing" textLength="8" x="292.3431" y="1147.3965">1</text></g><!--MD5=[879e79d9b9300cd2bae6192b9cbae86c]
link Course to Teacher--><g id="link_Course_Teacher"><path codeLine="31" d="M98.85,767.0791 C140.52,685.6691 261.35,449.5991 305.82,362.7191 " fill="none" id="Course-to-Teacher" style="stroke:#33FF33;stroke-width:1.0;"/><polygon fill="#33FF33" points="308.13,358.1991,300.4639,364.3822,305.8484,362.6482,307.5824,368.0328,308.13,358.1991" style="stroke:#33FF33;stroke-width:1.0;"/><text fill="#33FF33" font-family="Verdana" font-size="13" lengthAdjust="spacing" textLength="68" x="171" y="491.189">is ruled by</text><text fill="#33FF33" font-family="Verdana" font-size="13" lengthAdjust="spacing" textLength="9" x="294.5351" y="379.5681">*</text></g><!--MD5=[123cb026ef990ee8e31f3c3f096618df]
@startuml DDD

!theme crt-green
skinparam nodesep 150
hide empty members
left to right direction

package "<<agr Teacher>>"{

    class Teacher<<entity>><<root>>{}
    class Acronym<<vo>>{}
    class TaxPayerNumber<<vo>>{}
    class DateOfBirth<<vo>>{}

    SystemUser "1" <- - Teacher
    Teacher -down-> "1" Acronym
    Teacher - -> "1" DateOfBirth
    Teacher - -> "1" TaxPayerNumber
}

package "<<agr Course>>"{
    class Course<<entity>><<root>>{}
    class Code <<vo>>
    class Description<<vo>>{}
    class Title<<vo>>{}
    class State<<vo>><<enum>>{}

    Course  - -> "1" State
    Course  -down-> "1" Title
    Course  -down-> "1" Description
    Course  -down-> "1" Code
    Course - -> "*" Teacher : is ruled by


}

@enduml

@startuml DDD






<style>
  root {
    BackgroundColor #282828
    FontColor #33FF33
    FontName Verdana
    HyperLinkColor #33FF33
    LineColor #33FF33
    LineThickness 1
    Margin 5
  }
  box {
    LineStyle 12-18
    LineThickness 3
  }
  caption {
    LineThickness 0
  }
  footer {
    LineThickness 0
  }
  groupHeader {
    BackgroundColor #33FF33
    FontColor #282828
    FontStyle bold
  }
  header {
    LineThickness 0
  }
  node {
    MaximumWidth 300
  }
  referenceHeader {
    BackgroundColor #33FF33
    FontColor #282828
    FontStyle bold
  }
  separator {
    BackgroundColor #33FF33
    FontColor #282828
    FontStyle bold
  }
  title {
    FontSize 22
    LineThickness 0
  }
</style>

skinparam ArrowLollipopColor #33FF33
skinparam BackgroundColor #282828
skinparam DefaultFontName Verdana
skinparam DefaultMonospacedFontName Courier
skinparam LifelineStrategy solid
skinparam ParticipantPadding 10
skinparam SequenceLifeLineBorderColor #33FF33
skinparam Shadowing false
skinparam UseBetaStyle true

skinparam Activity {
  BackgroundColor #282828
  BarColor #33FF33
  BorderColor #33FF33
  FontColor #33FF33
  FontName Verdana
}
skinparam Boundary {
  FontColor #33FF33
}
skinparam Box {
  Padding 5
}
skinparam CircledCharacter {
  FontColor #282828
  FontName Courier
  Radius 9
}
skinparam Class {
  BackgroundColor #282828
  BorderColor #33FF33
  FontColor #33FF33
  FontName Verdana
}
skinparam ClassAttribute {
  FontColor #33FF33
  FontName Verdana
}
skinparam ClassStereotype {
  FontColor #33FF33
  FontName Verdana
}
skinparam Footer {
  FontColor #33FF33
  FontName Verdana
}
skinparam Header {
  FontColor #33FF33
  FontName Verdana
}
skinparam Hyperlink {
  Color #33FF33
}
skinparam IconPackage {
  Color #33FF33
  BackgroundColor #282828
}
skinparam IconPrivate {
  Color #33FF33
  BackgroundColor #282828
}
skinparam IconProtected {
  Color #33FF33
  BackgroundColor #282828
}
skinparam IconPublic {
  Color #33FF33
  BackgroundColor #282828
}
skinparam Note {
  FontColor #33FF33
  FontName Verdana
}
skinparam Object {
  BorderColor #33FF33
}
skinparam Package {
  BorderColor #33FF33
  FontColor #33FF33
  FontName Verdana
}
skinparam State {
  BackgroundColor #282828
  BorderColor #33FF33
}
skinparam StereotypeA {
  BackgroundColor #33FF33
  BorderColor #33FF33
}
skinparam StereotypeC {
  BackgroundColor #33FF33
  BorderColor #33FF33
}
skinparam StereotypeE {
  BackgroundColor #33FF33
  BorderColor #33FF33
}
skinparam StereotypeI {
  BackgroundColor #33FF33
  BorderColor #33FF33
}
skinparam StereotypeN {
  BackgroundColor #33FF33
  BorderColor #33FF33
}
skinparam UseCaseStereoType {
  FontColor #33FF33
  FontName Verdana
}
skinparam nodesep 150
hide empty members
left to right direction

package "<<agr Teacher>>"{

    class Teacher<<entity>><<root>>{}
    class Acronym<<vo>>{}
    class TaxPayerNumber<<vo>>{}
    class DateOfBirth<<vo>>{}

    SystemUser "1" <- - Teacher
    Teacher -down-> "1" Acronym
    Teacher - -> "1" DateOfBirth
    Teacher - -> "1" TaxPayerNumber
}

package "<<agr Course>>"{
    class Course<<entity>><<root>>{}
    class Code <<vo>>
    class Description<<vo>>{}
    class Title<<vo>>{}
    class State<<vo>><<enum>>{}

    Course  - -> "1" State
    Course  -down-> "1" Title
    Course  -down-> "1" Description
    Course  -down-> "1" Code
    Course - -> "*" Teacher : is ruled by


}

@enduml

PlantUML version 1.2022.12(Sun Oct 23 19:12:26 BST 2022)
(GPL source distribution)
Java Runtime: OpenJDK Runtime Environment
JVM: OpenJDK 64-Bit Server VM
Default Encoding: Cp1252
Language: en
Country: US
--></g></svg>