<?xml version="1.0" encoding="UTF-8" standalone="no"?><svg xmlns="http://www.w3.org/2000/svg" xmlns:xlink="http://www.w3.org/1999/xlink" contentStyleType="text/css" height="480px" preserveAspectRatio="none" style="width:1152px;height:480px;background:#FFFFFF;" version="1.1" viewBox="0 0 1152 480" width="1152px" zoomAndPan="magnify"><defs/><g><!--MD5=[cc9e5fb290009bdd0f3aab3e3c8d896b]
class ListExamGradesStudentUI--><g id="elem_ListExamGradesStudentUI"><rect codeLine="1" fill="#F1F1F1" height="66.575" id="ListExamGradesStudentUI" rx="2" ry="2" style="stroke:#181818;stroke-width:0.4000000000000001;" width="404" x="342.4" y="5.6"/><ellipse cx="475.4" cy="18.4" fill="#ADD1B2" rx="8.8" ry="8.8" style="stroke:#181818;stroke-width:0.8000000000000002;"/><path d="M477,15.6 Q477.1625,15.2 477.35,15 Q477.5375,14.8 477.75,14.8 Q478.125,14.8 478.3625,15.025 Q478.6,15.25 478.6,15.775 L478.6,17.025 Q478.6,17.55 478.375,17.775 Q478.15,18 477.8,18 Q477.4875,18 477.2875,17.8625 Q477.0875,17.725 477,17.3625 Q476.9625,17.1125 476.825,16.975 Q476.575,16.7125 476.125,16.5625 Q475.675,16.4 475.225,16.4 Q474.6625,16.4 474.1875,16.625 Q473.725,16.85 473.3625,17.35 Q473,17.85 473,18.5375 L473,19.275 Q473,20.1 473.675,20.65 Q474.35,21.2 475.55,21.2 Q476.2625,21.2 476.7625,21.0375 Q477.05,20.95 477.375,20.6625 Q477.5875,20.5 477.7,20.45 Q477.8125,20.4 477.95,20.4 Q478.2125,20.4 478.4,20.6125 Q478.6,20.8125 478.6,21.1 Q478.6,21.375 478.325,21.7 Q477.925,22.175 477.2875,22.4375 Q476.45,22.8 475.425,22.8 Q474.225,22.8 473.2625,22.325 Q472.4875,21.95 471.9375,21.1375 Q471.4,20.325 471.4,19.3625 L471.4,18.4875 Q471.4,17.4875 471.875,16.6125 Q472.3625,15.7375 473.2,15.275 Q474.05,14.8 475,14.8 Q475.575,14.8 476.075,15 Q476.575,15.2 477,15.6 Z " fill="#000000"/><text fill="#000000" font-family="sans-serif" font-size="11.2" lengthAdjust="spacing" textLength="131.2" x="491.8" y="22.9828">ListExamGradesStudentUI</text><line style="stroke:#181818;stroke-width:0.4000000000000001;" x1="343.2" x2="745.6" y1="31.2" y2="31.2"/><line style="stroke:#181818;stroke-width:0.4000000000000001;" x1="343.2" x2="745.6" y1="37.6" y2="37.6"/><ellipse cx="351.2" cy="49.0438" fill="#84BE84" rx="2.4" ry="2.4" style="stroke:#038048;stroke-width:0.8000000000000002;"/><text fill="#000000" font-family="sans-serif" font-size="11.2" lengthAdjust="spacing" textLength="383.2" x="358.4" y="52.4266">listExamsGrades(selectedCourse: CourseDTO): Iterable&lt;FormerExamDTO&gt;</text><ellipse cx="351.2" cy="63.1313" fill="#84BE84" rx="2.4" ry="2.4" style="stroke:#038048;stroke-width:0.8000000000000002;"/><text fill="#000000" font-family="sans-serif" font-size="11.2" lengthAdjust="spacing" textLength="347.2" x="358.4" y="66.5141">presentExamGrades(examGrades: Iterable&lt;FormerExamDTO&gt;): void</text></g><!--MD5=[541bdf4c235862b759115a7f1cfd13d0]
class ListStudentGradesController--><g id="elem_ListStudentGradesController"><rect codeLine="6" fill="#F1F1F1" height="52.4875" id="ListStudentGradesController" rx="2" ry="2" style="stroke:#181818;stroke-width:0.4000000000000001;" width="359.2" x="364.8" y="120"/><ellipse cx="469" cy="132.8" fill="#ADD1B2" rx="8.8" ry="8.8" style="stroke:#181818;stroke-width:0.8000000000000002;"/><path d="M470.6,130 Q470.7625,129.6 470.95,129.4 Q471.1375,129.2 471.35,129.2 Q471.725,129.2 471.9625,129.425 Q472.2,129.65 472.2,130.175 L472.2,131.425 Q472.2,131.95 471.975,132.175 Q471.75,132.4 471.4,132.4 Q471.0875,132.4 470.8875,132.2625 Q470.6875,132.125 470.6,131.7625 Q470.5625,131.5125 470.425,131.375 Q470.175,131.1125 469.725,130.9625 Q469.275,130.8 468.825,130.8 Q468.2625,130.8 467.7875,131.025 Q467.325,131.25 466.9625,131.75 Q466.6,132.25 466.6,132.9375 L466.6,133.675 Q466.6,134.5 467.275,135.05 Q467.95,135.6 469.15,135.6 Q469.8625,135.6 470.3625,135.4375 Q470.65,135.35 470.975,135.0625 Q471.1875,134.9 471.3,134.85 Q471.4125,134.8 471.55,134.8 Q471.8125,134.8 472,135.0125 Q472.2,135.2125 472.2,135.5 Q472.2,135.775 471.925,136.1 Q471.525,136.575 470.8875,136.8375 Q470.05,137.2 469.025,137.2 Q467.825,137.2 466.8625,136.725 Q466.0875,136.35 465.5375,135.5375 Q465,134.725 465,133.7625 L465,132.8875 Q465,131.8875 465.475,131.0125 Q465.9625,130.1375 466.8,129.675 Q467.65,129.2 468.6,129.2 Q469.175,129.2 469.675,129.4 Q470.175,129.6 470.6,130 Z " fill="#000000"/><text fill="#000000" font-family="sans-serif" font-size="11.2" lengthAdjust="spacing" textLength="144" x="485.4" y="137.3828">ListStudentGradesController</text><line style="stroke:#181818;stroke-width:0.4000000000000001;" x1="365.6" x2="723.2" y1="145.6" y2="145.6"/><line style="stroke:#181818;stroke-width:0.4000000000000001;" x1="365.6" x2="723.2" y1="152" y2="152"/><ellipse cx="373.6" cy="163.4438" fill="#84BE84" rx="2.4" ry="2.4" style="stroke:#038048;stroke-width:0.8000000000000002;"/><text fill="#000000" font-family="sans-serif" font-size="11.2" lengthAdjust="spacing" textLength="338.4" x="380.8" y="166.8266">listExamsGrades(course: CourseDTO): Iterable&lt;FormerExamDTO&gt;</text></g><!--MD5=[785e56f7f86f453522da0de638889e08]
class ListStudentGradesService--><g id="elem_ListStudentGradesService"><rect codeLine="10" fill="#F1F1F1" height="52.4875" id="ListStudentGradesService" rx="2" ry="2" style="stroke:#181818;stroke-width:0.4000000000000001;" width="359.2" x="364.8" y="220.8"/><ellipse cx="475" cy="233.6" fill="#ADD1B2" rx="8.8" ry="8.8" style="stroke:#181818;stroke-width:0.8000000000000002;"/><path d="M476.6,230.8 Q476.7625,230.4 476.95,230.2 Q477.1375,230 477.35,230 Q477.725,230 477.9625,230.225 Q478.2,230.45 478.2,230.975 L478.2,232.225 Q478.2,232.75 477.975,232.975 Q477.75,233.2 477.4,233.2 Q477.0875,233.2 476.8875,233.0625 Q476.6875,232.925 476.6,232.5625 Q476.5625,232.3125 476.425,232.175 Q476.175,231.9125 475.725,231.7625 Q475.275,231.6 474.825,231.6 Q474.2625,231.6 473.7875,231.825 Q473.325,232.05 472.9625,232.55 Q472.6,233.05 472.6,233.7375 L472.6,234.475 Q472.6,235.3 473.275,235.85 Q473.95,236.4 475.15,236.4 Q475.8625,236.4 476.3625,236.2375 Q476.65,236.15 476.975,235.8625 Q477.1875,235.7 477.3,235.65 Q477.4125,235.6 477.55,235.6 Q477.8125,235.6 478,235.8125 Q478.2,236.0125 478.2,236.3 Q478.2,236.575 477.925,236.9 Q477.525,237.375 476.8875,237.6375 Q476.05,238 475.025,238 Q473.825,238 472.8625,237.525 Q472.0875,237.15 471.5375,236.3375 Q471,235.525 471,234.5625 L471,233.6875 Q471,232.6875 471.475,231.8125 Q471.9625,230.9375 472.8,230.475 Q473.65,230 474.6,230 Q475.175,230 475.675,230.2 Q476.175,230.4 476.6,230.8 Z " fill="#000000"/><text fill="#000000" font-family="sans-serif" font-size="11.2" lengthAdjust="spacing" textLength="132" x="491.4" y="238.1828">ListStudentGradesService</text><line style="stroke:#181818;stroke-width:0.4000000000000001;" x1="365.6" x2="723.2" y1="246.4" y2="246.4"/><line style="stroke:#181818;stroke-width:0.4000000000000001;" x1="365.6" x2="723.2" y1="252.8" y2="252.8"/><ellipse cx="373.6" cy="264.2438" fill="#84BE84" rx="2.4" ry="2.4" style="stroke:#038048;stroke-width:0.8000000000000002;"/><text fill="#000000" font-family="sans-serif" font-size="11.2" lengthAdjust="spacing" textLength="338.4" x="380.8" y="267.6266">listExamsGrades(course: CourseDTO): Iterable&lt;FormerExamDTO&gt;</text></g><!--MD5=[eac36aa6388d3d882c68953f13bd8988]
class FormerExamService--><g id="elem_FormerExamService"><rect codeLine="14" fill="#F1F1F1" height="52.4875" id="FormerExamService" rx="2" ry="2" style="stroke:#181818;stroke-width:0.4000000000000001;" width="383.2" x="5.6" y="321.6"/><ellipse cx="143" cy="334.4" fill="#ADD1B2" rx="8.8" ry="8.8" style="stroke:#181818;stroke-width:0.8000000000000002;"/><path d="M144.6,331.6 Q144.7625,331.2 144.95,331 Q145.1375,330.8 145.35,330.8 Q145.725,330.8 145.9625,331.025 Q146.2,331.25 146.2,331.775 L146.2,333.025 Q146.2,333.55 145.975,333.775 Q145.75,334 145.4,334 Q145.0875,334 144.8875,333.8625 Q144.6875,333.725 144.6,333.3625 Q144.5625,333.1125 144.425,332.975 Q144.175,332.7125 143.725,332.5625 Q143.275,332.4 142.825,332.4 Q142.2625,332.4 141.7875,332.625 Q141.325,332.85 140.9625,333.35 Q140.6,333.85 140.6,334.5375 L140.6,335.275 Q140.6,336.1 141.275,336.65 Q141.95,337.2 143.15,337.2 Q143.8625,337.2 144.3625,337.0375 Q144.65,336.95 144.975,336.6625 Q145.1875,336.5 145.3,336.45 Q145.4125,336.4 145.55,336.4 Q145.8125,336.4 146,336.6125 Q146.2,336.8125 146.2,337.1 Q146.2,337.375 145.925,337.7 Q145.525,338.175 144.8875,338.4375 Q144.05,338.8 143.025,338.8 Q141.825,338.8 140.8625,338.325 Q140.0875,337.95 139.5375,337.1375 Q139,336.325 139,335.3625 L139,334.4875 Q139,333.4875 139.475,332.6125 Q139.9625,331.7375 140.8,331.275 Q141.65,330.8 142.6,330.8 Q143.175,330.8 143.675,331 Q144.175,331.2 144.6,331.6 Z " fill="#000000"/><text fill="#000000" font-family="sans-serif" font-size="11.2" lengthAdjust="spacing" textLength="101.6" x="159.4" y="338.9828">FormerExamService</text><line style="stroke:#181818;stroke-width:0.4000000000000001;" x1="6.4" x2="388" y1="347.2" y2="347.2"/><line style="stroke:#181818;stroke-width:0.4000000000000001;" x1="6.4" x2="388" y1="353.6" y2="353.6"/><ellipse cx="14.4" cy="365.0438" fill="#84BE84" rx="2.4" ry="2.4" style="stroke:#038048;stroke-width:0.8000000000000002;"/><text fill="#000000" font-family="sans-serif" font-size="11.2" lengthAdjust="spacing" textLength="362.4" x="21.6" y="368.4266">listFormerExamsOfCourse(course: CourseDTO): Iterable&lt;FormerExam&gt;</text></g><!--MD5=[e92a0ad4a2c3b373a8b99be54b12adff]
class StudentService--><g id="elem_StudentService"><rect codeLine="18" fill="#F1F1F1" height="52.4875" id="StudentService" rx="2" ry="2" style="stroke:#181818;stroke-width:0.4000000000000001;" width="280.8" x="416.8" y="321.6"/><ellipse cx="515.4" cy="334.4" fill="#ADD1B2" rx="8.8" ry="8.8" style="stroke:#181818;stroke-width:0.8000000000000002;"/><path d="M517,331.6 Q517.1625,331.2 517.35,331 Q517.5375,330.8 517.75,330.8 Q518.125,330.8 518.3625,331.025 Q518.6,331.25 518.6,331.775 L518.6,333.025 Q518.6,333.55 518.375,333.775 Q518.15,334 517.8,334 Q517.4875,334 517.2875,333.8625 Q517.0875,333.725 517,333.3625 Q516.9625,333.1125 516.825,332.975 Q516.575,332.7125 516.125,332.5625 Q515.675,332.4 515.225,332.4 Q514.6625,332.4 514.1875,332.625 Q513.725,332.85 513.3625,333.35 Q513,333.85 513,334.5375 L513,335.275 Q513,336.1 513.675,336.65 Q514.35,337.2 515.55,337.2 Q516.2625,337.2 516.7625,337.0375 Q517.05,336.95 517.375,336.6625 Q517.5875,336.5 517.7,336.45 Q517.8125,336.4 517.95,336.4 Q518.2125,336.4 518.4,336.6125 Q518.6,336.8125 518.6,337.1 Q518.6,337.375 518.325,337.7 Q517.925,338.175 517.2875,338.4375 Q516.45,338.8 515.425,338.8 Q514.225,338.8 513.2625,338.325 Q512.4875,337.95 511.9375,337.1375 Q511.4,336.325 511.4,335.3625 L511.4,334.4875 Q511.4,333.4875 511.875,332.6125 Q512.3625,331.7375 513.2,331.275 Q514.05,330.8 515,330.8 Q515.575,330.8 516.075,331 Q516.575,331.2 517,331.6 Z " fill="#000000"/><text fill="#000000" font-family="sans-serif" font-size="11.2" lengthAdjust="spacing" textLength="76.8" x="531.8" y="338.9828">StudentService</text><line style="stroke:#181818;stroke-width:0.4000000000000001;" x1="417.6" x2="696.8" y1="347.2" y2="347.2"/><line style="stroke:#181818;stroke-width:0.4000000000000001;" x1="417.6" x2="696.8" y1="353.6" y2="353.6"/><ellipse cx="425.6" cy="365.0438" fill="#84BE84" rx="2.4" ry="2.4" style="stroke:#038048;stroke-width:0.8000000000000002;"/><text fill="#000000" font-family="sans-serif" font-size="11.2" lengthAdjust="spacing" textLength="260" x="432.8" y="368.4266">findStudentByUsername(username: string): Student</text></g><!--MD5=[3eba26bcf01c20b13bf13f6d2e6195be]
class CourseService--><g id="elem_CourseService"><rect codeLine="22" fill="#F1F1F1" height="52.4875" id="CourseService" rx="2" ry="2" style="stroke:#181818;stroke-width:0.4000000000000001;" width="394.4" x="752" y="220.8"/><ellipse cx="908.6" cy="233.6" fill="#ADD1B2" rx="8.8" ry="8.8" style="stroke:#181818;stroke-width:0.8000000000000002;"/><path d="M910.2,230.8 Q910.3625,230.4 910.55,230.2 Q910.7375,230 910.95,230 Q911.325,230 911.5625,230.225 Q911.8,230.45 911.8,230.975 L911.8,232.225 Q911.8,232.75 911.575,232.975 Q911.35,233.2 911,233.2 Q910.6875,233.2 910.4875,233.0625 Q910.2875,232.925 910.2,232.5625 Q910.1625,232.3125 910.025,232.175 Q909.775,231.9125 909.325,231.7625 Q908.875,231.6 908.425,231.6 Q907.8625,231.6 907.3875,231.825 Q906.925,232.05 906.5625,232.55 Q906.2,233.05 906.2,233.7375 L906.2,234.475 Q906.2,235.3 906.875,235.85 Q907.55,236.4 908.75,236.4 Q909.4625,236.4 909.9625,236.2375 Q910.25,236.15 910.575,235.8625 Q910.7875,235.7 910.9,235.65 Q911.0125,235.6 911.15,235.6 Q911.4125,235.6 911.6,235.8125 Q911.8,236.0125 911.8,236.3 Q911.8,236.575 911.525,236.9 Q911.125,237.375 910.4875,237.6375 Q909.65,238 908.625,238 Q907.425,238 906.4625,237.525 Q905.6875,237.15 905.1375,236.3375 Q904.6,235.525 904.6,234.5625 L904.6,233.6875 Q904.6,232.6875 905.075,231.8125 Q905.5625,230.9375 906.4,230.475 Q907.25,230 908.2,230 Q908.775,230 909.275,230.2 Q909.775,230.4 910.2,230.8 Z " fill="#000000"/><text fill="#000000" font-family="sans-serif" font-size="11.2" lengthAdjust="spacing" textLength="74.4" x="925" y="238.1828">CourseService</text><line style="stroke:#181818;stroke-width:0.4000000000000001;" x1="752.8" x2="1145.6" y1="246.4" y2="246.4"/><line style="stroke:#181818;stroke-width:0.4000000000000001;" x1="752.8" x2="1145.6" y1="252.8" y2="252.8"/><ellipse cx="760.8" cy="264.2438" fill="#84BE84" rx="2.4" ry="2.4" style="stroke:#038048;stroke-width:0.8000000000000002;"/><text fill="#000000" font-family="sans-serif" font-size="11.2" lengthAdjust="spacing" textLength="373.6" x="768" y="267.6266">coursesThatStudentIsEnrolledOn(studentId: string): Iterable&lt;CourseDTO&gt;</text></g><!--MD5=[fa3e5eb5fedffd174e4201d687b4ebcf]
class StudentRepository--><g id="elem_StudentRepository"><rect codeLine="26" fill="#F1F1F1" height="52.4875" id="StudentRepository" rx="2" ry="2" style="stroke:#181818;stroke-width:0.4000000000000001;" width="281.6" x="416.4" y="422.4"/><ellipse cx="507" cy="435.2" fill="#ADD1B2" rx="8.8" ry="8.8" style="stroke:#181818;stroke-width:0.8000000000000002;"/><path d="M508.6,432.4 Q508.7625,432 508.95,431.8 Q509.1375,431.6 509.35,431.6 Q509.725,431.6 509.9625,431.825 Q510.2,432.05 510.2,432.575 L510.2,433.825 Q510.2,434.35 509.975,434.575 Q509.75,434.8 509.4,434.8 Q509.0875,434.8 508.8875,434.6625 Q508.6875,434.525 508.6,434.1625 Q508.5625,433.9125 508.425,433.775 Q508.175,433.5125 507.725,433.3625 Q507.275,433.2 506.825,433.2 Q506.2625,433.2 505.7875,433.425 Q505.325,433.65 504.9625,434.15 Q504.6,434.65 504.6,435.3375 L504.6,436.075 Q504.6,436.9 505.275,437.45 Q505.95,438 507.15,438 Q507.8625,438 508.3625,437.8375 Q508.65,437.75 508.975,437.4625 Q509.1875,437.3 509.3,437.25 Q509.4125,437.2 509.55,437.2 Q509.8125,437.2 510,437.4125 Q510.2,437.6125 510.2,437.9 Q510.2,438.175 509.925,438.5 Q509.525,438.975 508.8875,439.2375 Q508.05,439.6 507.025,439.6 Q505.825,439.6 504.8625,439.125 Q504.0875,438.75 503.5375,437.9375 Q503,437.125 503,436.1625 L503,435.2875 Q503,434.2875 503.475,433.4125 Q503.9625,432.5375 504.8,432.075 Q505.65,431.6 506.6,431.6 Q507.175,431.6 507.675,431.8 Q508.175,432 508.6,432.4 Z " fill="#000000"/><text fill="#000000" font-family="sans-serif" font-size="11.2" lengthAdjust="spacing" textLength="93.6" x="523.4" y="439.7828">StudentRepository</text><line style="stroke:#181818;stroke-width:0.4000000000000001;" x1="417.2" x2="697.2" y1="448" y2="448"/><line style="stroke:#181818;stroke-width:0.4000000000000001;" x1="417.2" x2="697.2" y1="454.4" y2="454.4"/><ellipse cx="425.2" cy="465.8438" fill="#84BE84" rx="2.4" ry="2.4" style="stroke:#038048;stroke-width:0.8000000000000002;"/><text fill="#000000" font-family="sans-serif" font-size="11.2" lengthAdjust="spacing" textLength="260.8" x="432.4" y="469.2266">findStudentByUserName(username: string): Student</text></g><!--MD5=[554300dc38a47082daa593302b5c36ff]
class CourseEnrollmentRepository--><g id="elem_CourseEnrollmentRepository"><rect codeLine="30" fill="#F1F1F1" height="52.4875" id="CourseEnrollmentRepository" rx="2" ry="2" style="stroke:#181818;stroke-width:0.4000000000000001;" width="370.4" x="751.2" y="321.6"/><ellipse cx="860.6" cy="334.4" fill="#ADD1B2" rx="8.8" ry="8.8" style="stroke:#181818;stroke-width:0.8000000000000002;"/><path d="M862.2,331.6 Q862.3625,331.2 862.55,331 Q862.7375,330.8 862.95,330.8 Q863.325,330.8 863.5625,331.025 Q863.8,331.25 863.8,331.775 L863.8,333.025 Q863.8,333.55 863.575,333.775 Q863.35,334 863,334 Q862.6875,334 862.4875,333.8625 Q862.2875,333.725 862.2,333.3625 Q862.1625,333.1125 862.025,332.975 Q861.775,332.7125 861.325,332.5625 Q860.875,332.4 860.425,332.4 Q859.8625,332.4 859.3875,332.625 Q858.925,332.85 858.5625,333.35 Q858.2,333.85 858.2,334.5375 L858.2,335.275 Q858.2,336.1 858.875,336.65 Q859.55,337.2 860.75,337.2 Q861.4625,337.2 861.9625,337.0375 Q862.25,336.95 862.575,336.6625 Q862.7875,336.5 862.9,336.45 Q863.0125,336.4 863.15,336.4 Q863.4125,336.4 863.6,336.6125 Q863.8,336.8125 863.8,337.1 Q863.8,337.375 863.525,337.7 Q863.125,338.175 862.4875,338.4375 Q861.65,338.8 860.625,338.8 Q859.425,338.8 858.4625,338.325 Q857.6875,337.95 857.1375,337.1375 Q856.6,336.325 856.6,335.3625 L856.6,334.4875 Q856.6,333.4875 857.075,332.6125 Q857.5625,331.7375 858.4,331.275 Q859.25,330.8 860.2,330.8 Q860.775,330.8 861.275,331 Q861.775,331.2 862.2,331.6 Z " fill="#000000"/><text fill="#000000" font-family="sans-serif" font-size="11.2" lengthAdjust="spacing" textLength="144.8" x="877" y="338.9828">CourseEnrollmentRepository</text><line style="stroke:#181818;stroke-width:0.4000000000000001;" x1="752" x2="1120.8" y1="347.2" y2="347.2"/><line style="stroke:#181818;stroke-width:0.4000000000000001;" x1="752" x2="1120.8" y1="353.6" y2="353.6"/><ellipse cx="760" cy="365.0438" fill="#84BE84" rx="2.4" ry="2.4" style="stroke:#038048;stroke-width:0.8000000000000002;"/><text fill="#000000" font-family="sans-serif" font-size="11.2" lengthAdjust="spacing" textLength="349.6" x="767.2" y="368.4266">coursesThatStudentIsEnrolledOn(studentId: string): Iterable&lt;Course&gt;</text></g><!--MD5=[6d20194cecd92d326f851c254d3e19bc]
class FormerExamRepository--><g id="elem_FormerExamRepository"><rect codeLine="34" fill="#F1F1F1" height="52.4875" id="FormerExamRepository" rx="2" ry="2" style="stroke:#181818;stroke-width:0.4000000000000001;" width="359.2" x="17.6" y="422.4"/><ellipse cx="134.6" cy="435.2" fill="#ADD1B2" rx="8.8" ry="8.8" style="stroke:#181818;stroke-width:0.8000000000000002;"/><path d="M136.2,432.4 Q136.3625,432 136.55,431.8 Q136.7375,431.6 136.95,431.6 Q137.325,431.6 137.5625,431.825 Q137.8,432.05 137.8,432.575 L137.8,433.825 Q137.8,434.35 137.575,434.575 Q137.35,434.8 137,434.8 Q136.6875,434.8 136.4875,434.6625 Q136.2875,434.525 136.2,434.1625 Q136.1625,433.9125 136.025,433.775 Q135.775,433.5125 135.325,433.3625 Q134.875,433.2 134.425,433.2 Q133.8625,433.2 133.3875,433.425 Q132.925,433.65 132.5625,434.15 Q132.2,434.65 132.2,435.3375 L132.2,436.075 Q132.2,436.9 132.875,437.45 Q133.55,438 134.75,438 Q135.4625,438 135.9625,437.8375 Q136.25,437.75 136.575,437.4625 Q136.7875,437.3 136.9,437.25 Q137.0125,437.2 137.15,437.2 Q137.4125,437.2 137.6,437.4125 Q137.8,437.6125 137.8,437.9 Q137.8,438.175 137.525,438.5 Q137.125,438.975 136.4875,439.2375 Q135.65,439.6 134.625,439.6 Q133.425,439.6 132.4625,439.125 Q131.6875,438.75 131.1375,437.9375 Q130.6,437.125 130.6,436.1625 L130.6,435.2875 Q130.6,434.2875 131.075,433.4125 Q131.5625,432.5375 132.4,432.075 Q133.25,431.6 134.2,431.6 Q134.775,431.6 135.275,431.8 Q135.775,432 136.2,432.4 Z " fill="#000000"/><text fill="#000000" font-family="sans-serif" font-size="11.2" lengthAdjust="spacing" textLength="118.4" x="151" y="439.7828">FormerExamRepository</text><line style="stroke:#181818;stroke-width:0.4000000000000001;" x1="18.4" x2="376" y1="448" y2="448"/><line style="stroke:#181818;stroke-width:0.4000000000000001;" x1="18.4" x2="376" y1="454.4" y2="454.4"/><ellipse cx="26.4" cy="465.8438" fill="#84BE84" rx="2.4" ry="2.4" style="stroke:#038048;stroke-width:0.8000000000000002;"/><text fill="#000000" font-family="sans-serif" font-size="11.2" lengthAdjust="spacing" textLength="338.4" x="33.6" y="469.2266">listFormerExamsOfCourse(course: Course): Iterable&lt;FormerExam&gt;</text></g><!--MD5=[273dfe6d4e95a956e551a04f622c71b9]
link ListExamGradesStudentUI to ListStudentGradesController--><g id="link_ListExamGradesStudentUI_ListStudentGradesController"><path codeLine="38" d="M544.4,72.272 C544.4,86.16 544.4,102.248 544.4,115.808 " fill="none" id="ListExamGradesStudentUI-to-ListStudentGradesController" style="stroke:#181818;stroke-width:0.8000000000000002;"/><polygon fill="#181818" points="544.4,119.936,547.6,112.736,544.4,115.936,541.2,112.736,544.4,119.936" style="stroke:#181818;stroke-width:0.8000000000000002;"/></g><!--MD5=[8e79dec37ce01412e837f450b7bdbc61]
link ListStudentGradesController to ListStudentGradesService--><g id="link_ListStudentGradesController_ListStudentGradesService"><path codeLine="39" d="M544.4,173.008 C544.4,186.32 544.4,202.64 544.4,216.504 " fill="none" id="ListStudentGradesController-to-ListStudentGradesService" style="stroke:#181818;stroke-width:0.8000000000000002;"/><polygon fill="#181818" points="544.4,220.728,547.6,213.528,544.4,216.728,541.2,213.528,544.4,220.728" style="stroke:#181818;stroke-width:0.8000000000000002;"/></g><!--MD5=[5f2f920126bfaa7ad1fc77549fd1b459]
link ListStudentGradesService to FormerExamService--><g id="link_ListStudentGradesService_FormerExamService"><path codeLine="40" d="M454.76,273.608 C404.536,287.96 341.952,305.84 291.056,320.384 " fill="none" id="ListStudentGradesService-to-FormerExamService" style="stroke:#181818;stroke-width:0.8000000000000002;"/><polygon fill="#181818" points="287.104,321.512,294.9091,322.5894,290.9471,320.4025,293.1339,316.4405,287.104,321.512" style="stroke:#181818;stroke-width:0.8000000000000002;"/></g><!--MD5=[f1bf20c0113b5fe4b4ebeeed985cb7f8]
link ListStudentGradesService to StudentService--><g id="link_ListStudentGradesService_StudentService"><path codeLine="41" d="M547.728,273.808 C549.448,287.12 551.552,303.44 553.344,317.304 " fill="none" id="ListStudentGradesService-to-StudentService" style="stroke:#181818;stroke-width:0.8000000000000002;"/><polygon fill="#181818" points="553.888,321.528,556.1355,313.9763,553.3736,317.5612,549.7886,314.7993,553.888,321.528" style="stroke:#181818;stroke-width:0.8000000000000002;"/></g><!--MD5=[7f3a7d4de82bb70df460deec8e121964]
link ListStudentGradesService to CourseEnrollmentRepository--><g id="link_ListStudentGradesService_CourseEnrollmentRepository"><path codeLine="42" d="M645.608,273.608 C702.432,287.992 773.256,305.912 830.776,320.472 " fill="none" id="ListStudentGradesService-to-CourseEnrollmentRepository" style="stroke:#181818;stroke-width:0.8000000000000002;"/><polygon fill="#181818" points="834.896,321.512,828.7039,316.6398,831.0188,320.5284,827.1302,322.8433,834.896,321.512" style="stroke:#181818;stroke-width:0.8000000000000002;"/></g><!--MD5=[682137d4505bf797b9482c3ccad72690]
link FormerExamService to FormerExamRepository--><g id="link_FormerExamService_FormerExamRepository"><path codeLine="43" d="M197.2,374.608 C197.2,387.92 197.2,404.24 197.2,418.104 " fill="none" id="FormerExamService-to-FormerExamRepository" style="stroke:#181818;stroke-width:0.8000000000000002;"/><polygon fill="#181818" points="197.2,422.328,200.4,415.128,197.2,418.328,194,415.128,197.2,422.328" style="stroke:#181818;stroke-width:0.8000000000000002;"/></g><!--MD5=[85c47e4deb6535c32b4a802f0aa9bb94]
link StudentService to StudentRepository--><g id="link_StudentService_StudentRepository"><path codeLine="44" d="M557.2,374.608 C557.2,387.92 557.2,404.24 557.2,418.104 " fill="none" id="StudentService-to-StudentRepository" style="stroke:#181818;stroke-width:0.8000000000000002;"/><polygon fill="#181818" points="557.2,422.328,560.4,415.128,557.2,418.328,554,415.128,557.2,422.328" style="stroke:#181818;stroke-width:0.8000000000000002;"/></g><!--MD5=[de8c04e916ace2b6d4b94389f0e2ea5d]
link CourseService to CourseEnrollmentRepository--><g id="link_CourseService_CourseEnrollmentRepository"><path codeLine="45" d="M945.872,273.808 C944.152,287.12 942.048,303.44 940.256,317.304 " fill="none" id="CourseService-to-CourseEnrollmentRepository" style="stroke:#181818;stroke-width:0.8000000000000002;"/><polygon fill="#181818" points="939.712,321.528,943.8114,314.7993,940.2264,317.5612,937.4645,313.9763,939.712,321.528" style="stroke:#181818;stroke-width:0.8000000000000002;"/></g><!--MD5=[27ce655f3cda4a0e99f7359800406484]
@startuml
class ListExamGradesStudentUI {
    + listExamsGrades(selectedCourse: CourseDTO): Iterable<FormerExamDTO>
    + presentExamGrades(examGrades: Iterable<FormerExamDTO>): void
}

class ListStudentGradesController {
    + listExamsGrades(course: CourseDTO): Iterable<FormerExamDTO>
}

class ListStudentGradesService {
    + listExamsGrades(course: CourseDTO): Iterable<FormerExamDTO>
}

class FormerExamService {
    + listFormerExamsOfCourse(course: CourseDTO): Iterable<FormerExam>
}

class StudentService {
    + findStudentByUsername(username: string): Student
}

class CourseService {
    + coursesThatStudentIsEnrolledOn(studentId: string): Iterable<CourseDTO>
}

class StudentRepository {
    + findStudentByUserName(username: string): Student
}

class CourseEnrollmentRepository {
    + coursesThatStudentIsEnrolledOn(studentId: string): Iterable<Course>
}

class FormerExamRepository {
    + listFormerExamsOfCourse(course: Course): Iterable<FormerExam>
}

ListExamGradesStudentUI - -> ListStudentGradesController
ListStudentGradesController - -> ListStudentGradesService
ListStudentGradesService - -> FormerExamService
ListStudentGradesService - -> StudentService
ListStudentGradesService - -> CourseEnrollmentRepository
FormerExamService - -> FormerExamRepository
StudentService - -> StudentRepository
CourseService - -> CourseEnrollmentRepository

@enduml

PlantUML version 1.2022.12(Sun Oct 23 19:12:26 BST 2022)
(GPL source distribution)
Java Runtime: OpenJDK Runtime Environment
JVM: OpenJDK 64-Bit Server VM
Default Encoding: Cp1252
Language: en
Country: US
--></g></svg>