<?xml version="1.0" encoding="UTF-8" standalone="no"?><svg xmlns="http://www.w3.org/2000/svg" xmlns:xlink="http://www.w3.org/1999/xlink" contentStyleType="text/css" height="1901.4px" preserveAspectRatio="none" style="width:712px;height:1901px;background:#282828;" version="1.1" viewBox="0 0 712 1901" width="712.8px" zoomAndPan="magnify"><defs/><g><!--MD5=[df5f7f76be0a19fa1db0f289a7d91cae]
cluster <<agr Course>>--><g id="cluster_&lt;&lt;agr Course&gt;&gt;"><path d="M23.7,60.804 L150.9,60.804 A2.25,2.25 0 0 1 152.4,62.304 L156.6,80.4464 L273.6,80.4464 A1.5,1.5 0 0 1 275.1,81.9464 L275.1,581.904 A1.5,1.5 0 0 1 273.6,583.404 L23.7,583.404 A1.5,1.5 0 0 1 22.2,581.904 L22.2,62.304 A1.5,1.5 0 0 1 23.7,60.804 " fill="#282828" style="stroke:#33FF33;stroke-width:0.6;"/><line style="stroke:#33FF33;stroke-width:0.6;" x1="22.2" x2="156.6" y1="80.4464" y2="80.4464"/><text fill="#33FF33" font-family="Verdana" font-size="13.2" font-weight="bold" lengthAdjust="spacing" textLength="126.6" x="24.6" y="75.2749">&lt;&lt;agr Course&gt;&gt;</text></g><!--MD5=[5073b65cfab0f3b6c40e98381a5edf48]
cluster <<agr Student>>--><g id="cluster_&lt;&lt;agr Student&gt;&gt;"><path d="M404.4,829.404 L538.8,829.404 A2.25,2.25 0 0 1 540.3,830.904 L544.5,849.0464 L694.8,849.0464 A1.5,1.5 0 0 1 696.3,850.5464 L696.3,1226.904 A1.5,1.5 0 0 1 694.8,1228.404 L404.4,1228.404 A1.5,1.5 0 0 1 402.9,1226.904 L402.9,830.904 A1.5,1.5 0 0 1 404.4,829.404 " fill="#282828" style="stroke:#33FF33;stroke-width:0.6;"/><line style="stroke:#33FF33;stroke-width:0.6;" x1="402.9" x2="544.5" y1="849.0464" y2="849.0464"/><text fill="#33FF33" font-family="Verdana" font-size="13.2" font-weight="bold" lengthAdjust="spacing" textLength="133.8" x="405.3" y="843.8749">&lt;&lt;agr Student&gt;&gt;</text></g><!--MD5=[7a16ee65e8462556cdd13c1b3ceaccff]
cluster <<agr Exam>>--><g id="cluster_&lt;&lt;agr Exam&gt;&gt;"><path d="M407.4,191.004 L523.8,191.004 A2.25,2.25 0 0 1 525.3,192.504 L529.5,210.6464 L707.1,210.6464 A1.5,1.5 0 0 1 708.6,212.1464 L708.6,720.504 A1.5,1.5 0 0 1 707.1,722.004 L407.4,722.004 A1.5,1.5 0 0 1 405.9,720.504 L405.9,192.504 A1.5,1.5 0 0 1 407.4,191.004 " fill="#282828" style="stroke:#33FF33;stroke-width:0.6;"/><line style="stroke:#33FF33;stroke-width:0.6;" x1="405.9" x2="529.5" y1="210.6464" y2="210.6464"/><text fill="#33FF33" font-family="Verdana" font-size="13.2" font-weight="bold" lengthAdjust="spacing" textLength="115.8" x="408.3" y="205.4749">&lt;&lt;agr Exam&gt;&gt;</text></g><!--MD5=[d565857c06193d6dd36e8125ae2559c6]
cluster <<agr ExamSection>>--><g id="cluster_&lt;&lt;agr ExamSection&gt;&gt;"><path d="M189.6,744.804 L361.8,744.804 A2.25,2.25 0 0 1 363.3,746.304 L367.5,764.4464 L521.1,764.4464 A1.5,1.5 0 0 1 522.6,765.9464 L522.6,813.504 A1.5,1.5 0 0 1 521.1,815.004 L189.6,815.004 A1.5,1.5 0 0 1 188.1,813.504 L188.1,746.304 A1.5,1.5 0 0 1 189.6,744.804 " fill="#282828" style="stroke:#33FF33;stroke-width:0.6;"/><line style="stroke:#33FF33;stroke-width:0.6;" x1="188.1" x2="367.5" y1="764.4464" y2="764.4464"/><text fill="#33FF33" font-family="Verdana" font-size="13.2" font-weight="bold" lengthAdjust="spacing" textLength="171.6" x="190.5" y="759.2749">&lt;&lt;agr ExamSection&gt;&gt;</text></g><!--MD5=[f5b525c279632c371317a3c8e4934d76]
cluster <<agr ExamQuestion>>--><g id="cluster_&lt;&lt;agr ExamQuestion&gt;&gt;"><path d="M8.1,1366.404 L191.7,1366.404 A2.25,2.25 0 0 1 193.2,1367.904 L197.4,1386.0464 L302.7,1386.0464 A1.5,1.5 0 0 1 304.2,1387.5464 L304.2,1895.904 A1.5,1.5 0 0 1 302.7,1897.404 L8.1,1897.404 A1.5,1.5 0 0 1 6.6,1895.904 L6.6,1367.904 A1.5,1.5 0 0 1 8.1,1366.404 " fill="#282828" style="stroke:#33FF33;stroke-width:0.6;"/><line style="stroke:#33FF33;stroke-width:0.6;" x1="6.6" x2="197.4" y1="1386.0464" y2="1386.0464"/><text fill="#33FF33" font-family="Verdana" font-size="13.2" font-weight="bold" lengthAdjust="spacing" textLength="183" x="9" y="1380.8749">&lt;&lt;agr ExamQuestion&gt;&gt;</text></g><!--MD5=[34348a3ca7d88cc6c9c423a4c10ffa0e]
cluster <<agr FormerExam>>--><g id="cluster_&lt;&lt;agr FormerExam&gt;&gt;"><path d="M190.2,1242.804 L360,1242.804 A2.25,2.25 0 0 1 361.5,1244.304 L365.7,1262.4464 L476.4,1262.4464 A1.5,1.5 0 0 1 477.9,1263.9464 L477.9,1311.504 A1.5,1.5 0 0 1 476.4,1313.004 L190.2,1313.004 A1.5,1.5 0 0 1 188.7,1311.504 L188.7,1244.304 A1.5,1.5 0 0 1 190.2,1242.804 " fill="#282828" style="stroke:#33FF33;stroke-width:0.6;"/><line style="stroke:#33FF33;stroke-width:0.6;" x1="188.7" x2="365.7" y1="1262.4464" y2="1262.4464"/><text fill="#33FF33" font-family="Verdana" font-size="13.2" font-weight="bold" lengthAdjust="spacing" textLength="169.2" x="191.1" y="1257.2749">&lt;&lt;agr FormerExam&gt;&gt;</text></g><!--MD5=[4066b0363c5a91ff3b6e03e0428953a9]
class Course--><g id="elem_Course"><rect codeLine="8" fill="#282828" height="33.7096" id="Course" rx="1.5" ry="1.5" style="stroke:#33FF33;stroke-width:0.6;" width="46.8" x="31.8" y="278.604"/><ellipse cx="39.6" cy="295.4588" fill="#282828" rx="5.4" ry="5.4" style="stroke:#33FF33;stroke-width:0.6;"/><path d="M40.8,293.3588 Q40.9219,293.0588 41.0625,292.9088 Q41.2031,292.7588 41.3625,292.7588 Q41.6438,292.7588 41.8219,292.9275 Q42,293.0963 42,293.49 L42,294.4275 Q42,294.8213 41.8313,294.99 Q41.6625,295.1588 41.4,295.1588 Q41.1656,295.1588 41.0156,295.0557 Q40.8656,294.9525 40.8,294.6807 Q40.7719,294.4932 40.6687,294.39 Q40.4812,294.1932 40.1438,294.0807 Q39.8063,293.9588 39.4688,293.9588 Q39.0469,293.9588 38.6906,294.1275 Q38.3438,294.2963 38.0719,294.6713 Q37.8,295.0463 37.8,295.5619 L37.8,296.115 Q37.8,296.7338 38.3063,297.1463 Q38.8125,297.5588 39.7125,297.5588 Q40.2469,297.5588 40.6219,297.4369 Q40.8375,297.3713 41.0813,297.1557 Q41.2406,297.0338 41.325,296.9963 Q41.4094,296.9588 41.5125,296.9588 Q41.7094,296.9588 41.85,297.1182 Q42,297.2682 42,297.4838 Q42,297.69 41.7937,297.9338 Q41.4938,298.29 41.0156,298.4869 Q40.3875,298.7588 39.6188,298.7588 Q38.7188,298.7588 37.9969,298.4025 Q37.4156,298.1213 37.0031,297.5119 Q36.6,296.9025 36.6,296.1807 L36.6,295.5244 Q36.6,294.7744 36.9563,294.1182 Q37.3219,293.4619 37.95,293.115 Q38.5875,292.7588 39.3,292.7588 Q39.7312,292.7588 40.1062,292.9088 Q40.4812,293.0588 40.8,293.3588 Z " fill="#33FF33"/><text fill="#33FF33" font-family="Verdana" font-size="7.2" font-style="italic" lengthAdjust="spacing" textLength="30.6" x="46.5" y="288.8427">«entity»</text><text fill="#33FF33" font-family="Verdana" font-size="7.2" font-style="italic" lengthAdjust="spacing" textLength="24" x="49.8" y="297.5931">«root»</text><text fill="#33FF33" font-family="Verdana" font-size="8.4" lengthAdjust="spacing" textLength="30" x="46.8" y="307.5499">Course</text></g><!--MD5=[ba580110b1777f63e0f1dfe3fcefdac0]
class Code--><g id="elem_Code"><rect codeLine="9" fill="#282828" height="24.9592" id="Code" rx="1.5" ry="1.5" style="stroke:#33FF33;stroke-width:0.6;" width="38.4" x="214.2" y="441.804"/><ellipse cx="222" cy="454.2836" fill="#282828" rx="5.4" ry="5.4" style="stroke:#33FF33;stroke-width:0.6;"/><path d="M223.2,452.1836 Q223.3219,451.8836 223.4625,451.7336 Q223.6031,451.5836 223.7625,451.5836 Q224.0438,451.5836 224.2219,451.7523 Q224.4,451.9211 224.4,452.3148 L224.4,453.2523 Q224.4,453.6461 224.2313,453.8148 Q224.0625,453.9836 223.8,453.9836 Q223.5656,453.9836 223.4156,453.8805 Q223.2656,453.7773 223.2,453.5055 Q223.1719,453.318 223.0688,453.2148 Q222.8813,453.018 222.5438,452.9055 Q222.2062,452.7836 221.8688,452.7836 Q221.4469,452.7836 221.0906,452.9523 Q220.7438,453.1211 220.4719,453.4961 Q220.2,453.8711 220.2,454.3867 L220.2,454.9398 Q220.2,455.5586 220.7062,455.9711 Q221.2125,456.3836 222.1125,456.3836 Q222.6469,456.3836 223.0219,456.2617 Q223.2375,456.1961 223.4813,455.9805 Q223.6406,455.8586 223.725,455.8211 Q223.8094,455.7836 223.9125,455.7836 Q224.1094,455.7836 224.25,455.943 Q224.4,456.093 224.4,456.3086 Q224.4,456.5148 224.1938,456.7586 Q223.8937,457.1148 223.4156,457.3117 Q222.7875,457.5836 222.0187,457.5836 Q221.1188,457.5836 220.3969,457.2273 Q219.8156,456.9461 219.4031,456.3367 Q219,455.7273 219,455.0055 L219,454.3492 Q219,453.5992 219.3563,452.943 Q219.7219,452.2867 220.35,451.9398 Q220.9875,451.5836 221.7,451.5836 Q222.1313,451.5836 222.5063,451.7336 Q222.8813,451.8836 223.2,452.1836 Z " fill="#33FF33"/><text fill="#33FF33" font-family="Verdana" font-size="7.2" font-style="italic" lengthAdjust="spacing" textLength="18" x="231" y="452.0427">«vo»</text><text fill="#33FF33" font-family="Verdana" font-size="8.4" lengthAdjust="spacing" textLength="21.6" x="229.2" y="461.9995">Code</text></g><!--MD5=[009695af4e54f3bba8a9c60dca3e1c94]
class Description--><g id="elem_Description"><rect codeLine="10" fill="#282828" height="24.9592" id="Description" rx="1.5" ry="1.5" style="stroke:#33FF33;stroke-width:0.6;" width="64.2" x="201.3" y="326.604"/><ellipse cx="209.1" cy="339.0836" fill="#282828" rx="5.4" ry="5.4" style="stroke:#33FF33;stroke-width:0.6;"/><path d="M210.3,336.9836 Q210.4219,336.6836 210.5625,336.5336 Q210.7031,336.3836 210.8625,336.3836 Q211.1437,336.3836 211.3219,336.5523 Q211.5,336.7211 211.5,337.1148 L211.5,338.0523 Q211.5,338.4461 211.3312,338.6148 Q211.1625,338.7836 210.9,338.7836 Q210.6656,338.7836 210.5156,338.6805 Q210.3656,338.5773 210.3,338.3055 Q210.2719,338.118 210.1688,338.0148 Q209.9813,337.818 209.6437,337.7055 Q209.3063,337.5836 208.9688,337.5836 Q208.5469,337.5836 208.1906,337.7523 Q207.8438,337.9211 207.5719,338.2961 Q207.3,338.6711 207.3,339.1867 L207.3,339.7398 Q207.3,340.3586 207.8063,340.7711 Q208.3125,341.1836 209.2125,341.1836 Q209.7469,341.1836 210.1219,341.0617 Q210.3375,340.9961 210.5812,340.7805 Q210.7406,340.6586 210.825,340.6211 Q210.9094,340.5836 211.0125,340.5836 Q211.2094,340.5836 211.35,340.743 Q211.5,340.893 211.5,341.1086 Q211.5,341.3148 211.2938,341.5586 Q210.9938,341.9148 210.5156,342.1117 Q209.8875,342.3836 209.1188,342.3836 Q208.2188,342.3836 207.4969,342.0273 Q206.9156,341.7461 206.5031,341.1367 Q206.1,340.5273 206.1,339.8055 L206.1,339.1492 Q206.1,338.3992 206.4562,337.743 Q206.8219,337.0867 207.45,336.7398 Q208.0875,336.3836 208.8,336.3836 Q209.2313,336.3836 209.6063,336.5336 Q209.9813,336.6836 210.3,336.9836 Z " fill="#33FF33"/><text fill="#33FF33" font-family="Verdana" font-size="7.2" font-style="italic" lengthAdjust="spacing" textLength="18" x="231" y="336.8427">«vo»</text><text fill="#33FF33" font-family="Verdana" font-size="8.4" lengthAdjust="spacing" textLength="47.4" x="216.3" y="346.7995">Description</text></g><!--MD5=[90111e5cdc788a7ef73a3273c23dcc2b]
class Title--><g id="elem_Title"><rect codeLine="11" fill="#282828" height="24.9592" id="Title" rx="1.5" ry="1.5" style="stroke:#33FF33;stroke-width:0.6;" width="34.2" x="216.3" y="211.404"/><ellipse cx="224.1" cy="223.8836" fill="#282828" rx="5.4" ry="5.4" style="stroke:#33FF33;stroke-width:0.6;"/><path d="M225.3,221.7836 Q225.4219,221.4836 225.5625,221.3336 Q225.7031,221.1836 225.8625,221.1836 Q226.1437,221.1836 226.3219,221.3523 Q226.5,221.5211 226.5,221.9148 L226.5,222.8523 Q226.5,223.2461 226.3312,223.4148 Q226.1625,223.5836 225.9,223.5836 Q225.6656,223.5836 225.5156,223.4805 Q225.3656,223.3773 225.3,223.1055 Q225.2719,222.918 225.1688,222.8148 Q224.9813,222.618 224.6437,222.5055 Q224.3063,222.3836 223.9688,222.3836 Q223.5469,222.3836 223.1906,222.5523 Q222.8438,222.7211 222.5719,223.0961 Q222.3,223.4711 222.3,223.9867 L222.3,224.5398 Q222.3,225.1586 222.8063,225.5711 Q223.3125,225.9836 224.2125,225.9836 Q224.7469,225.9836 225.1219,225.8617 Q225.3375,225.7961 225.5812,225.5805 Q225.7406,225.4586 225.825,225.4211 Q225.9094,225.3836 226.0125,225.3836 Q226.2094,225.3836 226.35,225.543 Q226.5,225.693 226.5,225.9086 Q226.5,226.1148 226.2938,226.3586 Q225.9938,226.7148 225.5156,226.9117 Q224.8875,227.1836 224.1188,227.1836 Q223.2188,227.1836 222.4969,226.8273 Q221.9156,226.5461 221.5031,225.9367 Q221.1,225.3273 221.1,224.6055 L221.1,223.9492 Q221.1,223.1992 221.4562,222.543 Q221.8219,221.8867 222.45,221.5398 Q223.0875,221.1836 223.8,221.1836 Q224.2313,221.1836 224.6063,221.3336 Q224.9813,221.4836 225.3,221.7836 Z " fill="#33FF33"/><text fill="#33FF33" font-family="Verdana" font-size="7.2" font-style="italic" lengthAdjust="spacing" textLength="18" x="231" y="221.6427">«vo»</text><text fill="#33FF33" font-family="Verdana" font-size="8.4" lengthAdjust="spacing" textLength="17.4" x="231.3" y="231.5995">Title</text></g><!--MD5=[60d6b92408f98aed8df94d5c6e04aa63]
class State--><g id="elem_State"><rect codeLine="12" fill="#282828" height="33.7096" id="State" rx="1.5" ry="1.5" style="stroke:#33FF33;stroke-width:0.6;" width="45" x="210.9" y="87.804"/><ellipse cx="218.7" cy="104.6588" fill="#282828" rx="5.4" ry="5.4" style="stroke:#33FF33;stroke-width:0.6;"/><path d="M219.9,102.5588 Q220.0219,102.2588 220.1625,102.1088 Q220.3031,101.9588 220.4625,101.9588 Q220.7438,101.9588 220.9219,102.1275 Q221.1,102.2963 221.1,102.69 L221.1,103.6275 Q221.1,104.0213 220.9313,104.19 Q220.7625,104.3588 220.5,104.3588 Q220.2656,104.3588 220.1156,104.2557 Q219.9656,104.1525 219.9,103.8807 Q219.8719,103.6932 219.7687,103.59 Q219.5812,103.3932 219.2438,103.2807 Q218.9063,103.1588 218.5688,103.1588 Q218.1469,103.1588 217.7906,103.3275 Q217.4438,103.4963 217.1719,103.8713 Q216.9,104.2463 216.9,104.7619 L216.9,105.315 Q216.9,105.9338 217.4063,106.3463 Q217.9125,106.7588 218.8125,106.7588 Q219.3469,106.7588 219.7219,106.6369 Q219.9375,106.5713 220.1813,106.3557 Q220.3406,106.2338 220.425,106.1963 Q220.5094,106.1588 220.6125,106.1588 Q220.8094,106.1588 220.95,106.3182 Q221.1,106.4682 221.1,106.6838 Q221.1,106.89 220.8937,107.1338 Q220.5938,107.49 220.1156,107.6869 Q219.4875,107.9588 218.7188,107.9588 Q217.8188,107.9588 217.0969,107.6025 Q216.5156,107.3213 216.1031,106.7119 Q215.7,106.1025 215.7,105.3807 L215.7,104.7244 Q215.7,103.9744 216.0563,103.3182 Q216.4219,102.6619 217.05,102.315 Q217.6875,101.9588 218.4,101.9588 Q218.8312,101.9588 219.2062,102.1088 Q219.5812,102.2588 219.9,102.5588 Z " fill="#33FF33"/><text fill="#33FF33" font-family="Verdana" font-size="7.2" font-style="italic" lengthAdjust="spacing" textLength="18" x="231" y="98.0427">«vo»</text><text fill="#33FF33" font-family="Verdana" font-size="7.2" font-style="italic" lengthAdjust="spacing" textLength="30.6" x="224.7" y="106.7931">«enum»</text><text fill="#33FF33" font-family="Verdana" font-size="8.4" lengthAdjust="spacing" textLength="22.8" x="228.6" y="116.7499">State</text></g><!--MD5=[61a83f88cb8b7d3a80bc8c481f3736bf]
class Teacher--><g id="elem_Teacher"><rect fill="#282828" height="16.8" id="Teacher" rx="1.5" ry="1.5" style="stroke:#33FF33;stroke-width:0.6;" width="49.8" x="208.5" y="557.004"/><ellipse cx="216.3" cy="565.404" fill="#282828" rx="5.4" ry="5.4" style="stroke:#33FF33;stroke-width:0.6;"/><path d="M217.5,563.304 Q217.6219,563.004 217.7625,562.854 Q217.9031,562.704 218.0625,562.704 Q218.3438,562.704 218.5219,562.8728 Q218.7,563.0415 218.7,563.4353 L218.7,564.3728 Q218.7,564.7665 218.5313,564.9353 Q218.3625,565.104 218.1,565.104 Q217.8656,565.104 217.7156,565.0009 Q217.5656,564.8978 217.5,564.6259 Q217.4719,564.4384 217.3688,564.3353 Q217.1813,564.1384 216.8438,564.0259 Q216.5063,563.904 216.1688,563.904 Q215.7469,563.904 215.3906,564.0728 Q215.0438,564.2415 214.7719,564.6165 Q214.5,564.9915 214.5,565.5071 L214.5,566.0603 Q214.5,566.679 215.0063,567.0915 Q215.5125,567.504 216.4125,567.504 Q216.9469,567.504 217.3219,567.3821 Q217.5375,567.3165 217.7813,567.1009 Q217.9406,566.979 218.025,566.9415 Q218.1094,566.904 218.2125,566.904 Q218.4094,566.904 218.55,567.0634 Q218.7,567.2134 218.7,567.429 Q218.7,567.6353 218.4938,567.879 Q218.1938,568.2353 217.7156,568.4321 Q217.0875,568.704 216.3188,568.704 Q215.4188,568.704 214.6969,568.3478 Q214.1156,568.0665 213.7031,567.4571 Q213.3,566.8478 213.3,566.1259 L213.3,565.4696 Q213.3,564.7196 213.6563,564.0634 Q214.0219,563.4071 214.65,563.0603 Q215.2875,562.704 216,562.704 Q216.4313,562.704 216.8063,562.854 Q217.1813,563.004 217.5,563.304 Z " fill="#33FF33"/><text fill="#33FF33" font-family="Verdana" font-size="8.4" lengthAdjust="spacing" textLength="33" x="223.5" y="568.7447">Teacher</text></g><!--MD5=[d6181cb537bdc20c0a3007a98a56832d]
class Student--><g id="elem_Student"><rect codeLine="24" fill="#282828" height="33.7096" id="Student" rx="1.5" ry="1.5" style="stroke:#33FF33;stroke-width:0.6;" width="51" x="412.5" y="1078.404"/><ellipse cx="420.3" cy="1095.2588" fill="#282828" rx="5.4" ry="5.4" style="stroke:#33FF33;stroke-width:0.6;"/><path d="M421.5,1093.1588 Q421.6219,1092.8588 421.7625,1092.7088 Q421.9031,1092.5588 422.0625,1092.5588 Q422.3438,1092.5588 422.5219,1092.7275 Q422.7,1092.8963 422.7,1093.29 L422.7,1094.2275 Q422.7,1094.6213 422.5313,1094.79 Q422.3625,1094.9588 422.1,1094.9588 Q421.8656,1094.9588 421.7156,1094.8557 Q421.5656,1094.7525 421.5,1094.4807 Q421.4719,1094.2932 421.3688,1094.19 Q421.1813,1093.9932 420.8438,1093.8807 Q420.5062,1093.7588 420.1688,1093.7588 Q419.7469,1093.7588 419.3906,1093.9275 Q419.0438,1094.0963 418.7719,1094.4713 Q418.5,1094.8463 418.5,1095.3619 L418.5,1095.915 Q418.5,1096.5338 419.0062,1096.9463 Q419.5125,1097.3588 420.4125,1097.3588 Q420.9469,1097.3588 421.3219,1097.2369 Q421.5375,1097.1713 421.7813,1096.9557 Q421.9406,1096.8338 422.025,1096.7963 Q422.1094,1096.7588 422.2125,1096.7588 Q422.4094,1096.7588 422.55,1096.9182 Q422.7,1097.0682 422.7,1097.2838 Q422.7,1097.49 422.4938,1097.7338 Q422.1937,1098.09 421.7156,1098.2869 Q421.0875,1098.5588 420.3187,1098.5588 Q419.4188,1098.5588 418.6969,1098.2025 Q418.1156,1097.9213 417.7031,1097.3119 Q417.3,1096.7025 417.3,1095.9807 L417.3,1095.3244 Q417.3,1094.5744 417.6563,1093.9182 Q418.0219,1093.2619 418.65,1092.915 Q419.2875,1092.5588 420,1092.5588 Q420.4313,1092.5588 420.8063,1092.7088 Q421.1813,1092.8588 421.5,1093.1588 Z " fill="#33FF33"/><text fill="#33FF33" font-family="Verdana" font-size="7.2" font-style="italic" lengthAdjust="spacing" textLength="30.6" x="429.3" y="1088.6427">«entity»</text><text fill="#33FF33" font-family="Verdana" font-size="7.2" font-style="italic" lengthAdjust="spacing" textLength="24" x="432.6" y="1097.3931">«root»</text><text fill="#33FF33" font-family="Verdana" font-size="8.4" lengthAdjust="spacing" textLength="34.2" x="427.5" y="1107.3499">Student</text></g><!--MD5=[5243e318521b02aa88a50eadb44ea622]
class MechanographicalNumber--><g id="elem_MechanographicalNumber"><rect codeLine="25" fill="#282828" height="24.9592" id="MechanographicalNumber" rx="1.5" ry="1.5" style="stroke:#33FF33;stroke-width:0.6;" width="123.6" x="563.1" y="971.604"/><ellipse cx="570.9" cy="984.0836" fill="#282828" rx="5.4" ry="5.4" style="stroke:#33FF33;stroke-width:0.6;"/><path d="M572.1,981.9836 Q572.2219,981.6836 572.3625,981.5336 Q572.5031,981.3836 572.6625,981.3836 Q572.9438,981.3836 573.1219,981.5523 Q573.3,981.7211 573.3,982.1148 L573.3,983.0523 Q573.3,983.4461 573.1313,983.6148 Q572.9625,983.7836 572.7,983.7836 Q572.4656,983.7836 572.3156,983.6805 Q572.1656,983.5773 572.1,983.3055 Q572.0719,983.118 571.9688,983.0148 Q571.7813,982.818 571.4438,982.7055 Q571.1062,982.5836 570.7688,982.5836 Q570.3469,982.5836 569.9906,982.7523 Q569.6438,982.9211 569.3719,983.2961 Q569.1,983.6711 569.1,984.1867 L569.1,984.7398 Q569.1,985.3586 569.6062,985.7711 Q570.1125,986.1836 571.0125,986.1836 Q571.5469,986.1836 571.9219,986.0617 Q572.1375,985.9961 572.3813,985.7805 Q572.5406,985.6586 572.625,985.6211 Q572.7094,985.5836 572.8125,985.5836 Q573.0094,985.5836 573.15,985.743 Q573.3,985.893 573.3,986.1086 Q573.3,986.3148 573.0938,986.5586 Q572.7937,986.9148 572.3156,987.1117 Q571.6875,987.3836 570.9187,987.3836 Q570.0188,987.3836 569.2969,987.0273 Q568.7156,986.7461 568.3031,986.1367 Q567.9,985.5273 567.9,984.8055 L567.9,984.1492 Q567.9,983.3992 568.2563,982.743 Q568.6219,982.0867 569.25,981.7398 Q569.8875,981.3836 570.6,981.3836 Q571.0313,981.3836 571.4063,981.5336 Q571.7813,981.6836 572.1,981.9836 Z " fill="#33FF33"/><text fill="#33FF33" font-family="Verdana" font-size="7.2" font-style="italic" lengthAdjust="spacing" textLength="18" x="622.5" y="981.8427">«vo»</text><text fill="#33FF33" font-family="Verdana" font-size="8.4" lengthAdjust="spacing" textLength="106.8" x="578.1" y="991.7995">MechanographicalNumber</text></g><!--MD5=[97467e26ffde9778fa457b034074f959]
class StudentTaxPayerNumber--><g id="elem_StudentTaxPayerNumber"><rect codeLine="26" fill="#282828" height="24.9592" id="StudentTaxPayerNumber" rx="1.5" ry="1.5" style="stroke:#33FF33;stroke-width:0.6;" width="122.4" x="563.7" y="856.404"/><ellipse cx="571.5" cy="868.8836" fill="#282828" rx="5.4" ry="5.4" style="stroke:#33FF33;stroke-width:0.6;"/><path d="M572.7,866.7836 Q572.8219,866.4836 572.9625,866.3336 Q573.1031,866.1836 573.2625,866.1836 Q573.5437,866.1836 573.7219,866.3523 Q573.9,866.5211 573.9,866.9148 L573.9,867.8523 Q573.9,868.2461 573.7312,868.4148 Q573.5625,868.5836 573.3,868.5836 Q573.0656,868.5836 572.9156,868.4805 Q572.7656,868.3773 572.7,868.1055 Q572.6719,867.918 572.5688,867.8148 Q572.3813,867.618 572.0437,867.5055 Q571.7063,867.3836 571.3688,867.3836 Q570.9469,867.3836 570.5906,867.5523 Q570.2438,867.7211 569.9719,868.0961 Q569.7,868.4711 569.7,868.9867 L569.7,869.5398 Q569.7,870.1586 570.2063,870.5711 Q570.7125,870.9836 571.6125,870.9836 Q572.1469,870.9836 572.5219,870.8617 Q572.7375,870.7961 572.9812,870.5805 Q573.1406,870.4586 573.225,870.4211 Q573.3094,870.3836 573.4125,870.3836 Q573.6094,870.3836 573.75,870.543 Q573.9,870.693 573.9,870.9086 Q573.9,871.1148 573.6938,871.3586 Q573.3938,871.7148 572.9156,871.9117 Q572.2875,872.1836 571.5188,872.1836 Q570.6188,872.1836 569.8969,871.8273 Q569.3156,871.5461 568.9031,870.9367 Q568.5,870.3273 568.5,869.6055 L568.5,868.9492 Q568.5,868.1992 568.8562,867.543 Q569.2219,866.8867 569.85,866.5398 Q570.4875,866.1836 571.2,866.1836 Q571.6313,866.1836 572.0063,866.3336 Q572.3813,866.4836 572.7,866.7836 Z " fill="#33FF33"/><text fill="#33FF33" font-family="Verdana" font-size="7.2" font-style="italic" lengthAdjust="spacing" textLength="18" x="622.5" y="866.6427">«vo»</text><text fill="#33FF33" font-family="Verdana" font-size="8.4" lengthAdjust="spacing" textLength="105.6" x="578.7" y="876.5995">StudentTaxPayerNumber</text></g><!--MD5=[29dbd85e324f1fec9ac2bda1d300b741]
class StudentDateOfBirth--><g id="elem_StudentDateOfBirth"><rect codeLine="27" fill="#282828" height="24.9592" id="StudentDateOfBirth" rx="1.5" ry="1.5" style="stroke:#33FF33;stroke-width:0.6;" width="100.8" x="574.5" y="1193.604"/><ellipse cx="582.3" cy="1206.0836" fill="#282828" rx="5.4" ry="5.4" style="stroke:#33FF33;stroke-width:0.6;"/><path d="M583.5,1203.9836 Q583.6219,1203.6836 583.7625,1203.5336 Q583.9031,1203.3836 584.0625,1203.3836 Q584.3438,1203.3836 584.5219,1203.5523 Q584.7,1203.7211 584.7,1204.1148 L584.7,1205.0523 Q584.7,1205.4461 584.5313,1205.6148 Q584.3625,1205.7836 584.1,1205.7836 Q583.8656,1205.7836 583.7156,1205.6805 Q583.5656,1205.5773 583.5,1205.3055 Q583.4719,1205.118 583.3688,1205.0148 Q583.1813,1204.818 582.8438,1204.7055 Q582.5063,1204.5836 582.1687,1204.5836 Q581.7469,1204.5836 581.3906,1204.7523 Q581.0437,1204.9211 580.7719,1205.2961 Q580.5,1205.6711 580.5,1206.1867 L580.5,1206.7398 Q580.5,1207.3586 581.0063,1207.7711 Q581.5125,1208.1836 582.4125,1208.1836 Q582.9469,1208.1836 583.3219,1208.0617 Q583.5375,1207.9961 583.7813,1207.7805 Q583.9406,1207.6586 584.025,1207.6211 Q584.1094,1207.5836 584.2125,1207.5836 Q584.4094,1207.5836 584.55,1207.743 Q584.7,1207.893 584.7,1208.1086 Q584.7,1208.3148 584.4938,1208.5586 Q584.1938,1208.9148 583.7156,1209.1117 Q583.0875,1209.3836 582.3188,1209.3836 Q581.4187,1209.3836 580.6969,1209.0273 Q580.1156,1208.7461 579.7031,1208.1367 Q579.3,1207.5273 579.3,1206.8055 L579.3,1206.1492 Q579.3,1205.3992 579.6563,1204.743 Q580.0219,1204.0867 580.65,1203.7398 Q581.2875,1203.3836 582,1203.3836 Q582.4313,1203.3836 582.8063,1203.5336 Q583.1813,1203.6836 583.5,1203.9836 Z " fill="#33FF33"/><text fill="#33FF33" font-family="Verdana" font-size="7.2" font-style="italic" lengthAdjust="spacing" textLength="18" x="622.5" y="1203.8427">«vo»</text><text fill="#33FF33" font-family="Verdana" font-size="8.4" lengthAdjust="spacing" textLength="84" x="589.5" y="1213.7995">StudentDateOfBirth</text></g><!--MD5=[bc064d979c32666ae52f3d7624591b7b]
class SystemUser--><g id="elem_SystemUser"><rect fill="#282828" height="16.8" id="SystemUser" rx="1.5" ry="1.5" style="stroke:#33FF33;stroke-width:0.6;" width="67.8" x="591" y="1086.804"/><ellipse cx="598.8" cy="1095.204" fill="#282828" rx="5.4" ry="5.4" style="stroke:#33FF33;stroke-width:0.6;"/><path d="M600,1093.104 Q600.1219,1092.804 600.2625,1092.654 Q600.4031,1092.504 600.5625,1092.504 Q600.8438,1092.504 601.0219,1092.6728 Q601.2,1092.8415 601.2,1093.2353 L601.2,1094.1728 Q601.2,1094.5665 601.0313,1094.7353 Q600.8625,1094.904 600.6,1094.904 Q600.3656,1094.904 600.2156,1094.8009 Q600.0656,1094.6978 600,1094.4259 Q599.9719,1094.2384 599.8688,1094.1353 Q599.6813,1093.9384 599.3438,1093.8259 Q599.0063,1093.704 598.6687,1093.704 Q598.2469,1093.704 597.8906,1093.8728 Q597.5437,1094.0415 597.2719,1094.4165 Q597,1094.7915 597,1095.3071 L597,1095.8603 Q597,1096.479 597.5063,1096.8915 Q598.0125,1097.304 598.9125,1097.304 Q599.4469,1097.304 599.8219,1097.1821 Q600.0375,1097.1165 600.2813,1096.9009 Q600.4406,1096.779 600.525,1096.7415 Q600.6094,1096.704 600.7125,1096.704 Q600.9094,1096.704 601.05,1096.8634 Q601.2,1097.0134 601.2,1097.229 Q601.2,1097.4353 600.9938,1097.679 Q600.6938,1098.0353 600.2156,1098.2321 Q599.5875,1098.504 598.8188,1098.504 Q597.9187,1098.504 597.1969,1098.1478 Q596.6156,1097.8665 596.2031,1097.2571 Q595.8,1096.6478 595.8,1095.9259 L595.8,1095.2696 Q595.8,1094.5196 596.1563,1093.8634 Q596.5219,1093.2071 597.15,1092.8603 Q597.7875,1092.504 598.5,1092.504 Q598.9313,1092.504 599.3063,1092.654 Q599.6813,1092.804 600,1093.104 Z " fill="#33FF33"/><text fill="#33FF33" font-family="Verdana" font-size="8.4" lengthAdjust="spacing" textLength="51" x="606" y="1098.5447">SystemUser</text></g><!--MD5=[4ec975f1641a34b3290014bf4027a644]
class Exam--><g id="elem_Exam"><rect codeLine="37" fill="#282828" height="33.7096" id="Exam" rx="1.5" ry="1.5" style="stroke:#33FF33;stroke-width:0.6;" width="45" x="415.5" y="448.404"/><ellipse cx="423.3" cy="465.2588" fill="#282828" rx="5.4" ry="5.4" style="stroke:#33FF33;stroke-width:0.6;"/><path d="M424.5,463.1588 Q424.6219,462.8588 424.7625,462.7088 Q424.9031,462.5588 425.0625,462.5588 Q425.3438,462.5588 425.5219,462.7275 Q425.7,462.8963 425.7,463.29 L425.7,464.2275 Q425.7,464.6213 425.5313,464.79 Q425.3625,464.9588 425.1,464.9588 Q424.8656,464.9588 424.7156,464.8557 Q424.5656,464.7525 424.5,464.4807 Q424.4719,464.2932 424.3688,464.19 Q424.1813,463.9932 423.8438,463.8807 Q423.5062,463.7588 423.1688,463.7588 Q422.7469,463.7588 422.3906,463.9275 Q422.0438,464.0963 421.7719,464.4713 Q421.5,464.8463 421.5,465.3619 L421.5,465.915 Q421.5,466.5338 422.0062,466.9463 Q422.5125,467.3588 423.4125,467.3588 Q423.9469,467.3588 424.3219,467.2369 Q424.5375,467.1713 424.7813,466.9557 Q424.9406,466.8338 425.025,466.7963 Q425.1094,466.7588 425.2125,466.7588 Q425.4094,466.7588 425.55,466.9182 Q425.7,467.0682 425.7,467.2838 Q425.7,467.49 425.4938,467.7338 Q425.1937,468.09 424.7156,468.2869 Q424.0875,468.5588 423.3187,468.5588 Q422.4188,468.5588 421.6969,468.2025 Q421.1156,467.9213 420.7031,467.3119 Q420.3,466.7025 420.3,465.9807 L420.3,465.3244 Q420.3,464.5744 420.6563,463.9182 Q421.0219,463.2619 421.65,462.915 Q422.2875,462.5588 423,462.5588 Q423.4313,462.5588 423.8063,462.7088 Q424.1813,462.8588 424.5,463.1588 Z " fill="#33FF33"/><text fill="#33FF33" font-family="Verdana" font-size="7.2" font-style="italic" lengthAdjust="spacing" textLength="30.6" x="429.3" y="458.6427">«entity»</text><text fill="#33FF33" font-family="Verdana" font-size="7.2" font-style="italic" lengthAdjust="spacing" textLength="24" x="432.6" y="467.3931">«root»</text><text fill="#33FF33" font-family="Verdana" font-size="8.4" lengthAdjust="spacing" textLength="23.4" x="432.9" y="477.3499">Exam</text></g><!--MD5=[785478287c1c4e79a238ed060345b180]
class ExamType--><g id="elem_ExamType"><rect codeLine="38" fill="#282828" height="33.7096" id="ExamType" rx="1.5" ry="1.5" style="stroke:#33FF33;stroke-width:0.6;" width="60.6" x="594.6" y="448.404"/><ellipse cx="602.4" cy="465.2588" fill="#282828" rx="5.4" ry="5.4" style="stroke:#33FF33;stroke-width:0.6;"/><path d="M603.6,463.1588 Q603.7219,462.8588 603.8625,462.7088 Q604.0031,462.5588 604.1625,462.5588 Q604.4438,462.5588 604.6219,462.7275 Q604.8,462.8963 604.8,463.29 L604.8,464.2275 Q604.8,464.6213 604.6313,464.79 Q604.4625,464.9588 604.2,464.9588 Q603.9656,464.9588 603.8156,464.8557 Q603.6656,464.7525 603.6,464.4807 Q603.5719,464.2932 603.4688,464.19 Q603.2813,463.9932 602.9438,463.8807 Q602.6062,463.7588 602.2688,463.7588 Q601.8469,463.7588 601.4906,463.9275 Q601.1438,464.0963 600.8719,464.4713 Q600.6,464.8463 600.6,465.3619 L600.6,465.915 Q600.6,466.5338 601.1062,466.9463 Q601.6125,467.3588 602.5125,467.3588 Q603.0469,467.3588 603.4219,467.2369 Q603.6375,467.1713 603.8813,466.9557 Q604.0406,466.8338 604.125,466.7963 Q604.2094,466.7588 604.3125,466.7588 Q604.5094,466.7588 604.65,466.9182 Q604.8,467.0682 604.8,467.2838 Q604.8,467.49 604.5938,467.7338 Q604.2937,468.09 603.8156,468.2869 Q603.1875,468.5588 602.4187,468.5588 Q601.5188,468.5588 600.7969,468.2025 Q600.2156,467.9213 599.8031,467.3119 Q599.4,466.7025 599.4,465.9807 L599.4,465.3244 Q599.4,464.5744 599.7563,463.9182 Q600.1219,463.2619 600.75,462.915 Q601.3875,462.5588 602.1,462.5588 Q602.5313,462.5588 602.9063,462.7088 Q603.2813,462.8588 603.6,463.1588 Z " fill="#33FF33"/><text fill="#33FF33" font-family="Verdana" font-size="7.2" font-style="italic" lengthAdjust="spacing" textLength="30.6" x="616.2" y="458.6427">«enum»</text><text fill="#33FF33" font-family="Verdana" font-size="7.2" font-style="italic" lengthAdjust="spacing" textLength="18" x="622.5" y="467.3931">«vo»</text><text fill="#33FF33" font-family="Verdana" font-size="8.4" lengthAdjust="spacing" textLength="43.8" x="609.6" y="477.3499">ExamType</text></g><!--MD5=[843aaaa02b88e4ab5d6068ecb7966639]
class ExamTitle--><g id="elem_ExamTitle"><rect codeLine="39" fill="#282828" height="24.9592" id="ExamTitle" rx="1.5" ry="1.5" style="stroke:#33FF33;stroke-width:0.6;" width="57.6" x="596.1" y="333.204"/><ellipse cx="603.9" cy="345.6836" fill="#282828" rx="5.4" ry="5.4" style="stroke:#33FF33;stroke-width:0.6;"/><path d="M605.1,343.5836 Q605.2219,343.2836 605.3625,343.1336 Q605.5031,342.9836 605.6625,342.9836 Q605.9438,342.9836 606.1219,343.1523 Q606.3,343.3211 606.3,343.7148 L606.3,344.6523 Q606.3,345.0461 606.1313,345.2148 Q605.9625,345.3836 605.7,345.3836 Q605.4656,345.3836 605.3156,345.2805 Q605.1656,345.1773 605.1,344.9055 Q605.0719,344.718 604.9688,344.6148 Q604.7813,344.418 604.4438,344.3055 Q604.1062,344.1836 603.7688,344.1836 Q603.3469,344.1836 602.9906,344.3523 Q602.6438,344.5211 602.3719,344.8961 Q602.1,345.2711 602.1,345.7867 L602.1,346.3398 Q602.1,346.9586 602.6062,347.3711 Q603.1125,347.7836 604.0125,347.7836 Q604.5469,347.7836 604.9219,347.6617 Q605.1375,347.5961 605.3813,347.3805 Q605.5406,347.2586 605.625,347.2211 Q605.7094,347.1836 605.8125,347.1836 Q606.0094,347.1836 606.15,347.343 Q606.3,347.493 606.3,347.7086 Q606.3,347.9148 606.0938,348.1586 Q605.7937,348.5148 605.3156,348.7117 Q604.6875,348.9836 603.9187,348.9836 Q603.0188,348.9836 602.2969,348.6273 Q601.7156,348.3461 601.3031,347.7367 Q600.9,347.1273 600.9,346.4055 L600.9,345.7492 Q600.9,344.9992 601.2563,344.343 Q601.6219,343.6867 602.25,343.3398 Q602.8875,342.9836 603.6,342.9836 Q604.0313,342.9836 604.4063,343.1336 Q604.7813,343.2836 605.1,343.5836 Z " fill="#33FF33"/><text fill="#33FF33" font-family="Verdana" font-size="7.2" font-style="italic" lengthAdjust="spacing" textLength="18" x="622.5" y="343.4427">«vo»</text><text fill="#33FF33" font-family="Verdana" font-size="8.4" lengthAdjust="spacing" textLength="40.8" x="611.1" y="353.3995">ExamTitle</text></g><!--MD5=[9c2d9224e6a5aad957150a20d2b5d02e]
class ExamHeaderTextualDescription--><g id="elem_ExamHeaderTextualDescription"><rect codeLine="40" fill="#282828" height="24.9592" id="ExamHeaderTextualDescription" rx="1.5" ry="1.5" style="stroke:#33FF33;stroke-width:0.6;" width="148.2" x="550.8" y="218.004"/><ellipse cx="558.6" cy="230.4836" fill="#282828" rx="5.4" ry="5.4" style="stroke:#33FF33;stroke-width:0.6;"/><path d="M559.8,228.3836 Q559.9219,228.0836 560.0625,227.9336 Q560.2031,227.7836 560.3625,227.7836 Q560.6438,227.7836 560.8219,227.9523 Q561,228.1211 561,228.5148 L561,229.4523 Q561,229.8461 560.8313,230.0148 Q560.6625,230.1836 560.4,230.1836 Q560.1656,230.1836 560.0156,230.0805 Q559.8656,229.9773 559.8,229.7055 Q559.7719,229.518 559.6687,229.4148 Q559.4812,229.218 559.1438,229.1055 Q558.8063,228.9836 558.4688,228.9836 Q558.0469,228.9836 557.6906,229.1523 Q557.3438,229.3211 557.0719,229.6961 Q556.8,230.0711 556.8,230.5867 L556.8,231.1398 Q556.8,231.7586 557.3063,232.1711 Q557.8125,232.5836 558.7125,232.5836 Q559.2469,232.5836 559.6219,232.4617 Q559.8375,232.3961 560.0813,232.1805 Q560.2406,232.0586 560.325,232.0211 Q560.4094,231.9836 560.5125,231.9836 Q560.7094,231.9836 560.85,232.143 Q561,232.293 561,232.5086 Q561,232.7148 560.7937,232.9586 Q560.4938,233.3148 560.0156,233.5117 Q559.3875,233.7836 558.6188,233.7836 Q557.7188,233.7836 556.9969,233.4273 Q556.4156,233.1461 556.0031,232.5367 Q555.6,231.9273 555.6,231.2055 L555.6,230.5492 Q555.6,229.7992 555.9563,229.143 Q556.3219,228.4867 556.95,228.1398 Q557.5875,227.7836 558.3,227.7836 Q558.7312,227.7836 559.1062,227.9336 Q559.4812,228.0836 559.8,228.3836 Z " fill="#33FF33"/><text fill="#33FF33" font-family="Verdana" font-size="7.2" font-style="italic" lengthAdjust="spacing" textLength="18" x="622.5" y="228.2427">«vo»</text><text fill="#33FF33" font-family="Verdana" font-size="8.4" lengthAdjust="spacing" textLength="131.4" x="565.8" y="238.1995">ExamHeaderTextualDescription</text></g><!--MD5=[2558df5a5eb2158b06686c25ed7d0b1f]
class ExamInitalDateTime--><g id="elem_ExamInitalDateTime"><rect codeLine="41" fill="#282828" height="24.9592" id="ExamInitalDateTime" rx="1.5" ry="1.5" style="stroke:#33FF33;stroke-width:0.6;" width="100.2" x="574.8" y="687.204"/><ellipse cx="582.6" cy="699.6836" fill="#282828" rx="5.4" ry="5.4" style="stroke:#33FF33;stroke-width:0.6;"/><path d="M583.8,697.5836 Q583.9219,697.2836 584.0625,697.1336 Q584.2031,696.9836 584.3625,696.9836 Q584.6438,696.9836 584.8219,697.1523 Q585,697.3211 585,697.7148 L585,698.6523 Q585,699.0461 584.8313,699.2148 Q584.6625,699.3836 584.4,699.3836 Q584.1656,699.3836 584.0156,699.2805 Q583.8656,699.1773 583.8,698.9055 Q583.7719,698.718 583.6687,698.6148 Q583.4812,698.418 583.1438,698.3055 Q582.8063,698.1836 582.4688,698.1836 Q582.0469,698.1836 581.6906,698.3523 Q581.3438,698.5211 581.0719,698.8961 Q580.8,699.2711 580.8,699.7867 L580.8,700.3398 Q580.8,700.9586 581.3063,701.3711 Q581.8125,701.7836 582.7125,701.7836 Q583.2469,701.7836 583.6219,701.6617 Q583.8375,701.5961 584.0813,701.3805 Q584.2406,701.2586 584.325,701.2211 Q584.4094,701.1836 584.5125,701.1836 Q584.7094,701.1836 584.85,701.343 Q585,701.493 585,701.7086 Q585,701.9148 584.7937,702.1586 Q584.4938,702.5148 584.0156,702.7117 Q583.3875,702.9836 582.6188,702.9836 Q581.7188,702.9836 580.9969,702.6273 Q580.4156,702.3461 580.0031,701.7367 Q579.6,701.1273 579.6,700.4055 L579.6,699.7492 Q579.6,698.9992 579.9563,698.343 Q580.3219,697.6867 580.95,697.3398 Q581.5875,696.9836 582.3,696.9836 Q582.7312,696.9836 583.1062,697.1336 Q583.4812,697.2836 583.8,697.5836 Z " fill="#33FF33"/><text fill="#33FF33" font-family="Verdana" font-size="7.2" font-style="italic" lengthAdjust="spacing" textLength="18" x="622.5" y="697.4427">«vo»</text><text fill="#33FF33" font-family="Verdana" font-size="8.4" lengthAdjust="spacing" textLength="83.4" x="589.8" y="707.3995">ExamInitalDateTime</text></g><!--MD5=[b73eaf169db71b2a56c0b20df8ca0198]
class ExamFinalDateTime--><g id="elem_ExamFinalDateTime"><rect codeLine="42" fill="#282828" height="24.9592" id="ExamFinalDateTime" rx="1.5" ry="1.5" style="stroke:#33FF33;stroke-width:0.6;" width="98.4" x="575.7" y="572.004"/><ellipse cx="583.5" cy="584.4836" fill="#282828" rx="5.4" ry="5.4" style="stroke:#33FF33;stroke-width:0.6;"/><path d="M584.7,582.3836 Q584.8219,582.0836 584.9625,581.9336 Q585.1031,581.7836 585.2625,581.7836 Q585.5437,581.7836 585.7219,581.9523 Q585.9,582.1211 585.9,582.5148 L585.9,583.4523 Q585.9,583.8461 585.7312,584.0148 Q585.5625,584.1836 585.3,584.1836 Q585.0656,584.1836 584.9156,584.0805 Q584.7656,583.9773 584.7,583.7055 Q584.6719,583.518 584.5688,583.4148 Q584.3813,583.218 584.0437,583.1055 Q583.7063,582.9836 583.3688,582.9836 Q582.9469,582.9836 582.5906,583.1523 Q582.2438,583.3211 581.9719,583.6961 Q581.7,584.0711 581.7,584.5867 L581.7,585.1398 Q581.7,585.7586 582.2063,586.1711 Q582.7125,586.5836 583.6125,586.5836 Q584.1469,586.5836 584.5219,586.4617 Q584.7375,586.3961 584.9812,586.1805 Q585.1406,586.0586 585.225,586.0211 Q585.3094,585.9836 585.4125,585.9836 Q585.6094,585.9836 585.75,586.143 Q585.9,586.293 585.9,586.5086 Q585.9,586.7148 585.6938,586.9586 Q585.3938,587.3148 584.9156,587.5117 Q584.2875,587.7836 583.5188,587.7836 Q582.6188,587.7836 581.8969,587.4273 Q581.3156,587.1461 580.9031,586.5367 Q580.5,585.9273 580.5,585.2055 L580.5,584.5492 Q580.5,583.7992 580.8562,583.143 Q581.2219,582.4867 581.85,582.1398 Q582.4875,581.7836 583.2,581.7836 Q583.6313,581.7836 584.0063,581.9336 Q584.3813,582.0836 584.7,582.3836 Z " fill="#33FF33"/><text fill="#33FF33" font-family="Verdana" font-size="7.2" font-style="italic" lengthAdjust="spacing" textLength="18" x="622.5" y="582.2427">«vo»</text><text fill="#33FF33" font-family="Verdana" font-size="8.4" lengthAdjust="spacing" textLength="81.6" x="590.7" y="592.1995">ExamFinalDateTime</text></g><!--MD5=[1c3f90767a77540a1eb0ff215bb23629]
class ExamSection--><g id="elem_ExamSection"><rect codeLine="55" fill="#282828" height="33.7096" id="ExamSection" rx="1.5" ry="1.5" style="stroke:#33FF33;stroke-width:0.6;" width="71.4" x="197.7" y="771.804"/><ellipse cx="205.5" cy="788.6588" fill="#282828" rx="5.4" ry="5.4" style="stroke:#33FF33;stroke-width:0.6;"/><path d="M206.7,786.5588 Q206.8219,786.2588 206.9625,786.1088 Q207.1031,785.9588 207.2625,785.9588 Q207.5438,785.9588 207.7219,786.1275 Q207.9,786.2963 207.9,786.69 L207.9,787.6275 Q207.9,788.0213 207.7313,788.19 Q207.5625,788.3588 207.3,788.3588 Q207.0656,788.3588 206.9156,788.2557 Q206.7656,788.1525 206.7,787.8807 Q206.6719,787.6932 206.5688,787.59 Q206.3813,787.3932 206.0438,787.2807 Q205.7062,787.1588 205.3688,787.1588 Q204.9469,787.1588 204.5906,787.3275 Q204.2438,787.4963 203.9719,787.8713 Q203.7,788.2463 203.7,788.7619 L203.7,789.315 Q203.7,789.9338 204.2062,790.3463 Q204.7125,790.7588 205.6125,790.7588 Q206.1469,790.7588 206.5219,790.6369 Q206.7375,790.5713 206.9813,790.3557 Q207.1406,790.2338 207.225,790.1963 Q207.3094,790.1588 207.4125,790.1588 Q207.6094,790.1588 207.75,790.3182 Q207.9,790.4682 207.9,790.6838 Q207.9,790.89 207.6938,791.1338 Q207.3937,791.49 206.9156,791.6869 Q206.2875,791.9588 205.5187,791.9588 Q204.6188,791.9588 203.8969,791.6025 Q203.3156,791.3213 202.9031,790.7119 Q202.5,790.1025 202.5,789.3807 L202.5,788.7244 Q202.5,787.9744 202.8563,787.3182 Q203.2219,786.6619 203.85,786.315 Q204.4875,785.9588 205.2,785.9588 Q205.6313,785.9588 206.0063,786.1088 Q206.3813,786.2588 206.7,786.5588 Z " fill="#33FF33"/><text fill="#33FF33" font-family="Verdana" font-size="7.2" font-style="italic" lengthAdjust="spacing" textLength="30.6" x="224.7" y="782.0427">«entity»</text><text fill="#33FF33" font-family="Verdana" font-size="7.2" font-style="italic" lengthAdjust="spacing" textLength="24" x="228" y="790.7931">«root»</text><text fill="#33FF33" font-family="Verdana" font-size="8.4" lengthAdjust="spacing" textLength="54.6" x="212.7" y="800.7499">ExamSection</text></g><!--MD5=[baa7ffa6029a0cf7bd64640b621deb05]
class ExamSectionTextualDescription--><g id="elem_ExamSectionTextualDescription"><rect codeLine="56" fill="#282828" height="24.9592" id="ExamSectionTextualDescription" rx="1.5" ry="1.5" style="stroke:#33FF33;stroke-width:0.6;" width="150" x="363" y="776.004"/><ellipse cx="370.8" cy="788.4836" fill="#282828" rx="5.4" ry="5.4" style="stroke:#33FF33;stroke-width:0.6;"/><path d="M372,786.3836 Q372.1219,786.0836 372.2625,785.9336 Q372.4031,785.7836 372.5625,785.7836 Q372.8438,785.7836 373.0219,785.9523 Q373.2,786.1211 373.2,786.5148 L373.2,787.4523 Q373.2,787.8461 373.0313,788.0148 Q372.8625,788.1836 372.6,788.1836 Q372.3656,788.1836 372.2156,788.0805 Q372.0656,787.9773 372,787.7055 Q371.9719,787.518 371.8688,787.4148 Q371.6813,787.218 371.3438,787.1055 Q371.0062,786.9836 370.6688,786.9836 Q370.2469,786.9836 369.8906,787.1523 Q369.5438,787.3211 369.2719,787.6961 Q369,788.0711 369,788.5867 L369,789.1398 Q369,789.7586 369.5062,790.1711 Q370.0125,790.5836 370.9125,790.5836 Q371.4469,790.5836 371.8219,790.4617 Q372.0375,790.3961 372.2813,790.1805 Q372.4406,790.0586 372.525,790.0211 Q372.6094,789.9836 372.7125,789.9836 Q372.9094,789.9836 373.05,790.143 Q373.2,790.293 373.2,790.5086 Q373.2,790.7148 372.9938,790.9586 Q372.6937,791.3148 372.2156,791.5117 Q371.5875,791.7836 370.8187,791.7836 Q369.9188,791.7836 369.1969,791.4273 Q368.6156,791.1461 368.2031,790.5367 Q367.8,789.9273 367.8,789.2055 L367.8,788.5492 Q367.8,787.7992 368.1563,787.143 Q368.5219,786.4867 369.15,786.1398 Q369.7875,785.7836 370.5,785.7836 Q370.9313,785.7836 371.3063,785.9336 Q371.6813,786.0836 372,786.3836 Z " fill="#33FF33"/><text fill="#33FF33" font-family="Verdana" font-size="7.2" font-style="italic" lengthAdjust="spacing" textLength="18" x="435.6" y="786.2427">«vo»</text><text fill="#33FF33" font-family="Verdana" font-size="8.4" lengthAdjust="spacing" textLength="133.2" x="378" y="796.1995">ExamSectionTextualDescription</text></g><!--MD5=[b3de511c68cb1ef492574a8c65f0a5f9]
class ExamQuestion--><g id="elem_ExamQuestion"><rect codeLine="63" fill="#282828" height="33.7096" id="ExamQuestion" rx="1.5" ry="1.5" style="stroke:#33FF33;stroke-width:0.6;" width="78" x="16.2" y="1562.004"/><ellipse cx="24" cy="1578.8588" fill="#282828" rx="5.4" ry="5.4" style="stroke:#33FF33;stroke-width:0.6;"/><path d="M25.2,1576.7588 Q25.3219,1576.4588 25.4625,1576.3088 Q25.6031,1576.1588 25.7625,1576.1588 Q26.0438,1576.1588 26.2219,1576.3275 Q26.4,1576.4963 26.4,1576.89 L26.4,1577.8275 Q26.4,1578.2213 26.2313,1578.39 Q26.0625,1578.5588 25.8,1578.5588 Q25.5656,1578.5588 25.4156,1578.4557 Q25.2656,1578.3525 25.2,1578.0807 Q25.1719,1577.8932 25.0687,1577.79 Q24.8812,1577.5932 24.5438,1577.4807 Q24.2063,1577.3588 23.8688,1577.3588 Q23.4469,1577.3588 23.0906,1577.5275 Q22.7438,1577.6963 22.4719,1578.0713 Q22.2,1578.4463 22.2,1578.9619 L22.2,1579.515 Q22.2,1580.1338 22.7063,1580.5463 Q23.2125,1580.9588 24.1125,1580.9588 Q24.6469,1580.9588 25.0219,1580.8369 Q25.2375,1580.7713 25.4813,1580.5557 Q25.6406,1580.4338 25.725,1580.3963 Q25.8094,1580.3588 25.9125,1580.3588 Q26.1094,1580.3588 26.25,1580.5182 Q26.4,1580.6682 26.4,1580.8838 Q26.4,1581.09 26.1937,1581.3338 Q25.8938,1581.69 25.4156,1581.8869 Q24.7875,1582.1588 24.0188,1582.1588 Q23.1188,1582.1588 22.3969,1581.8025 Q21.8156,1581.5213 21.4031,1580.9119 Q21,1580.3025 21,1579.5807 L21,1578.9244 Q21,1578.1744 21.3563,1577.5182 Q21.7219,1576.8619 22.35,1576.515 Q22.9875,1576.1588 23.7,1576.1588 Q24.1312,1576.1588 24.5062,1576.3088 Q24.8812,1576.4588 25.2,1576.7588 Z " fill="#33FF33"/><text fill="#33FF33" font-family="Verdana" font-size="7.2" font-style="italic" lengthAdjust="spacing" textLength="30.6" x="46.5" y="1572.2427">«entity»</text><text fill="#33FF33" font-family="Verdana" font-size="7.2" font-style="italic" lengthAdjust="spacing" textLength="24" x="49.8" y="1580.9931">«root»</text><text fill="#33FF33" font-family="Verdana" font-size="8.4" lengthAdjust="spacing" textLength="61.2" x="31.2" y="1590.9499">ExamQuestion</text></g><!--MD5=[ffb24d37a69e6444eb6c829ee499790c]
class ExamQuestionStatement--><g id="elem_ExamQuestionStatement"><rect codeLine="64" fill="#282828" height="24.9592" id="ExamQuestionStatement" rx="1.5" ry="1.5" style="stroke:#33FF33;stroke-width:0.6;" width="122.4" x="172.2" y="1739.004"/><ellipse cx="180" cy="1751.4836" fill="#282828" rx="5.4" ry="5.4" style="stroke:#33FF33;stroke-width:0.6;"/><path d="M181.2,1749.3836 Q181.3219,1749.0836 181.4625,1748.9336 Q181.6031,1748.7836 181.7625,1748.7836 Q182.0438,1748.7836 182.2219,1748.9523 Q182.4,1749.1211 182.4,1749.5148 L182.4,1750.4523 Q182.4,1750.8461 182.2313,1751.0148 Q182.0625,1751.1836 181.8,1751.1836 Q181.5656,1751.1836 181.4156,1751.0805 Q181.2656,1750.9773 181.2,1750.7055 Q181.1719,1750.518 181.0688,1750.4148 Q180.8813,1750.218 180.5438,1750.1055 Q180.2062,1749.9836 179.8688,1749.9836 Q179.4469,1749.9836 179.0906,1750.1523 Q178.7438,1750.3211 178.4719,1750.6961 Q178.2,1751.0711 178.2,1751.5867 L178.2,1752.1398 Q178.2,1752.7586 178.7062,1753.1711 Q179.2125,1753.5836 180.1125,1753.5836 Q180.6469,1753.5836 181.0219,1753.4617 Q181.2375,1753.3961 181.4813,1753.1805 Q181.6406,1753.0586 181.725,1753.0211 Q181.8094,1752.9836 181.9125,1752.9836 Q182.1094,1752.9836 182.25,1753.143 Q182.4,1753.293 182.4,1753.5086 Q182.4,1753.7148 182.1938,1753.9586 Q181.8937,1754.3148 181.4156,1754.5117 Q180.7875,1754.7836 180.0187,1754.7836 Q179.1188,1754.7836 178.3969,1754.4273 Q177.8156,1754.1461 177.4031,1753.5367 Q177,1752.9273 177,1752.2055 L177,1751.5492 Q177,1750.7992 177.3563,1750.143 Q177.7219,1749.4867 178.35,1749.1398 Q178.9875,1748.7836 179.7,1748.7836 Q180.1313,1748.7836 180.5063,1748.9336 Q180.8813,1749.0836 181.2,1749.3836 Z " fill="#33FF33"/><text fill="#33FF33" font-family="Verdana" font-size="7.2" font-style="italic" lengthAdjust="spacing" textLength="18" x="231" y="1749.2427">«vo»</text><text fill="#33FF33" font-family="Verdana" font-size="8.4" lengthAdjust="spacing" textLength="105.6" x="187.2" y="1759.1995">ExamQuestionStatement</text></g><!--MD5=[7877ac9720807cabdc8fb588d655238a]
class ExamQuestionNumber--><g id="elem_ExamQuestionNumber"><rect codeLine="65" fill="#282828" height="24.9592" id="ExamQuestionNumber" rx="1.5" ry="1.5" style="stroke:#33FF33;stroke-width:0.6;" width="111" x="177.9" y="1623.804"/><ellipse cx="185.7" cy="1636.2836" fill="#282828" rx="5.4" ry="5.4" style="stroke:#33FF33;stroke-width:0.6;"/><path d="M186.9,1634.1836 Q187.0219,1633.8836 187.1625,1633.7336 Q187.3031,1633.5836 187.4625,1633.5836 Q187.7438,1633.5836 187.9219,1633.7523 Q188.1,1633.9211 188.1,1634.3148 L188.1,1635.2523 Q188.1,1635.6461 187.9313,1635.8148 Q187.7625,1635.9836 187.5,1635.9836 Q187.2656,1635.9836 187.1156,1635.8805 Q186.9656,1635.7773 186.9,1635.5055 Q186.8719,1635.318 186.7687,1635.2148 Q186.5812,1635.018 186.2438,1634.9055 Q185.9063,1634.7836 185.5688,1634.7836 Q185.1469,1634.7836 184.7906,1634.9523 Q184.4438,1635.1211 184.1719,1635.4961 Q183.9,1635.8711 183.9,1636.3867 L183.9,1636.9398 Q183.9,1637.5586 184.4063,1637.9711 Q184.9125,1638.3836 185.8125,1638.3836 Q186.3469,1638.3836 186.7219,1638.2617 Q186.9375,1638.1961 187.1813,1637.9805 Q187.3406,1637.8586 187.425,1637.8211 Q187.5094,1637.7836 187.6125,1637.7836 Q187.8094,1637.7836 187.95,1637.943 Q188.1,1638.093 188.1,1638.3086 Q188.1,1638.5148 187.8937,1638.7586 Q187.5938,1639.1148 187.1156,1639.3117 Q186.4875,1639.5836 185.7188,1639.5836 Q184.8188,1639.5836 184.0969,1639.2273 Q183.5156,1638.9461 183.1031,1638.3367 Q182.7,1637.7273 182.7,1637.0055 L182.7,1636.3492 Q182.7,1635.5992 183.0563,1634.943 Q183.4219,1634.2867 184.05,1633.9398 Q184.6875,1633.5836 185.4,1633.5836 Q185.8312,1633.5836 186.2062,1633.7336 Q186.5812,1633.8836 186.9,1634.1836 Z " fill="#33FF33"/><text fill="#33FF33" font-family="Verdana" font-size="7.2" font-style="italic" lengthAdjust="spacing" textLength="18" x="231" y="1634.0427">«vo»</text><text fill="#33FF33" font-family="Verdana" font-size="8.4" lengthAdjust="spacing" textLength="94.2" x="192.9" y="1643.9995">ExamQuestionNumber</text></g><!--MD5=[255945b5dcdc8c3a1fb12b4c948ff035]
class ExamQuestionValue--><g id="elem_ExamQuestionValue"><rect codeLine="66" fill="#282828" height="24.9592" id="ExamQuestionValue" rx="1.5" ry="1.5" style="stroke:#33FF33;stroke-width:0.6;" width="100.8" x="183" y="1508.604"/><ellipse cx="190.8" cy="1521.0836" fill="#282828" rx="5.4" ry="5.4" style="stroke:#33FF33;stroke-width:0.6;"/><path d="M192,1518.9836 Q192.1219,1518.6836 192.2625,1518.5336 Q192.4031,1518.3836 192.5625,1518.3836 Q192.8438,1518.3836 193.0219,1518.5523 Q193.2,1518.7211 193.2,1519.1148 L193.2,1520.0523 Q193.2,1520.4461 193.0313,1520.6148 Q192.8625,1520.7836 192.6,1520.7836 Q192.3656,1520.7836 192.2156,1520.6805 Q192.0656,1520.5773 192,1520.3055 Q191.9719,1520.118 191.8688,1520.0148 Q191.6813,1519.818 191.3438,1519.7055 Q191.0063,1519.5836 190.6688,1519.5836 Q190.2469,1519.5836 189.8906,1519.7523 Q189.5438,1519.9211 189.2719,1520.2961 Q189,1520.6711 189,1521.1867 L189,1521.7398 Q189,1522.3586 189.5063,1522.7711 Q190.0125,1523.1836 190.9125,1523.1836 Q191.4469,1523.1836 191.8219,1523.0617 Q192.0375,1522.9961 192.2813,1522.7805 Q192.4406,1522.6586 192.525,1522.6211 Q192.6094,1522.5836 192.7125,1522.5836 Q192.9094,1522.5836 193.05,1522.743 Q193.2,1522.893 193.2,1523.1086 Q193.2,1523.3148 192.9938,1523.5586 Q192.6938,1523.9148 192.2156,1524.1117 Q191.5875,1524.3836 190.8188,1524.3836 Q189.9188,1524.3836 189.1969,1524.0273 Q188.6156,1523.7461 188.2031,1523.1367 Q187.8,1522.5273 187.8,1521.8055 L187.8,1521.1492 Q187.8,1520.3992 188.1563,1519.743 Q188.5219,1519.0867 189.15,1518.7398 Q189.7875,1518.3836 190.5,1518.3836 Q190.9313,1518.3836 191.3063,1518.5336 Q191.6813,1518.6836 192,1518.9836 Z " fill="#33FF33"/><text fill="#33FF33" font-family="Verdana" font-size="7.2" font-style="italic" lengthAdjust="spacing" textLength="18" x="231" y="1518.8427">«vo»</text><text fill="#33FF33" font-family="Verdana" font-size="8.4" lengthAdjust="spacing" textLength="84" x="198" y="1528.7995">ExamQuestionValue</text></g><!--MD5=[9a4125d7cf75ab86d10f081cd85a3b90]
class ExamQuestionSolution--><g id="elem_ExamQuestionSolution"><rect codeLine="67" fill="#282828" height="24.9592" id="ExamQuestionSolution" rx="1.5" ry="1.5" style="stroke:#33FF33;stroke-width:0.6;" width="112.8" x="177" y="1393.404"/><ellipse cx="184.8" cy="1405.8836" fill="#282828" rx="5.4" ry="5.4" style="stroke:#33FF33;stroke-width:0.6;"/><path d="M186,1403.7836 Q186.1219,1403.4836 186.2625,1403.3336 Q186.4031,1403.1836 186.5625,1403.1836 Q186.8438,1403.1836 187.0219,1403.3523 Q187.2,1403.5211 187.2,1403.9148 L187.2,1404.8523 Q187.2,1405.2461 187.0313,1405.4148 Q186.8625,1405.5836 186.6,1405.5836 Q186.3656,1405.5836 186.2156,1405.4805 Q186.0656,1405.3773 186,1405.1055 Q185.9719,1404.918 185.8688,1404.8148 Q185.6813,1404.618 185.3438,1404.5055 Q185.0063,1404.3836 184.6688,1404.3836 Q184.2469,1404.3836 183.8906,1404.5523 Q183.5438,1404.7211 183.2719,1405.0961 Q183,1405.4711 183,1405.9867 L183,1406.5398 Q183,1407.1586 183.5063,1407.5711 Q184.0125,1407.9836 184.9125,1407.9836 Q185.4469,1407.9836 185.8219,1407.8617 Q186.0375,1407.7961 186.2813,1407.5805 Q186.4406,1407.4586 186.525,1407.4211 Q186.6094,1407.3836 186.7125,1407.3836 Q186.9094,1407.3836 187.05,1407.543 Q187.2,1407.693 187.2,1407.9086 Q187.2,1408.1148 186.9938,1408.3586 Q186.6938,1408.7148 186.2156,1408.9117 Q185.5875,1409.1836 184.8188,1409.1836 Q183.9188,1409.1836 183.1969,1408.8273 Q182.6156,1408.5461 182.2031,1407.9367 Q181.8,1407.3273 181.8,1406.6055 L181.8,1405.9492 Q181.8,1405.1992 182.1563,1404.543 Q182.5219,1403.8867 183.15,1403.5398 Q183.7875,1403.1836 184.5,1403.1836 Q184.9313,1403.1836 185.3063,1403.3336 Q185.6813,1403.4836 186,1403.7836 Z " fill="#33FF33"/><text fill="#33FF33" font-family="Verdana" font-size="7.2" font-style="italic" lengthAdjust="spacing" textLength="18" x="231" y="1403.6427">«vo»</text><text fill="#33FF33" font-family="Verdana" font-size="8.4" lengthAdjust="spacing" textLength="96" x="192" y="1413.5995">ExamQuestionSolution</text></g><!--MD5=[bafb4570337233aef9fe15eb97c59d28]
class ExamQuestionType--><g id="elem_ExamQuestionType"><rect codeLine="68" fill="#282828" height="33.7096" id="ExamQuestionType" rx="1.5" ry="1.5" style="stroke:#33FF33;stroke-width:0.6;" width="98.4" x="184.2" y="1854.204"/><ellipse cx="192" cy="1871.0588" fill="#282828" rx="5.4" ry="5.4" style="stroke:#33FF33;stroke-width:0.6;"/><path d="M193.2,1868.9588 Q193.3219,1868.6588 193.4625,1868.5088 Q193.6031,1868.3588 193.7625,1868.3588 Q194.0438,1868.3588 194.2219,1868.5275 Q194.4,1868.6963 194.4,1869.09 L194.4,1870.0275 Q194.4,1870.4213 194.2313,1870.59 Q194.0625,1870.7588 193.8,1870.7588 Q193.5656,1870.7588 193.4156,1870.6557 Q193.2656,1870.5525 193.2,1870.2807 Q193.1719,1870.0932 193.0688,1869.99 Q192.8813,1869.7932 192.5438,1869.6807 Q192.2062,1869.5588 191.8688,1869.5588 Q191.4469,1869.5588 191.0906,1869.7275 Q190.7438,1869.8963 190.4719,1870.2713 Q190.2,1870.6463 190.2,1871.1619 L190.2,1871.715 Q190.2,1872.3338 190.7062,1872.7463 Q191.2125,1873.1588 192.1125,1873.1588 Q192.6469,1873.1588 193.0219,1873.0369 Q193.2375,1872.9713 193.4813,1872.7557 Q193.6406,1872.6338 193.725,1872.5963 Q193.8094,1872.5588 193.9125,1872.5588 Q194.1094,1872.5588 194.25,1872.7182 Q194.4,1872.8682 194.4,1873.0838 Q194.4,1873.29 194.1938,1873.5338 Q193.8937,1873.89 193.4156,1874.0869 Q192.7875,1874.3588 192.0187,1874.3588 Q191.1188,1874.3588 190.3969,1874.0025 Q189.8156,1873.7213 189.4031,1873.1119 Q189,1872.5025 189,1871.7807 L189,1871.1244 Q189,1870.3744 189.3563,1869.7182 Q189.7219,1869.0619 190.35,1868.715 Q190.9875,1868.3588 191.7,1868.3588 Q192.1313,1868.3588 192.5063,1868.5088 Q192.8813,1868.6588 193.2,1868.9588 Z " fill="#33FF33"/><text fill="#33FF33" font-family="Verdana" font-size="7.2" font-style="italic" lengthAdjust="spacing" textLength="18" x="231" y="1864.4427">«vo»</text><text fill="#33FF33" font-family="Verdana" font-size="7.2" font-style="italic" lengthAdjust="spacing" textLength="30.6" x="224.7" y="1873.1931">«enum»</text><text fill="#33FF33" font-family="Verdana" font-size="8.4" lengthAdjust="spacing" textLength="81.6" x="199.2" y="1883.1499">ExamQuestionType</text></g><!--MD5=[77bbc7875e07044be1bb10338b60d6a9]
class FormerExam--><g id="elem_FormerExam"><rect codeLine="80" fill="#282828" height="33.7096" id="FormerExam" rx="1.5" ry="1.5" style="stroke:#33FF33;stroke-width:0.6;" width="70.2" x="198.3" y="1269.804"/><ellipse cx="206.1" cy="1286.6588" fill="#282828" rx="5.4" ry="5.4" style="stroke:#33FF33;stroke-width:0.6;"/><path d="M207.3,1284.5588 Q207.4219,1284.2588 207.5625,1284.1088 Q207.7031,1283.9588 207.8625,1283.9588 Q208.1437,1283.9588 208.3219,1284.1275 Q208.5,1284.2963 208.5,1284.69 L208.5,1285.6275 Q208.5,1286.0213 208.3312,1286.19 Q208.1625,1286.3588 207.9,1286.3588 Q207.6656,1286.3588 207.5156,1286.2557 Q207.3656,1286.1525 207.3,1285.8807 Q207.2719,1285.6932 207.1688,1285.59 Q206.9813,1285.3932 206.6437,1285.2807 Q206.3063,1285.1588 205.9688,1285.1588 Q205.5469,1285.1588 205.1906,1285.3275 Q204.8438,1285.4963 204.5719,1285.8713 Q204.3,1286.2463 204.3,1286.7619 L204.3,1287.315 Q204.3,1287.9338 204.8063,1288.3463 Q205.3125,1288.7588 206.2125,1288.7588 Q206.7469,1288.7588 207.1219,1288.6369 Q207.3375,1288.5713 207.5812,1288.3557 Q207.7406,1288.2338 207.825,1288.1963 Q207.9094,1288.1588 208.0125,1288.1588 Q208.2094,1288.1588 208.35,1288.3182 Q208.5,1288.4682 208.5,1288.6838 Q208.5,1288.89 208.2938,1289.1338 Q207.9938,1289.49 207.5156,1289.6869 Q206.8875,1289.9588 206.1188,1289.9588 Q205.2188,1289.9588 204.4969,1289.6025 Q203.9156,1289.3213 203.5031,1288.7119 Q203.1,1288.1025 203.1,1287.3807 L203.1,1286.7244 Q203.1,1285.9744 203.4562,1285.3182 Q203.8219,1284.6619 204.45,1284.315 Q205.0875,1283.9588 205.8,1283.9588 Q206.2313,1283.9588 206.6063,1284.1088 Q206.9813,1284.2588 207.3,1284.5588 Z " fill="#33FF33"/><text fill="#33FF33" font-family="Verdana" font-size="7.2" font-style="italic" lengthAdjust="spacing" textLength="30.6" x="224.7" y="1280.0427">«entity»</text><text fill="#33FF33" font-family="Verdana" font-size="7.2" font-style="italic" lengthAdjust="spacing" textLength="24" x="228" y="1288.7931">«root»</text><text fill="#33FF33" font-family="Verdana" font-size="8.4" lengthAdjust="spacing" textLength="53.4" x="213.3" y="1298.7499">FormerExam</text></g><!--MD5=[812f255b9b3525c156c3ff1381676308]
class FinalGrade--><g id="elem_FinalGrade"><rect codeLine="81" fill="#282828" height="24.9592" id="FinalGrade" rx="1.5" ry="1.5" style="stroke:#33FF33;stroke-width:0.6;" width="60.6" x="407.7" y="1274.004"/><ellipse cx="415.5" cy="1286.4836" fill="#282828" rx="5.4" ry="5.4" style="stroke:#33FF33;stroke-width:0.6;"/><path d="M416.7,1284.3836 Q416.8219,1284.0836 416.9625,1283.9336 Q417.1031,1283.7836 417.2625,1283.7836 Q417.5438,1283.7836 417.7219,1283.9523 Q417.9,1284.1211 417.9,1284.5148 L417.9,1285.4523 Q417.9,1285.8461 417.7313,1286.0148 Q417.5625,1286.1836 417.3,1286.1836 Q417.0656,1286.1836 416.9156,1286.0805 Q416.7656,1285.9773 416.7,1285.7055 Q416.6719,1285.518 416.5687,1285.4148 Q416.3812,1285.218 416.0438,1285.1055 Q415.7063,1284.9836 415.3688,1284.9836 Q414.9469,1284.9836 414.5906,1285.1523 Q414.2438,1285.3211 413.9719,1285.6961 Q413.7,1286.0711 413.7,1286.5867 L413.7,1287.1398 Q413.7,1287.7586 414.2063,1288.1711 Q414.7125,1288.5836 415.6125,1288.5836 Q416.1469,1288.5836 416.5219,1288.4617 Q416.7375,1288.3961 416.9813,1288.1805 Q417.1406,1288.0586 417.225,1288.0211 Q417.3094,1287.9836 417.4125,1287.9836 Q417.6094,1287.9836 417.75,1288.143 Q417.9,1288.293 417.9,1288.5086 Q417.9,1288.7148 417.6937,1288.9586 Q417.3938,1289.3148 416.9156,1289.5117 Q416.2875,1289.7836 415.5188,1289.7836 Q414.6188,1289.7836 413.8969,1289.4273 Q413.3156,1289.1461 412.9031,1288.5367 Q412.5,1287.9273 412.5,1287.2055 L412.5,1286.5492 Q412.5,1285.7992 412.8563,1285.143 Q413.2219,1284.4867 413.85,1284.1398 Q414.4875,1283.7836 415.2,1283.7836 Q415.6312,1283.7836 416.0062,1283.9336 Q416.3812,1284.0836 416.7,1284.3836 Z " fill="#33FF33"/><text fill="#33FF33" font-family="Verdana" font-size="7.2" font-style="italic" lengthAdjust="spacing" textLength="18" x="435.6" y="1284.2427">«vo»</text><text fill="#33FF33" font-family="Verdana" font-size="8.4" lengthAdjust="spacing" textLength="43.8" x="422.7" y="1294.1995">FinalGrade</text></g><!--MD5=[6893f384ff0ef933df1c7749ea824a41]
link Course to State--><g id="link_Course_State"><path codeLine="14" d="M70.65,278.502 C92.562,253.662 134.994,205.956 172.2,166.404 C185.808,151.938 201.522,135.93 213.534,123.834 " fill="none" id="Course-to-State" style="stroke:#33FF33;stroke-width:0.6;"/><polygon fill="#33FF33" points="215.886,121.47,210.3749,123.6025,213.769,123.5956,213.7758,126.9897,215.886,121.47" style="stroke:#33FF33;stroke-width:0.6;"/><text fill="#33FF33" font-family="Verdana" font-size="7.8" lengthAdjust="spacing" textLength="4.8" x="206.7298" y="134.0262">1</text></g><!--MD5=[22fbf65ce2adace958a9a6aab0fc3d5d]
link Course to Title--><g id="link_Course_Title"><path codeLine="15" d="M78.756,286.14 C113.898,271.968 180.396,245.142 213.324,231.858 " fill="none" id="Course-to-Title" style="stroke:#33FF33;stroke-width:0.6;"/><polygon fill="#33FF33" points="216.21,230.694,210.3043,230.4868,213.4275,231.8155,212.0988,234.9388,216.21,230.694" style="stroke:#33FF33;stroke-width:0.6;"/><text fill="#33FF33" font-family="Verdana" font-size="7.8" lengthAdjust="spacing" textLength="4.8" x="206.6349" y="241.3513">1</text></g><!--MD5=[3bb0c3a02b5f89787288109fed45d2b4]
link Course to Description--><g id="link_Course_Description"><path codeLine="16" d="M78.756,301.086 C109.146,308.604 162.99,321.93 198.288,330.666 " fill="none" id="Course-to-Description" style="stroke:#33FF33;stroke-width:0.6;"/><polygon fill="#33FF33" points="201.216,331.392,196.5517,327.7637,198.3041,330.6705,195.3973,332.4228,201.216,331.392" style="stroke:#33FF33;stroke-width:0.6;"/><text fill="#33FF33" font-family="Verdana" font-size="7.8" lengthAdjust="spacing" textLength="4.8" x="191.7688" y="338.8372">1</text></g><!--MD5=[006a8456a0dc3f5efeb6a338a72ec64d]
link Course to Code--><g id="link_Course_Code"><path codeLine="17" d="M74.574,312.27 C109.416,343.566 183.522,410.136 216.444,439.716 " fill="none" id="Course-to-Code" style="stroke:#33FF33;stroke-width:0.6;"/><polygon fill="#33FF33" points="218.742,441.78,216.312,436.3934,216.504,439.7821,213.1154,439.9742,218.742,441.78" style="stroke:#33FF33;stroke-width:0.6;"/><text fill="#33FF33" font-family="Verdana" font-size="7.8" lengthAdjust="spacing" textLength="4.8" x="208.5048" y="435.2784">1</text></g><!--MD5=[879e79d9b9300cd2bae6192b9cbae86c]
link Course to Teacher--><g id="link_Course_Teacher"><path codeLine="18" d="M62.106,312.264 C77.022,350.646 117.366,446.28 172.2,512.004 C186.18,528.762 205.56,544.878 218.604,554.94 " fill="none" id="Course-to-Teacher" style="stroke:#33FF33;stroke-width:0.6;"/><polygon fill="#33FF33" points="221.124,556.872,218.2972,551.6827,218.7426,555.0474,215.3779,555.4929,221.124,556.872" style="stroke:#33FF33;stroke-width:0.6;"/><text fill="#33FF33" font-family="Verdana" font-size="7.8" lengthAdjust="spacing" textLength="40.8" x="112.8" y="420.8459">is ruled by</text><text fill="#33FF33" font-family="Verdana" font-size="7.8" lengthAdjust="spacing" textLength="5.4" x="209.5464" y="550.4371">*</text></g><!--MD5=[ea95752f0a529f5f12dd427409b2595a]
link Student to MechanographicalNumber--><g id="link_Student_MechanographicalNumber"><path codeLine="29" d="M463.644,1080.234 C499.536,1058.778 565.152,1019.556 600.402,998.49 " fill="none" id="Student-to-MechanographicalNumber" style="stroke:#33FF33;stroke-width:0.6;"/><polygon fill="#33FF33" points="603.096,996.882,597.229,997.5879,600.5197,998.4192,599.6885,1001.7099,603.096,996.882" style="stroke:#33FF33;stroke-width:0.6;"/><text fill="#33FF33" font-family="Verdana" font-size="7.8" lengthAdjust="spacing" textLength="4.8" x="592.0937" y="1009.2181">1</text></g><!--MD5=[05c64b37fedf4539596262f997c2b231]
link Student to SystemUser--><g id="link_Student_SystemUser"><path codeLine="30" d="M463.644,1095.204 C495.612,1095.204 551.166,1095.204 587.832,1095.204 " fill="none" id="Student-to-SystemUser" style="stroke:#33FF33;stroke-width:0.6;"/><polygon fill="#33FF33" points="590.88,1095.204,585.48,1092.804,587.88,1095.204,585.48,1097.604,590.88,1095.204" style="stroke:#33FF33;stroke-width:0.6;"/><text fill="#33FF33" font-family="Verdana" font-size="7.8" lengthAdjust="spacing" textLength="4.8" x="581.4137" y="1103.6532">1</text></g><!--MD5=[8d9f94e67a7ba52540c7724bf93ea242]
link Student to StudentDateOfBirth--><g id="link_Student_StudentDateOfBirth"><path codeLine="32" d="M463.644,1110.174 C499.536,1131.63 565.152,1170.852 600.402,1191.918 " fill="none" id="Student-to-StudentDateOfBirth" style="stroke:#33FF33;stroke-width:0.6;"/><polygon fill="#33FF33" points="603.096,1193.526,599.6885,1188.6981,600.5197,1191.9888,597.229,1192.8201,603.096,1193.526" style="stroke:#33FF33;stroke-width:0.6;"/><text fill="#33FF33" font-family="Verdana" font-size="7.8" lengthAdjust="spacing" textLength="4.8" x="590.8835" y="1187.2174">1</text></g><!--MD5=[bdb337b8f731444b4aa73ef9c3dc6760]
link Student to StudentTaxPayerNumber--><g id="link_Student_StudentTaxPayerNumber"><path codeLine="33" d="M447.402,1078.398 C464.556,1046.58 504.834,976.284 550.8,926.604 C566.202,909.954 586.722,894.3 602.166,883.524 " fill="none" id="Student-to-StudentTaxPayerNumber" style="stroke:#33FF33;stroke-width:0.6;"/><polygon fill="#33FF33" points="604.794,881.706,598.9897,882.8148,602.3299,883.4172,601.7276,886.7574,604.794,881.706" style="stroke:#33FF33;stroke-width:0.6;"/><text fill="#33FF33" font-family="Verdana" font-size="7.8" lengthAdjust="spacing" textLength="4.8" x="594.2268" y="894.0482">1</text></g><!--MD5=[f47f7666d83c05865702f88b2327fd81]
link Teacher to Exam--><g id="link_Teacher_Exam"><path codeLine="44" d="M251.166,556.95 C287.202,539.196 370.842,497.994 412.662,477.39 " fill="none" id="Teacher-to-Exam" style="stroke:#33FF33;stroke-width:0.6;"/><polygon fill="#33FF33" points="415.356,476.064,409.4515,476.3022,412.6659,477.3919,411.5762,480.6063,415.356,476.064" style="stroke:#33FF33;stroke-width:0.6;"/><text fill="#33FF33" font-family="Verdana" font-size="7.8" lengthAdjust="spacing" textLength="30" x="314.4" y="510.8459">creates</text><text fill="#33FF33" font-family="Verdana" font-size="7.8" lengthAdjust="spacing" textLength="5.4" x="405.2832" y="486.772">*</text></g><!--MD5=[c4befa03adfe763a1f9735b81775aba2]
link Exam to ExamTitle--><g id="link_Exam_ExamTitle"><path codeLine="45" d="M460.632,451.038 C496.212,428.16 565.956,383.316 601.818,360.258 " fill="none" id="Exam-to-ExamTitle" style="stroke:#33FF33;stroke-width:0.6;"/><polygon fill="#33FF33" points="604.554,358.5,598.7124,359.3922,602.028,360.1184,601.3018,363.4339,604.554,358.5" style="stroke:#33FF33;stroke-width:0.6;"/><text fill="#33FF33" font-family="Verdana" font-size="7.8" lengthAdjust="spacing" textLength="4.8" x="593.9253" y="370.8407">1</text></g><!--MD5=[a9b64f25cf310ca4b2500f0f3cfe99ac]
link Exam to ExamHeaderTextualDescription--><g id="link_Exam_ExamHeaderTextualDescription"><path codeLine="46" d="M446.82,448.296 C463.428,415.2 503.442,340.542 550.8,288.204 C566.016,271.386 586.554,255.75 602.052,245.022 " fill="none" id="Exam-to-ExamHeaderTextualDescription" style="stroke:#33FF33;stroke-width:0.6;"/><polygon fill="#33FF33" points="604.692,243.21,598.8825,244.2916,602.2199,244.9096,601.6018,248.247,604.692,243.21" style="stroke:#33FF33;stroke-width:0.6;"/><text fill="#33FF33" font-family="Verdana" font-size="7.8" lengthAdjust="spacing" textLength="15.6" x="581.915" y="255.5276">0..1</text></g><!--MD5=[7f1d0bf7102f85089487bdb0fa0969e2]
link Exam to Course--><g id="link_Exam_Course"><path codeLine="47" d="M434.934,448.248 C424.026,375.81 377.58,93.636 309,42.804 C260.154,6.6 223.404,10.02 172.2,42.804 C89.034,96.048 64.458,225.432 57.942,275.322 " fill="none" id="Exam-to-Course" style="stroke:#33FF33;stroke-width:0.6;"/><polygon fill="#33FF33" points="57.534,278.49,60.5942,273.4348,57.9114,275.5138,55.8324,272.831,57.534,278.49" style="stroke:#33FF33;stroke-width:0.6;"/><text fill="#33FF33" font-family="Verdana" font-size="7.8" lengthAdjust="spacing" textLength="41.4" x="212.7" y="15.2459">belongs to</text><text fill="#33FF33" font-family="Verdana" font-size="7.8" lengthAdjust="spacing" textLength="4.8" x="52.7179" y="272.1573">1</text></g><!--MD5=[65f2643ecff480d60263a5818aae4fed]
link Exam to ExamType--><g id="link_Exam_ExamType"><path codeLine="48" d="M460.632,465.204 C493.008,465.204 553.68,465.204 591.366,465.204 " fill="none" id="Exam-to-ExamType" style="stroke:#33FF33;stroke-width:0.6;"/><polygon fill="#33FF33" points="594.486,465.204,589.086,462.804,591.486,465.204,589.086,467.604,594.486,465.204" style="stroke:#33FF33;stroke-width:0.6;"/><text fill="#33FF33" font-family="Verdana" font-size="7.8" lengthAdjust="spacing" textLength="4.8" x="585.0715" y="473.7047">1</text></g><!--MD5=[c2390bc68d7640d8da5e4f3e9dd9a386]
link Exam to ExamInitalDateTime--><g id="link_Exam_ExamInitalDateTime"><path codeLine="49" d="M446.82,482.112 C463.428,515.208 503.442,589.866 550.8,642.204 C566.016,659.022 586.554,674.658 602.052,685.386 " fill="none" id="Exam-to-ExamInitalDateTime" style="stroke:#33FF33;stroke-width:0.6;"/><polygon fill="#33FF33" points="604.692,687.198,601.6018,682.161,602.2199,685.4984,598.8825,686.1164,604.692,687.198" style="stroke:#33FF33;stroke-width:0.6;"/><text fill="#33FF33" font-family="Verdana" font-size="7.8" lengthAdjust="spacing" textLength="4.8" x="592.6857" y="680.7022">1</text></g><!--MD5=[be26bea6c4e060e1f98bd7fe76777c88]
link Exam to ExamFinalDateTime--><g id="link_Exam_ExamFinalDateTime"><path codeLine="50" d="M460.632,479.37 C496.212,502.248 565.956,547.092 601.818,570.15 " fill="none" id="Exam-to-ExamFinalDateTime" style="stroke:#33FF33;stroke-width:0.6;"/><polygon fill="#33FF33" points="604.554,571.908,601.3018,566.9741,602.028,570.2896,598.7124,571.0158,604.554,571.908" style="stroke:#33FF33;stroke-width:0.6;"/><text fill="#33FF33" font-family="Verdana" font-size="7.8" lengthAdjust="spacing" textLength="4.8" x="592.788" y="565.5939">1</text></g><!--MD5=[cd6afb079e01a73105ec11ec29d38998]
reverse link ExamSection to Exam--><g id="link_ExamSection_Exam"><path codeLine="58" d="M243.99,768.912 C258.522,740.64 286.716,687.144 313.8,643.404 C351.66,582.264 401.832,513.162 424.866,482.01 " fill="none" id="ExamSection-backto-Exam" style="stroke:#33FF33;stroke-width:0.6;"/><polygon fill="#33FF33" points="242.544,771.732,247.1485,768.0282,243.9164,769.0643,242.8802,765.8323,242.544,771.732" style="stroke:#33FF33;stroke-width:0.6;"/><text fill="#33FF33" font-family="Verdana" font-size="7.8" lengthAdjust="spacing" textLength="5.4" x="238.7147" y="765.4096">*</text></g><!--MD5=[d5a125966cbd88501416f7069ce7d519]
link ExamSection to ExamSectionTextualDescription--><g id="link_ExamSection_ExamSectionTextualDescription"><path codeLine="59" d="M269.196,788.604 C294.144,788.604 328.602,788.604 359.838,788.604 " fill="none" id="ExamSection-to-ExamSectionTextualDescription" style="stroke:#33FF33;stroke-width:0.6;"/><polygon fill="#33FF33" points="362.85,788.604,357.45,786.204,359.85,788.604,357.45,791.004,362.85,788.604" style="stroke:#33FF33;stroke-width:0.6;"/><text fill="#33FF33" font-family="Verdana" font-size="7.8" lengthAdjust="spacing" textLength="15.6" x="342.7137" y="796.7117">0..1</text></g><!--MD5=[4c2d409318f899dd1a127cf791f5ed2c]
reverse link ExamQuestion to ExamSection--><g id="link_ExamQuestion_ExamSection"><path codeLine="70" d="M60.252,1558.938 C85.062,1448.166 206.022,908.166 229.02,805.482 " fill="none" id="ExamQuestion-backto-ExamSection" style="stroke:#33FF33;stroke-width:0.6;"/><polygon fill="#33FF33" points="59.58,1561.932,63.1075,1557.191,60.2389,1559.0053,58.4247,1556.1367,59.58,1561.932" style="stroke:#33FF33;stroke-width:0.6;"/><text fill="#33FF33" font-family="Verdana" font-size="7.8" lengthAdjust="spacing" textLength="5.4" x="54.5895" y="1555.6096">*</text></g><!--MD5=[35b6e0e0d9d4cf8d8023bc95512efbc4]
link ExamQuestion to ExamQuestionValue--><g id="link_ExamQuestion_ExamQuestionValue"><path codeLine="71" d="M94.206,1566.306 C122.76,1557.012 161.694,1544.346 191.022,1534.8 " fill="none" id="ExamQuestion-to-ExamQuestionValue" style="stroke:#33FF33;stroke-width:0.6;"/><polygon fill="#33FF33" points="194.01,1533.828,188.1313,1533.2269,191.1589,1534.7613,189.6245,1537.7888,194.01,1533.828" style="stroke:#33FF33;stroke-width:0.6;"/><text fill="#33FF33" font-family="Verdana" font-size="7.8" lengthAdjust="spacing" textLength="4.8" x="178.5013" y="1546.1502">1</text></g><!--MD5=[e74d8c3717d72255cf4fe6eb882dd683]
link ExamQuestion to ExamQuestionNumber--><g id="link_ExamQuestion_ExamQuestionNumber"><path codeLine="72" d="M94.206,1591.302 C122.76,1600.596 161.694,1613.262 191.022,1622.808 " fill="none" id="ExamQuestion-to-ExamQuestionNumber" style="stroke:#33FF33;stroke-width:0.6;"/><polygon fill="#33FF33" points="194.01,1623.78,189.6245,1619.8192,191.1589,1622.8467,188.1313,1624.3811,194.01,1623.78" style="stroke:#33FF33;stroke-width:0.6;"/><text fill="#33FF33" font-family="Verdana" font-size="7.8" lengthAdjust="spacing" textLength="4.8" x="175.8894" y="1617.2784">1</text></g><!--MD5=[f197c70a31e6994907e73729b49e96c7]
link ExamQuestion to ExamQuestionSolution--><g id="link_ExamQuestion_ExamQuestionSolution"><path codeLine="73" d="M72.66,1561.908 C95.202,1539.36 136.482,1498.248 172.2,1463.604 C187.308,1448.952 204.738,1432.422 217.014,1420.842 " fill="none" id="ExamQuestion-to-ExamQuestionSolution" style="stroke:#33FF33;stroke-width:0.6;"/><polygon fill="#33FF33" points="219.246,1418.736,213.6688,1420.6893,217.0614,1420.7921,216.9586,1424.1846,219.246,1418.736" style="stroke:#33FF33;stroke-width:0.6;"/><text fill="#33FF33" font-family="Verdana" font-size="7.8" lengthAdjust="spacing" textLength="4.8" x="210.204" y="1431.0859">1</text></g><!--MD5=[08c0c6d873efaebb0b84fee5e9b8e20f]
link ExamQuestion to ExamQuestionType--><g id="link_ExamQuestion_ExamQuestionType"><path codeLine="74" d="M62.112,1595.79 C77.328,1635.468 118.758,1736.418 172.2,1809.204 C183.672,1824.828 198.966,1840.392 211.32,1851.996 " fill="none" id="ExamQuestion-to-ExamQuestionType" style="stroke:#33FF33;stroke-width:0.6;"/><polygon fill="#33FF33" points="213.588,1854.114,211.2786,1848.6746,211.3951,1852.0667,208.003,1852.1832,213.588,1854.114" style="stroke:#33FF33;stroke-width:0.6;"/><text fill="#33FF33" font-family="Verdana" font-size="7.8" lengthAdjust="spacing" textLength="4.8" x="203.3738" y="1847.7872">1</text></g><!--MD5=[0f270eaf73ed88acaed6482fc06cf1be]
link ExamQuestion to ExamQuestionStatement--><g id="link_ExamQuestion_ExamQuestionStatement"><path codeLine="75" d="M72.66,1595.7 C95.202,1618.248 136.482,1659.36 172.2,1694.004 C187.308,1708.656 204.738,1725.186 217.014,1736.766 " fill="none" id="ExamQuestion-to-ExamQuestionStatement" style="stroke:#33FF33;stroke-width:0.6;"/><polygon fill="#33FF33" points="219.246,1738.872,216.9586,1733.4234,217.0614,1736.8159,213.6688,1736.9187,219.246,1738.872" style="stroke:#33FF33;stroke-width:0.6;"/><text fill="#33FF33" font-family="Verdana" font-size="7.8" lengthAdjust="spacing" textLength="4.8" x="209.3763" y="1732.5469">1</text></g><!--MD5=[64f60ad12d9c5feb033649e55d3c6665]
link FormerExam to FinalGrade--><g id="link_FormerExam_FinalGrade"><path codeLine="83" d="M268.506,1286.604 C306.54,1286.604 367.266,1286.604 404.604,1286.604 " fill="none" id="FormerExam-to-FinalGrade" style="stroke:#33FF33;stroke-width:0.6;"/><polygon fill="#33FF33" points="407.694,1286.604,402.294,1284.204,404.694,1286.604,402.294,1289.004,407.694,1286.604" style="stroke:#33FF33;stroke-width:0.6;"/><text fill="#33FF33" font-family="Verdana" font-size="7.8" lengthAdjust="spacing" textLength="4.8" x="398.0903" y="1295.1597">1</text></g><!--MD5=[443ec60ebbf11888467e43fb8a68b1e3]
link FormerExam to Exam--><g id="link_FormerExam_Exam"><path codeLine="84" d="M237.852,1269.714 C253.11,1202.952 311.01,951.078 363,744.804 C387.654,646.98 419.418,530.556 431.958,484.926 " fill="none" id="FormerExam-to-Exam" style="stroke:#33FF33;stroke-width:0.6;"/><polygon fill="#33FF33" points="432.756,482.028,429.0094,486.5978,431.9601,484.9205,433.6374,487.8712,432.756,482.028" style="stroke:#33FF33;stroke-width:0.6;"/><text fill="#33FF33" font-family="Verdana" font-size="7.8" lengthAdjust="spacing" textLength="4.8" x="426.1883" y="494.8439">1</text></g><!--MD5=[fe54f89a7051b290ef38f0e7ae1705cd]
link FormerExam to Student--><g id="link_FormerExam_Student"><path codeLine="85" d="M251.874,1269.786 C289.608,1234.278 377.196,1151.856 417.03,1114.374 " fill="none" id="FormerExam-to-Student" style="stroke:#33FF33;stroke-width:0.6;"/><polygon fill="#33FF33" points="419.352,1112.19,413.7708,1114.1317,417.1631,1114.2415,417.0532,1117.6339,419.352,1112.19" style="stroke:#33FF33;stroke-width:0.6;"/><text fill="#33FF33" font-family="Verdana" font-size="7.8" lengthAdjust="spacing" textLength="4.8" x="409.9477" y="1124.7724">1</text></g><!--MD5=[5a79860b1a5a3cd5a3053810f2016dbb]
@startuml DDD

!theme crt-green
skinparam nodesep 150
hide empty members
left to right direction

package "<<agr Course>>"{
    class Course<<entity>><<root>>{}
    class Code <<vo>>
    class Description<<vo>>{}
    class Title<<vo>>{}
    class State<<vo>><<enum>>{}

    Course  - -> "1" State
    Course  -down-> "1" Title
    Course  -down-> "1" Description
    Course  -down-> "1" Code
    Course - -> "*" Teacher : is ruled by


}
package "<<agr Student>>"{

    class Student<<entity>><<root>>{}
    class MechanographicalNumber<<vo>>{}
    class StudentTaxPayerNumber<<vo>>{}
    class StudentDateOfBirth<<vo>>{}

    Student - -> "1" MechanographicalNumber
    Student - -> "1" SystemUser
    'Student <- - "*" Lecture : participates
    Student - -> "1" StudentDateOfBirth
    Student - -> "1" StudentTaxPayerNumber
}

package "<<agr Exam>>"{
    class Exam  <<entity>><<root>> {}
    class ExamType <<enum>><<vo>>{}
    class ExamTitle <<vo>>{}
    class ExamHeaderTextualDescription <<vo>>{}
    class ExamInitalDateTime <<vo>> {}
    class ExamFinalDateTime <<vo>>{}

    Teacher - -> "*" Exam : creates
    Exam - -> "1" ExamTitle
    Exam - -> "0..1" ExamHeaderTextualDescription
    Exam - -> "1" Course : belongs to
    Exam - -> "1" ExamType
    Exam - -> "1" ExamInitalDateTime
    Exam - -> "1" ExamFinalDateTime

}

package "<<agr ExamSection>>"{
    class ExamSection <<entity>><<root>> {}
    class ExamSectionTextualDescription <<vo>>{}

    ExamSection "*" <- - Exam
    ExamSection - -> "0..1" ExamSectionTextualDescription
}

package "<<agr ExamQuestion>>"{
    class ExamQuestion <<entity>><<root>>{}
    class ExamQuestionStatement <<vo>>{}
    class ExamQuestionNumber <<vo>>{}
    class ExamQuestionValue <<vo>>{}
    class ExamQuestionSolution<<vo>>{}
    class ExamQuestionType <<vo>><<enum>>{}

    ExamQuestion "*" <- - ExamSection
    ExamQuestion - -> "1" ExamQuestionValue
    ExamQuestion - -> "1" ExamQuestionNumber
    ExamQuestion - -> "1" ExamQuestionSolution
    ExamQuestion - -> "1" ExamQuestionType
    ExamQuestion - -> "1" ExamQuestionStatement

}

package "<<agr FormerExam>>"{
    class FormerExam<<entity>><<root>>{}
    class FinalGrade<<vo>>{}

    FormerExam - -> "1" FinalGrade
    FormerExam - -> "1" Exam
    FormerExam - -> "1" Student
}






@enduml

@startuml DDD






<style>
  root {
    BackgroundColor #282828
    FontColor #33FF33
    FontName Verdana
    HyperLinkColor #33FF33
    LineColor #33FF33
    LineThickness 1
    Margin 5
  }
  box {
    LineStyle 12-18
    LineThickness 3
  }
  caption {
    LineThickness 0
  }
  footer {
    LineThickness 0
  }
  groupHeader {
    BackgroundColor #33FF33
    FontColor #282828
    FontStyle bold
  }
  header {
    LineThickness 0
  }
  node {
    MaximumWidth 300
  }
  referenceHeader {
    BackgroundColor #33FF33
    FontColor #282828
    FontStyle bold
  }
  separator {
    BackgroundColor #33FF33
    FontColor #282828
    FontStyle bold
  }
  title {
    FontSize 22
    LineThickness 0
  }
</style>

skinparam ArrowLollipopColor #33FF33
skinparam BackgroundColor #282828
skinparam DefaultFontName Verdana
skinparam DefaultMonospacedFontName Courier
skinparam LifelineStrategy solid
skinparam ParticipantPadding 10
skinparam SequenceLifeLineBorderColor #33FF33
skinparam Shadowing false
skinparam UseBetaStyle true

skinparam Activity {
  BackgroundColor #282828
  BarColor #33FF33
  BorderColor #33FF33
  FontColor #33FF33
  FontName Verdana
}
skinparam Boundary {
  FontColor #33FF33
}
skinparam Box {
  Padding 5
}
skinparam CircledCharacter {
  FontColor #282828
  FontName Courier
  Radius 9
}
skinparam Class {
  BackgroundColor #282828
  BorderColor #33FF33
  FontColor #33FF33
  FontName Verdana
}
skinparam ClassAttribute {
  FontColor #33FF33
  FontName Verdana
}
skinparam ClassStereotype {
  FontColor #33FF33
  FontName Verdana
}
skinparam Footer {
  FontColor #33FF33
  FontName Verdana
}
skinparam Header {
  FontColor #33FF33
  FontName Verdana
}
skinparam Hyperlink {
  Color #33FF33
}
skinparam IconPackage {
  Color #33FF33
  BackgroundColor #282828
}
skinparam IconPrivate {
  Color #33FF33
  BackgroundColor #282828
}
skinparam IconProtected {
  Color #33FF33
  BackgroundColor #282828
}
skinparam IconPublic {
  Color #33FF33
  BackgroundColor #282828
}
skinparam Note {
  FontColor #33FF33
  FontName Verdana
}
skinparam Object {
  BorderColor #33FF33
}
skinparam Package {
  BorderColor #33FF33
  FontColor #33FF33
  FontName Verdana
}
skinparam State {
  BackgroundColor #282828
  BorderColor #33FF33
}
skinparam StereotypeA {
  BackgroundColor #33FF33
  BorderColor #33FF33
}
skinparam StereotypeC {
  BackgroundColor #33FF33
  BorderColor #33FF33
}
skinparam StereotypeE {
  BackgroundColor #33FF33
  BorderColor #33FF33
}
skinparam StereotypeI {
  BackgroundColor #33FF33
  BorderColor #33FF33
}
skinparam StereotypeN {
  BackgroundColor #33FF33
  BorderColor #33FF33
}
skinparam UseCaseStereoType {
  FontColor #33FF33
  FontName Verdana
}
skinparam nodesep 150
hide empty members
left to right direction

package "<<agr Course>>"{
    class Course<<entity>><<root>>{}
    class Code <<vo>>
    class Description<<vo>>{}
    class Title<<vo>>{}
    class State<<vo>><<enum>>{}

    Course  - -> "1" State
    Course  -down-> "1" Title
    Course  -down-> "1" Description
    Course  -down-> "1" Code
    Course - -> "*" Teacher : is ruled by


}
package "<<agr Student>>"{

    class Student<<entity>><<root>>{}
    class MechanographicalNumber<<vo>>{}
    class StudentTaxPayerNumber<<vo>>{}
    class StudentDateOfBirth<<vo>>{}

    Student - -> "1" MechanographicalNumber
    Student - -> "1" SystemUser
    Student - -> "1" StudentDateOfBirth
    Student - -> "1" StudentTaxPayerNumber
}

package "<<agr Exam>>"{
    class Exam  <<entity>><<root>> {}
    class ExamType <<enum>><<vo>>{}
    class ExamTitle <<vo>>{}
    class ExamHeaderTextualDescription <<vo>>{}
    class ExamInitalDateTime <<vo>> {}
    class ExamFinalDateTime <<vo>>{}

    Teacher - -> "*" Exam : creates
    Exam - -> "1" ExamTitle
    Exam - -> "0..1" ExamHeaderTextualDescription
    Exam - -> "1" Course : belongs to
    Exam - -> "1" ExamType
    Exam - -> "1" ExamInitalDateTime
    Exam - -> "1" ExamFinalDateTime

}

package "<<agr ExamSection>>"{
    class ExamSection <<entity>><<root>> {}
    class ExamSectionTextualDescription <<vo>>{}

    ExamSection "*" <- - Exam
    ExamSection - -> "0..1" ExamSectionTextualDescription
}

package "<<agr ExamQuestion>>"{
    class ExamQuestion <<entity>><<root>>{}
    class ExamQuestionStatement <<vo>>{}
    class ExamQuestionNumber <<vo>>{}
    class ExamQuestionValue <<vo>>{}
    class ExamQuestionSolution<<vo>>{}
    class ExamQuestionType <<vo>><<enum>>{}

    ExamQuestion "*" <- - ExamSection
    ExamQuestion - -> "1" ExamQuestionValue
    ExamQuestion - -> "1" ExamQuestionNumber
    ExamQuestion - -> "1" ExamQuestionSolution
    ExamQuestion - -> "1" ExamQuestionType
    ExamQuestion - -> "1" ExamQuestionStatement

}

package "<<agr FormerExam>>"{
    class FormerExam<<entity>><<root>>{}
    class FinalGrade<<vo>>{}

    FormerExam - -> "1" FinalGrade
    FormerExam - -> "1" Exam
    FormerExam - -> "1" Student
}






@enduml

PlantUML version 1.2022.12(Sun Oct 23 19:12:26 BST 2022)
(GPL source distribution)
Java Runtime: OpenJDK Runtime Environment
JVM: OpenJDK 64-Bit Server VM
Default Encoding: Cp1252
Language: en
Country: US
--></g></svg>