<?xml version="1.0" encoding="UTF-8" standalone="no"?><svg xmlns="http://www.w3.org/2000/svg" xmlns:xlink="http://www.w3.org/1999/xlink" contentStyleType="text/css" height="590.72px" preserveAspectRatio="none" style="width:2012px;height:590px;background:#FFFFFF;" version="1.1" viewBox="0 0 2012 590" width="2012.14px" zoomAndPan="magnify"><defs/><g><rect fill="#FFFFFF" height="435.9622" style="stroke:#181818;stroke-width:0.71;" width="7.1" x="302.815" y="78.2553"/><rect fill="#FFFFFF" height="219.7561" style="stroke:#181818;stroke-width:0.71;" width="7.1" x="496.645" y="94.1249"/><rect fill="#FFFFFF" height="174.5269" style="stroke:#181818;stroke-width:0.71;" width="7.1" x="959.565" y="117.8045"/><rect fill="#FFFFFF" height="86.1984" style="stroke:#181818;stroke-width:0.71;" width="7.1" x="1232.915" y="184.5834"/><rect fill="#FFFFFF" height="135.6877" style="stroke:#181818;stroke-width:0.71;" width="7.1" x="1607.085" y="378.5298"/><rect fill="#FFFFFF" height="43.0992" style="stroke:#181818;stroke-width:0.71;" width="7.1" x="1707.905" y="141.4841"/><rect fill="#FFFFFF" height="43.0992" style="stroke:#181818;stroke-width:0.71;" width="7.1" x="1825.055" y="206.133"/><rect fill="#FFFFFF" height="43.0992" style="stroke:#181818;stroke-width:0.71;" width="7.1" x="1953.21" y="400.0795"/><line style="stroke:#181818;stroke-width:0.355;stroke-dasharray:5.0,5.0;" x1="22.72" x2="22.72" y1="71.1553" y2="520.6075"/><line style="stroke:#181818;stroke-width:0.355;stroke-dasharray:5.0,5.0;" x1="306.365" x2="306.365" y1="71.1553" y2="520.6075"/><line style="stroke:#181818;stroke-width:0.355;stroke-dasharray:5.0,5.0;" x1="500.195" x2="500.195" y1="71.1553" y2="520.6075"/><line style="stroke:#181818;stroke-width:0.355;stroke-dasharray:5.0,5.0;" x1="963.115" x2="963.115" y1="71.1553" y2="520.6075"/><line style="stroke:#181818;stroke-width:0.355;stroke-dasharray:5.0,5.0;" x1="1236.11" x2="1236.11" y1="71.1553" y2="520.6075"/><line style="stroke:#181818;stroke-width:0.355;stroke-dasharray:5.0,5.0;" x1="1350.42" x2="1350.42" y1="71.1553" y2="520.6075"/><line style="stroke:#181818;stroke-width:0.355;stroke-dasharray:5.0,5.0;" x1="1489.58" x2="1489.58" y1="71.1553" y2="520.6075"/><line style="stroke:#181818;stroke-width:0.355;stroke-dasharray:5.0,5.0;" x1="1610.28" x2="1610.28" y1="71.1553" y2="520.6075"/><line style="stroke:#181818;stroke-width:0.355;stroke-dasharray:5.0,5.0;" x1="1711.1" x2="1711.1" y1="71.1553" y2="520.6075"/><line style="stroke:#181818;stroke-width:0.355;stroke-dasharray:5.0,5.0;" x1="1828.25" x2="1828.25" y1="71.1553" y2="520.6075"/><line style="stroke:#181818;stroke-width:0.355;stroke-dasharray:5.0,5.0;" x1="1956.76" x2="1956.76" y1="71.1553" y2="520.6075"/><text fill="#000000" font-family="sans-serif" font-size="9.94" font-style="italic" lengthAdjust="spacing" textLength="34.08" x="3.905" y="56.4686">«actor»</text><text fill="#000000" font-family="sans-serif" font-size="9.94" lengthAdjust="spacing" textLength="34.79" x="3.55" y="68.9712">Student</text><ellipse cx="23.075" cy="9.585" fill="#E2E2F0" rx="5.68" ry="5.68" style="stroke:#181818;stroke-width:0.355;"/><path d="M23.075,15.265 L23.075,34.435 M13.845,20.945 L32.305,20.945 M23.075,34.435 L13.845,45.085 M23.075,34.435 L32.305,45.085 " fill="none" style="stroke:#181818;stroke-width:0.355;"/><text fill="#000000" font-family="sans-serif" font-size="9.94" font-style="italic" lengthAdjust="spacing" textLength="34.08" x="3.905" y="530.2161">«actor»</text><text fill="#000000" font-family="sans-serif" font-size="9.94" lengthAdjust="spacing" textLength="34.79" x="3.55" y="542.7187">Student</text><ellipse cx="23.075" cy="550.9378" fill="#E2E2F0" rx="5.68" ry="5.68" style="stroke:#181818;stroke-width:0.355;"/><path d="M23.075,556.6178 L23.075,575.7878 M13.845,562.2978 L32.305,562.2978 M23.075,575.7878 L13.845,586.4378 M23.075,575.7878 L32.305,586.4378 " fill="none" style="stroke:#181818;stroke-width:0.355;"/><rect fill="#E2E2F0" height="34.9453" rx="1.775" ry="1.775" style="stroke:#181818;stroke-width:0.355;" width="126.38" x="243.175" y="35.5"/><text fill="#000000" font-family="sans-serif" font-size="9.94" font-style="italic" lengthAdjust="spacing" textLength="67.45" x="272.64" y="50.7886">«presentation»</text><text fill="#000000" font-family="sans-serif" font-size="9.94" lengthAdjust="spacing" textLength="116.44" x="248.145" y="63.2912">ListExamGradesStudentUI</text><rect fill="#E2E2F0" height="34.9453" rx="1.775" ry="1.775" style="stroke:#181818;stroke-width:0.355;" width="126.38" x="243.175" y="519.8975"/><text fill="#000000" font-family="sans-serif" font-size="9.94" font-style="italic" lengthAdjust="spacing" textLength="67.45" x="272.64" y="535.1861">«presentation»</text><text fill="#000000" font-family="sans-serif" font-size="9.94" lengthAdjust="spacing" textLength="116.44" x="248.145" y="547.6887">ListExamGradesStudentUI</text><rect fill="#E2E2F0" height="34.9453" rx="1.775" ry="1.775" style="stroke:#181818;stroke-width:0.355;" width="96.56" x="451.915" y="35.5"/><text fill="#000000" font-family="sans-serif" font-size="9.94" font-style="italic" lengthAdjust="spacing" textLength="59.64" x="470.375" y="50.7886">«application»</text><text fill="#000000" font-family="sans-serif" font-size="9.94" lengthAdjust="spacing" textLength="86.62" x="456.885" y="63.2912">ListCoursesService</text><rect fill="#E2E2F0" height="34.9453" rx="1.775" ry="1.775" style="stroke:#181818;stroke-width:0.355;" width="96.56" x="451.915" y="519.8975"/><text fill="#000000" font-family="sans-serif" font-size="9.94" font-style="italic" lengthAdjust="spacing" textLength="59.64" x="470.375" y="535.1861">«application»</text><text fill="#000000" font-family="sans-serif" font-size="9.94" lengthAdjust="spacing" textLength="86.62" x="456.885" y="547.6887">ListCoursesService</text><rect fill="#E2E2F0" height="34.9453" rx="1.775" ry="1.775" style="stroke:#181818;stroke-width:0.355;" width="78.1" x="924.065" y="35.5"/><text fill="#000000" font-family="sans-serif" font-size="9.94" font-style="italic" lengthAdjust="spacing" textLength="59.64" x="933.295" y="50.7886">«application»</text><text fill="#000000" font-family="sans-serif" font-size="9.94" lengthAdjust="spacing" textLength="68.16" x="929.035" y="63.2912">StudentService</text><rect fill="#E2E2F0" height="34.9453" rx="1.775" ry="1.775" style="stroke:#181818;stroke-width:0.355;" width="78.1" x="924.065" y="519.8975"/><text fill="#000000" font-family="sans-serif" font-size="9.94" font-style="italic" lengthAdjust="spacing" textLength="59.64" x="933.295" y="535.1861">«application»</text><text fill="#000000" font-family="sans-serif" font-size="9.94" lengthAdjust="spacing" textLength="68.16" x="929.035" y="547.6887">StudentService</text><rect fill="#E2E2F0" height="34.9453" rx="1.775" ry="1.775" style="stroke:#181818;stroke-width:0.355;" width="75.97" x="1198.48" y="35.5"/><text fill="#000000" font-family="sans-serif" font-size="9.94" font-style="italic" lengthAdjust="spacing" textLength="59.64" x="1206.645" y="50.7886">«application»</text><text fill="#000000" font-family="sans-serif" font-size="9.94" lengthAdjust="spacing" textLength="66.03" x="1203.45" y="63.2912">CourseService</text><rect fill="#E2E2F0" height="34.9453" rx="1.775" ry="1.775" style="stroke:#181818;stroke-width:0.355;" width="75.97" x="1198.48" y="519.8975"/><text fill="#000000" font-family="sans-serif" font-size="9.94" font-style="italic" lengthAdjust="spacing" textLength="59.64" x="1206.645" y="535.1861">«application»</text><text fill="#000000" font-family="sans-serif" font-size="9.94" lengthAdjust="spacing" textLength="66.03" x="1203.45" y="547.6887">CourseService</text><rect fill="#E2E2F0" height="34.9453" rx="1.775" ry="1.775" style="stroke:#181818;stroke-width:0.355;" width="137.74" x="1281.55" y="35.5"/><text fill="#000000" font-family="sans-serif" font-size="9.94" font-style="italic" lengthAdjust="spacing" textLength="59.64" x="1320.6" y="50.7886">«application»</text><text fill="#000000" font-family="sans-serif" font-size="9.94" lengthAdjust="spacing" textLength="127.8" x="1286.52" y="63.2912">ListStudentGradesController</text><rect fill="#E2E2F0" height="34.9453" rx="1.775" ry="1.775" style="stroke:#181818;stroke-width:0.355;" width="137.74" x="1281.55" y="519.8975"/><text fill="#000000" font-family="sans-serif" font-size="9.94" font-style="italic" lengthAdjust="spacing" textLength="59.64" x="1320.6" y="535.1861">«application»</text><text fill="#000000" font-family="sans-serif" font-size="9.94" lengthAdjust="spacing" textLength="127.8" x="1286.52" y="547.6887">ListStudentGradesController</text><rect fill="#E2E2F0" height="22.4427" rx="1.775" ry="1.775" style="stroke:#181818;stroke-width:0.355;" width="127.09" x="1426.39" y="48.0027"/><text fill="#000000" font-family="sans-serif" font-size="9.94" lengthAdjust="spacing" textLength="117.15" x="1431.36" y="63.2912">ListStudentGradesService</text><rect fill="#E2E2F0" height="22.4427" rx="1.775" ry="1.775" style="stroke:#181818;stroke-width:0.355;" width="127.09" x="1426.39" y="519.8975"/><text fill="#000000" font-family="sans-serif" font-size="9.94" lengthAdjust="spacing" textLength="117.15" x="1431.36" y="535.1861">ListStudentGradesService</text><rect fill="#E2E2F0" height="22.4427" rx="1.775" ry="1.775" style="stroke:#181818;stroke-width:0.355;" width="100.11" x="1560.58" y="48.0027"/><text fill="#000000" font-family="sans-serif" font-size="9.94" lengthAdjust="spacing" textLength="90.17" x="1565.55" y="63.2912">FormerExamService</text><rect fill="#E2E2F0" height="22.4427" rx="1.775" ry="1.775" style="stroke:#181818;stroke-width:0.355;" width="100.11" x="1560.58" y="519.8975"/><text fill="#000000" font-family="sans-serif" font-size="9.94" lengthAdjust="spacing" textLength="90.17" x="1565.55" y="535.1861">FormerExamService</text><text fill="#000000" font-family="sans-serif" font-size="9.94" lengthAdjust="spacing" textLength="83.07" x="1667.79" y="68.9712">StudentRepository</text><path d="M1698.675,33.0927 C1698.675,25.9927 1711.455,25.9927 1711.455,25.9927 C1711.455,25.9927 1724.235,25.9927 1724.235,33.0927 L1724.235,51.5527 C1724.235,58.6527 1711.455,58.6527 1711.455,58.6527 C1711.455,58.6527 1698.675,58.6527 1698.675,51.5527 L1698.675,33.0927 " fill="#E2E2F0" style="stroke:#181818;stroke-width:1.065;"/><path d="M1698.675,33.0927 C1698.675,40.1927 1711.455,40.1927 1711.455,40.1927 C1711.455,40.1927 1724.235,40.1927 1724.235,33.0927 " fill="none" style="stroke:#181818;stroke-width:1.065;"/><text fill="#000000" font-family="sans-serif" font-size="9.94" lengthAdjust="spacing" textLength="83.07" x="1667.79" y="530.2161">StudentRepository</text><path d="M1698.675,539.5002 C1698.675,532.4002 1711.455,532.4002 1711.455,532.4002 C1711.455,532.4002 1724.235,532.4002 1724.235,539.5002 L1724.235,557.9602 C1724.235,565.0602 1711.455,565.0602 1711.455,565.0602 C1711.455,565.0602 1698.675,565.0602 1698.675,557.9602 L1698.675,539.5002 " fill="#E2E2F0" style="stroke:#181818;stroke-width:1.065;"/><path d="M1698.675,539.5002 C1698.675,546.6002 1711.455,546.6002 1711.455,546.6002 C1711.455,546.6002 1724.235,546.6002 1724.235,539.5002 " fill="none" style="stroke:#181818;stroke-width:1.065;"/><text fill="#000000" font-family="sans-serif" font-size="9.94" lengthAdjust="spacing" textLength="128.51" x="1762.22" y="68.9712">CourseEnrollmentRepository</text><path d="M1815.825,33.0927 C1815.825,25.9927 1828.605,25.9927 1828.605,25.9927 C1828.605,25.9927 1841.385,25.9927 1841.385,33.0927 L1841.385,51.5527 C1841.385,58.6527 1828.605,58.6527 1828.605,58.6527 C1828.605,58.6527 1815.825,58.6527 1815.825,51.5527 L1815.825,33.0927 " fill="#E2E2F0" style="stroke:#181818;stroke-width:1.065;"/><path d="M1815.825,33.0927 C1815.825,40.1927 1828.605,40.1927 1828.605,40.1927 C1828.605,40.1927 1841.385,40.1927 1841.385,33.0927 " fill="none" style="stroke:#181818;stroke-width:1.065;"/><text fill="#000000" font-family="sans-serif" font-size="9.94" lengthAdjust="spacing" textLength="128.51" x="1762.22" y="530.2161">CourseEnrollmentRepository</text><path d="M1815.825,539.5002 C1815.825,532.4002 1828.605,532.4002 1828.605,532.4002 C1828.605,532.4002 1841.385,532.4002 1841.385,539.5002 L1841.385,557.9602 C1841.385,565.0602 1828.605,565.0602 1828.605,565.0602 C1828.605,565.0602 1815.825,565.0602 1815.825,557.9602 L1815.825,539.5002 " fill="#E2E2F0" style="stroke:#181818;stroke-width:1.065;"/><path d="M1815.825,539.5002 C1815.825,546.6002 1828.605,546.6002 1828.605,546.6002 C1828.605,546.6002 1841.385,546.6002 1841.385,539.5002 " fill="none" style="stroke:#181818;stroke-width:1.065;"/><text fill="#000000" font-family="sans-serif" font-size="9.94" lengthAdjust="spacing" textLength="105.08" x="1902.09" y="68.9712">FormerExamRepository</text><path d="M1943.98,33.0927 C1943.98,25.9927 1956.76,25.9927 1956.76,25.9927 C1956.76,25.9927 1969.54,25.9927 1969.54,33.0927 L1969.54,51.5527 C1969.54,58.6527 1956.76,58.6527 1956.76,58.6527 C1956.76,58.6527 1943.98,58.6527 1943.98,51.5527 L1943.98,33.0927 " fill="#E2E2F0" style="stroke:#181818;stroke-width:1.065;"/><path d="M1943.98,33.0927 C1943.98,40.1927 1956.76,40.1927 1956.76,40.1927 C1956.76,40.1927 1969.54,40.1927 1969.54,33.0927 " fill="none" style="stroke:#181818;stroke-width:1.065;"/><text fill="#000000" font-family="sans-serif" font-size="9.94" lengthAdjust="spacing" textLength="105.08" x="1902.09" y="530.2161">FormerExamRepository</text><path d="M1943.98,539.5002 C1943.98,532.4002 1956.76,532.4002 1956.76,532.4002 C1956.76,532.4002 1969.54,532.4002 1969.54,539.5002 L1969.54,557.9602 C1969.54,565.0602 1956.76,565.0602 1956.76,565.0602 C1956.76,565.0602 1943.98,565.0602 1943.98,557.9602 L1943.98,539.5002 " fill="#E2E2F0" style="stroke:#181818;stroke-width:1.065;"/><path d="M1943.98,539.5002 C1943.98,546.6002 1956.76,546.6002 1956.76,546.6002 C1956.76,546.6002 1969.54,546.6002 1969.54,539.5002 " fill="none" style="stroke:#181818;stroke-width:1.065;"/><rect fill="#FFFFFF" height="435.9622" style="stroke:#181818;stroke-width:0.71;" width="7.1" x="302.815" y="78.2553"/><rect fill="#FFFFFF" height="219.7561" style="stroke:#181818;stroke-width:0.71;" width="7.1" x="496.645" y="94.1249"/><rect fill="#FFFFFF" height="174.5269" style="stroke:#181818;stroke-width:0.71;" width="7.1" x="959.565" y="117.8045"/><rect fill="#FFFFFF" height="86.1984" style="stroke:#181818;stroke-width:0.71;" width="7.1" x="1232.915" y="184.5834"/><rect fill="#FFFFFF" height="135.6877" style="stroke:#181818;stroke-width:0.71;" width="7.1" x="1607.085" y="378.5298"/><rect fill="#FFFFFF" height="43.0992" style="stroke:#181818;stroke-width:0.71;" width="7.1" x="1707.905" y="141.4841"/><rect fill="#FFFFFF" height="43.0992" style="stroke:#181818;stroke-width:0.71;" width="7.1" x="1825.055" y="206.133"/><rect fill="#FFFFFF" height="43.0992" style="stroke:#181818;stroke-width:0.71;" width="7.1" x="1953.21" y="400.0795"/><polygon fill="#181818" points="294.295,91.2849,301.395,94.1249,294.295,96.9649,297.135,94.1249" style="stroke:#181818;stroke-width:0.71;"/><line style="stroke:#181818;stroke-width:0.71;" x1="23.075" x2="298.555" y1="94.1249" y2="94.1249"/><text fill="#000000" font-family="sans-serif" font-size="9.23" font-weight="bold" lengthAdjust="spacing" textLength="4.97" x="28.045" y="90.6768">1</text><text fill="#000000" font-family="sans-serif" font-size="9.23" lengthAdjust="spacing" textLength="110.76" x="35.855" y="90.6768">asks for a list of his grades</text><polygon fill="#181818" points="488.125,114.9645,495.225,117.8045,488.125,120.6445,490.965,117.8045" style="stroke:#181818;stroke-width:0.71;"/><line style="stroke:#181818;stroke-width:0.71;" x1="309.915" x2="492.385" y1="117.8045" y2="117.8045"/><text fill="#000000" font-family="sans-serif" font-size="9.23" font-weight="bold" lengthAdjust="spacing" textLength="4.97" x="314.885" y="114.3565">2</text><text fill="#000000" font-family="sans-serif" font-size="9.23" lengthAdjust="spacing" textLength="161.88" x="322.695" y="114.3565">Iterable&lt;CourseDTO&gt; studentCourses()</text><path d="M506.94,103.3549 L506.94,121.8149 L670.95,121.8149 L670.95,110.4549 L663.85,103.3549 L506.94,103.3549 " fill="#FEFFDD" style="stroke:#181818;stroke-width:0.355;"/><path d="M663.85,103.3549 L663.85,110.4549 L670.95,110.4549 L663.85,103.3549 " fill="#FEFFDD" style="stroke:#181818;stroke-width:0.355;"/><text fill="#000000" font-family="sans-serif" font-size="9.23" lengthAdjust="spacing" textLength="149.1" x="511.2" y="116.4865">the user is obtained through session</text><polygon fill="#181818" points="951.045,138.6441,958.145,141.4841,951.045,144.3241,953.885,141.4841" style="stroke:#181818;stroke-width:0.71;"/><line style="stroke:#181818;stroke-width:0.71;" x1="503.745" x2="955.305" y1="141.4841" y2="141.4841"/><text fill="#000000" font-family="sans-serif" font-size="9.23" font-weight="bold" lengthAdjust="spacing" textLength="4.97" x="508.715" y="138.0361">3</text><text fill="#000000" font-family="sans-serif" font-size="9.23" lengthAdjust="spacing" textLength="430.97" x="516.525" y="138.0361">Student studentLog = findStudentByUsername(this.authz.session().get().authenticatedUser().username())</text><polygon fill="#181818" points="1699.385,160.1938,1706.485,163.0338,1699.385,165.8738,1702.225,163.0338" style="stroke:#181818;stroke-width:0.71;"/><line style="stroke:#181818;stroke-width:0.71;" x1="966.665" x2="1703.645" y1="163.0338" y2="163.0338"/><text fill="#000000" font-family="sans-serif" font-size="9.23" font-weight="bold" lengthAdjust="spacing" textLength="4.97" x="971.635" y="159.5857">4</text><text fill="#000000" font-family="sans-serif" font-size="9.23" lengthAdjust="spacing" textLength="124.25" x="979.445" y="159.5857">findStudentByUserName(user)</text><polygon fill="#181818" points="974.475,181.7434,967.375,184.5834,974.475,187.4234,971.635,184.5834" style="stroke:#181818;stroke-width:0.71;"/><line style="stroke:#181818;stroke-width:0.71;stroke-dasharray:2.0,2.0;" x1="970.215" x2="1710.745" y1="184.5834" y2="184.5834"/><text fill="#000000" font-family="sans-serif" font-size="9.23" font-weight="bold" lengthAdjust="spacing" textLength="4.97" x="978.735" y="181.1353">5</text><text fill="#000000" font-family="sans-serif" font-size="9.23" lengthAdjust="spacing" textLength="2.84" x="986.545" y="181.1353"> </text><polygon fill="#181818" points="1224.395,203.293,1231.495,206.133,1224.395,208.973,1227.235,206.133" style="stroke:#181818;stroke-width:0.71;"/><line style="stroke:#181818;stroke-width:0.71;" x1="966.665" x2="1228.655" y1="206.133" y2="206.133"/><text fill="#000000" font-family="sans-serif" font-size="9.23" font-weight="bold" lengthAdjust="spacing" textLength="4.97" x="971.635" y="202.6849">6</text><text fill="#000000" font-family="sans-serif" font-size="9.23" lengthAdjust="spacing" textLength="241.4" x="979.445" y="202.6849">Iterable&lt;CourseDTO&gt; result = studentCourses(studentLog)</text><polygon fill="#181818" points="1816.535,224.8426,1823.635,227.6826,1816.535,230.5226,1819.375,227.6826" style="stroke:#181818;stroke-width:0.71;"/><line style="stroke:#181818;stroke-width:0.71;" x1="1240.015" x2="1820.795" y1="227.6826" y2="227.6826"/><text fill="#000000" font-family="sans-serif" font-size="9.23" font-weight="bold" lengthAdjust="spacing" textLength="4.97" x="1244.985" y="224.2345">7</text><text fill="#000000" font-family="sans-serif" font-size="9.23" lengthAdjust="spacing" textLength="491.32" x="1252.795" y="224.2345">Iterable&lt;Course&gt; courses = coursesThatStudentIsEnrolledOn(student.toDTO().getMechanographicalNumber().toString())</text><polygon fill="#181818" points="1247.825,246.3922,1240.725,249.2322,1247.825,252.0722,1244.985,249.2322" style="stroke:#181818;stroke-width:0.71;"/><line style="stroke:#181818;stroke-width:0.71;stroke-dasharray:2.0,2.0;" x1="1243.565" x2="1827.895" y1="249.2322" y2="249.2322"/><text fill="#000000" font-family="sans-serif" font-size="9.23" font-weight="bold" lengthAdjust="spacing" textLength="4.97" x="1252.085" y="245.7841">8</text><text fill="#000000" font-family="sans-serif" font-size="9.23" lengthAdjust="spacing" textLength="2.84" x="1259.895" y="245.7841"> </text><polygon fill="#181818" points="974.475,267.9418,967.375,270.7818,974.475,273.6218,971.635,270.7818" style="stroke:#181818;stroke-width:0.71;"/><line style="stroke:#181818;stroke-width:0.71;stroke-dasharray:2.0,2.0;" x1="970.215" x2="1235.755" y1="270.7818" y2="270.7818"/><text fill="#000000" font-family="sans-serif" font-size="9.23" font-weight="bold" lengthAdjust="spacing" textLength="4.97" x="978.735" y="267.3337">9</text><text fill="#000000" font-family="sans-serif" font-size="9.23" lengthAdjust="spacing" textLength="22.72" x="986.545" y="267.3337">result</text><polygon fill="#181818" points="511.555,289.4914,504.455,292.3314,511.555,295.1714,508.715,292.3314" style="stroke:#181818;stroke-width:0.71;"/><line style="stroke:#181818;stroke-width:0.71;stroke-dasharray:2.0,2.0;" x1="507.295" x2="962.405" y1="292.3314" y2="292.3314"/><text fill="#000000" font-family="sans-serif" font-size="9.23" font-weight="bold" lengthAdjust="spacing" textLength="9.94" x="515.815" y="288.8833">10</text><text fill="#000000" font-family="sans-serif" font-size="9.23" lengthAdjust="spacing" textLength="22.72" x="528.595" y="288.8833">result</text><polygon fill="#181818" points="317.725,311.041,310.625,313.881,317.725,316.721,314.885,313.881" style="stroke:#181818;stroke-width:0.71;"/><line style="stroke:#181818;stroke-width:0.71;stroke-dasharray:2.0,2.0;" x1="313.465" x2="499.485" y1="313.881" y2="313.881"/><text fill="#000000" font-family="sans-serif" font-size="9.23" font-weight="bold" lengthAdjust="spacing" textLength="9.94" x="321.985" y="310.4329">11</text><text fill="#000000" font-family="sans-serif" font-size="9.23" lengthAdjust="spacing" textLength="22.72" x="334.765" y="310.4329">result</text><polygon fill="#181818" points="30.885,332.5906,23.785,335.4306,30.885,338.2706,28.045,335.4306" style="stroke:#181818;stroke-width:0.71;"/><line style="stroke:#181818;stroke-width:0.71;stroke-dasharray:2.0,2.0;" x1="26.625" x2="302.105" y1="335.4306" y2="335.4306"/><text fill="#000000" font-family="sans-serif" font-size="9.23" font-weight="bold" lengthAdjust="spacing" textLength="9.94" x="35.145" y="331.9825">12</text><text fill="#000000" font-family="sans-serif" font-size="9.23" lengthAdjust="spacing" textLength="181.76" x="47.925" y="331.9825">shows a list of courses to the student select</text><polygon fill="#181818" points="294.295,354.1402,301.395,356.9802,294.295,359.8202,297.135,356.9802" style="stroke:#181818;stroke-width:0.71;"/><line style="stroke:#181818;stroke-width:0.71;" x1="23.075" x2="298.555" y1="356.9802" y2="356.9802"/><text fill="#000000" font-family="sans-serif" font-size="9.23" font-weight="bold" lengthAdjust="spacing" textLength="9.94" x="28.045" y="353.5322">13</text><text fill="#000000" font-family="sans-serif" font-size="9.23" lengthAdjust="spacing" textLength="195.96" x="40.825" y="353.5322">selects a course to list the grades of it's Exams</text><polygon fill="#181818" points="1341.9,375.6898,1349,378.5298,1341.9,381.3698,1344.74,378.5298" style="stroke:#181818;stroke-width:0.71;"/><line style="stroke:#181818;stroke-width:0.71;" x1="309.915" x2="1346.16" y1="378.5298" y2="378.5298"/><text fill="#000000" font-family="sans-serif" font-size="9.23" font-weight="bold" lengthAdjust="spacing" textLength="9.94" x="314.885" y="375.0818">14</text><text fill="#000000" font-family="sans-serif" font-size="9.23" lengthAdjust="spacing" textLength="332.28" x="327.665" y="375.0818">Iterable&lt;FormerExamDTO&gt; formerExamList = listExamsGrades(selectedCourse)</text><polygon fill="#181818" points="1598.565,397.2395,1605.665,400.0795,1598.565,402.9195,1601.405,400.0795" style="stroke:#181818;stroke-width:0.71;"/><line style="stroke:#181818;stroke-width:0.71;" x1="1350.42" x2="1602.825" y1="400.0795" y2="400.0795"/><text fill="#000000" font-family="sans-serif" font-size="9.23" font-weight="bold" lengthAdjust="spacing" textLength="9.94" x="1355.39" y="396.6314">15</text><text fill="#000000" font-family="sans-serif" font-size="9.23" lengthAdjust="spacing" textLength="104.37" x="1368.17" y="396.6314">listExamsGrades(course)</text><polygon fill="#181818" points="1944.69,418.7891,1951.79,421.6291,1944.69,424.4691,1947.53,421.6291" style="stroke:#181818;stroke-width:0.71;"/><line style="stroke:#181818;stroke-width:0.71;" x1="1614.185" x2="1948.95" y1="421.6291" y2="421.6291"/><text fill="#000000" font-family="sans-serif" font-size="9.23" font-weight="bold" lengthAdjust="spacing" textLength="9.94" x="1619.155" y="418.181">16</text><text fill="#000000" font-family="sans-serif" font-size="9.23" lengthAdjust="spacing" textLength="275.48" x="1631.935" y="418.181">Iterable&lt;FormerExam&gt; exams =listFormerExamsOfCourse(course)</text><polygon fill="#181818" points="1621.995,440.3387,1614.895,443.1787,1621.995,446.0187,1619.155,443.1787" style="stroke:#181818;stroke-width:0.71;"/><line style="stroke:#181818;stroke-width:0.71;stroke-dasharray:2.0,2.0;" x1="1617.735" x2="1956.05" y1="443.1787" y2="443.1787"/><text fill="#000000" font-family="sans-serif" font-size="9.23" font-weight="bold" lengthAdjust="spacing" textLength="9.94" x="1626.255" y="439.7306">17</text><text fill="#000000" font-family="sans-serif" font-size="9.23" lengthAdjust="spacing" textLength="52.54" x="1639.035" y="439.7306">list of exams</text><polygon fill="#181818" points="1358.23,461.8883,1351.13,464.7283,1358.23,467.5683,1355.39,464.7283" style="stroke:#181818;stroke-width:0.71;"/><line style="stroke:#181818;stroke-width:0.71;stroke-dasharray:2.0,2.0;" x1="1353.97" x2="1606.375" y1="464.7283" y2="464.7283"/><text fill="#000000" font-family="sans-serif" font-size="9.23" font-weight="bold" lengthAdjust="spacing" textLength="9.94" x="1362.49" y="461.2802">18</text><text fill="#000000" font-family="sans-serif" font-size="9.23" lengthAdjust="spacing" textLength="52.54" x="1375.27" y="461.2802">list of exams</text><polygon fill="#181818" points="317.725,483.4379,310.625,486.2779,317.725,489.1179,314.885,486.2779" style="stroke:#181818;stroke-width:0.71;"/><line style="stroke:#181818;stroke-width:0.71;stroke-dasharray:2.0,2.0;" x1="313.465" x2="1349.71" y1="486.2779" y2="486.2779"/><text fill="#000000" font-family="sans-serif" font-size="9.23" font-weight="bold" lengthAdjust="spacing" textLength="9.94" x="321.985" y="482.8298">19</text><text fill="#000000" font-family="sans-serif" font-size="9.23" lengthAdjust="spacing" textLength="52.54" x="334.765" y="482.8298">list of exams</text><polygon fill="#181818" points="30.885,504.9875,23.785,507.8275,30.885,510.6675,28.045,507.8275" style="stroke:#181818;stroke-width:0.71;"/><line style="stroke:#181818;stroke-width:0.71;stroke-dasharray:2.0,2.0;" x1="26.625" x2="302.105" y1="507.8275" y2="507.8275"/><text fill="#000000" font-family="sans-serif" font-size="9.23" font-weight="bold" lengthAdjust="spacing" textLength="9.94" x="35.145" y="504.3794">20</text><text fill="#000000" font-family="sans-serif" font-size="9.23" lengthAdjust="spacing" textLength="249.92" x="47.925" y="504.3794">presents the title of the exams and the correspondent grades</text><!--MD5=[fa22d5d370b216b0cae4cfff83adc866]
@startuml
autonumber

actor Student as St <<actor>>
participant "ListExamGradesStudentUI" as UI <<presentation>>
participant "ListCoursesService" as CrSer <<application>>
participant "StudentService" as StService <<application>>
participant "CourseService" as CService <<application>>
participant "ListStudentGradesController" as Ctr <<application>>
participant "ListStudentGradesService" as GrSer
participant "FormerExamService" as FEService
database "StudentRepository" as StRepo
database "CourseEnrollmentRepository" as CERepo
database "FormerExamRepository" as ExaRepo

activate UI
St -> UI : asks for a list of his grades
activate CrSer
UI -> CrSer: Iterable<CourseDTO> studentCourses()
note right
the user is obtained through session
end note
activate StService
CrSer-> StService:  Student studentLog = findStudentByUsername(this.authz.session().get().authenticatedUser().username())
activate StRepo
StService-> StRepo: findStudentByUserName(user)
StRepo - -> StService:
deactivate StRepo
activate CService
StService->CService: Iterable<CourseDTO> result = studentCourses(studentLog)
activate CERepo
CService -> CERepo: Iterable<Course> courses = coursesThatStudentIsEnrolledOn(student.toDTO().getMechanographicalNumber().toString())
CERepo - -> CService:
deactivate CERepo
CService- ->StService: result
deactivate CService
StService- -> CrSer: result
deactivate StService
CrSer- ->UI: result
deactivate CrSer
UI- ->St: shows a list of courses to the student select
St->UI: selects a course to list the grades of it's Exams
UI->Ctr: Iterable<FormerExamDTO> formerExamList = listExamsGrades(selectedCourse)
activate FEService
Ctr->FEService: listExamsGrades(course)
activate ExaRepo
FEService->ExaRepo:Iterable<FormerExam> exams =listFormerExamsOfCourse(course)
ExaRepo- ->FEService: list of exams
deactivate ExaRepo
FEService- ->Ctr: list of exams
Ctr- ->UI: list of exams
UI- ->St: presents the title of the exams and the correspondent grades
deactivate StService
deactivate CService

@enduml

PlantUML version 1.2022.12(Sun Oct 23 19:12:26 BST 2022)
(GPL source distribution)
Java Runtime: OpenJDK Runtime Environment
JVM: OpenJDK 64-Bit Server VM
Default Encoding: Cp1252
Language: en
Country: US
--></g></svg>