<?xml version="1.0" encoding="us-ascii" standalone="no"?><svg xmlns="http://www.w3.org/2000/svg" xmlns:xlink="http://www.w3.org/1999/xlink" contentStyleType="text/css" height="483.3px" preserveAspectRatio="none" style="width:1229px;height:483px;background:#FFFFFF;" version="1.1" viewBox="0 0 1229 483" width="1229.4px" zoomAndPan="magnify"><defs/><g><rect fill="#FFFFFF" height="300.8531" style="stroke:#181818;stroke-width:0.9;" width="9" x="15.75" y="83.0531"/><rect fill="#FFFFFF" height="128.3555" style="stroke:#181818;stroke-width:0.9;" width="9" x="322.65" y="101.5242"/><rect fill="#FFFFFF" height="128.3555" style="stroke:#181818;stroke-width:0.9;" width="9" x="322.65" y="255.5508"/><rect fill="#FFFFFF" height="77.0133" style="stroke:#181818;stroke-width:0.9;" width="9" x="635.85" y="127.1953"/><rect fill="#FFFFFF" height="102.6844" style="stroke:#181818;stroke-width:0.9;" width="9" x="783" y="281.2219"/><rect fill="#FFFFFF" height="25.6711" style="stroke:#181818;stroke-width:0.9;" width="9" x="962.55" y="152.8664"/><rect fill="#FFFFFF" height="77.0133" style="stroke:#181818;stroke-width:0.9;" width="9" x="1073.7" y="306.893"/><line style="stroke:#181818;stroke-width:0.45;stroke-dasharray:5.0,5.0;" x1="19.8" x2="19.8" y1="74.0531" y2="400.1063"/><line style="stroke:#181818;stroke-width:0.45;stroke-dasharray:5.0,5.0;" x1="327.15" x2="327.15" y1="74.0531" y2="400.1063"/><line style="stroke:#181818;stroke-width:0.45;stroke-dasharray:5.0,5.0;" x1="640.35" x2="640.35" y1="74.0531" y2="400.1063"/><line style="stroke:#181818;stroke-width:0.45;stroke-dasharray:5.0,5.0;" x1="787.05" x2="787.05" y1="74.0531" y2="400.1063"/><line style="stroke:#181818;stroke-width:0.45;stroke-dasharray:5.0,5.0;" x1="967.05" x2="967.05" y1="74.0531" y2="400.1063"/><line style="stroke:#181818;stroke-width:0.45;stroke-dasharray:5.0,5.0;" x1="1077.75" x2="1077.75" y1="74.0531" y2="400.1063"/><line style="stroke:#181818;stroke-width:0.45;stroke-dasharray:5.0,5.0;" x1="1200.6" x2="1200.6" y1="74.0531" y2="400.1063"/><text fill="#000000" font-family="sans-serif" font-size="12.6" lengthAdjust="spacing" textLength="26.1" x="4.5" y="71.383">User</text><ellipse cx="20.25" cy="13.6266" fill="#E2E2F0" rx="7.2" ry="7.2" style="stroke:#181818;stroke-width:0.45;"/><path d="M20.25,20.8266 L20.25,45.1266 M8.55,28.0266 L31.95,28.0266 M20.25,45.1266 L8.55,58.6266 M20.25,45.1266 L31.95,58.6266 " fill="none" style="stroke:#181818;stroke-width:0.45;"/><text fill="#000000" font-family="sans-serif" font-size="12.6" lengthAdjust="spacing" textLength="26.1" x="4.5" y="410.6127">User</text><ellipse cx="20.25" cy="420.9328" fill="#E2E2F0" rx="7.2" ry="7.2" style="stroke:#181818;stroke-width:0.45;"/><path d="M20.25,428.1328 L20.25,452.4328 M8.55,435.3328 L31.95,435.3328 M20.25,452.4328 L8.55,465.9328 M20.25,452.4328 L31.95,465.9328 " fill="none" style="stroke:#181818;stroke-width:0.45;"/><rect fill="#E2E2F0" height="40.7531" rx="2.25" ry="2.25" style="stroke:#181818;stroke-width:0.45;" width="99" x="277.65" y="32.4"/><text fill="#000000" font-family="sans-serif" font-size="12.6" font-style="italic" lengthAdjust="spacing" textLength="85.5" x="284.4" y="50.1064">&#171;presentation&#187;</text><text fill="#000000" font-family="sans-serif" font-size="12.6" lengthAdjust="spacing" textLength="86.4" x="283.95" y="64.183">SharedBoardUI</text><rect fill="#E2E2F0" height="40.7531" rx="2.25" ry="2.25" style="stroke:#181818;stroke-width:0.45;" width="99" x="277.65" y="399.2063"/><text fill="#000000" font-family="sans-serif" font-size="12.6" font-style="italic" lengthAdjust="spacing" textLength="85.5" x="284.4" y="416.9127">&#171;presentation&#187;</text><text fill="#000000" font-family="sans-serif" font-size="12.6" lengthAdjust="spacing" textLength="86.4" x="283.95" y="430.9893">SharedBoardUI</text><rect fill="#E2E2F0" height="40.7531" rx="2.25" ry="2.25" style="stroke:#181818;stroke-width:0.45;" width="144" x="568.35" y="32.4"/><text fill="#000000" font-family="sans-serif" font-size="12.6" font-style="italic" lengthAdjust="spacing" textLength="75.6" x="602.55" y="50.1064">&#171;application&#187;</text><text fill="#000000" font-family="sans-serif" font-size="12.6" lengthAdjust="spacing" textLength="131.4" x="574.65" y="64.183">SharedBoardController</text><rect fill="#E2E2F0" height="40.7531" rx="2.25" ry="2.25" style="stroke:#181818;stroke-width:0.45;" width="144" x="568.35" y="399.2063"/><text fill="#000000" font-family="sans-serif" font-size="12.6" font-style="italic" lengthAdjust="spacing" textLength="75.6" x="602.55" y="416.9127">&#171;application&#187;</text><text fill="#000000" font-family="sans-serif" font-size="12.6" lengthAdjust="spacing" textLength="131.4" x="574.65" y="430.9893">SharedBoardController</text><rect fill="#E2E2F0" height="40.7531" rx="2.25" ry="2.25" style="stroke:#181818;stroke-width:0.45;" width="132.3" x="721.35" y="32.4"/><text fill="#000000" font-family="sans-serif" font-size="12.6" font-style="italic" lengthAdjust="spacing" textLength="75.6" x="749.7" y="50.1064">&#171;application&#187;</text><text fill="#000000" font-family="sans-serif" font-size="12.6" lengthAdjust="spacing" textLength="119.7" x="727.65" y="64.183">SendRequestService</text><rect fill="#E2E2F0" height="40.7531" rx="2.25" ry="2.25" style="stroke:#181818;stroke-width:0.45;" width="132.3" x="721.35" y="399.2063"/><text fill="#000000" font-family="sans-serif" font-size="12.6" font-style="italic" lengthAdjust="spacing" textLength="75.6" x="749.7" y="416.9127">&#171;application&#187;</text><text fill="#000000" font-family="sans-serif" font-size="12.6" lengthAdjust="spacing" textLength="119.7" x="727.65" y="430.9893">SendRequestService</text><text fill="#000000" font-family="sans-serif" font-size="12.6" font-style="italic" lengthAdjust="spacing" textLength="80.1" x="924.3" y="57.3064">&#171;persistence&#187;</text><text fill="#000000" font-family="sans-serif" font-size="12.6" lengthAdjust="spacing" textLength="136.8" x="895.95" y="71.383">SharedBoardRepository</text><path d="M950.85,13.5 C950.85,4.5 967.05,4.5 967.05,4.5 C967.05,4.5 983.25,4.5 983.25,13.5 L983.25,36.9 C983.25,45.9 967.05,45.9 967.05,45.9 C967.05,45.9 950.85,45.9 950.85,36.9 L950.85,13.5 " fill="#E2E2F0" style="stroke:#181818;stroke-width:1.35;"/><path d="M950.85,13.5 C950.85,22.5 967.05,22.5 967.05,22.5 C967.05,22.5 983.25,22.5 983.25,13.5 " fill="none" style="stroke:#181818;stroke-width:1.35;"/><text fill="#000000" font-family="sans-serif" font-size="12.6" font-style="italic" lengthAdjust="spacing" textLength="80.1" x="924.3" y="410.6127">&#171;persistence&#187;</text><text fill="#000000" font-family="sans-serif" font-size="12.6" lengthAdjust="spacing" textLength="136.8" x="895.95" y="424.6893">SharedBoardRepository</text><path d="M950.85,436.3594 C950.85,427.3594 967.05,427.3594 967.05,427.3594 C967.05,427.3594 983.25,427.3594 983.25,436.3594 L983.25,459.7594 C983.25,468.7594 967.05,468.7594 967.05,468.7594 C967.05,468.7594 950.85,468.7594 950.85,459.7594 L950.85,436.3594 " fill="#E2E2F0" style="stroke:#181818;stroke-width:1.35;"/><path d="M950.85,436.3594 C950.85,445.3594 967.05,445.3594 967.05,445.3594 C967.05,445.3594 983.25,445.3594 983.25,436.3594 " fill="none" style="stroke:#181818;stroke-width:1.35;"/><rect fill="#E2E2F0" height="40.7531" rx="2.25" ry="2.25" style="stroke:#181818;stroke-width:0.45;" width="62.1" x="1047.15" y="32.4"/><text fill="#000000" font-family="sans-serif" font-size="12.6" font-style="italic" lengthAdjust="spacing" textLength="49.5" x="1053.45" y="50.1064">&#171;server&#187;</text><text fill="#000000" font-family="sans-serif" font-size="12.6" lengthAdjust="spacing" textLength="37.8" x="1059.3" y="64.183">Server</text><rect fill="#E2E2F0" height="40.7531" rx="2.25" ry="2.25" style="stroke:#181818;stroke-width:0.45;" width="62.1" x="1047.15" y="399.2063"/><text fill="#000000" font-family="sans-serif" font-size="12.6" font-style="italic" lengthAdjust="spacing" textLength="49.5" x="1053.45" y="416.9127">&#171;server&#187;</text><text fill="#000000" font-family="sans-serif" font-size="12.6" lengthAdjust="spacing" textLength="37.8" x="1059.3" y="430.9893">Server</text><rect fill="#E2E2F0" height="40.7531" rx="2.25" ry="2.25" style="stroke:#181818;stroke-width:0.45;" width="46.8" x="1177.2" y="32.4"/><text fill="#000000" font-family="sans-serif" font-size="12.6" font-style="italic" lengthAdjust="spacing" textLength="34.2" x="1183.5" y="50.1064">&#171;site&#187;</text><text fill="#000000" font-family="sans-serif" font-size="12.6" lengthAdjust="spacing" textLength="22.5" x="1189.35" y="64.183">Http</text><rect fill="#E2E2F0" height="40.7531" rx="2.25" ry="2.25" style="stroke:#181818;stroke-width:0.45;" width="46.8" x="1177.2" y="399.2063"/><text fill="#000000" font-family="sans-serif" font-size="12.6" font-style="italic" lengthAdjust="spacing" textLength="34.2" x="1183.5" y="416.9127">&#171;site&#187;</text><text fill="#000000" font-family="sans-serif" font-size="12.6" lengthAdjust="spacing" textLength="22.5" x="1189.35" y="430.9893">Http</text><rect fill="#FFFFFF" height="300.8531" style="stroke:#181818;stroke-width:0.9;" width="9" x="15.75" y="83.0531"/><rect fill="#FFFFFF" height="128.3555" style="stroke:#181818;stroke-width:0.9;" width="9" x="322.65" y="101.5242"/><rect fill="#FFFFFF" height="128.3555" style="stroke:#181818;stroke-width:0.9;" width="9" x="322.65" y="255.5508"/><rect fill="#FFFFFF" height="77.0133" style="stroke:#181818;stroke-width:0.9;" width="9" x="635.85" y="127.1953"/><rect fill="#FFFFFF" height="102.6844" style="stroke:#181818;stroke-width:0.9;" width="9" x="783" y="281.2219"/><rect fill="#FFFFFF" height="25.6711" style="stroke:#181818;stroke-width:0.9;" width="9" x="962.55" y="152.8664"/><rect fill="#FFFFFF" height="77.0133" style="stroke:#181818;stroke-width:0.9;" width="9" x="1073.7" y="306.893"/><polygon fill="#181818" points="311.85,97.9242,320.85,101.5242,311.85,105.1242,315.45,101.5242" style="stroke:#181818;stroke-width:0.9;"/><line style="stroke:#181818;stroke-width:0.9;" x1="24.75" x2="317.25" y1="101.5242" y2="101.5242"/><text fill="#000000" font-family="sans-serif" font-size="11.7" lengthAdjust="spacing" textLength="144.9" x="31.05" y="97.2448">asks to view a shared board</text><polygon fill="#181818" points="625.05,123.5953,634.05,127.1953,625.05,130.7953,628.65,127.1953" style="stroke:#181818;stroke-width:0.9;"/><line style="stroke:#181818;stroke-width:0.9;" x1="331.65" x2="630.45" y1="127.1953" y2="127.1953"/><text fill="#000000" font-family="sans-serif" font-size="11.7" lengthAdjust="spacing" textLength="287.1" x="337.95" y="122.9159">List&lt;SharedBoardDTO&gt; sharedBoards = listAllBoards()</text><polygon fill="#181818" points="951.75,149.2664,960.75,152.8664,951.75,156.4664,955.35,152.8664" style="stroke:#181818;stroke-width:0.9;"/><line style="stroke:#181818;stroke-width:0.9;" x1="644.85" x2="957.15" y1="152.8664" y2="152.8664"/><text fill="#000000" font-family="sans-serif" font-size="11.7" lengthAdjust="spacing" textLength="300.6" x="651.15" y="148.587">List&lt;SharedBoard&gt; sharedBoards = listAllSharedBoards()</text><polygon fill="#181818" points="654.75,174.9375,645.75,178.5375,654.75,182.1375,651.15,178.5375" style="stroke:#181818;stroke-width:0.9;"/><line style="stroke:#181818;stroke-width:0.9;stroke-dasharray:2.0,2.0;" x1="649.35" x2="966.15" y1="178.5375" y2="178.5375"/><text fill="#000000" font-family="sans-serif" font-size="11.7" lengthAdjust="spacing" textLength="176.4" x="660.15" y="174.2581">List&lt;SharedBoard&gt; sharedBoards</text><polygon fill="#181818" points="341.55,200.6086,332.55,204.2086,341.55,207.8086,337.95,204.2086" style="stroke:#181818;stroke-width:0.9;"/><line style="stroke:#181818;stroke-width:0.9;stroke-dasharray:2.0,2.0;" x1="336.15" x2="639.45" y1="204.2086" y2="204.2086"/><text fill="#000000" font-family="sans-serif" font-size="11.7" lengthAdjust="spacing" textLength="199.8" x="346.95" y="199.9292">List&lt;SharedBoardDTO&gt; sharedBoards</text><polygon fill="#181818" points="34.65,226.2797,25.65,229.8797,34.65,233.4797,31.05,229.8797" style="stroke:#181818;stroke-width:0.9;"/><line style="stroke:#181818;stroke-width:0.9;stroke-dasharray:2.0,2.0;" x1="29.25" x2="326.25" y1="229.8797" y2="229.8797"/><text fill="#000000" font-family="sans-serif" font-size="11.7" lengthAdjust="spacing" textLength="276.3" x="40.05" y="225.6003">shows writable shared boards and asks to select one</text><polygon fill="#181818" points="311.85,251.9508,320.85,255.5508,311.85,259.1508,315.45,255.5508" style="stroke:#181818;stroke-width:0.9;"/><line style="stroke:#181818;stroke-width:0.9;" x1="24.75" x2="317.25" y1="255.5508" y2="255.5508"/><text fill="#000000" font-family="sans-serif" font-size="11.7" lengthAdjust="spacing" textLength="131.4" x="31.05" y="251.2714">selects one shared board</text><polygon fill="#181818" points="772.2,277.6219,781.2,281.2219,772.2,284.8219,775.8,281.2219" style="stroke:#181818;stroke-width:0.9;"/><line style="stroke:#181818;stroke-width:0.9;" x1="331.65" x2="777.6" y1="281.2219" y2="281.2219"/><text fill="#000000" font-family="sans-serif" font-size="11.7" lengthAdjust="spacing" textLength="128.7" x="337.95" y="276.9425">sendSharedBoard(board)</text><polygon fill="#181818" points="1062.9,303.293,1071.9,306.893,1062.9,310.493,1066.5,306.893" style="stroke:#181818;stroke-width:0.9;"/><line style="stroke:#181818;stroke-width:0.9;" x1="792" x2="1068.3" y1="306.893" y2="306.893"/><text fill="#000000" font-family="sans-serif" font-size="11.7" lengthAdjust="spacing" textLength="145.8" x="798.3" y="302.6136">establishes TCP connection</text><polygon fill="#181818" points="801.9,328.9641,792.9,332.5641,801.9,336.1641,798.3,332.5641" style="stroke:#181818;stroke-width:0.9;"/><line style="stroke:#181818;stroke-width:0.9;stroke-dasharray:2.0,2.0;" x1="796.5" x2="1072.8" y1="332.5641" y2="332.5641"/><text fill="#000000" font-family="sans-serif" font-size="11.7" lengthAdjust="spacing" textLength="103.5" x="807.3" y="328.2847">accepts the request</text><polygon fill="#181818" points="1062.9,354.6352,1071.9,358.2352,1062.9,361.8352,1066.5,358.2352" style="stroke:#181818;stroke-width:0.9;"/><line style="stroke:#181818;stroke-width:0.9;" x1="792" x2="1068.3" y1="358.2352" y2="358.2352"/><text fill="#000000" font-family="sans-serif" font-size="11.7" lengthAdjust="spacing" textLength="122.4" x="798.3" y="353.9558">send shared board data</text><polygon fill="#181818" points="1189.8,380.3063,1198.8,383.9063,1189.8,387.5063,1193.4,383.9063" style="stroke:#181818;stroke-width:0.9;"/><line style="stroke:#181818;stroke-width:0.9;" x1="1078.2" x2="1195.2" y1="383.9063" y2="383.9063"/><text fill="#000000" font-family="sans-serif" font-size="11.7" lengthAdjust="spacing" textLength="96.3" x="1084.5" y="379.6269">start(sharedBoard)</text><!--SRC=[XLDDJyCm3BtdL_Wu3hjmd4ebFWuW8O7uEACijRI8AWcnwSI_nqvWf1k3IzjKxpq_FplMSSpmJ9Z14hpBsoIRsJkVR61utDYCmqMqUNY-AGWFNPSo4WQsx6Fe-sE4onWunt6iqauENMTJ6htxbOXXUC2tToH-n3nvXygYoPt2FcsmRDUMi2tsW2cIbru-2csTNhByKQ-OoHDZS7XGCK_L6zMlhgiVUxXhvgIeyXQCPrKorh6VB6CDJH-mx3MVbO1V2JZ2v74B5gZOXBNwR6ZU25WeceoGRiLbrtHqzNJNVr7BcU0CHi6SZsCzBqv-n5J3524Ht7L_A7fCiO7CTB-bp4vpUTpnNDmCU2XJBNxdz6_BhKPfKHDJjgQz4cZS4copbtqOSPOpWGt3RX248pg66B1Lr0cqOwieKjXVCzE4TIsL48R6_gAWs_G4PWfMENN9LY0RBdOzRP3WwV8UN0n1wifkDym2Db-SvKz9wnmcySWRX5olYzahKNtDEW2zCZkrlgwou5ZMVD44VZ8RMlNG_j5-vW6s9xq7dm00]--></g></svg>