<?xml version="1.0" encoding="UTF-8" standalone="no"?><svg xmlns="http://www.w3.org/2000/svg" xmlns:xlink="http://www.w3.org/1999/xlink" contentStyleType="text/css" height="681px" preserveAspectRatio="none" style="width:1743px;height:681px;background:#FFFFFF;" version="1.1" viewBox="0 0 1743 681" width="1743px" zoomAndPan="magnify"><defs/><g><!--cluster <<agr Student>>--><g id="cluster_&lt;&lt;agr Student&gt;&gt;"><path d="M8.5,6.0137 L107.5,6.0137 A3.75,3.75 0 0 1 110,8.5137 L117,30.6348 L649.5,30.6348 A2.5,2.5 0 0 1 652,33.1348 L652,304.5137 A2.5,2.5 0 0 1 649.5,307.0137 L8.5,307.0137 A2.5,2.5 0 0 1 6,304.5137 L6,8.5137 A2.5,2.5 0 0 1 8.5,6.0137 " fill="none" style="stroke:#000000;stroke-width:1.5;"/><line style="stroke:#000000;stroke-width:1.5;" x1="6" x2="117" y1="30.6348" y2="30.6348"/><text fill="#000000" font-family="sans-serif" font-size="14" font-weight="bold" lengthAdjust="spacing" textLength="98" x="10" y="23.1211">«agr Student»</text></g><!--cluster <<agr Course>>--><g id="cluster_&lt;&lt;agr Course&gt;&gt;"><path d="M1123.5,364.0137 L1218.5,364.0137 A3.75,3.75 0 0 1 1221,366.5137 L1228,388.6348 L1733.5,388.6348 A2.5,2.5 0 0 1 1736,391.1348 L1736,672.0137 A2.5,2.5 0 0 1 1733.5,674.5137 L1123.5,674.5137 A2.5,2.5 0 0 1 1121,672.0137 L1121,366.5137 A2.5,2.5 0 0 1 1123.5,364.0137 " fill="none" style="stroke:#000000;stroke-width:1.5;"/><line style="stroke:#000000;stroke-width:1.5;" x1="1121" x2="1228" y1="388.6348" y2="388.6348"/><text fill="#000000" font-family="sans-serif" font-size="14" font-weight="bold" lengthAdjust="spacing" textLength="94" x="1125" y="381.1211">«agr Course»</text></g><!--cluster <<agr CourseEnrollment>>--><g id="cluster_&lt;&lt;agr CourseEnrollment&gt;&gt;"><path d="M678.5,185.0137 L849.5,185.0137 A3.75,3.75 0 0 1 852,187.5137 L859,209.6348 L1094.5,209.6348 A2.5,2.5 0 0 1 1097,212.1348 L1097,511.0137 A2.5,2.5 0 0 1 1094.5,513.5137 L678.5,513.5137 A2.5,2.5 0 0 1 676,511.0137 L676,187.5137 A2.5,2.5 0 0 1 678.5,185.0137 " fill="none" style="stroke:#000000;stroke-width:1.5;"/><line style="stroke:#000000;stroke-width:1.5;" x1="676" x2="859" y1="209.6348" y2="209.6348"/><text fill="#000000" font-family="sans-serif" font-size="14" font-weight="bold" lengthAdjust="spacing" textLength="170" x="680" y="202.1211">«agr CourseEnrollment»</text></g><!--class Student--><g id="elem_Student"><rect codeLine="3" fill="#F1F1F1" height="76.543" id="Student" rx="2.5" ry="2.5" style="stroke:#181818;stroke-width:0.5;" width="81" x="413.5" y="43.0137"/><ellipse cx="428.5" cy="73.2852" fill="#ADD1B2" rx="11" ry="11" style="stroke:#181818;stroke-width:1.0;"/><path d="M431.2656,69.1602 Q431.4219,68.9414 431.6094,68.832 Q431.7969,68.7227 432.0156,68.7227 Q432.3906,68.7227 432.625,68.9883 Q432.8594,69.2383 432.8594,69.8477 L432.8594,71.3008 Q432.8594,71.9102 432.625,72.1758 Q432.3906,72.4414 432.0156,72.4414 Q431.6719,72.4414 431.4688,72.2383 Q431.2656,72.0508 431.1563,71.5352 Q431.1094,71.1758 430.9219,70.9883 Q430.5938,70.6133 429.9844,70.3945 Q429.375,70.1758 428.75,70.1758 Q427.9844,70.1758 427.3438,70.5039 Q426.7188,70.832 426.2188,71.582 Q425.7344,72.332 425.7344,73.3633 L425.7344,74.457 Q425.7344,75.6914 426.625,76.5195 Q427.5156,77.332 429.1094,77.332 Q430.0469,77.332 430.7031,77.082 Q431.0938,76.9258 431.5156,76.4883 Q431.7813,76.2227 431.9219,76.1445 Q432.0781,76.0664 432.2813,76.0664 Q432.6094,76.0664 432.8594,76.332 Q433.125,76.582 433.125,76.9258 Q433.125,77.2695 432.7813,77.6758 Q432.2813,78.2539 431.4844,78.582 Q430.4063,79.0352 429.1094,79.0352 Q427.5938,79.0352 426.3906,78.4102 Q425.4063,77.9102 424.7188,76.8477 Q424.0313,75.7695 424.0313,74.4883 L424.0313,73.332 Q424.0313,72.0039 424.6406,70.8633 Q425.2656,69.707 426.3594,69.0977 Q427.4531,68.4727 428.6875,68.4727 Q429.4219,68.4727 430.0625,68.6445 Q430.7188,68.8008 431.2656,69.1602 Z " fill="#000000"/><text fill="#000000" font-family="sans-serif" font-size="12" font-style="italic" lengthAdjust="spacing" textLength="43" x="445.5" y="60.9629">«entity»</text><text fill="#000000" font-family="sans-serif" font-size="12" font-style="italic" lengthAdjust="spacing" textLength="35" x="449.5" y="76.9238">«root»</text><text fill="#000000" font-family="sans-serif" font-size="14" lengthAdjust="spacing" textLength="49" x="442.5" y="95.043">Student</text><line style="stroke:#181818;stroke-width:0.5;" x1="414.5" x2="493.5" y1="103.5566" y2="103.5566"/><line style="stroke:#181818;stroke-width:0.5;" x1="414.5" x2="493.5" y1="111.5566" y2="111.5566"/></g><!--class MechanographicalNumber--><g id="elem_MechanographicalNumber"><rect codeLine="4" fill="#F1F1F1" height="60.582" id="MechanographicalNumber" rx="2.5" ry="2.5" style="stroke:#181818;stroke-width:0.5;" width="197" x="22.5" y="230.0137"/><ellipse cx="37.5" cy="252.3047" fill="#ADD1B2" rx="11" ry="11" style="stroke:#181818;stroke-width:1.0;"/><path d="M40.2656,248.1797 Q40.4219,247.9609 40.6094,247.8516 Q40.7969,247.7422 41.0156,247.7422 Q41.3906,247.7422 41.625,248.0078 Q41.8594,248.2578 41.8594,248.8672 L41.8594,250.3203 Q41.8594,250.9297 41.625,251.1953 Q41.3906,251.4609 41.0156,251.4609 Q40.6719,251.4609 40.4688,251.2578 Q40.2656,251.0703 40.1563,250.5547 Q40.1094,250.1953 39.9219,250.0078 Q39.5938,249.6328 38.9844,249.4141 Q38.375,249.1953 37.75,249.1953 Q36.9844,249.1953 36.3438,249.5234 Q35.7188,249.8516 35.2188,250.6016 Q34.7344,251.3516 34.7344,252.3828 L34.7344,253.4766 Q34.7344,254.7109 35.625,255.5391 Q36.5156,256.3516 38.1094,256.3516 Q39.0469,256.3516 39.7031,256.1016 Q40.0938,255.9453 40.5156,255.5078 Q40.7813,255.2422 40.9219,255.1641 Q41.0781,255.0859 41.2813,255.0859 Q41.6094,255.0859 41.8594,255.3516 Q42.125,255.6016 42.125,255.9453 Q42.125,256.2891 41.7813,256.6953 Q41.2813,257.2734 40.4844,257.6016 Q39.4063,258.0547 38.1094,258.0547 Q36.5938,258.0547 35.3906,257.4297 Q34.4063,256.9297 33.7188,255.8672 Q33.0313,254.7891 33.0313,253.5078 L33.0313,252.3516 Q33.0313,251.0234 33.6406,249.8828 Q34.2656,248.7266 35.3594,248.1172 Q36.4531,247.4922 37.6875,247.4922 Q38.4219,247.4922 39.0625,247.6641 Q39.7188,247.8203 40.2656,248.1797 Z " fill="#000000"/><text fill="#000000" font-family="sans-serif" font-size="12" font-style="italic" lengthAdjust="spacing" textLength="27" x="120.5" y="247.9629">«vo»</text><text fill="#000000" font-family="sans-serif" font-size="14" lengthAdjust="spacing" textLength="165" x="51.5" y="266.082">MechanographicalNumber</text><line style="stroke:#181818;stroke-width:0.5;" x1="23.5" x2="218.5" y1="274.5957" y2="274.5957"/><line style="stroke:#181818;stroke-width:0.5;" x1="23.5" x2="218.5" y1="282.5957" y2="282.5957"/></g><!--class StudentTaxPayerNumber--><g id="elem_StudentTaxPayerNumber"><rect codeLine="5" fill="#F1F1F1" height="60.582" id="StudentTaxPayerNumber" rx="2.5" ry="2.5" style="stroke:#181818;stroke-width:0.5;" width="190" x="255" y="230.0137"/><ellipse cx="270" cy="252.3047" fill="#ADD1B2" rx="11" ry="11" style="stroke:#181818;stroke-width:1.0;"/><path d="M272.7656,248.1797 Q272.9219,247.9609 273.1094,247.8516 Q273.2969,247.7422 273.5156,247.7422 Q273.8906,247.7422 274.125,248.0078 Q274.3594,248.2578 274.3594,248.8672 L274.3594,250.3203 Q274.3594,250.9297 274.125,251.1953 Q273.8906,251.4609 273.5156,251.4609 Q273.1719,251.4609 272.9688,251.2578 Q272.7656,251.0703 272.6563,250.5547 Q272.6094,250.1953 272.4219,250.0078 Q272.0938,249.6328 271.4844,249.4141 Q270.875,249.1953 270.25,249.1953 Q269.4844,249.1953 268.8438,249.5234 Q268.2188,249.8516 267.7188,250.6016 Q267.2344,251.3516 267.2344,252.3828 L267.2344,253.4766 Q267.2344,254.7109 268.125,255.5391 Q269.0156,256.3516 270.6094,256.3516 Q271.5469,256.3516 272.2031,256.1016 Q272.5938,255.9453 273.0156,255.5078 Q273.2813,255.2422 273.4219,255.1641 Q273.5781,255.0859 273.7813,255.0859 Q274.1094,255.0859 274.3594,255.3516 Q274.625,255.6016 274.625,255.9453 Q274.625,256.2891 274.2813,256.6953 Q273.7813,257.2734 272.9844,257.6016 Q271.9063,258.0547 270.6094,258.0547 Q269.0938,258.0547 267.8906,257.4297 Q266.9063,256.9297 266.2188,255.8672 Q265.5313,254.7891 265.5313,253.5078 L265.5313,252.3516 Q265.5313,251.0234 266.1406,249.8828 Q266.7656,248.7266 267.8594,248.1172 Q268.9531,247.4922 270.1875,247.4922 Q270.9219,247.4922 271.5625,247.6641 Q272.2188,247.8203 272.7656,248.1797 Z " fill="#000000"/><text fill="#000000" font-family="sans-serif" font-size="12" font-style="italic" lengthAdjust="spacing" textLength="27" x="349.5" y="247.9629">«vo»</text><text fill="#000000" font-family="sans-serif" font-size="14" lengthAdjust="spacing" textLength="158" x="284" y="266.082">StudentTaxPayerNumber</text><line style="stroke:#181818;stroke-width:0.5;" x1="256" x2="444" y1="274.5957" y2="274.5957"/><line style="stroke:#181818;stroke-width:0.5;" x1="256" x2="444" y1="282.5957" y2="282.5957"/></g><!--class StudentDateOfBirth--><g id="elem_StudentDateOfBirth"><rect codeLine="6" fill="#F1F1F1" height="60.582" id="StudentDateOfBirth" rx="2.5" ry="2.5" style="stroke:#181818;stroke-width:0.5;" width="155" x="480.5" y="230.0137"/><ellipse cx="495.5" cy="252.3047" fill="#ADD1B2" rx="11" ry="11" style="stroke:#181818;stroke-width:1.0;"/><path d="M498.2656,248.1797 Q498.4219,247.9609 498.6094,247.8516 Q498.7969,247.7422 499.0156,247.7422 Q499.3906,247.7422 499.625,248.0078 Q499.8594,248.2578 499.8594,248.8672 L499.8594,250.3203 Q499.8594,250.9297 499.625,251.1953 Q499.3906,251.4609 499.0156,251.4609 Q498.6719,251.4609 498.4688,251.2578 Q498.2656,251.0703 498.1563,250.5547 Q498.1094,250.1953 497.9219,250.0078 Q497.5938,249.6328 496.9844,249.4141 Q496.375,249.1953 495.75,249.1953 Q494.9844,249.1953 494.3438,249.5234 Q493.7188,249.8516 493.2188,250.6016 Q492.7344,251.3516 492.7344,252.3828 L492.7344,253.4766 Q492.7344,254.7109 493.625,255.5391 Q494.5156,256.3516 496.1094,256.3516 Q497.0469,256.3516 497.7031,256.1016 Q498.0938,255.9453 498.5156,255.5078 Q498.7813,255.2422 498.9219,255.1641 Q499.0781,255.0859 499.2813,255.0859 Q499.6094,255.0859 499.8594,255.3516 Q500.125,255.6016 500.125,255.9453 Q500.125,256.2891 499.7813,256.6953 Q499.2813,257.2734 498.4844,257.6016 Q497.4063,258.0547 496.1094,258.0547 Q494.5938,258.0547 493.3906,257.4297 Q492.4063,256.9297 491.7188,255.8672 Q491.0313,254.7891 491.0313,253.5078 L491.0313,252.3516 Q491.0313,251.0234 491.6406,249.8828 Q492.2656,248.7266 493.3594,248.1172 Q494.4531,247.4922 495.6875,247.4922 Q496.4219,247.4922 497.0625,247.6641 Q497.7188,247.8203 498.2656,248.1797 Z " fill="#000000"/><text fill="#000000" font-family="sans-serif" font-size="12" font-style="italic" lengthAdjust="spacing" textLength="27" x="557.5" y="247.9629">«vo»</text><text fill="#000000" font-family="sans-serif" font-size="14" lengthAdjust="spacing" textLength="123" x="509.5" y="266.082">StudentDateOfBirth</text><line style="stroke:#181818;stroke-width:0.5;" x1="481.5" x2="634.5" y1="274.5957" y2="274.5957"/><line style="stroke:#181818;stroke-width:0.5;" x1="481.5" x2="634.5" y1="282.5957" y2="282.5957"/></g><!--class Course--><g id="elem_Course"><rect codeLine="14" fill="#F1F1F1" height="76.543" id="Course" rx="2.5" ry="2.5" style="stroke:#181818;stroke-width:0.5;" width="78" x="1320" y="401.0137"/><ellipse cx="1335" cy="431.2852" fill="#ADD1B2" rx="11" ry="11" style="stroke:#181818;stroke-width:1.0;"/><path d="M1337.7656,427.1602 Q1337.9219,426.9414 1338.1094,426.832 Q1338.2969,426.7227 1338.5156,426.7227 Q1338.8906,426.7227 1339.125,426.9883 Q1339.3594,427.2383 1339.3594,427.8477 L1339.3594,429.3008 Q1339.3594,429.9102 1339.125,430.1758 Q1338.8906,430.4414 1338.5156,430.4414 Q1338.1719,430.4414 1337.9688,430.2383 Q1337.7656,430.0508 1337.6563,429.5352 Q1337.6094,429.1758 1337.4219,428.9883 Q1337.0938,428.6133 1336.4844,428.3945 Q1335.875,428.1758 1335.25,428.1758 Q1334.4844,428.1758 1333.8438,428.5039 Q1333.2188,428.832 1332.7188,429.582 Q1332.2344,430.332 1332.2344,431.3633 L1332.2344,432.457 Q1332.2344,433.6914 1333.125,434.5195 Q1334.0156,435.332 1335.6094,435.332 Q1336.5469,435.332 1337.2031,435.082 Q1337.5938,434.9258 1338.0156,434.4883 Q1338.2813,434.2227 1338.4219,434.1445 Q1338.5781,434.0664 1338.7813,434.0664 Q1339.1094,434.0664 1339.3594,434.332 Q1339.625,434.582 1339.625,434.9258 Q1339.625,435.2695 1339.2813,435.6758 Q1338.7813,436.2539 1337.9844,436.582 Q1336.9063,437.0352 1335.6094,437.0352 Q1334.0938,437.0352 1332.8906,436.4102 Q1331.9063,435.9102 1331.2188,434.8477 Q1330.5313,433.7695 1330.5313,432.4883 L1330.5313,431.332 Q1330.5313,430.0039 1331.1406,428.8633 Q1331.7656,427.707 1332.8594,427.0977 Q1333.9531,426.4727 1335.1875,426.4727 Q1335.9219,426.4727 1336.5625,426.6445 Q1337.2188,426.8008 1337.7656,427.1602 Z " fill="#000000"/><text fill="#000000" font-family="sans-serif" font-size="12" font-style="italic" lengthAdjust="spacing" textLength="43" x="1350.5" y="418.9629">«entity»</text><text fill="#000000" font-family="sans-serif" font-size="12" font-style="italic" lengthAdjust="spacing" textLength="35" x="1354.5" y="434.9238">«root»</text><text fill="#000000" font-family="sans-serif" font-size="14" lengthAdjust="spacing" textLength="46" x="1349" y="453.043">Course</text><line style="stroke:#181818;stroke-width:0.5;" x1="1321" x2="1397" y1="461.5566" y2="461.5566"/><line style="stroke:#181818;stroke-width:0.5;" x1="1321" x2="1397" y1="469.5566" y2="469.5566"/></g><!--class CourseCode--><g id="elem_CourseCode"><rect codeLine="15" fill="#F1F1F1" height="60.582" id="CourseCode" rx="2.5" ry="2.5" style="stroke:#181818;stroke-width:0.5;" width="112" x="1137" y="579.0137"/><ellipse cx="1152" cy="601.3047" fill="#ADD1B2" rx="11" ry="11" style="stroke:#181818;stroke-width:1.0;"/><path d="M1154.7656,597.1797 Q1154.9219,596.9609 1155.1094,596.8516 Q1155.2969,596.7422 1155.5156,596.7422 Q1155.8906,596.7422 1156.125,597.0078 Q1156.3594,597.2578 1156.3594,597.8672 L1156.3594,599.3203 Q1156.3594,599.9297 1156.125,600.1953 Q1155.8906,600.4609 1155.5156,600.4609 Q1155.1719,600.4609 1154.9688,600.2578 Q1154.7656,600.0703 1154.6563,599.5547 Q1154.6094,599.1953 1154.4219,599.0078 Q1154.0938,598.6328 1153.4844,598.4141 Q1152.875,598.1953 1152.25,598.1953 Q1151.4844,598.1953 1150.8438,598.5234 Q1150.2188,598.8516 1149.7188,599.6016 Q1149.2344,600.3516 1149.2344,601.3828 L1149.2344,602.4766 Q1149.2344,603.7109 1150.125,604.5391 Q1151.0156,605.3516 1152.6094,605.3516 Q1153.5469,605.3516 1154.2031,605.1016 Q1154.5938,604.9453 1155.0156,604.5078 Q1155.2813,604.2422 1155.4219,604.1641 Q1155.5781,604.0859 1155.7813,604.0859 Q1156.1094,604.0859 1156.3594,604.3516 Q1156.625,604.6016 1156.625,604.9453 Q1156.625,605.2891 1156.2813,605.6953 Q1155.7813,606.2734 1154.9844,606.6016 Q1153.9063,607.0547 1152.6094,607.0547 Q1151.0938,607.0547 1149.8906,606.4297 Q1148.9063,605.9297 1148.2188,604.8672 Q1147.5313,603.7891 1147.5313,602.5078 L1147.5313,601.3516 Q1147.5313,600.0234 1148.1406,598.8828 Q1148.7656,597.7266 1149.8594,597.1172 Q1150.9531,596.4922 1152.1875,596.4922 Q1152.9219,596.4922 1153.5625,596.6641 Q1154.2188,596.8203 1154.7656,597.1797 Z " fill="#000000"/><text fill="#000000" font-family="sans-serif" font-size="12" font-style="italic" lengthAdjust="spacing" textLength="27" x="1192.5" y="596.9629">«vo»</text><text fill="#000000" font-family="sans-serif" font-size="14" lengthAdjust="spacing" textLength="80" x="1166" y="615.082">CourseCode</text><line style="stroke:#181818;stroke-width:0.5;" x1="1138" x2="1248" y1="623.5957" y2="623.5957"/><line style="stroke:#181818;stroke-width:0.5;" x1="1138" x2="1248" y1="631.5957" y2="631.5957"/></g><!--class CourseDescription--><g id="elem_CourseDescription"><rect codeLine="16" fill="#F1F1F1" height="60.582" id="CourseDescription" rx="2.5" ry="2.5" style="stroke:#181818;stroke-width:0.5;" width="149" x="1284.5" y="579.0137"/><ellipse cx="1299.5" cy="601.3047" fill="#ADD1B2" rx="11" ry="11" style="stroke:#181818;stroke-width:1.0;"/><path d="M1302.2656,597.1797 Q1302.4219,596.9609 1302.6094,596.8516 Q1302.7969,596.7422 1303.0156,596.7422 Q1303.3906,596.7422 1303.625,597.0078 Q1303.8594,597.2578 1303.8594,597.8672 L1303.8594,599.3203 Q1303.8594,599.9297 1303.625,600.1953 Q1303.3906,600.4609 1303.0156,600.4609 Q1302.6719,600.4609 1302.4688,600.2578 Q1302.2656,600.0703 1302.1563,599.5547 Q1302.1094,599.1953 1301.9219,599.0078 Q1301.5938,598.6328 1300.9844,598.4141 Q1300.375,598.1953 1299.75,598.1953 Q1298.9844,598.1953 1298.3438,598.5234 Q1297.7188,598.8516 1297.2188,599.6016 Q1296.7344,600.3516 1296.7344,601.3828 L1296.7344,602.4766 Q1296.7344,603.7109 1297.625,604.5391 Q1298.5156,605.3516 1300.1094,605.3516 Q1301.0469,605.3516 1301.7031,605.1016 Q1302.0938,604.9453 1302.5156,604.5078 Q1302.7813,604.2422 1302.9219,604.1641 Q1303.0781,604.0859 1303.2813,604.0859 Q1303.6094,604.0859 1303.8594,604.3516 Q1304.125,604.6016 1304.125,604.9453 Q1304.125,605.2891 1303.7813,605.6953 Q1303.2813,606.2734 1302.4844,606.6016 Q1301.4063,607.0547 1300.1094,607.0547 Q1298.5938,607.0547 1297.3906,606.4297 Q1296.4063,605.9297 1295.7188,604.8672 Q1295.0313,603.7891 1295.0313,602.5078 L1295.0313,601.3516 Q1295.0313,600.0234 1295.6406,598.8828 Q1296.2656,597.7266 1297.3594,597.1172 Q1298.4531,596.4922 1299.6875,596.4922 Q1300.4219,596.4922 1301.0625,596.6641 Q1301.7188,596.8203 1302.2656,597.1797 Z " fill="#000000"/><text fill="#000000" font-family="sans-serif" font-size="12" font-style="italic" lengthAdjust="spacing" textLength="27" x="1358.5" y="596.9629">«vo»</text><text fill="#000000" font-family="sans-serif" font-size="14" lengthAdjust="spacing" textLength="117" x="1313.5" y="615.082">CourseDescription</text><line style="stroke:#181818;stroke-width:0.5;" x1="1285.5" x2="1432.5" y1="623.5957" y2="623.5957"/><line style="stroke:#181818;stroke-width:0.5;" x1="1285.5" x2="1432.5" y1="631.5957" y2="631.5957"/></g><!--class CourseTitle--><g id="elem_CourseTitle"><rect codeLine="17" fill="#F1F1F1" height="60.582" id="CourseTitle" rx="2.5" ry="2.5" style="stroke:#181818;stroke-width:0.5;" width="105" x="1468.5" y="579.0137"/><ellipse cx="1483.5" cy="601.3047" fill="#ADD1B2" rx="11" ry="11" style="stroke:#181818;stroke-width:1.0;"/><path d="M1486.2656,597.1797 Q1486.4219,596.9609 1486.6094,596.8516 Q1486.7969,596.7422 1487.0156,596.7422 Q1487.3906,596.7422 1487.625,597.0078 Q1487.8594,597.2578 1487.8594,597.8672 L1487.8594,599.3203 Q1487.8594,599.9297 1487.625,600.1953 Q1487.3906,600.4609 1487.0156,600.4609 Q1486.6719,600.4609 1486.4688,600.2578 Q1486.2656,600.0703 1486.1563,599.5547 Q1486.1094,599.1953 1485.9219,599.0078 Q1485.5938,598.6328 1484.9844,598.4141 Q1484.375,598.1953 1483.75,598.1953 Q1482.9844,598.1953 1482.3438,598.5234 Q1481.7188,598.8516 1481.2188,599.6016 Q1480.7344,600.3516 1480.7344,601.3828 L1480.7344,602.4766 Q1480.7344,603.7109 1481.625,604.5391 Q1482.5156,605.3516 1484.1094,605.3516 Q1485.0469,605.3516 1485.7031,605.1016 Q1486.0938,604.9453 1486.5156,604.5078 Q1486.7813,604.2422 1486.9219,604.1641 Q1487.0781,604.0859 1487.2813,604.0859 Q1487.6094,604.0859 1487.8594,604.3516 Q1488.125,604.6016 1488.125,604.9453 Q1488.125,605.2891 1487.7813,605.6953 Q1487.2813,606.2734 1486.4844,606.6016 Q1485.4063,607.0547 1484.1094,607.0547 Q1482.5938,607.0547 1481.3906,606.4297 Q1480.4063,605.9297 1479.7188,604.8672 Q1479.0313,603.7891 1479.0313,602.5078 L1479.0313,601.3516 Q1479.0313,600.0234 1479.6406,598.8828 Q1480.2656,597.7266 1481.3594,597.1172 Q1482.4531,596.4922 1483.6875,596.4922 Q1484.4219,596.4922 1485.0625,596.6641 Q1485.7188,596.8203 1486.2656,597.1797 Z " fill="#000000"/><text fill="#000000" font-family="sans-serif" font-size="12" font-style="italic" lengthAdjust="spacing" textLength="27" x="1520.5" y="596.9629">«vo»</text><text fill="#000000" font-family="sans-serif" font-size="14" lengthAdjust="spacing" textLength="73" x="1497.5" y="615.082">CourseTitle</text><line style="stroke:#181818;stroke-width:0.5;" x1="1469.5" x2="1572.5" y1="623.5957" y2="623.5957"/><line style="stroke:#181818;stroke-width:0.5;" x1="1469.5" x2="1572.5" y1="631.5957" y2="631.5957"/></g><!--class CourseState--><g id="elem_CourseState"><rect codeLine="18" fill="#F1F1F1" height="97.8242" id="CourseState" rx="2.5" ry="2.5" style="stroke:#181818;stroke-width:0.5;" width="111" x="1608.5" y="560.5137"/><ellipse cx="1623.5" cy="582.8047" fill="#EB937F" rx="11" ry="11" style="stroke:#181818;stroke-width:1.0;"/><path d="M1622.3594,583.6016 L1622.3594,586.1016 L1626.6875,586.1016 L1626.6875,585.1797 Q1626.6875,584.5703 1626.9219,584.3047 Q1627.1719,584.0391 1627.5469,584.0391 Q1627.9219,584.0391 1628.1563,584.3047 Q1628.3906,584.5703 1628.3906,585.1797 L1628.3906,587.8047 L1620.3906,587.8047 Q1619.7656,587.8047 1619.5,587.5703 Q1619.25,587.3359 1619.25,586.9453 Q1619.25,586.5703 1619.5156,586.3359 Q1619.7813,586.1016 1620.3906,586.1016 L1620.6563,586.1016 L1620.6563,579.4453 L1620.3906,579.4453 Q1619.7656,579.4453 1619.5,579.2109 Q1619.25,578.9766 1619.25,578.5859 Q1619.25,578.2109 1619.5,577.9766 Q1619.7656,577.7422 1620.3906,577.7422 L1628.0156,577.7422 L1628.0156,580.3359 Q1628.0156,580.9453 1627.7813,581.2109 Q1627.5625,581.4609 1627.1719,581.4609 Q1626.7969,581.4609 1626.5625,581.2109 Q1626.3281,580.9453 1626.3281,580.3359 L1626.3281,579.4453 L1622.3594,579.4453 L1622.3594,581.8984 L1623.8438,581.8984 Q1623.8438,581.2422 1623.9688,581.0547 Q1624.2344,580.6484 1624.7031,580.6484 Q1625.0781,580.6484 1625.3125,580.9141 Q1625.5469,581.1641 1625.5469,581.7734 L1625.5469,583.7422 Q1625.5469,584.2891 1625.4219,584.4766 Q1625.1563,584.8672 1624.7031,584.8672 Q1624.2344,584.8672 1623.9688,584.4609 Q1623.8438,584.2734 1623.8438,583.6016 L1622.3594,583.6016 Z " fill="#000000"/><text fill="#000000" font-family="sans-serif" font-size="12" font-style="italic" lengthAdjust="spacing" textLength="27" x="1663.5" y="578.4629">«vo»</text><text fill="#000000" font-family="sans-serif" font-size="14" lengthAdjust="spacing" textLength="79" x="1637.5" y="596.582">CourseState</text><line style="stroke:#181818;stroke-width:0.5;" x1="1609.5" x2="1718.5" y1="605.0957" y2="605.0957"/><text fill="#000000" font-family="sans-serif" font-size="14" lengthAdjust="spacing" textLength="38" x="1614.5" y="624.2031">OPEN</text><text fill="#000000" font-family="sans-serif" font-size="14" lengthAdjust="spacing" textLength="47" x="1614.5" y="642.8242">CLOSE</text><line style="stroke:#181818;stroke-width:0.5;" x1="1609.5" x2="1718.5" y1="650.3379" y2="650.3379"/></g><!--class CourseEnrollment--><g id="elem_CourseEnrollment"><rect codeLine="30" fill="#F1F1F1" height="76.543" id="CourseEnrollment" rx="2.5" ry="2.5" style="stroke:#181818;stroke-width:0.5;" width="145" x="814.5" y="222.0137"/><ellipse cx="829.5" cy="252.2852" fill="#ADD1B2" rx="11" ry="11" style="stroke:#181818;stroke-width:1.0;"/><path d="M832.2656,248.1602 Q832.4219,247.9414 832.6094,247.832 Q832.7969,247.7227 833.0156,247.7227 Q833.3906,247.7227 833.625,247.9883 Q833.8594,248.2383 833.8594,248.8477 L833.8594,250.3008 Q833.8594,250.9102 833.625,251.1758 Q833.3906,251.4414 833.0156,251.4414 Q832.6719,251.4414 832.4688,251.2383 Q832.2656,251.0508 832.1563,250.5352 Q832.1094,250.1758 831.9219,249.9883 Q831.5938,249.6133 830.9844,249.3945 Q830.375,249.1758 829.75,249.1758 Q828.9844,249.1758 828.3438,249.5039 Q827.7188,249.832 827.2188,250.582 Q826.7344,251.332 826.7344,252.3633 L826.7344,253.457 Q826.7344,254.6914 827.625,255.5195 Q828.5156,256.332 830.1094,256.332 Q831.0469,256.332 831.7031,256.082 Q832.0938,255.9258 832.5156,255.4883 Q832.7813,255.2227 832.9219,255.1445 Q833.0781,255.0664 833.2813,255.0664 Q833.6094,255.0664 833.8594,255.332 Q834.125,255.582 834.125,255.9258 Q834.125,256.2695 833.7813,256.6758 Q833.2813,257.2539 832.4844,257.582 Q831.4063,258.0352 830.1094,258.0352 Q828.5938,258.0352 827.3906,257.4102 Q826.4063,256.9102 825.7188,255.8477 Q825.0313,254.7695 825.0313,253.4883 L825.0313,252.332 Q825.0313,251.0039 825.6406,249.8633 Q826.2656,248.707 827.3594,248.0977 Q828.4531,247.4727 829.6875,247.4727 Q830.4219,247.4727 831.0625,247.6445 Q831.7188,247.8008 832.2656,248.1602 Z " fill="#000000"/><text fill="#000000" font-family="sans-serif" font-size="12" font-style="italic" lengthAdjust="spacing" textLength="43" x="878.5" y="239.9629">«entity»</text><text fill="#000000" font-family="sans-serif" font-size="12" font-style="italic" lengthAdjust="spacing" textLength="35" x="882.5" y="255.9238">«root»</text><text fill="#000000" font-family="sans-serif" font-size="14" lengthAdjust="spacing" textLength="113" x="843.5" y="274.043">CourseEnrollment</text><line style="stroke:#181818;stroke-width:0.5;" x1="815.5" x2="958.5" y1="282.5566" y2="282.5566"/><line style="stroke:#181818;stroke-width:0.5;" x1="815.5" x2="958.5" y1="290.5566" y2="290.5566"/></g><!--class CourseEnrollmentState--><g id="elem_CourseEnrollmentState"><rect codeLine="31" fill="#F1F1F1" height="116.4453" id="CourseEnrollmentState" rx="2.5" ry="2.5" style="stroke:#181818;stroke-width:0.5;" width="178" x="692" y="381.5137"/><ellipse cx="707" cy="403.8047" fill="#EB937F" rx="11" ry="11" style="stroke:#181818;stroke-width:1.0;"/><path d="M705.8594,404.6016 L705.8594,407.1016 L710.1875,407.1016 L710.1875,406.1797 Q710.1875,405.5703 710.4219,405.3047 Q710.6719,405.0391 711.0469,405.0391 Q711.4219,405.0391 711.6563,405.3047 Q711.8906,405.5703 711.8906,406.1797 L711.8906,408.8047 L703.8906,408.8047 Q703.2656,408.8047 703,408.5703 Q702.75,408.3359 702.75,407.9453 Q702.75,407.5703 703.0156,407.3359 Q703.2813,407.1016 703.8906,407.1016 L704.1563,407.1016 L704.1563,400.4453 L703.8906,400.4453 Q703.2656,400.4453 703,400.2109 Q702.75,399.9766 702.75,399.5859 Q702.75,399.2109 703,398.9766 Q703.2656,398.7422 703.8906,398.7422 L711.5156,398.7422 L711.5156,401.3359 Q711.5156,401.9453 711.2813,402.2109 Q711.0625,402.4609 710.6719,402.4609 Q710.2969,402.4609 710.0625,402.2109 Q709.8281,401.9453 709.8281,401.3359 L709.8281,400.4453 L705.8594,400.4453 L705.8594,402.8984 L707.3438,402.8984 Q707.3438,402.2422 707.4688,402.0547 Q707.7344,401.6484 708.2031,401.6484 Q708.5781,401.6484 708.8125,401.9141 Q709.0469,402.1641 709.0469,402.7734 L709.0469,404.7422 Q709.0469,405.2891 708.9219,405.4766 Q708.6563,405.8672 708.2031,405.8672 Q707.7344,405.8672 707.4688,405.4609 Q707.3438,405.2734 707.3438,404.6016 L705.8594,404.6016 Z " fill="#000000"/><text fill="#000000" font-family="sans-serif" font-size="12" font-style="italic" lengthAdjust="spacing" textLength="27" x="780.5" y="399.4629">«vo»</text><text fill="#000000" font-family="sans-serif" font-size="14" lengthAdjust="spacing" textLength="146" x="721" y="417.582">CourseEnrollmentState</text><line style="stroke:#181818;stroke-width:0.5;" x1="693" x2="869" y1="426.0957" y2="426.0957"/><text fill="#000000" font-family="sans-serif" font-size="14" lengthAdjust="spacing" textLength="88" x="698" y="445.2031">CANDIDATED</text><text fill="#000000" font-family="sans-serif" font-size="14" lengthAdjust="spacing" textLength="75" x="698" y="463.8242">ACCEPTED</text><text fill="#000000" font-family="sans-serif" font-size="14" lengthAdjust="spacing" textLength="77" x="698" y="482.4453">UNDEFINED</text><line style="stroke:#181818;stroke-width:0.5;" x1="693" x2="869" y1="489.959" y2="489.959"/></g><!--class CourseEnrollmentDate--><g id="elem_CourseEnrollmentDate"><rect codeLine="36" fill="#F1F1F1" height="60.582" id="CourseEnrollmentDate" rx="2.5" ry="2.5" style="stroke:#181818;stroke-width:0.5;" width="175" x="905.5" y="409.0137"/><ellipse cx="920.5" cy="431.3047" fill="#ADD1B2" rx="11" ry="11" style="stroke:#181818;stroke-width:1.0;"/><path d="M923.2656,427.1797 Q923.4219,426.9609 923.6094,426.8516 Q923.7969,426.7422 924.0156,426.7422 Q924.3906,426.7422 924.625,427.0078 Q924.8594,427.2578 924.8594,427.8672 L924.8594,429.3203 Q924.8594,429.9297 924.625,430.1953 Q924.3906,430.4609 924.0156,430.4609 Q923.6719,430.4609 923.4688,430.2578 Q923.2656,430.0703 923.1563,429.5547 Q923.1094,429.1953 922.9219,429.0078 Q922.5938,428.6328 921.9844,428.4141 Q921.375,428.1953 920.75,428.1953 Q919.9844,428.1953 919.3438,428.5234 Q918.7188,428.8516 918.2188,429.6016 Q917.7344,430.3516 917.7344,431.3828 L917.7344,432.4766 Q917.7344,433.7109 918.625,434.5391 Q919.5156,435.3516 921.1094,435.3516 Q922.0469,435.3516 922.7031,435.1016 Q923.0938,434.9453 923.5156,434.5078 Q923.7813,434.2422 923.9219,434.1641 Q924.0781,434.0859 924.2813,434.0859 Q924.6094,434.0859 924.8594,434.3516 Q925.125,434.6016 925.125,434.9453 Q925.125,435.2891 924.7813,435.6953 Q924.2813,436.2734 923.4844,436.6016 Q922.4063,437.0547 921.1094,437.0547 Q919.5938,437.0547 918.3906,436.4297 Q917.4063,435.9297 916.7188,434.8672 Q916.0313,433.7891 916.0313,432.5078 L916.0313,431.3516 Q916.0313,430.0234 916.6406,428.8828 Q917.2656,427.7266 918.3594,427.1172 Q919.4531,426.4922 920.6875,426.4922 Q921.4219,426.4922 922.0625,426.6641 Q922.7188,426.8203 923.2656,427.1797 Z " fill="#000000"/><text fill="#000000" font-family="sans-serif" font-size="12" font-style="italic" lengthAdjust="spacing" textLength="27" x="992.5" y="426.9629">«vo»</text><text fill="#000000" font-family="sans-serif" font-size="14" lengthAdjust="spacing" textLength="143" x="934.5" y="445.082">CourseEnrollmentDate</text><line style="stroke:#181818;stroke-width:0.5;" x1="906.5" x2="1079.5" y1="453.5957" y2="453.5957"/><line style="stroke:#181818;stroke-width:0.5;" x1="906.5" x2="1079.5" y1="461.5957" y2="461.5957"/></g><!--link Student to MechanographicalNumber--><g id="link_Student_MechanographicalNumber"><path codeLine="8" d="M413.2,97.3537 C368.67,114.2137 295.84,143.7537 237,177.0137 C211.18,191.6037 184.08,210.6437 162.57,226.7537 " fill="none" id="Student-to-MechanographicalNumber" style="stroke:#181818;stroke-width:1.0;"/><polygon fill="#181818" points="158.35,229.9337,167.9462,227.7172,162.3448,226.9268,163.1352,221.3254,158.35,229.9337" style="stroke:#181818;stroke-width:1.0;"/><text fill="#000000" font-family="sans-serif" font-size="13" lengthAdjust="spacing" textLength="7" x="158.3316" y="218.9749">1</text></g><!--link Student to StudentDateOfBirth--><g id="link_Student_StudentDateOfBirth"><path codeLine="9" d="M476.06,120.0537 C494.41,151.2937 520.32,195.3837 538.06,225.5837 " fill="none" id="Student-to-StudentDateOfBirth" style="stroke:#181818;stroke-width:1.0;"/><polygon fill="#181818" points="540.62,229.9337,539.506,220.148,538.0855,225.6236,532.6099,224.2032,540.62,229.9337" style="stroke:#181818;stroke-width:1.0;"/><text fill="#000000" font-family="sans-serif" font-size="13" lengthAdjust="spacing" textLength="7" x="529.3135" y="218.9749">1</text></g><!--link Student to StudentTaxPayerNumber--><g id="link_Student_StudentTaxPayerNumber"><path codeLine="10" d="M431.94,120.0537 C413.59,151.2937 387.68,195.3837 369.94,225.5837 " fill="none" id="Student-to-StudentTaxPayerNumber" style="stroke:#181818;stroke-width:1.0;"/><polygon fill="#181818" points="367.38,229.9337,375.3901,224.2032,369.9145,225.6236,368.494,220.148,367.38,229.9337" style="stroke:#181818;stroke-width:1.0;"/><text fill="#000000" font-family="sans-serif" font-size="13" lengthAdjust="spacing" textLength="7" x="363.2428" y="218.9749">1</text></g><!--link Course to CourseState--><g id="link_Course_CourseState"><path codeLine="23" d="M1398.25,459.2637 C1444.94,481.9037 1524.86,521.8037 1591,560.5137 C1595.22,562.9837 1599.54,565.5937 1603.86,568.2737 " fill="none" id="Course-to-CourseState" style="stroke:#181818;stroke-width:1.0;"/><polygon fill="#181818" points="1608.18,570.9637,1602.6557,562.81,1603.936,568.3201,1598.4259,569.6004,1608.18,570.9637" style="stroke:#181818;stroke-width:1.0;"/><text fill="#000000" font-family="sans-serif" font-size="13" lengthAdjust="spacing" textLength="7" x="1593.5796" y="561.9936">1</text></g><!--link Course to CourseTitle--><g id="link_Course_CourseTitle"><path codeLine="24" d="M1395.36,478.2137 C1423.39,507.2837 1461.8,547.1237 1488.75,575.0637 " fill="none" id="Course-to-CourseTitle" style="stroke:#181818;stroke-width:1.0;"/><polygon fill="#181818" points="1492.3,578.7537,1488.9322,569.4985,1488.8293,575.1545,1483.1734,575.0516,1492.3,578.7537" style="stroke:#181818;stroke-width:1.0;"/><text fill="#000000" font-family="sans-serif" font-size="13" lengthAdjust="spacing" textLength="7" x="1478.6588" y="567.7577">1</text></g><!--link Course to CourseDescription--><g id="link_Course_CourseDescription"><path codeLine="25" d="M1359,478.2137 C1359,506.8137 1359,545.8237 1359,573.6837 " fill="none" id="Course-to-CourseDescription" style="stroke:#181818;stroke-width:1.0;"/><polygon fill="#181818" points="1359,578.7537,1363,569.7537,1359,573.7537,1355,569.7537,1359,578.7537" style="stroke:#181818;stroke-width:1.0;"/><text fill="#000000" font-family="sans-serif" font-size="13" lengthAdjust="spacing" textLength="7" x="1351.2781" y="567.7577">1</text></g><!--link Course to CourseCode--><g id="link_Course_CourseCode"><path codeLine="26" d="M1321.75,478.2137 C1293.02,507.2837 1253.66,547.1237 1226.05,575.0637 " fill="none" id="Course-to-CourseCode" style="stroke:#181818;stroke-width:1.0;"/><polygon fill="#181818" points="1222.4,578.7537,1231.5708,575.1625,1225.914,575.1968,1225.8798,569.54,1222.4,578.7537" style="stroke:#181818;stroke-width:1.0;"/><text fill="#000000" font-family="sans-serif" font-size="13" lengthAdjust="spacing" textLength="7" x="1220.7419" y="567.7577">1</text></g><!--reverse link Student to CourseEnrollment--><g id="link_Student_CourseEnrollment"><path codeLine="38" d="M499.56,101.1337 C574.51,131.7737 724.41,193.0537 814.2,229.7537 " fill="none" id="Student-backto-CourseEnrollment" style="stroke:#181818;stroke-width:1.0;"/><polygon fill="#181818" points="494.74,99.1637,501.5468,106.2817,499.3655,101.0624,504.5848,98.881,494.74,99.1637" style="stroke:#181818;stroke-width:1.0;"/><text fill="#000000" font-family="sans-serif" font-size="13" lengthAdjust="spacing" textLength="75" x="659" y="165.042">receive apply</text><text fill="#000000" font-family="sans-serif" font-size="13" lengthAdjust="spacing" textLength="7" x="502.6203" y="97.8885">1</text></g><!--link CourseEnrollment to Course--><g id="link_CourseEnrollment_Course"><path codeLine="39" d="M959.72,288.7837 C1058.98,326.0037 1233.83,391.5737 1315.14,422.0637 " fill="none" id="CourseEnrollment-to-Course" style="stroke:#181818;stroke-width:1.0;"/><polygon fill="#181818" points="1319.88,423.8437,1312.8645,416.9312,1315.2001,422.0834,1310.048,424.419,1319.88,423.8437" style="stroke:#181818;stroke-width:1.0;"/><text fill="#000000" font-family="sans-serif" font-size="13" lengthAdjust="spacing" textLength="68" x="1109" y="344.042">is related to</text><text fill="#000000" font-family="sans-serif" font-size="13" lengthAdjust="spacing" textLength="7" x="1305.0219" y="416.4846">1</text></g><!--link CourseEnrollment to CourseEnrollmentState--><g id="link_CourseEnrollment_CourseEnrollmentState"><path codeLine="40" d="M864.52,299.0537 C850.96,321.6937 833.36,351.0737 817.82,377.0337 " fill="none" id="CourseEnrollment-to-CourseEnrollmentState" style="stroke:#181818;stroke-width:1.0;"/><polygon fill="#181818" points="815.14,381.5037,823.2004,375.8442,817.7125,377.2162,816.3405,371.7283,815.14,381.5037" style="stroke:#181818;stroke-width:1.0;"/><text fill="#000000" font-family="sans-serif" font-size="13" lengthAdjust="spacing" textLength="7" x="811.8743" y="370.4167">1</text></g><!--link CourseEnrollment to CourseEnrollmentDate--><g id="link_CourseEnrollment_CourseEnrollmentDate"><path codeLine="41" d="M909.48,299.0537 C928.19,330.2937 954.6,374.3837 972.68,404.5837 " fill="none" id="CourseEnrollment-to-CourseEnrollmentDate" style="stroke:#181818;stroke-width:1.0;"/><polygon fill="#181818" points="975.28,408.9337,974.0939,399.1565,972.7138,404.6424,967.2279,403.2624,975.28,408.9337" style="stroke:#181818;stroke-width:1.0;"/><text fill="#000000" font-family="sans-serif" font-size="13" lengthAdjust="spacing" textLength="7" x="963.9034" y="397.9749">1</text></g><!--SRC=[bP9DReCm48NtEON5daMtbOL4CPKYjO04FO0Bqs3LO6HCMXJbxZK_eGOIqdg1ODutzho7Avf-qWCW2sDwa2XMJGQbSXphj4DwfPpMzQMAiNumrJeEnb88JPtE1lKAQKvBSP2qobbAUT0Kxo0nFee5E6wNqE-8jY3lSOGg23-Uc5Jv1FNKg2FRTf3rODqOu2gwtdeBcq-wqyTNyzWyqSWQ5gaDnJkX3P0dCa23kPL6e4ubgnGJvPMC1YPXYiDCXR8fHZ5MskKezffUOUG7btVl9Opz_cFCTMYRGZ1scScP-2fdI3_5DcAOsGQxH6u6xPTIS5wiB-fIHZVJD_BvnNkFQ14Lyjo0x8cR-6GgkPxdHsRXBI3-ypuOA-UDaOXnnE8UT-wnRQzTF289AR0Z85fLl3MICw3vxz8zhDPjN1-N8IN-qhC8udyjdI_zmtu0]--></g></svg>