<?xml version="1.0" encoding="UTF-8" standalone="no"?><svg xmlns="http://www.w3.org/2000/svg" xmlns:xlink="http://www.w3.org/1999/xlink" contentStyleType="text/css" height="1106.7px" preserveAspectRatio="none" style="width:670px;height:1106px;background:#282828;" version="1.1" viewBox="0 0 670 1106" width="670.6px" zoomAndPan="magnify"><defs/><g><rect fill="#282828" height="1106.7" style="stroke:none;stroke-width:0.6999999999999998;" width="670.6" x="0" y="0"/><!--cluster <<agr CourseEnrollment>>--><g id="cluster_&lt;&lt;agr CourseEnrollment&gt;&gt;"><path d="M9.45,271.6 L145.95,271.6 A2.625,2.625 0 0 1 147.7,273.35 L152.6,287.7103 L504.35,287.7103 A1.75,1.75 0 0 1 506.1,289.4603 L506.1,624.05 A1.75,1.75 0 0 1 504.35,625.8 L9.45,625.8 A1.75,1.75 0 0 1 7.7,624.05 L7.7,273.35 A1.75,1.75 0 0 1 9.45,271.6 " fill="#282828" style="stroke:#33FF33;stroke-width:0.6999999999999998;"/><line style="stroke:#33FF33;stroke-width:0.6999999999999998;" x1="7.7" x2="152.6" y1="287.7103" y2="287.7103"/><text fill="#33FF33" font-family="Verdana" font-size="9.8" font-weight="bold" lengthAdjust="spacing" textLength="135.8" x="10.5" y="282.8526">«agr CourseEnrollment»</text></g><!--cluster <<agr Student>>--><g id="cluster_&lt;&lt;agr Student&gt;&gt;"><path d="M143.15,642.6 L225.05,642.6 A2.625,2.625 0 0 1 226.8,644.35 L231.7,658.7103 L290.85,658.7103 A1.75,1.75 0 0 1 292.6,660.4603 L292.6,1100.05 A1.75,1.75 0 0 1 290.85,1101.8 L143.15,1101.8 A1.75,1.75 0 0 1 141.4,1100.05 L141.4,644.35 A1.75,1.75 0 0 1 143.15,642.6 " fill="#282828" style="stroke:#33FF33;stroke-width:0.6999999999999998;"/><line style="stroke:#33FF33;stroke-width:0.6999999999999998;" x1="141.4" x2="231.7" y1="658.7103" y2="658.7103"/><text fill="#33FF33" font-family="Verdana" font-size="9.8" font-weight="bold" lengthAdjust="spacing" textLength="81.2" x="144.2" y="653.8526">«agr Student»</text></g><!--cluster <<agr Course>>--><g id="cluster_&lt;&lt;agr Course&gt;&gt;"><path d="M579.25,7.7 L656.95,7.7 A2.625,2.625 0 0 1 658.7,9.45 L663.6,23.8103 L663.95,23.8103 A1.75,1.75 0 0 1 665.7,25.5603 L665.7,609.35 A1.75,1.75 0 0 1 663.95,611.1 L579.25,611.1 A1.75,1.75 0 0 1 577.5,609.35 L577.5,9.45 A1.75,1.75 0 0 1 579.25,7.7 " fill="#282828" style="stroke:#33FF33;stroke-width:0.6999999999999998;"/><line style="stroke:#33FF33;stroke-width:0.6999999999999998;" x1="577.5" x2="663.6" y1="23.8103" y2="23.8103"/><text fill="#33FF33" font-family="Verdana" font-size="9.8" font-weight="bold" lengthAdjust="spacing" textLength="77" x="580.3" y="18.9526">«agr Course»</text></g><!--class CourseEnrollment--><g id="elem_CourseEnrollment"><rect codeLine="9" fill="#282828" height="39.3278" id="CourseEnrollment" rx="1.75" ry="1.75" style="stroke:#33FF33;stroke-width:0.6999999999999998;" width="91.7" x="171.15" y="456.4"/><text fill="#33FF33" font-family="Verdana" font-size="8.4" font-style="italic" lengthAdjust="spacing" textLength="35.7" x="199.15" y="468.3451">«entity»</text><text fill="#33FF33" font-family="Verdana" font-size="8.4" font-style="italic" lengthAdjust="spacing" textLength="28" x="203" y="478.5539">«root»</text><text fill="#33FF33" font-family="Verdana" font-size="9.8" lengthAdjust="spacing" textLength="87.5" x="173.25" y="490.1702">CourseEnrollment</text></g><!--class StudentEnrollmentState--><g id="elem_StudentEnrollmentState"><rect codeLine="10" fill="#282828" height="39.3278" id="StudentEnrollmentState" rx="1.75" ry="1.75" style="stroke:#33FF33;stroke-width:0.6999999999999998;" width="123.2" x="371.7" y="575.4"/><text fill="#33FF33" font-family="Verdana" font-size="8.4" font-style="italic" lengthAdjust="spacing" textLength="21" x="422.8" y="587.3451">«vo»</text><text fill="#33FF33" font-family="Verdana" font-size="8.4" font-style="italic" lengthAdjust="spacing" textLength="35.7" x="415.45" y="597.5539">«enum»</text><text fill="#33FF33" font-family="Verdana" font-size="9.8" lengthAdjust="spacing" textLength="119" x="373.8" y="609.1702">StudentEnrollmentState</text></g><!--class CourseEnrollmentDate--><g id="elem_CourseEnrollmentDate"><rect codeLine="11" fill="#282828" height="29.119" id="CourseEnrollmentDate" rx="1.75" ry="1.75" style="stroke:#33FF33;stroke-width:0.6999999999999998;" width="114.8" x="375.9" y="441"/><text fill="#33FF33" font-family="Verdana" font-size="8.4" font-style="italic" lengthAdjust="spacing" textLength="21" x="422.8" y="452.9451">«vo»</text><text fill="#33FF33" font-family="Verdana" font-size="9.8" lengthAdjust="spacing" textLength="110.6" x="378" y="464.5614">CourseEnrollmentDate</text></g><!--class Course--><g id="elem_Course"><rect codeLine="32" fill="#282828" height="39.3278" id="Course" rx="1.75" ry="1.75" style="stroke:#33FF33;stroke-width:0.6999999999999998;" width="39.2" x="413.7" y="296.8"/><text fill="#33FF33" font-family="Verdana" font-size="8.4" font-style="italic" lengthAdjust="spacing" textLength="35.7" x="415.45" y="308.7451">«entity»</text><text fill="#33FF33" font-family="Verdana" font-size="8.4" font-style="italic" lengthAdjust="spacing" textLength="28" x="419.3" y="318.9539">«root»</text><text fill="#33FF33" font-family="Verdana" font-size="9.8" lengthAdjust="spacing" textLength="35" x="415.8" y="330.5702">Course</text></g><!--class Student--><g id="elem_Student"><rect codeLine="20" fill="#282828" height="39.3278" id="Student" rx="1.75" ry="1.75" style="stroke:#33FF33;stroke-width:0.6999999999999998;" width="44.1" x="18.9" y="575.4"/><text fill="#33FF33" font-family="Verdana" font-size="8.4" font-style="italic" lengthAdjust="spacing" textLength="35.7" x="23.1" y="587.3451">«entity»</text><text fill="#33FF33" font-family="Verdana" font-size="8.4" font-style="italic" lengthAdjust="spacing" textLength="28" x="26.95" y="597.5539">«root»</text><text fill="#33FF33" font-family="Verdana" font-size="9.8" lengthAdjust="spacing" textLength="39.9" x="21" y="609.1702">Student</text></g><!--class MechanographicalNumber--><g id="elem_MechanographicalNumber"><rect codeLine="21" fill="#282828" height="29.119" id="MechanographicalNumber" rx="1.75" ry="1.75" style="stroke:#33FF33;stroke-width:0.6999999999999998;" width="128.8" x="152.6" y="667.8"/><text fill="#33FF33" font-family="Verdana" font-size="8.4" font-style="italic" lengthAdjust="spacing" textLength="21" x="206.5" y="679.7451">«vo»</text><text fill="#33FF33" font-family="Verdana" font-size="9.8" lengthAdjust="spacing" textLength="124.6" x="154.7" y="691.3614">MechanographicalNumber</text></g><!--class StudentTaxPayerNumber--><g id="elem_StudentTaxPayerNumber"><rect codeLine="22" fill="#282828" height="29.119" id="StudentTaxPayerNumber" rx="1.75" ry="1.75" style="stroke:#33FF33;stroke-width:0.6999999999999998;" width="127.4" x="153.3" y="802.2"/><text fill="#33FF33" font-family="Verdana" font-size="8.4" font-style="italic" lengthAdjust="spacing" textLength="21" x="206.5" y="814.1451">«vo»</text><text fill="#33FF33" font-family="Verdana" font-size="9.8" lengthAdjust="spacing" textLength="123.2" x="155.4" y="825.7614">StudentTaxPayerNumber</text></g><!--class StudentDateOfBirth--><g id="elem_StudentDateOfBirth"><rect codeLine="23" fill="#282828" height="29.119" id="StudentDateOfBirth" rx="1.75" ry="1.75" style="stroke:#33FF33;stroke-width:0.6999999999999998;" width="102.2" x="165.9" y="936.6"/><text fill="#33FF33" font-family="Verdana" font-size="8.4" font-style="italic" lengthAdjust="spacing" textLength="21" x="206.5" y="948.5451">«vo»</text><text fill="#33FF33" font-family="Verdana" font-size="9.8" lengthAdjust="spacing" textLength="98" x="168" y="960.1614">StudentDateOfBirth</text></g><!--class SystemUser--><g id="elem_SystemUser"><rect fill="#282828" height="18.9103" id="SystemUser" rx="1.75" ry="1.75" style="stroke:#33FF33;stroke-width:0.6999999999999998;" width="63.7" x="185.15" y="1071.35"/><text fill="#33FF33" font-family="Verdana" font-size="9.8" lengthAdjust="spacing" textLength="59.5" x="187.25" y="1084.7026">SystemUser</text></g><!--class Code--><g id="elem_Code"><rect codeLine="33" fill="#282828" height="29.119" id="Code" rx="1.75" ry="1.75" style="stroke:#33FF33;stroke-width:0.6999999999999998;" width="29.4" x="606.55" y="32.9"/><text fill="#33FF33" font-family="Verdana" font-size="8.4" font-style="italic" lengthAdjust="spacing" textLength="21" x="610.75" y="44.8451">«vo»</text><text fill="#33FF33" font-family="Verdana" font-size="9.8" lengthAdjust="spacing" textLength="25.2" x="608.65" y="56.4614">Code</text></g><!--class Description--><g id="elem_Description"><rect codeLine="34" fill="#282828" height="29.119" id="Description" rx="1.75" ry="1.75" style="stroke:#33FF33;stroke-width:0.6999999999999998;" width="59.5" x="591.5" y="167.3"/><text fill="#33FF33" font-family="Verdana" font-size="8.4" font-style="italic" lengthAdjust="spacing" textLength="21" x="610.75" y="179.2451">«vo»</text><text fill="#33FF33" font-family="Verdana" font-size="9.8" lengthAdjust="spacing" textLength="55.3" x="593.6" y="190.8614">Description</text></g><!--class Title--><g id="elem_Title"><rect codeLine="35" fill="#282828" height="29.119" id="Title" rx="1.75" ry="1.75" style="stroke:#33FF33;stroke-width:0.6999999999999998;" width="24.5" x="609" y="301.7"/><text fill="#33FF33" font-family="Verdana" font-size="8.4" font-style="italic" lengthAdjust="spacing" textLength="21" x="610.75" y="313.6451">«vo»</text><text fill="#33FF33" font-family="Verdana" font-size="9.8" lengthAdjust="spacing" textLength="20.3" x="611.1" y="325.2614">Title</text></g><!--class State--><g id="elem_State"><rect codeLine="36" fill="#282828" height="39.3278" id="State" rx="1.75" ry="1.75" style="stroke:#33FF33;stroke-width:0.6999999999999998;" width="37.1" x="602.7" y="436.1"/><text fill="#33FF33" font-family="Verdana" font-size="8.4" font-style="italic" lengthAdjust="spacing" textLength="21" x="610.75" y="448.0451">«vo»</text><text fill="#33FF33" font-family="Verdana" font-size="8.4" font-style="italic" lengthAdjust="spacing" textLength="35.7" x="603.4" y="458.2539">«enum»</text><text fill="#33FF33" font-family="Verdana" font-size="9.8" lengthAdjust="spacing" textLength="26.6" x="607.95" y="469.8702">State</text></g><!--class Teacher--><g id="elem_Teacher"><rect fill="#282828" height="18.9103" id="Teacher" rx="1.75" ry="1.75" style="stroke:#33FF33;stroke-width:0.6999999999999998;" width="42.7" x="599.9" y="580.65"/><text fill="#33FF33" font-family="Verdana" font-size="9.8" lengthAdjust="spacing" textLength="38.5" x="602" y="594.0026">Teacher</text></g><!--link CourseEnrollment to Course--><g id="link_CourseEnrollment_Course"><path codeLine="12" d="M244.265,456.267 C287.168,424.41 370.909,362.215 410.655,332.703 " fill="none" id="CourseEnrollment-to-Course" style="stroke:#33FF33;stroke-width:0.6999999999999998;"/><polygon fill="#33FF33" points="413.665,330.463,406.9354,331.9607,410.8518,332.5453,410.2672,336.4617,413.665,330.463" style="stroke:#33FF33;stroke-width:0.6999999999999998;"/><text fill="#33FF33" font-family="Verdana" font-size="9.1" lengthAdjust="spacing" textLength="45.5" x="304.5" y="380.1489">applied to</text><text fill="#33FF33" font-family="Verdana" font-size="9.1" lengthAdjust="spacing" textLength="5.6" x="402.5965" y="344.372">1</text></g><!--link CourseEnrollment to StudentEnrollmentState--><g id="link_CourseEnrollment_StudentEnrollmentState"><path codeLine="13" d="M253.183,495.649 C291.991,517.139 353.976,551.46 393.981,573.615 " fill="none" id="CourseEnrollment-to-StudentEnrollmentState" style="stroke:#33FF33;stroke-width:0.6999999999999998;"/><polygon fill="#33FF33" points="397.061,575.323,392.8999,569.8262,393.9972,573.6309,390.1925,574.7283,397.061,575.323" style="stroke:#33FF33;stroke-width:0.6999999999999998;"/><text fill="#33FF33" font-family="Verdana" font-size="9.1" lengthAdjust="spacing" textLength="5.6" x="381.9452" y="567.9485">1</text></g><!--link CourseEnrollment to CourseEnrollmentDate--><g id="link_CourseEnrollment_CourseEnrollmentDate"><path codeLine="14" d="M263.011,471.723 C294.798,468.72 337.645,464.667 372.309,461.398 " fill="none" id="CourseEnrollment-to-CourseEnrollmentDate" style="stroke:#33FF33;stroke-width:0.6999999999999998;"/><polygon fill="#33FF33" points="375.851,461.062,369.3148,458.8693,372.3666,461.3924,369.8435,464.4442,375.851,461.062" style="stroke:#33FF33;stroke-width:0.6999999999999998;"/><text fill="#33FF33" font-family="Verdana" font-size="9.1" lengthAdjust="spacing" textLength="5.6" x="364.6968" y="471.2279">1</text></g><!--reverse link Student to CourseEnrollment--><g id="link_Student_CourseEnrollment"><path codeLine="15" d="M66.073,578.361 C97.923,556.661 153.552,518.749 187.446,495.656 " fill="none" id="Student-backto-CourseEnrollment" style="stroke:#33FF33;stroke-width:0.6999999999999998;"/><polygon fill="#33FF33" points="63.063,580.405,69.8477,579.181,65.9582,578.4383,66.7009,574.5488,63.063,580.405" style="stroke:#33FF33;stroke-width:0.6999999999999998;"/><text fill="#33FF33" font-family="Verdana" font-size="9.1" lengthAdjust="spacing" textLength="44.8" x="84.7" y="533.4489">applies to</text><text fill="#33FF33" font-family="Verdana" font-size="9.1" lengthAdjust="spacing" textLength="5.6" x="68.5127" y="587.5569">1</text></g><!--link Student to MechanographicalNumber--><g id="link_Student_MechanographicalNumber"><path codeLine="25" d="M63.105,607.222 C82.04,617.869 110.481,633.528 135.8,646.1 C149.667,652.988 165.116,660.1 178.738,666.197 " fill="none" id="Student-to-MechanographicalNumber" style="stroke:#33FF33;stroke-width:0.6999999999999998;"/><polygon fill="#33FF33" points="182.161,667.723,177.5516,662.5963,178.9655,666.295,175.2668,667.709,182.161,667.723" style="stroke:#33FF33;stroke-width:0.6999999999999998;"/><text fill="#33FF33" font-family="Verdana" font-size="9.1" lengthAdjust="spacing" textLength="5.6" x="165.0341" y="660.3673">1</text></g><!--link Student to SystemUser--><g id="link_Student_SystemUser"><path codeLine="26" d="M42.63,614.775 C45.43,663.516 55.209,792.988 84,896.7 C99.736,953.379 99.869,971.922 135.8,1018.5 C152.537,1040.193 178.521,1058.456 196.42,1069.495 " fill="none" id="Student-to-SystemUser" style="stroke:#33FF33;stroke-width:0.6999999999999998;"/><polygon fill="#33FF33" points="199.444,1071.336,195.5184,1065.6686,196.4543,1069.5162,192.6067,1070.4521,199.444,1071.336" style="stroke:#33FF33;stroke-width:0.6999999999999998;"/><text fill="#33FF33" font-family="Verdana" font-size="9.1" lengthAdjust="spacing" textLength="5.6" x="36.785" y="629.4453">1</text></g><!--link Student to StudentDateOfBirth--><g id="link_Student_StudentDateOfBirth"><path codeLine="27" d="M43.61,614.761 C49.441,664.678 70.532,797.958 135.8,884.1 C150.976,904.127 173.187,922.089 190.435,934.395 " fill="none" id="Student-to-StudentDateOfBirth" style="stroke:#33FF33;stroke-width:0.6999999999999998;"/><polygon fill="#33FF33" points="193.375,936.474,189.8444,930.5524,190.5162,934.4548,186.6138,935.1265,193.375,936.474" style="stroke:#33FF33;stroke-width:0.6999999999999998;"/><text fill="#33FF33" font-family="Verdana" font-size="9.1" lengthAdjust="spacing" textLength="5.6" x="179.6823" y="929.1033">1</text></g><!--link Student to StudentTaxPayerNumber--><g id="link_Student_StudentTaxPayerNumber"><path codeLine="28" d="M50.855,614.775 C65.842,645.68 97.692,706.384 135.8,749.7 C152.74,768.95 175.406,787.36 192.374,800.03 " fill="none" id="Student-to-StudentTaxPayerNumber" style="stroke:#33FF33;stroke-width:0.6999999999999998;"/><polygon fill="#33FF33" points="195.258,802.165,191.8602,796.1663,192.4448,800.0827,188.5284,800.6673,195.258,802.165" style="stroke:#33FF33;stroke-width:0.6999999999999998;"/><text fill="#33FF33" font-family="Verdana" font-size="9.1" lengthAdjust="spacing" textLength="5.6" x="181.8352" y="794.5776">1</text></g><!--link Course to State--><g id="link_Course_State"><path codeLine="38" d="M452.914,330.526 C488.054,356.762 563.143,412.832 599.697,440.125 " fill="none" id="Course-to-State" style="stroke:#33FF33;stroke-width:0.6999999999999998;"/><polygon fill="#33FF33" points="602.686,442.358,599.3122,436.3457,599.8812,440.2644,595.9625,440.8334,602.686,442.358" style="stroke:#33FF33;stroke-width:0.6999999999999998;"/><text fill="#33FF33" font-family="Verdana" font-size="9.1" lengthAdjust="spacing" textLength="5.6" x="591.6115" y="449.4886">1</text></g><!--link Course to Title--><g id="link_Course_Title"><path codeLine="39" d="M452.914,316.4 C490.007,316.4 571.606,316.4 605.416,316.4 " fill="none" id="Course-to-Title" style="stroke:#33FF33;stroke-width:0.6999999999999998;"/><polygon fill="#33FF33" points="608.916,316.4,602.616,313.6,605.416,316.4,602.616,319.2,608.916,316.4" style="stroke:#33FF33;stroke-width:0.6999999999999998;"/><text fill="#33FF33" font-family="Verdana" font-size="9.1" lengthAdjust="spacing" textLength="5.6" x="597.7353" y="327.6398">1</text></g><!--link Course to Description--><g id="link_Course_Description"><path codeLine="40" d="M453.173,300.517 C469.84,286.895 494.774,266.938 517.3,250.6 C542.871,232.05 573.062,212.226 594.167,198.681 " fill="none" id="Course-to-Description" style="stroke:#33FF33;stroke-width:0.6999999999999998;"/><polygon fill="#33FF33" points="597.219,196.728,590.4038,197.769,594.272,198.6161,593.4248,202.4842,597.219,196.728" style="stroke:#33FF33;stroke-width:0.6999999999999998;"/><text fill="#33FF33" font-family="Verdana" font-size="9.1" lengthAdjust="spacing" textLength="5.6" x="584.7436" y="211.1039">1</text></g><!--link Course to Code--><g id="link_Course_Code"><path codeLine="41" d="M441.959,296.793 C455.168,265.412 483.532,202.636 517.3,155.4 C543.55,118.678 581.875,82.026 603.694,62.342 " fill="none" id="Course-to-Code" style="stroke:#33FF33;stroke-width:0.6999999999999998;"/><polygon fill="#33FF33" points="606.529,59.794,599.9691,61.9147,603.923,62.1304,603.7073,66.0843,606.529,59.794" style="stroke:#33FF33;stroke-width:0.6999999999999998;"/><text fill="#33FF33" font-family="Verdana" font-size="9.1" lengthAdjust="spacing" textLength="5.6" x="595.3442" y="74.6371">1</text></g><!--link Course to Teacher--><g id="link_Course_Teacher"><path codeLine="42" d="M453.131,328.055 C471.646,340.494 498.764,362.047 511.7,388.5 C524.321,414.309 507.227,425.992 517.3,452.9 C531.748,491.477 547.085,494.914 571.9,527.8 C585.004,545.167 600.544,564.921 610.47,577.444 " fill="none" id="Course-to-Teacher" style="stroke:#33FF33;stroke-width:0.6999999999999998;"/><polygon fill="#33FF33" points="612.864,580.468,611.1445,573.7917,610.6898,577.7253,606.7562,577.2705,612.864,580.468" style="stroke:#33FF33;stroke-width:0.6999999999999998;"/><text fill="#33FF33" font-family="Verdana" font-size="9.1" lengthAdjust="spacing" textLength="47.6" x="518" y="450.8489">is ruled by</text><text fill="#33FF33" font-family="Verdana" font-size="9.1" lengthAdjust="spacing" textLength="6.3" x="601.8054" y="573.0913">*</text></g><!--SRC=[ZLFBReCm4Bpp5LkEbP2QGoyLuj2anpwaf1_Wc0rOyKjhqnP5-VSQGXC892a7X9WPx-nuzywNg10u-QGWH1svhT2M4LEWJOuEBSmU7w9Iv0YehAz1eLeZkKZYneCtGA8eFUI2a7jXz87A1N69X- -DG9cxABACRrc14ASfAmZcfYA7BvgCb0grpx9u5q5uk6JEZM18q_0MliwoD2LZ0d-tx_6Nlie3uIHOUkOngBvCeq1TgJF5UON5YT_nHXwI98Du5dS0F06pLWhCGmxN1TFk_bDawAzLT8Urf3H9HiG_MwwnjHy5tydRlCS1teZv5Nd9j2c8sL9m9j-gPXe6gGsEMx6V3rOZtU8rpRrldWNvyaWQD7kCPTh1A9Y6lgoTH_Nfpk2pI-cLlaORTZAHw-4Q9iVuHgZpi6dTvFN-Bj1n4hPPgedSLi9BdCmpj3EQ-jwaGQ-nuGm693VVkaFR0XVHdhcBdAQjFjZMlGyd8-CbKbWVuO0g6VPdNOT0Vm40]--></g></svg>