<?xml version="1.0" encoding="UTF-8" standalone="no"?><svg xmlns="http://www.w3.org/2000/svg" xmlns:xlink="http://www.w3.org/1999/xlink" contentStyleType="text/css" height="977px" preserveAspectRatio="none" style="width:1850px;height:977px;background:#FFFFFF;" version="1.1" viewBox="0 0 1850 977" width="1850px" zoomAndPan="magnify"><defs/><g><rect fill="#FFFFFF" height="761.6152" style="stroke:#181818;stroke-width:1.0;" width="10" x="59.5" y="98.2422"/><rect fill="#FFFFFF" height="31.291" style="stroke:#181818;stroke-width:1.0;" width="10" x="413.5" y="515.6563"/><rect fill="#FFFFFF" height="31.291" style="stroke:#181818;stroke-width:1.0;" width="10" x="413.5" y="578.2383"/><rect fill="#FFFFFF" height="219.0371" style="stroke:#181818;stroke-width:1.0;" width="10" x="413.5" y="640.8203"/><rect fill="#FFFFFF" height="62.582" style="stroke:#181818;stroke-width:1.0;" width="10" x="573.5" y="152.8242"/><rect fill="#FFFFFF" height="268.959" style="stroke:#181818;stroke-width:1.0;" width="10" x="573.5" y="246.6973"/><rect fill="#FFFFFF" height="156.4551" style="stroke:#181818;stroke-width:1.0;" width="10" x="812.5" y="672.1113"/><rect fill="#FFFFFF" height="62.582" style="stroke:#181818;stroke-width:1.0;" width="10" x="1227" y="765.9844"/><rect fill="#FFFFFF" height="31.291" style="stroke:#181818;stroke-width:1.0;" width="10" x="1530" y="703.4023"/><rect fill="#FFFFFF" height="31.291" style="stroke:#181818;stroke-width:1.0;" width="10" x="1530" y="797.2754"/><rect fill="none" height="161.0859" style="stroke:#000000;stroke-width:1.5;" width="1108" x="10" y="292.9883"/><line style="stroke:#181818;stroke-width:0.5;stroke-dasharray:5.0,5.0;" x1="64" x2="64" y1="88.2422" y2="877.8574"/><line style="stroke:#181818;stroke-width:0.5;stroke-dasharray:5.0,5.0;" x1="418" x2="418" y1="88.2422" y2="877.8574"/><line style="stroke:#181818;stroke-width:0.5;stroke-dasharray:5.0,5.0;" x1="578" x2="578" y1="88.2422" y2="877.8574"/><line style="stroke:#181818;stroke-width:0.5;stroke-dasharray:5.0,5.0;" x1="817" x2="817" y1="88.2422" y2="877.8574"/><line style="stroke:#181818;stroke-width:0.5;stroke-dasharray:5.0,5.0;" x1="1036" x2="1036" y1="88.2422" y2="877.8574"/><line style="stroke:#181818;stroke-width:0.5;stroke-dasharray:5.0,5.0;" x1="1232" x2="1232" y1="88.2422" y2="877.8574"/><line style="stroke:#181818;stroke-width:0.5;stroke-dasharray:5.0,5.0;" x1="1535" x2="1535" y1="88.2422" y2="877.8574"/><line style="stroke:#181818;stroke-width:0.5;stroke-dasharray:5.0,5.0;" x1="1806" x2="1806" y1="88.2422" y2="877.8574"/><text fill="#000000" font-family="sans-serif" font-size="14" lengthAdjust="spacing" textLength="83" x="20" y="84.7285">Administrator</text><ellipse cx="64.5" cy="18.1211" fill="#E2E2F0" rx="8" ry="8" style="stroke:#181818;stroke-width:0.5;"/><path d="M64.5,26.1211 L64.5,53.1211 M51.5,34.1211 L77.5,34.1211 M64.5,53.1211 L51.5,68.1211 M64.5,53.1211 L77.5,68.1211 " fill="none" style="stroke:#181818;stroke-width:0.5;"/><text fill="#000000" font-family="sans-serif" font-size="14" lengthAdjust="spacing" textLength="83" x="20" y="891.9648">Administrator</text><ellipse cx="64.5" cy="903.9785" fill="#E2E2F0" rx="8" ry="8" style="stroke:#181818;stroke-width:0.5;"/><path d="M64.5,911.9785 L64.5,938.9785 M51.5,919.9785 L77.5,919.9785 M64.5,938.9785 L51.5,953.9785 M64.5,938.9785 L77.5,953.9785 " fill="none" style="stroke:#181818;stroke-width:0.5;"/><rect fill="#E2E2F0" height="51.2422" rx="2.5" ry="2.5" style="stroke:#181818;stroke-width:0.5;" width="147" x="345" y="36"/><text fill="#000000" font-family="sans-serif" font-size="14" font-style="italic" lengthAdjust="spacing" textLength="95" x="371" y="58.1074">«presentation»</text><text fill="#000000" font-family="sans-serif" font-size="14" lengthAdjust="spacing" textLength="133" x="352" y="76.7285">SetEnrollmentStateUI</text><rect fill="#E2E2F0" height="51.2422" rx="2.5" ry="2.5" style="stroke:#181818;stroke-width:0.5;" width="147" x="345" y="876.8574"/><text fill="#000000" font-family="sans-serif" font-size="14" font-style="italic" lengthAdjust="spacing" textLength="95" x="371" y="898.9648">«presentation»</text><text fill="#000000" font-family="sans-serif" font-size="14" lengthAdjust="spacing" textLength="133" x="352" y="917.5859">SetEnrollmentStateUI</text><rect fill="#E2E2F0" height="51.2422" rx="2.5" ry="2.5" style="stroke:#181818;stroke-width:0.5;" width="151" x="503" y="36"/><text fill="#000000" font-family="sans-serif" font-size="14" font-style="italic" lengthAdjust="spacing" textLength="84" x="536.5" y="58.1074">«application»</text><text fill="#000000" font-family="sans-serif" font-size="14" lengthAdjust="spacing" textLength="137" x="510" y="76.7285">ListCoursesController</text><rect fill="#E2E2F0" height="51.2422" rx="2.5" ry="2.5" style="stroke:#181818;stroke-width:0.5;" width="151" x="503" y="876.8574"/><text fill="#000000" font-family="sans-serif" font-size="14" font-style="italic" lengthAdjust="spacing" textLength="84" x="536.5" y="898.9648">«application»</text><text fill="#000000" font-family="sans-serif" font-size="14" lengthAdjust="spacing" textLength="137" x="510" y="917.5859">ListCoursesController</text><rect fill="#E2E2F0" height="51.2422" rx="2.5" ry="2.5" style="stroke:#181818;stroke-width:0.5;" width="181" x="727" y="36"/><text fill="#000000" font-family="sans-serif" font-size="14" font-style="italic" lengthAdjust="spacing" textLength="84" x="775.5" y="58.1074">«application»</text><text fill="#000000" font-family="sans-serif" font-size="14" lengthAdjust="spacing" textLength="167" x="734" y="76.7285">SetCourseEnrollmentState</text><rect fill="#E2E2F0" height="51.2422" rx="2.5" ry="2.5" style="stroke:#181818;stroke-width:0.5;" width="181" x="727" y="876.8574"/><text fill="#000000" font-family="sans-serif" font-size="14" font-style="italic" lengthAdjust="spacing" textLength="84" x="775.5" y="898.9648">«application»</text><text fill="#000000" font-family="sans-serif" font-size="14" lengthAdjust="spacing" textLength="167" x="734" y="917.5859">SetCourseEnrollmentState</text><rect fill="#E2E2F0" height="51.2422" rx="2.5" ry="2.5" style="stroke:#181818;stroke-width:0.5;" width="143" x="965" y="36"/><text fill="#000000" font-family="sans-serif" font-size="14" font-style="italic" lengthAdjust="spacing" textLength="60" x="1006.5" y="58.1074">«service»</text><text fill="#000000" font-family="sans-serif" font-size="14" lengthAdjust="spacing" textLength="129" x="972" y="76.7285">AuthorizationService</text><rect fill="#E2E2F0" height="51.2422" rx="2.5" ry="2.5" style="stroke:#181818;stroke-width:0.5;" width="143" x="965" y="876.8574"/><text fill="#000000" font-family="sans-serif" font-size="14" font-style="italic" lengthAdjust="spacing" textLength="60" x="1006.5" y="898.9648">«service»</text><text fill="#000000" font-family="sans-serif" font-size="14" lengthAdjust="spacing" textLength="129" x="972" y="917.5859">AuthorizationService</text><rect fill="#E2E2F0" height="51.2422" rx="2.5" ry="2.5" style="stroke:#181818;stroke-width:0.5;" width="228" x="1118" y="36"/><text fill="#000000" font-family="sans-serif" font-size="14" font-style="italic" lengthAdjust="spacing" textLength="60" x="1202" y="58.1074">«service»</text><text fill="#000000" font-family="sans-serif" font-size="14" lengthAdjust="spacing" textLength="214" x="1125" y="76.7285">SetCourseEnrollmentStateService</text><rect fill="#E2E2F0" height="51.2422" rx="2.5" ry="2.5" style="stroke:#181818;stroke-width:0.5;" width="228" x="1118" y="876.8574"/><text fill="#000000" font-family="sans-serif" font-size="14" font-style="italic" lengthAdjust="spacing" textLength="60" x="1202" y="898.9648">«service»</text><text fill="#000000" font-family="sans-serif" font-size="14" lengthAdjust="spacing" textLength="214" x="1125" y="917.5859">SetCourseEnrollmentStateService</text><text fill="#000000" font-family="sans-serif" font-size="14" font-style="italic" lengthAdjust="spacing" textLength="89" x="1487.5" y="66.1074">«persistence»</text><text fill="#000000" font-family="sans-serif" font-size="14" lengthAdjust="spacing" textLength="114" x="1475" y="84.7285">CourseRepository</text><path d="M1517,15 C1517,5 1535,5 1535,5 C1535,5 1553,5 1553,15 L1553,41 C1553,51 1535,51 1535,51 C1535,51 1517,51 1517,41 L1517,15 " fill="#E2E2F0" style="stroke:#181818;stroke-width:1.5;"/><path d="M1517,15 C1517,25 1535,25 1535,25 C1535,25 1553,25 1553,15 " fill="none" style="stroke:#181818;stroke-width:1.5;"/><text fill="#000000" font-family="sans-serif" font-size="14" font-style="italic" lengthAdjust="spacing" textLength="89" x="1487.5" y="891.9648">«persistence»</text><text fill="#000000" font-family="sans-serif" font-size="14" lengthAdjust="spacing" textLength="114" x="1475" y="910.5859">CourseRepository</text><path d="M1517,924.0996 C1517,914.0996 1535,914.0996 1535,914.0996 C1535,914.0996 1553,914.0996 1553,924.0996 L1553,950.0996 C1553,960.0996 1535,960.0996 1535,960.0996 C1535,960.0996 1517,960.0996 1517,950.0996 L1517,924.0996 " fill="#E2E2F0" style="stroke:#181818;stroke-width:1.5;"/><path d="M1517,924.0996 C1517,934.0996 1535,934.0996 1535,934.0996 C1535,934.0996 1553,934.0996 1553,924.0996 " fill="none" style="stroke:#181818;stroke-width:1.5;"/><rect fill="#E2E2F0" height="51.2422" rx="2.5" ry="2.5" style="stroke:#181818;stroke-width:0.5;" width="76" x="1768" y="36"/><text fill="#000000" font-family="sans-serif" font-size="14" font-style="italic" lengthAdjust="spacing" textLength="62" x="1775" y="58.1074">«domain»</text><text fill="#000000" font-family="sans-serif" font-size="14" lengthAdjust="spacing" textLength="46" x="1783" y="76.7285">Course</text><rect fill="#E2E2F0" height="51.2422" rx="2.5" ry="2.5" style="stroke:#181818;stroke-width:0.5;" width="76" x="1768" y="876.8574"/><text fill="#000000" font-family="sans-serif" font-size="14" font-style="italic" lengthAdjust="spacing" textLength="62" x="1775" y="898.9648">«domain»</text><text fill="#000000" font-family="sans-serif" font-size="14" lengthAdjust="spacing" textLength="46" x="1783" y="917.5859">Course</text><rect fill="#FFFFFF" height="761.6152" style="stroke:#181818;stroke-width:1.0;" width="10" x="59.5" y="98.2422"/><rect fill="#FFFFFF" height="31.291" style="stroke:#181818;stroke-width:1.0;" width="10" x="413.5" y="515.6563"/><rect fill="#FFFFFF" height="31.291" style="stroke:#181818;stroke-width:1.0;" width="10" x="413.5" y="578.2383"/><rect fill="#FFFFFF" height="219.0371" style="stroke:#181818;stroke-width:1.0;" width="10" x="413.5" y="640.8203"/><rect fill="#FFFFFF" height="62.582" style="stroke:#181818;stroke-width:1.0;" width="10" x="573.5" y="152.8242"/><rect fill="#FFFFFF" height="268.959" style="stroke:#181818;stroke-width:1.0;" width="10" x="573.5" y="246.6973"/><rect fill="#FFFFFF" height="156.4551" style="stroke:#181818;stroke-width:1.0;" width="10" x="812.5" y="672.1113"/><rect fill="#FFFFFF" height="62.582" style="stroke:#181818;stroke-width:1.0;" width="10" x="1227" y="765.9844"/><rect fill="#FFFFFF" height="31.291" style="stroke:#181818;stroke-width:1.0;" width="10" x="1530" y="703.4023"/><rect fill="#FFFFFF" height="31.291" style="stroke:#181818;stroke-width:1.0;" width="10" x="1530" y="797.2754"/><polygon fill="#181818" points="406.5,117.5332,416.5,121.5332,406.5,125.5332,410.5,121.5332" style="stroke:#181818;stroke-width:1.0;"/><line style="stroke:#181818;stroke-width:1.0;" x1="69.5" x2="412.5" y1="121.5332" y2="121.5332"/><text fill="#000000" font-family="sans-serif" font-size="13" font-weight="bold" lengthAdjust="spacing" textLength="7" x="76.5" y="116.2705">1</text><text fill="#000000" font-family="sans-serif" font-size="13" lengthAdjust="spacing" textLength="228" x="87.5" y="116.2705">asks to open/close a course enrollment</text><polygon fill="#181818" points="561.5,148.8242,571.5,152.8242,561.5,156.8242,565.5,152.8242" style="stroke:#181818;stroke-width:1.0;"/><line style="stroke:#181818;stroke-width:1.0;" x1="418.5" x2="567.5" y1="152.8242" y2="152.8242"/><text fill="#000000" font-family="sans-serif" font-size="13" font-weight="bold" lengthAdjust="spacing" textLength="7" x="425.5" y="147.5615">2</text><text fill="#000000" font-family="sans-serif" font-size="13" lengthAdjust="spacing" textLength="43" x="436.5" y="147.5615">creates</text><polygon fill="#181818" points="1523,180.1152,1533,184.1152,1523,188.1152,1527,184.1152" style="stroke:#181818;stroke-width:1.0;"/><line style="stroke:#181818;stroke-width:1.0;" x1="583.5" x2="1529" y1="184.1152" y2="184.1152"/><text fill="#000000" font-family="sans-serif" font-size="13" font-weight="bold" lengthAdjust="spacing" textLength="7" x="590.5" y="178.8525">3</text><text fill="#000000" font-family="sans-serif" font-size="13" lengthAdjust="spacing" textLength="75" x="601.5" y="178.8525">repositories()</text><polygon fill="#181818" points="1024.5,211.4063,1034.5,215.4063,1024.5,219.4063,1028.5,215.4063" style="stroke:#181818;stroke-width:1.0;"/><line style="stroke:#181818;stroke-width:1.0;" x1="578.5" x2="1030.5" y1="215.4063" y2="215.4063"/><text fill="#000000" font-family="sans-serif" font-size="13" font-weight="bold" lengthAdjust="spacing" textLength="7" x="585.5" y="210.1436">4</text><text fill="#000000" font-family="sans-serif" font-size="13" lengthAdjust="spacing" textLength="124" x="596.5" y="210.1436">authorizationService()</text><polygon fill="#181818" points="561.5,242.6973,571.5,246.6973,561.5,250.6973,565.5,246.6973" style="stroke:#181818;stroke-width:1.0;"/><line style="stroke:#181818;stroke-width:1.0;" x1="418.5" x2="567.5" y1="246.6973" y2="246.6973"/><text fill="#000000" font-family="sans-serif" font-size="13" font-weight="bold" lengthAdjust="spacing" textLength="7" x="425.5" y="241.4346">5</text><text fill="#000000" font-family="sans-serif" font-size="13" lengthAdjust="spacing" textLength="69" x="436.5" y="241.4346">allCourses()</text><polygon fill="#181818" points="1024.5,273.9883,1034.5,277.9883,1024.5,281.9883,1028.5,277.9883" style="stroke:#181818;stroke-width:1.0;"/><line style="stroke:#181818;stroke-width:1.0;" x1="583.5" x2="1030.5" y1="277.9883" y2="277.9883"/><text fill="#000000" font-family="sans-serif" font-size="13" font-weight="bold" lengthAdjust="spacing" textLength="7" x="590.5" y="272.7256">6</text><text fill="#000000" font-family="sans-serif" font-size="13" lengthAdjust="spacing" textLength="418" x="601.5" y="272.7256">ensureAuthenticatedUserHasAnyOf(ADMINISTRATOR, POWER_USER)</text><path d="M10,292.9883 L71,292.9883 L71,302.2793 L61,312.2793 L10,312.2793 L10,292.9883 " fill="#EEEEEE" style="stroke:#000000;stroke-width:1.5;"/><rect fill="none" height="161.0859" style="stroke:#000000;stroke-width:1.5;" width="1108" x="10" y="292.9883"/><text fill="#000000" font-family="sans-serif" font-size="13" font-weight="bold" lengthAdjust="spacing" textLength="16" x="25" y="308.0166">alt</text><text fill="#000000" font-family="sans-serif" font-size="11" font-weight="bold" lengthAdjust="spacing" textLength="180" x="86" y="306.8584">[user has insufficient privileges]</text><polygon fill="#181818" points="594.5,331.5703,584.5,335.5703,594.5,339.5703,590.5,335.5703" style="stroke:#181818;stroke-width:1.0;"/><line style="stroke:#181818;stroke-width:1.0;" x1="588.5" x2="1035.5" y1="335.5703" y2="335.5703"/><text fill="#000000" font-family="sans-serif" font-size="13" font-weight="bold" lengthAdjust="spacing" textLength="7" x="600.5" y="330.3076">7</text><text fill="#000000" font-family="sans-serif" font-size="13" lengthAdjust="spacing" textLength="120" x="611.5" y="330.3076">Insufficient Privileges</text><polygon fill="#181818" points="429.5,362.8613,419.5,366.8613,429.5,370.8613,425.5,366.8613" style="stroke:#181818;stroke-width:1.0;"/><line style="stroke:#181818;stroke-width:1.0;stroke-dasharray:2.0,2.0;" x1="423.5" x2="572.5" y1="366.8613" y2="366.8613"/><text fill="#000000" font-family="sans-serif" font-size="13" font-weight="bold" lengthAdjust="spacing" textLength="7" x="435.5" y="361.5986">8</text><text fill="#000000" font-family="sans-serif" font-size="13" lengthAdjust="spacing" textLength="120" x="446.5" y="361.5986">Insufficient Privileges</text><polygon fill="#181818" points="80.5,394.1523,70.5,398.1523,80.5,402.1523,76.5,398.1523" style="stroke:#181818;stroke-width:1.0;"/><line style="stroke:#181818;stroke-width:1.0;stroke-dasharray:2.0,2.0;" x1="74.5" x2="417.5" y1="398.1523" y2="398.1523"/><text fill="#000000" font-family="sans-serif" font-size="13" font-weight="bold" lengthAdjust="spacing" textLength="7" x="86.5" y="392.8896">9</text><text fill="#000000" font-family="sans-serif" font-size="13" lengthAdjust="spacing" textLength="120" x="97.5" y="392.8896">Insufficient Privileges</text><line style="stroke:#000000;stroke-width:1.0;stroke-dasharray:2.0,2.0;" x1="10" x2="1118" y1="407.1523" y2="407.1523"/><text fill="#000000" font-family="sans-serif" font-size="11" font-weight="bold" lengthAdjust="spacing" textLength="170" x="15" y="419.0225">[user has sufficient privileges]</text><polygon fill="#181818" points="594.5,442.0742,584.5,446.0742,594.5,450.0742,590.5,446.0742" style="stroke:#181818;stroke-width:1.0;"/><line style="stroke:#181818;stroke-width:1.0;" x1="588.5" x2="1035.5" y1="446.0742" y2="446.0742"/><text fill="#000000" font-family="sans-serif" font-size="13" font-weight="bold" lengthAdjust="spacing" textLength="14" x="600.5" y="440.8115">10</text><text fill="#000000" font-family="sans-serif" font-size="13" lengthAdjust="spacing" textLength="112" x="618.5" y="440.8115">Sufficient Privileges</text><polygon fill="#181818" points="1523,480.3652,1533,484.3652,1523,488.3652,1527,484.3652" style="stroke:#181818;stroke-width:1.0;"/><line style="stroke:#181818;stroke-width:1.0;" x1="583.5" x2="1529" y1="484.3652" y2="484.3652"/><text fill="#000000" font-family="sans-serif" font-size="13" font-weight="bold" lengthAdjust="spacing" textLength="14" x="590.5" y="479.1025">11</text><text fill="#000000" font-family="sans-serif" font-size="13" lengthAdjust="spacing" textLength="91" x="608.5" y="479.1025">findAllCourses()</text><polygon fill="#181818" points="434.5,511.6563,424.5,515.6563,434.5,519.6563,430.5,515.6563" style="stroke:#181818;stroke-width:1.0;"/><line style="stroke:#181818;stroke-width:1.0;" x1="428.5" x2="577.5" y1="515.6563" y2="515.6563"/><text fill="#000000" font-family="sans-serif" font-size="13" font-weight="bold" lengthAdjust="spacing" textLength="14" x="440.5" y="510.3936">12</text><text fill="#000000" font-family="sans-serif" font-size="13" lengthAdjust="spacing" textLength="104" x="458.5" y="510.3936">List&lt;CourseDTO&gt;</text><polygon fill="#181818" points="80.5,542.9473,70.5,546.9473,80.5,550.9473,76.5,546.9473" style="stroke:#181818;stroke-width:1.0;"/><line style="stroke:#181818;stroke-width:1.0;stroke-dasharray:2.0,2.0;" x1="74.5" x2="417.5" y1="546.9473" y2="546.9473"/><text fill="#000000" font-family="sans-serif" font-size="13" font-weight="bold" lengthAdjust="spacing" textLength="14" x="86.5" y="541.6846">13</text><text fill="#000000" font-family="sans-serif" font-size="13" lengthAdjust="spacing" textLength="302" x="104.5" y="541.6846">shows course list and requests to select one course</text><polygon fill="#181818" points="401.5,574.2383,411.5,578.2383,401.5,582.2383,405.5,578.2383" style="stroke:#181818;stroke-width:1.0;"/><line style="stroke:#181818;stroke-width:1.0;" x1="69.5" x2="407.5" y1="578.2383" y2="578.2383"/><text fill="#000000" font-family="sans-serif" font-size="13" font-weight="bold" lengthAdjust="spacing" textLength="14" x="76.5" y="572.9756">14</text><text fill="#000000" font-family="sans-serif" font-size="13" lengthAdjust="spacing" textLength="96" x="94.5" y="572.9756">selects a course</text><polygon fill="#181818" points="80.5,605.5293,70.5,609.5293,80.5,613.5293,76.5,609.5293" style="stroke:#181818;stroke-width:1.0;"/><line style="stroke:#181818;stroke-width:1.0;stroke-dasharray:2.0,2.0;" x1="74.5" x2="417.5" y1="609.5293" y2="609.5293"/><text fill="#000000" font-family="sans-serif" font-size="13" font-weight="bold" lengthAdjust="spacing" textLength="14" x="86.5" y="604.2666">15</text><text fill="#000000" font-family="sans-serif" font-size="13" lengthAdjust="spacing" textLength="255" x="104.5" y="604.2666">requests to select a course enrollment state</text><polygon fill="#181818" points="401.5,636.8203,411.5,640.8203,401.5,644.8203,405.5,640.8203" style="stroke:#181818;stroke-width:1.0;"/><line style="stroke:#181818;stroke-width:1.0;" x1="69.5" x2="407.5" y1="640.8203" y2="640.8203"/><text fill="#000000" font-family="sans-serif" font-size="13" font-weight="bold" lengthAdjust="spacing" textLength="14" x="76.5" y="635.5576">16</text><text fill="#000000" font-family="sans-serif" font-size="13" lengthAdjust="spacing" textLength="193" x="94.5" y="635.5576">selects a course enrollment state</text><polygon fill="#181818" points="800.5,668.1113,810.5,672.1113,800.5,676.1113,804.5,672.1113" style="stroke:#181818;stroke-width:1.0;"/><line style="stroke:#181818;stroke-width:1.0;" x1="423.5" x2="806.5" y1="672.1113" y2="672.1113"/><text fill="#000000" font-family="sans-serif" font-size="13" font-weight="bold" lengthAdjust="spacing" textLength="14" x="430.5" y="666.8486">17</text><text fill="#000000" font-family="sans-serif" font-size="13" lengthAdjust="spacing" textLength="352" x="448.5" y="666.8486">setCourseEnrollmentStateTo(selectedCourse, selectedState)</text><polygon fill="#181818" points="1518,699.4023,1528,703.4023,1518,707.4023,1522,703.4023" style="stroke:#181818;stroke-width:1.0;"/><line style="stroke:#181818;stroke-width:1.0;" x1="822.5" x2="1524" y1="703.4023" y2="703.4023"/><text fill="#000000" font-family="sans-serif" font-size="13" font-weight="bold" lengthAdjust="spacing" textLength="14" x="829.5" y="698.1396">18</text><text fill="#000000" font-family="sans-serif" font-size="13" lengthAdjust="spacing" textLength="184" x="847.5" y="698.1396">findCourseByCode(courseCode)</text><polygon fill="#181818" points="833.5,730.6934,823.5,734.6934,833.5,738.6934,829.5,734.6934" style="stroke:#181818;stroke-width:1.0;"/><line style="stroke:#181818;stroke-width:1.0;" x1="827.5" x2="1534" y1="734.6934" y2="734.6934"/><text fill="#000000" font-family="sans-serif" font-size="13" font-weight="bold" lengthAdjust="spacing" textLength="14" x="839.5" y="729.4307">19</text><text fill="#000000" font-family="sans-serif" font-size="13" lengthAdjust="spacing" textLength="59" x="857.5" y="729.4307">theCourse</text><polygon fill="#181818" points="1215,761.9844,1225,765.9844,1215,769.9844,1219,765.9844" style="stroke:#181818;stroke-width:1.0;"/><line style="stroke:#181818;stroke-width:1.0;" x1="822.5" x2="1221" y1="765.9844" y2="765.9844"/><text fill="#000000" font-family="sans-serif" font-size="13" font-weight="bold" lengthAdjust="spacing" textLength="14" x="829.5" y="760.7217">20</text><text fill="#000000" font-family="sans-serif" font-size="13" lengthAdjust="spacing" textLength="256" x="847.5" y="760.7217">setCourseEnrollmentState(theCourse, state)</text><polygon fill="#181818" points="1518,793.2754,1528,797.2754,1518,801.2754,1522,797.2754" style="stroke:#181818;stroke-width:1.0;"/><line style="stroke:#181818;stroke-width:1.0;" x1="1237" x2="1524" y1="797.2754" y2="797.2754"/><text fill="#000000" font-family="sans-serif" font-size="13" font-weight="bold" lengthAdjust="spacing" textLength="14" x="1244" y="792.0127">21</text><text fill="#000000" font-family="sans-serif" font-size="13" lengthAdjust="spacing" textLength="256" x="1262" y="792.0127">setCourseEnrollmentState(theCourse, state)</text><polygon fill="#181818" points="1794,824.5664,1804,828.5664,1794,832.5664,1798,828.5664" style="stroke:#181818;stroke-width:1.0;"/><line style="stroke:#181818;stroke-width:1.0;" x1="1535" x2="1800" y1="828.5664" y2="828.5664"/><text fill="#000000" font-family="sans-serif" font-size="13" font-weight="bold" lengthAdjust="spacing" textLength="14" x="1542" y="823.3037">22</text><text fill="#000000" font-family="sans-serif" font-size="13" lengthAdjust="spacing" textLength="224" x="1560" y="823.3037">updateCourseEnrollmentStateTo(state)</text><polygon fill="#181818" points="75.5,855.8574,65.5,859.8574,75.5,863.8574,71.5,859.8574" style="stroke:#181818;stroke-width:1.0;"/><line style="stroke:#181818;stroke-width:1.0;stroke-dasharray:2.0,2.0;" x1="69.5" x2="417.5" y1="859.8574" y2="859.8574"/><text fill="#000000" font-family="sans-serif" font-size="13" font-weight="bold" lengthAdjust="spacing" textLength="14" x="81.5" y="854.5947">23</text><text fill="#000000" font-family="sans-serif" font-size="13" lengthAdjust="spacing" textLength="250" x="99.5" y="854.5947">presents the course with the changed state</text><!--SRC=[dLLTRzem57tFh_1RcKJ7Eq98Z5OQqpOgeDfZvJgNnfjZPxP3rVxwtMkJr0c1hUCbSNpEkH_dsbmLtbTkEfbKYcjVb-gZCEN4mUyQj83hNF8doyiiuxKtkYuVmUAxyCQoHLvABPstd5RSCKuViefRBuMiK8rjmTzgQvGgGVkjvnxkLuIi9PlDAWiEFtClZPxFExolABiqjNNWbaPxKe0GGea7uQr2Dgyg9SKG6OD6RYyqyPs0lmiiQbyOAr_3tXRiGOf0nXOKhyXqyTC_Xaq4t45qw5Sf_ql58ty3bN4IU_f2d9yLfrw1TTWJiWHvEVVyaJjWGmIBgnD66YYI22hYssoMcv9BQWDPAm-XMS7CB3pOzPmicoBdbsFUC5E1dWXbIAPHWRRiB4CmKXgpfanOG4ttfdxSoXe8eaFUq_08nKXmemyf8BP_6fvzUn2PmubwFmskr76g47yfboOKQ5TRe7d0icXO8Bz7-pvpjz0lw_reSVDjzNsrtMqMk_LcpExMFsut3_VRsmtAAyzgnB826orHPxz70r26LLOUf88dx0V3NupLoNELmk-wy3RBnfDBO6e0bHDCF0y5XVwroRuhrUsmeCwxoRRsxgNE5waDFLWeYOx_B49kTklvaBN9fDOowzNf2lFSJhT2CSPrZXdWdUPy66072eHdHiCHbiP0mTxSHxXhX_rIy84m0sU4EReRtXVrbDuXnsblRpZY3zz8EpEAqf37_J5hrc4_EHkDMfQrkbqley2dbwN9OHJJfDT4Wi1PO7IpmpErF6bz0AUXwCeyNyce5Hd7ZgIf7qH6xBTy_qUba_tHXYchAxo2uMnpeyP9NScQaakNRPjxmtJyZtJKhIRyi_H5N1TSFq4-F4h9CeZz0G00]--></g></svg>