<?xml version="1.0" encoding="UTF-8" standalone="no"?><svg xmlns="http://www.w3.org/2000/svg" xmlns:xlink="http://www.w3.org/1999/xlink" contentStyleType="text/css" height="369px" preserveAspectRatio="none" style="width:908px;height:369px;background:#FFFFFF;" version="1.1" viewBox="0 0 908 369" width="908px" zoomAndPan="magnify"><defs/><g><!--cluster <<agr Meeting>>--><g id="cluster_&lt;&lt;agr Meeting&gt;&gt;"><path d="M348.5,127.0137 L450.5,127.0137 A3.75,3.75 0 0 1 453,129.5137 L460,151.6348 L898.5,151.6348 A2.5,2.5 0 0 1 901,154.1348 L901,359.5137 A2.5,2.5 0 0 1 898.5,362.0137 L348.5,362.0137 A2.5,2.5 0 0 1 346,359.5137 L346,129.5137 A2.5,2.5 0 0 1 348.5,127.0137 " fill="none" style="stroke:#000000;stroke-width:1.5;"/><line style="stroke:#000000;stroke-width:1.5;" x1="346" x2="460" y1="151.6348" y2="151.6348"/><text fill="#000000" font-family="sans-serif" font-size="14" font-weight="bold" lengthAdjust="spacing" textLength="101" x="350" y="144.1211">«agr Meeting»</text></g><!--cluster <<agr MeetingParticipation>>--><g id="cluster_&lt;&lt;agr MeetingParticipation&gt;&gt;"><path d="M8.5,6.0137 L198.5,6.0137 A3.75,3.75 0 0 1 201,8.5137 L208,30.6348 L319.5,30.6348 A2.5,2.5 0 0 1 322,33.1348 L322,230.5137 A2.5,2.5 0 0 1 319.5,233.0137 L8.5,233.0137 A2.5,2.5 0 0 1 6,230.5137 L6,8.5137 A2.5,2.5 0 0 1 8.5,6.0137 " fill="none" style="stroke:#000000;stroke-width:1.5;"/><line style="stroke:#000000;stroke-width:1.5;" x1="6" x2="208" y1="30.6348" y2="30.6348"/><text fill="#000000" font-family="sans-serif" font-size="14" font-weight="bold" lengthAdjust="spacing" textLength="189" x="10" y="23.1211">«agr MeetingParticipation»</text></g><!--class Meeting--><g id="elem_Meeting"><rect codeLine="8" fill="#F1F1F1" height="60.543" id="Meeting" rx="2.5" ry="2.5" style="stroke:#181818;stroke-width:0.5;" width="56" x="542" y="164.0137"/><text fill="#000000" font-family="sans-serif" font-size="12" font-style="italic" lengthAdjust="spacing" textLength="43" x="548.5" y="181.9629">«entity»</text><text fill="#000000" font-family="sans-serif" font-size="12" font-style="italic" lengthAdjust="spacing" textLength="35" x="552.5" y="197.9238">«root»</text><text fill="#000000" font-family="sans-serif" font-size="14" lengthAdjust="spacing" textLength="50" x="545" y="216.043">Meeting</text></g><!--class MeetingDuration--><g id="elem_MeetingDuration"><rect codeLine="9" fill="#F1F1F1" height="44.582" id="MeetingDuration" rx="2.5" ry="2.5" style="stroke:#181818;stroke-width:0.5;" width="110" x="362" y="293.0137"/><text fill="#000000" font-family="sans-serif" font-size="12" font-style="italic" lengthAdjust="spacing" textLength="27" x="403.5" y="310.9629">«vo»</text><text fill="#000000" font-family="sans-serif" font-size="14" lengthAdjust="spacing" textLength="104" x="365" y="329.082">MeetingDuration</text></g><!--class MeetingDateNTime--><g id="elem_MeetingDateNTime"><rect codeLine="10" fill="#F1F1F1" height="44.582" id="MeetingDateNTime" rx="2.5" ry="2.5" style="stroke:#181818;stroke-width:0.5;" width="126" x="507" y="293.0137"/><text fill="#000000" font-family="sans-serif" font-size="12" font-style="italic" lengthAdjust="spacing" textLength="27" x="556.5" y="310.9629">«vo»</text><text fill="#000000" font-family="sans-serif" font-size="14" lengthAdjust="spacing" textLength="120" x="510" y="329.082">MeetingDateNTime</text></g><!--class MeetingName--><g id="elem_MeetingName"><rect codeLine="11" fill="#F1F1F1" height="44.582" id="MeetingName" rx="2.5" ry="2.5" style="stroke:#181818;stroke-width:0.5;" width="92" x="668" y="293.0137"/><text fill="#000000" font-family="sans-serif" font-size="12" font-style="italic" lengthAdjust="spacing" textLength="27" x="700.5" y="310.9629">«vo»</text><text fill="#000000" font-family="sans-serif" font-size="14" lengthAdjust="spacing" textLength="86" x="671" y="329.082">MeetingName</text></g><!--class MeetingState--><g id="elem_MeetingState"><rect codeLine="12" fill="#F1F1F1" height="60.543" id="MeetingState" rx="2.5" ry="2.5" style="stroke:#181818;stroke-width:0.5;" width="89" x="795.5" y="285.0137"/><text fill="#000000" font-family="sans-serif" font-size="12" font-style="italic" lengthAdjust="spacing" textLength="27" x="826.5" y="302.9629">«vo»</text><text fill="#000000" font-family="sans-serif" font-size="12" font-style="italic" lengthAdjust="spacing" textLength="46" x="817" y="318.9238">«enum»</text><text fill="#000000" font-family="sans-serif" font-size="14" lengthAdjust="spacing" textLength="83" x="798.5" y="337.043">MeetingState</text></g><!--class MeetingParticipation--><g id="elem_MeetingParticipation"><rect codeLine="21" fill="#F1F1F1" height="60.543" id="MeetingParticipation" rx="2.5" ry="2.5" style="stroke:#181818;stroke-width:0.5;" width="134" x="172" y="43.0137"/><text fill="#000000" font-family="sans-serif" font-size="12" font-style="italic" lengthAdjust="spacing" textLength="43" x="217.5" y="60.9629">«entity»</text><text fill="#000000" font-family="sans-serif" font-size="12" font-style="italic" lengthAdjust="spacing" textLength="35" x="221.5" y="76.9238">«root»</text><text fill="#000000" font-family="sans-serif" font-size="14" lengthAdjust="spacing" textLength="128" x="175" y="95.043">MeetingParticipation</text></g><!--class MeetingParticipationState--><g id="elem_MeetingParticipationState"><rect codeLine="22" fill="#F1F1F1" height="44.582" id="MeetingParticipationState" rx="2.5" ry="2.5" style="stroke:#181818;stroke-width:0.5;" width="167" x="22.5" y="172.0137"/><text fill="#000000" font-family="sans-serif" font-size="12" font-style="italic" lengthAdjust="spacing" textLength="27" x="92.5" y="189.9629">«vo»</text><text fill="#000000" font-family="sans-serif" font-size="14" lengthAdjust="spacing" textLength="161" x="25.5" y="208.082">MeetingParticipationState</text></g><!--class SystemUser--><g id="elem_SystemUser"><rect fill="#F1F1F1" height="28.6211" id="SystemUser" rx="2.5" ry="2.5" style="stroke:#181818;stroke-width:0.5;" width="81" x="224.5" y="180.0137"/><text fill="#000000" font-family="sans-serif" font-size="14" lengthAdjust="spacing" textLength="75" x="227.5" y="200.1211">SystemUser</text></g><!--link Meeting to MeetingDuration--><g id="link_Meeting_MeetingDuration"><path codeLine="14" d="M541.94,217.3437 C515.63,237.8037 476.33,268.3737 448.85,289.7437 " fill="none" id="Meeting-to-MeetingDuration" style="stroke:#181818;stroke-width:1.0;"/><polygon fill="#181818" points="444.88,292.8237,454.4381,290.4484,448.8245,289.751,449.5219,284.1373,444.88,292.8237" style="stroke:#181818;stroke-width:1.0;"/><text fill="#000000" font-family="sans-serif" font-size="13" lengthAdjust="spacing" textLength="7" x="444.4321" y="281.5649">1</text></g><!--link Meeting to MeetingDateNTime--><g id="link_Meeting_MeetingDateNTime"><path codeLine="15" d="M570,225.2337 C570,244.3637 570,269.0237 570,287.5837 " fill="none" id="Meeting-to-MeetingDateNTime" style="stroke:#181818;stroke-width:1.0;"/><polygon fill="#181818" points="570,292.6437,574,283.6437,570,287.6437,566,283.6437,570,292.6437" style="stroke:#181818;stroke-width:1.0;"/><text fill="#000000" font-family="sans-serif" font-size="13" lengthAdjust="spacing" textLength="7" x="562.1031" y="281.7243">1</text></g><!--link Meeting to MeetingName--><g id="link_Meeting_MeetingName"><path codeLine="16" d="M598.11,218.7437 C622.81,239.1537 658.67,268.7937 683.94,289.6737 " fill="none" id="Meeting-to-MeetingName" style="stroke:#181818;stroke-width:1.0;"/><polygon fill="#181818" points="687.9,292.9437,683.508,284.1283,684.0449,289.7596,678.4136,290.2965,687.9,292.9437" style="stroke:#181818;stroke-width:1.0;"/><text fill="#000000" font-family="sans-serif" font-size="13" lengthAdjust="spacing" textLength="7" x="672.945" y="281.7172">1</text></g><!--link Meeting to MeetingState--><g id="link_Meeting_MeetingState"><path codeLine="17" d="M598.07,207.1937 C638.17,223.9737 714.08,256.0637 778,285.0137 C782.15,286.8937 786.44,288.8637 790.73,290.8637 " fill="none" id="Meeting-to-MeetingState" style="stroke:#181818;stroke-width:1.0;"/><polygon fill="#181818" points="795.39,293.0437,788.9272,285.6119,790.8594,290.9285,785.5428,292.8607,795.39,293.0437" style="stroke:#181818;stroke-width:1.0;"/><text fill="#000000" font-family="sans-serif" font-size="13" lengthAdjust="spacing" textLength="7" x="780.4218" y="285.0045">1</text></g><!--link MeetingParticipation to SystemUser--><g id="link_MeetingParticipation_SystemUser"><path codeLine="24" d="M245.49,104.2337 C250.33,126.3837 256.79,155.9537 260.93,174.8737 " fill="none" id="MeetingParticipation-to-SystemUser" style="stroke:#181818;stroke-width:1.0;"/><polygon fill="#181818" points="262.03,179.9037,264.0093,170.2557,260.959,175.0197,256.195,171.9694,262.03,179.9037" style="stroke:#181818;stroke-width:1.0;"/><text fill="#000000" font-family="sans-serif" font-size="13" lengthAdjust="spacing" textLength="5" x="255.0813" y="168.8184">*</text></g><!--link MeetingParticipation to Meeting--><g id="link_MeetingParticipation_Meeting"><path codeLine="25" d="M306.38,98.7337 C376.33,123.8837 482.88,162.1937 536.58,181.5037 " fill="none" id="MeetingParticipation-to-Meeting" style="stroke:#181818;stroke-width:1.0;"/><polygon fill="#181818" points="541.61,183.3037,534.5005,176.4878,536.9065,181.6076,531.7868,184.0135,541.61,183.3037" style="stroke:#181818;stroke-width:1.0;"/><text fill="#000000" font-family="sans-serif" font-size="13" lengthAdjust="spacing" textLength="5" x="529.0806" y="175.6188">*</text></g><!--link MeetingParticipation to MeetingParticipationState--><g id="link_MeetingParticipation_MeetingParticipationState"><path codeLine="26" d="M205.78,104.2337 C183.76,123.9337 155.18,149.5037 134.26,168.2337 " fill="none" id="MeetingParticipation-to-MeetingParticipationState" style="stroke:#181818;stroke-width:1.0;"/><polygon fill="#181818" points="130.44,171.6437,139.8113,168.614,134.1628,168.3059,134.4709,162.6575,130.44,171.6437" style="stroke:#181818;stroke-width:1.0;"/><text fill="#000000" font-family="sans-serif" font-size="13" lengthAdjust="spacing" textLength="7" x="128.8059" y="160.7243">1</text></g><!--SRC=[ZP11QiCm44NtEeNGfb1mJRT5QDLjGo3j0QRor1bgMK8Q5qp8tUl83gsJsgbMalwRuV7lzimXFPLbQA3bpZKFrhlIDf1IKH7K4PmGUwfGMegsmJG-FWYRQhgZ2znBX-uTOn8YWFs46gNIUXYNBuXCRMsCEWWvdBpw_AirjapS6wDrz9wDEHolgUSk0fDljVxo2mGmRbx9uJAoWRLqnyE6CJuvTIvZcPi8MHH6gaTrARNAdBNMe9FOMfxLn76fs2r49aiXo_pTyWpvN-MpaL_bN9GomqRnUoLtVM9qRmdZRNOARu0_RLoB3TLy0m00]--></g></svg>