<?xml version="1.0" encoding="us-ascii" standalone="no"?><svg xmlns="http://www.w3.org/2000/svg" xmlns:xlink="http://www.w3.org/1999/xlink" contentStyleType="text/css" height="579px" preserveAspectRatio="none" style="width:1643px;height:579px;background:#FFFFFF;" version="1.1" viewBox="0 0 1643 579" width="1643px" zoomAndPan="magnify"><defs/><g><rect fill="#FFFFFF" height="373.3281" style="stroke:#181818;stroke-width:1.0;" width="10" x="19" y="93.5938"/><rect fill="#FFFFFF" height="121.3984" style="stroke:#181818;stroke-width:1.0;" width="10" x="349" y="114.7266"/><rect fill="#FFFFFF" height="201.6641" style="stroke:#181818;stroke-width:1.0;" width="10" x="349" y="265.2578"/><rect fill="#FFFFFF" height="60.1328" style="stroke:#181818;stroke-width:1.0;" width="10" x="762" y="146.8594"/><rect fill="#FFFFFF" height="143.3984" style="stroke:#181818;stroke-width:1.0;" width="10" x="985.5" y="294.3906"/><rect fill="#FFFFFF" height="14" style="stroke:#181818;stroke-width:1.0;" width="10" x="1273" y="178.9922"/><rect fill="#FFFFFF" height="14" style="stroke:#181818;stroke-width:1.0;" width="10" x="1466.5" y="323.5234"/><rect fill="#FFFFFF" height="14" style="stroke:#181818;stroke-width:1.0;" width="10" x="1466.5" y="409.7891"/><rect fill="#FFFFFF" height="14" style="stroke:#181818;stroke-width:1.0;" width="10" x="1589" y="366.6563"/><line style="stroke:#181818;stroke-width:0.5;stroke-dasharray:5.0,5.0;" x1="24" x2="24" y1="83.5938" y2="484.9219"/><line style="stroke:#181818;stroke-width:0.5;stroke-dasharray:5.0,5.0;" x1="354" x2="354" y1="83.5938" y2="484.9219"/><line style="stroke:#181818;stroke-width:0.5;stroke-dasharray:5.0,5.0;" x1="767" x2="767" y1="83.5938" y2="484.9219"/><line style="stroke:#181818;stroke-width:0.5;stroke-dasharray:5.0,5.0;" x1="990" x2="990" y1="83.5938" y2="484.9219"/><line style="stroke:#181818;stroke-width:0.5;stroke-dasharray:5.0,5.0;" x1="1278" x2="1278" y1="83.5938" y2="484.9219"/><line style="stroke:#181818;stroke-width:0.5;stroke-dasharray:5.0,5.0;" x1="1471" x2="1471" y1="83.5938" y2="484.9219"/><line style="stroke:#181818;stroke-width:0.5;stroke-dasharray:5.0,5.0;" x1="1594" x2="1594" y1="83.5938" y2="484.9219"/><text fill="#000000" font-family="sans-serif" font-size="14" lengthAdjust="spacing" textLength="32" x="5" y="80.292">User</text><ellipse cx="24" cy="15.7969" fill="#E2E2F0" rx="8" ry="8" style="stroke:#181818;stroke-width:0.5;"/><path d="M24,23.7969 L24,50.7969 M11,31.7969 L37,31.7969 M24,50.7969 L11,65.7969 M24,50.7969 L37,65.7969 " fill="none" style="stroke:#181818;stroke-width:0.5;"/><text fill="#000000" font-family="sans-serif" font-size="14" lengthAdjust="spacing" textLength="32" x="5" y="496.917">User</text><ellipse cx="24" cy="508.7188" fill="#E2E2F0" rx="8" ry="8" style="stroke:#181818;stroke-width:0.5;"/><path d="M24,516.7188 L24,543.7188 M11,524.7188 L37,524.7188 M24,543.7188 L11,558.7188 M24,543.7188 L37,558.7188 " fill="none" style="stroke:#181818;stroke-width:0.5;"/><rect fill="#E2E2F0" height="46.5938" rx="2.5" ry="2.5" style="stroke:#181818;stroke-width:0.5;" width="134" x="287" y="36"/><text fill="#000000" font-family="sans-serif" font-size="14" font-style="italic" lengthAdjust="spacing" textLength="108" x="300" y="55.9951">&#171;presentation&#187;</text><text fill="#000000" font-family="sans-serif" font-size="14" lengthAdjust="spacing" textLength="120" x="294" y="72.292">CancelMeetingUI</text><rect fill="#E2E2F0" height="46.5938" rx="2.5" ry="2.5" style="stroke:#181818;stroke-width:0.5;" width="134" x="287" y="483.9219"/><text fill="#000000" font-family="sans-serif" font-size="14" font-style="italic" lengthAdjust="spacing" textLength="108" x="300" y="503.917">&#171;presentation&#187;</text><text fill="#000000" font-family="sans-serif" font-size="14" lengthAdjust="spacing" textLength="120" x="294" y="520.2139">CancelMeetingUI</text><rect fill="#E2E2F0" height="46.5938" rx="2.5" ry="2.5" style="stroke:#181818;stroke-width:0.5;" width="236" x="649" y="36"/><text fill="#000000" font-family="sans-serif" font-size="14" font-style="italic" lengthAdjust="spacing" textLength="97" x="718.5" y="55.9951">&#171;application&#187;</text><text fill="#000000" font-family="sans-serif" font-size="14" lengthAdjust="spacing" textLength="222" x="656" y="72.292">ListOwnedUserMeetingsService</text><rect fill="#E2E2F0" height="46.5938" rx="2.5" ry="2.5" style="stroke:#181818;stroke-width:0.5;" width="236" x="649" y="483.9219"/><text fill="#000000" font-family="sans-serif" font-size="14" font-style="italic" lengthAdjust="spacing" textLength="97" x="718.5" y="503.917">&#171;application&#187;</text><text fill="#000000" font-family="sans-serif" font-size="14" lengthAdjust="spacing" textLength="222" x="656" y="520.2139">ListOwnedUserMeetingsService</text><rect fill="#E2E2F0" height="46.5938" rx="2.5" ry="2.5" style="stroke:#181818;stroke-width:0.5;" width="191" x="895" y="36"/><text fill="#000000" font-family="sans-serif" font-size="14" font-style="italic" lengthAdjust="spacing" textLength="97" x="942" y="55.9951">&#171;application&#187;</text><text fill="#000000" font-family="sans-serif" font-size="14" lengthAdjust="spacing" textLength="177" x="902" y="72.292">CancelMeetingController</text><rect fill="#E2E2F0" height="46.5938" rx="2.5" ry="2.5" style="stroke:#181818;stroke-width:0.5;" width="191" x="895" y="483.9219"/><text fill="#000000" font-family="sans-serif" font-size="14" font-style="italic" lengthAdjust="spacing" textLength="97" x="942" y="503.917">&#171;application&#187;</text><text fill="#000000" font-family="sans-serif" font-size="14" lengthAdjust="spacing" textLength="177" x="902" y="520.2139">CancelMeetingController</text><text fill="#000000" font-family="sans-serif" font-size="14" font-style="italic" lengthAdjust="spacing" textLength="100" x="1225" y="63.9951">&#171;persistence&#187;</text><text fill="#000000" font-family="sans-serif" font-size="14" lengthAdjust="spacing" textLength="222" x="1164" y="80.292">MeetingParticipationRepository</text><path d="M1260,15 C1260,5 1278,5 1278,5 C1278,5 1296,5 1296,15 L1296,41 C1296,51 1278,51 1278,51 C1278,51 1260,51 1260,41 L1260,15 " fill="#E2E2F0" style="stroke:#181818;stroke-width:1.5;"/><path d="M1260,15 C1260,25 1278,25 1278,25 C1278,25 1296,25 1296,15 " fill="none" style="stroke:#181818;stroke-width:1.5;"/><text fill="#000000" font-family="sans-serif" font-size="14" font-style="italic" lengthAdjust="spacing" textLength="100" x="1225" y="496.917">&#171;persistence&#187;</text><text fill="#000000" font-family="sans-serif" font-size="14" lengthAdjust="spacing" textLength="222" x="1164" y="513.2139">MeetingParticipationRepository</text><path d="M1260,526.5156 C1260,516.5156 1278,516.5156 1278,516.5156 C1278,516.5156 1296,516.5156 1296,526.5156 L1296,552.5156 C1296,562.5156 1278,562.5156 1278,562.5156 C1278,562.5156 1260,562.5156 1260,552.5156 L1260,526.5156 " fill="#E2E2F0" style="stroke:#181818;stroke-width:1.5;"/><path d="M1260,526.5156 C1260,536.5156 1278,536.5156 1278,536.5156 C1278,536.5156 1296,536.5156 1296,526.5156 " fill="none" style="stroke:#181818;stroke-width:1.5;"/><text fill="#000000" font-family="sans-serif" font-size="14" font-style="italic" lengthAdjust="spacing" textLength="100" x="1418.5" y="63.9951">&#171;persistence&#187;</text><text fill="#000000" font-family="sans-serif" font-size="14" lengthAdjust="spacing" textLength="133" x="1402" y="80.292">MeetingRepository</text><path d="M1453.5,15 C1453.5,5 1471.5,5 1471.5,5 C1471.5,5 1489.5,5 1489.5,15 L1489.5,41 C1489.5,51 1471.5,51 1471.5,51 C1471.5,51 1453.5,51 1453.5,41 L1453.5,15 " fill="#E2E2F0" style="stroke:#181818;stroke-width:1.5;"/><path d="M1453.5,15 C1453.5,25 1471.5,25 1471.5,25 C1471.5,25 1489.5,25 1489.5,15 " fill="none" style="stroke:#181818;stroke-width:1.5;"/><text fill="#000000" font-family="sans-serif" font-size="14" font-style="italic" lengthAdjust="spacing" textLength="100" x="1418.5" y="496.917">&#171;persistence&#187;</text><text fill="#000000" font-family="sans-serif" font-size="14" lengthAdjust="spacing" textLength="133" x="1402" y="513.2139">MeetingRepository</text><path d="M1453.5,526.5156 C1453.5,516.5156 1471.5,516.5156 1471.5,516.5156 C1471.5,516.5156 1489.5,516.5156 1489.5,526.5156 L1489.5,552.5156 C1489.5,562.5156 1471.5,562.5156 1471.5,562.5156 C1471.5,562.5156 1453.5,562.5156 1453.5,552.5156 L1453.5,526.5156 " fill="#E2E2F0" style="stroke:#181818;stroke-width:1.5;"/><path d="M1453.5,526.5156 C1453.5,536.5156 1471.5,536.5156 1471.5,536.5156 C1471.5,536.5156 1489.5,536.5156 1489.5,526.5156 " fill="none" style="stroke:#181818;stroke-width:1.5;"/><rect fill="#E2E2F0" height="46.5938" rx="2.5" ry="2.5" style="stroke:#181818;stroke-width:0.5;" width="86" x="1551" y="36"/><text fill="#000000" font-family="sans-serif" font-size="14" font-style="italic" lengthAdjust="spacing" textLength="72" x="1558" y="55.9951">&#171;domain&#187;</text><text fill="#000000" font-family="sans-serif" font-size="14" lengthAdjust="spacing" textLength="57" x="1565.5" y="72.292">Meeting</text><rect fill="#E2E2F0" height="46.5938" rx="2.5" ry="2.5" style="stroke:#181818;stroke-width:0.5;" width="86" x="1551" y="483.9219"/><text fill="#000000" font-family="sans-serif" font-size="14" font-style="italic" lengthAdjust="spacing" textLength="72" x="1558" y="503.917">&#171;domain&#187;</text><text fill="#000000" font-family="sans-serif" font-size="14" lengthAdjust="spacing" textLength="57" x="1565.5" y="520.2139">Meeting</text><rect fill="#FFFFFF" height="373.3281" style="stroke:#181818;stroke-width:1.0;" width="10" x="19" y="93.5938"/><rect fill="#FFFFFF" height="121.3984" style="stroke:#181818;stroke-width:1.0;" width="10" x="349" y="114.7266"/><rect fill="#FFFFFF" height="201.6641" style="stroke:#181818;stroke-width:1.0;" width="10" x="349" y="265.2578"/><rect fill="#FFFFFF" height="60.1328" style="stroke:#181818;stroke-width:1.0;" width="10" x="762" y="146.8594"/><rect fill="#FFFFFF" height="143.3984" style="stroke:#181818;stroke-width:1.0;" width="10" x="985.5" y="294.3906"/><rect fill="#FFFFFF" height="14" style="stroke:#181818;stroke-width:1.0;" width="10" x="1273" y="178.9922"/><rect fill="#FFFFFF" height="14" style="stroke:#181818;stroke-width:1.0;" width="10" x="1466.5" y="323.5234"/><rect fill="#FFFFFF" height="14" style="stroke:#181818;stroke-width:1.0;" width="10" x="1466.5" y="409.7891"/><rect fill="#FFFFFF" height="14" style="stroke:#181818;stroke-width:1.0;" width="10" x="1589" y="366.6563"/><polygon fill="#181818" points="337,110.7266,347,114.7266,337,118.7266,341,114.7266" style="stroke:#181818;stroke-width:1.0;"/><line style="stroke:#181818;stroke-width:1.0;" x1="29" x2="343" y1="114.7266" y2="114.7266"/><text fill="#000000" font-family="sans-serif" font-size="13" lengthAdjust="spacing" textLength="163" x="36" y="109.6606">asks to cancel a meeting</text><polygon fill="#181818" points="750,142.8594,760,146.8594,750,150.8594,754,146.8594" style="stroke:#181818;stroke-width:1.0;"/><line style="stroke:#181818;stroke-width:1.0;" x1="359" x2="756" y1="146.8594" y2="146.8594"/><text fill="#000000" font-family="sans-serif" font-size="13" lengthAdjust="spacing" textLength="384" x="366" y="141.7935">List&lt;MeetingDTO&gt; ownedMeetings = listOwnedMeetings()</text><path d="M777,127.7266 L777,152.7266 L1034,152.7266 L1034,137.7266 L1024,127.7266 L777,127.7266 " fill="#FEFFDD" style="stroke:#181818;stroke-width:0.5;"/><path d="M1024,127.7266 L1024,137.7266 L1034,137.7266 L1024,127.7266 " fill="#FEFFDD" style="stroke:#181818;stroke-width:0.5;"/><text fill="#000000" font-family="sans-serif" font-size="13" lengthAdjust="spacing" textLength="236" x="783" y="144.7935">the user is obtained through session</text><polygon fill="#181818" points="1261,174.9922,1271,178.9922,1261,182.9922,1265,178.9922" style="stroke:#181818;stroke-width:1.0;"/><line style="stroke:#181818;stroke-width:1.0;" x1="772" x2="1267" y1="178.9922" y2="178.9922"/><text fill="#000000" font-family="sans-serif" font-size="13" lengthAdjust="spacing" textLength="482" x="779" y="173.9263">List&lt;Meeting&gt; meetings = listOwnedMeetingsByUser(authenticatedUser)</text><polygon fill="#181818" points="783,188.9922,773,192.9922,783,196.9922,779,192.9922" style="stroke:#181818;stroke-width:1.0;"/><line style="stroke:#181818;stroke-width:1.0;stroke-dasharray:2.0,2.0;" x1="777" x2="1277" y1="192.9922" y2="192.9922"/><polygon fill="#181818" points="370,202.9922,360,206.9922,370,210.9922,366,206.9922" style="stroke:#181818;stroke-width:1.0;"/><line style="stroke:#181818;stroke-width:1.0;stroke-dasharray:2.0,2.0;" x1="364" x2="766" y1="206.9922" y2="206.9922"/><polygon fill="#181818" points="40,232.125,30,236.125,40,240.125,36,236.125" style="stroke:#181818;stroke-width:1.0;"/><line style="stroke:#181818;stroke-width:1.0;stroke-dasharray:2.0,2.0;" x1="34" x2="353" y1="236.125" y2="236.125"/><text fill="#000000" font-family="sans-serif" font-size="13" lengthAdjust="spacing" textLength="296" x="46" y="231.0591">shows owned meeting and asks to select one</text><polygon fill="#181818" points="337,261.2578,347,265.2578,337,269.2578,341,265.2578" style="stroke:#181818;stroke-width:1.0;"/><line style="stroke:#181818;stroke-width:1.0;" x1="29" x2="343" y1="265.2578" y2="265.2578"/><text fill="#000000" font-family="sans-serif" font-size="13" lengthAdjust="spacing" textLength="132" x="36" y="260.1919">selects one meeting</text><polygon fill="#181818" points="973.5,290.3906,983.5,294.3906,973.5,298.3906,977.5,294.3906" style="stroke:#181818;stroke-width:1.0;"/><line style="stroke:#181818;stroke-width:1.0;" x1="359" x2="979.5" y1="294.3906" y2="294.3906"/><text fill="#000000" font-family="sans-serif" font-size="13" lengthAdjust="spacing" textLength="329" x="366" y="289.3247">MeetingDTO meeting = cancelMeeting(meetingID)</text><polygon fill="#181818" points="1454.5,319.5234,1464.5,323.5234,1454.5,327.5234,1458.5,323.5234" style="stroke:#181818;stroke-width:1.0;"/><line style="stroke:#181818;stroke-width:1.0;" x1="995.5" x2="1460.5" y1="323.5234" y2="323.5234"/><text fill="#000000" font-family="sans-serif" font-size="13" lengthAdjust="spacing" textLength="291" x="1002.5" y="318.4575">Meeting theMeeting = identityOf(meetingID)</text><polygon fill="#181818" points="1006.5,333.5234,996.5,337.5234,1006.5,341.5234,1002.5,337.5234" style="stroke:#181818;stroke-width:1.0;"/><line style="stroke:#181818;stroke-width:1.0;stroke-dasharray:2.0,2.0;" x1="1000.5" x2="1470.5" y1="337.5234" y2="337.5234"/><polygon fill="#181818" points="1577,362.6563,1587,366.6563,1577,370.6563,1581,366.6563" style="stroke:#181818;stroke-width:1.0;"/><line style="stroke:#181818;stroke-width:1.0;" x1="995.5" x2="1583" y1="366.6563" y2="366.6563"/><text fill="#000000" font-family="sans-serif" font-size="13" lengthAdjust="spacing" textLength="393" x="1002.5" y="361.5903">cancelMeeting() (verifies if the meeting is already canceled)</text><polygon fill="#181818" points="1006.5,376.6563,996.5,380.6563,1006.5,384.6563,1002.5,380.6563" style="stroke:#181818;stroke-width:1.0;"/><line style="stroke:#181818;stroke-width:1.0;stroke-dasharray:2.0,2.0;" x1="1000.5" x2="1593" y1="380.6563" y2="380.6563"/><polygon fill="#181818" points="1454.5,405.7891,1464.5,409.7891,1454.5,413.7891,1458.5,409.7891" style="stroke:#181818;stroke-width:1.0;"/><line style="stroke:#181818;stroke-width:1.0;" x1="995.5" x2="1460.5" y1="409.7891" y2="409.7891"/><text fill="#000000" font-family="sans-serif" font-size="13" lengthAdjust="spacing" textLength="114" x="1002.5" y="404.7231">save(theMeeting)</text><polygon fill="#181818" points="1006.5,419.7891,996.5,423.7891,1006.5,427.7891,1002.5,423.7891" style="stroke:#181818;stroke-width:1.0;"/><line style="stroke:#181818;stroke-width:1.0;stroke-dasharray:2.0,2.0;" x1="1000.5" x2="1470.5" y1="423.7891" y2="423.7891"/><polygon fill="#181818" points="370,433.7891,360,437.7891,370,441.7891,366,437.7891" style="stroke:#181818;stroke-width:1.0;"/><line style="stroke:#181818;stroke-width:1.0;stroke-dasharray:2.0,2.0;" x1="364" x2="989.5" y1="437.7891" y2="437.7891"/><polygon fill="#181818" points="35,462.9219,25,466.9219,35,470.9219,31,466.9219" style="stroke:#181818;stroke-width:1.0;"/><line style="stroke:#181818;stroke-width:1.0;stroke-dasharray:2.0,2.0;" x1="29" x2="353" y1="466.9219" y2="466.9219"/><text fill="#000000" font-family="sans-serif" font-size="13" lengthAdjust="spacing" textLength="229" x="41" y="461.856">shows the success of the operation</text><!--SRC=[fLInRjim4Dtv5RTL6LplWkEXoHAWWOkscGk6Ebj4ALBWqGxyz-LHf4pRQfSkjao-z-xTkvC_zI6CrAxNev4s70VpMRbXhOmaMdLQ7hmSX90gE0zlX1uamJ5-Yr7we9KU8mcUf5LeNX63jeUtbuJHiDcC7Wbja44xkzrUKRvg2hiFYnsBPYRzG7_I2fbF9nK5v3WQhPRuLoMVd0tU6JFPKy6REsudWtoNX90ftueMtt_7qP6EBPwPFup-buydt01wYaOnrbhGkA7zXLMxpiG4pu-RJUS6gTaZnwnFCk2KC7_0QijHjf7nco0uKAbla8LVSRI8o8ZdwDeKy2RNU_wvsuBZj4lIy0YcJA2SDGyNiQWXh8iFNX_w848_UG9DuDv3j8iTXDwxuw47Gg8Oea3R0NC46uW-vXolpMoBzKKJNywy48qynf8syFoc5Qcy5Lqn5rXDNOiExq79J4gnlcOqfyKNt5SBrBiFcaAQPoDZHoLuGeCgWBDOwt3ezPWc537i7nDA6zh2PJfpnSSyu7pLvFENvwf_PeiamI7F6PVTYi6zpcgwunJ3URTVb1fAabMGIRvECcFcYbcylR7w0Cq9lTvh9D1xjZ53uzP8ur5svyp1hZQHSoheHHCPSzysoHCsbvx_gxcxDKdmfJtXxkYeL5nzS5EpBhxswT_aPZ_gN_nQ_m40]--></g></svg>