<?xml version="1.0" encoding="UTF-8" standalone="no"?><svg xmlns="http://www.w3.org/2000/svg" xmlns:xlink="http://www.w3.org/1999/xlink" contentStyleType="text/css" height="710px" preserveAspectRatio="none" style="width:1884px;height:710px;background:#FFFFFF;" version="1.1" viewBox="0 0 1884 710" width="1884px" zoomAndPan="magnify"><defs/><g><rect fill="#FFFFFF" height="471.3652" style="stroke:#181818;stroke-width:1.0;" width="10" x="32.5" y="121.5332"/><rect fill="none" height="81.873" style="stroke:#000000;stroke-width:1.5;" width="387" x="10" y="261.6973"/><line style="stroke:#181818;stroke-width:0.5;stroke-dasharray:5.0,5.0;" x1="37" x2="37" y1="88.2422" y2="610.8984"/><line style="stroke:#181818;stroke-width:0.5;stroke-dasharray:5.0,5.0;" x1="319" x2="319" y1="88.2422" y2="610.8984"/><line style="stroke:#181818;stroke-width:0.5;stroke-dasharray:5.0,5.0;" x1="589" x2="589" y1="88.2422" y2="610.8984"/><line style="stroke:#181818;stroke-width:0.5;stroke-dasharray:5.0,5.0;" x1="870" x2="870" y1="88.2422" y2="610.8984"/><line style="stroke:#181818;stroke-width:0.5;stroke-dasharray:5.0,5.0;" x1="1058" x2="1058" y1="88.2422" y2="610.8984"/><line style="stroke:#181818;stroke-width:0.5;stroke-dasharray:5.0,5.0;" x1="1268" x2="1268" y1="88.2422" y2="610.8984"/><line style="stroke:#181818;stroke-width:0.5;stroke-dasharray:5.0,5.0;" x1="1443.5" x2="1443.5" y1="88.2422" y2="610.8984"/><line style="stroke:#181818;stroke-width:0.5;stroke-dasharray:5.0,5.0;" x1="1583.5" x2="1583.5" y1="88.2422" y2="610.8984"/><line style="stroke:#181818;stroke-width:0.5;stroke-dasharray:5.0,5.0;" x1="1730.5" x2="1730.5" y1="88.2422" y2="610.8984"/><line style="stroke:#181818;stroke-width:0.5;stroke-dasharray:5.0,5.0;" x1="1840.5" x2="1840.5" y1="88.2422" y2="610.8984"/><text fill="#000000" font-family="sans-serif" font-size="14" lengthAdjust="spacing" textLength="29" x="20" y="84.7285">User</text><ellipse cx="37.5" cy="18.1211" fill="#E2E2F0" rx="8" ry="8" style="stroke:#181818;stroke-width:0.5;"/><path d="M37.5,26.1211 L37.5,53.1211 M24.5,34.1211 L50.5,34.1211 M37.5,53.1211 L24.5,68.1211 M37.5,53.1211 L50.5,68.1211 " fill="none" style="stroke:#181818;stroke-width:0.5;"/><text fill="#000000" font-family="sans-serif" font-size="14" lengthAdjust="spacing" textLength="29" x="20" y="625.0059">User</text><ellipse cx="37.5" cy="637.0195" fill="#E2E2F0" rx="8" ry="8" style="stroke:#181818;stroke-width:0.5;"/><path d="M37.5,645.0195 L37.5,672.0195 M24.5,653.0195 L50.5,653.0195 M37.5,672.0195 L24.5,687.0195 M37.5,672.0195 L50.5,687.0195 " fill="none" style="stroke:#181818;stroke-width:0.5;"/><rect fill="#E2E2F0" height="51.2422" rx="2.5" ry="2.5" style="stroke:#181818;stroke-width:0.5;" width="135" x="252" y="36"/><text fill="#000000" font-family="sans-serif" font-size="14" font-style="italic" lengthAdjust="spacing" textLength="95" x="272" y="58.1074">«presentation»</text><text fill="#000000" font-family="sans-serif" font-size="14" lengthAdjust="spacing" textLength="121" x="259" y="76.7285">ScheduleMeetingUI</text><rect fill="#E2E2F0" height="51.2422" rx="2.5" ry="2.5" style="stroke:#181818;stroke-width:0.5;" width="135" x="252" y="609.8984"/><text fill="#000000" font-family="sans-serif" font-size="14" font-style="italic" lengthAdjust="spacing" textLength="95" x="272" y="632.0059">«presentation»</text><text fill="#000000" font-family="sans-serif" font-size="14" lengthAdjust="spacing" textLength="121" x="259" y="650.627">ScheduleMeetingUI</text><rect fill="#E2E2F0" height="51.2422" rx="2.5" ry="2.5" style="stroke:#181818;stroke-width:0.5;" width="275" x="452" y="36"/><text fill="#000000" font-family="sans-serif" font-size="14" font-style="italic" lengthAdjust="spacing" textLength="84" x="547.5" y="58.1074">«application»</text><text fill="#000000" font-family="sans-serif" font-size="14" lengthAdjust="spacing" textLength="261" x="459" y="76.7285">ListStudentsAndTeachersUsersController</text><rect fill="#E2E2F0" height="51.2422" rx="2.5" ry="2.5" style="stroke:#181818;stroke-width:0.5;" width="275" x="452" y="609.8984"/><text fill="#000000" font-family="sans-serif" font-size="14" font-style="italic" lengthAdjust="spacing" textLength="84" x="547.5" y="632.0059">«application»</text><text fill="#000000" font-family="sans-serif" font-size="14" lengthAdjust="spacing" textLength="261" x="459" y="650.627">ListStudentsAndTeachersUsersController</text><rect fill="#E2E2F0" height="51.2422" rx="2.5" ry="2.5" style="stroke:#181818;stroke-width:0.5;" width="185" x="778" y="36"/><text fill="#000000" font-family="sans-serif" font-size="14" font-style="italic" lengthAdjust="spacing" textLength="84" x="828.5" y="58.1074">«application»</text><text fill="#000000" font-family="sans-serif" font-size="14" lengthAdjust="spacing" textLength="171" x="785" y="76.7285">ScheduleMeetingController</text><rect fill="#E2E2F0" height="51.2422" rx="2.5" ry="2.5" style="stroke:#181818;stroke-width:0.5;" width="185" x="778" y="609.8984"/><text fill="#000000" font-family="sans-serif" font-size="14" font-style="italic" lengthAdjust="spacing" textLength="84" x="828.5" y="632.0059">«application»</text><text fill="#000000" font-family="sans-serif" font-size="14" lengthAdjust="spacing" textLength="171" x="785" y="650.627">ScheduleMeetingController</text><rect fill="#E2E2F0" height="51.2422" rx="2.5" ry="2.5" style="stroke:#181818;stroke-width:0.5;" width="170" x="973" y="36"/><text fill="#000000" font-family="sans-serif" font-size="14" font-style="italic" lengthAdjust="spacing" textLength="84" x="1016" y="58.1074">«application»</text><text fill="#000000" font-family="sans-serif" font-size="14" lengthAdjust="spacing" textLength="156" x="980" y="76.7285">ScheduleMeetingService</text><rect fill="#E2E2F0" height="51.2422" rx="2.5" ry="2.5" style="stroke:#181818;stroke-width:0.5;" width="170" x="973" y="609.8984"/><text fill="#000000" font-family="sans-serif" font-size="14" font-style="italic" lengthAdjust="spacing" textLength="84" x="1016" y="632.0059">«application»</text><text fill="#000000" font-family="sans-serif" font-size="14" lengthAdjust="spacing" textLength="156" x="980" y="650.627">ScheduleMeetingService</text><rect fill="#E2E2F0" height="51.2422" rx="2.5" ry="2.5" style="stroke:#181818;stroke-width:0.5;" width="167" x="1185" y="36"/><text fill="#000000" font-family="sans-serif" font-size="14" font-style="italic" lengthAdjust="spacing" textLength="60" x="1238.5" y="58.1074">«service»</text><text fill="#000000" font-family="sans-serif" font-size="14" lengthAdjust="spacing" textLength="153" x="1192" y="76.7285">CheckAvailabilityService</text><rect fill="#E2E2F0" height="51.2422" rx="2.5" ry="2.5" style="stroke:#181818;stroke-width:0.5;" width="167" x="1185" y="609.8984"/><text fill="#000000" font-family="sans-serif" font-size="14" font-style="italic" lengthAdjust="spacing" textLength="60" x="1238.5" y="632.0059">«service»</text><text fill="#000000" font-family="sans-serif" font-size="14" lengthAdjust="spacing" textLength="153" x="1192" y="650.627">CheckAvailabilityService</text><rect fill="#E2E2F0" height="51.2422" rx="2.5" ry="2.5" style="stroke:#181818;stroke-width:0.5;" width="112" x="1387.5" y="36"/><text fill="#000000" font-family="sans-serif" font-size="14" font-style="italic" lengthAdjust="spacing" textLength="59" x="1414" y="58.1074">«factory»</text><text fill="#000000" font-family="sans-serif" font-size="14" lengthAdjust="spacing" textLength="98" x="1394.5" y="76.7285">MeetingFactory</text><rect fill="#E2E2F0" height="51.2422" rx="2.5" ry="2.5" style="stroke:#181818;stroke-width:0.5;" width="112" x="1387.5" y="609.8984"/><text fill="#000000" font-family="sans-serif" font-size="14" font-style="italic" lengthAdjust="spacing" textLength="59" x="1414" y="632.0059">«factory»</text><text fill="#000000" font-family="sans-serif" font-size="14" lengthAdjust="spacing" textLength="98" x="1394.5" y="650.627">MeetingFactory</text><text fill="#000000" font-family="sans-serif" font-size="14" font-style="italic" lengthAdjust="spacing" textLength="89" x="1536.5" y="66.1074">«persistence»</text><text fill="#000000" font-family="sans-serif" font-size="14" lengthAdjust="spacing" textLength="143" x="1509.5" y="84.7285">SystemUserRepository</text><path d="M1566,15 C1566,5 1584,5 1584,5 C1584,5 1602,5 1602,15 L1602,41 C1602,51 1584,51 1584,51 C1584,51 1566,51 1566,41 L1566,15 " fill="#E2E2F0" style="stroke:#181818;stroke-width:1.5;"/><path d="M1566,15 C1566,25 1584,25 1584,25 C1584,25 1602,25 1602,15 " fill="none" style="stroke:#181818;stroke-width:1.5;"/><text fill="#000000" font-family="sans-serif" font-size="14" font-style="italic" lengthAdjust="spacing" textLength="89" x="1536.5" y="625.0059">«persistence»</text><text fill="#000000" font-family="sans-serif" font-size="14" lengthAdjust="spacing" textLength="143" x="1509.5" y="643.627">SystemUserRepository</text><path d="M1566,657.1406 C1566,647.1406 1584,647.1406 1584,647.1406 C1584,647.1406 1602,647.1406 1602,657.1406 L1602,683.1406 C1602,693.1406 1584,693.1406 1584,693.1406 C1584,693.1406 1566,693.1406 1566,683.1406 L1566,657.1406 " fill="#E2E2F0" style="stroke:#181818;stroke-width:1.5;"/><path d="M1566,657.1406 C1566,667.1406 1584,667.1406 1584,667.1406 C1584,667.1406 1602,667.1406 1602,657.1406 " fill="none" style="stroke:#181818;stroke-width:1.5;"/><text fill="#000000" font-family="sans-serif" font-size="14" font-style="italic" lengthAdjust="spacing" textLength="89" x="1683" y="66.1074">«persistence»</text><text fill="#000000" font-family="sans-serif" font-size="14" lengthAdjust="spacing" textLength="118" x="1668.5" y="84.7285">MeetingRepository</text><path d="M1712.5,15 C1712.5,5 1730.5,5 1730.5,5 C1730.5,5 1748.5,5 1748.5,15 L1748.5,41 C1748.5,51 1730.5,51 1730.5,51 C1730.5,51 1712.5,51 1712.5,41 L1712.5,15 " fill="#E2E2F0" style="stroke:#181818;stroke-width:1.5;"/><path d="M1712.5,15 C1712.5,25 1730.5,25 1730.5,25 C1730.5,25 1748.5,25 1748.5,15 " fill="none" style="stroke:#181818;stroke-width:1.5;"/><text fill="#000000" font-family="sans-serif" font-size="14" font-style="italic" lengthAdjust="spacing" textLength="89" x="1683" y="625.0059">«persistence»</text><text fill="#000000" font-family="sans-serif" font-size="14" lengthAdjust="spacing" textLength="118" x="1668.5" y="643.627">MeetingRepository</text><path d="M1712.5,657.1406 C1712.5,647.1406 1730.5,647.1406 1730.5,647.1406 C1730.5,647.1406 1748.5,647.1406 1748.5,657.1406 L1748.5,683.1406 C1748.5,693.1406 1730.5,693.1406 1730.5,693.1406 C1730.5,693.1406 1712.5,693.1406 1712.5,683.1406 L1712.5,657.1406 " fill="#E2E2F0" style="stroke:#181818;stroke-width:1.5;"/><path d="M1712.5,657.1406 C1712.5,667.1406 1730.5,667.1406 1730.5,667.1406 C1730.5,667.1406 1748.5,667.1406 1748.5,657.1406 " fill="none" style="stroke:#181818;stroke-width:1.5;"/><rect fill="#E2E2F0" height="51.2422" rx="2.5" ry="2.5" style="stroke:#181818;stroke-width:0.5;" width="76" x="1802.5" y="36"/><text fill="#000000" font-family="sans-serif" font-size="14" font-style="italic" lengthAdjust="spacing" textLength="62" x="1809.5" y="58.1074">«domain»</text><text fill="#000000" font-family="sans-serif" font-size="14" lengthAdjust="spacing" textLength="50" x="1815.5" y="76.7285">Meeting</text><rect fill="#E2E2F0" height="51.2422" rx="2.5" ry="2.5" style="stroke:#181818;stroke-width:0.5;" width="76" x="1802.5" y="609.8984"/><text fill="#000000" font-family="sans-serif" font-size="14" font-style="italic" lengthAdjust="spacing" textLength="62" x="1809.5" y="632.0059">«domain»</text><text fill="#000000" font-family="sans-serif" font-size="14" lengthAdjust="spacing" textLength="50" x="1815.5" y="650.627">Meeting</text><rect fill="#FFFFFF" height="471.3652" style="stroke:#181818;stroke-width:1.0;" width="10" x="32.5" y="121.5332"/><polygon fill="#181818" points="307.5,117.5332,317.5,121.5332,307.5,125.5332,311.5,121.5332" style="stroke:#181818;stroke-width:1.0;"/><line style="stroke:#181818;stroke-width:1.0;" x1="42.5" x2="313.5" y1="121.5332" y2="121.5332"/><text fill="#000000" font-family="sans-serif" font-size="13" font-weight="bold" lengthAdjust="spacing" textLength="7" x="49.5" y="116.2705">1</text><text fill="#000000" font-family="sans-serif" font-size="13" lengthAdjust="spacing" textLength="160" x="60.5" y="116.2705">asks to schedule a meeting</text><polygon fill="#181818" points="53.5,148.8242,43.5,152.8242,53.5,156.8242,49.5,152.8242" style="stroke:#181818;stroke-width:1.0;"/><line style="stroke:#181818;stroke-width:1.0;stroke-dasharray:2.0,2.0;" x1="47.5" x2="318.5" y1="152.8242" y2="152.8242"/><text fill="#000000" font-family="sans-serif" font-size="13" font-weight="bold" lengthAdjust="spacing" textLength="7" x="59.5" y="147.5615">2</text><text fill="#000000" font-family="sans-serif" font-size="13" lengthAdjust="spacing" textLength="209" x="70.5" y="147.5615">asks for a meeting name, date, hour</text><polygon fill="#181818" points="307.5,180.1152,317.5,184.1152,307.5,188.1152,311.5,184.1152" style="stroke:#181818;stroke-width:1.0;"/><line style="stroke:#181818;stroke-width:1.0;" x1="42.5" x2="313.5" y1="184.1152" y2="184.1152"/><text fill="#000000" font-family="sans-serif" font-size="13" font-weight="bold" lengthAdjust="spacing" textLength="7" x="49.5" y="178.8525">3</text><text fill="#000000" font-family="sans-serif" font-size="13" lengthAdjust="spacing" textLength="81" x="60.5" y="178.8525">inputs all data</text><polygon fill="#181818" points="577.5,211.4063,587.5,215.4063,577.5,219.4063,581.5,215.4063" style="stroke:#181818;stroke-width:1.0;"/><line style="stroke:#181818;stroke-width:1.0;" x1="319.5" x2="583.5" y1="215.4063" y2="215.4063"/><text fill="#000000" font-family="sans-serif" font-size="13" font-weight="bold" lengthAdjust="spacing" textLength="7" x="326.5" y="210.1436">4</text><text fill="#000000" font-family="sans-serif" font-size="13" lengthAdjust="spacing" textLength="235" x="337.5" y="210.1436">users = listStudentsAndTeachersUsers()</text><polygon fill="#181818" points="1572,242.6973,1582,246.6973,1572,250.6973,1576,246.6973" style="stroke:#181818;stroke-width:1.0;"/><line style="stroke:#181818;stroke-width:1.0;" x1="589.5" x2="1578" y1="246.6973" y2="246.6973"/><text fill="#000000" font-family="sans-serif" font-size="13" font-weight="bold" lengthAdjust="spacing" textLength="7" x="596.5" y="241.4346">5</text><text fill="#000000" font-family="sans-serif" font-size="13" lengthAdjust="spacing" textLength="43" x="607.5" y="241.4346">findAll()</text><path d="M10,261.6973 L83,261.6973 L83,270.9883 L73,280.9883 L10,280.9883 L10,261.6973 " fill="#EEEEEE" style="stroke:#000000;stroke-width:1.5;"/><rect fill="none" height="81.873" style="stroke:#000000;stroke-width:1.5;" width="387" x="10" y="261.6973"/><text fill="#000000" font-family="sans-serif" font-size="13" font-weight="bold" lengthAdjust="spacing" textLength="28" x="25" y="276.7256">loop</text><text fill="#000000" font-family="sans-serif" font-size="11" font-weight="bold" lengthAdjust="spacing" textLength="134" x="98" y="275.5674">[until user press to exit]</text><polygon fill="#181818" points="53.5,300.2793,43.5,304.2793,53.5,308.2793,49.5,304.2793" style="stroke:#181818;stroke-width:1.0;"/><line style="stroke:#181818;stroke-width:1.0;stroke-dasharray:2.0,2.0;" x1="47.5" x2="318.5" y1="304.2793" y2="304.2793"/><text fill="#000000" font-family="sans-serif" font-size="13" font-weight="bold" lengthAdjust="spacing" textLength="7" x="59.5" y="299.0166">6</text><text fill="#000000" font-family="sans-serif" font-size="13" lengthAdjust="spacing" textLength="223" x="70.5" y="299.0166">presents all students/teachers to invite</text><polygon fill="#181818" points="307.5,331.5703,317.5,335.5703,307.5,339.5703,311.5,335.5703" style="stroke:#181818;stroke-width:1.0;"/><line style="stroke:#181818;stroke-width:1.0;stroke-dasharray:2.0,2.0;" x1="42.5" x2="313.5" y1="335.5703" y2="335.5703"/><text fill="#000000" font-family="sans-serif" font-size="13" font-weight="bold" lengthAdjust="spacing" textLength="7" x="49.5" y="330.3076">7</text><text fill="#000000" font-family="sans-serif" font-size="13" lengthAdjust="spacing" textLength="119" x="60.5" y="330.3076">selects user to invite</text><polygon fill="#181818" points="858.5,369.8613,868.5,373.8613,858.5,377.8613,862.5,373.8613" style="stroke:#181818;stroke-width:1.0;"/><line style="stroke:#181818;stroke-width:1.0;" x1="319.5" x2="864.5" y1="373.8613" y2="373.8613"/><text fill="#000000" font-family="sans-serif" font-size="13" font-weight="bold" lengthAdjust="spacing" textLength="7" x="326.5" y="368.5986">8</text><text fill="#000000" font-family="sans-serif" font-size="13" lengthAdjust="spacing" textLength="516" x="337.5" y="368.5986">availability = checkUsersAvailability(meetingDateNTime, meetingDuration, selectedUsers)</text><polygon fill="#181818" points="1256.5,401.1523,1266.5,405.1523,1256.5,409.1523,1260.5,405.1523" style="stroke:#181818;stroke-width:1.0;"/><line style="stroke:#181818;stroke-width:1.0;" x1="870.5" x2="1262.5" y1="405.1523" y2="405.1523"/><text fill="#000000" font-family="sans-serif" font-size="13" font-weight="bold" lengthAdjust="spacing" textLength="7" x="877.5" y="399.8896">9</text><text fill="#000000" font-family="sans-serif" font-size="13" lengthAdjust="spacing" textLength="363" x="888.5" y="399.8896">checkAvailability(meetingDateNTime, guests, meetingDuration)</text><polygon fill="#181818" points="53.5,432.4434,43.5,436.4434,53.5,440.4434,49.5,436.4434" style="stroke:#181818;stroke-width:1.0;"/><line style="stroke:#181818;stroke-width:1.0;stroke-dasharray:2.0,2.0;" x1="47.5" x2="318.5" y1="436.4434" y2="436.4434"/><text fill="#000000" font-family="sans-serif" font-size="13" font-weight="bold" lengthAdjust="spacing" textLength="14" x="59.5" y="431.1807">10</text><text fill="#000000" font-family="sans-serif" font-size="13" lengthAdjust="spacing" textLength="216" x="77.5" y="431.1807">shows every selected user availability</text><polygon fill="#181818" points="307.5,463.7344,317.5,467.7344,307.5,471.7344,311.5,467.7344" style="stroke:#181818;stroke-width:1.0;"/><line style="stroke:#181818;stroke-width:1.0;" x1="42.5" x2="313.5" y1="467.7344" y2="467.7344"/><text fill="#000000" font-family="sans-serif" font-size="13" font-weight="bold" lengthAdjust="spacing" textLength="14" x="49.5" y="462.4717">11</text><text fill="#000000" font-family="sans-serif" font-size="13" lengthAdjust="spacing" textLength="235" x="67.5" y="462.4717">proceeds to invite all/only available users</text><polygon fill="#181818" points="858.5,495.0254,868.5,499.0254,858.5,503.0254,862.5,499.0254" style="stroke:#181818;stroke-width:1.0;"/><line style="stroke:#181818;stroke-width:1.0;" x1="319.5" x2="864.5" y1="499.0254" y2="499.0254"/><text fill="#000000" font-family="sans-serif" font-size="13" font-weight="bold" lengthAdjust="spacing" textLength="14" x="326.5" y="493.7627">12</text><text fill="#000000" font-family="sans-serif" font-size="13" lengthAdjust="spacing" textLength="453" x="344.5" y="493.7627">scheduleMeeting(meetingName, meetingDateNTime, meetingDuration, guests)</text><polygon fill="#181818" points="1431.5,526.3164,1441.5,530.3164,1431.5,534.3164,1435.5,530.3164" style="stroke:#181818;stroke-width:1.0;"/><line style="stroke:#181818;stroke-width:1.0;" x1="870.5" x2="1437.5" y1="530.3164" y2="530.3164"/><text fill="#000000" font-family="sans-serif" font-size="13" font-weight="bold" lengthAdjust="spacing" textLength="14" x="877.5" y="525.0537">13</text><text fill="#000000" font-family="sans-serif" font-size="13" lengthAdjust="spacing" textLength="531" x="895.5" y="525.0537">MeetingFactory.createMeeting(meetingName, meetingDateNTime, meetingDuration, guests)</text><polygon fill="#181818" points="1828.5,557.6074,1838.5,561.6074,1828.5,565.6074,1832.5,561.6074" style="stroke:#181818;stroke-width:1.0;"/><line style="stroke:#181818;stroke-width:1.0;" x1="1443.5" x2="1834.5" y1="561.6074" y2="561.6074"/><text fill="#000000" font-family="sans-serif" font-size="13" font-weight="bold" lengthAdjust="spacing" textLength="14" x="1450.5" y="556.3447">14</text><text fill="#000000" font-family="sans-serif" font-size="13" lengthAdjust="spacing" textLength="4" x="1468.5" y="556.3447"> </text><polygon fill="#181818" points="48.5,588.8984,38.5,592.8984,48.5,596.8984,44.5,592.8984" style="stroke:#181818;stroke-width:1.0;"/><line style="stroke:#181818;stroke-width:1.0;stroke-dasharray:2.0,2.0;" x1="42.5" x2="318.5" y1="592.8984" y2="592.8984"/><text fill="#000000" font-family="sans-serif" font-size="13" font-weight="bold" lengthAdjust="spacing" textLength="14" x="54.5" y="587.6357">15</text><text fill="#000000" font-family="sans-serif" font-size="13" lengthAdjust="spacing" textLength="185" x="72.5" y="587.6357">tell the success of the operation</text><!--SRC=[fLD1Rjim4Bph5Rmr1kBuBgW6Z1G52hGvrCcveAcrHOGYLUvIhN_VfKWsacia27gnAN9dXZkS_T0H3LXlDeEHba9lxfJhDmW_0rW5wrRBavTzLSb0peR-09xNYfmNJmXUI1I1_wj1Uj9A3ymXzgg3DXZu1a3Qdfw-J5LQDCtW0S6I9EtiThi0VTL8Umej7-FEjeyWcSLZ5C5xPyaxOvAUKUGDaybXC5fTuxgum1B-NlGU_AWLH2Wg-F4c_Bu3zRmRfJRoe8scyun0nJCS6OzfymAR9JzF1fyZufYNJPDNZ6WboOD44Fip4lJHekymEDG5X6SCw7ahMix-iRNnCUVGhBJ4NOLSkL-ixVEoQLhNInrTg68In7eRtxhcccSKvDYqPAUG1HFpeqT9aAB3rUi8Yk0CEtAy_fOBAtku5Nnr_krSy4iTROT0AAGniKHETDiSadfYHV5Hc5VYTREgKZdZNgohnL7RTcTCF7Pk4C6IDkcQCSTJS_1RqqK3EUFfHfWbDvG58qZRKHFaBaeR20OKfMcQ5O5jHLJFRUMkv2nUtDmKgwcLUUvkid-VsBY7HnqzB3l1JyczpQhGJk1LLLmeEQtJwWtMKm0a_8TzTM4CTkuN2XY1mrPqqzcydUNZ3jufW7PcMxHruwmv5vH9CSAbGxWSudBh1pctuHLZKaylZfGvh2zcz4vvO9h_bIdqh5I6P6aU0QU9EX0Ob8hXSyVfq_6mJbnL2ykn-WC0]--></g></svg>