<?xml version="1.0" encoding="us-ascii" standalone="no"?><svg xmlns="http://www.w3.org/2000/svg" xmlns:xlink="http://www.w3.org/1999/xlink" contentStyleType="text/css" height="636px" preserveAspectRatio="none" style="width:2843px;height:636px;background:#FFFFFF;" version="1.1" viewBox="0 0 2843 636" width="2843px" zoomAndPan="magnify"><defs/><g><!--cluster <<agr Exam>>--><g id="cluster_&lt;&lt;agr Exam&gt;&gt;"><path d="M472.5,199.5137 L553.5,199.5137 A3.75,3.75 0 0 1 556,202.0137 L563,224.1348 L1487.5,224.1348 A2.5,2.5 0 0 1 1490,226.6348 L1490,626.5137 A2.5,2.5 0 0 1 1487.5,629.0137 L472.5,629.0137 A2.5,2.5 0 0 1 470,626.5137 L470,202.0137 A2.5,2.5 0 0 1 472.5,199.5137 " fill="none" style="stroke:#000000;stroke-width:1.5;"/><line style="stroke:#000000;stroke-width:1.5;" x1="470" x2="563" y1="224.1348" y2="224.1348"/><text fill="#000000" font-family="sans-serif" font-size="14" font-weight="bold" lengthAdjust="spacing" textLength="80" x="474" y="216.6211">&#171;agr Exam&#187;</text></g><!--cluster <<agr ExamSection>>--><g id="cluster_&lt;&lt;agr ExamSection&gt;&gt;"><path d="M2576.5,185.0137 L2710.5,185.0137 A3.75,3.75 0 0 1 2713,187.5137 L2720,209.6348 L2833.5,209.6348 A2.5,2.5 0 0 1 2836,212.1348 L2836,462.5137 A2.5,2.5 0 0 1 2833.5,465.0137 L2576.5,465.0137 A2.5,2.5 0 0 1 2574,462.5137 L2574,187.5137 A2.5,2.5 0 0 1 2576.5,185.0137 " fill="none" style="stroke:#000000;stroke-width:1.5;"/><line style="stroke:#000000;stroke-width:1.5;" x1="2574" x2="2720" y1="209.6348" y2="209.6348"/><text fill="#000000" font-family="sans-serif" font-size="14" font-weight="bold" lengthAdjust="spacing" textLength="133" x="2578" y="202.1211">&#171;agr ExamSection&#187;</text></g><!--cluster <<agr ExamQuestion>>--><g id="cluster_&lt;&lt;agr ExamQuestion&gt;&gt;"><path d="M1516.5,6.0137 L1661.5,6.0137 A3.75,3.75 0 0 1 1664,8.5137 L1671,30.6348 L2547.5,30.6348 A2.5,2.5 0 0 1 2550,33.1348 L2550,312.5137 A2.5,2.5 0 0 1 2547.5,315.0137 L1516.5,315.0137 A2.5,2.5 0 0 1 1514,312.5137 L1514,8.5137 A2.5,2.5 0 0 1 1516.5,6.0137 " fill="none" style="stroke:#000000;stroke-width:1.5;"/><line style="stroke:#000000;stroke-width:1.5;" x1="1514" x2="1671" y1="30.6348" y2="30.6348"/><text fill="#000000" font-family="sans-serif" font-size="14" font-weight="bold" lengthAdjust="spacing" textLength="144" x="1518" y="23.1211">&#171;agr ExamQuestion&#187;</text></g><!--cluster <<agr Course>>--><g id="cluster_&lt;&lt;agr Course&gt;&gt;"><path d="M8.5,6.0137 L103.5,6.0137 A3.75,3.75 0 0 1 106,8.5137 L113,30.6348 L443.5,30.6348 A2.5,2.5 0 0 1 446,33.1348 L446,312.5137 A2.5,2.5 0 0 1 443.5,315.0137 L8.5,315.0137 A2.5,2.5 0 0 1 6,312.5137 L6,8.5137 A2.5,2.5 0 0 1 8.5,6.0137 " fill="none" style="stroke:#000000;stroke-width:1.5;"/><line style="stroke:#000000;stroke-width:1.5;" x1="6" x2="113" y1="30.6348" y2="30.6348"/><text fill="#000000" font-family="sans-serif" font-size="14" font-weight="bold" lengthAdjust="spacing" textLength="94" x="10" y="23.1211">&#171;agr Course&#187;</text></g><!--class Exam--><g id="elem_Exam"><rect codeLine="3" fill="#F1F1F1" height="76.543" id="Exam" rx="2.5" ry="2.5" style="stroke:#181818;stroke-width:0.5;" width="71" x="940.5" y="380.0137"/><ellipse cx="955.5" cy="410.2852" fill="#ADD1B2" rx="11" ry="11" style="stroke:#181818;stroke-width:1.0;"/><path d="M958.2656,406.1602 Q958.4219,405.9414 958.6094,405.832 Q958.7969,405.7227 959.0156,405.7227 Q959.3906,405.7227 959.625,405.9883 Q959.8594,406.2383 959.8594,406.8477 L959.8594,408.3008 Q959.8594,408.9102 959.625,409.1758 Q959.3906,409.4414 959.0156,409.4414 Q958.6719,409.4414 958.4688,409.2383 Q958.2656,409.0508 958.1563,408.5352 Q958.1094,408.1758 957.9219,407.9883 Q957.5938,407.6133 956.9844,407.3945 Q956.375,407.1758 955.75,407.1758 Q954.9844,407.1758 954.3438,407.5039 Q953.7188,407.832 953.2188,408.582 Q952.7344,409.332 952.7344,410.3633 L952.7344,411.457 Q952.7344,412.6914 953.625,413.5195 Q954.5156,414.332 956.1094,414.332 Q957.0469,414.332 957.7031,414.082 Q958.0938,413.9258 958.5156,413.4883 Q958.7813,413.2227 958.9219,413.1445 Q959.0781,413.0664 959.2813,413.0664 Q959.6094,413.0664 959.8594,413.332 Q960.125,413.582 960.125,413.9258 Q960.125,414.2695 959.7813,414.6758 Q959.2813,415.2539 958.4844,415.582 Q957.4063,416.0352 956.1094,416.0352 Q954.5938,416.0352 953.3906,415.4102 Q952.4063,414.9102 951.7188,413.8477 Q951.0313,412.7695 951.0313,411.4883 L951.0313,410.332 Q951.0313,409.0039 951.6406,407.8633 Q952.2656,406.707 953.3594,406.0977 Q954.4531,405.4727 955.6875,405.4727 Q956.4219,405.4727 957.0625,405.6445 Q957.7188,405.8008 958.2656,406.1602 Z " fill="#000000"/><text fill="#000000" font-family="sans-serif" font-size="12" font-style="italic" lengthAdjust="spacing" textLength="43" x="967.5" y="397.9629">&#171;entity&#187;</text><text fill="#000000" font-family="sans-serif" font-size="12" font-style="italic" lengthAdjust="spacing" textLength="35" x="971.5" y="413.9238">&#171;root&#187;</text><text fill="#000000" font-family="sans-serif" font-size="14" lengthAdjust="spacing" textLength="34" x="972" y="432.043">Exam</text><line style="stroke:#181818;stroke-width:0.5;" x1="941.5" x2="1010.5" y1="440.5566" y2="440.5566"/><line style="stroke:#181818;stroke-width:0.5;" x1="941.5" x2="1010.5" y1="448.5566" y2="448.5566"/></g><!--class ExamType--><g id="elem_ExamType"><rect codeLine="4" fill="#F1F1F1" height="76.543" id="ExamType" rx="2.5" ry="2.5" style="stroke:#181818;stroke-width:0.5;" width="98" x="486" y="536.0137"/><ellipse cx="501" cy="566.2852" fill="#ADD1B2" rx="11" ry="11" style="stroke:#181818;stroke-width:1.0;"/><path d="M503.7656,562.1602 Q503.9219,561.9414 504.1094,561.832 Q504.2969,561.7227 504.5156,561.7227 Q504.8906,561.7227 505.125,561.9883 Q505.3594,562.2383 505.3594,562.8477 L505.3594,564.3008 Q505.3594,564.9102 505.125,565.1758 Q504.8906,565.4414 504.5156,565.4414 Q504.1719,565.4414 503.9688,565.2383 Q503.7656,565.0508 503.6563,564.5352 Q503.6094,564.1758 503.4219,563.9883 Q503.0938,563.6133 502.4844,563.3945 Q501.875,563.1758 501.25,563.1758 Q500.4844,563.1758 499.8438,563.5039 Q499.2188,563.832 498.7188,564.582 Q498.2344,565.332 498.2344,566.3633 L498.2344,567.457 Q498.2344,568.6914 499.125,569.5195 Q500.0156,570.332 501.6094,570.332 Q502.5469,570.332 503.2031,570.082 Q503.5938,569.9258 504.0156,569.4883 Q504.2813,569.2227 504.4219,569.1445 Q504.5781,569.0664 504.7813,569.0664 Q505.1094,569.0664 505.3594,569.332 Q505.625,569.582 505.625,569.9258 Q505.625,570.2695 505.2813,570.6758 Q504.7813,571.2539 503.9844,571.582 Q502.9063,572.0352 501.6094,572.0352 Q500.0938,572.0352 498.8906,571.4102 Q497.9063,570.9102 497.2188,569.8477 Q496.5313,568.7695 496.5313,567.4883 L496.5313,566.332 Q496.5313,565.0039 497.1406,563.8633 Q497.7656,562.707 498.8594,562.0977 Q499.9531,561.4727 501.1875,561.4727 Q501.9219,561.4727 502.5625,561.6445 Q503.2188,561.8008 503.7656,562.1602 Z " fill="#000000"/><text fill="#000000" font-family="sans-serif" font-size="12" font-style="italic" lengthAdjust="spacing" textLength="46" x="525" y="553.9629">&#171;enum&#187;</text><text fill="#000000" font-family="sans-serif" font-size="12" font-style="italic" lengthAdjust="spacing" textLength="27" x="534.5" y="569.9238">&#171;vo&#187;</text><text fill="#000000" font-family="sans-serif" font-size="14" lengthAdjust="spacing" textLength="66" x="515" y="588.043">ExamType</text><line style="stroke:#181818;stroke-width:0.5;" x1="487" x2="583" y1="596.5566" y2="596.5566"/><line style="stroke:#181818;stroke-width:0.5;" x1="487" x2="583" y1="604.5566" y2="604.5566"/></g><!--class ExamTitle--><g id="elem_ExamTitle"><rect codeLine="5" fill="#F1F1F1" height="60.582" id="ExamTitle" rx="2.5" ry="2.5" style="stroke:#181818;stroke-width:0.5;" width="93" x="619.5" y="544.0137"/><ellipse cx="634.5" cy="566.3047" fill="#ADD1B2" rx="11" ry="11" style="stroke:#181818;stroke-width:1.0;"/><path d="M637.2656,562.1797 Q637.4219,561.9609 637.6094,561.8516 Q637.7969,561.7422 638.0156,561.7422 Q638.3906,561.7422 638.625,562.0078 Q638.8594,562.2578 638.8594,562.8672 L638.8594,564.3203 Q638.8594,564.9297 638.625,565.1953 Q638.3906,565.4609 638.0156,565.4609 Q637.6719,565.4609 637.4688,565.2578 Q637.2656,565.0703 637.1563,564.5547 Q637.1094,564.1953 636.9219,564.0078 Q636.5938,563.6328 635.9844,563.4141 Q635.375,563.1953 634.75,563.1953 Q633.9844,563.1953 633.3438,563.5234 Q632.7188,563.8516 632.2188,564.6016 Q631.7344,565.3516 631.7344,566.3828 L631.7344,567.4766 Q631.7344,568.7109 632.625,569.5391 Q633.5156,570.3516 635.1094,570.3516 Q636.0469,570.3516 636.7031,570.1016 Q637.0938,569.9453 637.5156,569.5078 Q637.7813,569.2422 637.9219,569.1641 Q638.0781,569.0859 638.2813,569.0859 Q638.6094,569.0859 638.8594,569.3516 Q639.125,569.6016 639.125,569.9453 Q639.125,570.2891 638.7813,570.6953 Q638.2813,571.2734 637.4844,571.6016 Q636.4063,572.0547 635.1094,572.0547 Q633.5938,572.0547 632.3906,571.4297 Q631.4063,570.9297 630.7188,569.8672 Q630.0313,568.7891 630.0313,567.5078 L630.0313,566.3516 Q630.0313,565.0234 630.6406,563.8828 Q631.2656,562.7266 632.3594,562.1172 Q633.4531,561.4922 634.6875,561.4922 Q635.4219,561.4922 636.0625,561.6641 Q636.7188,561.8203 637.2656,562.1797 Z " fill="#000000"/><text fill="#000000" font-family="sans-serif" font-size="12" font-style="italic" lengthAdjust="spacing" textLength="27" x="665.5" y="561.9629">&#171;vo&#187;</text><text fill="#000000" font-family="sans-serif" font-size="14" lengthAdjust="spacing" textLength="61" x="648.5" y="580.082">ExamTitle</text><line style="stroke:#181818;stroke-width:0.5;" x1="620.5" x2="711.5" y1="588.5957" y2="588.5957"/><line style="stroke:#181818;stroke-width:0.5;" x1="620.5" x2="711.5" y1="596.5957" y2="596.5957"/></g><!--class ExamHeaderTextualDescription--><g id="elem_ExamHeaderTextualDescription"><rect codeLine="6" fill="#F1F1F1" height="60.582" id="ExamHeaderTextualDescription" rx="2.5" ry="2.5" style="stroke:#181818;stroke-width:0.5;" width="229" x="747.5" y="544.0137"/><ellipse cx="762.5" cy="566.3047" fill="#ADD1B2" rx="11" ry="11" style="stroke:#181818;stroke-width:1.0;"/><path d="M765.2656,562.1797 Q765.4219,561.9609 765.6094,561.8516 Q765.7969,561.7422 766.0156,561.7422 Q766.3906,561.7422 766.625,562.0078 Q766.8594,562.2578 766.8594,562.8672 L766.8594,564.3203 Q766.8594,564.9297 766.625,565.1953 Q766.3906,565.4609 766.0156,565.4609 Q765.6719,565.4609 765.4688,565.2578 Q765.2656,565.0703 765.1563,564.5547 Q765.1094,564.1953 764.9219,564.0078 Q764.5938,563.6328 763.9844,563.4141 Q763.375,563.1953 762.75,563.1953 Q761.9844,563.1953 761.3438,563.5234 Q760.7188,563.8516 760.2188,564.6016 Q759.7344,565.3516 759.7344,566.3828 L759.7344,567.4766 Q759.7344,568.7109 760.625,569.5391 Q761.5156,570.3516 763.1094,570.3516 Q764.0469,570.3516 764.7031,570.1016 Q765.0938,569.9453 765.5156,569.5078 Q765.7813,569.2422 765.9219,569.1641 Q766.0781,569.0859 766.2813,569.0859 Q766.6094,569.0859 766.8594,569.3516 Q767.125,569.6016 767.125,569.9453 Q767.125,570.2891 766.7813,570.6953 Q766.2813,571.2734 765.4844,571.6016 Q764.4063,572.0547 763.1094,572.0547 Q761.5938,572.0547 760.3906,571.4297 Q759.4063,570.9297 758.7188,569.8672 Q758.0313,568.7891 758.0313,567.5078 L758.0313,566.3516 Q758.0313,565.0234 758.6406,563.8828 Q759.2656,562.7266 760.3594,562.1172 Q761.4531,561.4922 762.6875,561.4922 Q763.4219,561.4922 764.0625,561.6641 Q764.7188,561.8203 765.2656,562.1797 Z " fill="#000000"/><text fill="#000000" font-family="sans-serif" font-size="12" font-style="italic" lengthAdjust="spacing" textLength="27" x="861.5" y="561.9629">&#171;vo&#187;</text><text fill="#000000" font-family="sans-serif" font-size="14" lengthAdjust="spacing" textLength="197" x="776.5" y="580.082">ExamHeaderTextualDescription</text><line style="stroke:#181818;stroke-width:0.5;" x1="748.5" x2="975.5" y1="588.5957" y2="588.5957"/><line style="stroke:#181818;stroke-width:0.5;" x1="748.5" x2="975.5" y1="596.5957" y2="596.5957"/></g><!--class ExamInitalDateTime--><g id="elem_ExamInitalDateTime"><rect codeLine="7" fill="#F1F1F1" height="60.582" id="ExamInitalDateTime" rx="2.5" ry="2.5" style="stroke:#181818;stroke-width:0.5;" width="156" x="1012" y="544.0137"/><ellipse cx="1027" cy="566.3047" fill="#ADD1B2" rx="11" ry="11" style="stroke:#181818;stroke-width:1.0;"/><path d="M1029.7656,562.1797 Q1029.9219,561.9609 1030.1094,561.8516 Q1030.2969,561.7422 1030.5156,561.7422 Q1030.8906,561.7422 1031.125,562.0078 Q1031.3594,562.2578 1031.3594,562.8672 L1031.3594,564.3203 Q1031.3594,564.9297 1031.125,565.1953 Q1030.8906,565.4609 1030.5156,565.4609 Q1030.1719,565.4609 1029.9688,565.2578 Q1029.7656,565.0703 1029.6563,564.5547 Q1029.6094,564.1953 1029.4219,564.0078 Q1029.0938,563.6328 1028.4844,563.4141 Q1027.875,563.1953 1027.25,563.1953 Q1026.4844,563.1953 1025.8438,563.5234 Q1025.2188,563.8516 1024.7188,564.6016 Q1024.2344,565.3516 1024.2344,566.3828 L1024.2344,567.4766 Q1024.2344,568.7109 1025.125,569.5391 Q1026.0156,570.3516 1027.6094,570.3516 Q1028.5469,570.3516 1029.2031,570.1016 Q1029.5938,569.9453 1030.0156,569.5078 Q1030.2813,569.2422 1030.4219,569.1641 Q1030.5781,569.0859 1030.7813,569.0859 Q1031.1094,569.0859 1031.3594,569.3516 Q1031.625,569.6016 1031.625,569.9453 Q1031.625,570.2891 1031.2813,570.6953 Q1030.7813,571.2734 1029.9844,571.6016 Q1028.9063,572.0547 1027.6094,572.0547 Q1026.0938,572.0547 1024.8906,571.4297 Q1023.9063,570.9297 1023.2188,569.8672 Q1022.5313,568.7891 1022.5313,567.5078 L1022.5313,566.3516 Q1022.5313,565.0234 1023.1406,563.8828 Q1023.7656,562.7266 1024.8594,562.1172 Q1025.9531,561.4922 1027.1875,561.4922 Q1027.9219,561.4922 1028.5625,561.6641 Q1029.2188,561.8203 1029.7656,562.1797 Z " fill="#000000"/><text fill="#000000" font-family="sans-serif" font-size="12" font-style="italic" lengthAdjust="spacing" textLength="27" x="1089.5" y="561.9629">&#171;vo&#187;</text><text fill="#000000" font-family="sans-serif" font-size="14" lengthAdjust="spacing" textLength="124" x="1041" y="580.082">ExamInitalDateTime</text><line style="stroke:#181818;stroke-width:0.5;" x1="1013" x2="1167" y1="588.5957" y2="588.5957"/><line style="stroke:#181818;stroke-width:0.5;" x1="1013" x2="1167" y1="596.5957" y2="596.5957"/></g><!--class ExamFinalDateTime--><g id="elem_ExamFinalDateTime"><rect codeLine="8" fill="#F1F1F1" height="60.582" id="ExamFinalDateTime" rx="2.5" ry="2.5" style="stroke:#181818;stroke-width:0.5;" width="158" x="1203" y="544.0137"/><ellipse cx="1218" cy="566.3047" fill="#ADD1B2" rx="11" ry="11" style="stroke:#181818;stroke-width:1.0;"/><path d="M1220.7656,562.1797 Q1220.9219,561.9609 1221.1094,561.8516 Q1221.2969,561.7422 1221.5156,561.7422 Q1221.8906,561.7422 1222.125,562.0078 Q1222.3594,562.2578 1222.3594,562.8672 L1222.3594,564.3203 Q1222.3594,564.9297 1222.125,565.1953 Q1221.8906,565.4609 1221.5156,565.4609 Q1221.1719,565.4609 1220.9688,565.2578 Q1220.7656,565.0703 1220.6563,564.5547 Q1220.6094,564.1953 1220.4219,564.0078 Q1220.0938,563.6328 1219.4844,563.4141 Q1218.875,563.1953 1218.25,563.1953 Q1217.4844,563.1953 1216.8438,563.5234 Q1216.2188,563.8516 1215.7188,564.6016 Q1215.2344,565.3516 1215.2344,566.3828 L1215.2344,567.4766 Q1215.2344,568.7109 1216.125,569.5391 Q1217.0156,570.3516 1218.6094,570.3516 Q1219.5469,570.3516 1220.2031,570.1016 Q1220.5938,569.9453 1221.0156,569.5078 Q1221.2813,569.2422 1221.4219,569.1641 Q1221.5781,569.0859 1221.7813,569.0859 Q1222.1094,569.0859 1222.3594,569.3516 Q1222.625,569.6016 1222.625,569.9453 Q1222.625,570.2891 1222.2813,570.6953 Q1221.7813,571.2734 1220.9844,571.6016 Q1219.9063,572.0547 1218.6094,572.0547 Q1217.0938,572.0547 1215.8906,571.4297 Q1214.9063,570.9297 1214.2188,569.8672 Q1213.5313,568.7891 1213.5313,567.5078 L1213.5313,566.3516 Q1213.5313,565.0234 1214.1406,563.8828 Q1214.7656,562.7266 1215.8594,562.1172 Q1216.9531,561.4922 1218.1875,561.4922 Q1218.9219,561.4922 1219.5625,561.6641 Q1220.2188,561.8203 1220.7656,562.1797 Z " fill="#000000"/><text fill="#000000" font-family="sans-serif" font-size="12" font-style="italic" lengthAdjust="spacing" textLength="27" x="1281.5" y="561.9629">&#171;vo&#187;</text><text fill="#000000" font-family="sans-serif" font-size="14" lengthAdjust="spacing" textLength="126" x="1232" y="580.082">ExamFinalDateTime</text><line style="stroke:#181818;stroke-width:0.5;" x1="1204" x2="1360" y1="588.5957" y2="588.5957"/><line style="stroke:#181818;stroke-width:0.5;" x1="1204" x2="1360" y1="596.5957" y2="596.5957"/></g><!--class Teacher--><g id="elem_Teacher"><rect fill="#F1F1F1" height="48" id="Teacher" rx="2.5" ry="2.5" style="stroke:#181818;stroke-width:0.5;" width="85" x="699.5" y="236.5137"/><ellipse cx="714.5" cy="252.5137" fill="#ADD1B2" rx="11" ry="11" style="stroke:#181818;stroke-width:1.0;"/><path d="M717.2656,248.3887 Q717.4219,248.1699 717.6094,248.0605 Q717.7969,247.9512 718.0156,247.9512 Q718.3906,247.9512 718.625,248.2168 Q718.8594,248.4668 718.8594,249.0762 L718.8594,250.5293 Q718.8594,251.1387 718.625,251.4043 Q718.3906,251.6699 718.0156,251.6699 Q717.6719,251.6699 717.4688,251.4668 Q717.2656,251.2793 717.1563,250.7637 Q717.1094,250.4043 716.9219,250.2168 Q716.5938,249.8418 715.9844,249.623 Q715.375,249.4043 714.75,249.4043 Q713.9844,249.4043 713.3438,249.7324 Q712.7188,250.0605 712.2188,250.8105 Q711.7344,251.5605 711.7344,252.5918 L711.7344,253.6855 Q711.7344,254.9199 712.625,255.748 Q713.5156,256.5605 715.1094,256.5605 Q716.0469,256.5605 716.7031,256.3105 Q717.0938,256.1543 717.5156,255.7168 Q717.7813,255.4512 717.9219,255.373 Q718.0781,255.2949 718.2813,255.2949 Q718.6094,255.2949 718.8594,255.5605 Q719.125,255.8105 719.125,256.1543 Q719.125,256.498 718.7813,256.9043 Q718.2813,257.4824 717.4844,257.8105 Q716.4063,258.2637 715.1094,258.2637 Q713.5938,258.2637 712.3906,257.6387 Q711.4063,257.1387 710.7188,256.0762 Q710.0313,254.998 710.0313,253.7168 L710.0313,252.5605 Q710.0313,251.2324 710.6406,250.0918 Q711.2656,248.9355 712.3594,248.3262 Q713.4531,247.7012 714.6875,247.7012 Q715.4219,247.7012 716.0625,247.873 Q716.7188,248.0293 717.2656,248.3887 Z " fill="#000000"/><text fill="#000000" font-family="sans-serif" font-size="14" lengthAdjust="spacing" textLength="53" x="728.5" y="258.3105">Teacher</text><line style="stroke:#181818;stroke-width:0.5;" x1="700.5" x2="783.5" y1="268.5137" y2="268.5137"/><line style="stroke:#181818;stroke-width:0.5;" x1="700.5" x2="783.5" y1="276.5137" y2="276.5137"/></g><!--class Course--><g id="elem_Course"><rect fill="#F1F1F1" height="48" id="Course" rx="2.5" ry="2.5" style="stroke:#181818;stroke-width:0.5;" width="78" x="1396" y="550.5137"/><ellipse cx="1411" cy="566.5137" fill="#ADD1B2" rx="11" ry="11" style="stroke:#181818;stroke-width:1.0;"/><path d="M1413.7656,562.3887 Q1413.9219,562.1699 1414.1094,562.0605 Q1414.2969,561.9512 1414.5156,561.9512 Q1414.8906,561.9512 1415.125,562.2168 Q1415.3594,562.4668 1415.3594,563.0762 L1415.3594,564.5293 Q1415.3594,565.1387 1415.125,565.4043 Q1414.8906,565.6699 1414.5156,565.6699 Q1414.1719,565.6699 1413.9688,565.4668 Q1413.7656,565.2793 1413.6563,564.7637 Q1413.6094,564.4043 1413.4219,564.2168 Q1413.0938,563.8418 1412.4844,563.623 Q1411.875,563.4043 1411.25,563.4043 Q1410.4844,563.4043 1409.8438,563.7324 Q1409.2188,564.0605 1408.7188,564.8105 Q1408.2344,565.5605 1408.2344,566.5918 L1408.2344,567.6855 Q1408.2344,568.9199 1409.125,569.748 Q1410.0156,570.5605 1411.6094,570.5605 Q1412.5469,570.5605 1413.2031,570.3105 Q1413.5938,570.1543 1414.0156,569.7168 Q1414.2813,569.4512 1414.4219,569.373 Q1414.5781,569.2949 1414.7813,569.2949 Q1415.1094,569.2949 1415.3594,569.5605 Q1415.625,569.8105 1415.625,570.1543 Q1415.625,570.498 1415.2813,570.9043 Q1414.7813,571.4824 1413.9844,571.8105 Q1412.9063,572.2637 1411.6094,572.2637 Q1410.0938,572.2637 1408.8906,571.6387 Q1407.9063,571.1387 1407.2188,570.0762 Q1406.5313,568.998 1406.5313,567.7168 L1406.5313,566.5605 Q1406.5313,565.2324 1407.1406,564.0918 Q1407.7656,562.9355 1408.8594,562.3262 Q1409.9531,561.7012 1411.1875,561.7012 Q1411.9219,561.7012 1412.5625,561.873 Q1413.2188,562.0293 1413.7656,562.3887 Z " fill="#000000"/><text fill="#000000" font-family="sans-serif" font-size="14" lengthAdjust="spacing" textLength="46" x="1425" y="572.3105">Course</text><line style="stroke:#181818;stroke-width:0.5;" x1="1397" x2="1473" y1="582.5137" y2="582.5137"/><line style="stroke:#181818;stroke-width:0.5;" x1="1397" x2="1473" y1="590.5137" y2="590.5137"/></g><!--class ExamSection--><g id="elem_ExamSection"><rect codeLine="21" fill="#F1F1F1" height="76.543" id="ExamSection" rx="2.5" ry="2.5" style="stroke:#181818;stroke-width:0.5;" width="113" x="2590.5" y="222.0137"/><ellipse cx="2605.5" cy="252.2852" fill="#ADD1B2" rx="11" ry="11" style="stroke:#181818;stroke-width:1.0;"/><path d="M2608.2656,248.1602 Q2608.4219,247.9414 2608.6094,247.832 Q2608.7969,247.7227 2609.0156,247.7227 Q2609.3906,247.7227 2609.625,247.9883 Q2609.8594,248.2383 2609.8594,248.8477 L2609.8594,250.3008 Q2609.8594,250.9102 2609.625,251.1758 Q2609.3906,251.4414 2609.0156,251.4414 Q2608.6719,251.4414 2608.4688,251.2383 Q2608.2656,251.0508 2608.1563,250.5352 Q2608.1094,250.1758 2607.9219,249.9883 Q2607.5938,249.6133 2606.9844,249.3945 Q2606.375,249.1758 2605.75,249.1758 Q2604.9844,249.1758 2604.3438,249.5039 Q2603.7188,249.832 2603.2188,250.582 Q2602.7344,251.332 2602.7344,252.3633 L2602.7344,253.457 Q2602.7344,254.6914 2603.625,255.5195 Q2604.5156,256.332 2606.1094,256.332 Q2607.0469,256.332 2607.7031,256.082 Q2608.0938,255.9258 2608.5156,255.4883 Q2608.7813,255.2227 2608.9219,255.1445 Q2609.0781,255.0664 2609.2813,255.0664 Q2609.6094,255.0664 2609.8594,255.332 Q2610.125,255.582 2610.125,255.9258 Q2610.125,256.2695 2609.7813,256.6758 Q2609.2813,257.2539 2608.4844,257.582 Q2607.4063,258.0352 2606.1094,258.0352 Q2604.5938,258.0352 2603.3906,257.4102 Q2602.4063,256.9102 2601.7188,255.8477 Q2601.0313,254.7695 2601.0313,253.4883 L2601.0313,252.332 Q2601.0313,251.0039 2601.6406,249.8633 Q2602.2656,248.707 2603.3594,248.0977 Q2604.4531,247.4727 2605.6875,247.4727 Q2606.4219,247.4727 2607.0625,247.6445 Q2607.7188,247.8008 2608.2656,248.1602 Z " fill="#000000"/><text fill="#000000" font-family="sans-serif" font-size="12" font-style="italic" lengthAdjust="spacing" textLength="43" x="2638.5" y="239.9629">&#171;entity&#187;</text><text fill="#000000" font-family="sans-serif" font-size="12" font-style="italic" lengthAdjust="spacing" textLength="35" x="2642.5" y="255.9238">&#171;root&#187;</text><text fill="#000000" font-family="sans-serif" font-size="14" lengthAdjust="spacing" textLength="81" x="2619.5" y="274.043">ExamSection</text><line style="stroke:#181818;stroke-width:0.5;" x1="2591.5" x2="2702.5" y1="282.5566" y2="282.5566"/><line style="stroke:#181818;stroke-width:0.5;" x1="2591.5" x2="2702.5" y1="290.5566" y2="290.5566"/></g><!--class ExamSectionTextualDescription--><g id="elem_ExamSectionTextualDescription"><rect codeLine="22" fill="#F1F1F1" height="60.582" id="ExamSectionTextualDescription" rx="2.5" ry="2.5" style="stroke:#181818;stroke-width:0.5;" width="230" x="2590" y="388.0137"/><ellipse cx="2605" cy="410.3047" fill="#ADD1B2" rx="11" ry="11" style="stroke:#181818;stroke-width:1.0;"/><path d="M2607.7656,406.1797 Q2607.9219,405.9609 2608.1094,405.8516 Q2608.2969,405.7422 2608.5156,405.7422 Q2608.8906,405.7422 2609.125,406.0078 Q2609.3594,406.2578 2609.3594,406.8672 L2609.3594,408.3203 Q2609.3594,408.9297 2609.125,409.1953 Q2608.8906,409.4609 2608.5156,409.4609 Q2608.1719,409.4609 2607.9688,409.2578 Q2607.7656,409.0703 2607.6563,408.5547 Q2607.6094,408.1953 2607.4219,408.0078 Q2607.0938,407.6328 2606.4844,407.4141 Q2605.875,407.1953 2605.25,407.1953 Q2604.4844,407.1953 2603.8438,407.5234 Q2603.2188,407.8516 2602.7188,408.6016 Q2602.2344,409.3516 2602.2344,410.3828 L2602.2344,411.4766 Q2602.2344,412.7109 2603.125,413.5391 Q2604.0156,414.3516 2605.6094,414.3516 Q2606.5469,414.3516 2607.2031,414.1016 Q2607.5938,413.9453 2608.0156,413.5078 Q2608.2813,413.2422 2608.4219,413.1641 Q2608.5781,413.0859 2608.7813,413.0859 Q2609.1094,413.0859 2609.3594,413.3516 Q2609.625,413.6016 2609.625,413.9453 Q2609.625,414.2891 2609.2813,414.6953 Q2608.7813,415.2734 2607.9844,415.6016 Q2606.9063,416.0547 2605.6094,416.0547 Q2604.0938,416.0547 2602.8906,415.4297 Q2601.9063,414.9297 2601.2188,413.8672 Q2600.5313,412.7891 2600.5313,411.5078 L2600.5313,410.3516 Q2600.5313,409.0234 2601.1406,407.8828 Q2601.7656,406.7266 2602.8594,406.1172 Q2603.9531,405.4922 2605.1875,405.4922 Q2605.9219,405.4922 2606.5625,405.6641 Q2607.2188,405.8203 2607.7656,406.1797 Z " fill="#000000"/><text fill="#000000" font-family="sans-serif" font-size="12" font-style="italic" lengthAdjust="spacing" textLength="27" x="2704.5" y="405.9629">&#171;vo&#187;</text><text fill="#000000" font-family="sans-serif" font-size="14" lengthAdjust="spacing" textLength="198" x="2619" y="424.082">ExamSectionTextualDescription</text><line style="stroke:#181818;stroke-width:0.5;" x1="2591" x2="2819" y1="432.5957" y2="432.5957"/><line style="stroke:#181818;stroke-width:0.5;" x1="2591" x2="2819" y1="440.5957" y2="440.5957"/></g><!--class ExamQuestion--><g id="elem_ExamQuestion"><rect codeLine="29" fill="#F1F1F1" height="76.543" id="ExamQuestion" rx="2.5" ry="2.5" style="stroke:#181818;stroke-width:0.5;" width="123" x="2093.5" y="43.0137"/><ellipse cx="2108.5" cy="73.2852" fill="#ADD1B2" rx="11" ry="11" style="stroke:#181818;stroke-width:1.0;"/><path d="M2111.2656,69.1602 Q2111.4219,68.9414 2111.6094,68.832 Q2111.7969,68.7227 2112.0156,68.7227 Q2112.3906,68.7227 2112.625,68.9883 Q2112.8594,69.2383 2112.8594,69.8477 L2112.8594,71.3008 Q2112.8594,71.9102 2112.625,72.1758 Q2112.3906,72.4414 2112.0156,72.4414 Q2111.6719,72.4414 2111.4688,72.2383 Q2111.2656,72.0508 2111.1563,71.5352 Q2111.1094,71.1758 2110.9219,70.9883 Q2110.5938,70.6133 2109.9844,70.3945 Q2109.375,70.1758 2108.75,70.1758 Q2107.9844,70.1758 2107.3438,70.5039 Q2106.7188,70.832 2106.2188,71.582 Q2105.7344,72.332 2105.7344,73.3633 L2105.7344,74.457 Q2105.7344,75.6914 2106.625,76.5195 Q2107.5156,77.332 2109.1094,77.332 Q2110.0469,77.332 2110.7031,77.082 Q2111.0938,76.9258 2111.5156,76.4883 Q2111.7813,76.2227 2111.9219,76.1445 Q2112.0781,76.0664 2112.2813,76.0664 Q2112.6094,76.0664 2112.8594,76.332 Q2113.125,76.582 2113.125,76.9258 Q2113.125,77.2695 2112.7813,77.6758 Q2112.2813,78.2539 2111.4844,78.582 Q2110.4063,79.0352 2109.1094,79.0352 Q2107.5938,79.0352 2106.3906,78.4102 Q2105.4063,77.9102 2104.7188,76.8477 Q2104.0313,75.7695 2104.0313,74.4883 L2104.0313,73.332 Q2104.0313,72.0039 2104.6406,70.8633 Q2105.2656,69.707 2106.3594,69.0977 Q2107.4531,68.4727 2108.6875,68.4727 Q2109.4219,68.4727 2110.0625,68.6445 Q2110.7188,68.8008 2111.2656,69.1602 Z " fill="#000000"/><text fill="#000000" font-family="sans-serif" font-size="12" font-style="italic" lengthAdjust="spacing" textLength="43" x="2146.5" y="60.9629">&#171;entity&#187;</text><text fill="#000000" font-family="sans-serif" font-size="12" font-style="italic" lengthAdjust="spacing" textLength="35" x="2150.5" y="76.9238">&#171;root&#187;</text><text fill="#000000" font-family="sans-serif" font-size="14" lengthAdjust="spacing" textLength="91" x="2122.5" y="95.043">ExamQuestion</text><line style="stroke:#181818;stroke-width:0.5;" x1="2094.5" x2="2215.5" y1="103.5566" y2="103.5566"/><line style="stroke:#181818;stroke-width:0.5;" x1="2094.5" x2="2215.5" y1="111.5566" y2="111.5566"/></g><!--class ExamQuestionStatement--><g id="elem_ExamQuestionStatement"><rect codeLine="30" fill="#F1F1F1" height="60.582" id="ExamQuestionStatement" rx="2.5" ry="2.5" style="stroke:#181818;stroke-width:0.5;" width="187" x="1530.5" y="230.0137"/><ellipse cx="1545.5" cy="252.3047" fill="#ADD1B2" rx="11" ry="11" style="stroke:#181818;stroke-width:1.0;"/><path d="M1548.2656,248.1797 Q1548.4219,247.9609 1548.6094,247.8516 Q1548.7969,247.7422 1549.0156,247.7422 Q1549.3906,247.7422 1549.625,248.0078 Q1549.8594,248.2578 1549.8594,248.8672 L1549.8594,250.3203 Q1549.8594,250.9297 1549.625,251.1953 Q1549.3906,251.4609 1549.0156,251.4609 Q1548.6719,251.4609 1548.4688,251.2578 Q1548.2656,251.0703 1548.1563,250.5547 Q1548.1094,250.1953 1547.9219,250.0078 Q1547.5938,249.6328 1546.9844,249.4141 Q1546.375,249.1953 1545.75,249.1953 Q1544.9844,249.1953 1544.3438,249.5234 Q1543.7188,249.8516 1543.2188,250.6016 Q1542.7344,251.3516 1542.7344,252.3828 L1542.7344,253.4766 Q1542.7344,254.7109 1543.625,255.5391 Q1544.5156,256.3516 1546.1094,256.3516 Q1547.0469,256.3516 1547.7031,256.1016 Q1548.0938,255.9453 1548.5156,255.5078 Q1548.7813,255.2422 1548.9219,255.1641 Q1549.0781,255.0859 1549.2813,255.0859 Q1549.6094,255.0859 1549.8594,255.3516 Q1550.125,255.6016 1550.125,255.9453 Q1550.125,256.2891 1549.7813,256.6953 Q1549.2813,257.2734 1548.4844,257.6016 Q1547.4063,258.0547 1546.1094,258.0547 Q1544.5938,258.0547 1543.3906,257.4297 Q1542.4063,256.9297 1541.7188,255.8672 Q1541.0313,254.7891 1541.0313,253.5078 L1541.0313,252.3516 Q1541.0313,251.0234 1541.6406,249.8828 Q1542.2656,248.7266 1543.3594,248.1172 Q1544.4531,247.4922 1545.6875,247.4922 Q1546.4219,247.4922 1547.0625,247.6641 Q1547.7188,247.8203 1548.2656,248.1797 Z " fill="#000000"/><text fill="#000000" font-family="sans-serif" font-size="12" font-style="italic" lengthAdjust="spacing" textLength="27" x="1623.5" y="247.9629">&#171;vo&#187;</text><text fill="#000000" font-family="sans-serif" font-size="14" lengthAdjust="spacing" textLength="155" x="1559.5" y="266.082">ExamQuestionStatement</text><line style="stroke:#181818;stroke-width:0.5;" x1="1531.5" x2="1716.5" y1="274.5957" y2="274.5957"/><line style="stroke:#181818;stroke-width:0.5;" x1="1531.5" x2="1716.5" y1="282.5957" y2="282.5957"/></g><!--class ExamQuestionFeedback--><g id="elem_ExamQuestionFeedback"><rect codeLine="31" fill="#F1F1F1" height="60.582" id="ExamQuestionFeedback" rx="2.5" ry="2.5" style="stroke:#181818;stroke-width:0.5;" width="186" x="1753" y="230.0137"/><ellipse cx="1768" cy="252.3047" fill="#ADD1B2" rx="11" ry="11" style="stroke:#181818;stroke-width:1.0;"/><path d="M1770.7656,248.1797 Q1770.9219,247.9609 1771.1094,247.8516 Q1771.2969,247.7422 1771.5156,247.7422 Q1771.8906,247.7422 1772.125,248.0078 Q1772.3594,248.2578 1772.3594,248.8672 L1772.3594,250.3203 Q1772.3594,250.9297 1772.125,251.1953 Q1771.8906,251.4609 1771.5156,251.4609 Q1771.1719,251.4609 1770.9688,251.2578 Q1770.7656,251.0703 1770.6563,250.5547 Q1770.6094,250.1953 1770.4219,250.0078 Q1770.0938,249.6328 1769.4844,249.4141 Q1768.875,249.1953 1768.25,249.1953 Q1767.4844,249.1953 1766.8438,249.5234 Q1766.2188,249.8516 1765.7188,250.6016 Q1765.2344,251.3516 1765.2344,252.3828 L1765.2344,253.4766 Q1765.2344,254.7109 1766.125,255.5391 Q1767.0156,256.3516 1768.6094,256.3516 Q1769.5469,256.3516 1770.2031,256.1016 Q1770.5938,255.9453 1771.0156,255.5078 Q1771.2813,255.2422 1771.4219,255.1641 Q1771.5781,255.0859 1771.7813,255.0859 Q1772.1094,255.0859 1772.3594,255.3516 Q1772.625,255.6016 1772.625,255.9453 Q1772.625,256.2891 1772.2813,256.6953 Q1771.7813,257.2734 1770.9844,257.6016 Q1769.9063,258.0547 1768.6094,258.0547 Q1767.0938,258.0547 1765.8906,257.4297 Q1764.9063,256.9297 1764.2188,255.8672 Q1763.5313,254.7891 1763.5313,253.5078 L1763.5313,252.3516 Q1763.5313,251.0234 1764.1406,249.8828 Q1764.7656,248.7266 1765.8594,248.1172 Q1766.9531,247.4922 1768.1875,247.4922 Q1768.9219,247.4922 1769.5625,247.6641 Q1770.2188,247.8203 1770.7656,248.1797 Z " fill="#000000"/><text fill="#000000" font-family="sans-serif" font-size="12" font-style="italic" lengthAdjust="spacing" textLength="27" x="1845.5" y="247.9629">&#171;vo&#187;</text><text fill="#000000" font-family="sans-serif" font-size="14" lengthAdjust="spacing" textLength="154" x="1782" y="266.082">ExamQuestionFeedback</text><line style="stroke:#181818;stroke-width:0.5;" x1="1754" x2="1938" y1="274.5957" y2="274.5957"/><line style="stroke:#181818;stroke-width:0.5;" x1="1754" x2="1938" y1="282.5957" y2="282.5957"/></g><!--class ExamQuestionValue--><g id="elem_ExamQuestionValue"><rect codeLine="32" fill="#F1F1F1" height="60.582" id="ExamQuestionValue" rx="2.5" ry="2.5" style="stroke:#181818;stroke-width:0.5;" width="159" x="1974.5" y="230.0137"/><ellipse cx="1989.5" cy="252.3047" fill="#ADD1B2" rx="11" ry="11" style="stroke:#181818;stroke-width:1.0;"/><path d="M1992.2656,248.1797 Q1992.4219,247.9609 1992.6094,247.8516 Q1992.7969,247.7422 1993.0156,247.7422 Q1993.3906,247.7422 1993.625,248.0078 Q1993.8594,248.2578 1993.8594,248.8672 L1993.8594,250.3203 Q1993.8594,250.9297 1993.625,251.1953 Q1993.3906,251.4609 1993.0156,251.4609 Q1992.6719,251.4609 1992.4688,251.2578 Q1992.2656,251.0703 1992.1563,250.5547 Q1992.1094,250.1953 1991.9219,250.0078 Q1991.5938,249.6328 1990.9844,249.4141 Q1990.375,249.1953 1989.75,249.1953 Q1988.9844,249.1953 1988.3438,249.5234 Q1987.7188,249.8516 1987.2188,250.6016 Q1986.7344,251.3516 1986.7344,252.3828 L1986.7344,253.4766 Q1986.7344,254.7109 1987.625,255.5391 Q1988.5156,256.3516 1990.1094,256.3516 Q1991.0469,256.3516 1991.7031,256.1016 Q1992.0938,255.9453 1992.5156,255.5078 Q1992.7813,255.2422 1992.9219,255.1641 Q1993.0781,255.0859 1993.2813,255.0859 Q1993.6094,255.0859 1993.8594,255.3516 Q1994.125,255.6016 1994.125,255.9453 Q1994.125,256.2891 1993.7813,256.6953 Q1993.2813,257.2734 1992.4844,257.6016 Q1991.4063,258.0547 1990.1094,258.0547 Q1988.5938,258.0547 1987.3906,257.4297 Q1986.4063,256.9297 1985.7188,255.8672 Q1985.0313,254.7891 1985.0313,253.5078 L1985.0313,252.3516 Q1985.0313,251.0234 1985.6406,249.8828 Q1986.2656,248.7266 1987.3594,248.1172 Q1988.4531,247.4922 1989.6875,247.4922 Q1990.4219,247.4922 1991.0625,247.6641 Q1991.7188,247.8203 1992.2656,248.1797 Z " fill="#000000"/><text fill="#000000" font-family="sans-serif" font-size="12" font-style="italic" lengthAdjust="spacing" textLength="27" x="2053.5" y="247.9629">&#171;vo&#187;</text><text fill="#000000" font-family="sans-serif" font-size="14" lengthAdjust="spacing" textLength="127" x="2003.5" y="266.082">ExamQuestionValue</text><line style="stroke:#181818;stroke-width:0.5;" x1="1975.5" x2="2132.5" y1="274.5957" y2="274.5957"/><line style="stroke:#181818;stroke-width:0.5;" x1="1975.5" x2="2132.5" y1="282.5957" y2="282.5957"/></g><!--class ExamQuestionSolution--><g id="elem_ExamQuestionSolution"><rect codeLine="33" fill="#F1F1F1" height="60.582" id="ExamQuestionSolution" rx="2.5" ry="2.5" style="stroke:#181818;stroke-width:0.5;" width="174" x="2169" y="230.0137"/><ellipse cx="2184" cy="252.3047" fill="#ADD1B2" rx="11" ry="11" style="stroke:#181818;stroke-width:1.0;"/><path d="M2186.7656,248.1797 Q2186.9219,247.9609 2187.1094,247.8516 Q2187.2969,247.7422 2187.5156,247.7422 Q2187.8906,247.7422 2188.125,248.0078 Q2188.3594,248.2578 2188.3594,248.8672 L2188.3594,250.3203 Q2188.3594,250.9297 2188.125,251.1953 Q2187.8906,251.4609 2187.5156,251.4609 Q2187.1719,251.4609 2186.9688,251.2578 Q2186.7656,251.0703 2186.6563,250.5547 Q2186.6094,250.1953 2186.4219,250.0078 Q2186.0938,249.6328 2185.4844,249.4141 Q2184.875,249.1953 2184.25,249.1953 Q2183.4844,249.1953 2182.8438,249.5234 Q2182.2188,249.8516 2181.7188,250.6016 Q2181.2344,251.3516 2181.2344,252.3828 L2181.2344,253.4766 Q2181.2344,254.7109 2182.125,255.5391 Q2183.0156,256.3516 2184.6094,256.3516 Q2185.5469,256.3516 2186.2031,256.1016 Q2186.5938,255.9453 2187.0156,255.5078 Q2187.2813,255.2422 2187.4219,255.1641 Q2187.5781,255.0859 2187.7813,255.0859 Q2188.1094,255.0859 2188.3594,255.3516 Q2188.625,255.6016 2188.625,255.9453 Q2188.625,256.2891 2188.2813,256.6953 Q2187.7813,257.2734 2186.9844,257.6016 Q2185.9063,258.0547 2184.6094,258.0547 Q2183.0938,258.0547 2181.8906,257.4297 Q2180.9063,256.9297 2180.2188,255.8672 Q2179.5313,254.7891 2179.5313,253.5078 L2179.5313,252.3516 Q2179.5313,251.0234 2180.1406,249.8828 Q2180.7656,248.7266 2181.8594,248.1172 Q2182.9531,247.4922 2184.1875,247.4922 Q2184.9219,247.4922 2185.5625,247.6641 Q2186.2188,247.8203 2186.7656,248.1797 Z " fill="#000000"/><text fill="#000000" font-family="sans-serif" font-size="12" font-style="italic" lengthAdjust="spacing" textLength="27" x="2255.5" y="247.9629">&#171;vo&#187;</text><text fill="#000000" font-family="sans-serif" font-size="14" lengthAdjust="spacing" textLength="142" x="2198" y="266.082">ExamQuestionSolution</text><line style="stroke:#181818;stroke-width:0.5;" x1="2170" x2="2342" y1="274.5957" y2="274.5957"/><line style="stroke:#181818;stroke-width:0.5;" x1="2170" x2="2342" y1="282.5957" y2="282.5957"/></g><!--class ExamQuestionType--><g id="elem_ExamQuestionType"><rect codeLine="34" fill="#F1F1F1" height="76.543" id="ExamQuestionType" rx="2.5" ry="2.5" style="stroke:#181818;stroke-width:0.5;" width="155" x="2378.5" y="222.0137"/><ellipse cx="2393.5" cy="252.2852" fill="#ADD1B2" rx="11" ry="11" style="stroke:#181818;stroke-width:1.0;"/><path d="M2396.2656,248.1602 Q2396.4219,247.9414 2396.6094,247.832 Q2396.7969,247.7227 2397.0156,247.7227 Q2397.3906,247.7227 2397.625,247.9883 Q2397.8594,248.2383 2397.8594,248.8477 L2397.8594,250.3008 Q2397.8594,250.9102 2397.625,251.1758 Q2397.3906,251.4414 2397.0156,251.4414 Q2396.6719,251.4414 2396.4688,251.2383 Q2396.2656,251.0508 2396.1563,250.5352 Q2396.1094,250.1758 2395.9219,249.9883 Q2395.5938,249.6133 2394.9844,249.3945 Q2394.375,249.1758 2393.75,249.1758 Q2392.9844,249.1758 2392.3438,249.5039 Q2391.7188,249.832 2391.2188,250.582 Q2390.7344,251.332 2390.7344,252.3633 L2390.7344,253.457 Q2390.7344,254.6914 2391.625,255.5195 Q2392.5156,256.332 2394.1094,256.332 Q2395.0469,256.332 2395.7031,256.082 Q2396.0938,255.9258 2396.5156,255.4883 Q2396.7813,255.2227 2396.9219,255.1445 Q2397.0781,255.0664 2397.2813,255.0664 Q2397.6094,255.0664 2397.8594,255.332 Q2398.125,255.582 2398.125,255.9258 Q2398.125,256.2695 2397.7813,256.6758 Q2397.2813,257.2539 2396.4844,257.582 Q2395.4063,258.0352 2394.1094,258.0352 Q2392.5938,258.0352 2391.3906,257.4102 Q2390.4063,256.9102 2389.7188,255.8477 Q2389.0313,254.7695 2389.0313,253.4883 L2389.0313,252.332 Q2389.0313,251.0039 2389.6406,249.8633 Q2390.2656,248.707 2391.3594,248.0977 Q2392.4531,247.4727 2393.6875,247.4727 Q2394.4219,247.4727 2395.0625,247.6445 Q2395.7188,247.8008 2396.2656,248.1602 Z " fill="#000000"/><text fill="#000000" font-family="sans-serif" font-size="12" font-style="italic" lengthAdjust="spacing" textLength="27" x="2455.5" y="239.9629">&#171;vo&#187;</text><text fill="#000000" font-family="sans-serif" font-size="12" font-style="italic" lengthAdjust="spacing" textLength="46" x="2446" y="255.9238">&#171;enum&#187;</text><text fill="#000000" font-family="sans-serif" font-size="14" lengthAdjust="spacing" textLength="123" x="2407.5" y="274.043">ExamQuestionType</text><line style="stroke:#181818;stroke-width:0.5;" x1="2379.5" x2="2532.5" y1="282.5566" y2="282.5566"/><line style="stroke:#181818;stroke-width:0.5;" x1="2379.5" x2="2532.5" y1="290.5566" y2="290.5566"/></g><!--class Course--><g id="elem_Course"><rect codeLine="46" fill="#F1F1F1" height="76.543" id="Course" rx="2.5" ry="2.5" style="stroke:#181818;stroke-width:0.5;" width="78" x="252" y="43.0137"/><ellipse cx="267" cy="73.2852" fill="#ADD1B2" rx="11" ry="11" style="stroke:#181818;stroke-width:1.0;"/><path d="M269.7656,69.1602 Q269.9219,68.9414 270.1094,68.832 Q270.2969,68.7227 270.5156,68.7227 Q270.8906,68.7227 271.125,68.9883 Q271.3594,69.2383 271.3594,69.8477 L271.3594,71.3008 Q271.3594,71.9102 271.125,72.1758 Q270.8906,72.4414 270.5156,72.4414 Q270.1719,72.4414 269.9688,72.2383 Q269.7656,72.0508 269.6563,71.5352 Q269.6094,71.1758 269.4219,70.9883 Q269.0938,70.6133 268.4844,70.3945 Q267.875,70.1758 267.25,70.1758 Q266.4844,70.1758 265.8438,70.5039 Q265.2188,70.832 264.7188,71.582 Q264.2344,72.332 264.2344,73.3633 L264.2344,74.457 Q264.2344,75.6914 265.125,76.5195 Q266.0156,77.332 267.6094,77.332 Q268.5469,77.332 269.2031,77.082 Q269.5938,76.9258 270.0156,76.4883 Q270.2813,76.2227 270.4219,76.1445 Q270.5781,76.0664 270.7813,76.0664 Q271.1094,76.0664 271.3594,76.332 Q271.625,76.582 271.625,76.9258 Q271.625,77.2695 271.2813,77.6758 Q270.7813,78.2539 269.9844,78.582 Q268.9063,79.0352 267.6094,79.0352 Q266.0938,79.0352 264.8906,78.4102 Q263.9063,77.9102 263.2188,76.8477 Q262.5313,75.7695 262.5313,74.4883 L262.5313,73.332 Q262.5313,72.0039 263.1406,70.8633 Q263.7656,69.707 264.8594,69.0977 Q265.9531,68.4727 267.1875,68.4727 Q267.9219,68.4727 268.5625,68.6445 Q269.2188,68.8008 269.7656,69.1602 Z " fill="#000000"/><text fill="#000000" font-family="sans-serif" font-size="12" font-style="italic" lengthAdjust="spacing" textLength="43" x="282.5" y="60.9629">&#171;entity&#187;</text><text fill="#000000" font-family="sans-serif" font-size="12" font-style="italic" lengthAdjust="spacing" textLength="35" x="286.5" y="76.9238">&#171;root&#187;</text><text fill="#000000" font-family="sans-serif" font-size="14" lengthAdjust="spacing" textLength="46" x="281" y="95.043">Course</text><line style="stroke:#181818;stroke-width:0.5;" x1="253" x2="329" y1="103.5566" y2="103.5566"/><line style="stroke:#181818;stroke-width:0.5;" x1="253" x2="329" y1="111.5566" y2="111.5566"/></g><!--class Code--><g id="elem_Code"><rect codeLine="47" fill="#F1F1F1" height="60.582" id="Code" rx="2.5" ry="2.5" style="stroke:#181818;stroke-width:0.5;" width="66" x="22" y="230.0137"/><ellipse cx="37" cy="252.3047" fill="#ADD1B2" rx="11" ry="11" style="stroke:#181818;stroke-width:1.0;"/><path d="M39.7656,248.1797 Q39.9219,247.9609 40.1094,247.8516 Q40.2969,247.7422 40.5156,247.7422 Q40.8906,247.7422 41.125,248.0078 Q41.3594,248.2578 41.3594,248.8672 L41.3594,250.3203 Q41.3594,250.9297 41.125,251.1953 Q40.8906,251.4609 40.5156,251.4609 Q40.1719,251.4609 39.9688,251.2578 Q39.7656,251.0703 39.6563,250.5547 Q39.6094,250.1953 39.4219,250.0078 Q39.0938,249.6328 38.4844,249.4141 Q37.875,249.1953 37.25,249.1953 Q36.4844,249.1953 35.8438,249.5234 Q35.2188,249.8516 34.7188,250.6016 Q34.2344,251.3516 34.2344,252.3828 L34.2344,253.4766 Q34.2344,254.7109 35.125,255.5391 Q36.0156,256.3516 37.6094,256.3516 Q38.5469,256.3516 39.2031,256.1016 Q39.5938,255.9453 40.0156,255.5078 Q40.2813,255.2422 40.4219,255.1641 Q40.5781,255.0859 40.7813,255.0859 Q41.1094,255.0859 41.3594,255.3516 Q41.625,255.6016 41.625,255.9453 Q41.625,256.2891 41.2813,256.6953 Q40.7813,257.2734 39.9844,257.6016 Q38.9063,258.0547 37.6094,258.0547 Q36.0938,258.0547 34.8906,257.4297 Q33.9063,256.9297 33.2188,255.8672 Q32.5313,254.7891 32.5313,253.5078 L32.5313,252.3516 Q32.5313,251.0234 33.1406,249.8828 Q33.7656,248.7266 34.8594,248.1172 Q35.9531,247.4922 37.1875,247.4922 Q37.9219,247.4922 38.5625,247.6641 Q39.2188,247.8203 39.7656,248.1797 Z " fill="#000000"/><text fill="#000000" font-family="sans-serif" font-size="12" font-style="italic" lengthAdjust="spacing" textLength="27" x="54.5" y="247.9629">&#171;vo&#187;</text><text fill="#000000" font-family="sans-serif" font-size="14" lengthAdjust="spacing" textLength="34" x="51" y="266.082">Code</text><line style="stroke:#181818;stroke-width:0.5;" x1="23" x2="87" y1="274.5957" y2="274.5957"/><line style="stroke:#181818;stroke-width:0.5;" x1="23" x2="87" y1="282.5957" y2="282.5957"/></g><!--class Description--><g id="elem_Description"><rect codeLine="48" fill="#F1F1F1" height="60.582" id="Description" rx="2.5" ry="2.5" style="stroke:#181818;stroke-width:0.5;" width="103" x="123.5" y="230.0137"/><ellipse cx="138.5" cy="252.3047" fill="#ADD1B2" rx="11" ry="11" style="stroke:#181818;stroke-width:1.0;"/><path d="M141.2656,248.1797 Q141.4219,247.9609 141.6094,247.8516 Q141.7969,247.7422 142.0156,247.7422 Q142.3906,247.7422 142.625,248.0078 Q142.8594,248.2578 142.8594,248.8672 L142.8594,250.3203 Q142.8594,250.9297 142.625,251.1953 Q142.3906,251.4609 142.0156,251.4609 Q141.6719,251.4609 141.4688,251.2578 Q141.2656,251.0703 141.1563,250.5547 Q141.1094,250.1953 140.9219,250.0078 Q140.5938,249.6328 139.9844,249.4141 Q139.375,249.1953 138.75,249.1953 Q137.9844,249.1953 137.3438,249.5234 Q136.7188,249.8516 136.2188,250.6016 Q135.7344,251.3516 135.7344,252.3828 L135.7344,253.4766 Q135.7344,254.7109 136.625,255.5391 Q137.5156,256.3516 139.1094,256.3516 Q140.0469,256.3516 140.7031,256.1016 Q141.0938,255.9453 141.5156,255.5078 Q141.7813,255.2422 141.9219,255.1641 Q142.0781,255.0859 142.2813,255.0859 Q142.6094,255.0859 142.8594,255.3516 Q143.125,255.6016 143.125,255.9453 Q143.125,256.2891 142.7813,256.6953 Q142.2813,257.2734 141.4844,257.6016 Q140.4063,258.0547 139.1094,258.0547 Q137.5938,258.0547 136.3906,257.4297 Q135.4063,256.9297 134.7188,255.8672 Q134.0313,254.7891 134.0313,253.5078 L134.0313,252.3516 Q134.0313,251.0234 134.6406,249.8828 Q135.2656,248.7266 136.3594,248.1172 Q137.4531,247.4922 138.6875,247.4922 Q139.4219,247.4922 140.0625,247.6641 Q140.7188,247.8203 141.2656,248.1797 Z " fill="#000000"/><text fill="#000000" font-family="sans-serif" font-size="12" font-style="italic" lengthAdjust="spacing" textLength="27" x="174.5" y="247.9629">&#171;vo&#187;</text><text fill="#000000" font-family="sans-serif" font-size="14" lengthAdjust="spacing" textLength="71" x="152.5" y="266.082">Description</text><line style="stroke:#181818;stroke-width:0.5;" x1="124.5" x2="225.5" y1="274.5957" y2="274.5957"/><line style="stroke:#181818;stroke-width:0.5;" x1="124.5" x2="225.5" y1="282.5957" y2="282.5957"/></g><!--class Title--><g id="elem_Title"><rect codeLine="49" fill="#F1F1F1" height="60.582" id="Title" rx="2.5" ry="2.5" style="stroke:#181818;stroke-width:0.5;" width="59" x="261.5" y="230.0137"/><ellipse cx="276.5" cy="252.3047" fill="#ADD1B2" rx="11" ry="11" style="stroke:#181818;stroke-width:1.0;"/><path d="M279.2656,248.1797 Q279.4219,247.9609 279.6094,247.8516 Q279.7969,247.7422 280.0156,247.7422 Q280.3906,247.7422 280.625,248.0078 Q280.8594,248.2578 280.8594,248.8672 L280.8594,250.3203 Q280.8594,250.9297 280.625,251.1953 Q280.3906,251.4609 280.0156,251.4609 Q279.6719,251.4609 279.4688,251.2578 Q279.2656,251.0703 279.1563,250.5547 Q279.1094,250.1953 278.9219,250.0078 Q278.5938,249.6328 277.9844,249.4141 Q277.375,249.1953 276.75,249.1953 Q275.9844,249.1953 275.3438,249.5234 Q274.7188,249.8516 274.2188,250.6016 Q273.7344,251.3516 273.7344,252.3828 L273.7344,253.4766 Q273.7344,254.7109 274.625,255.5391 Q275.5156,256.3516 277.1094,256.3516 Q278.0469,256.3516 278.7031,256.1016 Q279.0938,255.9453 279.5156,255.5078 Q279.7813,255.2422 279.9219,255.1641 Q280.0781,255.0859 280.2813,255.0859 Q280.6094,255.0859 280.8594,255.3516 Q281.125,255.6016 281.125,255.9453 Q281.125,256.2891 280.7813,256.6953 Q280.2813,257.2734 279.4844,257.6016 Q278.4063,258.0547 277.1094,258.0547 Q275.5938,258.0547 274.3906,257.4297 Q273.4063,256.9297 272.7188,255.8672 Q272.0313,254.7891 272.0313,253.5078 L272.0313,252.3516 Q272.0313,251.0234 272.6406,249.8828 Q273.2656,248.7266 274.3594,248.1172 Q275.4531,247.4922 276.6875,247.4922 Q277.4219,247.4922 278.0625,247.6641 Q278.7188,247.8203 279.2656,248.1797 Z " fill="#000000"/><text fill="#000000" font-family="sans-serif" font-size="12" font-style="italic" lengthAdjust="spacing" textLength="27" x="290.5" y="247.9629">&#171;vo&#187;</text><text fill="#000000" font-family="sans-serif" font-size="14" lengthAdjust="spacing" textLength="27" x="290.5" y="266.082">Title</text><line style="stroke:#181818;stroke-width:0.5;" x1="262.5" x2="319.5" y1="274.5957" y2="274.5957"/><line style="stroke:#181818;stroke-width:0.5;" x1="262.5" x2="319.5" y1="282.5957" y2="282.5957"/></g><!--class State--><g id="elem_State"><rect codeLine="50" fill="#F1F1F1" height="76.543" id="State" rx="2.5" ry="2.5" style="stroke:#181818;stroke-width:0.5;" width="74" x="356" y="222.0137"/><ellipse cx="371" cy="252.2852" fill="#ADD1B2" rx="11" ry="11" style="stroke:#181818;stroke-width:1.0;"/><path d="M373.7656,248.1602 Q373.9219,247.9414 374.1094,247.832 Q374.2969,247.7227 374.5156,247.7227 Q374.8906,247.7227 375.125,247.9883 Q375.3594,248.2383 375.3594,248.8477 L375.3594,250.3008 Q375.3594,250.9102 375.125,251.1758 Q374.8906,251.4414 374.5156,251.4414 Q374.1719,251.4414 373.9688,251.2383 Q373.7656,251.0508 373.6563,250.5352 Q373.6094,250.1758 373.4219,249.9883 Q373.0938,249.6133 372.4844,249.3945 Q371.875,249.1758 371.25,249.1758 Q370.4844,249.1758 369.8438,249.5039 Q369.2188,249.832 368.7188,250.582 Q368.2344,251.332 368.2344,252.3633 L368.2344,253.457 Q368.2344,254.6914 369.125,255.5195 Q370.0156,256.332 371.6094,256.332 Q372.5469,256.332 373.2031,256.082 Q373.5938,255.9258 374.0156,255.4883 Q374.2813,255.2227 374.4219,255.1445 Q374.5781,255.0664 374.7813,255.0664 Q375.1094,255.0664 375.3594,255.332 Q375.625,255.582 375.625,255.9258 Q375.625,256.2695 375.2813,256.6758 Q374.7813,257.2539 373.9844,257.582 Q372.9063,258.0352 371.6094,258.0352 Q370.0938,258.0352 368.8906,257.4102 Q367.9063,256.9102 367.2188,255.8477 Q366.5313,254.7695 366.5313,253.4883 L366.5313,252.332 Q366.5313,251.0039 367.1406,249.8633 Q367.7656,248.707 368.8594,248.0977 Q369.9531,247.4727 371.1875,247.4727 Q371.9219,247.4727 372.5625,247.6445 Q373.2188,247.8008 373.7656,248.1602 Z " fill="#000000"/><text fill="#000000" font-family="sans-serif" font-size="12" font-style="italic" lengthAdjust="spacing" textLength="27" x="392.5" y="239.9629">&#171;vo&#187;</text><text fill="#000000" font-family="sans-serif" font-size="12" font-style="italic" lengthAdjust="spacing" textLength="46" x="383" y="255.9238">&#171;enum&#187;</text><text fill="#000000" font-family="sans-serif" font-size="14" lengthAdjust="spacing" textLength="33" x="389.5" y="274.043">State</text><line style="stroke:#181818;stroke-width:0.5;" x1="357" x2="429" y1="282.5566" y2="282.5566"/><line style="stroke:#181818;stroke-width:0.5;" x1="357" x2="429" y1="290.5566" y2="290.5566"/></g><!--link Teacher to Exam--><g id="link_Teacher_Exam"><path codeLine="10" d="M776.53,284.5337 C819.02,312.8537 891.03,360.8637 935.92,390.7937 " fill="none" id="Teacher-to-Exam" style="stroke:#181818;stroke-width:1.0;"/><polygon fill="#181818" points="940.18,393.6337,934.9103,385.3132,936.0197,390.8602,930.4727,391.9696,940.18,393.6337" style="stroke:#181818;stroke-width:1.0;"/><text fill="#000000" font-family="sans-serif" font-size="13" lengthAdjust="spacing" textLength="43" x="875" y="346.042">creates</text><text fill="#000000" font-family="sans-serif" font-size="13" lengthAdjust="spacing" textLength="5" x="927.2765" y="383.8545">*</text></g><!--link Exam to ExamTitle--><g id="link_Exam_ExamTitle"><path codeLine="11" d="M940.49,435.1537 C892.23,456.6637 803.53,497.1537 730,536.0137 C725.73,538.2737 721.34,540.6737 716.95,543.1237 " fill="none" id="Exam-to-ExamTitle" style="stroke:#181818;stroke-width:1.0;"/><polygon fill="#181818" points="712.57,545.5937,722.3742,544.6569,716.9252,543.1376,718.4445,537.6886,712.57,545.5937" style="stroke:#181818;stroke-width:1.0;"/><text fill="#000000" font-family="sans-serif" font-size="13" lengthAdjust="spacing" textLength="7" x="720.5499" y="536.7147">1</text></g><!--link Exam to ExamHeaderTextualDescription--><g id="link_Exam_ExamHeaderTextualDescription"><path codeLine="12" d="M948.11,457.1837 C929.42,482.4437 905.01,515.4037 886.96,539.7937 " fill="none" id="Exam-to-ExamHeaderTextualDescription" style="stroke:#181818;stroke-width:1.0;"/><polygon fill="#181818" points="883.89,543.9337,892.4625,539.0847,886.8672,539.9166,886.0353,534.3213,883.89,543.9337" style="stroke:#181818;stroke-width:1.0;"/><text fill="#000000" font-family="sans-serif" font-size="13" lengthAdjust="spacing" textLength="22" x="864.1361" y="532.9749">0..1</text></g><!--link Exam to Course--><g id="link_Exam_Course"><path codeLine="13" d="M1011.68,426.1037 C1083.43,440.1437 1249.32,476.6937 1378,536.0137 C1384.99,539.2337 1392.11,543.2437 1398.83,547.4237 " fill="none" id="Exam-to-Course" style="stroke:#181818;stroke-width:1.0;"/><polygon fill="#181818" points="1403.42,550.3337,1397.9674,542.1319,1399.1993,547.653,1393.6783,548.885,1403.42,550.3337" style="stroke:#181818;stroke-width:1.0;"/><text fill="#000000" font-family="sans-serif" font-size="13" lengthAdjust="spacing" textLength="60" x="1306" y="502.042">belongs to</text><text fill="#000000" font-family="sans-serif" font-size="13" lengthAdjust="spacing" textLength="7" x="1387.8693" y="539.4317">1</text></g><!--link Exam to ExamType--><g id="link_Exam_ExamType"><path codeLine="14" d="M940.32,427.9837 C872.74,444.5837 722.11,484.3637 602,536.0137 C597.68,537.8737 593.29,539.9237 588.91,542.0937 " fill="none" id="Exam-to-ExamType" style="stroke:#181818;stroke-width:1.0;"/><polygon fill="#181818" points="584.18,544.4837,594.0169,543.9988,588.6435,542.2305,590.4119,536.8571,584.18,544.4837" style="stroke:#181818;stroke-width:1.0;"/><text fill="#000000" font-family="sans-serif" font-size="13" lengthAdjust="spacing" textLength="7" x="591.9174" y="535.9078">1</text></g><!--link Exam to ExamInitalDateTime--><g id="link_Exam_ExamInitalDateTime"><path codeLine="15" d="M1003.89,457.1837 C1022.58,482.4437 1046.99,515.4037 1065.04,539.7937 " fill="none" id="Exam-to-ExamInitalDateTime" style="stroke:#181818;stroke-width:1.0;"/><polygon fill="#181818" points="1068.11,543.9337,1065.9647,534.3213,1065.1328,539.9166,1059.5375,539.0847,1068.11,543.9337" style="stroke:#181818;stroke-width:1.0;"/><text fill="#000000" font-family="sans-serif" font-size="13" lengthAdjust="spacing" textLength="7" x="1055.8733" y="532.9749">1</text></g><!--link Exam to ExamFinalDateTime--><g id="link_Exam_ExamFinalDateTime"><path codeLine="16" d="M1011.7,437.4837 C1062.33,462.9637 1155.78,509.9937 1218.42,541.5137 " fill="none" id="Exam-to-ExamFinalDateTime" style="stroke:#181818;stroke-width:1.0;"/><polygon fill="#181818" points="1223.26,543.9537,1217.0281,536.3271,1218.7965,541.7005,1213.4231,543.4688,1223.26,543.9537" style="stroke:#181818;stroke-width:1.0;"/><text fill="#000000" font-family="sans-serif" font-size="13" lengthAdjust="spacing" textLength="7" x="1202.645" y="532.5152">1</text></g><!--reverse link ExamSection to Exam--><g id="link_ExamSection_Exam"><path codeLine="24" d="M2593.54,302.0937 C2579.99,310.4437 2565,318.1637 2550,323.0137 C2250.27,419.8537 1217.51,418.9537 1011.8,417.7837 " fill="none" id="ExamSection-backto-Exam" style="stroke:#181818;stroke-width:1.0;"/><polygon fill="#181818" points="2598.08,299.2337,2588.3348,300.6589,2593.8529,301.9042,2592.6076,307.4223,2598.08,299.2337" style="stroke:#181818;stroke-width:1.0;"/><text fill="#000000" font-family="sans-serif" font-size="13" lengthAdjust="spacing" textLength="5" x="2585.2063" y="320.5498">*</text></g><!--link ExamSection to ExamSectionTextualDescription--><g id="link_ExamSection_ExamSectionTextualDescription"><path codeLine="25" d="M2661.04,299.2737 C2670.53,324.8037 2682.97,358.2537 2692.19,383.0637 " fill="none" id="ExamSection-to-ExamSectionTextualDescription" style="stroke:#181818;stroke-width:1.0;"/><polygon fill="#181818" points="2693.99,387.9037,2694.6015,378.0738,2692.2469,383.2173,2687.1034,380.8628,2693.99,387.9037" style="stroke:#181818;stroke-width:1.0;"/><text fill="#000000" font-family="sans-serif" font-size="13" lengthAdjust="spacing" textLength="22" x="2667.4504" y="376.9387">0..1</text></g><!--reverse link ExamQuestion to ExamSection--><g id="link_ExamQuestion_ExamSection"><path codeLine="36" d="M2221.87,88.8837 C2303.17,98.7337 2442.8,122.5837 2550,177.0137 C2572.27,188.3237 2593.78,205.7237 2610.86,221.6337 " fill="none" id="ExamQuestion-backto-ExamSection" style="stroke:#181818;stroke-width:1.0;"/><polygon fill="#181818" points="2216.6,88.2537,2225.0702,93.2793,2221.5657,88.8387,2226.0062,85.3342,2216.6,88.2537" style="stroke:#181818;stroke-width:1.0;"/><text fill="#000000" font-family="sans-serif" font-size="13" lengthAdjust="spacing" textLength="5" x="2224.4122" y="85.1131">*</text></g><!--link ExamQuestion to ExamQuestionValue--><g id="link_ExamQuestion_ExamQuestionValue"><path codeLine="37" d="M2133.58,120.0537 C2115.75,151.2937 2090.59,195.3837 2073.36,225.5837 " fill="none" id="ExamQuestion-to-ExamQuestionValue" style="stroke:#181818;stroke-width:1.0;"/><polygon fill="#181818" points="2070.88,229.9337,2078.8079,224.09,2073.353,225.5881,2071.8549,220.1332,2070.88,229.9337" style="stroke:#181818;stroke-width:1.0;"/><text fill="#000000" font-family="sans-serif" font-size="13" lengthAdjust="spacing" textLength="7" x="2066.6396" y="218.9749">1</text></g><!--link ExamQuestion to ExamQuestionFeedback--><g id="link_ExamQuestion_ExamQuestionFeedback"><path codeLine="38" d="M2093.19,108.3037 C2053.31,125.8337 2000.88,150.5737 1957,177.0137 C1932.51,191.7637 1906.79,210.6437 1886.28,226.6137 " fill="none" id="ExamQuestion-to-ExamQuestionFeedback" style="stroke:#181818;stroke-width:1.0;"/><polygon fill="#181818" points="1882.25,229.7637,1891.8028,227.3669,1886.1875,226.6821,1886.8723,221.0669,1882.25,229.7637" style="stroke:#181818;stroke-width:1.0;"/><text fill="#000000" font-family="sans-serif" font-size="13" lengthAdjust="spacing" textLength="5" x="1884.2109" y="218.7698">*</text></g><!--link ExamQuestion to ExamQuestionSolution--><g id="link_ExamQuestion_ExamQuestionSolution"><path codeLine="39" d="M2176.42,120.0537 C2194.25,151.2937 2219.41,195.3837 2236.64,225.5837 " fill="none" id="ExamQuestion-to-ExamQuestionSolution" style="stroke:#181818;stroke-width:1.0;"/><polygon fill="#181818" points="2239.12,229.9337,2238.1451,220.1332,2236.647,225.5881,2231.1921,224.09,2239.12,229.9337" style="stroke:#181818;stroke-width:1.0;"/><text fill="#000000" font-family="sans-serif" font-size="13" lengthAdjust="spacing" textLength="7" x="2227.9166" y="218.9749">1</text></g><!--link ExamQuestion to ExamQuestionType--><g id="link_ExamQuestion_ExamQuestionType"><path codeLine="40" d="M2216.86,105.4837 C2259.07,122.4337 2315.36,147.5937 2361,177.0137 C2379.45,188.9037 2398.05,204.1737 2413.84,218.3337 " fill="none" id="ExamQuestion-to-ExamQuestionType" style="stroke:#181818;stroke-width:1.0;"/><polygon fill="#181818" points="2417.8,221.9037,2413.8053,212.9013,2414.0906,218.551,2408.441,218.8363,2417.8,221.9037" style="stroke:#181818;stroke-width:1.0;"/><text fill="#000000" font-family="sans-serif" font-size="13" lengthAdjust="spacing" textLength="7" x="2403.3722" y="210.6071">1</text></g><!--link ExamQuestion to ExamQuestionStatement--><g id="link_ExamQuestion_ExamQuestionStatement"><path codeLine="41" d="M2093.15,88.4137 C2009.09,98.2037 1855.56,122.4237 1736,177.0137 C1708.61,189.5237 1681.33,209.4137 1660.55,226.5337 " fill="none" id="ExamQuestion-to-ExamQuestionStatement" style="stroke:#181818;stroke-width:1.0;"/><polygon fill="#181818" points="1656.49,229.9237,1665.9657,227.2384,1660.3323,226.7242,1660.8465,221.0907,1656.49,229.9237" style="stroke:#181818;stroke-width:1.0;"/><text fill="#000000" font-family="sans-serif" font-size="13" lengthAdjust="spacing" textLength="7" x="1655.4692" y="218.9628">1</text></g><!--link Course to State--><g id="link_Course_State"><path codeLine="52" d="M312.63,120.0537 C329.01,148.4637 351.51,187.5137 368.54,217.0637 " fill="none" id="Course-to-State" style="stroke:#181818;stroke-width:1.0;"/><polygon fill="#181818" points="371.22,221.7237,370.2069,211.9271,368.7301,217.3877,363.2694,215.911,371.22,221.7237" style="stroke:#181818;stroke-width:1.0;"/><text fill="#000000" font-family="sans-serif" font-size="13" lengthAdjust="spacing" textLength="7" x="359.875" y="210.6883">1</text></g><!--link Course to Title--><g id="link_Course_Title"><path codeLine="53" d="M291,120.0537 C291,151.0337 291,194.6637 291,224.8337 " fill="none" id="Course-to-Title" style="stroke:#181818;stroke-width:1.0;"/><polygon fill="#181818" points="291,229.9337,295,220.9337,291,224.9337,287,220.9337,291,229.9337" style="stroke:#181818;stroke-width:1.0;"/><text fill="#000000" font-family="sans-serif" font-size="13" lengthAdjust="spacing" textLength="7" x="283.2781" y="218.9749">1</text></g><!--link Course to Description--><g id="link_Course_Description"><path codeLine="54" d="M266.4,120.0537 C245.93,151.2937 217.03,195.3837 197.24,225.5837 " fill="none" id="Course-to-Description" style="stroke:#181818;stroke-width:1.0;"/><polygon fill="#181818" points="194.39,229.9337,202.6685,224.5983,197.1305,225.7516,195.9772,220.2135,194.39,229.9337" style="stroke:#181818;stroke-width:1.0;"/><text fill="#000000" font-family="sans-serif" font-size="13" lengthAdjust="spacing" textLength="7" x="190.6673" y="218.9749">1</text></g><!--link Course to Code--><g id="link_Course_Code"><path codeLine="55" d="M251.87,95.3637 C211.63,110.0937 148.96,137.4137 106,177.0137 C91.29,190.5737 79.24,209.3237 70.56,225.5137 " fill="none" id="Course-to-Code" style="stroke:#181818;stroke-width:1.0;"/><polygon fill="#181818" points="68.2,230.0137,75.9135,223.8898,70.5158,225.5823,68.8233,220.1846,68.2,230.0137" style="stroke:#181818;stroke-width:1.0;"/><text fill="#000000" font-family="sans-serif" font-size="13" lengthAdjust="spacing" textLength="7" x="63.3219" y="218.5883">1</text></g><!--link Course to Teacher--><g id="link_Course_Teacher"><path codeLine="56" d="M330.23,97.9137 C412.98,130.3837 605.08,205.7737 694.56,240.8937 " fill="none" id="Course-to-Teacher" style="stroke:#181818;stroke-width:1.0;"/><polygon fill="#181818" points="699.26,242.7437,692.3445,235.7311,694.6059,240.9163,689.4207,243.1777,699.26,242.7437" style="stroke:#181818;stroke-width:1.0;"/><text fill="#000000" font-family="sans-serif" font-size="13" lengthAdjust="spacing" textLength="60" x="504" y="165.042">is ruled by</text><text fill="#000000" font-family="sans-serif" font-size="13" lengthAdjust="spacing" textLength="5" x="686.4844" y="235.2818">*</text></g><!--SRC=[ZPHDRuCm38Rl_8g8OoMgxLgXNBfLst42xPw2rKK3WlAnjQhstvUaf0MIbFPIoUyZuzTst9Fgcnm0fNbE3Xoz7acBSNfEaFvL3H72XX3AS-WabIUCyvmp9Z56vxyPLPvwiA1g3VR3CFOPAXi31SKt83Nm4evIaUO5HCLfBodhOlnxHwK6YOIIjYwhNzUETXwb8KkLGAelu2ZBC4fNwSNj1bKSD2yiOaDMVqvl7cRIqtezg34JVgujKro0_jeU6jOT198iya7TsB0oxK2OcTXF4csyzuTUG6MA3Cn-K1xQW86zDy5hZIwlwNgUPJRcYRFUHlD7N7qe415RJWhuycmvjf2wYwt6Omlfm1r0lTVbB76Vf56m11MiKUP_0HjUds7S6not- -fttE-Xdpuqtfz9iH5qbGRzFvRO6NoCdZo6-tdTk49BVtbyiyMu11SsOijgr-XHTBICWK7Pan68snB3GnkkmzMPHQTApNwxGRtTf90wFqCXnjWQYswkxa9k41M8gmPgj3ybfgN_]--></g></svg>