<?xml version="1.0" encoding="UTF-8" standalone="no"?><svg xmlns="http://www.w3.org/2000/svg" xmlns:xlink="http://www.w3.org/1999/xlink" contentStyleType="text/css" height="703px" preserveAspectRatio="none" style="width:1575px;height:703px;background:#FFFFFF;" version="1.1" viewBox="0 0 1575 703" width="1575px" zoomAndPan="magnify"><defs/><g><!--MD5=[81c007f21ad3946212f5110e7acef90b]
class ListUsersByRoleUI--><g id="elem_ListUsersByRoleUI"><rect codeLine="2" fill="#F1F1F1" height="100.8281" id="ListUsersByRoleUI" rx="2.5" ry="2.5" style="stroke:#181818;stroke-width:0.5;" width="297" x="768.5" y="7"/><ellipse cx="853.75" cy="23" fill="#B4A7E5" rx="11" ry="11" style="stroke:#181818;stroke-width:1.0;"/><path d="M854.75,20 L854.75,26 L856.75,26 L857.2344,26 L857.75,26.625 L857.75,27 L857.75,27.375 L857.2344,28 L856.75,28 L850.75,28 L850.2656,28 L849.75,27.375 L849.75,27 L849.75,26.625 L850.2656,26 L850.75,26 L852.75,26 L852.75,20 L850.75,20 L850.2656,20 L849.75,19.375 L849.75,19 L849.75,18.625 L850.2656,18 L850.75,18 L856.75,18 L857.2344,18 L857.75,18.625 L857.75,19 L857.75,19.375 L857.2344,20 L856.75,20 L854.75,20 Z " fill="#000000"/><text fill="#000000" font-family="sans-serif" font-size="14" font-style="italic" lengthAdjust="spacing" textLength="118" x="874.25" y="28.7285">ListUsersByRoleUI</text><line style="stroke:#181818;stroke-width:0.5;" x1="769.5" x2="1064.5" y1="39" y2="39"/><line style="stroke:#181818;stroke-width:0.5;" x1="769.5" x2="1064.5" y1="47" y2="47"/><ellipse cx="779.5" cy="61.3047" fill="#84BE84" rx="3" ry="3" style="stroke:#038048;stroke-width:1.0;"/><text fill="#000000" font-family="sans-serif" font-size="14" lengthAdjust="spacing" textLength="221" x="788.5" y="65.5332">showListOfRoles(roles: List&lt;Role&gt;)</text><ellipse cx="779.5" cy="78.9141" fill="#84BE84" rx="3" ry="3" style="stroke:#038048;stroke-width:1.0;"/><text fill="#000000" font-family="sans-serif" font-size="14" lengthAdjust="spacing" textLength="183" x="788.5" y="83.1426">getUserRoleSelection(): Role</text><ellipse cx="779.5" cy="96.5234" fill="#84BE84" rx="3" ry="3" style="stroke:#038048;stroke-width:1.0;"/><text fill="#000000" font-family="sans-serif" font-size="14" lengthAdjust="spacing" textLength="271" x="788.5" y="100.752">showListOfUsers(users: List&lt;SystemUser&gt;)</text></g><!--MD5=[621e31afed9bac92599b7064c4e6b330]
class ShowRolesService--><g id="elem_ShowRolesService"><rect codeLine="8" fill="#F1F1F1" height="100.8281" id="ShowRolesService" rx="2.5" ry="2.5" style="stroke:#181818;stroke-width:0.5;" width="292" x="395" y="168"/><ellipse cx="478.25" cy="184" fill="#ADD1B2" rx="11" ry="11" style="stroke:#181818;stroke-width:1.0;"/><path d="M480.25,180.5 Q480.4531,180 480.6875,179.75 Q480.9219,179.5 481.1875,179.5 Q481.6563,179.5 481.9531,179.7813 Q482.25,180.0625 482.25,180.7188 L482.25,182.2813 Q482.25,182.9375 481.9688,183.2188 Q481.6875,183.5 481.25,183.5 Q480.8594,183.5 480.6094,183.3281 Q480.3594,183.1563 480.25,182.7031 Q480.2031,182.3906 480.0313,182.2188 Q479.7188,181.8906 479.1563,181.7031 Q478.5938,181.5 478.0313,181.5 Q477.3281,181.5 476.7344,181.7813 Q476.1563,182.0625 475.7031,182.6875 Q475.25,183.3125 475.25,184.1719 L475.25,185.0938 Q475.25,186.125 476.0938,186.8125 Q476.9375,187.5 478.4375,187.5 Q479.3281,187.5 479.9531,187.2969 Q480.3125,187.1875 480.7188,186.8281 Q480.9844,186.625 481.125,186.5625 Q481.2656,186.5 481.4375,186.5 Q481.7656,186.5 482,186.7656 Q482.25,187.0156 482.25,187.375 Q482.25,187.7188 481.9063,188.125 Q481.4063,188.7188 480.6094,189.0469 Q479.5625,189.5 478.2813,189.5 Q476.7813,189.5 475.5781,188.9063 Q474.6094,188.4375 473.9219,187.4219 Q473.25,186.4063 473.25,185.2031 L473.25,184.1094 Q473.25,182.8594 473.8438,181.7656 Q474.4531,180.6719 475.5,180.0938 Q476.5625,179.5 477.75,179.5 Q478.4688,179.5 479.0938,179.75 Q479.7188,180 480.25,180.5 Z " fill="#000000"/><text fill="#000000" font-family="sans-serif" font-size="14" lengthAdjust="spacing" textLength="117" x="498.75" y="189.7285">ShowRolesService</text><line style="stroke:#181818;stroke-width:0.5;" x1="396" x2="686" y1="200" y2="200"/><rect fill="none" height="6" style="stroke:#C82930;stroke-width:1.0;" width="6" x="403" y="211.3047"/><text fill="#000000" font-family="sans-serif" font-size="14" lengthAdjust="spacing" textLength="265" x="415" y="218.5332">authorizationService: AuthorizationService</text><rect fill="none" height="6" style="stroke:#C82930;stroke-width:1.0;" width="6" x="403" y="228.9141"/><text fill="#000000" font-family="sans-serif" font-size="14" lengthAdjust="spacing" textLength="266" x="415" y="236.1426">userRepository: ELearningUserRepository</text><line style="stroke:#181818;stroke-width:0.5;" x1="396" x2="686" y1="243.2188" y2="243.2188"/><ellipse cx="406" cy="257.5234" fill="#84BE84" rx="3" ry="3" style="stroke:#038048;stroke-width:1.0;"/><text fill="#000000" font-family="sans-serif" font-size="14" lengthAdjust="spacing" textLength="153" x="415" y="261.752">showRoles(): List&lt;Role&gt;</text></g><!--MD5=[36ec81a6731560bd87a3a9e050e1ed3e]
class ListUsersByRoleController--><g id="elem_ListUsersByRoleController"><rect codeLine="14" fill="#F1F1F1" height="100.8281" id="ListUsersByRoleController" rx="2.5" ry="2.5" style="stroke:#181818;stroke-width:0.5;" width="316" x="759" y="168"/><ellipse cx="830.25" cy="184" fill="#ADD1B2" rx="11" ry="11" style="stroke:#181818;stroke-width:1.0;"/><path d="M832.25,180.5 Q832.4531,180 832.6875,179.75 Q832.9219,179.5 833.1875,179.5 Q833.6563,179.5 833.9531,179.7813 Q834.25,180.0625 834.25,180.7188 L834.25,182.2813 Q834.25,182.9375 833.9688,183.2188 Q833.6875,183.5 833.25,183.5 Q832.8594,183.5 832.6094,183.3281 Q832.3594,183.1563 832.25,182.7031 Q832.2031,182.3906 832.0313,182.2188 Q831.7188,181.8906 831.1563,181.7031 Q830.5938,181.5 830.0313,181.5 Q829.3281,181.5 828.7344,181.7813 Q828.1563,182.0625 827.7031,182.6875 Q827.25,183.3125 827.25,184.1719 L827.25,185.0938 Q827.25,186.125 828.0938,186.8125 Q828.9375,187.5 830.4375,187.5 Q831.3281,187.5 831.9531,187.2969 Q832.3125,187.1875 832.7188,186.8281 Q832.9844,186.625 833.125,186.5625 Q833.2656,186.5 833.4375,186.5 Q833.7656,186.5 834,186.7656 Q834.25,187.0156 834.25,187.375 Q834.25,187.7188 833.9063,188.125 Q833.4063,188.7188 832.6094,189.0469 Q831.5625,189.5 830.2813,189.5 Q828.7813,189.5 827.5781,188.9063 Q826.6094,188.4375 825.9219,187.4219 Q825.25,186.4063 825.25,185.2031 L825.25,184.1094 Q825.25,182.8594 825.8438,181.7656 Q826.4531,180.6719 827.5,180.0938 Q828.5625,179.5 829.75,179.5 Q830.4688,179.5 831.0938,179.75 Q831.7188,180 832.25,180.5 Z " fill="#000000"/><text fill="#000000" font-family="sans-serif" font-size="14" lengthAdjust="spacing" textLength="165" x="850.75" y="189.7285">ListUsersByRoleController</text><line style="stroke:#181818;stroke-width:0.5;" x1="760" x2="1074" y1="200" y2="200"/><rect fill="none" height="6" style="stroke:#C82930;stroke-width:1.0;" width="6" x="767" y="211.3047"/><text fill="#000000" font-family="sans-serif" font-size="14" lengthAdjust="spacing" textLength="265" x="779" y="218.5332">authorizationService: AuthorizationService</text><rect fill="none" height="6" style="stroke:#C82930;stroke-width:1.0;" width="6" x="767" y="228.9141"/><text fill="#000000" font-family="sans-serif" font-size="14" lengthAdjust="spacing" textLength="162" x="779" y="236.1426">userService: IUserService</text><line style="stroke:#181818;stroke-width:0.5;" x1="760" x2="1074" y1="243.2188" y2="243.2188"/><ellipse cx="770" cy="257.5234" fill="#84BE84" rx="3" ry="3" style="stroke:#038048;stroke-width:1.0;"/><text fill="#000000" font-family="sans-serif" font-size="14" lengthAdjust="spacing" textLength="290" x="779" y="261.752">listUsersByRole(role: Role): List&lt;SystemUser&gt;</text></g><!--MD5=[54a33dd013dd881697601ca49de6dfbc]
class AuthorizationService--><g id="elem_AuthorizationService"><rect codeLine="20" fill="#F1F1F1" height="65.6094" id="AuthorizationService" rx="2.5" ry="2.5" style="stroke:#181818;stroke-width:0.5;" width="365" x="358.5" y="337.5"/><ellipse cx="472.25" cy="353.5" fill="#B4A7E5" rx="11" ry="11" style="stroke:#181818;stroke-width:1.0;"/><path d="M473.25,350.5 L473.25,356.5 L475.25,356.5 L475.7344,356.5 L476.25,357.125 L476.25,357.5 L476.25,357.875 L475.7344,358.5 L475.25,358.5 L469.25,358.5 L468.7656,358.5 L468.25,357.875 L468.25,357.5 L468.25,357.125 L468.7656,356.5 L469.25,356.5 L471.25,356.5 L471.25,350.5 L469.25,350.5 L468.7656,350.5 L468.25,349.875 L468.25,349.5 L468.25,349.125 L468.7656,348.5 L469.25,348.5 L475.25,348.5 L475.7344,348.5 L476.25,349.125 L476.25,349.5 L476.25,349.875 L475.7344,350.5 L475.25,350.5 L473.25,350.5 Z " fill="#000000"/><text fill="#000000" font-family="sans-serif" font-size="14" font-style="italic" lengthAdjust="spacing" textLength="129" x="492.75" y="359.2285">AuthorizationService</text><line style="stroke:#181818;stroke-width:0.5;" x1="359.5" x2="722.5" y1="369.5" y2="369.5"/><line style="stroke:#181818;stroke-width:0.5;" x1="359.5" x2="722.5" y1="377.5" y2="377.5"/><ellipse cx="369.5" cy="391.8047" fill="#84BE84" rx="3" ry="3" style="stroke:#038048;stroke-width:1.0;"/><text fill="#000000" font-family="sans-serif" font-size="14" lengthAdjust="spacing" textLength="339" x="378.5" y="396.0332">ensureAuthenticatedUserHasAnyOf(roles: List&lt;Role&gt;)</text></g><!--MD5=[f422a882130148b3e6b64e0cf3254178]
class IUserService--><g id="elem_IUserService"><rect codeLine="24" fill="#F1F1F1" height="65.6094" id="IUserService" rx="2.5" ry="2.5" style="stroke:#181818;stroke-width:0.5;" width="316" x="759" y="337.5"/><ellipse cx="872.75" cy="353.5" fill="#B4A7E5" rx="11" ry="11" style="stroke:#181818;stroke-width:1.0;"/><path d="M873.75,350.5 L873.75,356.5 L875.75,356.5 L876.2344,356.5 L876.75,357.125 L876.75,357.5 L876.75,357.875 L876.2344,358.5 L875.75,358.5 L869.75,358.5 L869.2656,358.5 L868.75,357.875 L868.75,357.5 L868.75,357.125 L869.2656,356.5 L869.75,356.5 L871.75,356.5 L871.75,350.5 L869.75,350.5 L869.2656,350.5 L868.75,349.875 L868.75,349.5 L868.75,349.125 L869.2656,348.5 L869.75,348.5 L875.75,348.5 L876.2344,348.5 L876.75,349.125 L876.75,349.5 L876.75,349.875 L876.2344,350.5 L875.75,350.5 L873.75,350.5 Z " fill="#000000"/><text fill="#000000" font-family="sans-serif" font-size="14" font-style="italic" lengthAdjust="spacing" textLength="80" x="893.25" y="359.2285">IUserService</text><line style="stroke:#181818;stroke-width:0.5;" x1="760" x2="1074" y1="369.5" y2="369.5"/><line style="stroke:#181818;stroke-width:0.5;" x1="760" x2="1074" y1="377.5" y2="377.5"/><ellipse cx="770" cy="391.8047" fill="#84BE84" rx="3" ry="3" style="stroke:#038048;stroke-width:1.0;"/><text fill="#000000" font-family="sans-serif" font-size="14" lengthAdjust="spacing" textLength="290" x="779" y="396.0332">listUsersByRole(role: Role): List&lt;SystemUser&gt;</text></g><!--MD5=[e4ac4745f81aec2db60ad4ddae80b659]
class UserService--><g id="elem_UserService"><rect codeLine="28" fill="#F1F1F1" height="83.2188" id="UserService" rx="2.5" ry="2.5" style="stroke:#181818;stroke-width:0.5;" width="316" x="1252" y="177"/><ellipse cx="1367.75" cy="193" fill="#ADD1B2" rx="11" ry="11" style="stroke:#181818;stroke-width:1.0;"/><path d="M1369.75,189.5 Q1369.9531,189 1370.1875,188.75 Q1370.4219,188.5 1370.6875,188.5 Q1371.1563,188.5 1371.4531,188.7813 Q1371.75,189.0625 1371.75,189.7188 L1371.75,191.2813 Q1371.75,191.9375 1371.4688,192.2188 Q1371.1875,192.5 1370.75,192.5 Q1370.3594,192.5 1370.1094,192.3281 Q1369.8594,192.1563 1369.75,191.7031 Q1369.7031,191.3906 1369.5313,191.2188 Q1369.2188,190.8906 1368.6563,190.7031 Q1368.0938,190.5 1367.5313,190.5 Q1366.8281,190.5 1366.2344,190.7813 Q1365.6563,191.0625 1365.2031,191.6875 Q1364.75,192.3125 1364.75,193.1719 L1364.75,194.0938 Q1364.75,195.125 1365.5938,195.8125 Q1366.4375,196.5 1367.9375,196.5 Q1368.8281,196.5 1369.4531,196.2969 Q1369.8125,196.1875 1370.2188,195.8281 Q1370.4844,195.625 1370.625,195.5625 Q1370.7656,195.5 1370.9375,195.5 Q1371.2656,195.5 1371.5,195.7656 Q1371.75,196.0156 1371.75,196.375 Q1371.75,196.7188 1371.4063,197.125 Q1370.9063,197.7188 1370.1094,198.0469 Q1369.0625,198.5 1367.7813,198.5 Q1366.2813,198.5 1365.0781,197.9063 Q1364.1094,197.4375 1363.4219,196.4219 Q1362.75,195.4063 1362.75,194.2031 L1362.75,193.1094 Q1362.75,191.8594 1363.3438,190.7656 Q1363.9531,189.6719 1365,189.0938 Q1366.0625,188.5 1367.25,188.5 Q1367.9688,188.5 1368.5938,188.75 Q1369.2188,189 1369.75,189.5 Z " fill="#000000"/><text fill="#000000" font-family="sans-serif" font-size="14" lengthAdjust="spacing" textLength="76" x="1388.25" y="198.7285">UserService</text><line style="stroke:#181818;stroke-width:0.5;" x1="1253" x2="1567" y1="209" y2="209"/><rect fill="none" height="6" style="stroke:#C82930;stroke-width:1.0;" width="6" x="1260" y="220.3047"/><text fill="#000000" font-family="sans-serif" font-size="14" lengthAdjust="spacing" textLength="247" x="1272" y="227.5332">userRepository: SystemUserRepository</text><line style="stroke:#181818;stroke-width:0.5;" x1="1253" x2="1567" y1="234.6094" y2="234.6094"/><ellipse cx="1263" cy="248.9141" fill="#84BE84" rx="3" ry="3" style="stroke:#038048;stroke-width:1.0;"/><text fill="#000000" font-family="sans-serif" font-size="14" lengthAdjust="spacing" textLength="290" x="1272" y="253.1426">listUsersByRole(role: Role): List&lt;SystemUser&gt;</text></g><!--MD5=[190949231cda7e659034cb685518bdef]
class ELearningUserRepository--><g id="elem_ELearningUserRepository"><rect codeLine="33" fill="#F1F1F1" height="83.2188" id="ELearningUserRepository" rx="2.5" ry="2.5" style="stroke:#181818;stroke-width:0.5;" width="316" x="7" y="329"/><ellipse cx="79.75" cy="345" fill="#ADD1B2" rx="11" ry="11" style="stroke:#181818;stroke-width:1.0;"/><path d="M81.75,341.5 Q81.9531,341 82.1875,340.75 Q82.4219,340.5 82.6875,340.5 Q83.1563,340.5 83.4531,340.7813 Q83.75,341.0625 83.75,341.7188 L83.75,343.2813 Q83.75,343.9375 83.4688,344.2188 Q83.1875,344.5 82.75,344.5 Q82.3594,344.5 82.1094,344.3281 Q81.8594,344.1563 81.75,343.7031 Q81.7031,343.3906 81.5313,343.2188 Q81.2188,342.8906 80.6563,342.7031 Q80.0938,342.5 79.5313,342.5 Q78.8281,342.5 78.2344,342.7813 Q77.6563,343.0625 77.2031,343.6875 Q76.75,344.3125 76.75,345.1719 L76.75,346.0938 Q76.75,347.125 77.5938,347.8125 Q78.4375,348.5 79.9375,348.5 Q80.8281,348.5 81.4531,348.2969 Q81.8125,348.1875 82.2188,347.8281 Q82.4844,347.625 82.625,347.5625 Q82.7656,347.5 82.9375,347.5 Q83.2656,347.5 83.5,347.7656 Q83.75,348.0156 83.75,348.375 Q83.75,348.7188 83.4063,349.125 Q82.9063,349.7188 82.1094,350.0469 Q81.0625,350.5 79.7813,350.5 Q78.2813,350.5 77.0781,349.9063 Q76.1094,349.4375 75.4219,348.4219 Q74.75,347.4063 74.75,346.2031 L74.75,345.1094 Q74.75,343.8594 75.3438,342.7656 Q75.9531,341.6719 77,341.0938 Q78.0625,340.5 79.25,340.5 Q79.9688,340.5 80.5938,340.75 Q81.2188,341 81.75,341.5 Z " fill="#000000"/><text fill="#000000" font-family="sans-serif" font-size="14" lengthAdjust="spacing" textLength="162" x="100.25" y="350.7285">ELearningUserRepository</text><line style="stroke:#181818;stroke-width:0.5;" x1="8" x2="322" y1="361" y2="361"/><line style="stroke:#181818;stroke-width:0.5;" x1="8" x2="322" y1="369" y2="369"/><ellipse cx="18" cy="383.3047" fill="#84BE84" rx="3" ry="3" style="stroke:#038048;stroke-width:1.0;"/><text fill="#000000" font-family="sans-serif" font-size="14" lengthAdjust="spacing" textLength="156" x="27" y="387.5332">show_roles(): List&lt;Role&gt;</text><ellipse cx="18" cy="400.9141" fill="#84BE84" rx="3" ry="3" style="stroke:#038048;stroke-width:1.0;"/><text fill="#000000" font-family="sans-serif" font-size="14" lengthAdjust="spacing" textLength="290" x="27" y="405.1426">listUsersByRole(role: Role): List&lt;SystemUser&gt;</text></g><!--MD5=[5b96646d89acb44171a8e38db7a4047c]
class SystemUserRepository--><g id="elem_SystemUserRepository"><rect codeLine="38" fill="#F1F1F1" height="65.6094" id="SystemUserRepository" rx="2.5" ry="2.5" style="stroke:#181818;stroke-width:0.5;" width="316" x="1252" y="337.5"/><ellipse cx="1334.25" cy="353.5" fill="#ADD1B2" rx="11" ry="11" style="stroke:#181818;stroke-width:1.0;"/><path d="M1336.25,350 Q1336.4531,349.5 1336.6875,349.25 Q1336.9219,349 1337.1875,349 Q1337.6563,349 1337.9531,349.2813 Q1338.25,349.5625 1338.25,350.2188 L1338.25,351.7813 Q1338.25,352.4375 1337.9688,352.7188 Q1337.6875,353 1337.25,353 Q1336.8594,353 1336.6094,352.8281 Q1336.3594,352.6563 1336.25,352.2031 Q1336.2031,351.8906 1336.0313,351.7188 Q1335.7188,351.3906 1335.1563,351.2031 Q1334.5938,351 1334.0313,351 Q1333.3281,351 1332.7344,351.2813 Q1332.1563,351.5625 1331.7031,352.1875 Q1331.25,352.8125 1331.25,353.6719 L1331.25,354.5938 Q1331.25,355.625 1332.0938,356.3125 Q1332.9375,357 1334.4375,357 Q1335.3281,357 1335.9531,356.7969 Q1336.3125,356.6875 1336.7188,356.3281 Q1336.9844,356.125 1337.125,356.0625 Q1337.2656,356 1337.4375,356 Q1337.7656,356 1338,356.2656 Q1338.25,356.5156 1338.25,356.875 Q1338.25,357.2188 1337.9063,357.625 Q1337.4063,358.2188 1336.6094,358.5469 Q1335.5625,359 1334.2813,359 Q1332.7813,359 1331.5781,358.4063 Q1330.6094,357.9375 1329.9219,356.9219 Q1329.25,355.9063 1329.25,354.7031 L1329.25,353.6094 Q1329.25,352.3594 1329.8438,351.2656 Q1330.4531,350.1719 1331.5,349.5938 Q1332.5625,349 1333.75,349 Q1334.4688,349 1335.0938,349.25 Q1335.7188,349.5 1336.25,350 Z " fill="#000000"/><text fill="#000000" font-family="sans-serif" font-size="14" lengthAdjust="spacing" textLength="143" x="1354.75" y="359.2285">SystemUserRepository</text><line style="stroke:#181818;stroke-width:0.5;" x1="1253" x2="1567" y1="369.5" y2="369.5"/><line style="stroke:#181818;stroke-width:0.5;" x1="1253" x2="1567" y1="377.5" y2="377.5"/><ellipse cx="1263" cy="391.8047" fill="#84BE84" rx="3" ry="3" style="stroke:#038048;stroke-width:1.0;"/><text fill="#000000" font-family="sans-serif" font-size="14" lengthAdjust="spacing" textLength="290" x="1272" y="396.0332">listUsersByRole(role: Role): List&lt;SystemUser&gt;</text></g><!--MD5=[bc064d979c32666ae52f3d7624591b7b]
class SystemUser--><g id="elem_SystemUser"><rect codeLine="42" fill="#F1F1F1" height="224.0938" id="SystemUser" rx="2.5" ry="2.5" style="stroke:#181818;stroke-width:0.5;" width="165" x="1045.5" y="472"/><ellipse cx="1086.6" cy="488" fill="#ADD1B2" rx="11" ry="11" style="stroke:#181818;stroke-width:1.0;"/><path d="M1088.6,484.5 Q1088.8031,484 1089.0375,483.75 Q1089.2719,483.5 1089.5375,483.5 Q1090.0063,483.5 1090.3031,483.7813 Q1090.6,484.0625 1090.6,484.7188 L1090.6,486.2813 Q1090.6,486.9375 1090.3188,487.2188 Q1090.0375,487.5 1089.6,487.5 Q1089.2094,487.5 1088.9594,487.3281 Q1088.7094,487.1563 1088.6,486.7031 Q1088.5531,486.3906 1088.3813,486.2188 Q1088.0688,485.8906 1087.5063,485.7031 Q1086.9438,485.5 1086.3813,485.5 Q1085.6781,485.5 1085.0844,485.7813 Q1084.5063,486.0625 1084.0531,486.6875 Q1083.6,487.3125 1083.6,488.1719 L1083.6,489.0938 Q1083.6,490.125 1084.4438,490.8125 Q1085.2875,491.5 1086.7875,491.5 Q1087.6781,491.5 1088.3031,491.2969 Q1088.6625,491.1875 1089.0688,490.8281 Q1089.3344,490.625 1089.475,490.5625 Q1089.6156,490.5 1089.7875,490.5 Q1090.1156,490.5 1090.35,490.7656 Q1090.6,491.0156 1090.6,491.375 Q1090.6,491.7188 1090.2563,492.125 Q1089.7563,492.7188 1088.9594,493.0469 Q1087.9125,493.5 1086.6313,493.5 Q1085.1313,493.5 1083.9281,492.9063 Q1082.9594,492.4375 1082.2719,491.4219 Q1081.6,490.4063 1081.6,489.2031 L1081.6,488.1094 Q1081.6,486.8594 1082.1938,485.7656 Q1082.8031,484.6719 1083.85,484.0938 Q1084.9125,483.5 1086.1,483.5 Q1086.8188,483.5 1087.4438,483.75 Q1088.0688,484 1088.6,484.5 Z " fill="#000000"/><text fill="#000000" font-family="sans-serif" font-size="14" lengthAdjust="spacing" textLength="75" x="1106.4" y="493.7285">SystemUser</text><line style="stroke:#181818;stroke-width:0.5;" x1="1046.5" x2="1209.5" y1="504" y2="504"/><rect fill="none" height="6" style="stroke:#C82930;stroke-width:1.0;" width="6" x="1053.5" y="515.3047"/><text fill="#000000" font-family="sans-serif" font-size="14" lengthAdjust="spacing" textLength="108" x="1065.5" y="522.5332">username: String</text><rect fill="none" height="6" style="stroke:#C82930;stroke-width:1.0;" width="6" x="1053.5" y="532.9141"/><text fill="#000000" font-family="sans-serif" font-size="14" lengthAdjust="spacing" textLength="105" x="1065.5" y="540.1426">password: String</text><rect fill="none" height="6" style="stroke:#C82930;stroke-width:1.0;" width="6" x="1053.5" y="550.5234"/><text fill="#000000" font-family="sans-serif" font-size="14" lengthAdjust="spacing" textLength="104" x="1065.5" y="557.752">firstName: String</text><rect fill="none" height="6" style="stroke:#C82930;stroke-width:1.0;" width="6" x="1053.5" y="568.1328"/><text fill="#000000" font-family="sans-serif" font-size="14" lengthAdjust="spacing" textLength="103" x="1065.5" y="575.3613">lastName: String</text><rect fill="none" height="6" style="stroke:#C82930;stroke-width:1.0;" width="6" x="1053.5" y="585.7422"/><text fill="#000000" font-family="sans-serif" font-size="14" lengthAdjust="spacing" textLength="78" x="1065.5" y="592.9707">email: String</text><line style="stroke:#181818;stroke-width:0.5;" x1="1046.5" x2="1209.5" y1="600.0469" y2="600.0469"/><ellipse cx="1056.5" cy="614.3516" fill="#84BE84" rx="3" ry="3" style="stroke:#038048;stroke-width:1.0;"/><text fill="#000000" font-family="sans-serif" font-size="14" lengthAdjust="spacing" textLength="139" x="1065.5" y="618.5801">getUsername(): String</text><ellipse cx="1056.5" cy="631.9609" fill="#84BE84" rx="3" ry="3" style="stroke:#038048;stroke-width:1.0;"/><text fill="#000000" font-family="sans-serif" font-size="14" lengthAdjust="spacing" textLength="136" x="1065.5" y="636.1895">getPassword(): String</text><ellipse cx="1056.5" cy="649.5703" fill="#84BE84" rx="3" ry="3" style="stroke:#038048;stroke-width:1.0;"/><text fill="#000000" font-family="sans-serif" font-size="14" lengthAdjust="spacing" textLength="139" x="1065.5" y="653.7988">getFirstName(): String</text><ellipse cx="1056.5" cy="667.1797" fill="#84BE84" rx="3" ry="3" style="stroke:#038048;stroke-width:1.0;"/><text fill="#000000" font-family="sans-serif" font-size="14" lengthAdjust="spacing" textLength="138" x="1065.5" y="671.4082">getLastName(): String</text><ellipse cx="1056.5" cy="684.7891" fill="#84BE84" rx="3" ry="3" style="stroke:#038048;stroke-width:1.0;"/><text fill="#000000" font-family="sans-serif" font-size="14" lengthAdjust="spacing" textLength="109" x="1065.5" y="689.0176">getEmail(): String</text></g><!--MD5=[b785243076da93606a4388b7f96a0dcb]
link ListUsersByRoleUI to ShowRolesService--><g id="link_ListUsersByRoleUI_ShowRolesService"><path codeLine="55" d="M799.84,108.05 C756.37,126.42 707,147.3 663.11,165.86 " fill="none" id="ListUsersByRoleUI-to-ShowRolesService" style="stroke:#181818;stroke-width:1.0;"/><polygon fill="#181818" points="658.33,167.88,668.1776,168.0372,662.9309,165.9225,665.0456,160.6758,658.33,167.88" style="stroke:#181818;stroke-width:1.0;"/></g><!--MD5=[14854846cf67d008251b89ea4fd43287]
link ListUsersByRoleUI to ListUsersByRoleController--><g id="link_ListUsersByRoleUI_ListUsersByRoleController"><path codeLine="56" d="M917,108.37 C917,125.54 917,144.86 917,162.42 " fill="none" id="ListUsersByRoleUI-to-ListUsersByRoleController" style="stroke:#181818;stroke-width:1.0;"/><polygon fill="#181818" points="917,167.8,921,158.8,917,162.8,913,158.8,917,167.8" style="stroke:#181818;stroke-width:1.0;"/></g><!--MD5=[87cf9bf06b84a75caa9aa3ef67b60f04]
link ListUsersByRoleUI to SystemUser--><g id="link_ListUsersByRoleUI_SystemUser"><path codeLine="57" d="M1025.78,108.2 C1050.95,124.15 1075.47,144.04 1093,168 C1155.45,253.32 1157.97,376.59 1148.66,466.6 " fill="none" id="ListUsersByRoleUI-to-SystemUser" style="stroke:#181818;stroke-width:1.0;"/><polygon fill="#181818" points="1148.11,471.67,1153.0365,463.1419,1148.6371,466.6979,1145.0811,462.2985,1148.11,471.67" style="stroke:#181818;stroke-width:1.0;"/></g><!--MD5=[dfc0027535c1b031235e1a9bafd06ffb]
link ShowRolesService to AuthorizationService--><g id="link_ShowRolesService_AuthorizationService"><path codeLine="58" d="M541,269.03 C541,289.62 541,313.12 541,332.21 " fill="none" id="ShowRolesService-to-AuthorizationService" style="stroke:#181818;stroke-width:1.0;"/><polygon fill="#181818" points="541,337.48,545,328.48,541,332.48,537,328.48,541,337.48" style="stroke:#181818;stroke-width:1.0;"/></g><!--MD5=[f3bd323e3373bc0753c0fa83a2e2c6e7]
link ShowRolesService to ELearningUserRepository--><g id="link_ShowRolesService_ELearningUserRepository"><path codeLine="59" d="M416.84,269.03 C369.89,287.76 316.91,308.9 271.7,326.94 " fill="none" id="ShowRolesService-to-ELearningUserRepository" style="stroke:#181818;stroke-width:1.0;"/><polygon fill="#181818" points="266.78,328.89,276.6219,329.2614,271.4224,327.033,273.6507,321.8336,266.78,328.89" style="stroke:#181818;stroke-width:1.0;"/></g><!--MD5=[c2fd4fb3c506a2cd7e59414c87467dab]
link ListUsersByRoleController to AuthorizationService--><g id="link_ListUsersByRoleController_AuthorizationService"><path codeLine="60" d="M792.84,269.03 C738.13,290.86 675.24,315.95 625.99,335.59 " fill="none" id="ListUsersByRoleController-to-AuthorizationService" style="stroke:#181818;stroke-width:1.0;"/><polygon fill="#181818" points="621.27,337.48,631.1108,337.8775,625.9173,335.6354,628.1594,330.4418,621.27,337.48" style="stroke:#181818;stroke-width:1.0;"/></g><!--MD5=[94b4ca8c8b846590872e6b042505780c]
link ListUsersByRoleController to IUserService--><g id="link_ListUsersByRoleController_IUserService"><path codeLine="61" d="M917,269.03 C917,289.62 917,313.12 917,332.21 " fill="none" id="ListUsersByRoleController-to-IUserService" style="stroke:#181818;stroke-width:1.0;"/><polygon fill="#181818" points="917,337.48,921,328.48,917,332.48,913,328.48,917,337.48" style="stroke:#181818;stroke-width:1.0;"/></g><!--MD5=[b8dbd6ad14b511de26df39608bf9602b]
link ListUsersByRoleController to SystemUser--><g id="link_ListUsersByRoleController_SystemUser"><path codeLine="62" d="M1029.5,269.06 C1053.98,284.85 1077.23,304.7 1093,329 C1119.13,369.26 1129.45,420.67 1132.65,466.68 " fill="none" id="ListUsersByRoleController-to-SystemUser" style="stroke:#181818;stroke-width:1.0;"/><polygon fill="#181818" points="1132.98,471.69,1136.3795,462.4464,1132.6512,466.7008,1128.3968,462.9725,1132.98,471.69" style="stroke:#181818;stroke-width:1.0;"/></g><!--MD5=[9c569e11fa7105c0e81eeb75d7be8dc3]
link IUserService to SystemUser--><g id="link_IUserService_SystemUser"><path codeLine="63" d="M949.05,403.62 C973.74,428.37 1009.09,463.81 1041.86,496.66 " fill="none" id="IUserService-to-SystemUser" style="stroke:#181818;stroke-width:1.0;"/><polygon fill="#181818" points="1045.44,500.24,1041.9045,491.0476,1041.9045,496.7045,1036.2476,496.7045,1045.44,500.24" style="stroke:#181818;stroke-width:1.0;"/></g><!--MD5=[4b68e6e4efb04462b3474679175b9ce6]
link UserService to SystemUserRepository--><g id="link_UserService_SystemUserRepository"><path codeLine="64" d="M1410,260.09 C1410,282.58 1410,310.34 1410,332.27 " fill="none" id="UserService-to-SystemUserRepository" style="stroke:#181818;stroke-width:1.0;"/><polygon fill="#181818" points="1410,337.43,1414,328.43,1410,332.43,1406,328.43,1410,337.43" style="stroke:#181818;stroke-width:1.0;"/></g><!--MD5=[8b27e9be92689afa95ef3fb174342445]
link ELearningUserRepository to SystemUser--><g id="link_ELearningUserRepository_SystemUser"><path codeLine="65" d="M323.29,408.02 C329.27,409.37 335.19,410.7 341,412 C594.68,468.75 894.99,533.26 1040.39,564.33 " fill="none" id="ELearningUserRepository-to-SystemUser" style="stroke:#181818;stroke-width:1.0;"/><polygon fill="#181818" points="1045.5,565.42,1037.546,559.6119,1040.6125,564.3655,1035.8588,567.432,1045.5,565.42" style="stroke:#181818;stroke-width:1.0;"/></g><!--MD5=[99ee6223e50018c8567152159a7cb66c]
link SystemUserRepository to SystemUser--><g id="link_SystemUserRepository_SystemUser"><path codeLine="66" d="M1367.17,403.62 C1326.93,433.8 1265.52,479.86 1215,517.75 " fill="none" id="SystemUserRepository-to-SystemUser" style="stroke:#181818;stroke-width:1.0;"/><polygon fill="#181818" points="1210.76,520.93,1220.36,518.73,1214.76,517.93,1215.56,512.33,1210.76,520.93" style="stroke:#181818;stroke-width:1.0;"/></g><!--MD5=[e699b11385c1e07ee76f62ce6ee41e2d]
@startuml

interface ListUsersByRoleUI {
  +showListOfRoles(roles: List<Role>)
  +getUserRoleSelection(): Role
  +showListOfUsers(users: List<SystemUser>)
}

class ShowRolesService {
  -authorizationService: AuthorizationService
  -userRepository: ELearningUserRepository
  +showRoles(): List<Role>
}

class ListUsersByRoleController {
  -authorizationService: AuthorizationService
  -userService: IUserService
  +listUsersByRole(role: Role): List<SystemUser>
}

interface AuthorizationService {
  +ensureAuthenticatedUserHasAnyOf(roles: List<Role>)
}

interface IUserService {
  +listUsersByRole(role: Role): List<SystemUser>
}

class UserService {
  -userRepository: SystemUserRepository
  +listUsersByRole(role: Role): List<SystemUser>
}

class ELearningUserRepository {
  +show_roles(): List<Role>
  +listUsersByRole(role: Role): List<SystemUser>
}

class SystemUserRepository {
  +listUsersByRole(role: Role): List<SystemUser>
}

class SystemUser {
  -username: String
  -password: String
  -firstName: String
  -lastName: String
  -email: String
  +getUsername(): String
  +getPassword(): String
  +getFirstName(): String
  +getLastName(): String
  +getEmail(): String
}

ListUsersByRoleUI - -> ShowRolesService
ListUsersByRoleUI - -> ListUsersByRoleController
ListUsersByRoleUI - -> SystemUser
ShowRolesService - -> AuthorizationService
ShowRolesService - -> ELearningUserRepository
ListUsersByRoleController - -> AuthorizationService
ListUsersByRoleController - -> IUserService
ListUsersByRoleController - -> SystemUser
IUserService - -> SystemUser
UserService - -> SystemUserRepository
ELearningUserRepository - -> SystemUser
SystemUserRepository - -> SystemUser
@enduml

PlantUML version 1.2022.12(Sun Oct 23 19:12:26 BST 2022)
(GPL source distribution)
Java Runtime: OpenJDK Runtime Environment
JVM: OpenJDK 64-Bit Server VM
Default Encoding: Cp1252
Language: en
Country: US
--></g></svg>