<?xml version="1.0" encoding="us-ascii" standalone="no"?><svg xmlns="http://www.w3.org/2000/svg" xmlns:xlink="http://www.w3.org/1999/xlink" contentStyleType="text/css" height="980px" preserveAspectRatio="none" style="width:3338px;height:980px;background:#FFFFFF;" version="1.1" viewBox="0 0 3338 980" width="3338px" zoomAndPan="magnify"><defs/><g><rect fill="#FFFFFF" height="764.8203" style="stroke:#181818;stroke-width:1.0;" width="10" x="17.5" y="98.2422"/><rect fill="#FFFFFF" height="127.873" style="stroke:#181818;stroke-width:1.0;" width="10" x="296.5" y="121.5332"/><rect fill="#FFFFFF" height="582.3652" style="stroke:#181818;stroke-width:1.0;" width="10" x="296.5" y="280.6973"/><rect fill="#FFFFFF" height="62.291" style="stroke:#181818;stroke-width:1.0;" width="10" x="807.5" y="155.8242"/><rect fill="#FFFFFF" height="560.0742" style="stroke:#181818;stroke-width:1.0;" width="10" x="1000" y="311.9883"/><rect fill="#FFFFFF" height="466.2012" style="stroke:#181818;stroke-width:1.0;" width="10" x="1512" y="405.8613"/><rect fill="#FFFFFF" height="31.291" style="stroke:#181818;stroke-width:1.0;" width="10" x="1897" y="343.2793"/><rect fill="#FFFFFF" height="366.6191" style="stroke:#181818;stroke-width:1.0;" width="10" x="1897" y="437.1523"/><rect fill="#FFFFFF" height="259.7461" style="stroke:#181818;stroke-width:1.0;" width="10" x="2276" y="512.7344"/><rect fill="#FFFFFF" height="214.4551" style="stroke:#181818;stroke-width:1.0;" width="10" x="2696" y="544.0254"/><rect fill="#FFFFFF" height="14" style="stroke:#181818;stroke-width:1.0;" width="10" x="3115" y="685.1895"/><rect fill="#FFFFFF" height="14" style="stroke:#181818;stroke-width:1.0;" width="10" x="3253" y="190.1152"/><rect fill="#FFFFFF" height="14" style="stroke:#181818;stroke-width:1.0;" width="10" x="3253" y="575.3164"/><rect fill="#FFFFFF" height="14" style="stroke:#181818;stroke-width:1.0;" width="10" x="3253" y="730.4805"/><rect fill="none" height="50.582" style="stroke:#000000;stroke-width:1.5;" width="593.5" x="2190.5" y="604.3164"/><line style="stroke:#181818;stroke-width:0.5;stroke-dasharray:5.0,5.0;" x1="22" x2="22" y1="88.2422" y2="881.0625"/><line style="stroke:#181818;stroke-width:0.5;stroke-dasharray:5.0,5.0;" x1="301" x2="301" y1="88.2422" y2="881.0625"/><line style="stroke:#181818;stroke-width:0.5;stroke-dasharray:5.0,5.0;" x1="812.5" x2="812.5" y1="88.2422" y2="881.0625"/><line style="stroke:#181818;stroke-width:0.5;stroke-dasharray:5.0,5.0;" x1="1004.5" x2="1004.5" y1="88.2422" y2="881.0625"/><line style="stroke:#181818;stroke-width:0.5;stroke-dasharray:5.0,5.0;" x1="1517" x2="1517" y1="88.2422" y2="881.0625"/><line style="stroke:#181818;stroke-width:0.5;stroke-dasharray:5.0,5.0;" x1="1901.5" x2="1901.5" y1="88.2422" y2="881.0625"/><line style="stroke:#181818;stroke-width:0.5;stroke-dasharray:5.0,5.0;" x1="2280.5" x2="2280.5" y1="88.2422" y2="881.0625"/><line style="stroke:#181818;stroke-width:0.5;stroke-dasharray:5.0,5.0;" x1="2701" x2="2701" y1="88.2422" y2="881.0625"/><line style="stroke:#181818;stroke-width:0.5;stroke-dasharray:5.0,5.0;" x1="3120" x2="3120" y1="88.2422" y2="881.0625"/><line style="stroke:#181818;stroke-width:0.5;stroke-dasharray:5.0,5.0;" x1="3258" x2="3258" y1="88.2422" y2="881.0625"/><text fill="#000000" font-family="sans-serif" font-size="14" lengthAdjust="spacing" textLength="29" x="5" y="84.7285">User</text><ellipse cx="22.5" cy="18.1211" fill="#E2E2F0" rx="8" ry="8" style="stroke:#181818;stroke-width:0.5;"/><path d="M22.5,26.1211 L22.5,53.1211 M9.5,34.1211 L35.5,34.1211 M22.5,53.1211 L9.5,68.1211 M22.5,53.1211 L35.5,68.1211 " fill="none" style="stroke:#181818;stroke-width:0.5;"/><text fill="#000000" font-family="sans-serif" font-size="14" lengthAdjust="spacing" textLength="29" x="5" y="895.1699">User</text><ellipse cx="22.5" cy="907.1836" fill="#E2E2F0" rx="8" ry="8" style="stroke:#181818;stroke-width:0.5;"/><path d="M22.5,915.1836 L22.5,942.1836 M9.5,923.1836 L35.5,923.1836 M22.5,942.1836 L9.5,957.1836 M22.5,942.1836 L35.5,957.1836 " fill="none" style="stroke:#181818;stroke-width:0.5;"/><rect fill="#E2E2F0" height="51.2422" rx="2.5" ry="2.5" style="stroke:#181818;stroke-width:0.5;" width="111" x="246" y="36"/><text fill="#000000" font-family="sans-serif" font-size="14" font-style="italic" lengthAdjust="spacing" textLength="95" x="254" y="58.1074">&#171;presentation&#187;</text><text fill="#000000" font-family="sans-serif" font-size="14" lengthAdjust="spacing" textLength="97" x="253" y="76.7285">ArchiveBoardUI</text><rect fill="#E2E2F0" height="51.2422" rx="2.5" ry="2.5" style="stroke:#181818;stroke-width:0.5;" width="111" x="246" y="880.0625"/><text fill="#000000" font-family="sans-serif" font-size="14" font-style="italic" lengthAdjust="spacing" textLength="95" x="254" y="902.1699">&#171;presentation&#187;</text><text fill="#000000" font-family="sans-serif" font-size="14" lengthAdjust="spacing" textLength="97" x="253" y="920.791">ArchiveBoardUI</text><rect fill="#E2E2F0" height="51.2422" rx="2.5" ry="2.5" style="stroke:#181818;stroke-width:0.5;" width="218" x="703.5" y="36"/><text fill="#000000" font-family="sans-serif" font-size="14" font-style="italic" lengthAdjust="spacing" textLength="84" x="770.5" y="58.1074">&#171;application&#187;</text><text fill="#000000" font-family="sans-serif" font-size="14" lengthAdjust="spacing" textLength="204" x="710.5" y="76.7285">ListOwnedSharedBoardsService</text><rect fill="#E2E2F0" height="51.2422" rx="2.5" ry="2.5" style="stroke:#181818;stroke-width:0.5;" width="218" x="703.5" y="880.0625"/><text fill="#000000" font-family="sans-serif" font-size="14" font-style="italic" lengthAdjust="spacing" textLength="84" x="770.5" y="902.1699">&#171;application&#187;</text><text fill="#000000" font-family="sans-serif" font-size="14" lengthAdjust="spacing" textLength="204" x="710.5" y="920.791">ListOwnedSharedBoardsService</text><rect fill="#E2E2F0" height="51.2422" rx="2.5" ry="2.5" style="stroke:#181818;stroke-width:0.5;" width="147" x="931.5" y="36"/><text fill="#000000" font-family="sans-serif" font-size="14" font-style="italic" lengthAdjust="spacing" textLength="84" x="963" y="58.1074">&#171;application&#187;</text><text fill="#000000" font-family="sans-serif" font-size="14" lengthAdjust="spacing" textLength="133" x="938.5" y="76.7285">SendRequestService</text><rect fill="#E2E2F0" height="51.2422" rx="2.5" ry="2.5" style="stroke:#181818;stroke-width:0.5;" width="147" x="931.5" y="880.0625"/><text fill="#000000" font-family="sans-serif" font-size="14" font-style="italic" lengthAdjust="spacing" textLength="84" x="963" y="902.1699">&#171;application&#187;</text><text fill="#000000" font-family="sans-serif" font-size="14" lengthAdjust="spacing" textLength="133" x="938.5" y="920.791">SendRequestService</text><rect fill="#E2E2F0" height="51.2422" rx="2.5" ry="2.5" style="stroke:#181818;stroke-width:0.5;" width="278" x="1378" y="36"/><text fill="#000000" font-family="sans-serif" font-size="14" font-style="italic" lengthAdjust="spacing" textLength="84" x="1475" y="58.1074">&#171;application&#187;</text><text fill="#000000" font-family="sans-serif" font-size="14" lengthAdjust="spacing" textLength="264" x="1385" y="76.7285">SendArchiveSharedBoardRequestService</text><rect fill="#E2E2F0" height="51.2422" rx="2.5" ry="2.5" style="stroke:#181818;stroke-width:0.5;" width="278" x="1378" y="880.0625"/><text fill="#000000" font-family="sans-serif" font-size="14" font-style="italic" lengthAdjust="spacing" textLength="84" x="1475" y="902.1699">&#171;application&#187;</text><text fill="#000000" font-family="sans-serif" font-size="14" lengthAdjust="spacing" textLength="264" x="1385" y="920.791">SendArchiveSharedBoardRequestService</text><rect fill="#E2E2F0" height="51.2422" rx="2.5" ry="2.5" style="stroke:#181818;stroke-width:0.5;" width="69" x="1867.5" y="36"/><text fill="#000000" font-family="sans-serif" font-size="14" font-style="italic" lengthAdjust="spacing" textLength="55" x="1874.5" y="58.1074">&#171;server&#187;</text><text fill="#000000" font-family="sans-serif" font-size="14" lengthAdjust="spacing" textLength="42" x="1881" y="76.7285">Server</text><rect fill="#E2E2F0" height="51.2422" rx="2.5" ry="2.5" style="stroke:#181818;stroke-width:0.5;" width="69" x="1867.5" y="880.0625"/><text fill="#000000" font-family="sans-serif" font-size="14" font-style="italic" lengthAdjust="spacing" textLength="55" x="1874.5" y="902.1699">&#171;server&#187;</text><text fill="#000000" font-family="sans-serif" font-size="14" lengthAdjust="spacing" textLength="42" x="1881" y="920.791">Server</text><rect fill="#E2E2F0" height="51.2422" rx="2.5" ry="2.5" style="stroke:#181818;stroke-width:0.5;" width="161" x="2200.5" y="36"/><text fill="#000000" font-family="sans-serif" font-size="14" font-style="italic" lengthAdjust="spacing" textLength="84" x="2239" y="58.1074">&#171;application&#187;</text><text fill="#000000" font-family="sans-serif" font-size="14" lengthAdjust="spacing" textLength="147" x="2207.5" y="76.7285">ArchiveBoardController</text><rect fill="#E2E2F0" height="51.2422" rx="2.5" ry="2.5" style="stroke:#181818;stroke-width:0.5;" width="161" x="2200.5" y="880.0625"/><text fill="#000000" font-family="sans-serif" font-size="14" font-style="italic" lengthAdjust="spacing" textLength="84" x="2239" y="902.1699">&#171;application&#187;</text><text fill="#000000" font-family="sans-serif" font-size="14" lengthAdjust="spacing" textLength="147" x="2207.5" y="920.791">ArchiveBoardController</text><rect fill="#E2E2F0" height="51.2422" rx="2.5" ry="2.5" style="stroke:#181818;stroke-width:0.5;" width="146" x="2628" y="36"/><text fill="#000000" font-family="sans-serif" font-size="14" font-style="italic" lengthAdjust="spacing" textLength="60" x="2671" y="58.1074">&#171;service&#187;</text><text fill="#000000" font-family="sans-serif" font-size="14" lengthAdjust="spacing" textLength="132" x="2635" y="76.7285">ArchiveBoardService</text><rect fill="#E2E2F0" height="51.2422" rx="2.5" ry="2.5" style="stroke:#181818;stroke-width:0.5;" width="146" x="2628" y="880.0625"/><text fill="#000000" font-family="sans-serif" font-size="14" font-style="italic" lengthAdjust="spacing" textLength="60" x="2671" y="902.1699">&#171;service&#187;</text><text fill="#000000" font-family="sans-serif" font-size="14" lengthAdjust="spacing" textLength="132" x="2635" y="920.791">ArchiveBoardService</text><rect fill="#E2E2F0" height="51.2422" rx="2.5" ry="2.5" style="stroke:#181818;stroke-width:0.5;" width="98" x="3071" y="36"/><text fill="#000000" font-family="sans-serif" font-size="14" font-style="italic" lengthAdjust="spacing" textLength="62" x="3089" y="58.1074">&#171;domain&#187;</text><text fill="#000000" font-family="sans-serif" font-size="14" lengthAdjust="spacing" textLength="84" x="3078" y="76.7285">SharedBoard</text><rect fill="#E2E2F0" height="51.2422" rx="2.5" ry="2.5" style="stroke:#181818;stroke-width:0.5;" width="98" x="3071" y="880.0625"/><text fill="#000000" font-family="sans-serif" font-size="14" font-style="italic" lengthAdjust="spacing" textLength="62" x="3089" y="902.1699">&#171;domain&#187;</text><text fill="#000000" font-family="sans-serif" font-size="14" lengthAdjust="spacing" textLength="84" x="3078" y="920.791">SharedBoard</text><text fill="#000000" font-family="sans-serif" font-size="14" font-style="italic" lengthAdjust="spacing" textLength="89" x="3210.5" y="66.1074">&#171;persistence&#187;</text><text fill="#000000" font-family="sans-serif" font-size="14" lengthAdjust="spacing" textLength="152" x="3179" y="84.7285">SharedBoardRepository</text><path d="M3240,15 C3240,5 3258,5 3258,5 C3258,5 3276,5 3276,15 L3276,41 C3276,51 3258,51 3258,51 C3258,51 3240,51 3240,41 L3240,15 " fill="#E2E2F0" style="stroke:#181818;stroke-width:1.5;"/><path d="M3240,15 C3240,25 3258,25 3258,25 C3258,25 3276,25 3276,15 " fill="none" style="stroke:#181818;stroke-width:1.5;"/><text fill="#000000" font-family="sans-serif" font-size="14" font-style="italic" lengthAdjust="spacing" textLength="89" x="3210.5" y="895.1699">&#171;persistence&#187;</text><text fill="#000000" font-family="sans-serif" font-size="14" lengthAdjust="spacing" textLength="152" x="3179" y="913.791">SharedBoardRepository</text><path d="M3240,927.3047 C3240,917.3047 3258,917.3047 3258,917.3047 C3258,917.3047 3276,917.3047 3276,927.3047 L3276,953.3047 C3276,963.3047 3258,963.3047 3258,963.3047 C3258,963.3047 3240,963.3047 3240,953.3047 L3240,927.3047 " fill="#E2E2F0" style="stroke:#181818;stroke-width:1.5;"/><path d="M3240,927.3047 C3240,937.3047 3258,937.3047 3258,937.3047 C3258,937.3047 3276,937.3047 3276,927.3047 " fill="none" style="stroke:#181818;stroke-width:1.5;"/><rect fill="#FFFFFF" height="764.8203" style="stroke:#181818;stroke-width:1.0;" width="10" x="17.5" y="98.2422"/><rect fill="#FFFFFF" height="127.873" style="stroke:#181818;stroke-width:1.0;" width="10" x="296.5" y="121.5332"/><rect fill="#FFFFFF" height="582.3652" style="stroke:#181818;stroke-width:1.0;" width="10" x="296.5" y="280.6973"/><rect fill="#FFFFFF" height="62.291" style="stroke:#181818;stroke-width:1.0;" width="10" x="807.5" y="155.8242"/><rect fill="#FFFFFF" height="560.0742" style="stroke:#181818;stroke-width:1.0;" width="10" x="1000" y="311.9883"/><rect fill="#FFFFFF" height="466.2012" style="stroke:#181818;stroke-width:1.0;" width="10" x="1512" y="405.8613"/><rect fill="#FFFFFF" height="31.291" style="stroke:#181818;stroke-width:1.0;" width="10" x="1897" y="343.2793"/><rect fill="#FFFFFF" height="366.6191" style="stroke:#181818;stroke-width:1.0;" width="10" x="1897" y="437.1523"/><rect fill="#FFFFFF" height="259.7461" style="stroke:#181818;stroke-width:1.0;" width="10" x="2276" y="512.7344"/><rect fill="#FFFFFF" height="214.4551" style="stroke:#181818;stroke-width:1.0;" width="10" x="2696" y="544.0254"/><rect fill="#FFFFFF" height="14" style="stroke:#181818;stroke-width:1.0;" width="10" x="3115" y="685.1895"/><rect fill="#FFFFFF" height="14" style="stroke:#181818;stroke-width:1.0;" width="10" x="3253" y="190.1152"/><rect fill="#FFFFFF" height="14" style="stroke:#181818;stroke-width:1.0;" width="10" x="3253" y="575.3164"/><rect fill="#FFFFFF" height="14" style="stroke:#181818;stroke-width:1.0;" width="10" x="3253" y="730.4805"/><polygon fill="#181818" points="284.5,117.5332,294.5,121.5332,284.5,125.5332,288.5,121.5332" style="stroke:#181818;stroke-width:1.0;"/><line style="stroke:#181818;stroke-width:1.0;" x1="27.5" x2="290.5" y1="121.5332" y2="121.5332"/><text fill="#000000" font-family="sans-serif" font-size="13" lengthAdjust="spacing" textLength="211" x="34.5" y="116.2705">asks to archive a board he/she owns</text><polygon fill="#181818" points="795.5,151.8242,805.5,155.8242,795.5,159.8242,799.5,155.8242" style="stroke:#181818;stroke-width:1.0;"/><line style="stroke:#181818;stroke-width:1.0;" x1="306.5" x2="801.5" y1="155.8242" y2="155.8242"/><text fill="#000000" font-family="sans-serif" font-size="13" lengthAdjust="spacing" textLength="482" x="313.5" y="150.5615">List&lt;SharedBoardDTO&gt; ownedSharedBoards = listOwnedAndActiveSharedBoards()</text><path d="M822,134.5332 L822,161.5332 L1053,161.5332 L1053,144.5332 L1043,134.5332 L822,134.5332 " fill="#FEFFDD" style="stroke:#181818;stroke-width:0.5;"/><path d="M1043,134.5332 L1043,144.5332 L1053,144.5332 L1043,134.5332 " fill="#FEFFDD" style="stroke:#181818;stroke-width:0.5;"/><text fill="#000000" font-family="sans-serif" font-size="13" lengthAdjust="spacing" textLength="210" x="828" y="153.5615">the user is obtained through session</text><polygon fill="#181818" points="3241,186.1152,3251,190.1152,3241,194.1152,3245,190.1152" style="stroke:#181818;stroke-width:1.0;"/><line style="stroke:#181818;stroke-width:1.0;" x1="817.5" x2="3247" y1="190.1152" y2="190.1152"/><text fill="#000000" font-family="sans-serif" font-size="13" lengthAdjust="spacing" textLength="481" x="824.5" y="184.8525">List&lt;SharedBoard&gt; ownedSharedBoards = listOwnedAndActiveSharedBoards(user)</text><polygon fill="#181818" points="828.5,200.1152,818.5,204.1152,828.5,208.1152,824.5,204.1152" style="stroke:#181818;stroke-width:1.0;"/><line style="stroke:#181818;stroke-width:1.0;stroke-dasharray:2.0,2.0;" x1="822.5" x2="3257" y1="204.1152" y2="204.1152"/><polygon fill="#181818" points="317.5,214.1152,307.5,218.1152,317.5,222.1152,313.5,218.1152" style="stroke:#181818;stroke-width:1.0;"/><line style="stroke:#181818;stroke-width:1.0;stroke-dasharray:2.0,2.0;" x1="311.5" x2="811.5" y1="218.1152" y2="218.1152"/><polygon fill="#181818" points="38.5,245.4063,28.5,249.4063,38.5,253.4063,34.5,249.4063" style="stroke:#181818;stroke-width:1.0;"/><line style="stroke:#181818;stroke-width:1.0;stroke-dasharray:2.0,2.0;" x1="32.5" x2="300.5" y1="249.4063" y2="249.4063"/><text fill="#000000" font-family="sans-serif" font-size="13" lengthAdjust="spacing" textLength="245" x="44.5" y="244.1436">asks to select one shared board to archive</text><polygon fill="#181818" points="284.5,276.6973,294.5,280.6973,284.5,284.6973,288.5,280.6973" style="stroke:#181818;stroke-width:1.0;"/><line style="stroke:#181818;stroke-width:1.0;" x1="27.5" x2="290.5" y1="280.6973" y2="280.6973"/><text fill="#000000" font-family="sans-serif" font-size="13" lengthAdjust="spacing" textLength="146" x="34.5" y="275.4346">selects one shared board</text><polygon fill="#181818" points="988,307.9883,998,311.9883,988,315.9883,992,311.9883" style="stroke:#181818;stroke-width:1.0;"/><line style="stroke:#181818;stroke-width:1.0;" x1="306.5" x2="994" y1="311.9883" y2="311.9883"/><text fill="#000000" font-family="sans-serif" font-size="13" lengthAdjust="spacing" textLength="363" x="313.5" y="306.7256">String feedback = sendArchiveBoardRequest(sharedBoardTitle)</text><polygon fill="#181818" points="1885,339.2793,1895,343.2793,1885,347.2793,1889,343.2793" style="stroke:#181818;stroke-width:1.0;"/><line style="stroke:#181818;stroke-width:1.0;" x1="1010" x2="1891" y1="343.2793" y2="343.2793"/><text fill="#000000" font-family="sans-serif" font-size="13" lengthAdjust="spacing" textLength="162" x="1017" y="338.0166">establishes TCP connection</text><polygon fill="#181818" points="1021,370.5703,1011,374.5703,1021,378.5703,1017,374.5703" style="stroke:#181818;stroke-width:1.0;"/><line style="stroke:#181818;stroke-width:1.0;stroke-dasharray:2.0,2.0;" x1="1015" x2="1901" y1="374.5703" y2="374.5703"/><text fill="#000000" font-family="sans-serif" font-size="13" lengthAdjust="spacing" textLength="115" x="1027" y="369.3076">accepts the request</text><polygon fill="#181818" points="1500,401.8613,1510,405.8613,1500,409.8613,1504,405.8613" style="stroke:#181818;stroke-width:1.0;"/><line style="stroke:#181818;stroke-width:1.0;" x1="1010" x2="1506" y1="405.8613" y2="405.8613"/><text fill="#000000" font-family="sans-serif" font-size="13" lengthAdjust="spacing" textLength="483" x="1017" y="400.5986">sendServerArchiveBoardRequest(sharedBoardTitle, username, socketIn, socketOut)</text><polygon fill="#181818" points="1885,433.1523,1895,437.1523,1885,441.1523,1889,437.1523" style="stroke:#181818;stroke-width:1.0;"/><line style="stroke:#181818;stroke-width:1.0;" x1="1522" x2="1891" y1="437.1523" y2="437.1523"/><text fill="#000000" font-family="sans-serif" font-size="13" lengthAdjust="spacing" textLength="186" x="1529" y="431.8896">sends related shared-board data</text><line style="stroke:#181818;stroke-width:1.0;" x1="1907" x2="1949" y1="468.4434" y2="468.4434"/><line style="stroke:#181818;stroke-width:1.0;" x1="1949" x2="1949" y1="468.4434" y2="481.4434"/><line style="stroke:#181818;stroke-width:1.0;" x1="1908" x2="1949" y1="481.4434" y2="481.4434"/><polygon fill="#181818" points="1918,477.4434,1908,481.4434,1918,485.4434,1914,481.4434" style="stroke:#181818;stroke-width:1.0;"/><text fill="#000000" font-family="sans-serif" font-size="13" lengthAdjust="spacing" textLength="273" x="1914" y="463.1807">creats a new thread to attend the client request</text><polygon fill="#181818" points="2264,508.7344,2274,512.7344,2264,516.7344,2268,512.7344" style="stroke:#181818;stroke-width:1.0;"/><line style="stroke:#181818;stroke-width:1.0;" x1="1907" x2="2270" y1="512.7344" y2="512.7344"/><text fill="#000000" font-family="sans-serif" font-size="13" lengthAdjust="spacing" textLength="350" x="1914" y="507.4717">String feedback = archiveBoard(sharedBoardTitle, username)</text><polygon fill="#181818" points="2684,540.0254,2694,544.0254,2684,548.0254,2688,544.0254" style="stroke:#181818;stroke-width:1.0;"/><line style="stroke:#181818;stroke-width:1.0;" x1="2286" x2="2690" y1="544.0254" y2="544.0254"/><text fill="#000000" font-family="sans-serif" font-size="13" lengthAdjust="spacing" textLength="391" x="2293" y="538.7627">String feedback = archiveSharedBoard(sharedBoardTitle, username)</text><polygon fill="#181818" points="3241,571.3164,3251,575.3164,3241,579.3164,3245,575.3164" style="stroke:#181818;stroke-width:1.0;"/><line style="stroke:#181818;stroke-width:1.0;" x1="2706" x2="3247" y1="575.3164" y2="575.3164"/><text fill="#000000" font-family="sans-serif" font-size="13" lengthAdjust="spacing" textLength="428" x="2713" y="570.0537">SharedBoard theSharedBoard = findSharedBoardByTitle(sharedBoardTitle)</text><polygon fill="#181818" points="2717,585.3164,2707,589.3164,2717,593.3164,2713,589.3164" style="stroke:#181818;stroke-width:1.0;"/><line style="stroke:#181818;stroke-width:1.0;stroke-dasharray:2.0,2.0;" x1="2711" x2="3257" y1="589.3164" y2="589.3164"/><path d="M2190.5,604.3164 L2251.5,604.3164 L2251.5,613.6074 L2241.5,623.6074 L2190.5,623.6074 L2190.5,604.3164 " fill="#EEEEEE" style="stroke:#000000;stroke-width:1.5;"/><rect fill="none" height="50.582" style="stroke:#000000;stroke-width:1.5;" width="593.5" x="2190.5" y="604.3164"/><text fill="#000000" font-family="sans-serif" font-size="13" font-weight="bold" lengthAdjust="spacing" textLength="16" x="2205.5" y="619.3447">alt</text><text fill="#000000" font-family="sans-serif" font-size="11" font-weight="bold" lengthAdjust="spacing" textLength="191" x="2266.5" y="618.1865">[user isn't the owner of the board]</text><polygon fill="#181818" points="2297,642.8984,2287,646.8984,2297,650.8984,2293,646.8984" style="stroke:#181818;stroke-width:1.0;"/><line style="stroke:#181818;stroke-width:1.0;stroke-dasharray:2.0,2.0;" x1="2291" x2="2695" y1="646.8984" y2="646.8984"/><text fill="#000000" font-family="sans-serif" font-size="13" lengthAdjust="spacing" textLength="326" x="2303" y="641.6357">throws IllegalArgumentException and aborts the process</text><polygon fill="#181818" points="3103,681.1895,3113,685.1895,3103,689.1895,3107,685.1895" style="stroke:#181818;stroke-width:1.0;"/><line style="stroke:#181818;stroke-width:1.0;" x1="2706" x2="3109" y1="685.1895" y2="685.1895"/><text fill="#000000" font-family="sans-serif" font-size="13" lengthAdjust="spacing" textLength="390" x="2713" y="679.9268">archiveBoard() (throws IllegalArgumentException if already archived)</text><polygon fill="#181818" points="2717,695.1895,2707,699.1895,2717,703.1895,2713,699.1895" style="stroke:#181818;stroke-width:1.0;"/><line style="stroke:#181818;stroke-width:1.0;stroke-dasharray:2.0,2.0;" x1="2711" x2="3119" y1="699.1895" y2="699.1895"/><polygon fill="#181818" points="3241,726.4805,3251,730.4805,3241,734.4805,3245,730.4805" style="stroke:#181818;stroke-width:1.0;"/><line style="stroke:#181818;stroke-width:1.0;" x1="2706" x2="3247" y1="730.4805" y2="730.4805"/><text fill="#000000" font-family="sans-serif" font-size="13" lengthAdjust="spacing" textLength="216" x="2713" y="725.2178">theSharedBoard = save(sharedBoard)</text><polygon fill="#181818" points="2717,740.4805,2707,744.4805,2717,748.4805,2713,744.4805" style="stroke:#181818;stroke-width:1.0;"/><line style="stroke:#181818;stroke-width:1.0;stroke-dasharray:2.0,2.0;" x1="2711" x2="3257" y1="744.4805" y2="744.4805"/><polygon fill="#181818" points="2297,754.4805,2287,758.4805,2297,762.4805,2293,758.4805" style="stroke:#181818;stroke-width:1.0;"/><line style="stroke:#181818;stroke-width:1.0;stroke-dasharray:2.0,2.0;" x1="2291" x2="2700" y1="758.4805" y2="758.4805"/><polygon fill="#181818" points="1918,768.4805,1908,772.4805,1918,776.4805,1914,772.4805" style="stroke:#181818;stroke-width:1.0;"/><line style="stroke:#181818;stroke-width:1.0;stroke-dasharray:2.0,2.0;" x1="1912" x2="2280" y1="772.4805" y2="772.4805"/><polygon fill="#181818" points="1533,799.7715,1523,803.7715,1533,807.7715,1529,803.7715" style="stroke:#181818;stroke-width:1.0;"/><line style="stroke:#181818;stroke-width:1.0;stroke-dasharray:2.0,2.0;" x1="1527" x2="1901" y1="803.7715" y2="803.7715"/><text fill="#000000" font-family="sans-serif" font-size="13" lengthAdjust="spacing" textLength="351" x="1539" y="798.5088">answers with the operation success and respective message</text><polygon fill="#181818" points="1021,813.7715,1011,817.7715,1021,821.7715,1017,817.7715" style="stroke:#181818;stroke-width:1.0;"/><line style="stroke:#181818;stroke-width:1.0;stroke-dasharray:2.0,2.0;" x1="1015" x2="1511" y1="817.7715" y2="817.7715"/><polygon fill="#181818" points="317.5,827.7715,307.5,831.7715,317.5,835.7715,313.5,831.7715" style="stroke:#181818;stroke-width:1.0;"/><line style="stroke:#181818;stroke-width:1.0;stroke-dasharray:2.0,2.0;" x1="311.5" x2="999" y1="831.7715" y2="831.7715"/><polygon fill="#181818" points="33.5,859.0625,23.5,863.0625,33.5,867.0625,29.5,863.0625" style="stroke:#181818;stroke-width:1.0;"/><line style="stroke:#181818;stroke-width:1.0;stroke-dasharray:2.0,2.0;" x1="27.5" x2="300.5" y1="863.0625" y2="863.0625"/><text fill="#000000" font-family="sans-serif" font-size="13" lengthAdjust="spacing" textLength="205" x="39.5" y="857.7998">shows the success of the operation</text><!--SRC=[dLR1Rjim3BtxAtXR2omOrjw2D43RxL1WG8Ub_G16PcAXZkH9IhB-_KZ9iUMuIRjTMZaH7n_V8-cW2jR1ioS7w67B_ui6NT1ADsW2t3fLwHtTMNJbyqEyec4sQnnvCW63jcO-7qJyq3uyxWsLYmeTbJ7IByZjj2A9z-dubL6mQMgjtW9Pa2b_qUyj-J0ElNetj6MTCJW9TlqEcDibPNmwpMRfS7Glb-dUck1iNQSu5LnzDaKUcjFRgJOPVt3CggzBhYxZOJOhxGQrm9SOS8cUO210OxrchrybnF6Js4ZEirraOee2LT0x39JQGFx0P2w6JpdcnKEmW8ajO9kreY- -8h1xuxDmNN0GXtPUJsDRp38-tvuUvn8sx1EuWVhGFxVieo3cDlgBopxD0Rqmbf-SNbUX25LY3zg3NGRMWqe8bRFRTSK1thC11NS8I4pHyMEkKP8np_yYAGmoeW9THFp9G9IYfE6Tda-hUtwZArUqbU-bpDuPJpMf0DRmpSYbTQWtBGSJYt9_KxGVXPyszOgZ5i5fiuOLKRb4zSB2-7xwyhcxyBqyJphKDBRngkY0soInF0x69SjTaOUd-v-Wh37CL6mS8733jZ6J8KTKYXgkJ3h39JR7ghQnUUwu6QQndBG3FbBKv-Y9mGsVl5Kl51xCuVIu3UEQhuikLrwpP9KPhVbgsTenIMxAQ1SdAyymb2FagX4CxMK025ChX23TBsAeMlCAxpJfCUBAUijSp3GuKtnMfq0L4K-uyKex0vjDqCV06QyGp7vuyyN89UQFDx3I9X_ZkzU8VAupZ-QMqnqFR85rEEmRyob4NMLVEB2h-926ABBibPLzjFVmmE-8DTQtRhtTi1FV_qYZScC3iaEujAxjsiPPnPihhYtETwWvDSHqwCebNBo7hbUC8ltmUWWjiveJuOJzHjLPFPtg8wKzxWQw_fEakLQ3GUMxgPEwDi-_ZjV76q2668tVyuiEzZfKoI5-xyLNCVYj4ccZuloJfg6uos73d-6QJk-9wy6MEQRPBvEuNaSqXmlSLsANy3gmQNkdetcqkFCdXlWB]--></g></svg>