<?xml version="1.0" encoding="UTF-8" standalone="no"?><svg xmlns="http://www.w3.org/2000/svg" xmlns:xlink="http://www.w3.org/1999/xlink" contentStyleType="text/css" height="755px" preserveAspectRatio="none" style="width:1528px;height:755px;background:#FFFFFF;" version="1.1" viewBox="0 0 1528 755" width="1528px" zoomAndPan="magnify"><defs/><g><!--MD5=[eae7ec724ddb57b8442b173ee9ef684e]
class AddUserUI--><g id="elem_AddUserUI"><rect codeLine="2" fill="#F1F1F1" height="100.8281" id="AddUserUI" rx="2.5" ry="2.5" style="stroke:#181818;stroke-width:0.5;" width="247" x="1020.5" y="7"/><ellipse cx="1105.25" cy="23" fill="#B4A7E5" rx="11" ry="11" style="stroke:#181818;stroke-width:1.0;"/><path d="M1106.25,20 L1106.25,26 L1108.25,26 L1108.7344,26 L1109.25,26.625 L1109.25,27 L1109.25,27.375 L1108.7344,28 L1108.25,28 L1102.25,28 L1101.7656,28 L1101.25,27.375 L1101.25,27 L1101.25,26.625 L1101.7656,26 L1102.25,26 L1104.25,26 L1104.25,20 L1102.25,20 L1101.7656,20 L1101.25,19.375 L1101.25,19 L1101.25,18.625 L1101.7656,18 L1102.25,18 L1108.25,18 L1108.7344,18 L1109.25,18.625 L1109.25,19 L1109.25,19.375 L1108.7344,20 L1108.25,20 L1106.25,20 Z " fill="#000000"/><text fill="#000000" font-family="sans-serif" font-size="14" font-style="italic" lengthAdjust="spacing" textLength="69" x="1125.75" y="28.7285">AddUserUI</text><line style="stroke:#181818;stroke-width:0.5;" x1="1021.5" x2="1266.5" y1="39" y2="39"/><line style="stroke:#181818;stroke-width:0.5;" x1="1021.5" x2="1266.5" y1="47" y2="47"/><ellipse cx="1031.5" cy="61.3047" fill="#84BE84" rx="3" ry="3" style="stroke:#038048;stroke-width:1.0;"/><text fill="#000000" font-family="sans-serif" font-size="14" lengthAdjust="spacing" textLength="129" x="1040.5" y="65.5332">requestToAddUser()</text><ellipse cx="1031.5" cy="78.9141" fill="#84BE84" rx="3" ry="3" style="stroke:#038048;stroke-width:1.0;"/><text fill="#000000" font-family="sans-serif" font-size="14" lengthAdjust="spacing" textLength="221" x="1040.5" y="83.1426">showListOfRoles(roles: List&lt;Role&gt;)</text><ellipse cx="1031.5" cy="96.5234" fill="#84BE84" rx="3" ry="3" style="stroke:#038048;stroke-width:1.0;"/><text fill="#000000" font-family="sans-serif" font-size="14" lengthAdjust="spacing" textLength="189" x="1040.5" y="100.752">getUserInputData(): InputData</text></g><!--MD5=[621e31afed9bac92599b7064c4e6b330]
class ShowRolesService--><g id="elem_ShowRolesService"><rect codeLine="8" fill="#F1F1F1" height="100.8281" id="ShowRolesService" rx="2.5" ry="2.5" style="stroke:#181818;stroke-width:0.5;" width="292" x="273" y="168"/><ellipse cx="356.25" cy="184" fill="#ADD1B2" rx="11" ry="11" style="stroke:#181818;stroke-width:1.0;"/><path d="M358.25,180.5 Q358.4531,180 358.6875,179.75 Q358.9219,179.5 359.1875,179.5 Q359.6563,179.5 359.9531,179.7813 Q360.25,180.0625 360.25,180.7188 L360.25,182.2813 Q360.25,182.9375 359.9688,183.2188 Q359.6875,183.5 359.25,183.5 Q358.8594,183.5 358.6094,183.3281 Q358.3594,183.1563 358.25,182.7031 Q358.2031,182.3906 358.0313,182.2188 Q357.7188,181.8906 357.1563,181.7031 Q356.5938,181.5 356.0313,181.5 Q355.3281,181.5 354.7344,181.7813 Q354.1563,182.0625 353.7031,182.6875 Q353.25,183.3125 353.25,184.1719 L353.25,185.0938 Q353.25,186.125 354.0938,186.8125 Q354.9375,187.5 356.4375,187.5 Q357.3281,187.5 357.9531,187.2969 Q358.3125,187.1875 358.7188,186.8281 Q358.9844,186.625 359.125,186.5625 Q359.2656,186.5 359.4375,186.5 Q359.7656,186.5 360,186.7656 Q360.25,187.0156 360.25,187.375 Q360.25,187.7188 359.9063,188.125 Q359.4063,188.7188 358.6094,189.0469 Q357.5625,189.5 356.2813,189.5 Q354.7813,189.5 353.5781,188.9063 Q352.6094,188.4375 351.9219,187.4219 Q351.25,186.4063 351.25,185.2031 L351.25,184.1094 Q351.25,182.8594 351.8438,181.7656 Q352.4531,180.6719 353.5,180.0938 Q354.5625,179.5 355.75,179.5 Q356.4688,179.5 357.0938,179.75 Q357.7188,180 358.25,180.5 Z " fill="#000000"/><text fill="#000000" font-family="sans-serif" font-size="14" lengthAdjust="spacing" textLength="117" x="376.75" y="189.7285">ShowRolesService</text><line style="stroke:#181818;stroke-width:0.5;" x1="274" x2="564" y1="200" y2="200"/><rect fill="none" height="6" style="stroke:#C82930;stroke-width:1.0;" width="6" x="281" y="211.3047"/><text fill="#000000" font-family="sans-serif" font-size="14" lengthAdjust="spacing" textLength="265" x="293" y="218.5332">authorizationService: AuthorizationService</text><rect fill="none" height="6" style="stroke:#C82930;stroke-width:1.0;" width="6" x="281" y="228.9141"/><text fill="#000000" font-family="sans-serif" font-size="14" lengthAdjust="spacing" textLength="266" x="293" y="236.1426">userRepository: ELearningUserRepository</text><line style="stroke:#181818;stroke-width:0.5;" x1="274" x2="564" y1="243.2188" y2="243.2188"/><ellipse cx="284" cy="257.5234" fill="#84BE84" rx="3" ry="3" style="stroke:#038048;stroke-width:1.0;"/><text fill="#000000" font-family="sans-serif" font-size="14" lengthAdjust="spacing" textLength="78" x="293" y="261.752">showRoles()</text></g><!--MD5=[8c59cfbc2252cb07c050d5e7108b82d8]
class AddUserController--><g id="elem_AddUserController"><rect codeLine="14" fill="#F1F1F1" height="100.8281" id="AddUserController" rx="2.5" ry="2.5" style="stroke:#181818;stroke-width:0.5;" width="474" x="720" y="168"/><ellipse cx="894.75" cy="184" fill="#ADD1B2" rx="11" ry="11" style="stroke:#181818;stroke-width:1.0;"/><path d="M896.75,180.5 Q896.9531,180 897.1875,179.75 Q897.4219,179.5 897.6875,179.5 Q898.1563,179.5 898.4531,179.7813 Q898.75,180.0625 898.75,180.7188 L898.75,182.2813 Q898.75,182.9375 898.4688,183.2188 Q898.1875,183.5 897.75,183.5 Q897.3594,183.5 897.1094,183.3281 Q896.8594,183.1563 896.75,182.7031 Q896.7031,182.3906 896.5313,182.2188 Q896.2188,181.8906 895.6563,181.7031 Q895.0938,181.5 894.5313,181.5 Q893.8281,181.5 893.2344,181.7813 Q892.6563,182.0625 892.2031,182.6875 Q891.75,183.3125 891.75,184.1719 L891.75,185.0938 Q891.75,186.125 892.5938,186.8125 Q893.4375,187.5 894.9375,187.5 Q895.8281,187.5 896.4531,187.2969 Q896.8125,187.1875 897.2188,186.8281 Q897.4844,186.625 897.625,186.5625 Q897.7656,186.5 897.9375,186.5 Q898.2656,186.5 898.5,186.7656 Q898.75,187.0156 898.75,187.375 Q898.75,187.7188 898.4063,188.125 Q897.9063,188.7188 897.1094,189.0469 Q896.0625,189.5 894.7813,189.5 Q893.2813,189.5 892.0781,188.9063 Q891.1094,188.4375 890.4219,187.4219 Q889.75,186.4063 889.75,185.2031 L889.75,184.1094 Q889.75,182.8594 890.3438,181.7656 Q890.9531,180.6719 892,180.0938 Q893.0625,179.5 894.25,179.5 Q894.9688,179.5 895.5938,179.75 Q896.2188,180 896.75,180.5 Z " fill="#000000"/><text fill="#000000" font-family="sans-serif" font-size="14" lengthAdjust="spacing" textLength="116" x="915.25" y="189.7285">AddUserController</text><line style="stroke:#181818;stroke-width:0.5;" x1="721" x2="1193" y1="200" y2="200"/><rect fill="none" height="6" style="stroke:#C82930;stroke-width:1.0;" width="6" x="728" y="211.3047"/><text fill="#000000" font-family="sans-serif" font-size="14" lengthAdjust="spacing" textLength="241" x="740" y="218.5332">userService: UserManagementService</text><rect fill="none" height="6" style="stroke:#C82930;stroke-width:1.0;" width="6" x="728" y="228.9141"/><text fill="#000000" font-family="sans-serif" font-size="14" lengthAdjust="spacing" textLength="265" x="740" y="236.1426">authorizationService: AuthorizationService</text><line style="stroke:#181818;stroke-width:0.5;" x1="721" x2="1193" y1="243.2188" y2="243.2188"/><ellipse cx="731" cy="257.5234" fill="#84BE84" rx="3" ry="3" style="stroke:#038048;stroke-width:1.0;"/><text fill="#000000" font-family="sans-serif" font-size="14" lengthAdjust="spacing" textLength="448" x="740" y="261.752">addUser(inputData: InputData, selectedRoles: List&lt;Role&gt;): SystemUser</text></g><!--MD5=[54a33dd013dd881697601ca49de6dfbc]
class AuthorizationService--><g id="elem_AuthorizationService"><rect codeLine="20" fill="#F1F1F1" height="65.6094" id="AuthorizationService" rx="2.5" ry="2.5" style="stroke:#181818;stroke-width:0.5;" width="365" x="236.5" y="337.5"/><ellipse cx="350.25" cy="353.5" fill="#B4A7E5" rx="11" ry="11" style="stroke:#181818;stroke-width:1.0;"/><path d="M351.25,350.5 L351.25,356.5 L353.25,356.5 L353.7344,356.5 L354.25,357.125 L354.25,357.5 L354.25,357.875 L353.7344,358.5 L353.25,358.5 L347.25,358.5 L346.7656,358.5 L346.25,357.875 L346.25,357.5 L346.25,357.125 L346.7656,356.5 L347.25,356.5 L349.25,356.5 L349.25,350.5 L347.25,350.5 L346.7656,350.5 L346.25,349.875 L346.25,349.5 L346.25,349.125 L346.7656,348.5 L347.25,348.5 L353.25,348.5 L353.7344,348.5 L354.25,349.125 L354.25,349.5 L354.25,349.875 L353.7344,350.5 L353.25,350.5 L351.25,350.5 Z " fill="#000000"/><text fill="#000000" font-family="sans-serif" font-size="14" font-style="italic" lengthAdjust="spacing" textLength="129" x="370.75" y="359.2285">AuthorizationService</text><line style="stroke:#181818;stroke-width:0.5;" x1="237.5" x2="600.5" y1="369.5" y2="369.5"/><line style="stroke:#181818;stroke-width:0.5;" x1="237.5" x2="600.5" y1="377.5" y2="377.5"/><ellipse cx="247.5" cy="391.8047" fill="#84BE84" rx="3" ry="3" style="stroke:#038048;stroke-width:1.0;"/><text fill="#000000" font-family="sans-serif" font-size="14" lengthAdjust="spacing" textLength="339" x="256.5" y="396.0332">ensureAuthenticatedUserHasAnyOf(roles: List&lt;Role&gt;)</text></g><!--MD5=[dee3711f8c64a3e2b37828f172d71c22]
class UserManagementService--><g id="elem_UserManagementService"><rect codeLine="24" fill="#F1F1F1" height="65.6094" id="UserManagementService" rx="2.5" ry="2.5" style="stroke:#181818;stroke-width:0.5;" width="641" x="636.5" y="337.5"/><ellipse cx="873.25" cy="353.5" fill="#B4A7E5" rx="11" ry="11" style="stroke:#181818;stroke-width:1.0;"/><path d="M874.25,350.5 L874.25,356.5 L876.25,356.5 L876.7344,356.5 L877.25,357.125 L877.25,357.5 L877.25,357.875 L876.7344,358.5 L876.25,358.5 L870.25,358.5 L869.7656,358.5 L869.25,357.875 L869.25,357.5 L869.25,357.125 L869.7656,356.5 L870.25,356.5 L872.25,356.5 L872.25,350.5 L870.25,350.5 L869.7656,350.5 L869.25,349.875 L869.25,349.5 L869.25,349.125 L869.7656,348.5 L870.25,348.5 L876.25,348.5 L876.7344,348.5 L877.25,349.125 L877.25,349.5 L877.25,349.875 L876.7344,350.5 L876.25,350.5 L874.25,350.5 Z " fill="#000000"/><text fill="#000000" font-family="sans-serif" font-size="14" font-style="italic" lengthAdjust="spacing" textLength="159" x="893.75" y="359.2285">UserManagementService</text><line style="stroke:#181818;stroke-width:0.5;" x1="637.5" x2="1276.5" y1="369.5" y2="369.5"/><line style="stroke:#181818;stroke-width:0.5;" x1="637.5" x2="1276.5" y1="377.5" y2="377.5"/><ellipse cx="647.5" cy="391.8047" fill="#84BE84" rx="3" ry="3" style="stroke:#038048;stroke-width:1.0;"/><text fill="#000000" font-family="sans-serif" font-size="14" lengthAdjust="spacing" textLength="615" x="656.5" y="396.0332">registerNewUser(username, password, firstName, lastName, email, roles, createdOn): SystemUser</text></g><!--MD5=[190949231cda7e659034cb685518bdef]
class ELearningUserRepository--><g id="elem_ELearningUserRepository"><rect codeLine="28" fill="#F1F1F1" height="83.2188" id="ELearningUserRepository" rx="2.5" ry="2.5" style="stroke:#181818;stroke-width:0.5;" width="194" x="7" y="329"/><ellipse cx="22" cy="345" fill="#ADD1B2" rx="11" ry="11" style="stroke:#181818;stroke-width:1.0;"/><path d="M24,341.5 Q24.2031,341 24.4375,340.75 Q24.6719,340.5 24.9375,340.5 Q25.4063,340.5 25.7031,340.7813 Q26,341.0625 26,341.7188 L26,343.2813 Q26,343.9375 25.7188,344.2188 Q25.4375,344.5 25,344.5 Q24.6094,344.5 24.3594,344.3281 Q24.1094,344.1563 24,343.7031 Q23.9531,343.3906 23.7813,343.2188 Q23.4688,342.8906 22.9063,342.7031 Q22.3438,342.5 21.7813,342.5 Q21.0781,342.5 20.4844,342.7813 Q19.9063,343.0625 19.4531,343.6875 Q19,344.3125 19,345.1719 L19,346.0938 Q19,347.125 19.8438,347.8125 Q20.6875,348.5 22.1875,348.5 Q23.0781,348.5 23.7031,348.2969 Q24.0625,348.1875 24.4688,347.8281 Q24.7344,347.625 24.875,347.5625 Q25.0156,347.5 25.1875,347.5 Q25.5156,347.5 25.75,347.7656 Q26,348.0156 26,348.375 Q26,348.7188 25.6563,349.125 Q25.1563,349.7188 24.3594,350.0469 Q23.3125,350.5 22.0313,350.5 Q20.5313,350.5 19.3281,349.9063 Q18.3594,349.4375 17.6719,348.4219 Q17,347.4063 17,346.2031 L17,345.1094 Q17,343.8594 17.5938,342.7656 Q18.2031,341.6719 19.25,341.0938 Q20.3125,340.5 21.5,340.5 Q22.2188,340.5 22.8438,340.75 Q23.4688,341 24,341.5 Z " fill="#000000"/><text fill="#000000" font-family="sans-serif" font-size="14" lengthAdjust="spacing" textLength="162" x="36" y="350.7285">ELearningUserRepository</text><line style="stroke:#181818;stroke-width:0.5;" x1="8" x2="200" y1="361" y2="361"/><line style="stroke:#181818;stroke-width:0.5;" x1="8" x2="200" y1="369" y2="369"/><ellipse cx="18" cy="383.3047" fill="#84BE84" rx="3" ry="3" style="stroke:#038048;stroke-width:1.0;"/><text fill="#000000" font-family="sans-serif" font-size="14" lengthAdjust="spacing" textLength="84" x="27" y="387.5332">repositories()</text><ellipse cx="18" cy="400.9141" fill="#84BE84" rx="3" ry="3" style="stroke:#038048;stroke-width:1.0;"/><text fill="#000000" font-family="sans-serif" font-size="14" lengthAdjust="spacing" textLength="153" x="27" y="405.1426">showRoles(): List&lt;Role&gt;</text></g><!--MD5=[bc064d979c32666ae52f3d7624591b7b]
class SystemUser--><g id="elem_SystemUser"><rect codeLine="33" fill="#F1F1F1" height="276.9219" id="SystemUser" rx="2.5" ry="2.5" style="stroke:#181818;stroke-width:0.5;" width="167" x="873.5" y="472"/><ellipse cx="915.5" cy="488" fill="#ADD1B2" rx="11" ry="11" style="stroke:#181818;stroke-width:1.0;"/><path d="M917.5,484.5 Q917.7031,484 917.9375,483.75 Q918.1719,483.5 918.4375,483.5 Q918.9063,483.5 919.2031,483.7813 Q919.5,484.0625 919.5,484.7188 L919.5,486.2813 Q919.5,486.9375 919.2188,487.2188 Q918.9375,487.5 918.5,487.5 Q918.1094,487.5 917.8594,487.3281 Q917.6094,487.1563 917.5,486.7031 Q917.4531,486.3906 917.2813,486.2188 Q916.9688,485.8906 916.4063,485.7031 Q915.8438,485.5 915.2813,485.5 Q914.5781,485.5 913.9844,485.7813 Q913.4063,486.0625 912.9531,486.6875 Q912.5,487.3125 912.5,488.1719 L912.5,489.0938 Q912.5,490.125 913.3438,490.8125 Q914.1875,491.5 915.6875,491.5 Q916.5781,491.5 917.2031,491.2969 Q917.5625,491.1875 917.9688,490.8281 Q918.2344,490.625 918.375,490.5625 Q918.5156,490.5 918.6875,490.5 Q919.0156,490.5 919.25,490.7656 Q919.5,491.0156 919.5,491.375 Q919.5,491.7188 919.1563,492.125 Q918.6563,492.7188 917.8594,493.0469 Q916.8125,493.5 915.5313,493.5 Q914.0313,493.5 912.8281,492.9063 Q911.8594,492.4375 911.1719,491.4219 Q910.5,490.4063 910.5,489.2031 L910.5,488.1094 Q910.5,486.8594 911.0938,485.7656 Q911.7031,484.6719 912.75,484.0938 Q913.8125,483.5 915,483.5 Q915.7188,483.5 916.3438,483.75 Q916.9688,484 917.5,484.5 Z " fill="#000000"/><text fill="#000000" font-family="sans-serif" font-size="14" lengthAdjust="spacing" textLength="75" x="935.5" y="493.7285">SystemUser</text><line style="stroke:#181818;stroke-width:0.5;" x1="874.5" x2="1039.5" y1="504" y2="504"/><rect fill="none" height="6" style="stroke:#C82930;stroke-width:1.0;" width="6" x="881.5" y="515.3047"/><text fill="#000000" font-family="sans-serif" font-size="14" lengthAdjust="spacing" textLength="108" x="893.5" y="522.5332">username: String</text><rect fill="none" height="6" style="stroke:#C82930;stroke-width:1.0;" width="6" x="881.5" y="532.9141"/><text fill="#000000" font-family="sans-serif" font-size="14" lengthAdjust="spacing" textLength="105" x="893.5" y="540.1426">password: String</text><rect fill="none" height="6" style="stroke:#C82930;stroke-width:1.0;" width="6" x="881.5" y="550.5234"/><text fill="#000000" font-family="sans-serif" font-size="14" lengthAdjust="spacing" textLength="104" x="893.5" y="557.752">firstName: String</text><rect fill="none" height="6" style="stroke:#C82930;stroke-width:1.0;" width="6" x="881.5" y="568.1328"/><text fill="#000000" font-family="sans-serif" font-size="14" lengthAdjust="spacing" textLength="103" x="893.5" y="575.3613">lastName: String</text><rect fill="none" height="6" style="stroke:#C82930;stroke-width:1.0;" width="6" x="881.5" y="585.7422"/><text fill="#000000" font-family="sans-serif" font-size="14" lengthAdjust="spacing" textLength="78" x="893.5" y="592.9707">email: String</text><rect fill="none" height="6" style="stroke:#C82930;stroke-width:1.0;" width="6" x="881.5" y="603.3516"/><text fill="#000000" font-family="sans-serif" font-size="14" lengthAdjust="spacing" textLength="106" x="893.5" y="610.5801">roles: List&lt;Role&gt;</text><rect fill="none" height="6" style="stroke:#C82930;stroke-width:1.0;" width="6" x="881.5" y="620.9609"/><text fill="#000000" font-family="sans-serif" font-size="14" lengthAdjust="spacing" textLength="105" x="893.5" y="628.1895">createdOn: Date</text><line style="stroke:#181818;stroke-width:0.5;" x1="874.5" x2="1039.5" y1="635.2656" y2="635.2656"/><ellipse cx="884.5" cy="649.5703" fill="#84BE84" rx="3" ry="3" style="stroke:#038048;stroke-width:1.0;"/><text fill="#000000" font-family="sans-serif" font-size="14" lengthAdjust="spacing" textLength="139" x="893.5" y="653.7988">getUsername(): String</text><ellipse cx="884.5" cy="667.1797" fill="#84BE84" rx="3" ry="3" style="stroke:#038048;stroke-width:1.0;"/><text fill="#000000" font-family="sans-serif" font-size="14" lengthAdjust="spacing" textLength="139" x="893.5" y="671.4082">getFirstName(): String</text><ellipse cx="884.5" cy="684.7891" fill="#84BE84" rx="3" ry="3" style="stroke:#038048;stroke-width:1.0;"/><text fill="#000000" font-family="sans-serif" font-size="14" lengthAdjust="spacing" textLength="138" x="893.5" y="689.0176">getLastName(): String</text><ellipse cx="884.5" cy="702.3984" fill="#84BE84" rx="3" ry="3" style="stroke:#038048;stroke-width:1.0;"/><text fill="#000000" font-family="sans-serif" font-size="14" lengthAdjust="spacing" textLength="109" x="893.5" y="706.627">getEmail(): String</text><ellipse cx="884.5" cy="720.0078" fill="#84BE84" rx="3" ry="3" style="stroke:#038048;stroke-width:1.0;"/><text fill="#000000" font-family="sans-serif" font-size="14" lengthAdjust="spacing" textLength="141" x="893.5" y="724.2363">getRoles(): List&lt;Role&gt;</text><ellipse cx="884.5" cy="737.6172" fill="#84BE84" rx="3" ry="3" style="stroke:#038048;stroke-width:1.0;"/><text fill="#000000" font-family="sans-serif" font-size="14" lengthAdjust="spacing" textLength="138" x="893.5" y="741.8457">getCreatedOn(): Date</text></g><!--MD5=[a3638c1e5b65d287ecad7f06f5c0f212]
class Role--><g id="elem_Role"><rect codeLine="49" fill="#F1F1F1" height="83.2188" id="Role" rx="2.5" ry="2.5" style="stroke:#181818;stroke-width:0.5;" width="137" x="1384.5" y="177"/><ellipse cx="1434.25" cy="193" fill="#ADD1B2" rx="11" ry="11" style="stroke:#181818;stroke-width:1.0;"/><path d="M1436.25,189.5 Q1436.4531,189 1436.6875,188.75 Q1436.9219,188.5 1437.1875,188.5 Q1437.6563,188.5 1437.9531,188.7813 Q1438.25,189.0625 1438.25,189.7188 L1438.25,191.2813 Q1438.25,191.9375 1437.9688,192.2188 Q1437.6875,192.5 1437.25,192.5 Q1436.8594,192.5 1436.6094,192.3281 Q1436.3594,192.1563 1436.25,191.7031 Q1436.2031,191.3906 1436.0313,191.2188 Q1435.7188,190.8906 1435.1563,190.7031 Q1434.5938,190.5 1434.0313,190.5 Q1433.3281,190.5 1432.7344,190.7813 Q1432.1563,191.0625 1431.7031,191.6875 Q1431.25,192.3125 1431.25,193.1719 L1431.25,194.0938 Q1431.25,195.125 1432.0938,195.8125 Q1432.9375,196.5 1434.4375,196.5 Q1435.3281,196.5 1435.9531,196.2969 Q1436.3125,196.1875 1436.7188,195.8281 Q1436.9844,195.625 1437.125,195.5625 Q1437.2656,195.5 1437.4375,195.5 Q1437.7656,195.5 1438,195.7656 Q1438.25,196.0156 1438.25,196.375 Q1438.25,196.7188 1437.9063,197.125 Q1437.4063,197.7188 1436.6094,198.0469 Q1435.5625,198.5 1434.2813,198.5 Q1432.7813,198.5 1431.5781,197.9063 Q1430.6094,197.4375 1429.9219,196.4219 Q1429.25,195.4063 1429.25,194.2031 L1429.25,193.1094 Q1429.25,191.8594 1429.8438,190.7656 Q1430.4531,189.6719 1431.5,189.0938 Q1432.5625,188.5 1433.75,188.5 Q1434.4688,188.5 1435.0938,188.75 Q1435.7188,189 1436.25,189.5 Z " fill="#000000"/><text fill="#000000" font-family="sans-serif" font-size="14" lengthAdjust="spacing" textLength="29" x="1454.75" y="198.7285">Role</text><line style="stroke:#181818;stroke-width:0.5;" x1="1385.5" x2="1520.5" y1="209" y2="209"/><rect fill="none" height="6" style="stroke:#C82930;stroke-width:1.0;" width="6" x="1392.5" y="220.3047"/><text fill="#000000" font-family="sans-serif" font-size="14" lengthAdjust="spacing" textLength="80" x="1404.5" y="227.5332">name: String</text><line style="stroke:#181818;stroke-width:0.5;" x1="1385.5" x2="1520.5" y1="234.6094" y2="234.6094"/><ellipse cx="1395.5" cy="248.9141" fill="#84BE84" rx="3" ry="3" style="stroke:#038048;stroke-width:1.0;"/><text fill="#000000" font-family="sans-serif" font-size="14" lengthAdjust="spacing" textLength="111" x="1404.5" y="253.1426">getName(): String</text></g><!--MD5=[f704550b454b029ece23b238a2d0ec64]
link AddUserUI to ShowRolesService--><g id="link_AddUserUI_ShowRolesService"><path codeLine="54" d="M1020.19,85.65 C895.71,112.95 703.63,155.08 570.21,184.34 " fill="none" id="AddUserUI-to-ShowRolesService" style="stroke:#181818;stroke-width:1.0;"/><polygon fill="#181818" points="565.1,185.46,574.7479,187.4393,569.9839,184.389,573.0343,179.625,565.1,185.46" style="stroke:#181818;stroke-width:1.0;"/></g><!--MD5=[0f6c5aca6998816433db9e5ce6ee5e43]
link AddUserUI to AddUserController--><g id="link_AddUserUI_AddUserController"><path codeLine="55" d="M1085.6,108.15 C1064.52,126.08 1040.65,146.38 1019.24,164.58 " fill="none" id="AddUserUI-to-AddUserController" style="stroke:#181818;stroke-width:1.0;"/><polygon fill="#181818" points="1015.28,167.95,1024.7226,165.1504,1019.0833,164.7043,1019.5294,159.0651,1015.28,167.95" style="stroke:#181818;stroke-width:1.0;"/></g><!--MD5=[78c33fa1af6b9654bdde003568e1482a]
link AddUserUI to SystemUser--><g id="link_AddUserUI_SystemUser"><path codeLine="56" d="M1193.98,108.26 C1258.03,178.31 1354.13,308.97 1295,412 C1241.85,504.62 1126.62,557.94 1045.53,585.32 " fill="none" id="AddUserUI-to-SystemUser" style="stroke:#181818;stroke-width:1.0;"/><polygon fill="#181818" points="1040.73,586.92,1050.5339,587.8598,1045.472,585.3346,1047.9972,580.2726,1040.73,586.92" style="stroke:#181818;stroke-width:1.0;"/></g><!--MD5=[f3bd323e3373bc0753c0fa83a2e2c6e7]
link ShowRolesService to ELearningUserRepository--><g id="link_ShowRolesService_ELearningUserRepository"><path codeLine="57" d="M314.98,269.03 C275.81,287.69 231.62,308.73 193.85,326.72 " fill="none" id="ShowRolesService-to-ELearningUserRepository" style="stroke:#181818;stroke-width:1.0;"/><polygon fill="#181818" points="189.27,328.89,199.1151,328.6187,193.7814,326.7342,195.6659,321.4005,189.27,328.89" style="stroke:#181818;stroke-width:1.0;"/></g><!--MD5=[89f4040e1f7d65a25a98e95f070c1f24]
link AddUserController to UserManagementService--><g id="link_AddUserController_UserManagementService"><path codeLine="58" d="M957,269.03 C957,289.62 957,313.12 957,332.21 " fill="none" id="AddUserController-to-UserManagementService" style="stroke:#181818;stroke-width:1.0;"/><polygon fill="#181818" points="957,337.48,961,328.48,957,332.48,953,328.48,957,337.48" style="stroke:#181818;stroke-width:1.0;"/></g><!--MD5=[aa5637fc1292a9b6857494c6f27b043d]
link AddUserController to AuthorizationService--><g id="link_AddUserController_AuthorizationService"><path codeLine="59" d="M779.35,269.03 C700.44,291.03 609.63,316.35 538.91,336.07 " fill="none" id="AddUserController-to-AuthorizationService" style="stroke:#181818;stroke-width:1.0;"/><polygon fill="#181818" points="533.86,337.48,543.6038,338.9148,538.6762,336.1366,541.4544,331.209,533.86,337.48" style="stroke:#181818;stroke-width:1.0;"/></g><!--MD5=[dfc0027535c1b031235e1a9bafd06ffb]
link ShowRolesService to AuthorizationService--><g id="link_ShowRolesService_AuthorizationService"><path codeLine="60" d="M419,269.03 C419,289.62 419,313.12 419,332.21 " fill="none" id="ShowRolesService-to-AuthorizationService" style="stroke:#181818;stroke-width:1.0;"/><polygon fill="#181818" points="419,337.48,423,328.48,419,332.48,415,328.48,419,337.48" style="stroke:#181818;stroke-width:1.0;"/></g><!--MD5=[cd80e25f455daf6ddd6f1a7b4e805c64]
link UserManagementService to SystemUser--><g id="link_UserManagementService_SystemUser"><path codeLine="61" d="M957,403.6 C957,420.71 957,443.11 957,466.8 " fill="none" id="UserManagementService-to-SystemUser" style="stroke:#181818;stroke-width:1.0;"/><polygon fill="#181818" points="957,471.88,961,462.88,957,466.88,953,462.88,957,471.88" style="stroke:#181818;stroke-width:1.0;"/></g><!--MD5=[8b27e9be92689afa95ef3fb174342445]
link ELearningUserRepository to SystemUser--><g id="link_ELearningUserRepository_SystemUser"><path codeLine="62" d="M201.07,406.28 C207.12,408.26 213.14,410.19 219,412 C451.29,483.87 729.35,554.09 868.5,588.16 " fill="none" id="ELearningUserRepository-to-SystemUser" style="stroke:#181818;stroke-width:1.0;"/><polygon fill="#181818" points="873.39,589.36,865.5954,583.3397,868.5326,588.1742,863.6981,591.1115,873.39,589.36" style="stroke:#181818;stroke-width:1.0;"/></g><!--MD5=[cddfc249d48f319ae9b96fb42577ba1c]
link AddUserUI to Role--><g id="link_AddUserUI_Role"><path codeLine="63" d="M1240.5,108.08 C1277.01,126.84 1318.92,148.4 1357,168 C1364.32,171.77 1371.95,175.7 1379.57,179.63 " fill="none" id="AddUserUI-to-Role" style="stroke:#181818;stroke-width:1.0;"/><polygon fill="#181818" points="1384.31,182.07,1378.1564,174.3802,1379.8697,179.7713,1374.4786,181.4846,1384.31,182.07" style="stroke:#181818;stroke-width:1.0;"/></g><!--MD5=[dc3fc4c21c049b9307c83bfb9a16a8f8]
@startuml

interface AddUserUI {
  +requestToAddUser()
  +showListOfRoles(roles: List<Role>)
  +getUserInputData(): InputData
}

class ShowRolesService {
  -authorizationService: AuthorizationService
  -userRepository: ELearningUserRepository
  +showRoles()
}

class AddUserController {
  -userService: UserManagementService
  -authorizationService: AuthorizationService
  +addUser(inputData: InputData, selectedRoles: List<Role>): SystemUser
}

interface AuthorizationService {
  +ensureAuthenticatedUserHasAnyOf(roles: List<Role>)
}

interface UserManagementService {
  +registerNewUser(username, password, firstName, lastName, email, roles, createdOn): SystemUser
}

class ELearningUserRepository {
  +repositories()
  +showRoles(): List<Role>
}

class SystemUser {
  -username: String
  -password: String
  -firstName: String
  -lastName: String
  -email: String
  -roles: List<Role>
  -createdOn: Date
  +getUsername(): String
  +getFirstName(): String
  +getLastName(): String
  +getEmail(): String
  +getRoles(): List<Role>
  +getCreatedOn(): Date
}

class Role {
  -name: String
  +getName(): String
}

AddUserUI - -> ShowRolesService
AddUserUI - -> AddUserController
AddUserUI - -> SystemUser
ShowRolesService - -> ELearningUserRepository
AddUserController - -> UserManagementService
AddUserController - -> AuthorizationService
ShowRolesService - -> AuthorizationService
UserManagementService - -> SystemUser
ELearningUserRepository - -> SystemUser
AddUserUI - -> Role
@enduml

PlantUML version 1.2022.12(Sun Oct 23 19:12:26 BST 2022)
(GPL source distribution)
Java Runtime: OpenJDK Runtime Environment
JVM: OpenJDK 64-Bit Server VM
Default Encoding: Cp1252
Language: en
Country: US
--></g></svg>