<?xml version="1.0" encoding="UTF-8" standalone="no"?><svg xmlns="http://www.w3.org/2000/svg" xmlns:xlink="http://www.w3.org/1999/xlink" contentStyleType="text/css" height="1542px" preserveAspectRatio="none" style="width:763px;height:1542px;background:#282828;" version="1.1" viewBox="0 0 763 1542" width="763px" zoomAndPan="magnify"><defs/><g><!--MD5=[b110f5355061fb3ceca7c492aa18dd29]
cluster <<agr SystemUser>>--><g id="cluster_&lt;&lt;agr SystemUser&gt;&gt;"><path d="M223,729.1191 L497,729.1191 A3.75,3.75 0 0 1 499.5,731.6191 L506.5,761.8564 L568.5,761.8564 A2.5,2.5 0 0 1 571,764.3564 L571,1021.6191 A2.5,2.5 0 0 1 568.5,1024.1191 L223,1024.1191 A2.5,2.5 0 0 1 220.5,1021.6191 L220.5,731.6191 A2.5,2.5 0 0 1 223,729.1191 " fill="#282828" style="stroke:#33FF33;stroke-width:1.0;"/><line style="stroke:#33FF33;stroke-width:1.0;" x1="220.5" x2="506.5" y1="761.8564" y2="761.8564"/><text fill="#33FF33" font-family="Verdana" font-size="22" font-weight="bold" lengthAdjust="spacing" textLength="273" x="224.5" y="753.2373">&lt;&lt;agr SystemUser&gt;&gt;</text></g><!--MD5=[f804193a1e6122b9a58c180f71471b3e]
cluster <<agr Manager>>--><g id="cluster_&lt;&lt;agr Manager&gt;&gt;"><path d="M160,12.1191 L394,12.1191 A3.75,3.75 0 0 1 396.5,14.6191 L403.5,44.8564 L404,44.8564 A2.5,2.5 0 0 1 406.5,47.3564 L406.5,126.6191 A2.5,2.5 0 0 1 404,129.1191 L160,129.1191 A2.5,2.5 0 0 1 157.5,126.6191 L157.5,14.6191 A2.5,2.5 0 0 1 160,12.1191 " fill="#282828" style="stroke:#33FF33;stroke-width:1.0;"/><line style="stroke:#33FF33;stroke-width:1.0;" x1="157.5" x2="403.5" y1="44.8564" y2="44.8564"/><text fill="#33FF33" font-family="Verdana" font-size="22" font-weight="bold" lengthAdjust="spacing" textLength="233" x="161.5" y="36.2373">&lt;&lt;agr Manager&gt;&gt;</text></g><!--MD5=[35923cb12c05676ebce80b9ded9f376d]
cluster <<agr Teacher>>--><g id="cluster_&lt;&lt;agr Teacher&gt;&gt;"><path d="M458.5,1048.1191 L684.5,1048.1191 A3.75,3.75 0 0 1 687,1050.6191 L694,1080.8564 L753.5,1080.8564 A2.5,2.5 0 0 1 756,1083.3564 L756,1532.6191 A2.5,2.5 0 0 1 753.5,1535.1191 L458.5,1535.1191 A2.5,2.5 0 0 1 456,1532.6191 L456,1050.6191 A2.5,2.5 0 0 1 458.5,1048.1191 " fill="#282828" style="stroke:#33FF33;stroke-width:1.0;"/><line style="stroke:#33FF33;stroke-width:1.0;" x1="456" x2="694" y1="1080.8564" y2="1080.8564"/><text fill="#33FF33" font-family="Verdana" font-size="22" font-weight="bold" lengthAdjust="spacing" textLength="225" x="460" y="1072.2373">&lt;&lt;agr Teacher&gt;&gt;</text></g><!--MD5=[5073b65cfab0f3b6c40e98381a5edf48]
cluster <<agr Student>>--><g id="cluster_&lt;&lt;agr Student&gt;&gt;"><path d="M13.5,218.1191 L237.5,218.1191 A3.75,3.75 0 0 1 240,220.6191 L247,250.8564 L387.5,250.8564 A2.5,2.5 0 0 1 390,253.3564 L390,702.6191 A2.5,2.5 0 0 1 387.5,705.1191 L13.5,705.1191 A2.5,2.5 0 0 1 11,702.6191 L11,220.6191 A2.5,2.5 0 0 1 13.5,218.1191 " fill="#282828" style="stroke:#33FF33;stroke-width:1.0;"/><line style="stroke:#33FF33;stroke-width:1.0;" x1="11" x2="247" y1="250.8564" y2="250.8564"/><text fill="#33FF33" font-family="Verdana" font-size="22" font-weight="bold" lengthAdjust="spacing" textLength="223" x="15" y="242.2373">&lt;&lt;agr Student&gt;&gt;</text></g><!--MD5=[bc064d979c32666ae52f3d7624591b7b]
class SystemUser--><g id="elem_SystemUser"><rect codeLine="9" fill="#282828" height="56.1826" id="SystemUser" rx="2.5" ry="2.5" style="stroke:#33FF33;stroke-width:1.0;" width="91" x="236.5" y="839.1191"/><text fill="#33FF33" font-family="Verdana" font-size="12" font-style="italic" lengthAdjust="spacing" textLength="51" x="256.5" y="856.1836">«entity»</text><text fill="#33FF33" font-family="Verdana" font-size="12" font-style="italic" lengthAdjust="spacing" textLength="40" x="262" y="870.7676">«root»</text><text fill="#33FF33" font-family="Verdana" font-size="14" lengthAdjust="spacing" textLength="85" x="239.5" y="887.3623">SystemUser</text></g><!--MD5=[9a6e98b13a389138a8ee3cd2798f9215]
class UserName--><g id="elem_UserName"><rect codeLine="10" fill="#282828" height="41.5986" id="UserName" rx="2.5" ry="2.5" style="stroke:#33FF33;stroke-width:1.0;" width="77" x="464" y="966.1191"/><text fill="#33FF33" font-family="Verdana" font-size="12" font-style="italic" lengthAdjust="spacing" textLength="30" x="487.5" y="983.1836">«vo»</text><text fill="#33FF33" font-family="Verdana" font-size="14" lengthAdjust="spacing" textLength="71" x="467" y="999.7783">UserName</text></g><!--MD5=[88967cc527ac608118ac16caae449e3f]
class UserPassword--><g id="elem_UserPassword"><rect codeLine="11" fill="#282828" height="41.5986" id="UserPassword" rx="2.5" ry="2.5" style="stroke:#33FF33;stroke-width:1.0;" width="105" x="450" y="774.1191"/><text fill="#33FF33" font-family="Verdana" font-size="12" font-style="italic" lengthAdjust="spacing" textLength="30" x="487.5" y="791.1836">«vo»</text><text fill="#33FF33" font-family="Verdana" font-size="14" lengthAdjust="spacing" textLength="99" x="453" y="807.7783">UserPassword</text></g><!--MD5=[b24ed8d4ae84bae9290d9aab401637c7]
class Manager--><g id="elem_Manager"><rect codeLine="19" fill="#282828" height="56.1826" id="Manager" rx="2.5" ry="2.5" style="stroke:#33FF33;stroke-width:1.0;" width="65" x="249.5" y="57.1191"/><text fill="#33FF33" font-family="Verdana" font-size="12" font-style="italic" lengthAdjust="spacing" textLength="51" x="256.5" y="74.1836">«entity»</text><text fill="#33FF33" font-family="Verdana" font-size="12" font-style="italic" lengthAdjust="spacing" textLength="40" x="262" y="88.7676">«root»</text><text fill="#33FF33" font-family="Verdana" font-size="14" lengthAdjust="spacing" textLength="59" x="252.5" y="105.3623">Manager</text></g><!--MD5=[61a83f88cb8b7d3a80bc8c481f3736bf]
class Teacher--><g id="elem_Teacher"><rect codeLine="26" fill="#282828" height="56.1826" id="Teacher" rx="2.5" ry="2.5" style="stroke:#33FF33;stroke-width:1.0;" width="61" x="472" y="1218.1191"/><text fill="#33FF33" font-family="Verdana" font-size="12" font-style="italic" lengthAdjust="spacing" textLength="51" x="477" y="1235.1836">«entity»</text><text fill="#33FF33" font-family="Verdana" font-size="12" font-style="italic" lengthAdjust="spacing" textLength="40" x="482.5" y="1249.7676">«root»</text><text fill="#33FF33" font-family="Verdana" font-size="14" lengthAdjust="spacing" textLength="55" x="475" y="1266.3623">Teacher</text></g><!--MD5=[739264bb8c13fd453fd6fc4eef2b32cc]
class Acronym--><g id="elem_Acronym"><rect codeLine="27" fill="#282828" height="41.5986" id="Acronym" rx="2.5" ry="2.5" style="stroke:#33FF33;stroke-width:1.0;" width="68" x="643.5" y="1477.1191"/><text fill="#33FF33" font-family="Verdana" font-size="12" font-style="italic" lengthAdjust="spacing" textLength="30" x="662.5" y="1494.1836">«vo»</text><text fill="#33FF33" font-family="Verdana" font-size="14" lengthAdjust="spacing" textLength="62" x="646.5" y="1510.7783">Acronym</text></g><!--MD5=[d92d9e883939eee4186895798e1fdba2]
class TaxPayerNumber--><g id="elem_TaxPayerNumber"><rect codeLine="28" fill="#282828" height="41.5986" id="TaxPayerNumber" rx="2.5" ry="2.5" style="stroke:#33FF33;stroke-width:1.0;" width="125" x="615" y="1285.1191"/><text fill="#33FF33" font-family="Verdana" font-size="12" font-style="italic" lengthAdjust="spacing" textLength="30" x="662.5" y="1302.1836">«vo»</text><text fill="#33FF33" font-family="Verdana" font-size="14" lengthAdjust="spacing" textLength="119" x="618" y="1318.7783">TaxPayerNumber</text></g><!--MD5=[3adb951617f02218a93676affdecd4f3]
class DateOfBirth--><g id="elem_DateOfBirth"><rect codeLine="29" fill="#282828" height="41.5986" id="DateOfBirth" rx="2.5" ry="2.5" style="stroke:#33FF33;stroke-width:1.0;" width="89" x="633" y="1093.1191"/><text fill="#33FF33" font-family="Verdana" font-size="12" font-style="italic" lengthAdjust="spacing" textLength="30" x="662.5" y="1110.1836">«vo»</text><text fill="#33FF33" font-family="Verdana" font-size="14" lengthAdjust="spacing" textLength="83" x="636" y="1126.7783">DateOfBirth</text></g><!--MD5=[d6181cb537bdc20c0a3007a98a56832d]
class Student--><g id="elem_Student"><rect codeLine="39" fill="#282828" height="56.1826" id="Student" rx="2.5" ry="2.5" style="stroke:#33FF33;stroke-width:1.0;" width="63" x="27" y="541.1191"/><text fill="#33FF33" font-family="Verdana" font-size="12" font-style="italic" lengthAdjust="spacing" textLength="51" x="33" y="558.1836">«entity»</text><text fill="#33FF33" font-family="Verdana" font-size="12" font-style="italic" lengthAdjust="spacing" textLength="40" x="38.5" y="572.7676">«root»</text><text fill="#33FF33" font-family="Verdana" font-size="14" lengthAdjust="spacing" textLength="57" x="30" y="589.3623">Student</text></g><!--MD5=[5243e318521b02aa88a50eadb44ea622]
class MechanographicalNumber--><g id="elem_MechanographicalNumber"><rect codeLine="40" fill="#282828" height="41.5986" id="MechanographicalNumber" rx="2.5" ry="2.5" style="stroke:#33FF33;stroke-width:1.0;" width="184" x="190" y="647.1191"/><text fill="#33FF33" font-family="Verdana" font-size="12" font-style="italic" lengthAdjust="spacing" textLength="30" x="267" y="664.1836">«vo»</text><text fill="#33FF33" font-family="Verdana" font-size="14" lengthAdjust="spacing" textLength="178" x="193" y="680.7783">MechanographicalNumber</text></g><!--MD5=[97467e26ffde9778fa457b034074f959]
class StudentTaxPayerNumber--><g id="elem_StudentTaxPayerNumber"><rect codeLine="41" fill="#282828" height="41.5986" id="StudentTaxPayerNumber" rx="2.5" ry="2.5" style="stroke:#33FF33;stroke-width:1.0;" width="182" x="191" y="455.1191"/><text fill="#33FF33" font-family="Verdana" font-size="12" font-style="italic" lengthAdjust="spacing" textLength="30" x="267" y="472.1836">«vo»</text><text fill="#33FF33" font-family="Verdana" font-size="14" lengthAdjust="spacing" textLength="176" x="194" y="488.7783">StudentTaxPayerNumber</text></g><!--MD5=[29dbd85e324f1fec9ac2bda1d300b741]
class StudentDateOfBirth--><g id="elem_StudentDateOfBirth"><rect codeLine="42" fill="#282828" height="41.5986" id="StudentDateOfBirth" rx="2.5" ry="2.5" style="stroke:#33FF33;stroke-width:1.0;" width="146" x="209" y="263.1191"/><text fill="#33FF33" font-family="Verdana" font-size="12" font-style="italic" lengthAdjust="spacing" textLength="30" x="267" y="280.1836">«vo»</text><text fill="#33FF33" font-family="Verdana" font-size="14" lengthAdjust="spacing" textLength="140" x="212" y="296.7783">StudentDateOfBirth</text></g><!--MD5=[ec4b41d87a035c3f1948d59ccd51dd25]
link SystemUser to UserName--><g id="link_SystemUser_UserName"><path codeLine="13" d="M327.74,891.6891 C366.26,912.8391 421.43,943.1491 459.21,963.8991 " fill="none" id="SystemUser-to-UserName" style="stroke:#33FF33;stroke-width:1.0;"/><polygon fill="#33FF33" points="463.73,966.3791,457.7658,958.5415,459.3471,963.9728,453.9158,965.5541,463.73,966.3791" style="stroke:#33FF33;stroke-width:1.0;"/><text fill="#33FF33" font-family="Verdana" font-size="13" lengthAdjust="spacing" textLength="8" x="335.3564" y="909.7169">1</text><text fill="#33FF33" font-family="Verdana" font-size="13" lengthAdjust="spacing" textLength="8" x="448.1116" y="977.1975">1</text></g><!--MD5=[df920ce72f6aadcf91be3be9046ad77a]
link SystemUser to UserPassword--><g id="link_SystemUser_UserPassword"><path codeLine="14" d="M327.74,852.3791 C361.68,841.1891 408.55,825.7491 445.06,813.7191 " fill="none" id="SystemUser-to-UserPassword" style="stroke:#33FF33;stroke-width:1.0;"/><polygon fill="#33FF33" points="449.91,812.1191,440.1122,811.1174,445.1581,813.6746,442.6009,818.7204,449.91,812.1191" style="stroke:#33FF33;stroke-width:1.0;"/><text fill="#33FF33" font-family="Verdana" font-size="13" lengthAdjust="spacing" textLength="8" x="335.3564" y="864.3876">1</text><text fill="#33FF33" font-family="Verdana" font-size="13" lengthAdjust="spacing" textLength="8" x="433.952" y="828.7187">1</text></g><!--MD5=[00f85e96e0935652bd96fe09637dfb37]
reverse link SystemUser to Manager--><g id="link_SystemUser_Manager"><path codeLine="20" d="M243.2,835.8191 C214.22,810.7991 175.34,773.4991 149.5,734.1191 C129.83,704.1391 126.48,694.3391 119.75,659.1191 C89.22,499.3391 89.22,452.8991 119.75,293.1191 C126.48,257.8991 129.83,248.0991 149.5,218.1191 C177.21,175.8791 219.94,136.0291 249.34,111.1691 " fill="none" id="SystemUser-backto-Manager" style="stroke:#33FF33;stroke-width:1.0;"/><polygon fill="#33FF33" points="247.04,839.1191,242.8264,830.2171,243.2498,835.8581,237.6088,836.2815,247.04,839.1191" style="stroke:#33FF33;stroke-width:1.0;"/><text fill="#33FF33" font-family="Verdana" font-size="13" lengthAdjust="spacing" textLength="8" x="229.0565" y="828.1711">1</text></g><!--MD5=[f813d3652d12c19387be5741d6198500]
reverse link SystemUser to Teacher--><g id="link_SystemUser_Teacher"><path codeLine="31" d="M301.94,899.9791 C344.23,973.3291 445.71,1149.3491 485.3,1218.0191 " fill="none" id="SystemUser-backto-Teacher" style="stroke:#33FF33;stroke-width:1.0;"/><polygon fill="#33FF33" points="299.24,895.2991,300.2774,905.0932,301.7407,899.6289,307.205,901.0921,299.24,895.2991" style="stroke:#33FF33;stroke-width:1.0;"/><text fill="#33FF33" font-family="Verdana" font-size="13" lengthAdjust="spacing" textLength="8" x="294.1363" y="916.2414">1</text></g><!--MD5=[11f940fd4cae057b8e7923b67496b82a]
link Teacher to Acronym--><g id="link_Teacher_Acronym"><path codeLine="32" d="M523.01,1274.5391 C557.06,1324.1391 626.81,1425.7391 659.23,1472.9591 " fill="none" id="Teacher-to-Acronym" style="stroke:#33FF33;stroke-width:1.0;"/><polygon fill="#33FF33" points="662.06,1477.0791,660.2731,1467.3937,659.234,1472.9544,653.6734,1471.9153,662.06,1477.0791" style="stroke:#33FF33;stroke-width:1.0;"/><text fill="#33FF33" font-family="Verdana" font-size="13" lengthAdjust="spacing" textLength="8" x="647.8635" y="1466.2432">1</text></g><!--MD5=[5ccd9a2dca12a83d1f1a9ea3e12c08ad]
link Teacher to DateOfBirth--><g id="link_Teacher_DateOfBirth"><path codeLine="33" d="M533.24,1223.4291 C564.31,1199.7291 612.86,1162.6791 644.68,1138.3991 " fill="none" id="Teacher-to-DateOfBirth" style="stroke:#33FF33;stroke-width:1.0;"/><polygon fill="#33FF33" points="648.86,1135.2091,639.2831,1137.5077,644.891,1138.2501,644.1487,1143.858,648.86,1135.2091" style="stroke:#33FF33;stroke-width:1.0;"/><text fill="#33FF33" font-family="Verdana" font-size="13" lengthAdjust="spacing" textLength="8" x="632.496" y="1155.759">1</text></g><!--MD5=[02933c490c74384cb341558a01603184]
link Teacher to TaxPayerNumber--><g id="link_Teacher_TaxPayerNumber"><path codeLine="34" d="M533.24,1256.4291 C554.52,1263.8191 584.01,1274.0391 610.7,1283.2991 " fill="none" id="Teacher-to-TaxPayerNumber" style="stroke:#33FF33;stroke-width:1.0;"/><polygon fill="#33FF33" points="615.65,1285.0191,608.4494,1278.2997,610.924,1283.3865,605.8372,1285.8612,615.65,1285.0191" style="stroke:#33FF33;stroke-width:1.0;"/><text fill="#33FF33" font-family="Verdana" font-size="13" lengthAdjust="spacing" textLength="8" x="598.8014" y="1279.3265">1</text></g><!--MD5=[ea95752f0a529f5f12dd427409b2595a]
link Student to MechanographicalNumber--><g id="link_Student_MechanographicalNumber"><path codeLine="44" d="M90.3,582.8891 C126.2,598.9291 186.09,625.6991 229.19,644.9591 " fill="none" id="Student-to-MechanographicalNumber" style="stroke:#33FF33;stroke-width:1.0;"/><polygon fill="#33FF33" points="233.83,647.0391,227.2536,639.7076,229.2675,644.9939,223.9812,647.0077,233.83,647.0391" style="stroke:#33FF33;stroke-width:1.0;"/><text fill="#33FF33" font-family="Verdana" font-size="13" lengthAdjust="spacing" textLength="8" x="209.8529" y="636.5402">1</text></g><!--MD5=[05c64b37fedf4539596262f997c2b231]
link Student to SystemUser--><g id="link_Student_SystemUser"><path codeLine="45" d="M71.94,597.3991 C87.57,631.4491 116.39,689.6091 149.5,734.1191 C177.78,772.1391 216.56,810.0391 244.67,835.5991 " fill="none" id="Student-to-SystemUser" style="stroke:#33FF33;stroke-width:1.0;"/><polygon fill="#33FF33" points="248.39,838.9591,244.3953,829.9568,244.6806,835.6064,239.031,835.8918,248.39,838.9591" style="stroke:#33FF33;stroke-width:1.0;"/><text fill="#33FF33" font-family="Verdana" font-size="13" lengthAdjust="spacing" textLength="8" x="66.005" y="618.3633">1</text></g><!--MD5=[8d9f94e67a7ba52540c7724bf93ea242]
link Student to StudentDateOfBirth--><g id="link_Student_StudentDateOfBirth"><path codeLine="47" d="M67.97,541.0391 C80.83,501.8391 108.21,429.9191 149.5,380.1191 C174.16,350.3791 209.98,325.0291 238,307.8591 " fill="none" id="Student-to-StudentDateOfBirth" style="stroke:#33FF33;stroke-width:1.0;"/><polygon fill="#33FF33" points="242.43,305.1791,232.6594,306.418,238.1527,307.7684,236.8022,313.2617,242.43,305.1791" style="stroke:#33FF33;stroke-width:1.0;"/><text fill="#33FF33" font-family="Verdana" font-size="13" lengthAdjust="spacing" textLength="8" x="223.2652" y="325.7213">1</text></g><!--MD5=[bdb337b8f731444b4aa73ef9c3dc6760]
link Student to StudentTaxPayerNumber--><g id="link_Student_StudentTaxPayerNumber"><path codeLine="48" d="M90.3,556.1891 C125.39,541.4491 183.43,517.0891 226.27,499.0991 " fill="none" id="Student-to-StudentTaxPayerNumber" style="stroke:#33FF33;stroke-width:1.0;"/><polygon fill="#33FF33" points="230.89,497.1591,221.0436,496.9392,226.2767,499.0873,224.1286,504.3204,230.89,497.1591" style="stroke:#33FF33;stroke-width:1.0;"/><text fill="#33FF33" font-family="Verdana" font-size="13" lengthAdjust="spacing" textLength="8" x="208.7681" y="517.6962">1</text></g><!--MD5=[c297b438c0950a08c6ef21806abfee19]
@startuml DDD

!theme crt-green
skinparam nodesep 150
hide empty members
left to right direction


package "<<agr SystemUser>>"{
    class SystemUser<<entity>><<root>>{}
    class UserName<<vo>>{}
    class UserPassword<<vo>>{}

    SystemUser "1" - -> "1" UserName
    SystemUser "1" - -> "1" UserPassword
}

package "<<agr Manager>>"{

    class Manager<<entity>><<root>>{}
    SystemUser "1" <- Manager

}

package "<<agr Teacher>>"{

    class Teacher<<entity>><<root>>{}
    class Acronym<<vo>>{}
    class TaxPayerNumber<<vo>>{}
    class DateOfBirth<<vo>>{}

    SystemUser "1" <- - Teacher
    Teacher -down-> "1" Acronym
    Teacher - -> "1" DateOfBirth
    Teacher - -> "1" TaxPayerNumber
}

package "<<agr Student>>"{

    class Student<<entity>><<root>>{}
    class MechanographicalNumber<<vo>>{}
    class StudentTaxPayerNumber<<vo>>{}
    class StudentDateOfBirth<<vo>>{}

    Student  - -> "1" MechanographicalNumber
    Student "1" - -> SystemUser
    'Student <- - "*" Lecture : participates
    Student - -> "1" StudentDateOfBirth
    Student - -> "1" StudentTaxPayerNumber
}

hide circles
@enduml

@startuml DDD






<style>
  root {
    BackgroundColor #282828
    FontColor #33FF33
    FontName Verdana
    HyperLinkColor #33FF33
    LineColor #33FF33
    LineThickness 1
    Margin 5
  }
  box {
    LineStyle 12-18
    LineThickness 3
  }
  caption {
    LineThickness 0
  }
  footer {
    LineThickness 0
  }
  groupHeader {
    BackgroundColor #33FF33
    FontColor #282828
    FontStyle bold
  }
  header {
    LineThickness 0
  }
  node {
    MaximumWidth 300
  }
  referenceHeader {
    BackgroundColor #33FF33
    FontColor #282828
    FontStyle bold
  }
  separator {
    BackgroundColor #33FF33
    FontColor #282828
    FontStyle bold
  }
  title {
    FontSize 22
    LineThickness 0
  }
</style>

skinparam ArrowLollipopColor #33FF33
skinparam BackgroundColor #282828
skinparam DefaultFontName Verdana
skinparam DefaultMonospacedFontName Courier
skinparam LifelineStrategy solid
skinparam ParticipantPadding 10
skinparam SequenceLifeLineBorderColor #33FF33
skinparam Shadowing false
skinparam UseBetaStyle true

skinparam Activity {
  BackgroundColor #282828
  BarColor #33FF33
  BorderColor #33FF33
  FontColor #33FF33
  FontName Verdana
}
skinparam Boundary {
  FontColor #33FF33
}
skinparam Box {
  Padding 5
}
skinparam CircledCharacter {
  FontColor #282828
  FontName Courier
  Radius 9
}
skinparam Class {
  BackgroundColor #282828
  BorderColor #33FF33
  FontColor #33FF33
  FontName Verdana
}
skinparam ClassAttribute {
  FontColor #33FF33
  FontName Verdana
}
skinparam ClassStereotype {
  FontColor #33FF33
  FontName Verdana
}
skinparam Footer {
  FontColor #33FF33
  FontName Verdana
}
skinparam Header {
  FontColor #33FF33
  FontName Verdana
}
skinparam Hyperlink {
  Color #33FF33
}
skinparam IconPackage {
  Color #33FF33
  BackgroundColor #282828
}
skinparam IconPrivate {
  Color #33FF33
  BackgroundColor #282828
}
skinparam IconProtected {
  Color #33FF33
  BackgroundColor #282828
}
skinparam IconPublic {
  Color #33FF33
  BackgroundColor #282828
}
skinparam Note {
  FontColor #33FF33
  FontName Verdana
}
skinparam Object {
  BorderColor #33FF33
}
skinparam Package {
  BorderColor #33FF33
  FontColor #33FF33
  FontName Verdana
}
skinparam State {
  BackgroundColor #282828
  BorderColor #33FF33
}
skinparam StereotypeA {
  BackgroundColor #33FF33
  BorderColor #33FF33
}
skinparam StereotypeC {
  BackgroundColor #33FF33
  BorderColor #33FF33
}
skinparam StereotypeE {
  BackgroundColor #33FF33
  BorderColor #33FF33
}
skinparam StereotypeI {
  BackgroundColor #33FF33
  BorderColor #33FF33
}
skinparam StereotypeN {
  BackgroundColor #33FF33
  BorderColor #33FF33
}
skinparam UseCaseStereoType {
  FontColor #33FF33
  FontName Verdana
}
skinparam nodesep 150
hide empty members
left to right direction


package "<<agr SystemUser>>"{
    class SystemUser<<entity>><<root>>{}
    class UserName<<vo>>{}
    class UserPassword<<vo>>{}

    SystemUser "1" - -> "1" UserName
    SystemUser "1" - -> "1" UserPassword
}

package "<<agr Manager>>"{

    class Manager<<entity>><<root>>{}
    SystemUser "1" <- Manager

}

package "<<agr Teacher>>"{

    class Teacher<<entity>><<root>>{}
    class Acronym<<vo>>{}
    class TaxPayerNumber<<vo>>{}
    class DateOfBirth<<vo>>{}

    SystemUser "1" <- - Teacher
    Teacher -down-> "1" Acronym
    Teacher - -> "1" DateOfBirth
    Teacher - -> "1" TaxPayerNumber
}

package "<<agr Student>>"{

    class Student<<entity>><<root>>{}
    class MechanographicalNumber<<vo>>{}
    class StudentTaxPayerNumber<<vo>>{}
    class StudentDateOfBirth<<vo>>{}

    Student  - -> "1" MechanographicalNumber
    Student "1" - -> SystemUser
    Student - -> "1" StudentDateOfBirth
    Student - -> "1" StudentTaxPayerNumber
}

hide circles
@enduml

PlantUML version 1.2022.12(Sun Oct 23 19:12:26 BST 2022)
(GPL source distribution)
Java Runtime: OpenJDK Runtime Environment
JVM: OpenJDK 64-Bit Server VM
Default Encoding: Cp1252
Language: en
Country: US
--></g></svg>