<?xml version="1.0" encoding="UTF-8" standalone="no"?><svg xmlns="http://www.w3.org/2000/svg" xmlns:xlink="http://www.w3.org/1999/xlink" contentStyleType="text/css" height="565px" preserveAspectRatio="none" style="width:2694px;height:565px;background:#282828;" version="1.1" viewBox="0 0 2694 565" width="2694px" zoomAndPan="magnify"><defs/><g><!--MD5=[92bfed150496a7311125cbdbdd0ce21b]
cluster <<agr SharedBoard>>--><g id="cluster_&lt;&lt;agr SharedBoard&gt;&gt;"><path d="M1951.5,324.1191 L2238.5,324.1191 A3.75,3.75 0 0 1 2241,326.6191 L2248,356.8564 L2684.5,356.8564 A2.5,2.5 0 0 1 2687,359.3564 L2687,555.6191 A2.5,2.5 0 0 1 2684.5,558.1191 L1951.5,558.1191 A2.5,2.5 0 0 1 1949,555.6191 L1949,326.6191 A2.5,2.5 0 0 1 1951.5,324.1191 " fill="#282828" style="stroke:#33FF33;stroke-width:1.0;"/><line style="stroke:#33FF33;stroke-width:1.0;" x1="1949" x2="2248" y1="356.8564" y2="356.8564"/><text fill="#33FF33" font-family="Verdana" font-size="22" font-weight="bold" lengthAdjust="spacing" textLength="286" x="1953" y="348.2373">&lt;&lt;agr SharedBoard&gt;&gt;</text></g><!--MD5=[22983fe0ff9a8baf9a55657973e40730]
cluster <<agr PostIt>>--><g id="cluster_&lt;&lt;agr PostIt&gt;&gt;"><path d="M1069.5,160.1191 L1271.5,160.1191 A3.75,3.75 0 0 1 1274,162.6191 L1281,192.8564 L1922.5,192.8564 A2.5,2.5 0 0 1 1925,195.3564 L1925,431.6191 A2.5,2.5 0 0 1 1922.5,434.1191 L1069.5,434.1191 A2.5,2.5 0 0 1 1067,431.6191 L1067,162.6191 A2.5,2.5 0 0 1 1069.5,160.1191 " fill="#282828" style="stroke:#33FF33;stroke-width:1.0;"/><line style="stroke:#33FF33;stroke-width:1.0;" x1="1067" x2="1281" y1="192.8564" y2="192.8564"/><text fill="#33FF33" font-family="Verdana" font-size="22" font-weight="bold" lengthAdjust="spacing" textLength="201" x="1071" y="184.2373">&lt;&lt;agr PostIt&gt;&gt;</text></g><!--MD5=[e2d269eecff81f70c1d3952d953915b9]
cluster <<agr PostItModification>>--><g id="cluster_&lt;&lt;agr PostItModification&gt;&gt;"><path d="M13.5,12.1191 L368.5,12.1191 A3.75,3.75 0 0 1 371,14.6191 L378,44.8564 L1040.5,44.8564 A2.5,2.5 0 0 1 1043,47.3564 L1043,267.6191 A2.5,2.5 0 0 1 1040.5,270.1191 L13.5,270.1191 A2.5,2.5 0 0 1 11,267.6191 L11,14.6191 A2.5,2.5 0 0 1 13.5,12.1191 " fill="#282828" style="stroke:#33FF33;stroke-width:1.0;"/><line style="stroke:#33FF33;stroke-width:1.0;" x1="11" x2="378" y1="44.8564" y2="44.8564"/><text fill="#33FF33" font-family="Verdana" font-size="22" font-weight="bold" lengthAdjust="spacing" textLength="354" x="15" y="36.2373">&lt;&lt;agr PostItModification&gt;&gt;</text></g><!--MD5=[3762909e135fb728396985e200594027]
class SharedBoard--><g id="elem_SharedBoard"><rect codeLine="9" fill="#282828" height="56.1826" id="SharedBoard" rx="2.5" ry="2.5" style="stroke:#33FF33;stroke-width:1.0;" width="98" x="2162" y="369.1191"/><text fill="#33FF33" font-family="Verdana" font-size="12" font-style="italic" lengthAdjust="spacing" textLength="51" x="2185.5" y="386.1836">«entity»</text><text fill="#33FF33" font-family="Verdana" font-size="12" font-style="italic" lengthAdjust="spacing" textLength="40" x="2191" y="400.7676">«root»</text><text fill="#33FF33" font-family="Verdana" font-size="14" lengthAdjust="spacing" textLength="92" x="2165" y="417.3623">SharedBoard</text></g><!--MD5=[5bdc71683edea6adee4442f3a444c148]
class SharedBoardTitle--><g id="elem_SharedBoardTitle"><rect codeLine="10" fill="#282828" height="41.5986" id="SharedBoardTitle" rx="2.5" ry="2.5" style="stroke:#33FF33;stroke-width:1.0;" width="127" x="1965.5" y="493.1191"/><text fill="#33FF33" font-family="Verdana" font-size="12" font-style="italic" lengthAdjust="spacing" textLength="30" x="2014" y="510.1836">«vo»</text><text fill="#33FF33" font-family="Verdana" font-size="14" lengthAdjust="spacing" textLength="121" x="1968.5" y="526.7783">SharedBoardTitle</text></g><!--MD5=[f2f0d05636fa2653b2cd4b8db9a3a616]
class CreationTimestamp--><g id="elem_CreationTimestamp"><rect codeLine="11" fill="#282828" height="41.5986" id="CreationTimestamp" rx="2.5" ry="2.5" style="stroke:#33FF33;stroke-width:1.0;" width="142" x="2243" y="493.1191"/><text fill="#33FF33" font-family="Verdana" font-size="12" font-style="italic" lengthAdjust="spacing" textLength="30" x="2299" y="510.1836">«vo»</text><text fill="#33FF33" font-family="Verdana" font-size="14" lengthAdjust="spacing" textLength="136" x="2246" y="526.7783">CreationTimestamp</text></g><!--MD5=[5c5f3f5d6f0a3c95c9e227c12eaeba8d]
class SharedBoardState--><g id="elem_SharedBoardState"><rect codeLine="12" fill="#282828" height="56.1826" id="SharedBoardState" rx="2.5" ry="2.5" style="stroke:#33FF33;stroke-width:1.0;" width="136" x="2535" y="486.1191"/><text fill="#33FF33" font-family="Verdana" font-size="12" font-style="italic" lengthAdjust="spacing" textLength="30" x="2588" y="503.1836">«vo»</text><text fill="#33FF33" font-family="Verdana" font-size="12" font-style="italic" lengthAdjust="spacing" textLength="51" x="2577.5" y="517.7676">«enum»</text><text fill="#33FF33" font-family="Verdana" font-size="14" lengthAdjust="spacing" textLength="130" x="2538" y="534.3623">SharedBoardState</text></g><!--MD5=[458552462bbdcbc92793825846cc11c0]
class PostIt--><g id="elem_PostIt"><rect codeLine="20" fill="#282828" height="56.1826" id="PostIt" rx="2.5" ry="2.5" style="stroke:#33FF33;stroke-width:1.0;" width="53" x="1461.5" y="205.1191"/><text fill="#33FF33" font-family="Verdana" font-size="12" font-style="italic" lengthAdjust="spacing" textLength="51" x="1462.5" y="222.1836">«entity»</text><text fill="#33FF33" font-family="Verdana" font-size="12" font-style="italic" lengthAdjust="spacing" textLength="40" x="1468" y="236.7676">«root»</text><text fill="#33FF33" font-family="Verdana" font-size="14" lengthAdjust="spacing" textLength="42" x="1467" y="253.3623">PostIt</text></g><!--MD5=[55c8637a54e8bf1fc2ad728ae5949e94]
class PostItRow--><g id="elem_PostItRow"><rect codeLine="21" fill="#282828" height="41.5986" id="PostItRow" rx="2.5" ry="2.5" style="stroke:#33FF33;stroke-width:1.0;" width="78" x="1083" y="376.1191"/><text fill="#33FF33" font-family="Verdana" font-size="12" font-style="italic" lengthAdjust="spacing" textLength="30" x="1107" y="393.1836">«vo»</text><text fill="#33FF33" font-family="Verdana" font-size="14" lengthAdjust="spacing" textLength="72" x="1086" y="409.7783">PostItRow</text></g><!--MD5=[4374159af3f3b50d82046e3678c1fbbd]
class PostItColumn--><g id="elem_PostItColumn"><rect codeLine="22" fill="#282828" height="41.5986" id="PostItColumn" rx="2.5" ry="2.5" style="stroke:#33FF33;stroke-width:1.0;" width="101" x="1311.5" y="376.1191"/><text fill="#33FF33" font-family="Verdana" font-size="12" font-style="italic" lengthAdjust="spacing" textLength="30" x="1347" y="393.1836">«vo»</text><text fill="#33FF33" font-family="Verdana" font-size="14" lengthAdjust="spacing" textLength="95" x="1314.5" y="409.7783">PostItColumn</text></g><!--MD5=[6ac42eb454599b4c06c6dc3518b1382b]
class PostItContent--><g id="elem_PostItContent"><rect codeLine="23" fill="#282828" height="41.5986" id="PostItContent" rx="2.5" ry="2.5" style="stroke:#33FF33;stroke-width:1.0;" width="105" x="1562.5" y="376.1191"/><text fill="#33FF33" font-family="Verdana" font-size="12" font-style="italic" lengthAdjust="spacing" textLength="30" x="1600" y="393.1836">«vo»</text><text fill="#33FF33" font-family="Verdana" font-size="14" lengthAdjust="spacing" textLength="99" x="1565.5" y="409.7783">PostItContent</text></g><!--MD5=[bc064d979c32666ae52f3d7624591b7b]
class SystemUser--><g id="elem_SystemUser"><rect fill="#282828" height="27.0146" id="SystemUser" rx="2.5" ry="2.5" style="stroke:#33FF33;stroke-width:1.0;" width="91" x="1817.5" y="383.6191"/><text fill="#33FF33" font-family="Verdana" font-size="14" lengthAdjust="spacing" textLength="85" x="1820.5" y="402.6943">SystemUser</text></g><!--MD5=[6625cacb085ce09cd54e71fbf9538668]
class PostItModification--><g id="elem_PostItModification"><rect codeLine="33" fill="#282828" height="56.1826" id="PostItModification" rx="2.5" ry="2.5" style="stroke:#33FF33;stroke-width:1.0;" width="130" x="552" y="57.1191"/><text fill="#33FF33" font-family="Verdana" font-size="12" font-style="italic" lengthAdjust="spacing" textLength="51" x="591.5" y="74.1836">«entity»</text><text fill="#33FF33" font-family="Verdana" font-size="12" font-style="italic" lengthAdjust="spacing" textLength="40" x="597" y="88.7676">«root»</text><text fill="#33FF33" font-family="Verdana" font-size="14" lengthAdjust="spacing" textLength="124" x="555" y="105.3623">PostItModification</text></g><!--MD5=[54c8ef1e0931646cf17f1d627a618e18]
class PostItOldRow--><g id="elem_PostItOldRow"><rect codeLine="34" fill="#282828" height="41.5986" id="PostItOldRow" rx="2.5" ry="2.5" style="stroke:#33FF33;stroke-width:1.0;" width="101" x="27.5" y="212.1191"/><text fill="#33FF33" font-family="Verdana" font-size="12" font-style="italic" lengthAdjust="spacing" textLength="30" x="63" y="229.1836">«vo»</text><text fill="#33FF33" font-family="Verdana" font-size="14" lengthAdjust="spacing" textLength="95" x="30.5" y="245.7783">PostItOldRow</text></g><!--MD5=[ebe2d6b28d433e761a0340e19dedba83]
class PostItOldColumn--><g id="elem_PostItOldColumn"><rect codeLine="35" fill="#282828" height="41.5986" id="PostItOldColumn" rx="2.5" ry="2.5" style="stroke:#33FF33;stroke-width:1.0;" width="124" x="279" y="212.1191"/><text fill="#33FF33" font-family="Verdana" font-size="12" font-style="italic" lengthAdjust="spacing" textLength="30" x="326" y="229.1836">«vo»</text><text fill="#33FF33" font-family="Verdana" font-size="14" lengthAdjust="spacing" textLength="118" x="282" y="245.7783">PostItOldColumn</text></g><!--MD5=[9ca14ccac01ac3de1f0ba9cb6bf746d5]
class PostItOldContent--><g id="elem_PostItOldContent"><rect codeLine="36" fill="#282828" height="41.5986" id="PostItOldContent" rx="2.5" ry="2.5" style="stroke:#33FF33;stroke-width:1.0;" width="128" x="553" y="212.1191"/><text fill="#33FF33" font-family="Verdana" font-size="12" font-style="italic" lengthAdjust="spacing" textLength="30" x="602" y="229.1836">«vo»</text><text fill="#33FF33" font-family="Verdana" font-size="14" lengthAdjust="spacing" textLength="122" x="556" y="245.7783">PostItOldContent</text></g><!--MD5=[d416db79307b063cfe8d28ef0f134c1d]
class PostItModificationDateTime--><g id="elem_PostItModificationDateTime"><rect codeLine="37" fill="#282828" height="41.5986" id="PostItModificationDateTime" rx="2.5" ry="2.5" style="stroke:#33FF33;stroke-width:1.0;" width="196" x="831" y="212.1191"/><text fill="#33FF33" font-family="Verdana" font-size="12" font-style="italic" lengthAdjust="spacing" textLength="30" x="914" y="229.1836">«vo»</text><text fill="#33FF33" font-family="Verdana" font-size="14" lengthAdjust="spacing" textLength="190" x="834" y="245.7783">PostItModificationDateTime</text></g><!--MD5=[78b8b575354b14f7330c44f851538776]
link SharedBoard to SharedBoardState--><g id="link_SharedBoard_SharedBoardState"><path codeLine="14" d="M2260.25,412.5691 C2328.16,432.4891 2451.06,468.5491 2529.76,491.6291 " fill="none" id="SharedBoard-to-SharedBoardState" style="stroke:#33FF33;stroke-width:1.0;"/><polygon fill="#33FF33" points="2534.88,493.1391,2527.3775,486.7586,2530.0839,491.726,2525.1164,494.4324,2534.88,493.1391" style="stroke:#33FF33;stroke-width:1.0;"/><text fill="#33FF33" font-family="Verdana" font-size="13" lengthAdjust="spacing" textLength="8" x="2518.9919" y="488.1277">1</text></g><!--MD5=[76f41b5a429d3a028f538df6f7d64af4]
link SharedBoard to SharedBoardTitle--><g id="link_SharedBoard_SharedBoardTitle"><path codeLine="15" d="M2167.87,425.3691 C2136.51,445.1891 2094.55,471.6991 2064.99,490.3791 " fill="none" id="SharedBoard-to-SharedBoardTitle" style="stroke:#33FF33;stroke-width:1.0;"/><polygon fill="#33FF33" points="2060.72,493.0791,2070.4652,491.6539,2064.9471,490.4086,2066.1924,484.8906,2060.72,493.0791" style="stroke:#33FF33;stroke-width:1.0;"/><text fill="#33FF33" font-family="Verdana" font-size="13" lengthAdjust="spacing" textLength="8" x="2061.5557" y="482.2432">1</text></g><!--MD5=[6c8f93ae20167fa250617700ff1b7913]
link SharedBoard to CreationTimestamp--><g id="link_SharedBoard_CreationTimestamp"><path codeLine="16" d="M2235.41,425.3691 C2252.67,444.6391 2275.59,470.2391 2292.23,488.8091 " fill="none" id="SharedBoard-to-CreationTimestamp" style="stroke:#33FF33;stroke-width:1.0;"/><polygon fill="#33FF33" points="2295.89,492.8991,2292.8803,483.5214,2292.5602,489.1692,2286.9124,488.8491,2295.89,492.8991" style="stroke:#33FF33;stroke-width:1.0;"/><text fill="#33FF33" font-family="Verdana" font-size="13" lengthAdjust="spacing" textLength="8" x="2281.1188" y="482.3573">1</text></g><!--MD5=[9ee10db1ecdc270861a94f9d0a68c56f]
link PostIt to SharedBoard--><g id="link_PostIt_SharedBoard"><path codeLine="25" d="M1514.52,237.5791 C1586.06,247.1591 1788.75,276.0291 1954,316.1191 C2025.05,333.3491 2105.25,359.3991 2156.87,377.0591 " fill="none" id="PostIt-to-SharedBoard" style="stroke:#33FF33;stroke-width:1.0;"/><polygon fill="#33FF33" points="2161.78,378.7391,2154.555,372.0459,2157.0481,377.1237,2151.9703,379.6169,2161.78,378.7391" style="stroke:#33FF33;stroke-width:1.0;"/><text fill="#33FF33" font-family="Verdana" font-size="13" lengthAdjust="spacing" textLength="50" x="1917" y="305.189">belongs</text><text fill="#33FF33" font-family="Verdana" font-size="13" lengthAdjust="spacing" textLength="8" x="2145.9633" y="373.0531">1</text></g><!--MD5=[8dcc03e6d64eeadc6e6663c712b0f518]
link PostIt to PostItRow--><g id="link_PostIt_PostItRow"><path codeLine="26" d="M1461.36,240.0991 C1414.41,251.2191 1314.57,277.5191 1237,316.1191 C1205.43,331.8291 1172.74,355.3991 1150.32,372.8991 " fill="none" id="PostIt-to-PostItRow" style="stroke:#33FF33;stroke-width:1.0;"/><polygon fill="#33FF33" points="1146.25,376.0891,1155.7974,373.671,1150.1806,372.9988,1150.8528,367.382,1146.25,376.0891" style="stroke:#33FF33;stroke-width:1.0;"/><text fill="#33FF33" font-family="Verdana" font-size="13" lengthAdjust="spacing" textLength="8" x="1144.7047" y="365.2564">1</text></g><!--MD5=[93494952addf090cd213e246d8f7eb7d]
link PostIt to PostItColumn--><g id="link_PostIt_PostItColumn"><path codeLine="27" d="M1466.91,261.2391 C1442.87,292.1391 1403.94,342.1991 1380.87,371.8591 " fill="none" id="PostIt-to-PostItColumn" style="stroke:#33FF33;stroke-width:1.0;"/><polygon fill="#33FF33" points="1377.58,376.0891,1386.2664,371.4473,1380.6527,372.1447,1379.9552,366.531,1377.58,376.0891" style="stroke:#33FF33;stroke-width:1.0;"/><text fill="#33FF33" font-family="Verdana" font-size="13" lengthAdjust="spacing" textLength="8" x="1373.2711" y="365.2564">1</text></g><!--MD5=[f249eba561e910d472e98c73905bcc78]
link PostIt to SystemUser--><g id="link_PostIt_SystemUser"><path codeLine="28" d="M1514.61,240.0891 C1562.04,251.2891 1663.63,277.8191 1743,316.1191 C1780.58,334.2491 1820.08,362.6691 1843.08,380.3091 " fill="none" id="PostIt-to-SystemUser" style="stroke:#33FF33;stroke-width:1.0;"/><polygon fill="#33FF33" points="1847.17,383.4691,1842.4737,374.8121,1843.2063,380.4213,1837.5971,381.1539,1847.17,383.4691" style="stroke:#33FF33;stroke-width:1.0;"/><text fill="#33FF33" font-family="Verdana" font-size="13" lengthAdjust="spacing" textLength="8" x="1830.9901" y="372.9764">1</text></g><!--MD5=[440630785bb2b27bdebdd3fa1e193299]
link PostIt to PostItContent--><g id="link_PostIt_PostItContent"><path codeLine="29" d="M1509.26,261.2391 C1533.49,292.1391 1572.73,342.1991 1595.98,371.8591 " fill="none" id="PostIt-to-PostItContent" style="stroke:#33FF33;stroke-width:1.0;"/><polygon fill="#33FF33" points="1599.3,376.0891,1596.9032,366.5364,1596.2185,372.1516,1590.6032,371.4668,1599.3,376.0891" style="stroke:#33FF33;stroke-width:1.0;"/><text fill="#33FF33" font-family="Verdana" font-size="13" lengthAdjust="spacing" textLength="8" x="1585.0206" y="365.2564">1</text></g><!--MD5=[c570796ac8e5054348978c80751f89af]
link PostItModification to PostIt--><g id="link_PostItModification_PostIt"><path codeLine="39" d="M682.32,94.6391 C770.82,106.3891 933.67,128.7991 1072,152.1191 C1215.84,176.3691 1386.49,211.0591 1456.08,225.4591 " fill="none" id="PostItModification-to-PostIt" style="stroke:#33FF33;stroke-width:1.0;"/><polygon fill="#33FF33" points="1461.31,226.5491,1453.311,220.8032,1456.4144,225.5328,1451.6848,228.6362,1461.31,226.5491" style="stroke:#33FF33;stroke-width:1.0;"/><text fill="#33FF33" font-family="Verdana" font-size="13" lengthAdjust="spacing" textLength="8" x="1445.4457" y="221.0925">1</text></g><!--MD5=[5391e0a2e7a4d7581f376419cfc5ed43]
link PostItModification to PostItOldRow--><g id="link_PostItModification_PostItOldRow"><path codeLine="40" d="M551.96,88.3991 C468.78,93.1291 321.47,107.6191 204,152.1191 C168.04,165.7391 131.42,190.4591 107,208.8291 " fill="none" id="PostItModification-to-PostItOldRow" style="stroke:#33FF33;stroke-width:1.0;"/><polygon fill="#33FF33" points="102.89,211.9491,112.476,209.6889,106.8711,208.9241,107.6359,203.3192,102.89,211.9491" style="stroke:#33FF33;stroke-width:1.0;"/><text fill="#33FF33" font-family="Verdana" font-size="13" lengthAdjust="spacing" textLength="8" x="101.2876" y="201.4226">1</text></g><!--MD5=[3d095f726a7704c3aa2e1ac1ef4d0ebb]
link PostItModification to PostItOldColumn--><g id="link_PostItModification_PostItOldColumn"><path codeLine="41" d="M557.27,113.1191 C532.5,124.6691 503.63,138.5791 478,152.1191 C443.44,170.3691 405.1,192.9691 377.79,209.4891 " fill="none" id="PostItModification-to-PostItOldColumn" style="stroke:#33FF33;stroke-width:1.0;"/><polygon fill="#33FF33" points="373.5,212.0891,383.2706,210.8503,377.7773,209.4999,379.1278,204.0066,373.5,212.0891" style="stroke:#33FF33;stroke-width:1.0;"/><text fill="#33FF33" font-family="Verdana" font-size="13" lengthAdjust="spacing" textLength="8" x="374.5844" y="201.2564">1</text></g><!--MD5=[37f20657fa0d7349f04b9daa653b482c]
link PostItModification to PostItOldContent--><g id="link_PostItModification_PostItOldContent"><path codeLine="42" d="M617,113.2391 C617,139.9891 617,180.5591 617,206.6991 " fill="none" id="PostItModification-to-PostItOldContent" style="stroke:#33FF33;stroke-width:1.0;"/><polygon fill="#33FF33" points="617,211.7291,621,202.7291,617,206.7291,613,202.7291,617,211.7291" style="stroke:#33FF33;stroke-width:1.0;"/><text fill="#33FF33" font-family="Verdana" font-size="13" lengthAdjust="spacing" textLength="8" x="607.825" y="201.4889">1</text></g><!--MD5=[9d7b72da20a98016f6faa5c94a6ffa31]
link PostItModification to PostItModificationDateTime--><g id="link_PostItModification_PostItModificationDateTime"><path codeLine="43" d="M674.95,113.2391 C734.43,141.0691 825.89,183.8691 881.32,209.8091 " fill="none" id="PostItModification-to-PostItModificationDateTime" style="stroke:#33FF33;stroke-width:1.0;"/><polygon fill="#33FF33" points="885.91,211.9491,879.4472,204.5173,881.3794,209.8339,876.0628,211.7662,885.91,211.9491" style="stroke:#33FF33;stroke-width:1.0;"/><text fill="#33FF33" font-family="Verdana" font-size="13" lengthAdjust="spacing" textLength="8" x="863.4887" y="201.4226">1</text></g><!--MD5=[8a27053b89445030c779b403ecd3ef06]
@startuml DDD

!theme crt-green
skinparam nodesep 150
hide circles
hide fields
hide empty members

package "<<agr SharedBoard>>"{
    class SharedBoard<<entity>><<root>>{}
    class SharedBoardTitle<<vo>>{}
    class CreationTimestamp<<vo>>{}
    class SharedBoardState<<vo>><<enum>>{}

    SharedBoard - -> "1" SharedBoardState
    SharedBoard - -> "1" SharedBoardTitle
    SharedBoard - -> "1" CreationTimestamp
}

package "<<agr PostIt>>"{
    class PostIt<<entity>><<root>>{}
    class PostItRow<<vo>>{}
    class PostItColumn<<vo>>{}
    class PostItContent<<vo>>{}

    PostIt - -> "1" SharedBoard : belongs
    PostIt - -> "1" PostItRow
    PostIt - -> "1" PostItColumn
    PostIt - -> "1" SystemUser
    PostIt - -> "1" PostItContent
}

package "<<agr PostItModification>>"{
    class PostItModification<<entity>><<root>>{}
    class PostItOldRow<<vo>>{}
    class PostItOldColumn<<vo>>{}
    class PostItOldContent<<vo>>{}
    class PostItModificationDateTime<<vo>>{}

    PostItModification - -> "1" PostIt
    PostItModification - -> "1" PostItOldRow
    PostItModification - -> "1" PostItOldColumn
    PostItModification - -> "1" PostItOldContent
    PostItModification - -> "1" PostItModificationDateTime

}

@enduml

@startuml DDD






<style>
  root {
    BackgroundColor #282828
    FontColor #33FF33
    FontName Verdana
    HyperLinkColor #33FF33
    LineColor #33FF33
    LineThickness 1
    Margin 5
  }
  box {
    LineStyle 12-18
    LineThickness 3
  }
  caption {
    LineThickness 0
  }
  footer {
    LineThickness 0
  }
  groupHeader {
    BackgroundColor #33FF33
    FontColor #282828
    FontStyle bold
  }
  header {
    LineThickness 0
  }
  node {
    MaximumWidth 300
  }
  referenceHeader {
    BackgroundColor #33FF33
    FontColor #282828
    FontStyle bold
  }
  separator {
    BackgroundColor #33FF33
    FontColor #282828
    FontStyle bold
  }
  title {
    FontSize 22
    LineThickness 0
  }
</style>

skinparam ArrowLollipopColor #33FF33
skinparam BackgroundColor #282828
skinparam DefaultFontName Verdana
skinparam DefaultMonospacedFontName Courier
skinparam LifelineStrategy solid
skinparam ParticipantPadding 10
skinparam SequenceLifeLineBorderColor #33FF33
skinparam Shadowing false
skinparam UseBetaStyle true

skinparam Activity {
  BackgroundColor #282828
  BarColor #33FF33
  BorderColor #33FF33
  FontColor #33FF33
  FontName Verdana
}
skinparam Boundary {
  FontColor #33FF33
}
skinparam Box {
  Padding 5
}
skinparam CircledCharacter {
  FontColor #282828
  FontName Courier
  Radius 9
}
skinparam Class {
  BackgroundColor #282828
  BorderColor #33FF33
  FontColor #33FF33
  FontName Verdana
}
skinparam ClassAttribute {
  FontColor #33FF33
  FontName Verdana
}
skinparam ClassStereotype {
  FontColor #33FF33
  FontName Verdana
}
skinparam Footer {
  FontColor #33FF33
  FontName Verdana
}
skinparam Header {
  FontColor #33FF33
  FontName Verdana
}
skinparam Hyperlink {
  Color #33FF33
}
skinparam IconPackage {
  Color #33FF33
  BackgroundColor #282828
}
skinparam IconPrivate {
  Color #33FF33
  BackgroundColor #282828
}
skinparam IconProtected {
  Color #33FF33
  BackgroundColor #282828
}
skinparam IconPublic {
  Color #33FF33
  BackgroundColor #282828
}
skinparam Note {
  FontColor #33FF33
  FontName Verdana
}
skinparam Object {
  BorderColor #33FF33
}
skinparam Package {
  BorderColor #33FF33
  FontColor #33FF33
  FontName Verdana
}
skinparam State {
  BackgroundColor #282828
  BorderColor #33FF33
}
skinparam StereotypeA {
  BackgroundColor #33FF33
  BorderColor #33FF33
}
skinparam StereotypeC {
  BackgroundColor #33FF33
  BorderColor #33FF33
}
skinparam StereotypeE {
  BackgroundColor #33FF33
  BorderColor #33FF33
}
skinparam StereotypeI {
  BackgroundColor #33FF33
  BorderColor #33FF33
}
skinparam StereotypeN {
  BackgroundColor #33FF33
  BorderColor #33FF33
}
skinparam UseCaseStereoType {
  FontColor #33FF33
  FontName Verdana
}
skinparam nodesep 150
hide circles
hide fields
hide empty members

package "<<agr SharedBoard>>"{
    class SharedBoard<<entity>><<root>>{}
    class SharedBoardTitle<<vo>>{}
    class CreationTimestamp<<vo>>{}
    class SharedBoardState<<vo>><<enum>>{}

    SharedBoard - -> "1" SharedBoardState
    SharedBoard - -> "1" SharedBoardTitle
    SharedBoard - -> "1" CreationTimestamp
}

package "<<agr PostIt>>"{
    class PostIt<<entity>><<root>>{}
    class PostItRow<<vo>>{}
    class PostItColumn<<vo>>{}
    class PostItContent<<vo>>{}

    PostIt - -> "1" SharedBoard : belongs
    PostIt - -> "1" PostItRow
    PostIt - -> "1" PostItColumn
    PostIt - -> "1" SystemUser
    PostIt - -> "1" PostItContent
}

package "<<agr PostItModification>>"{
    class PostItModification<<entity>><<root>>{}
    class PostItOldRow<<vo>>{}
    class PostItOldColumn<<vo>>{}
    class PostItOldContent<<vo>>{}
    class PostItModificationDateTime<<vo>>{}

    PostItModification - -> "1" PostIt
    PostItModification - -> "1" PostItOldRow
    PostItModification - -> "1" PostItOldColumn
    PostItModification - -> "1" PostItOldContent
    PostItModification - -> "1" PostItModificationDateTime

}

@enduml

PlantUML version 1.2022.12(Sun Oct 23 19:12:26 BST 2022)
(GPL source distribution)
Java Runtime: OpenJDK Runtime Environment
JVM: OpenJDK 64-Bit Server VM
Default Encoding: Cp1252
Language: en
Country: US
--></g></svg>