<?xml version="1.0" encoding="UTF-8" standalone="no"?><svg xmlns="http://www.w3.org/2000/svg" xmlns:xlink="http://www.w3.org/1999/xlink" contentStyleType="text/css" height="651px" preserveAspectRatio="none" style="width:969px;height:651px;background:#FFFFFF;" version="1.1" viewBox="0 0 969 651" width="969px" zoomAndPan="magnify"><defs/><g><!--MD5=[e7080a22b1a1d353a04e8c3fb13a11e4]
class CreateSharedBoardUI--><g id="elem_CreateSharedBoardUI"><rect codeLine="2" fill="#F1F1F1" height="83.2188" id="CreateSharedBoardUI" rx="2.5" ry="2.5" style="stroke:#181818;stroke-width:0.5;" width="191" x="404" y="7"/><ellipse cx="428" cy="23" fill="#ADD1B2" rx="11" ry="11" style="stroke:#181818;stroke-width:1.0;"/><path d="M430,19.5 Q430.2031,19 430.4375,18.75 Q430.6719,18.5 430.9375,18.5 Q431.4063,18.5 431.7031,18.7813 Q432,19.0625 432,19.7188 L432,21.2813 Q432,21.9375 431.7188,22.2188 Q431.4375,22.5 431,22.5 Q430.6094,22.5 430.3594,22.3281 Q430.1094,22.1563 430,21.7031 Q429.9531,21.3906 429.7813,21.2188 Q429.4688,20.8906 428.9063,20.7031 Q428.3438,20.5 427.7813,20.5 Q427.0781,20.5 426.4844,20.7813 Q425.9063,21.0625 425.4531,21.6875 Q425,22.3125 425,23.1719 L425,24.0938 Q425,25.125 425.8438,25.8125 Q426.6875,26.5 428.1875,26.5 Q429.0781,26.5 429.7031,26.2969 Q430.0625,26.1875 430.4688,25.8281 Q430.7344,25.625 430.875,25.5625 Q431.0156,25.5 431.1875,25.5 Q431.5156,25.5 431.75,25.7656 Q432,26.0156 432,26.375 Q432,26.7188 431.6563,27.125 Q431.1563,27.7188 430.3594,28.0469 Q429.3125,28.5 428.0313,28.5 Q426.5313,28.5 425.3281,27.9063 Q424.3594,27.4375 423.6719,26.4219 Q423,25.4063 423,24.2031 L423,23.1094 Q423,21.8594 423.5938,20.7656 Q424.2031,19.6719 425.25,19.0938 Q426.3125,18.5 427.5,18.5 Q428.2188,18.5 428.8438,18.75 Q429.4688,19 430,19.5 Z " fill="#000000"/><text fill="#000000" font-family="sans-serif" font-size="14" lengthAdjust="spacing" textLength="139" x="444" y="28.7285">CreateSharedBoardUI</text><line style="stroke:#181818;stroke-width:0.5;" x1="405" x2="594" y1="39" y2="39"/><line style="stroke:#181818;stroke-width:0.5;" x1="405" x2="594" y1="47" y2="47"/><ellipse cx="415" cy="61.3047" fill="#84BE84" rx="3" ry="3" style="stroke:#038048;stroke-width:1.0;"/><text fill="#000000" font-family="sans-serif" font-size="14" lengthAdjust="spacing" textLength="119" x="424" y="65.5332">requestInputData()</text><ellipse cx="415" cy="78.9141" fill="#84BE84" rx="3" ry="3" style="stroke:#038048;stroke-width:1.0;"/><text fill="#000000" font-family="sans-serif" font-size="14" lengthAdjust="spacing" textLength="165" x="424" y="83.1426">informOperationSuccess()</text></g><!--MD5=[8ff42d842c8ce9d5fcfdd468b5d5be33]
class CreateSharedBoardController--><g id="elem_CreateSharedBoardController"><rect codeLine="7" fill="#F1F1F1" height="65.6094" id="CreateSharedBoardController" rx="2.5" ry="2.5" style="stroke:#181818;stroke-width:0.5;" width="279" x="360" y="168"/><ellipse cx="401.1" cy="184" fill="#ADD1B2" rx="11" ry="11" style="stroke:#181818;stroke-width:1.0;"/><path d="M403.1,180.5 Q403.3031,180 403.5375,179.75 Q403.7719,179.5 404.0375,179.5 Q404.5063,179.5 404.8031,179.7813 Q405.1,180.0625 405.1,180.7188 L405.1,182.2813 Q405.1,182.9375 404.8188,183.2188 Q404.5375,183.5 404.1,183.5 Q403.7094,183.5 403.4594,183.3281 Q403.2094,183.1563 403.1,182.7031 Q403.0531,182.3906 402.8813,182.2188 Q402.5688,181.8906 402.0063,181.7031 Q401.4438,181.5 400.8813,181.5 Q400.1781,181.5 399.5844,181.7813 Q399.0063,182.0625 398.5531,182.6875 Q398.1,183.3125 398.1,184.1719 L398.1,185.0938 Q398.1,186.125 398.9438,186.8125 Q399.7875,187.5 401.2875,187.5 Q402.1781,187.5 402.8031,187.2969 Q403.1625,187.1875 403.5688,186.8281 Q403.8344,186.625 403.975,186.5625 Q404.1156,186.5 404.2875,186.5 Q404.6156,186.5 404.85,186.7656 Q405.1,187.0156 405.1,187.375 Q405.1,187.7188 404.7563,188.125 Q404.2563,188.7188 403.4594,189.0469 Q402.4125,189.5 401.1313,189.5 Q399.6313,189.5 398.4281,188.9063 Q397.4594,188.4375 396.7719,187.4219 Q396.1,186.4063 396.1,185.2031 L396.1,184.1094 Q396.1,182.8594 396.6938,181.7656 Q397.3031,180.6719 398.35,180.0938 Q399.4125,179.5 400.6,179.5 Q401.3188,179.5 401.9438,179.75 Q402.5688,180 403.1,180.5 Z " fill="#000000"/><text fill="#000000" font-family="sans-serif" font-size="14" lengthAdjust="spacing" textLength="189" x="420.9" y="189.7285">CreateSharedBoardController</text><line style="stroke:#181818;stroke-width:0.5;" x1="361" x2="638" y1="200" y2="200"/><line style="stroke:#181818;stroke-width:0.5;" x1="361" x2="638" y1="208" y2="208"/><ellipse cx="371" cy="222.3047" fill="#84BE84" rx="3" ry="3" style="stroke:#038048;stroke-width:1.0;"/><text fill="#000000" font-family="sans-serif" font-size="14" lengthAdjust="spacing" textLength="253" x="380" y="226.5332">createSharedBoard(title, rows, columns)</text></g><!--MD5=[54a33dd013dd881697601ca49de6dfbc]
class AuthorizationService--><g id="elem_AuthorizationService"><rect codeLine="11" fill="#F1F1F1" height="65.6094" id="AuthorizationService" rx="2.5" ry="2.5" style="stroke:#181818;stroke-width:0.5;" width="259" x="7" y="347"/><ellipse cx="67.75" cy="363" fill="#ADD1B2" rx="11" ry="11" style="stroke:#181818;stroke-width:1.0;"/><path d="M69.75,359.5 Q69.9531,359 70.1875,358.75 Q70.4219,358.5 70.6875,358.5 Q71.1563,358.5 71.4531,358.7813 Q71.75,359.0625 71.75,359.7188 L71.75,361.2813 Q71.75,361.9375 71.4688,362.2188 Q71.1875,362.5 70.75,362.5 Q70.3594,362.5 70.1094,362.3281 Q69.8594,362.1563 69.75,361.7031 Q69.7031,361.3906 69.5313,361.2188 Q69.2188,360.8906 68.6563,360.7031 Q68.0938,360.5 67.5313,360.5 Q66.8281,360.5 66.2344,360.7813 Q65.6563,361.0625 65.2031,361.6875 Q64.75,362.3125 64.75,363.1719 L64.75,364.0938 Q64.75,365.125 65.5938,365.8125 Q66.4375,366.5 67.9375,366.5 Q68.8281,366.5 69.4531,366.2969 Q69.8125,366.1875 70.2188,365.8281 Q70.4844,365.625 70.625,365.5625 Q70.7656,365.5 70.9375,365.5 Q71.2656,365.5 71.5,365.7656 Q71.75,366.0156 71.75,366.375 Q71.75,366.7188 71.4063,367.125 Q70.9063,367.7188 70.1094,368.0469 Q69.0625,368.5 67.7813,368.5 Q66.2813,368.5 65.0781,367.9063 Q64.1094,367.4375 63.4219,366.4219 Q62.75,365.4063 62.75,364.2031 L62.75,363.1094 Q62.75,361.8594 63.3438,360.7656 Q63.9531,359.6719 65,359.0938 Q66.0625,358.5 67.25,358.5 Q67.9688,358.5 68.5938,358.75 Q69.2188,359 69.75,359.5 Z " fill="#000000"/><text fill="#000000" font-family="sans-serif" font-size="14" lengthAdjust="spacing" textLength="129" x="88.25" y="368.7285">AuthorizationService</text><line style="stroke:#181818;stroke-width:0.5;" x1="8" x2="265" y1="379" y2="379"/><line style="stroke:#181818;stroke-width:0.5;" x1="8" x2="265" y1="387" y2="387"/><ellipse cx="18" cy="401.3047" fill="#84BE84" rx="3" ry="3" style="stroke:#038048;stroke-width:1.0;"/><text fill="#000000" font-family="sans-serif" font-size="14" lengthAdjust="spacing" textLength="233" x="27" y="405.5332">ensureAuthenticatedUserHasAnyOf()</text></g><!--MD5=[631a408429f696e3d99d668a29e41713]
class SharedBoardService--><g id="elem_SharedBoardService"><rect codeLine="15" fill="#F1F1F1" height="65.6094" id="SharedBoardService" rx="2.5" ry="2.5" style="stroke:#181818;stroke-width:0.5;" width="242" x="301.5" y="347"/><ellipse cx="352.75" cy="363" fill="#ADD1B2" rx="11" ry="11" style="stroke:#181818;stroke-width:1.0;"/><path d="M354.75,359.5 Q354.9531,359 355.1875,358.75 Q355.4219,358.5 355.6875,358.5 Q356.1563,358.5 356.4531,358.7813 Q356.75,359.0625 356.75,359.7188 L356.75,361.2813 Q356.75,361.9375 356.4688,362.2188 Q356.1875,362.5 355.75,362.5 Q355.3594,362.5 355.1094,362.3281 Q354.8594,362.1563 354.75,361.7031 Q354.7031,361.3906 354.5313,361.2188 Q354.2188,360.8906 353.6563,360.7031 Q353.0938,360.5 352.5313,360.5 Q351.8281,360.5 351.2344,360.7813 Q350.6563,361.0625 350.2031,361.6875 Q349.75,362.3125 349.75,363.1719 L349.75,364.0938 Q349.75,365.125 350.5938,365.8125 Q351.4375,366.5 352.9375,366.5 Q353.8281,366.5 354.4531,366.2969 Q354.8125,366.1875 355.2188,365.8281 Q355.4844,365.625 355.625,365.5625 Q355.7656,365.5 355.9375,365.5 Q356.2656,365.5 356.5,365.7656 Q356.75,366.0156 356.75,366.375 Q356.75,366.7188 356.4063,367.125 Q355.9063,367.7188 355.1094,368.0469 Q354.0625,368.5 352.7813,368.5 Q351.2813,368.5 350.0781,367.9063 Q349.1094,367.4375 348.4219,366.4219 Q347.75,365.4063 347.75,364.2031 L347.75,363.1094 Q347.75,361.8594 348.3438,360.7656 Q348.9531,359.6719 350,359.0938 Q351.0625,358.5 352.25,358.5 Q352.9688,358.5 353.5938,358.75 Q354.2188,359 354.75,359.5 Z " fill="#000000"/><text fill="#000000" font-family="sans-serif" font-size="14" lengthAdjust="spacing" textLength="131" x="373.25" y="368.7285">SharedBoardService</text><line style="stroke:#181818;stroke-width:0.5;" x1="302.5" x2="542.5" y1="379" y2="379"/><line style="stroke:#181818;stroke-width:0.5;" x1="302.5" x2="542.5" y1="387" y2="387"/><ellipse cx="312.5" cy="401.3047" fill="#84BE84" rx="3" ry="3" style="stroke:#038048;stroke-width:1.0;"/><text fill="#000000" font-family="sans-serif" font-size="14" lengthAdjust="spacing" textLength="216" x="321.5" y="405.5332">createSharedBoard(sharedBoard)</text></g><!--MD5=[3779036dbea081676be9a7b1f7ba52ea]
class SharedBoardBuilder--><g id="elem_SharedBoardBuilder"><rect codeLine="19" fill="#F1F1F1" height="136.0469" id="SharedBoardBuilder" rx="2.5" ry="2.5" style="stroke:#181818;stroke-width:0.5;" width="251" x="618" y="312"/><ellipse cx="675.25" cy="328" fill="#ADD1B2" rx="11" ry="11" style="stroke:#181818;stroke-width:1.0;"/><path d="M677.25,324.5 Q677.4531,324 677.6875,323.75 Q677.9219,323.5 678.1875,323.5 Q678.6563,323.5 678.9531,323.7813 Q679.25,324.0625 679.25,324.7188 L679.25,326.2813 Q679.25,326.9375 678.9688,327.2188 Q678.6875,327.5 678.25,327.5 Q677.8594,327.5 677.6094,327.3281 Q677.3594,327.1563 677.25,326.7031 Q677.2031,326.3906 677.0313,326.2188 Q676.7188,325.8906 676.1563,325.7031 Q675.5938,325.5 675.0313,325.5 Q674.3281,325.5 673.7344,325.7813 Q673.1563,326.0625 672.7031,326.6875 Q672.25,327.3125 672.25,328.1719 L672.25,329.0938 Q672.25,330.125 673.0938,330.8125 Q673.9375,331.5 675.4375,331.5 Q676.3281,331.5 676.9531,331.2969 Q677.3125,331.1875 677.7188,330.8281 Q677.9844,330.625 678.125,330.5625 Q678.2656,330.5 678.4375,330.5 Q678.7656,330.5 679,330.7656 Q679.25,331.0156 679.25,331.375 Q679.25,331.7188 678.9063,332.125 Q678.4063,332.7188 677.6094,333.0469 Q676.5625,333.5 675.2813,333.5 Q673.7813,333.5 672.5781,332.9063 Q671.6094,332.4375 670.9219,331.4219 Q670.25,330.4063 670.25,329.2031 L670.25,328.1094 Q670.25,326.8594 670.8438,325.7656 Q671.4531,324.6719 672.5,324.0938 Q673.5625,323.5 674.75,323.5 Q675.4688,323.5 676.0938,323.75 Q676.7188,324 677.25,324.5 Z " fill="#000000"/><text fill="#000000" font-family="sans-serif" font-size="14" lengthAdjust="spacing" textLength="128" x="695.75" y="333.7285">SharedBoardBuilder</text><line style="stroke:#181818;stroke-width:0.5;" x1="619" x2="868" y1="344" y2="344"/><line style="stroke:#181818;stroke-width:0.5;" x1="619" x2="868" y1="352" y2="352"/><ellipse cx="629" cy="366.3047" fill="#84BE84" rx="3" ry="3" style="stroke:#038048;stroke-width:1.0;"/><text fill="#000000" font-family="sans-serif" font-size="14" lengthAdjust="spacing" textLength="167" x="638" y="370.5332">withSharedBoardTitle(title)</text><ellipse cx="629" cy="383.9141" fill="#84BE84" rx="3" ry="3" style="stroke:#038048;stroke-width:1.0;"/><text fill="#000000" font-family="sans-serif" font-size="14" lengthAdjust="spacing" textLength="181" x="638" y="388.1426">withSharedBoardRows(rows)</text><ellipse cx="629" cy="401.5234" fill="#84BE84" rx="3" ry="3" style="stroke:#038048;stroke-width:1.0;"/><text fill="#000000" font-family="sans-serif" font-size="14" lengthAdjust="spacing" textLength="225" x="638" y="405.752">withSharedBoardColumns(columns)</text><ellipse cx="629" cy="419.1328" fill="#84BE84" rx="3" ry="3" style="stroke:#038048;stroke-width:1.0;"/><text fill="#000000" font-family="sans-serif" font-size="14" lengthAdjust="spacing" textLength="175" x="638" y="423.3613">withSharedBoardUser(user)</text><ellipse cx="629" cy="436.7422" fill="#84BE84" rx="3" ry="3" style="stroke:#038048;stroke-width:1.0;"/><text fill="#000000" font-family="sans-serif" font-size="14" lengthAdjust="spacing" textLength="40" x="638" y="440.9707">build()</text></g><!--MD5=[3762909e135fb728396985e200594027]
class SharedBoard--><g id="elem_SharedBoard"><rect codeLine="27" fill="#F1F1F1" height="118.4375" id="SharedBoard" rx="2.5" ry="2.5" style="stroke:#181818;stroke-width:0.5;" width="116" x="817.5" y="526"/><ellipse cx="832.5" cy="542" fill="#ADD1B2" rx="11" ry="11" style="stroke:#181818;stroke-width:1.0;"/><path d="M834.5,538.5 Q834.7031,538 834.9375,537.75 Q835.1719,537.5 835.4375,537.5 Q835.9063,537.5 836.2031,537.7813 Q836.5,538.0625 836.5,538.7188 L836.5,540.2813 Q836.5,540.9375 836.2188,541.2188 Q835.9375,541.5 835.5,541.5 Q835.1094,541.5 834.8594,541.3281 Q834.6094,541.1563 834.5,540.7031 Q834.4531,540.3906 834.2813,540.2188 Q833.9688,539.8906 833.4063,539.7031 Q832.8438,539.5 832.2813,539.5 Q831.5781,539.5 830.9844,539.7813 Q830.4063,540.0625 829.9531,540.6875 Q829.5,541.3125 829.5,542.1719 L829.5,543.0938 Q829.5,544.125 830.3438,544.8125 Q831.1875,545.5 832.6875,545.5 Q833.5781,545.5 834.2031,545.2969 Q834.5625,545.1875 834.9688,544.8281 Q835.2344,544.625 835.375,544.5625 Q835.5156,544.5 835.6875,544.5 Q836.0156,544.5 836.25,544.7656 Q836.5,545.0156 836.5,545.375 Q836.5,545.7188 836.1563,546.125 Q835.6563,546.7188 834.8594,547.0469 Q833.8125,547.5 832.5313,547.5 Q831.0313,547.5 829.8281,546.9063 Q828.8594,546.4375 828.1719,545.4219 Q827.5,544.4063 827.5,543.2031 L827.5,542.1094 Q827.5,540.8594 828.0938,539.7656 Q828.7031,538.6719 829.75,538.0938 Q830.8125,537.5 832,537.5 Q832.7188,537.5 833.3438,537.75 Q833.9688,538 834.5,538.5 Z " fill="#000000"/><text fill="#000000" font-family="sans-serif" font-size="14" lengthAdjust="spacing" textLength="84" x="846.5" y="547.7285">SharedBoard</text><line style="stroke:#181818;stroke-width:0.5;" x1="818.5" x2="932.5" y1="558" y2="558"/><rect fill="none" height="6" style="stroke:#C82930;stroke-width:1.0;" width="6" x="825.5" y="569.3047"/><text fill="#000000" font-family="sans-serif" font-size="14" lengthAdjust="spacing" textLength="67" x="837.5" y="576.5332">title: String</text><rect fill="none" height="6" style="stroke:#C82930;stroke-width:1.0;" width="6" x="825.5" y="586.9141"/><text fill="#000000" font-family="sans-serif" font-size="14" lengthAdjust="spacing" textLength="52" x="837.5" y="594.1426">rows: int</text><rect fill="none" height="6" style="stroke:#C82930;stroke-width:1.0;" width="6" x="825.5" y="604.5234"/><text fill="#000000" font-family="sans-serif" font-size="14" lengthAdjust="spacing" textLength="75" x="837.5" y="611.752">columns: int</text><rect fill="none" height="6" style="stroke:#C82930;stroke-width:1.0;" width="6" x="825.5" y="622.1328"/><text fill="#000000" font-family="sans-serif" font-size="14" lengthAdjust="spacing" textLength="65" x="837.5" y="629.3613">user: User</text><line style="stroke:#181818;stroke-width:0.5;" x1="818.5" x2="932.5" y1="636.4375" y2="636.4375"/></g><!--MD5=[6e84673ea0e0779ac9797c6daf6a3606]
class SharedBoardRepository--><g id="elem_SharedBoardRepository"><rect codeLine="34" fill="#F1F1F1" height="83.2188" id="SharedBoardRepository" rx="2.5" ry="2.5" style="stroke:#181818;stroke-width:0.5;" width="184" x="330.5" y="543.5"/><ellipse cx="345.5" cy="559.5" fill="#ADD1B2" rx="11" ry="11" style="stroke:#181818;stroke-width:1.0;"/><path d="M347.5,556 Q347.7031,555.5 347.9375,555.25 Q348.1719,555 348.4375,555 Q348.9063,555 349.2031,555.2813 Q349.5,555.5625 349.5,556.2188 L349.5,557.7813 Q349.5,558.4375 349.2188,558.7188 Q348.9375,559 348.5,559 Q348.1094,559 347.8594,558.8281 Q347.6094,558.6563 347.5,558.2031 Q347.4531,557.8906 347.2813,557.7188 Q346.9688,557.3906 346.4063,557.2031 Q345.8438,557 345.2813,557 Q344.5781,557 343.9844,557.2813 Q343.4063,557.5625 342.9531,558.1875 Q342.5,558.8125 342.5,559.6719 L342.5,560.5938 Q342.5,561.625 343.3438,562.3125 Q344.1875,563 345.6875,563 Q346.5781,563 347.2031,562.7969 Q347.5625,562.6875 347.9688,562.3281 Q348.2344,562.125 348.375,562.0625 Q348.5156,562 348.6875,562 Q349.0156,562 349.25,562.2656 Q349.5,562.5156 349.5,562.875 Q349.5,563.2188 349.1563,563.625 Q348.6563,564.2188 347.8594,564.5469 Q346.8125,565 345.5313,565 Q344.0313,565 342.8281,564.4063 Q341.8594,563.9375 341.1719,562.9219 Q340.5,561.9063 340.5,560.7031 L340.5,559.6094 Q340.5,558.3594 341.0938,557.2656 Q341.7031,556.1719 342.75,555.5938 Q343.8125,555 345,555 Q345.7188,555 346.3438,555.25 Q346.9688,555.5 347.5,556 Z " fill="#000000"/><text fill="#000000" font-family="sans-serif" font-size="14" lengthAdjust="spacing" textLength="152" x="359.5" y="565.2285">SharedBoardRepository</text><line style="stroke:#181818;stroke-width:0.5;" x1="331.5" x2="513.5" y1="575.5" y2="575.5"/><line style="stroke:#181818;stroke-width:0.5;" x1="331.5" x2="513.5" y1="583.5" y2="583.5"/><ellipse cx="341.5" cy="597.8047" fill="#84BE84" rx="3" ry="3" style="stroke:#038048;stroke-width:1.0;"/><text fill="#000000" font-family="sans-serif" font-size="14" lengthAdjust="spacing" textLength="84" x="350.5" y="602.0332">repositories()</text><ellipse cx="341.5" cy="615.4141" fill="#84BE84" rx="3" ry="3" style="stroke:#038048;stroke-width:1.0;"/><text fill="#000000" font-family="sans-serif" font-size="14" lengthAdjust="spacing" textLength="122" x="350.5" y="619.6426">save(sharedBoard)</text></g><!--MD5=[57224c86e551476e08ab8e72670c4c08]
link CreateSharedBoardUI to CreateSharedBoardController--><g id="link_CreateSharedBoardUI_CreateSharedBoardController"><path codeLine="39" d="M468.52,90.07 C460.78,104.83 455.85,121.87 460.5,138 C463.03,146.76 467.2,155.48 471.9,163.49 " fill="none" id="CreateSharedBoardUI-to-CreateSharedBoardController" style="stroke:#181818;stroke-width:1.0;stroke-dasharray:7.0,7.0;"/><polygon fill="#181818" points="474.55,167.87,473.3111,158.0994,471.9607,163.5927,466.4674,162.2422,474.55,167.87" style="stroke:#181818;stroke-width:1.0;"/><text fill="#000000" font-family="sans-serif" font-size="13" lengthAdjust="spacing" textLength="30" x="461.5" y="134.4951">Uses</text></g><!--MD5=[ce61372a6432a0ac06636850b2506ca0]
link CreateSharedBoardController to CreateSharedBoardUI--><g id="link_CreateSharedBoardController_CreateSharedBoardUI"><path codeLine="42" d="M499.5,167.82 C499.5,146.74 499.5,118.86 499.5,95.46 " fill="none" id="CreateSharedBoardController-to-CreateSharedBoardUI" style="stroke:#181818;stroke-width:1.0;"/><polygon fill="#181818" points="499.5,90.23,495.5,99.23,499.5,95.23,503.5,99.23,499.5,90.23" style="stroke:#181818;stroke-width:1.0;"/><text fill="#000000" font-family="sans-serif" font-size="13" lengthAdjust="spacing" textLength="95" x="500.5" y="134.4951">Informs success</text></g><!--MD5=[e9a1d95476f5415f1b5da32ab9c22015]
link CreateSharedBoardController to AuthorizationService--><g id="link_CreateSharedBoardController_AuthorizationService"><path codeLine="40" d="M359.72,232.91 C333.02,241.25 305.83,251.52 281.5,264 C240.9,284.82 200.72,317.93 172.99,343.29 " fill="none" id="CreateSharedBoardController-to-AuthorizationService" style="stroke:#181818;stroke-width:1.0;stroke-dasharray:7.0,7.0;"/><polygon fill="#181818" points="168.99,346.97,178.3112,343.7896,172.6585,343.5727,172.8755,337.92,168.99,346.97" style="stroke:#181818;stroke-width:1.0;"/><text fill="#000000" font-family="sans-serif" font-size="13" lengthAdjust="spacing" textLength="30" x="282.5" y="278.4951">Uses</text></g><!--MD5=[083dc0f6fccc1a835464e8dec007468b]
link CreateSharedBoardController to SharedBoardService--><g id="link_CreateSharedBoardController_SharedBoardService"><path codeLine="41" d="M359.91,234.09 C347.3,241.98 336.08,251.79 327.5,264 C307.92,291.87 333.54,321.46 363.08,343.65 " fill="none" id="CreateSharedBoardController-to-SharedBoardService" style="stroke:#181818;stroke-width:1.0;stroke-dasharray:7.0,7.0;"/><polygon fill="#181818" points="367.46,346.86,362.5718,338.3099,363.4293,343.9013,357.8379,344.7589,367.46,346.86" style="stroke:#181818;stroke-width:1.0;"/><text fill="#000000" font-family="sans-serif" font-size="13" lengthAdjust="spacing" textLength="30" x="328.5" y="278.4951">Uses</text></g><!--MD5=[083dc0f6fccc1a835464e8dec007468b]
link CreateSharedBoardController to SharedBoardService--><g id="link_CreateSharedBoardController_SharedBoardService"><path codeLine="44" d="M426.85,234.3 C415.88,242.39 406.06,252.22 399.5,264 C386.13,288.02 393.26,318.68 402.98,342.31 " fill="none" id="CreateSharedBoardController-to-SharedBoardService-1" style="stroke:#181818;stroke-width:1.0;"/><polygon fill="#181818" points="404.96,346.94,405.1061,337.0922,402.9973,342.3413,397.7482,340.2325,404.96,346.94" style="stroke:#181818;stroke-width:1.0;"/><text fill="#000000" font-family="sans-serif" font-size="13" lengthAdjust="spacing" textLength="152" x="400.5" y="278.4951">Calls createSharedBoard()</text></g><!--MD5=[bb1ea52debde035d62307f8b59598fea]
link SharedBoardService to CreateSharedBoardController--><g id="link_SharedBoardService_CreateSharedBoardController"><path codeLine="46" d="M491.79,346.82 C517.27,331.13 543.34,309.61 557.5,282 C565.23,266.92 558.36,251.57 547.01,238.4 " fill="none" id="SharedBoardService-to-CreateSharedBoardController" style="stroke:#181818;stroke-width:1.0;"/><polygon fill="#181818" points="543.35,234.38,546.4551,243.7266,546.7176,238.0758,552.3684,238.3384,543.35,234.38" style="stroke:#181818;stroke-width:1.0;"/><text fill="#000000" font-family="sans-serif" font-size="13" lengthAdjust="spacing" textLength="124" x="562.5" y="278.4951">Returns SharedBoard</text></g><!--MD5=[193681c478c672f89be4c0d8a8d7550f]
link CreateSharedBoardController to SharedBoardBuilder--><g id="link_CreateSharedBoardController_SharedBoardBuilder"><path codeLine="43" d="M639.2,229.44 C659.74,238 679.37,249.25 695.5,264 C708.16,275.58 717.58,291.02 724.56,306.82 " fill="none" id="CreateSharedBoardController-to-SharedBoardBuilder" style="stroke:#181818;stroke-width:1.0;stroke-dasharray:7.0,7.0;"/><polygon fill="#181818" points="726.64,311.73,726.7972,301.8824,724.6825,307.1291,719.4358,305.0144,726.64,311.73" style="stroke:#181818;stroke-width:1.0;"/><text fill="#000000" font-family="sans-serif" font-size="13" lengthAdjust="spacing" textLength="30" x="712.5" y="278.4951">Uses</text></g><!--MD5=[105bb5bfc4718d346a4b8f9b68115746]
link SharedBoardService to SharedBoardRepository--><g id="link_SharedBoardService_SharedBoardRepository"><path codeLine="45" d="M422.5,413.17 C422.5,446.87 422.5,500.11 422.5,538.19 " fill="none" id="SharedBoardService-to-SharedBoardRepository" style="stroke:#181818;stroke-width:1.0;stroke-dasharray:7.0,7.0;"/><polygon fill="#181818" points="422.5,543.23,426.5,534.23,422.5,538.23,418.5,534.23,422.5,543.23" style="stroke:#181818;stroke-width:1.0;"/><text fill="#000000" font-family="sans-serif" font-size="13" lengthAdjust="spacing" textLength="30" x="423.5" y="492.4951">Uses</text></g><!--MD5=[16115c5af8694043d7696ee590188c62]
link SharedBoardBuilder to SharedBoard--><g id="link_SharedBoardBuilder_SharedBoard"><path codeLine="47" d="M787.09,448.03 C802.5,471.73 819.76,498.28 834.91,521.58 " fill="none" id="SharedBoardBuilder-to-SharedBoard" style="stroke:#181818;stroke-width:1.0;"/><polygon fill="#181818" points="837.72,525.89,836.1712,516.1637,834.9961,521.6971,829.4626,520.522,837.72,525.89" style="stroke:#181818;stroke-width:1.0;"/><text fill="#000000" font-family="sans-serif" font-size="13" lengthAdjust="spacing" textLength="36" x="818.5" y="492.4951">Builds</text></g><!--MD5=[73df178f5beb13a704e2820bcb8f2f8f]
link CreateSharedBoardController to SharedBoard--><g id="link_CreateSharedBoardController_SharedBoard"><path codeLine="48" d="M639.23,222.96 C737.85,241.04 857.4,270.77 886.5,312 C929.37,372.75 915.4,461.56 898.25,521 " fill="none" id="CreateSharedBoardController-to-SharedBoard" style="stroke:#181818;stroke-width:1.0;"/><polygon fill="#181818" points="896.8,525.94,903.1806,518.4375,898.2131,521.1439,895.5068,516.1764,896.8,525.94" style="stroke:#181818;stroke-width:1.0;"/><text fill="#000000" font-family="sans-serif" font-size="13" lengthAdjust="spacing" textLength="45" x="916.5" y="385.4951">Creates</text></g><!--MD5=[3bb1e7b120b4f9bf63601be2e4fc5757]
@startuml

class CreateSharedBoardUI {
  +requestInputData()
  +informOperationSuccess()
}

class CreateSharedBoardController {
  +createSharedBoard(title, rows, columns)
}

class AuthorizationService {
  +ensureAuthenticatedUserHasAnyOf()
}

class SharedBoardService {
  +createSharedBoard(sharedBoard)
}

class SharedBoardBuilder {
  +withSharedBoardTitle(title)
  +withSharedBoardRows(rows)
  +withSharedBoardColumns(columns)
  +withSharedBoardUser(user)
  +build()
}

class SharedBoard {
  -title: String
  -rows: int
  -columns: int
  -user: User
}

class SharedBoardRepository {
  +repositories()
  +save(sharedBoard)
}

CreateSharedBoardUI ..> CreateSharedBoardController : Uses
CreateSharedBoardController ..> AuthorizationService : Uses
CreateSharedBoardController ..> SharedBoardService : Uses
CreateSharedBoardController - -> CreateSharedBoardUI : Informs success
CreateSharedBoardController ..> SharedBoardBuilder : Uses
CreateSharedBoardController - -> SharedBoardService : Calls createSharedBoard()
SharedBoardService ..> SharedBoardRepository : Uses
SharedBoardService - -> CreateSharedBoardController : Returns SharedBoard
SharedBoardBuilder - -> SharedBoard : Builds
CreateSharedBoardController - -> SharedBoard : Creates

@enduml

PlantUML version 1.2022.12(Sun Oct 23 19:12:26 BST 2022)
(GPL source distribution)
Java Runtime: OpenJDK Runtime Environment
JVM: OpenJDK 64-Bit Server VM
Default Encoding: Cp1252
Language: en
Country: US
--></g></svg>