<?xml version="1.0" encoding="UTF-8" standalone="no"?><svg xmlns="http://www.w3.org/2000/svg" xmlns:xlink="http://www.w3.org/1999/xlink" contentStyleType="text/css" height="1040px" preserveAspectRatio="none" style="width:1866px;height:1040px;background:#FFFFFF;" version="1.1" viewBox="0 0 1866 1040" width="1866px" zoomAndPan="magnify"><defs/><g><rect fill="#FFFFFF" height="91.0547" style="stroke:#181818;stroke-width:1.0;" width="10" x="760.5" y="179.2734"/><rect fill="#FFFFFF" height="633.8672" style="stroke:#181818;stroke-width:1.0;" width="10" x="760.5" y="300.6797"/><rect fill="#FFFFFF" height="616.8672" style="stroke:#181818;stroke-width:1.0;" width="10" x="1513" y="96.2188"/><rect fill="none" height="155.5938" style="stroke:#000000;stroke-width:1.5;" width="1282" x="10" y="346.0313"/><line style="stroke:#181818;stroke-width:0.5;stroke-dasharray:5.0,5.0;" x1="37" x2="37" y1="86.2188" y2="943.5469"/><line style="stroke:#181818;stroke-width:0.5;stroke-dasharray:5.0,5.0;" x1="304" x2="304" y1="86.2188" y2="943.5469"/><line style="stroke:#181818;stroke-width:0.5;stroke-dasharray:5.0,5.0;" x1="765" x2="765" y1="86.2188" y2="943.5469"/><line style="stroke:#181818;stroke-width:0.5;stroke-dasharray:5.0,5.0;" x1="1210" x2="1210" y1="86.2188" y2="943.5469"/><line style="stroke:#181818;stroke-width:0.5;stroke-dasharray:5.0,5.0;" x1="1364" x2="1364" y1="86.2188" y2="943.5469"/><line style="stroke:#181818;stroke-width:0.5;stroke-dasharray:5.0,5.0;" x1="1518" x2="1518" y1="86.2188" y2="943.5469"/><line style="stroke:#181818;stroke-width:0.5;stroke-dasharray:5.0,5.0;" x1="1648" x2="1648" y1="86.2188" y2="943.5469"/><line style="stroke:#181818;stroke-width:0.5;stroke-dasharray:5.0,5.0;" x1="1786" x2="1786" y1="86.2188" y2="943.5469"/><text fill="#000000" font-family="sans-serif" font-size="14" lengthAdjust="spacing" textLength="29" x="20" y="83.1426">User</text><ellipse cx="37.5" cy="17.1094" fill="#E2E2F0" rx="8" ry="8" style="stroke:#181818;stroke-width:0.5;"/><path d="M37.5,25.1094 L37.5,52.1094 M24.5,33.1094 L50.5,33.1094 M37.5,52.1094 L24.5,67.1094 M37.5,52.1094 L50.5,67.1094 " fill="none" style="stroke:#181818;stroke-width:0.5;"/><text fill="#000000" font-family="sans-serif" font-size="14" lengthAdjust="spacing" textLength="29" x="20" y="957.0801">User</text><ellipse cx="37.5" cy="968.6563" fill="#E2E2F0" rx="8" ry="8" style="stroke:#181818;stroke-width:0.5;"/><path d="M37.5,976.6563 L37.5,1003.6563 M24.5,984.6563 L50.5,984.6563 M37.5,1003.6563 L24.5,1018.6563 M37.5,1003.6563 L50.5,1018.6563 " fill="none" style="stroke:#181818;stroke-width:0.5;"/><rect fill="#E2E2F0" height="49.2188" rx="2.5" ry="2.5" style="stroke:#181818;stroke-width:0.5;" width="153" x="228" y="36"/><text fill="#000000" font-family="sans-serif" font-size="14" font-style="italic" lengthAdjust="spacing" textLength="95" x="257" y="57.5332">«presentation»</text><text fill="#000000" font-family="sans-serif" font-size="14" lengthAdjust="spacing" textLength="139" x="235" y="75.1426">CreateSharedBoardUI</text><rect fill="#E2E2F0" height="49.2188" rx="2.5" ry="2.5" style="stroke:#181818;stroke-width:0.5;" width="153" x="228" y="942.5469"/><text fill="#000000" font-family="sans-serif" font-size="14" font-style="italic" lengthAdjust="spacing" textLength="95" x="257" y="964.0801">«presentation»</text><text fill="#000000" font-family="sans-serif" font-size="14" lengthAdjust="spacing" textLength="139" x="235" y="981.6895">CreateSharedBoardUI</text><rect fill="#E2E2F0" height="49.2188" rx="2.5" ry="2.5" style="stroke:#181818;stroke-width:0.5;" width="203" x="664" y="36"/><text fill="#000000" font-family="sans-serif" font-size="14" font-style="italic" lengthAdjust="spacing" textLength="84" x="723.5" y="57.5332">«application»</text><text fill="#000000" font-family="sans-serif" font-size="14" lengthAdjust="spacing" textLength="189" x="671" y="75.1426">CreateSharedBoardController</text><rect fill="#E2E2F0" height="49.2188" rx="2.5" ry="2.5" style="stroke:#181818;stroke-width:0.5;" width="203" x="664" y="942.5469"/><text fill="#000000" font-family="sans-serif" font-size="14" font-style="italic" lengthAdjust="spacing" textLength="84" x="723.5" y="964.0801">«application»</text><text fill="#000000" font-family="sans-serif" font-size="14" lengthAdjust="spacing" textLength="189" x="671" y="981.6895">CreateSharedBoardController</text><rect fill="#E2E2F0" height="49.2188" rx="2.5" ry="2.5" style="stroke:#181818;stroke-width:0.5;" width="143" x="1139" y="36"/><text fill="#000000" font-family="sans-serif" font-size="14" font-style="italic" lengthAdjust="spacing" textLength="60" x="1180.5" y="57.5332">«service»</text><text fill="#000000" font-family="sans-serif" font-size="14" lengthAdjust="spacing" textLength="129" x="1146" y="75.1426">AuthorizationService</text><rect fill="#E2E2F0" height="49.2188" rx="2.5" ry="2.5" style="stroke:#181818;stroke-width:0.5;" width="143" x="1139" y="942.5469"/><text fill="#000000" font-family="sans-serif" font-size="14" font-style="italic" lengthAdjust="spacing" textLength="60" x="1180.5" y="964.0801">«service»</text><text fill="#000000" font-family="sans-serif" font-size="14" lengthAdjust="spacing" textLength="129" x="1146" y="981.6895">AuthorizationService</text><rect fill="#E2E2F0" height="49.2188" rx="2.5" ry="2.5" style="stroke:#181818;stroke-width:0.5;" width="145" x="1292" y="36"/><text fill="#000000" font-family="sans-serif" font-size="14" font-style="italic" lengthAdjust="spacing" textLength="60" x="1334.5" y="57.5332">«service»</text><text fill="#000000" font-family="sans-serif" font-size="14" lengthAdjust="spacing" textLength="131" x="1299" y="75.1426">SharedBoardService</text><rect fill="#E2E2F0" height="49.2188" rx="2.5" ry="2.5" style="stroke:#181818;stroke-width:0.5;" width="145" x="1292" y="942.5469"/><text fill="#000000" font-family="sans-serif" font-size="14" font-style="italic" lengthAdjust="spacing" textLength="60" x="1334.5" y="964.0801">«service»</text><text fill="#000000" font-family="sans-serif" font-size="14" lengthAdjust="spacing" textLength="131" x="1299" y="981.6895">SharedBoardService</text><rect fill="#E2E2F0" height="49.2188" rx="2.5" ry="2.5" style="stroke:#181818;stroke-width:0.5;" width="142" x="1447" y="36"/><text fill="#000000" font-family="sans-serif" font-size="14" font-style="italic" lengthAdjust="spacing" textLength="62" x="1487" y="57.5332">«domain»</text><text fill="#000000" font-family="sans-serif" font-size="14" lengthAdjust="spacing" textLength="128" x="1454" y="75.1426">SharedBoardBuilder</text><rect fill="#E2E2F0" height="49.2188" rx="2.5" ry="2.5" style="stroke:#181818;stroke-width:0.5;" width="142" x="1447" y="942.5469"/><text fill="#000000" font-family="sans-serif" font-size="14" font-style="italic" lengthAdjust="spacing" textLength="62" x="1487" y="964.0801">«domain»</text><text fill="#000000" font-family="sans-serif" font-size="14" lengthAdjust="spacing" textLength="128" x="1454" y="981.6895">SharedBoardBuilder</text><rect fill="#E2E2F0" height="49.2188" rx="2.5" ry="2.5" style="stroke:#181818;stroke-width:0.5;" width="98" x="1599" y="36"/><text fill="#000000" font-family="sans-serif" font-size="14" font-style="italic" lengthAdjust="spacing" textLength="62" x="1617" y="57.5332">«domain»</text><text fill="#000000" font-family="sans-serif" font-size="14" lengthAdjust="spacing" textLength="84" x="1606" y="75.1426">SharedBoard</text><rect fill="#E2E2F0" height="49.2188" rx="2.5" ry="2.5" style="stroke:#181818;stroke-width:0.5;" width="98" x="1599" y="942.5469"/><text fill="#000000" font-family="sans-serif" font-size="14" font-style="italic" lengthAdjust="spacing" textLength="62" x="1617" y="964.0801">«domain»</text><text fill="#000000" font-family="sans-serif" font-size="14" lengthAdjust="spacing" textLength="84" x="1606" y="981.6895">SharedBoard</text><text fill="#000000" font-family="sans-serif" font-size="14" font-style="italic" lengthAdjust="spacing" textLength="89" x="1738.5" y="65.5332">«persistence»</text><text fill="#000000" font-family="sans-serif" font-size="14" lengthAdjust="spacing" textLength="152" x="1707" y="83.1426">SharedBoardRepository</text><path d="M1768,15 C1768,5 1786,5 1786,5 C1786,5 1804,5 1804,15 L1804,41 C1804,51 1786,51 1786,51 C1786,51 1768,51 1768,41 L1768,15 " fill="#E2E2F0" style="stroke:#181818;stroke-width:1.5;"/><path d="M1768,15 C1768,25 1786,25 1786,25 C1786,25 1804,25 1804,15 " fill="none" style="stroke:#181818;stroke-width:1.5;"/><text fill="#000000" font-family="sans-serif" font-size="14" font-style="italic" lengthAdjust="spacing" textLength="89" x="1738.5" y="957.0801">«persistence»</text><text fill="#000000" font-family="sans-serif" font-size="14" lengthAdjust="spacing" textLength="152" x="1707" y="974.6895">SharedBoardRepository</text><path d="M1768,987.7656 C1768,977.7656 1786,977.7656 1786,977.7656 C1786,977.7656 1804,977.7656 1804,987.7656 L1804,1013.7656 C1804,1023.7656 1786,1023.7656 1786,1023.7656 C1786,1023.7656 1768,1023.7656 1768,1013.7656 L1768,987.7656 " fill="#E2E2F0" style="stroke:#181818;stroke-width:1.5;"/><path d="M1768,987.7656 C1768,997.7656 1786,997.7656 1786,997.7656 C1786,997.7656 1804,997.7656 1804,987.7656 " fill="none" style="stroke:#181818;stroke-width:1.5;"/><rect fill="#FFFFFF" height="91.0547" style="stroke:#181818;stroke-width:1.0;" width="10" x="760.5" y="179.2734"/><rect fill="#FFFFFF" height="633.8672" style="stroke:#181818;stroke-width:1.0;" width="10" x="760.5" y="300.6797"/><rect fill="#FFFFFF" height="616.8672" style="stroke:#181818;stroke-width:1.0;" width="10" x="1513" y="96.2188"/><polygon fill="#181818" points="292.5,114.5703,302.5,118.5703,292.5,122.5703,296.5,118.5703" style="stroke:#181818;stroke-width:1.0;"/><line style="stroke:#181818;stroke-width:1.0;" x1="37.5" x2="298.5" y1="118.5703" y2="118.5703"/><text fill="#000000" font-family="sans-serif" font-size="13" font-weight="bold" lengthAdjust="spacing" textLength="7" x="44.5" y="113.7139">1</text><text fill="#000000" font-family="sans-serif" font-size="13" lengthAdjust="spacing" textLength="177" x="55.5" y="113.7139">asks to create a Shared Board</text><polygon fill="#181818" points="48.5,144.9219,38.5,148.9219,48.5,152.9219,44.5,148.9219" style="stroke:#181818;stroke-width:1.0;"/><line style="stroke:#181818;stroke-width:1.0;stroke-dasharray:2.0,2.0;" x1="42.5" x2="303.5" y1="148.9219" y2="148.9219"/><text fill="#000000" font-family="sans-serif" font-size="13" font-weight="bold" lengthAdjust="spacing" textLength="7" x="54.5" y="144.0654">2</text><text fill="#000000" font-family="sans-serif" font-size="13" lengthAdjust="spacing" textLength="232" x="65.5" y="144.0654">requests input data(title, rows, columns)</text><polygon fill="#181818" points="292.5,175.2734,302.5,179.2734,292.5,183.2734,296.5,179.2734" style="stroke:#181818;stroke-width:1.0;"/><line style="stroke:#181818;stroke-width:1.0;" x1="37.5" x2="298.5" y1="179.2734" y2="179.2734"/><text fill="#000000" font-family="sans-serif" font-size="13" font-weight="bold" lengthAdjust="spacing" textLength="7" x="44.5" y="174.417">3</text><text fill="#000000" font-family="sans-serif" font-size="13" lengthAdjust="spacing" textLength="125" x="55.5" y="174.417">Types requested data</text><polygon fill="#181818" points="748.5,205.625,758.5,209.625,748.5,213.625,752.5,209.625" style="stroke:#181818;stroke-width:1.0;"/><line style="stroke:#181818;stroke-width:1.0;" x1="304.5" x2="754.5" y1="209.625" y2="209.625"/><text fill="#000000" font-family="sans-serif" font-size="13" font-weight="bold" lengthAdjust="spacing" textLength="7" x="311.5" y="204.7686">4</text><text fill="#000000" font-family="sans-serif" font-size="13" lengthAdjust="spacing" textLength="43" x="322.5" y="204.7686">creates</text><polygon fill="#181818" points="1198.5,235.9766,1208.5,239.9766,1198.5,243.9766,1202.5,239.9766" style="stroke:#181818;stroke-width:1.0;"/><line style="stroke:#181818;stroke-width:1.0;" x1="770.5" x2="1204.5" y1="239.9766" y2="239.9766"/><text fill="#000000" font-family="sans-serif" font-size="13" font-weight="bold" lengthAdjust="spacing" textLength="7" x="777.5" y="235.1201">5</text><text fill="#000000" font-family="sans-serif" font-size="13" lengthAdjust="spacing" textLength="124" x="788.5" y="235.1201">authorizationService()</text><polygon fill="#181818" points="1352.5,266.3281,1362.5,270.3281,1352.5,274.3281,1356.5,270.3281" style="stroke:#181818;stroke-width:1.0;"/><line style="stroke:#181818;stroke-width:1.0;" x1="765.5" x2="1358.5" y1="270.3281" y2="270.3281"/><text fill="#000000" font-family="sans-serif" font-size="13" font-weight="bold" lengthAdjust="spacing" textLength="7" x="772.5" y="265.4717">6</text><text fill="#000000" font-family="sans-serif" font-size="13" lengthAdjust="spacing" textLength="36" x="783.5" y="265.4717">create</text><polygon fill="#181818" points="748.5,296.6797,758.5,300.6797,748.5,304.6797,752.5,300.6797" style="stroke:#181818;stroke-width:1.0;"/><line style="stroke:#181818;stroke-width:1.0;" x1="304.5" x2="754.5" y1="300.6797" y2="300.6797"/><text fill="#000000" font-family="sans-serif" font-size="13" font-weight="bold" lengthAdjust="spacing" textLength="7" x="311.5" y="295.8232">7</text><text fill="#000000" font-family="sans-serif" font-size="13" lengthAdjust="spacing" textLength="426" x="322.5" y="295.8232">createSharedBoard(title, Integer.parseInt(rows), Integer.parseInt(columns))</text><polygon fill="#181818" points="1198.5,327.0313,1208.5,331.0313,1198.5,335.0313,1202.5,331.0313" style="stroke:#181818;stroke-width:1.0;"/><line style="stroke:#181818;stroke-width:1.0;" x1="770.5" x2="1204.5" y1="331.0313" y2="331.0313"/><text fill="#000000" font-family="sans-serif" font-size="13" font-weight="bold" lengthAdjust="spacing" textLength="7" x="777.5" y="326.1748">8</text><text fill="#000000" font-family="sans-serif" font-size="13" lengthAdjust="spacing" textLength="405" x="788.5" y="326.1748">ensureAuthenticatedUserHasAnyOf(ELearningUser, Student, Teacher)</text><path d="M10,346.0313 L71,346.0313 L71,354.3828 L61,364.3828 L10,364.3828 L10,346.0313 " fill="#EEEEEE" style="stroke:#000000;stroke-width:1.5;"/><rect fill="none" height="155.5938" style="stroke:#000000;stroke-width:1.5;" width="1282" x="10" y="346.0313"/><text fill="#000000" font-family="sans-serif" font-size="13" font-weight="bold" lengthAdjust="spacing" textLength="16" x="25" y="360.5264">alt</text><text fill="#000000" font-family="sans-serif" font-size="11" font-weight="bold" lengthAdjust="spacing" textLength="180" x="86" y="359.4502">[user has insufficient privileges]</text><polygon fill="#181818" points="781.5,382.7344,771.5,386.7344,781.5,390.7344,777.5,386.7344" style="stroke:#181818;stroke-width:1.0;"/><line style="stroke:#181818;stroke-width:1.0;" x1="775.5" x2="1209.5" y1="386.7344" y2="386.7344"/><text fill="#000000" font-family="sans-serif" font-size="13" font-weight="bold" lengthAdjust="spacing" textLength="7" x="787.5" y="381.8779">9</text><text fill="#000000" font-family="sans-serif" font-size="13" lengthAdjust="spacing" textLength="120" x="798.5" y="381.8779">Insufficient Privileges</text><polygon fill="#181818" points="315.5,413.0859,305.5,417.0859,315.5,421.0859,311.5,417.0859" style="stroke:#181818;stroke-width:1.0;"/><line style="stroke:#181818;stroke-width:1.0;stroke-dasharray:2.0,2.0;" x1="309.5" x2="759.5" y1="417.0859" y2="417.0859"/><text fill="#000000" font-family="sans-serif" font-size="13" font-weight="bold" lengthAdjust="spacing" textLength="14" x="321.5" y="412.2295">10</text><text fill="#000000" font-family="sans-serif" font-size="13" lengthAdjust="spacing" textLength="120" x="339.5" y="412.2295">Insufficient Privileges</text><polygon fill="#181818" points="48.5,443.4375,38.5,447.4375,48.5,451.4375,44.5,447.4375" style="stroke:#181818;stroke-width:1.0;"/><line style="stroke:#181818;stroke-width:1.0;stroke-dasharray:2.0,2.0;" x1="42.5" x2="303.5" y1="447.4375" y2="447.4375"/><text fill="#000000" font-family="sans-serif" font-size="13" font-weight="bold" lengthAdjust="spacing" textLength="14" x="54.5" y="442.5811">11</text><text fill="#000000" font-family="sans-serif" font-size="13" lengthAdjust="spacing" textLength="120" x="72.5" y="442.5811">Insufficient Privileges</text><line style="stroke:#000000;stroke-width:1.0;stroke-dasharray:2.0,2.0;" x1="10" x2="1292" y1="456.4375" y2="456.4375"/><text fill="#000000" font-family="sans-serif" font-size="11" font-weight="bold" lengthAdjust="spacing" textLength="170" x="15" y="467.8564">[user has sufficient privileges]</text><polygon fill="#181818" points="781.5,489.625,771.5,493.625,781.5,497.625,777.5,493.625" style="stroke:#181818;stroke-width:1.0;"/><line style="stroke:#181818;stroke-width:1.0;" x1="775.5" x2="1209.5" y1="493.625" y2="493.625"/><text fill="#000000" font-family="sans-serif" font-size="13" font-weight="bold" lengthAdjust="spacing" textLength="14" x="787.5" y="488.7686">12</text><text fill="#000000" font-family="sans-serif" font-size="13" lengthAdjust="spacing" textLength="112" x="805.5" y="488.7686">Sufficient Privileges</text><polygon fill="#181818" points="1501,526.9766,1511,530.9766,1501,534.9766,1505,530.9766" style="stroke:#181818;stroke-width:1.0;"/><line style="stroke:#181818;stroke-width:1.0;" x1="770.5" x2="1507" y1="530.9766" y2="530.9766"/><text fill="#000000" font-family="sans-serif" font-size="13" font-weight="bold" lengthAdjust="spacing" textLength="14" x="777.5" y="526.1201">13</text><text fill="#000000" font-family="sans-serif" font-size="13" lengthAdjust="spacing" textLength="43" x="795.5" y="526.1201">creates</text><polygon fill="#181818" points="1501,557.3281,1511,561.3281,1501,565.3281,1505,561.3281" style="stroke:#181818;stroke-width:1.0;"/><line style="stroke:#181818;stroke-width:1.0;" x1="770.5" x2="1507" y1="561.3281" y2="561.3281"/><text fill="#000000" font-family="sans-serif" font-size="13" font-weight="bold" lengthAdjust="spacing" textLength="14" x="777.5" y="556.4717">14</text><text fill="#000000" font-family="sans-serif" font-size="13" lengthAdjust="spacing" textLength="151" x="795.5" y="556.4717">withSharedBoardTitle(title)</text><polygon fill="#181818" points="1501,587.6797,1511,591.6797,1501,595.6797,1505,591.6797" style="stroke:#181818;stroke-width:1.0;"/><line style="stroke:#181818;stroke-width:1.0;" x1="770.5" x2="1507" y1="591.6797" y2="591.6797"/><text fill="#000000" font-family="sans-serif" font-size="13" font-weight="bold" lengthAdjust="spacing" textLength="14" x="777.5" y="586.8232">15</text><text fill="#000000" font-family="sans-serif" font-size="13" lengthAdjust="spacing" textLength="165" x="795.5" y="586.8232">withSharedBoardRows(rows)</text><polygon fill="#181818" points="1501,618.0313,1511,622.0313,1501,626.0313,1505,622.0313" style="stroke:#181818;stroke-width:1.0;"/><line style="stroke:#181818;stroke-width:1.0;" x1="770.5" x2="1507" y1="622.0313" y2="622.0313"/><text fill="#000000" font-family="sans-serif" font-size="13" font-weight="bold" lengthAdjust="spacing" textLength="14" x="777.5" y="617.1748">16</text><text fill="#000000" font-family="sans-serif" font-size="13" lengthAdjust="spacing" textLength="206" x="795.5" y="617.1748">withSharedBoardColumns(columns)</text><polygon fill="#181818" points="1501,648.3828,1511,652.3828,1501,656.3828,1505,652.3828" style="stroke:#181818;stroke-width:1.0;"/><line style="stroke:#181818;stroke-width:1.0;" x1="770.5" x2="1507" y1="652.3828" y2="652.3828"/><text fill="#000000" font-family="sans-serif" font-size="13" font-weight="bold" lengthAdjust="spacing" textLength="14" x="777.5" y="647.5264">17</text><text fill="#000000" font-family="sans-serif" font-size="13" lengthAdjust="spacing" textLength="369" x="795.5" y="647.5264">withSharedBoardUser(authz.session().get().authenticatedUser())</text><polygon fill="#181818" points="1501,678.7344,1511,682.7344,1501,686.7344,1505,682.7344" style="stroke:#181818;stroke-width:1.0;"/><line style="stroke:#181818;stroke-width:1.0;" x1="770.5" x2="1507" y1="682.7344" y2="682.7344"/><text fill="#000000" font-family="sans-serif" font-size="13" font-weight="bold" lengthAdjust="spacing" textLength="14" x="777.5" y="677.8779">18</text><text fill="#000000" font-family="sans-serif" font-size="13" lengthAdjust="spacing" textLength="35" x="795.5" y="677.8779">build()</text><polygon fill="#181818" points="1636,709.0859,1646,713.0859,1636,717.0859,1640,713.0859" style="stroke:#181818;stroke-width:1.0;"/><line style="stroke:#181818;stroke-width:1.0;" x1="1518" x2="1642" y1="713.0859" y2="713.0859"/><text fill="#000000" font-family="sans-serif" font-size="13" font-weight="bold" lengthAdjust="spacing" textLength="14" x="1525" y="708.2295">19</text><text fill="#000000" font-family="sans-serif" font-size="13" lengthAdjust="spacing" textLength="43" x="1543" y="708.2295">creates</text><polygon fill="#181818" points="1352.5,739.4375,1362.5,743.4375,1352.5,747.4375,1356.5,743.4375" style="stroke:#181818;stroke-width:1.0;"/><line style="stroke:#181818;stroke-width:1.0;" x1="770.5" x2="1358.5" y1="743.4375" y2="743.4375"/><text fill="#000000" font-family="sans-serif" font-size="13" font-weight="bold" lengthAdjust="spacing" textLength="14" x="777.5" y="738.5811">20</text><text fill="#000000" font-family="sans-serif" font-size="13" lengthAdjust="spacing" textLength="217" x="795.5" y="738.5811">createSharedBoard(newSharedBoard)</text><polygon fill="#181818" points="1774,769.7891,1784,773.7891,1774,777.7891,1778,773.7891" style="stroke:#181818;stroke-width:1.0;"/><line style="stroke:#181818;stroke-width:1.0;" x1="1364.5" x2="1780" y1="773.7891" y2="773.7891"/><text fill="#000000" font-family="sans-serif" font-size="13" font-weight="bold" lengthAdjust="spacing" textLength="14" x="1371.5" y="768.9326">21</text><text fill="#000000" font-family="sans-serif" font-size="13" lengthAdjust="spacing" textLength="75" x="1389.5" y="768.9326">repositories()</text><polygon fill="#181818" points="1774,800.1406,1784,804.1406,1774,808.1406,1778,804.1406" style="stroke:#181818;stroke-width:1.0;"/><line style="stroke:#181818;stroke-width:1.0;" x1="1364.5" x2="1780" y1="804.1406" y2="804.1406"/><text fill="#000000" font-family="sans-serif" font-size="13" font-weight="bold" lengthAdjust="spacing" textLength="14" x="1371.5" y="799.2842">22</text><text fill="#000000" font-family="sans-serif" font-size="13" lengthAdjust="spacing" textLength="132" x="1389.5" y="799.2842">save(newSharedBoard)</text><polygon fill="#181818" points="1375.5,830.4922,1365.5,834.4922,1375.5,838.4922,1371.5,834.4922" style="stroke:#181818;stroke-width:1.0;"/><line style="stroke:#181818;stroke-width:1.0;stroke-dasharray:2.0,2.0;" x1="1369.5" x2="1785" y1="834.4922" y2="834.4922"/><text fill="#000000" font-family="sans-serif" font-size="13" font-weight="bold" lengthAdjust="spacing" textLength="14" x="1381.5" y="829.6357">23</text><text fill="#000000" font-family="sans-serif" font-size="13" lengthAdjust="spacing" textLength="75" x="1399.5" y="829.6357">SharedBoard</text><polygon fill="#181818" points="781.5,860.8438,771.5,864.8438,781.5,868.8438,777.5,864.8438" style="stroke:#181818;stroke-width:1.0;"/><line style="stroke:#181818;stroke-width:1.0;stroke-dasharray:2.0,2.0;" x1="775.5" x2="1363.5" y1="864.8438" y2="864.8438"/><text fill="#000000" font-family="sans-serif" font-size="13" font-weight="bold" lengthAdjust="spacing" textLength="14" x="787.5" y="859.9873">24</text><text fill="#000000" font-family="sans-serif" font-size="13" lengthAdjust="spacing" textLength="75" x="805.5" y="859.9873">SharedBoard</text><polygon fill="#181818" points="315.5,891.1953,305.5,895.1953,315.5,899.1953,311.5,895.1953" style="stroke:#181818;stroke-width:1.0;"/><line style="stroke:#181818;stroke-width:1.0;stroke-dasharray:2.0,2.0;" x1="309.5" x2="759.5" y1="895.1953" y2="895.1953"/><text fill="#000000" font-family="sans-serif" font-size="13" font-weight="bold" lengthAdjust="spacing" textLength="14" x="321.5" y="890.3389">25</text><text fill="#000000" font-family="sans-serif" font-size="13" lengthAdjust="spacing" textLength="75" x="339.5" y="890.3389">SharedBoard</text><polygon fill="#181818" points="48.5,921.5469,38.5,925.5469,48.5,929.5469,44.5,925.5469" style="stroke:#181818;stroke-width:1.0;"/><line style="stroke:#181818;stroke-width:1.0;stroke-dasharray:2.0,2.0;" x1="42.5" x2="303.5" y1="925.5469" y2="925.5469"/><text fill="#000000" font-family="sans-serif" font-size="13" font-weight="bold" lengthAdjust="spacing" textLength="14" x="54.5" y="920.6904">26</text><text fill="#000000" font-family="sans-serif" font-size="13" lengthAdjust="spacing" textLength="210" x="72.5" y="920.6904">Informs the success of the operation</text><!--MD5=[c93b74b3834f4498a8bb37d92cbb8f75]
@startuml
'https://plantuml.com/sequence-diagram
autonumber

actor User as user

participant CreateSharedBoardUI as ui <<presentation>>
participant CreateSharedBoardController as ctrl <<application>>
participant AuthorizationService as authz <<service>>
participant SharedBoardService as service <<service>>
participant SharedBoardBuilder as builder <<domain>>
participant SharedBoard as domain <<domain>>

database SharedBoardRepository as repo <<persistence>>

user->ui: asks to create a Shared Board
ui- ->user: requests input data(title, rows, columns)
user->ui: Types requested data
activate ctrl
ui->ctrl: creates
ctrl->authz: authorizationService()
ctrl->service: create
deactivate ctrl

ui->ctrl: createSharedBoard(title, Integer.parseInt(rows), Integer.parseInt(columns))

activate ctrl
ctrl -> authz:ensureAuthenticatedUserHasAnyOf(ELearningUser, Student, Teacher)

alt user has insufficient privileges
    authz -> ctrl : Insufficient Privileges
    ctrl - -> ui : Insufficient Privileges
    ui - -> user : Insufficient Privileges
else user has sufficient privileges
    authz -> ctrl : Sufficient Privileges
end

activate builder
ctrl->builder: creates
ctrl->builder: withSharedBoardTitle(title)
ctrl->builder: withSharedBoardRows(rows)
ctrl->builder: withSharedBoardColumns(columns)
ctrl->builder:withSharedBoardUser(authz.session().get().authenticatedUser())
ctrl->builder: build()
builder->domain: creates
deactivate builder
ctrl->service: createSharedBoard(newSharedBoard)
service->repo: repositories()
service->repo: save(newSharedBoard)
repo- ->service: SharedBoard
service- ->ctrl:SharedBoard
ctrl- ->ui:SharedBoard
ui- ->user: Informs the success of the operation

@enduml

@startuml
autonumber

actor User as user

participant CreateSharedBoardUI as ui <<presentation>>
participant CreateSharedBoardController as ctrl <<application>>
participant AuthorizationService as authz <<service>>
participant SharedBoardService as service <<service>>
participant SharedBoardBuilder as builder <<domain>>
participant SharedBoard as domain <<domain>>

database SharedBoardRepository as repo <<persistence>>

user->ui: asks to create a Shared Board
ui- ->user: requests input data(title, rows, columns)
user->ui: Types requested data
activate ctrl
ui->ctrl: creates
ctrl->authz: authorizationService()
ctrl->service: create
deactivate ctrl

ui->ctrl: createSharedBoard(title, Integer.parseInt(rows), Integer.parseInt(columns))

activate ctrl
ctrl -> authz:ensureAuthenticatedUserHasAnyOf(ELearningUser, Student, Teacher)

alt user has insufficient privileges
    authz -> ctrl : Insufficient Privileges
    ctrl - -> ui : Insufficient Privileges
    ui - -> user : Insufficient Privileges
else user has sufficient privileges
    authz -> ctrl : Sufficient Privileges
end

activate builder
ctrl->builder: creates
ctrl->builder: withSharedBoardTitle(title)
ctrl->builder: withSharedBoardRows(rows)
ctrl->builder: withSharedBoardColumns(columns)
ctrl->builder:withSharedBoardUser(authz.session().get().authenticatedUser())
ctrl->builder: build()
builder->domain: creates
deactivate builder
ctrl->service: createSharedBoard(newSharedBoard)
service->repo: repositories()
service->repo: save(newSharedBoard)
repo- ->service: SharedBoard
service- ->ctrl:SharedBoard
ctrl- ->ui:SharedBoard
ui- ->user: Informs the success of the operation

@enduml

PlantUML version 1.2022.12(Sun Oct 23 19:12:26 BST 2022)
(GPL source distribution)
Java Runtime: OpenJDK Runtime Environment
JVM: OpenJDK 64-Bit Server VM
Default Encoding: Cp1252
Language: en
Country: US
--></g></svg>