<?xml version="1.0" encoding="us-ascii" standalone="no"?><svg xmlns="http://www.w3.org/2000/svg" xmlns:xlink="http://www.w3.org/1999/xlink" contentStyleType="text/css" height="227px" preserveAspectRatio="none" style="width:569px;height:227px;background:#FFFFFF;" version="1.1" viewBox="0 0 569 227" width="569px" zoomAndPan="magnify"><defs/><g><!--cluster <<agr SharedBoard>>--><g id="cluster_&lt;&lt;agr SharedBoard&gt;&gt;"><path d="M8.5,6 L144.5,6 A3.75,3.75 0 0 1 147,8.5 L154,27.6406 L559.5,27.6406 A2.5,2.5 0 0 1 562,30.1406 L562,217.5 A2.5,2.5 0 0 1 559.5,220 L8.5,220 A2.5,2.5 0 0 1 6,217.5 L6,8.5 A2.5,2.5 0 0 1 8.5,6 " fill="none" style="stroke:#000000;stroke-width:1.5;"/><line style="stroke:#000000;stroke-width:1.5;" x1="6" x2="154" y1="27.6406" y2="27.6406"/><text fill="#000000" font-family="sans-serif" font-size="14" font-weight="bold" lengthAdjust="spacing" textLength="135" x="10" y="20.6738">&#171;agr SharedBoard&#187;</text></g><!--class SharedBoard--><g id="elem_SharedBoard"><rect codeLine="7" fill="#F1F1F1" height="52.4531" id="SharedBoard" rx="2.5" ry="2.5" style="stroke:#181818;stroke-width:0.5;" width="90" x="274" y="40"/><text fill="#000000" font-family="sans-serif" font-size="12" font-style="italic" lengthAdjust="spacing" textLength="43" x="297.5" y="55.8633">&#171;entity&#187;</text><text fill="#000000" font-family="sans-serif" font-size="12" font-style="italic" lengthAdjust="spacing" textLength="35" x="301.5" y="69.2695">&#171;root&#187;</text><text fill="#000000" font-family="sans-serif" font-size="14" lengthAdjust="spacing" textLength="84" x="277" y="84.4863">SharedBoard</text></g><!--class SharedBoardTitle--><g id="elem_SharedBoardTitle"><rect codeLine="8" fill="#F1F1F1" height="39.0469" id="SharedBoardTitle" rx="2.5" ry="2.5" style="stroke:#181818;stroke-width:0.5;" width="117" x="22.5" y="158.5"/><text fill="#000000" font-family="sans-serif" font-size="12" font-style="italic" lengthAdjust="spacing" textLength="27" x="67.5" y="174.3633">&#171;vo&#187;</text><text fill="#000000" font-family="sans-serif" font-size="14" lengthAdjust="spacing" textLength="111" x="25.5" y="189.5801">SharedBoardTitle</text></g><!--class CreationTimestamp--><g id="elem_CreationTimestamp"><rect codeLine="9" fill="#F1F1F1" height="39.0469" id="CreationTimestamp" rx="2.5" ry="2.5" style="stroke:#181818;stroke-width:0.5;" width="129" x="174.5" y="158.5"/><text fill="#000000" font-family="sans-serif" font-size="12" font-style="italic" lengthAdjust="spacing" textLength="27" x="225.5" y="174.3633">&#171;vo&#187;</text><text fill="#000000" font-family="sans-serif" font-size="14" lengthAdjust="spacing" textLength="123" x="177.5" y="189.5801">CreationTimestamp</text></g><!--class SharedBoardState--><g id="elem_SharedBoardState"><rect codeLine="10" fill="#F1F1F1" height="52.4531" id="SharedBoardState" rx="2.5" ry="2.5" style="stroke:#181818;stroke-width:0.5;" width="123" x="338.5" y="152"/><text fill="#000000" font-family="sans-serif" font-size="12" font-style="italic" lengthAdjust="spacing" textLength="27" x="386.5" y="167.8633">&#171;vo&#187;</text><text fill="#000000" font-family="sans-serif" font-size="12" font-style="italic" lengthAdjust="spacing" textLength="46" x="377" y="181.2695">&#171;enum&#187;</text><text fill="#000000" font-family="sans-serif" font-size="14" lengthAdjust="spacing" textLength="117" x="341.5" y="196.4863">SharedBoardState</text></g><!--class History--><g id="elem_History"><rect codeLine="11" fill="#F1F1F1" height="52.4531" id="History" rx="2.5" ry="2.5" style="stroke:#181818;stroke-width:0.5;" width="49" x="496.5" y="152"/><text fill="#000000" font-family="sans-serif" font-size="12" font-style="italic" lengthAdjust="spacing" textLength="27" x="507.5" y="167.8633">&#171;vo&#187;</text><text fill="#000000" font-family="sans-serif" font-size="12" font-style="italic" lengthAdjust="spacing" textLength="43" x="499.5" y="181.2695">&#171;stack&#187;</text><text fill="#000000" font-family="sans-serif" font-size="14" lengthAdjust="spacing" textLength="43" x="499.5" y="196.4863">History</text></g><!--link SharedBoard to SharedBoardState--><g id="link_SharedBoard_SharedBoardState"><path codeLine="13" d="M337.58,92.24 C349.73,108.73 365.63,130.32 378.34,147.59 " fill="none" id="SharedBoard-to-SharedBoardState" style="stroke:#181818;stroke-width:1.0;"/><polygon fill="#181818" points="381.5,151.88,379.3989,142.2579,378.5413,147.8493,372.9499,146.9918,381.5,151.88" style="stroke:#181818;stroke-width:1.0;"/><text fill="#000000" font-family="sans-serif" font-size="13" lengthAdjust="spacing" textLength="7" x="368.8625" y="141.1706">1</text></g><!--link SharedBoard to SharedBoardTitle--><g id="link_SharedBoard_SharedBoardTitle"><path codeLine="14" d="M273.95,87.82 C231.44,107.47 168.05,136.77 125.66,156.36 " fill="none" id="SharedBoard-to-SharedBoardTitle" style="stroke:#181818;stroke-width:1.0;"/><polygon fill="#181818" points="121.11,158.46,130.9576,158.3026,125.646,156.3565,127.5921,151.045,121.11,158.46" style="stroke:#181818;stroke-width:1.0;"/><text fill="#000000" font-family="sans-serif" font-size="13" lengthAdjust="spacing" textLength="7" x="125.7794" y="147.8449">1</text></g><!--link SharedBoard to CreationTimestamp--><g id="link_SharedBoard_CreationTimestamp"><path codeLine="15" d="M300.65,92.24 C287.12,110.83 268.88,135.92 255.75,153.97 " fill="none" id="SharedBoard-to-CreationTimestamp" style="stroke:#181818;stroke-width:1.0;"/><polygon fill="#181818" points="252.53,158.4,261.0606,153.4776,255.4726,154.3576,254.5926,148.7696,252.53,158.4" style="stroke:#181818;stroke-width:1.0;"/><text fill="#000000" font-family="sans-serif" font-size="13" lengthAdjust="spacing" textLength="7" x="248.7271" y="147.7658">1</text></g><!--link SharedBoard to History--><g id="link_SharedBoard_History"><path codeLine="16" d="M364.14,90.24 C396.37,107.01 440.62,130.4 479,152 C483.13,154.32 487.45,156.82 491.69,159.31 " fill="none" id="SharedBoard-to-History" style="stroke:#181818;stroke-width:1.0;"/><polygon fill="#181818" points="496.24,161.99,490.5095,153.9799,491.93,159.4555,486.4543,160.876,496.24,161.99" style="stroke:#181818;stroke-width:1.0;"/><text fill="#000000" font-family="sans-serif" font-size="13" lengthAdjust="spacing" textLength="7" x="481.6451" y="153.5841">1</text></g><!--SRC=[ZS-z3eCW4C3ndQSWxWxT2KExTBSlS8MhNWGnS6rYZEzUDJOnVYHbWl3B7wuYYz9GD0wJgAR3Yz3PPO- -vKvwz4-CIOWMJ0qboamfAACiAeXehm6YrJhhXHoNSP3I-aOfR9Yuqrgf609htG_7ya7iKAbFs91RH60ApOCy9WRV7fXLfc3W9JEz_VORUgV48NO_CHPDFPFPh48opxNCBjak_W-SXpc5kv5EvV9RCOWl]--></g></svg>