<?xml version="1.0" encoding="UTF-8" standalone="no"?><svg xmlns="http://www.w3.org/2000/svg" xmlns:xlink="http://www.w3.org/1999/xlink" contentStyleType="text/css" height="398px" preserveAspectRatio="none" style="width:908px;height:398px;background:#FFFFFF;" version="1.1" viewBox="0 0 908 398" width="908px" zoomAndPan="magnify"><defs/><g><!--cluster <<agr MeetingParticipation>>--><g id="cluster_&lt;&lt;agr MeetingParticipation&gt;&gt;"><path d="M587.5,169.0137 L777.5,169.0137 A3.75,3.75 0 0 1 780,171.5137 L787,193.6348 L898.5,193.6348 A2.5,2.5 0 0 1 901,196.1348 L901,388.5137 A2.5,2.5 0 0 1 898.5,391.0137 L587.5,391.0137 A2.5,2.5 0 0 1 585,388.5137 L585,171.5137 A2.5,2.5 0 0 1 587.5,169.0137 " fill="none" style="stroke:#000000;stroke-width:1.5;"/><line style="stroke:#000000;stroke-width:1.5;" x1="585" x2="787" y1="193.6348" y2="193.6348"/><text fill="#000000" font-family="sans-serif" font-size="14" font-weight="bold" lengthAdjust="spacing" textLength="189" x="589" y="186.1211">«agr MeetingParticipation»</text></g><!--cluster <<agr Meeting>>--><g id="cluster_&lt;&lt;agr Meeting&gt;&gt;"><path d="M8.5,6.0137 L110.5,6.0137 A3.75,3.75 0 0 1 113,8.5137 L120,30.6348 L558.5,30.6348 A2.5,2.5 0 0 1 561,33.1348 L561,280.5137 A2.5,2.5 0 0 1 558.5,283.0137 L8.5,283.0137 A2.5,2.5 0 0 1 6,280.5137 L6,8.5137 A2.5,2.5 0 0 1 8.5,6.0137 " fill="none" style="stroke:#000000;stroke-width:1.5;"/><line style="stroke:#000000;stroke-width:1.5;" x1="6" x2="120" y1="30.6348" y2="30.6348"/><text fill="#000000" font-family="sans-serif" font-size="14" font-weight="bold" lengthAdjust="spacing" textLength="101" x="10" y="23.1211">«agr Meeting»</text></g><!--class MeetingParticipation--><g id="elem_MeetingParticipation"><rect codeLine="7" fill="#F1F1F1" height="60.543" id="MeetingParticipation" rx="2.5" ry="2.5" style="stroke:#181818;stroke-width:0.5;" width="134" x="618" y="206.0137"/><text fill="#000000" font-family="sans-serif" font-size="12" font-style="italic" lengthAdjust="spacing" textLength="43" x="663.5" y="223.9629">«entity»</text><text fill="#000000" font-family="sans-serif" font-size="12" font-style="italic" lengthAdjust="spacing" textLength="35" x="667.5" y="239.9238">«root»</text><text fill="#000000" font-family="sans-serif" font-size="14" lengthAdjust="spacing" textLength="128" x="621" y="258.043">MeetingParticipation</text></g><!--class MeetingParticipationState--><g id="elem_MeetingParticipationState"><rect codeLine="8" fill="#F1F1F1" height="44.582" id="MeetingParticipationState" rx="2.5" ry="2.5" style="stroke:#181818;stroke-width:0.5;" width="167" x="601.5" y="330.0137"/><text fill="#000000" font-family="sans-serif" font-size="12" font-style="italic" lengthAdjust="spacing" textLength="27" x="671.5" y="347.9629">«vo»</text><text fill="#000000" font-family="sans-serif" font-size="14" lengthAdjust="spacing" textLength="161" x="604.5" y="366.082">MeetingParticipationState</text></g><!--class SystemUser--><g id="elem_SystemUser"><rect fill="#F1F1F1" height="28.6211" id="SystemUser" rx="2.5" ry="2.5" style="stroke:#181818;stroke-width:0.5;" width="81" x="803.5" y="338.0137"/><text fill="#000000" font-family="sans-serif" font-size="14" lengthAdjust="spacing" textLength="75" x="806.5" y="358.1211">SystemUser</text></g><!--class Meeting--><g id="elem_Meeting"><rect codeLine="15" fill="#F1F1F1" height="60.543" id="Meeting" rx="2.5" ry="2.5" style="stroke:#181818;stroke-width:0.5;" width="56" x="346" y="43.0137"/><text fill="#000000" font-family="sans-serif" font-size="12" font-style="italic" lengthAdjust="spacing" textLength="43" x="352.5" y="60.9629">«entity»</text><text fill="#000000" font-family="sans-serif" font-size="12" font-style="italic" lengthAdjust="spacing" textLength="35" x="356.5" y="76.9238">«root»</text><text fill="#000000" font-family="sans-serif" font-size="14" lengthAdjust="spacing" textLength="50" x="349" y="95.043">Meeting</text></g><!--class MeetingDuration--><g id="elem_MeetingDuration"><rect codeLine="16" fill="#F1F1F1" height="44.582" id="MeetingDuration" rx="2.5" ry="2.5" style="stroke:#181818;stroke-width:0.5;" width="110" x="22" y="214.0137"/><text fill="#000000" font-family="sans-serif" font-size="12" font-style="italic" lengthAdjust="spacing" textLength="27" x="63.5" y="231.9629">«vo»</text><text fill="#000000" font-family="sans-serif" font-size="14" lengthAdjust="spacing" textLength="104" x="25" y="250.082">MeetingDuration</text></g><!--class MeetingDateNTime--><g id="elem_MeetingDateNTime"><rect codeLine="17" fill="#F1F1F1" height="44.582" id="MeetingDateNTime" rx="2.5" ry="2.5" style="stroke:#181818;stroke-width:0.5;" width="126" x="167" y="214.0137"/><text fill="#000000" font-family="sans-serif" font-size="12" font-style="italic" lengthAdjust="spacing" textLength="27" x="216.5" y="231.9629">«vo»</text><text fill="#000000" font-family="sans-serif" font-size="14" lengthAdjust="spacing" textLength="120" x="170" y="250.082">MeetingDateNTime</text></g><!--class MeetingName--><g id="elem_MeetingName"><rect codeLine="18" fill="#F1F1F1" height="44.582" id="MeetingName" rx="2.5" ry="2.5" style="stroke:#181818;stroke-width:0.5;" width="92" x="328" y="214.0137"/><text fill="#000000" font-family="sans-serif" font-size="12" font-style="italic" lengthAdjust="spacing" textLength="27" x="360.5" y="231.9629">«vo»</text><text fill="#000000" font-family="sans-serif" font-size="14" lengthAdjust="spacing" textLength="86" x="331" y="250.082">MeetingName</text></g><!--class MeetingState--><g id="elem_MeetingState"><rect codeLine="19" fill="#F1F1F1" height="60.543" id="MeetingState" rx="2.5" ry="2.5" style="stroke:#181818;stroke-width:0.5;" width="89" x="455.5" y="206.0137"/><text fill="#000000" font-family="sans-serif" font-size="12" font-style="italic" lengthAdjust="spacing" textLength="27" x="486.5" y="223.9629">«vo»</text><text fill="#000000" font-family="sans-serif" font-size="12" font-style="italic" lengthAdjust="spacing" textLength="46" x="477" y="239.9238">«enum»</text><text fill="#000000" font-family="sans-serif" font-size="14" lengthAdjust="spacing" textLength="83" x="458.5" y="258.043">MeetingState</text></g><!--link MeetingParticipation to SystemUser--><g id="link_MeetingParticipation_SystemUser"><path codeLine="10" d="M726.36,267.1637 C756.46,288.7437 796.11,317.1737 820.83,334.8937 " fill="none" id="MeetingParticipation-to-SystemUser" style="stroke:#181818;stroke-width:1.0;"/><polygon fill="#181818" points="824.96,337.8637,819.9698,329.3726,820.8942,334.9534,815.3134,335.8779,824.96,337.8637" style="stroke:#181818;stroke-width:1.0;"/><text fill="#000000" font-family="sans-serif" font-size="13" lengthAdjust="spacing" textLength="5" x="812.2864" y="326.7641">*</text></g><!--link MeetingParticipation to MeetingParticipationState--><g id="link_MeetingParticipation_MeetingParticipationState"><path codeLine="11" d="M685,267.1637 C685,284.9837 685,307.4737 685,324.7437 " fill="none" id="MeetingParticipation-to-MeetingParticipationState" style="stroke:#181818;stroke-width:1.0;"/><polygon fill="#181818" points="685,329.9337,689,320.9337,685,324.9337,681,320.9337,685,329.9337" style="stroke:#181818;stroke-width:1.0;"/><text fill="#000000" font-family="sans-serif" font-size="13" lengthAdjust="spacing" textLength="7" x="677.0594" y="318.7045">1</text></g><!--reverse link Meeting to MeetingParticipation--><g id="link_Meeting_MeetingParticipation"><path codeLine="21" d="M406.95,88.4737 C444.72,104.7637 508.21,133.0537 561,161.0137 C587.19,174.8837 615.58,191.7937 638.58,206.0037 " fill="none" id="Meeting-backto-MeetingParticipation" style="stroke:#181818;stroke-width:1.0;"/><polygon fill="#181818" points="402.02,86.3437,408.7166,93.5655,406.6157,88.3133,411.868,86.2124,402.02,86.3437" style="stroke:#181818;stroke-width:1.0;"/><text fill="#000000" font-family="sans-serif" font-size="13" lengthAdjust="spacing" textLength="43" x="542" y="149.042">regards</text><text fill="#000000" font-family="sans-serif" font-size="13" lengthAdjust="spacing" textLength="5" x="409.8407" y="84.5774">*</text></g><!--link Meeting to MeetingDuration--><g id="link_Meeting_MeetingDuration"><path codeLine="22" d="M345.65,81.2737 C301.28,92.7537 213.9,118.9637 150,161.0137 C129.78,174.3237 110.77,194.0437 97.22,209.8537 " fill="none" id="Meeting-to-MeetingDuration" style="stroke:#181818;stroke-width:1.0;"/><polygon fill="#181818" points="93.9,213.7837,102.7598,209.4821,97.1233,209.9613,96.6441,204.3248,93.9,213.7837" style="stroke:#181818;stroke-width:1.0;"/><text fill="#000000" font-family="sans-serif" font-size="13" lengthAdjust="spacing" textLength="7" x="90.3338" y="202.9001">1</text></g><!--link Meeting to MeetingDateNTime--><g id="link_Meeting_MeetingDateNTime"><path codeLine="23" d="M347.59,104.0437 C320.39,134.4537 278.45,181.3437 252.7,210.1337 " fill="none" id="Meeting-to-MeetingDateNTime" style="stroke:#181818;stroke-width:1.0;"/><polygon fill="#181818" points="249.33,213.9037,258.3162,209.8727,252.6677,210.1808,252.3596,204.5324,249.33,213.9037" style="stroke:#181818;stroke-width:1.0;"/><text fill="#000000" font-family="sans-serif" font-size="13" lengthAdjust="spacing" textLength="7" x="246.5843" y="202.6664">1</text></g><!--link Meeting to MeetingName--><g id="link_Meeting_MeetingName"><path codeLine="24" d="M374,104.0437 C374,133.9537 374,179.8137 374,208.7137 " fill="none" id="Meeting-to-MeetingName" style="stroke:#181818;stroke-width:1.0;"/><polygon fill="#181818" points="374,213.9037,378,204.9037,374,208.9037,370,204.9037,374,213.9037" style="stroke:#181818;stroke-width:1.0;"/><text fill="#000000" font-family="sans-serif" font-size="13" lengthAdjust="spacing" textLength="7" x="366.0594" y="202.6664">1</text></g><!--link Meeting to MeetingState--><g id="link_Meeting_MeetingState"><path codeLine="25" d="M397.11,104.0437 C418.71,131.6437 450.94,172.8237 473.56,201.7237 " fill="none" id="Meeting-to-MeetingState" style="stroke:#181818;stroke-width:1.0;"/><polygon fill="#181818" points="476.82,205.9037,474.4232,196.3509,473.7385,201.9661,468.1232,201.2814,476.82,205.9037" style="stroke:#181818;stroke-width:1.0;"/><text fill="#000000" font-family="sans-serif" font-size="13" lengthAdjust="spacing" textLength="7" x="464.3173" y="194.9427">1</text></g><!--SRC=[ZP712i8m38RlVOhIex23LmazULK4zG5Y3LlGhP9cWeZlxZOSY6xJtaA-a7v_2ZwI3IpXJCaKRO6gmeTQ-xeaBU8n6NF1SCASh0F0NEoAIBdADoZAWI-e72lltTtOveKpfZI8052bh3Vl0IH6zVx- -36oLLG2kCQExU0Xp6QPjsxcxFQMbCfz8ld1pjtuFlCOCnwM_CzhMSihXPVDDz7iNk-uf75aZLFTjxJQFzNbLsfTI91bmyaih52EqbpyVUGZhzvZakbDfg3MPQhVt-89]--></g></svg>