<?xml version="1.0" encoding="us-ascii" standalone="no"?><svg xmlns="http://www.w3.org/2000/svg" xmlns:xlink="http://www.w3.org/1999/xlink" contentStyleType="text/css" height="1215px" preserveAspectRatio="none" style="width:2403px;height:1215px;background:#FFFFFF;" version="1.1" viewBox="0 0 2403 1215" width="2403px" zoomAndPan="magnify"><defs/><g><rect fill="#FFFFFF" height="1009.3203" style="stroke:#181818;stroke-width:1.0;" width="10" x="34" y="93.5938"/><rect fill="#FFFFFF" height="151.6641" style="stroke:#181818;stroke-width:1.0;" width="10" x="351" y="114.7266"/><rect fill="#FFFFFF" height="29.1328" style="stroke:#181818;stroke-width:1.0;" width="10" x="351" y="295.5234"/><rect fill="#FFFFFF" height="322.4609" style="stroke:#181818;stroke-width:1.0;" width="10" x="351" y="377.9219"/><rect fill="#FFFFFF" height="358.5938" style="stroke:#181818;stroke-width:1.0;" width="10" x="351" y="744.3203"/><rect fill="#FFFFFF" height="90.3984" style="stroke:#181818;stroke-width:1.0;" width="10" x="1025" y="146.8594"/><rect fill="#FFFFFF" height="293.3281" style="stroke:#181818;stroke-width:1.0;" width="10" x="1264" y="407.0547"/><rect fill="#FFFFFF" height="338.4609" style="stroke:#181818;stroke-width:1.0;" width="10" x="1269" y="773.4531"/><rect fill="#FFFFFF" height="293.3281" style="stroke:#181818;stroke-width:1.0;" width="10" x="1269" y="773.4531"/><rect fill="#FFFFFF" height="87.3984" style="stroke:#181818;stroke-width:1.0;" width="10" x="1551" y="436.1875"/><rect fill="#FFFFFF" height="87.3984" style="stroke:#181818;stroke-width:1.0;" width="10" x="1551" y="802.5859"/><rect fill="#FFFFFF" height="29.1328" style="stroke:#181818;stroke-width:1.0;" width="10" x="2087" y="178.9922"/><rect fill="#FFFFFF" height="29.1328" style="stroke:#181818;stroke-width:1.0;" width="10" x="2087" y="465.3203"/><rect fill="#FFFFFF" height="29.1328" style="stroke:#181818;stroke-width:1.0;" width="10" x="2087" y="642.1172"/><rect fill="#FFFFFF" height="29.1328" style="stroke:#181818;stroke-width:1.0;" width="10" x="2087" y="831.7188"/><rect fill="#FFFFFF" height="29.1328" style="stroke:#181818;stroke-width:1.0;" width="10" x="2087" y="1008.5156"/><rect fill="#FFFFFF" height="53.2656" style="stroke:#181818;stroke-width:1.0;" width="10" x="2291" y="552.7188"/><rect fill="#FFFFFF" height="53.2656" style="stroke:#181818;stroke-width:1.0;" width="10" x="2291" y="919.1172"/><rect fill="none" height="735.125" style="stroke:#000000;stroke-width:1.5;" width="2386" x="10" y="339.6563"/><rect fill="none" height="46.2656" style="stroke:#000000;stroke-width:1.5;" width="1257" x="1129" y="567.7188"/><rect fill="none" height="46.2656" style="stroke:#000000;stroke-width:1.5;" width="1257" x="1129" y="934.1172"/><line style="stroke:#181818;stroke-width:0.5;stroke-dasharray:5.0,5.0;" x1="39" x2="39" y1="83.5938" y2="1120.9141"/><line style="stroke:#181818;stroke-width:0.5;stroke-dasharray:5.0,5.0;" x1="355.5" x2="355.5" y1="83.5938" y2="1120.9141"/><line style="stroke:#181818;stroke-width:0.5;stroke-dasharray:5.0,5.0;" x1="1030" x2="1030" y1="83.5938" y2="1120.9141"/><line style="stroke:#181818;stroke-width:0.5;stroke-dasharray:5.0,5.0;" x1="1269" x2="1269" y1="83.5938" y2="1120.9141"/><line style="stroke:#181818;stroke-width:0.5;stroke-dasharray:5.0,5.0;" x1="1556" x2="1556" y1="83.5938" y2="1120.9141"/><line style="stroke:#181818;stroke-width:0.5;stroke-dasharray:5.0,5.0;" x1="1840" x2="1840" y1="83.5938" y2="1120.9141"/><line style="stroke:#181818;stroke-width:0.5;stroke-dasharray:5.0,5.0;" x1="2092" x2="2092" y1="83.5938" y2="1120.9141"/><line style="stroke:#181818;stroke-width:0.5;stroke-dasharray:5.0,5.0;" x1="2296" x2="2296" y1="83.5938" y2="1120.9141"/><text fill="#000000" font-family="sans-serif" font-size="14" lengthAdjust="spacing" textLength="32" x="20" y="80.292">User</text><ellipse cx="39" cy="15.7969" fill="#E2E2F0" rx="8" ry="8" style="stroke:#181818;stroke-width:0.5;"/><path d="M39,23.7969 L39,50.7969 M26,31.7969 L52,31.7969 M39,50.7969 L26,65.7969 M39,50.7969 L52,65.7969 " fill="none" style="stroke:#181818;stroke-width:0.5;"/><text fill="#000000" font-family="sans-serif" font-size="14" lengthAdjust="spacing" textLength="32" x="20" y="1132.9092">User</text><ellipse cx="39" cy="1144.7109" fill="#E2E2F0" rx="8" ry="8" style="stroke:#181818;stroke-width:0.5;"/><path d="M39,1152.7109 L39,1179.7109 M26,1160.7109 L52,1160.7109 M39,1179.7109 L26,1194.7109 M39,1179.7109 L52,1194.7109 " fill="none" style="stroke:#181818;stroke-width:0.5;"/><rect fill="#E2E2F0" height="46.5938" rx="2.5" ry="2.5" style="stroke:#181818;stroke-width:0.5;" width="203" x="254.5" y="36"/><text fill="#000000" font-family="sans-serif" font-size="14" font-style="italic" lengthAdjust="spacing" textLength="108" x="302" y="55.9951">&#171;presentation&#187;</text><text fill="#000000" font-family="sans-serif" font-size="14" lengthAdjust="spacing" textLength="189" x="261.5" y="72.292">AnswerMeetingInvitationUI</text><rect fill="#E2E2F0" height="46.5938" rx="2.5" ry="2.5" style="stroke:#181818;stroke-width:0.5;" width="203" x="254.5" y="1119.9141"/><text fill="#000000" font-family="sans-serif" font-size="14" font-style="italic" lengthAdjust="spacing" textLength="108" x="302" y="1139.9092">&#171;presentation&#187;</text><text fill="#000000" font-family="sans-serif" font-size="14" lengthAdjust="spacing" textLength="189" x="261.5" y="1156.2061">AnswerMeetingInvitationUI</text><rect fill="#E2E2F0" height="46.5938" rx="2.5" ry="2.5" style="stroke:#181818;stroke-width:0.5;" width="198" x="931" y="36"/><text fill="#000000" font-family="sans-serif" font-size="14" font-style="italic" lengthAdjust="spacing" textLength="97" x="981.5" y="55.9951">&#171;application&#187;</text><text fill="#000000" font-family="sans-serif" font-size="14" lengthAdjust="spacing" textLength="184" x="938" y="72.292">ListMeetingByUserService</text><rect fill="#E2E2F0" height="46.5938" rx="2.5" ry="2.5" style="stroke:#181818;stroke-width:0.5;" width="198" x="931" y="1119.9141"/><text fill="#000000" font-family="sans-serif" font-size="14" font-style="italic" lengthAdjust="spacing" textLength="97" x="981.5" y="1139.9092">&#171;application&#187;</text><text fill="#000000" font-family="sans-serif" font-size="14" lengthAdjust="spacing" textLength="184" x="938" y="1156.2061">ListMeetingByUserService</text><rect fill="#E2E2F0" height="46.5938" rx="2.5" ry="2.5" style="stroke:#181818;stroke-width:0.5;" width="260" x="1139" y="36"/><text fill="#000000" font-family="sans-serif" font-size="14" font-style="italic" lengthAdjust="spacing" textLength="97" x="1220.5" y="55.9951">&#171;application&#187;</text><text fill="#000000" font-family="sans-serif" font-size="14" lengthAdjust="spacing" textLength="246" x="1146" y="72.292">AnswerMeetingInvitationController</text><rect fill="#E2E2F0" height="46.5938" rx="2.5" ry="2.5" style="stroke:#181818;stroke-width:0.5;" width="260" x="1139" y="1119.9141"/><text fill="#000000" font-family="sans-serif" font-size="14" font-style="italic" lengthAdjust="spacing" textLength="97" x="1220.5" y="1139.9092">&#171;application&#187;</text><text fill="#000000" font-family="sans-serif" font-size="14" lengthAdjust="spacing" textLength="246" x="1146" y="1156.2061">AnswerMeetingInvitationController</text><rect fill="#E2E2F0" height="46.5938" rx="2.5" ry="2.5" style="stroke:#181818;stroke-width:0.5;" width="294" x="1409" y="36"/><text fill="#000000" font-family="sans-serif" font-size="14" font-style="italic" lengthAdjust="spacing" textLength="97" x="1507.5" y="55.9951">&#171;application&#187;</text><text fill="#000000" font-family="sans-serif" font-size="14" lengthAdjust="spacing" textLength="280" x="1416" y="72.292">FindMeetingParticipationByIDController</text><rect fill="#E2E2F0" height="46.5938" rx="2.5" ry="2.5" style="stroke:#181818;stroke-width:0.5;" width="294" x="1409" y="1119.9141"/><text fill="#000000" font-family="sans-serif" font-size="14" font-style="italic" lengthAdjust="spacing" textLength="97" x="1507.5" y="1139.9092">&#171;application&#187;</text><text fill="#000000" font-family="sans-serif" font-size="14" lengthAdjust="spacing" textLength="280" x="1416" y="1156.2061">FindMeetingParticipationByIDController</text><rect fill="#E2E2F0" height="46.5938" rx="2.5" ry="2.5" style="stroke:#181818;stroke-width:0.5;" width="255" x="1713" y="36"/><text fill="#000000" font-family="sans-serif" font-size="14" font-style="italic" lengthAdjust="spacing" textLength="69" x="1806" y="55.9951">&#171;service&#187;</text><text fill="#000000" font-family="sans-serif" font-size="14" lengthAdjust="spacing" textLength="241" x="1720" y="72.292">SetCourseEnrollmentStateService</text><rect fill="#E2E2F0" height="46.5938" rx="2.5" ry="2.5" style="stroke:#181818;stroke-width:0.5;" width="255" x="1713" y="1119.9141"/><text fill="#000000" font-family="sans-serif" font-size="14" font-style="italic" lengthAdjust="spacing" textLength="69" x="1806" y="1139.9092">&#171;service&#187;</text><text fill="#000000" font-family="sans-serif" font-size="14" lengthAdjust="spacing" textLength="241" x="1720" y="1156.2061">SetCourseEnrollmentStateService</text><text fill="#000000" font-family="sans-serif" font-size="14" font-style="italic" lengthAdjust="spacing" textLength="100" x="2039" y="63.9951">&#171;persistence&#187;</text><text fill="#000000" font-family="sans-serif" font-size="14" lengthAdjust="spacing" textLength="222" x="1978" y="80.292">MeetingParticipationRepository</text><path d="M2074,15 C2074,5 2092,5 2092,5 C2092,5 2110,5 2110,15 L2110,41 C2110,51 2092,51 2092,51 C2092,51 2074,51 2074,41 L2074,15 " fill="#E2E2F0" style="stroke:#181818;stroke-width:1.5;"/><path d="M2074,15 C2074,25 2092,25 2092,25 C2092,25 2110,25 2110,15 " fill="none" style="stroke:#181818;stroke-width:1.5;"/><text fill="#000000" font-family="sans-serif" font-size="14" font-style="italic" lengthAdjust="spacing" textLength="100" x="2039" y="1132.9092">&#171;persistence&#187;</text><text fill="#000000" font-family="sans-serif" font-size="14" lengthAdjust="spacing" textLength="222" x="1978" y="1149.2061">MeetingParticipationRepository</text><path d="M2074,1162.5078 C2074,1152.5078 2092,1152.5078 2092,1152.5078 C2092,1152.5078 2110,1152.5078 2110,1162.5078 L2110,1188.5078 C2110,1198.5078 2092,1198.5078 2092,1198.5078 C2092,1198.5078 2074,1198.5078 2074,1188.5078 L2074,1162.5078 " fill="#E2E2F0" style="stroke:#181818;stroke-width:1.5;"/><path d="M2074,1162.5078 C2074,1172.5078 2092,1172.5078 2092,1172.5078 C2092,1172.5078 2110,1172.5078 2110,1162.5078 " fill="none" style="stroke:#181818;stroke-width:1.5;"/><rect fill="#E2E2F0" height="46.5938" rx="2.5" ry="2.5" style="stroke:#181818;stroke-width:0.5;" width="160" x="2216" y="36"/><text fill="#000000" font-family="sans-serif" font-size="14" font-style="italic" lengthAdjust="spacing" textLength="72" x="2260" y="55.9951">&#171;domain&#187;</text><text fill="#000000" font-family="sans-serif" font-size="14" lengthAdjust="spacing" textLength="146" x="2223" y="72.292">MeetingParticipation</text><rect fill="#E2E2F0" height="46.5938" rx="2.5" ry="2.5" style="stroke:#181818;stroke-width:0.5;" width="160" x="2216" y="1119.9141"/><text fill="#000000" font-family="sans-serif" font-size="14" font-style="italic" lengthAdjust="spacing" textLength="72" x="2260" y="1139.9092">&#171;domain&#187;</text><text fill="#000000" font-family="sans-serif" font-size="14" lengthAdjust="spacing" textLength="146" x="2223" y="1156.2061">MeetingParticipation</text><rect fill="#FFFFFF" height="1009.3203" style="stroke:#181818;stroke-width:1.0;" width="10" x="34" y="93.5938"/><rect fill="#FFFFFF" height="151.6641" style="stroke:#181818;stroke-width:1.0;" width="10" x="351" y="114.7266"/><rect fill="#FFFFFF" height="29.1328" style="stroke:#181818;stroke-width:1.0;" width="10" x="351" y="295.5234"/><rect fill="#FFFFFF" height="322.4609" style="stroke:#181818;stroke-width:1.0;" width="10" x="351" y="377.9219"/><rect fill="#FFFFFF" height="358.5938" style="stroke:#181818;stroke-width:1.0;" width="10" x="351" y="744.3203"/><rect fill="#FFFFFF" height="90.3984" style="stroke:#181818;stroke-width:1.0;" width="10" x="1025" y="146.8594"/><rect fill="#FFFFFF" height="293.3281" style="stroke:#181818;stroke-width:1.0;" width="10" x="1264" y="407.0547"/><rect fill="#FFFFFF" height="338.4609" style="stroke:#181818;stroke-width:1.0;" width="10" x="1269" y="773.4531"/><rect fill="#FFFFFF" height="293.3281" style="stroke:#181818;stroke-width:1.0;" width="10" x="1269" y="773.4531"/><rect fill="#FFFFFF" height="87.3984" style="stroke:#181818;stroke-width:1.0;" width="10" x="1551" y="436.1875"/><rect fill="#FFFFFF" height="87.3984" style="stroke:#181818;stroke-width:1.0;" width="10" x="1551" y="802.5859"/><rect fill="#FFFFFF" height="29.1328" style="stroke:#181818;stroke-width:1.0;" width="10" x="2087" y="178.9922"/><rect fill="#FFFFFF" height="29.1328" style="stroke:#181818;stroke-width:1.0;" width="10" x="2087" y="465.3203"/><rect fill="#FFFFFF" height="29.1328" style="stroke:#181818;stroke-width:1.0;" width="10" x="2087" y="642.1172"/><rect fill="#FFFFFF" height="29.1328" style="stroke:#181818;stroke-width:1.0;" width="10" x="2087" y="831.7188"/><rect fill="#FFFFFF" height="29.1328" style="stroke:#181818;stroke-width:1.0;" width="10" x="2087" y="1008.5156"/><rect fill="#FFFFFF" height="53.2656" style="stroke:#181818;stroke-width:1.0;" width="10" x="2291" y="552.7188"/><rect fill="#FFFFFF" height="53.2656" style="stroke:#181818;stroke-width:1.0;" width="10" x="2291" y="919.1172"/><polygon fill="#181818" points="339,110.7266,349,114.7266,339,118.7266,343,114.7266" style="stroke:#181818;stroke-width:1.0;"/><line style="stroke:#181818;stroke-width:1.0;" x1="44" x2="345" y1="114.7266" y2="114.7266"/><text fill="#000000" font-family="sans-serif" font-size="13" font-weight="bold" lengthAdjust="spacing" textLength="9" x="51" y="109.6606">1</text><text fill="#000000" font-family="sans-serif" font-size="13" lengthAdjust="spacing" textLength="275" x="64" y="109.6606">asks to accept/refuse a meeting invitation</text><polygon fill="#181818" points="1013,142.8594,1023,146.8594,1013,150.8594,1017,146.8594" style="stroke:#181818;stroke-width:1.0;"/><line style="stroke:#181818;stroke-width:1.0;" x1="361" x2="1019" y1="146.8594" y2="146.8594"/><text fill="#000000" font-family="sans-serif" font-size="13" font-weight="bold" lengthAdjust="spacing" textLength="9" x="368" y="141.7935">2</text><text fill="#000000" font-family="sans-serif" font-size="13" lengthAdjust="spacing" textLength="632" x="381" y="141.7935">List&lt;MeetingParticipationDTO&gt; unansweredMeetingsByUser = listUnansweredMeetingsByUser()</text><path d="M1040,127.7266 L1040,152.7266 L1297,152.7266 L1297,137.7266 L1287,127.7266 L1040,127.7266 " fill="#FEFFDD" style="stroke:#181818;stroke-width:0.5;"/><path d="M1287,127.7266 L1287,137.7266 L1297,137.7266 L1287,127.7266 " fill="#FEFFDD" style="stroke:#181818;stroke-width:0.5;"/><text fill="#000000" font-family="sans-serif" font-size="13" lengthAdjust="spacing" textLength="236" x="1046" y="144.7935">the user is obtained through session</text><polygon fill="#181818" points="2075,174.9922,2085,178.9922,2075,182.9922,2079,178.9922" style="stroke:#181818;stroke-width:1.0;"/><line style="stroke:#181818;stroke-width:1.0;" x1="1035" x2="2081" y1="178.9922" y2="178.9922"/><text fill="#000000" font-family="sans-serif" font-size="13" font-weight="bold" lengthAdjust="spacing" textLength="9" x="1042" y="173.9263">3</text><text fill="#000000" font-family="sans-serif" font-size="13" lengthAdjust="spacing" textLength="632" x="1055" y="173.9263">List&lt;MeetingParticipation&gt; unansweredMeetingsByUser = listUnansweredMeetingsByUser(user)</text><polygon fill="#181818" points="1046,204.125,1036,208.125,1046,212.125,1042,208.125" style="stroke:#181818;stroke-width:1.0;"/><line style="stroke:#181818;stroke-width:1.0;stroke-dasharray:2.0,2.0;" x1="1040" x2="2091" y1="208.125" y2="208.125"/><text fill="#000000" font-family="sans-serif" font-size="13" font-weight="bold" lengthAdjust="spacing" textLength="9" x="1052" y="203.0591">4</text><text fill="#000000" font-family="sans-serif" font-size="13" lengthAdjust="spacing" textLength="4" x="1065" y="203.0591">&#160;</text><polygon fill="#181818" points="372,233.2578,362,237.2578,372,241.2578,368,237.2578" style="stroke:#181818;stroke-width:1.0;"/><line style="stroke:#181818;stroke-width:1.0;stroke-dasharray:2.0,2.0;" x1="366" x2="1029" y1="237.2578" y2="237.2578"/><text fill="#000000" font-family="sans-serif" font-size="13" font-weight="bold" lengthAdjust="spacing" textLength="9" x="378" y="232.1919">5</text><text fill="#000000" font-family="sans-serif" font-size="13" lengthAdjust="spacing" textLength="4" x="391" y="232.1919">&#160;</text><polygon fill="#181818" points="55,262.3906,45,266.3906,55,270.3906,51,266.3906" style="stroke:#181818;stroke-width:1.0;"/><line style="stroke:#181818;stroke-width:1.0;stroke-dasharray:2.0,2.0;" x1="49" x2="355" y1="266.3906" y2="266.3906"/><text fill="#000000" font-family="sans-serif" font-size="13" font-weight="bold" lengthAdjust="spacing" textLength="9" x="61" y="261.3247">6</text><text fill="#000000" font-family="sans-serif" font-size="13" lengthAdjust="spacing" textLength="194" x="74" y="261.3247">shows all received invitations</text><polygon fill="#181818" points="339,291.5234,349,295.5234,339,299.5234,343,295.5234" style="stroke:#181818;stroke-width:1.0;"/><line style="stroke:#181818;stroke-width:1.0;" x1="44" x2="345" y1="295.5234" y2="295.5234"/><text fill="#000000" font-family="sans-serif" font-size="13" font-weight="bold" lengthAdjust="spacing" textLength="9" x="51" y="290.4575">7</text><text fill="#000000" font-family="sans-serif" font-size="13" lengthAdjust="spacing" textLength="140" x="64" y="290.4575">selects one invitation</text><polygon fill="#181818" points="55,320.6563,45,324.6563,55,328.6563,51,324.6563" style="stroke:#181818;stroke-width:1.0;"/><line style="stroke:#181818;stroke-width:1.0;stroke-dasharray:2.0,2.0;" x1="49" x2="355" y1="324.6563" y2="324.6563"/><text fill="#000000" font-family="sans-serif" font-size="13" font-weight="bold" lengthAdjust="spacing" textLength="9" x="61" y="319.5903">8</text><text fill="#000000" font-family="sans-serif" font-size="13" lengthAdjust="spacing" textLength="205" x="74" y="319.5903">asks to accept/refuse the invite</text><path d="M10,339.6563 L74,339.6563 L74,346.7891 L64,356.7891 L10,356.7891 L10,339.6563 " fill="#EEEEEE" style="stroke:#000000;stroke-width:1.5;"/><rect fill="none" height="735.125" style="stroke:#000000;stroke-width:1.5;" width="2386" x="10" y="339.6563"/><text fill="#000000" font-family="sans-serif" font-size="13" font-weight="bold" lengthAdjust="spacing" textLength="19" x="25" y="352.7231">alt</text><text fill="#000000" font-family="sans-serif" font-size="11" font-weight="bold" lengthAdjust="spacing" textLength="112" x="89" y="351.8667">[acceptance case]</text><polygon fill="#181818" points="339,373.9219,349,377.9219,339,381.9219,343,377.9219" style="stroke:#181818;stroke-width:1.0;"/><line style="stroke:#181818;stroke-width:1.0;" x1="44" x2="345" y1="377.9219" y2="377.9219"/><text fill="#000000" font-family="sans-serif" font-size="13" font-weight="bold" lengthAdjust="spacing" textLength="9" x="51" y="372.856">9</text><text fill="#000000" font-family="sans-serif" font-size="13" lengthAdjust="spacing" textLength="109" x="64" y="372.856">accept the invite</text><polygon fill="#181818" points="1252,403.0547,1262,407.0547,1252,411.0547,1256,407.0547" style="stroke:#181818;stroke-width:1.0;"/><line style="stroke:#181818;stroke-width:1.0;" x1="361" x2="1258" y1="407.0547" y2="407.0547"/><text fill="#000000" font-family="sans-serif" font-size="13" font-weight="bold" lengthAdjust="spacing" textLength="18" x="368" y="401.9888">10</text><text fill="#000000" font-family="sans-serif" font-size="13" lengthAdjust="spacing" textLength="274" x="390" y="401.9888">acceptMeetingInvitation(selectedMeeting)</text><polygon fill="#181818" points="1539,432.1875,1549,436.1875,1539,440.1875,1543,436.1875" style="stroke:#181818;stroke-width:1.0;"/><line style="stroke:#181818;stroke-width:1.0;" x1="1274" x2="1545" y1="436.1875" y2="436.1875"/><text fill="#000000" font-family="sans-serif" font-size="13" font-weight="bold" lengthAdjust="spacing" textLength="18" x="1281" y="431.1216">11</text><text fill="#000000" font-family="sans-serif" font-size="13" lengthAdjust="spacing" textLength="212" x="1303" y="431.1216">findMeetingParticipationByID(id)</text><polygon fill="#181818" points="2075,461.3203,2085,465.3203,2075,469.3203,2079,465.3203" style="stroke:#181818;stroke-width:1.0;"/><line style="stroke:#181818;stroke-width:1.0;" x1="1561" x2="2081" y1="465.3203" y2="465.3203"/><text fill="#000000" font-family="sans-serif" font-size="13" font-weight="bold" lengthAdjust="spacing" textLength="18" x="1568" y="460.2544">12</text><text fill="#000000" font-family="sans-serif" font-size="13" lengthAdjust="spacing" textLength="347" x="1590" y="460.2544">ofIdentity(id).orElseThrow(IllegalArgumentException)</text><polygon fill="#181818" points="1572,490.4531,1562,494.4531,1572,498.4531,1568,494.4531" style="stroke:#181818;stroke-width:1.0;"/><line style="stroke:#181818;stroke-width:1.0;stroke-dasharray:2.0,2.0;" x1="1566" x2="2091" y1="494.4531" y2="494.4531"/><text fill="#000000" font-family="sans-serif" font-size="13" font-weight="bold" lengthAdjust="spacing" textLength="18" x="1578" y="489.3872">13</text><text fill="#000000" font-family="sans-serif" font-size="13" lengthAdjust="spacing" textLength="4" x="1600" y="489.3872">&#160;</text><polygon fill="#181818" points="1285,519.5859,1275,523.5859,1285,527.5859,1281,523.5859" style="stroke:#181818;stroke-width:1.0;"/><line style="stroke:#181818;stroke-width:1.0;stroke-dasharray:2.0,2.0;" x1="1279" x2="1555" y1="523.5859" y2="523.5859"/><text fill="#000000" font-family="sans-serif" font-size="13" font-weight="bold" lengthAdjust="spacing" textLength="18" x="1291" y="518.52">14</text><text fill="#000000" font-family="sans-serif" font-size="13" lengthAdjust="spacing" textLength="4" x="1313" y="518.52">&#160;</text><polygon fill="#181818" points="2279,548.7188,2289,552.7188,2279,556.7188,2283,552.7188" style="stroke:#181818;stroke-width:1.0;"/><line style="stroke:#181818;stroke-width:1.0;" x1="1274" x2="2285" y1="552.7188" y2="552.7188"/><text fill="#000000" font-family="sans-serif" font-size="13" font-weight="bold" lengthAdjust="spacing" textLength="18" x="1281" y="547.6528">15</text><text fill="#000000" font-family="sans-serif" font-size="13" lengthAdjust="spacing" textLength="158" x="1303" y="547.6528">acceptMeetingRequest()</text><path d="M1129,567.7188 L1193,567.7188 L1193,574.8516 L1183,584.8516 L1129,584.8516 L1129,567.7188 " fill="#EEEEEE" style="stroke:#000000;stroke-width:1.5;"/><rect fill="none" height="46.2656" style="stroke:#000000;stroke-width:1.5;" width="1257" x="1129" y="567.7188"/><text fill="#000000" font-family="sans-serif" font-size="13" font-weight="bold" lengthAdjust="spacing" textLength="19" x="1144" y="580.7856">alt</text><text fill="#000000" font-family="sans-serif" font-size="11" font-weight="bold" lengthAdjust="spacing" textLength="227" x="1208" y="579.9292">[user already answered the meeting]</text><polygon fill="#181818" points="1285,601.9844,1275,605.9844,1285,609.9844,1281,605.9844" style="stroke:#181818;stroke-width:1.0;"/><line style="stroke:#181818;stroke-width:1.0;stroke-dasharray:2.0,2.0;" x1="1279" x2="2295" y1="605.9844" y2="605.9844"/><text fill="#000000" font-family="sans-serif" font-size="13" font-weight="bold" lengthAdjust="spacing" textLength="18" x="1291" y="600.9185">16</text><text fill="#000000" font-family="sans-serif" font-size="13" lengthAdjust="spacing" textLength="368" x="1313" y="600.9185">throws IllegalArgumentException and aborts the process</text><polygon fill="#181818" points="2075,638.1172,2085,642.1172,2075,646.1172,2079,642.1172" style="stroke:#181818;stroke-width:1.0;"/><line style="stroke:#181818;stroke-width:1.0;" x1="1274" x2="2081" y1="642.1172" y2="642.1172"/><text fill="#000000" font-family="sans-serif" font-size="13" font-weight="bold" lengthAdjust="spacing" textLength="18" x="1281" y="637.0513">17</text><text fill="#000000" font-family="sans-serif" font-size="13" lengthAdjust="spacing" textLength="177" x="1303" y="637.0513">save(meetingParticipation)</text><polygon fill="#181818" points="1285,667.25,1275,671.25,1285,675.25,1281,671.25" style="stroke:#181818;stroke-width:1.0;"/><line style="stroke:#181818;stroke-width:1.0;stroke-dasharray:2.0,2.0;" x1="1279" x2="2091" y1="671.25" y2="671.25"/><text fill="#000000" font-family="sans-serif" font-size="13" font-weight="bold" lengthAdjust="spacing" textLength="18" x="1291" y="666.1841">18</text><text fill="#000000" font-family="sans-serif" font-size="13" lengthAdjust="spacing" textLength="4" x="1313" y="666.1841">&#160;</text><polygon fill="#181818" points="367,696.3828,357,700.3828,367,704.3828,363,700.3828" style="stroke:#181818;stroke-width:1.0;"/><line style="stroke:#181818;stroke-width:1.0;stroke-dasharray:2.0,2.0;" x1="361" x2="1268" y1="700.3828" y2="700.3828"/><text fill="#000000" font-family="sans-serif" font-size="13" font-weight="bold" lengthAdjust="spacing" textLength="18" x="373" y="695.3169">19</text><text fill="#000000" font-family="sans-serif" font-size="13" lengthAdjust="spacing" textLength="4" x="395" y="695.3169">&#160;</text><line style="stroke:#000000;stroke-width:1.0;stroke-dasharray:2.0,2.0;" x1="10" x2="2396" y1="709.3828" y2="709.3828"/><text fill="#000000" font-family="sans-serif" font-size="11" font-weight="bold" lengthAdjust="spacing" textLength="97" x="15" y="719.5933">[rejection case]</text><polygon fill="#181818" points="339,740.3203,349,744.3203,339,748.3203,343,744.3203" style="stroke:#181818;stroke-width:1.0;"/><line style="stroke:#181818;stroke-width:1.0;" x1="44" x2="345" y1="744.3203" y2="744.3203"/><text fill="#000000" font-family="sans-serif" font-size="13" font-weight="bold" lengthAdjust="spacing" textLength="18" x="51" y="739.2544">20</text><text fill="#000000" font-family="sans-serif" font-size="13" lengthAdjust="spacing" textLength="107" x="73" y="739.2544">refuse the invite</text><polygon fill="#181818" points="1257,769.4531,1267,773.4531,1257,777.4531,1261,773.4531" style="stroke:#181818;stroke-width:1.0;"/><line style="stroke:#181818;stroke-width:1.0;" x1="361" x2="1263" y1="773.4531" y2="773.4531"/><text fill="#000000" font-family="sans-serif" font-size="13" font-weight="bold" lengthAdjust="spacing" textLength="18" x="368" y="768.3872">21</text><text fill="#000000" font-family="sans-serif" font-size="13" lengthAdjust="spacing" textLength="272" x="390" y="768.3872">refuseMeetingInvitation(selectedMeeting)</text><polygon fill="#181818" points="1539,798.5859,1549,802.5859,1539,806.5859,1543,802.5859" style="stroke:#181818;stroke-width:1.0;"/><line style="stroke:#181818;stroke-width:1.0;" x1="1279" x2="1545" y1="802.5859" y2="802.5859"/><text fill="#000000" font-family="sans-serif" font-size="13" font-weight="bold" lengthAdjust="spacing" textLength="18" x="1286" y="797.52">22</text><text fill="#000000" font-family="sans-serif" font-size="13" lengthAdjust="spacing" textLength="212" x="1308" y="797.52">findMeetingParticipationByID(id)</text><polygon fill="#181818" points="2075,827.7188,2085,831.7188,2075,835.7188,2079,831.7188" style="stroke:#181818;stroke-width:1.0;"/><line style="stroke:#181818;stroke-width:1.0;" x1="1561" x2="2081" y1="831.7188" y2="831.7188"/><text fill="#000000" font-family="sans-serif" font-size="13" font-weight="bold" lengthAdjust="spacing" textLength="18" x="1568" y="826.6528">23</text><text fill="#000000" font-family="sans-serif" font-size="13" lengthAdjust="spacing" textLength="347" x="1590" y="826.6528">ofIdentity(id).orElseThrow(IllegalArgumentException)</text><polygon fill="#181818" points="1572,856.8516,1562,860.8516,1572,864.8516,1568,860.8516" style="stroke:#181818;stroke-width:1.0;"/><line style="stroke:#181818;stroke-width:1.0;stroke-dasharray:2.0,2.0;" x1="1566" x2="2091" y1="860.8516" y2="860.8516"/><text fill="#000000" font-family="sans-serif" font-size="13" font-weight="bold" lengthAdjust="spacing" textLength="18" x="1578" y="855.7856">24</text><text fill="#000000" font-family="sans-serif" font-size="13" lengthAdjust="spacing" textLength="4" x="1600" y="855.7856">&#160;</text><polygon fill="#181818" points="1290,885.9844,1280,889.9844,1290,893.9844,1286,889.9844" style="stroke:#181818;stroke-width:1.0;"/><line style="stroke:#181818;stroke-width:1.0;stroke-dasharray:2.0,2.0;" x1="1284" x2="1555" y1="889.9844" y2="889.9844"/><text fill="#000000" font-family="sans-serif" font-size="13" font-weight="bold" lengthAdjust="spacing" textLength="18" x="1296" y="884.9185">25</text><text fill="#000000" font-family="sans-serif" font-size="13" lengthAdjust="spacing" textLength="4" x="1318" y="884.9185">&#160;</text><polygon fill="#181818" points="2279,915.1172,2289,919.1172,2279,923.1172,2283,919.1172" style="stroke:#181818;stroke-width:1.0;"/><line style="stroke:#181818;stroke-width:1.0;" x1="1279" x2="2285" y1="919.1172" y2="919.1172"/><text fill="#000000" font-family="sans-serif" font-size="13" font-weight="bold" lengthAdjust="spacing" textLength="18" x="1286" y="914.0513">26</text><text fill="#000000" font-family="sans-serif" font-size="13" lengthAdjust="spacing" textLength="165" x="1308" y="914.0513">refuseMeetingInvitation()</text><path d="M1129,934.1172 L1193,934.1172 L1193,941.25 L1183,951.25 L1129,951.25 L1129,934.1172 " fill="#EEEEEE" style="stroke:#000000;stroke-width:1.5;"/><rect fill="none" height="46.2656" style="stroke:#000000;stroke-width:1.5;" width="1257" x="1129" y="934.1172"/><text fill="#000000" font-family="sans-serif" font-size="13" font-weight="bold" lengthAdjust="spacing" textLength="19" x="1144" y="947.1841">alt</text><text fill="#000000" font-family="sans-serif" font-size="11" font-weight="bold" lengthAdjust="spacing" textLength="227" x="1208" y="946.3276">[user already answered the meeting]</text><polygon fill="#181818" points="1290,968.3828,1280,972.3828,1290,976.3828,1286,972.3828" style="stroke:#181818;stroke-width:1.0;"/><line style="stroke:#181818;stroke-width:1.0;stroke-dasharray:2.0,2.0;" x1="1284" x2="2295" y1="972.3828" y2="972.3828"/><text fill="#000000" font-family="sans-serif" font-size="13" font-weight="bold" lengthAdjust="spacing" textLength="18" x="1296" y="967.3169">27</text><text fill="#000000" font-family="sans-serif" font-size="13" lengthAdjust="spacing" textLength="368" x="1318" y="967.3169">throws IllegalArgumentException and aborts the process</text><polygon fill="#181818" points="2075,1004.5156,2085,1008.5156,2075,1012.5156,2079,1008.5156" style="stroke:#181818;stroke-width:1.0;"/><line style="stroke:#181818;stroke-width:1.0;" x1="1279" x2="2081" y1="1008.5156" y2="1008.5156"/><text fill="#000000" font-family="sans-serif" font-size="13" font-weight="bold" lengthAdjust="spacing" textLength="18" x="1286" y="1003.4497">28</text><text fill="#000000" font-family="sans-serif" font-size="13" lengthAdjust="spacing" textLength="177" x="1308" y="1003.4497">save(meetingParticipation)</text><polygon fill="#181818" points="1290,1033.6484,1280,1037.6484,1290,1041.6484,1286,1037.6484" style="stroke:#181818;stroke-width:1.0;"/><line style="stroke:#181818;stroke-width:1.0;stroke-dasharray:2.0,2.0;" x1="1284" x2="2091" y1="1037.6484" y2="1037.6484"/><text fill="#000000" font-family="sans-serif" font-size="13" font-weight="bold" lengthAdjust="spacing" textLength="18" x="1296" y="1032.5825">29</text><text fill="#000000" font-family="sans-serif" font-size="13" lengthAdjust="spacing" textLength="4" x="1318" y="1032.5825">&#160;</text><polygon fill="#181818" points="372,1062.7813,362,1066.7813,372,1070.7813,368,1066.7813" style="stroke:#181818;stroke-width:1.0;"/><line style="stroke:#181818;stroke-width:1.0;stroke-dasharray:2.0,2.0;" x1="366" x2="1263" y1="1066.7813" y2="1066.7813"/><text fill="#000000" font-family="sans-serif" font-size="13" font-weight="bold" lengthAdjust="spacing" textLength="18" x="378" y="1061.7153">30</text><text fill="#000000" font-family="sans-serif" font-size="13" lengthAdjust="spacing" textLength="4" x="400" y="1061.7153">&#160;</text><polygon fill="#181818" points="50,1098.9141,40,1102.9141,50,1106.9141,46,1102.9141" style="stroke:#181818;stroke-width:1.0;"/><line style="stroke:#181818;stroke-width:1.0;stroke-dasharray:2.0,2.0;" x1="44" x2="355" y1="1102.9141" y2="1102.9141"/><text fill="#000000" font-family="sans-serif" font-size="13" font-weight="bold" lengthAdjust="spacing" textLength="18" x="56" y="1097.8481">31</text><text fill="#000000" font-family="sans-serif" font-size="13" lengthAdjust="spacing" textLength="229" x="78" y="1097.8481">shows the success of the operation</text><!--SRC=[xLRBRjim4BppAtXq3sxHg-4QoCC53BHe4IVdWgPMDbkAL4bAhl- -kvHaKRPa13ddaaGYPtPsTjQEg88rLR43nvYGmJh-ui5nuNc5lrafN51IbS84VcVy4TntWA3CVcDg5KHGrhniuct5bylIWGVJl5wj1k1loeSMUd-Y4bjmjP90M5_BpuWMPQcL70DFL7wm9ZYhTQDN5BzaSFecqLTbifRcP_UQhjsVDez3jlmLR5i83xPo7jQ6W0MslaLbC6mDANpp0k6P268dFF0n5KzGMgzm1YU2EdmYJy5vz0vCnAVbnoW8M3JlwIhYCri8HSfflAf6USrawGUVhsXm2qJzyJnOBgI4CdnoaECn5nqLLsVF4nR548iCSNoBEE7bcAR7vnzOneWuHEZyzqqC-1Uk4VWoSJpxq1UaEinO_Ckf_I6mS6XQuSfpkmlO9MGy79ojzWVkmNkI2oRZX65H9QgDjjvG-tQff2MHIuLOh3PlJM8P34yRJN48wLcyIzxI2HLUS7-mHuourWYKe6hij9-9Jy4qbdIq7ZJ8W0uPk3N6ljHu5iZi28UBOaA7zgh0Y7A9uRx8LZnC2QuZrErkT_jgrMTD6sVF4vzRBEiua2u_q-Kt5dwcieIcnR2yfscZOlDDXgkjmeaG7wrRQm_FcBFZR8CV5tkXxzo-ekrV_oFnI3yPWwxAPHBELNipqZlvTO_fbb_OzWH_A_21TWU74uSXj0EHuUTA6zquZfQYrvfmifH_FXWHhHY6SQfth95niRCEGqTLIcSbBcFQJbe75pHjg_NSYnfcnSZW9fqL4ywAnDdXceqWy0BWS17v6zD6pLpd-NeXRkMvkVscFBy7F0dub8_l6NzLnad1s3SAYVUL9F4OW_XeyJ-EvZjYk1Zf4rBy1m00]--></g></svg>