<?xml version="1.0" encoding="UTF-8" standalone="no"?><svg xmlns="http://www.w3.org/2000/svg" xmlns:xlink="http://www.w3.org/1999/xlink" contentStyleType="text/css" height="502px" preserveAspectRatio="none" style="width:1743px;height:502px;background:#FFFFFF;" version="1.1" viewBox="0 0 1743 502" width="1743px" zoomAndPan="magnify"><defs/><g><!--cluster <<agr Student>>--><g id="cluster_&lt;&lt;agr Student&gt;&gt;"><path d="M453.5,185.0137 L552.5,185.0137 A3.75,3.75 0 0 1 555,187.5137 L562,209.6348 L1094.5,209.6348 A2.5,2.5 0 0 1 1097,212.1348 L1097,474.5137 A2.5,2.5 0 0 1 1094.5,477.0137 L453.5,477.0137 A2.5,2.5 0 0 1 451,474.5137 L451,187.5137 A2.5,2.5 0 0 1 453.5,185.0137 " fill="none" style="stroke:#000000;stroke-width:1.5;"/><line style="stroke:#000000;stroke-width:1.5;" x1="451" x2="562" y1="209.6348" y2="209.6348"/><text fill="#000000" font-family="sans-serif" font-size="14" font-weight="bold" lengthAdjust="spacing" textLength="98" x="455" y="202.1211">«agr Student»</text></g><!--cluster <<agr Course>>--><g id="cluster_&lt;&lt;agr Course&gt;&gt;"><path d="M1123.5,185.0137 L1218.5,185.0137 A3.75,3.75 0 0 1 1221,187.5137 L1228,209.6348 L1733.5,209.6348 A2.5,2.5 0 0 1 1736,212.1348 L1736,493.0137 A2.5,2.5 0 0 1 1733.5,495.5137 L1123.5,495.5137 A2.5,2.5 0 0 1 1121,493.0137 L1121,187.5137 A2.5,2.5 0 0 1 1123.5,185.0137 " fill="none" style="stroke:#000000;stroke-width:1.5;"/><line style="stroke:#000000;stroke-width:1.5;" x1="1121" x2="1228" y1="209.6348" y2="209.6348"/><text fill="#000000" font-family="sans-serif" font-size="14" font-weight="bold" lengthAdjust="spacing" textLength="94" x="1125" y="202.1211">«agr Course»</text></g><!--cluster <<agr CourseEnrollment>>--><g id="cluster_&lt;&lt;agr CourseEnrollment&gt;&gt;"><path d="M8.5,6.0137 L179.5,6.0137 A3.75,3.75 0 0 1 182,8.5137 L189,30.6348 L424.5,30.6348 A2.5,2.5 0 0 1 427,33.1348 L427,332.0137 A2.5,2.5 0 0 1 424.5,334.5137 L8.5,334.5137 A2.5,2.5 0 0 1 6,332.0137 L6,8.5137 A2.5,2.5 0 0 1 8.5,6.0137 " fill="none" style="stroke:#000000;stroke-width:1.5;"/><line style="stroke:#000000;stroke-width:1.5;" x1="6" x2="189" y1="30.6348" y2="30.6348"/><text fill="#000000" font-family="sans-serif" font-size="14" font-weight="bold" lengthAdjust="spacing" textLength="170" x="10" y="23.1211">«agr CourseEnrollment»</text></g><!--class Student--><g id="elem_Student"><rect codeLine="3" fill="#F1F1F1" height="76.543" id="Student" rx="2.5" ry="2.5" style="stroke:#181818;stroke-width:0.5;" width="81" x="639.5" y="222.0137"/><ellipse cx="654.5" cy="252.2852" fill="#ADD1B2" rx="11" ry="11" style="stroke:#181818;stroke-width:1.0;"/><path d="M657.2656,248.1602 Q657.4219,247.9414 657.6094,247.832 Q657.7969,247.7227 658.0156,247.7227 Q658.3906,247.7227 658.625,247.9883 Q658.8594,248.2383 658.8594,248.8477 L658.8594,250.3008 Q658.8594,250.9102 658.625,251.1758 Q658.3906,251.4414 658.0156,251.4414 Q657.6719,251.4414 657.4688,251.2383 Q657.2656,251.0508 657.1563,250.5352 Q657.1094,250.1758 656.9219,249.9883 Q656.5938,249.6133 655.9844,249.3945 Q655.375,249.1758 654.75,249.1758 Q653.9844,249.1758 653.3438,249.5039 Q652.7188,249.832 652.2188,250.582 Q651.7344,251.332 651.7344,252.3633 L651.7344,253.457 Q651.7344,254.6914 652.625,255.5195 Q653.5156,256.332 655.1094,256.332 Q656.0469,256.332 656.7031,256.082 Q657.0938,255.9258 657.5156,255.4883 Q657.7813,255.2227 657.9219,255.1445 Q658.0781,255.0664 658.2813,255.0664 Q658.6094,255.0664 658.8594,255.332 Q659.125,255.582 659.125,255.9258 Q659.125,256.2695 658.7813,256.6758 Q658.2813,257.2539 657.4844,257.582 Q656.4063,258.0352 655.1094,258.0352 Q653.5938,258.0352 652.3906,257.4102 Q651.4063,256.9102 650.7188,255.8477 Q650.0313,254.7695 650.0313,253.4883 L650.0313,252.332 Q650.0313,251.0039 650.6406,249.8633 Q651.2656,248.707 652.3594,248.0977 Q653.4531,247.4727 654.6875,247.4727 Q655.4219,247.4727 656.0625,247.6445 Q656.7188,247.8008 657.2656,248.1602 Z " fill="#000000"/><text fill="#000000" font-family="sans-serif" font-size="12" font-style="italic" lengthAdjust="spacing" textLength="43" x="671.5" y="239.9629">«entity»</text><text fill="#000000" font-family="sans-serif" font-size="12" font-style="italic" lengthAdjust="spacing" textLength="35" x="675.5" y="255.9238">«root»</text><text fill="#000000" font-family="sans-serif" font-size="14" lengthAdjust="spacing" textLength="49" x="668.5" y="274.043">Student</text><line style="stroke:#181818;stroke-width:0.5;" x1="640.5" x2="719.5" y1="282.5566" y2="282.5566"/><line style="stroke:#181818;stroke-width:0.5;" x1="640.5" x2="719.5" y1="290.5566" y2="290.5566"/></g><!--class MechanographicalNumber--><g id="elem_MechanographicalNumber"><rect codeLine="4" fill="#F1F1F1" height="60.582" id="MechanographicalNumber" rx="2.5" ry="2.5" style="stroke:#181818;stroke-width:0.5;" width="197" x="467.5" y="400.0137"/><ellipse cx="482.5" cy="422.3047" fill="#ADD1B2" rx="11" ry="11" style="stroke:#181818;stroke-width:1.0;"/><path d="M485.2656,418.1797 Q485.4219,417.9609 485.6094,417.8516 Q485.7969,417.7422 486.0156,417.7422 Q486.3906,417.7422 486.625,418.0078 Q486.8594,418.2578 486.8594,418.8672 L486.8594,420.3203 Q486.8594,420.9297 486.625,421.1953 Q486.3906,421.4609 486.0156,421.4609 Q485.6719,421.4609 485.4688,421.2578 Q485.2656,421.0703 485.1563,420.5547 Q485.1094,420.1953 484.9219,420.0078 Q484.5938,419.6328 483.9844,419.4141 Q483.375,419.1953 482.75,419.1953 Q481.9844,419.1953 481.3438,419.5234 Q480.7188,419.8516 480.2188,420.6016 Q479.7344,421.3516 479.7344,422.3828 L479.7344,423.4766 Q479.7344,424.7109 480.625,425.5391 Q481.5156,426.3516 483.1094,426.3516 Q484.0469,426.3516 484.7031,426.1016 Q485.0938,425.9453 485.5156,425.5078 Q485.7813,425.2422 485.9219,425.1641 Q486.0781,425.0859 486.2813,425.0859 Q486.6094,425.0859 486.8594,425.3516 Q487.125,425.6016 487.125,425.9453 Q487.125,426.2891 486.7813,426.6953 Q486.2813,427.2734 485.4844,427.6016 Q484.4063,428.0547 483.1094,428.0547 Q481.5938,428.0547 480.3906,427.4297 Q479.4063,426.9297 478.7188,425.8672 Q478.0313,424.7891 478.0313,423.5078 L478.0313,422.3516 Q478.0313,421.0234 478.6406,419.8828 Q479.2656,418.7266 480.3594,418.1172 Q481.4531,417.4922 482.6875,417.4922 Q483.4219,417.4922 484.0625,417.6641 Q484.7188,417.8203 485.2656,418.1797 Z " fill="#000000"/><text fill="#000000" font-family="sans-serif" font-size="12" font-style="italic" lengthAdjust="spacing" textLength="27" x="565.5" y="417.9629">«vo»</text><text fill="#000000" font-family="sans-serif" font-size="14" lengthAdjust="spacing" textLength="165" x="496.5" y="436.082">MechanographicalNumber</text><line style="stroke:#181818;stroke-width:0.5;" x1="468.5" x2="663.5" y1="444.5957" y2="444.5957"/><line style="stroke:#181818;stroke-width:0.5;" x1="468.5" x2="663.5" y1="452.5957" y2="452.5957"/></g><!--class StudentTaxPayerNumber--><g id="elem_StudentTaxPayerNumber"><rect codeLine="5" fill="#F1F1F1" height="60.582" id="StudentTaxPayerNumber" rx="2.5" ry="2.5" style="stroke:#181818;stroke-width:0.5;" width="190" x="700" y="400.0137"/><ellipse cx="715" cy="422.3047" fill="#ADD1B2" rx="11" ry="11" style="stroke:#181818;stroke-width:1.0;"/><path d="M717.7656,418.1797 Q717.9219,417.9609 718.1094,417.8516 Q718.2969,417.7422 718.5156,417.7422 Q718.8906,417.7422 719.125,418.0078 Q719.3594,418.2578 719.3594,418.8672 L719.3594,420.3203 Q719.3594,420.9297 719.125,421.1953 Q718.8906,421.4609 718.5156,421.4609 Q718.1719,421.4609 717.9688,421.2578 Q717.7656,421.0703 717.6563,420.5547 Q717.6094,420.1953 717.4219,420.0078 Q717.0938,419.6328 716.4844,419.4141 Q715.875,419.1953 715.25,419.1953 Q714.4844,419.1953 713.8438,419.5234 Q713.2188,419.8516 712.7188,420.6016 Q712.2344,421.3516 712.2344,422.3828 L712.2344,423.4766 Q712.2344,424.7109 713.125,425.5391 Q714.0156,426.3516 715.6094,426.3516 Q716.5469,426.3516 717.2031,426.1016 Q717.5938,425.9453 718.0156,425.5078 Q718.2813,425.2422 718.4219,425.1641 Q718.5781,425.0859 718.7813,425.0859 Q719.1094,425.0859 719.3594,425.3516 Q719.625,425.6016 719.625,425.9453 Q719.625,426.2891 719.2813,426.6953 Q718.7813,427.2734 717.9844,427.6016 Q716.9063,428.0547 715.6094,428.0547 Q714.0938,428.0547 712.8906,427.4297 Q711.9063,426.9297 711.2188,425.8672 Q710.5313,424.7891 710.5313,423.5078 L710.5313,422.3516 Q710.5313,421.0234 711.1406,419.8828 Q711.7656,418.7266 712.8594,418.1172 Q713.9531,417.4922 715.1875,417.4922 Q715.9219,417.4922 716.5625,417.6641 Q717.2188,417.8203 717.7656,418.1797 Z " fill="#000000"/><text fill="#000000" font-family="sans-serif" font-size="12" font-style="italic" lengthAdjust="spacing" textLength="27" x="794.5" y="417.9629">«vo»</text><text fill="#000000" font-family="sans-serif" font-size="14" lengthAdjust="spacing" textLength="158" x="729" y="436.082">StudentTaxPayerNumber</text><line style="stroke:#181818;stroke-width:0.5;" x1="701" x2="889" y1="444.5957" y2="444.5957"/><line style="stroke:#181818;stroke-width:0.5;" x1="701" x2="889" y1="452.5957" y2="452.5957"/></g><!--class StudentDateOfBirth--><g id="elem_StudentDateOfBirth"><rect codeLine="6" fill="#F1F1F1" height="60.582" id="StudentDateOfBirth" rx="2.5" ry="2.5" style="stroke:#181818;stroke-width:0.5;" width="155" x="925.5" y="400.0137"/><ellipse cx="940.5" cy="422.3047" fill="#ADD1B2" rx="11" ry="11" style="stroke:#181818;stroke-width:1.0;"/><path d="M943.2656,418.1797 Q943.4219,417.9609 943.6094,417.8516 Q943.7969,417.7422 944.0156,417.7422 Q944.3906,417.7422 944.625,418.0078 Q944.8594,418.2578 944.8594,418.8672 L944.8594,420.3203 Q944.8594,420.9297 944.625,421.1953 Q944.3906,421.4609 944.0156,421.4609 Q943.6719,421.4609 943.4688,421.2578 Q943.2656,421.0703 943.1563,420.5547 Q943.1094,420.1953 942.9219,420.0078 Q942.5938,419.6328 941.9844,419.4141 Q941.375,419.1953 940.75,419.1953 Q939.9844,419.1953 939.3438,419.5234 Q938.7188,419.8516 938.2188,420.6016 Q937.7344,421.3516 937.7344,422.3828 L937.7344,423.4766 Q937.7344,424.7109 938.625,425.5391 Q939.5156,426.3516 941.1094,426.3516 Q942.0469,426.3516 942.7031,426.1016 Q943.0938,425.9453 943.5156,425.5078 Q943.7813,425.2422 943.9219,425.1641 Q944.0781,425.0859 944.2813,425.0859 Q944.6094,425.0859 944.8594,425.3516 Q945.125,425.6016 945.125,425.9453 Q945.125,426.2891 944.7813,426.6953 Q944.2813,427.2734 943.4844,427.6016 Q942.4063,428.0547 941.1094,428.0547 Q939.5938,428.0547 938.3906,427.4297 Q937.4063,426.9297 936.7188,425.8672 Q936.0313,424.7891 936.0313,423.5078 L936.0313,422.3516 Q936.0313,421.0234 936.6406,419.8828 Q937.2656,418.7266 938.3594,418.1172 Q939.4531,417.4922 940.6875,417.4922 Q941.4219,417.4922 942.0625,417.6641 Q942.7188,417.8203 943.2656,418.1797 Z " fill="#000000"/><text fill="#000000" font-family="sans-serif" font-size="12" font-style="italic" lengthAdjust="spacing" textLength="27" x="1002.5" y="417.9629">«vo»</text><text fill="#000000" font-family="sans-serif" font-size="14" lengthAdjust="spacing" textLength="123" x="954.5" y="436.082">StudentDateOfBirth</text><line style="stroke:#181818;stroke-width:0.5;" x1="926.5" x2="1079.5" y1="444.5957" y2="444.5957"/><line style="stroke:#181818;stroke-width:0.5;" x1="926.5" x2="1079.5" y1="452.5957" y2="452.5957"/></g><!--class Course--><g id="elem_Course"><rect codeLine="14" fill="#F1F1F1" height="76.543" id="Course" rx="2.5" ry="2.5" style="stroke:#181818;stroke-width:0.5;" width="78" x="1320" y="222.0137"/><ellipse cx="1335" cy="252.2852" fill="#ADD1B2" rx="11" ry="11" style="stroke:#181818;stroke-width:1.0;"/><path d="M1337.7656,248.1602 Q1337.9219,247.9414 1338.1094,247.832 Q1338.2969,247.7227 1338.5156,247.7227 Q1338.8906,247.7227 1339.125,247.9883 Q1339.3594,248.2383 1339.3594,248.8477 L1339.3594,250.3008 Q1339.3594,250.9102 1339.125,251.1758 Q1338.8906,251.4414 1338.5156,251.4414 Q1338.1719,251.4414 1337.9688,251.2383 Q1337.7656,251.0508 1337.6563,250.5352 Q1337.6094,250.1758 1337.4219,249.9883 Q1337.0938,249.6133 1336.4844,249.3945 Q1335.875,249.1758 1335.25,249.1758 Q1334.4844,249.1758 1333.8438,249.5039 Q1333.2188,249.832 1332.7188,250.582 Q1332.2344,251.332 1332.2344,252.3633 L1332.2344,253.457 Q1332.2344,254.6914 1333.125,255.5195 Q1334.0156,256.332 1335.6094,256.332 Q1336.5469,256.332 1337.2031,256.082 Q1337.5938,255.9258 1338.0156,255.4883 Q1338.2813,255.2227 1338.4219,255.1445 Q1338.5781,255.0664 1338.7813,255.0664 Q1339.1094,255.0664 1339.3594,255.332 Q1339.625,255.582 1339.625,255.9258 Q1339.625,256.2695 1339.2813,256.6758 Q1338.7813,257.2539 1337.9844,257.582 Q1336.9063,258.0352 1335.6094,258.0352 Q1334.0938,258.0352 1332.8906,257.4102 Q1331.9063,256.9102 1331.2188,255.8477 Q1330.5313,254.7695 1330.5313,253.4883 L1330.5313,252.332 Q1330.5313,251.0039 1331.1406,249.8633 Q1331.7656,248.707 1332.8594,248.0977 Q1333.9531,247.4727 1335.1875,247.4727 Q1335.9219,247.4727 1336.5625,247.6445 Q1337.2188,247.8008 1337.7656,248.1602 Z " fill="#000000"/><text fill="#000000" font-family="sans-serif" font-size="12" font-style="italic" lengthAdjust="spacing" textLength="43" x="1350.5" y="239.9629">«entity»</text><text fill="#000000" font-family="sans-serif" font-size="12" font-style="italic" lengthAdjust="spacing" textLength="35" x="1354.5" y="255.9238">«root»</text><text fill="#000000" font-family="sans-serif" font-size="14" lengthAdjust="spacing" textLength="46" x="1349" y="274.043">Course</text><line style="stroke:#181818;stroke-width:0.5;" x1="1321" x2="1397" y1="282.5566" y2="282.5566"/><line style="stroke:#181818;stroke-width:0.5;" x1="1321" x2="1397" y1="290.5566" y2="290.5566"/></g><!--class CourseCode--><g id="elem_CourseCode"><rect codeLine="15" fill="#F1F1F1" height="60.582" id="CourseCode" rx="2.5" ry="2.5" style="stroke:#181818;stroke-width:0.5;" width="112" x="1137" y="400.0137"/><ellipse cx="1152" cy="422.3047" fill="#ADD1B2" rx="11" ry="11" style="stroke:#181818;stroke-width:1.0;"/><path d="M1154.7656,418.1797 Q1154.9219,417.9609 1155.1094,417.8516 Q1155.2969,417.7422 1155.5156,417.7422 Q1155.8906,417.7422 1156.125,418.0078 Q1156.3594,418.2578 1156.3594,418.8672 L1156.3594,420.3203 Q1156.3594,420.9297 1156.125,421.1953 Q1155.8906,421.4609 1155.5156,421.4609 Q1155.1719,421.4609 1154.9688,421.2578 Q1154.7656,421.0703 1154.6563,420.5547 Q1154.6094,420.1953 1154.4219,420.0078 Q1154.0938,419.6328 1153.4844,419.4141 Q1152.875,419.1953 1152.25,419.1953 Q1151.4844,419.1953 1150.8438,419.5234 Q1150.2188,419.8516 1149.7188,420.6016 Q1149.2344,421.3516 1149.2344,422.3828 L1149.2344,423.4766 Q1149.2344,424.7109 1150.125,425.5391 Q1151.0156,426.3516 1152.6094,426.3516 Q1153.5469,426.3516 1154.2031,426.1016 Q1154.5938,425.9453 1155.0156,425.5078 Q1155.2813,425.2422 1155.4219,425.1641 Q1155.5781,425.0859 1155.7813,425.0859 Q1156.1094,425.0859 1156.3594,425.3516 Q1156.625,425.6016 1156.625,425.9453 Q1156.625,426.2891 1156.2813,426.6953 Q1155.7813,427.2734 1154.9844,427.6016 Q1153.9063,428.0547 1152.6094,428.0547 Q1151.0938,428.0547 1149.8906,427.4297 Q1148.9063,426.9297 1148.2188,425.8672 Q1147.5313,424.7891 1147.5313,423.5078 L1147.5313,422.3516 Q1147.5313,421.0234 1148.1406,419.8828 Q1148.7656,418.7266 1149.8594,418.1172 Q1150.9531,417.4922 1152.1875,417.4922 Q1152.9219,417.4922 1153.5625,417.6641 Q1154.2188,417.8203 1154.7656,418.1797 Z " fill="#000000"/><text fill="#000000" font-family="sans-serif" font-size="12" font-style="italic" lengthAdjust="spacing" textLength="27" x="1192.5" y="417.9629">«vo»</text><text fill="#000000" font-family="sans-serif" font-size="14" lengthAdjust="spacing" textLength="80" x="1166" y="436.082">CourseCode</text><line style="stroke:#181818;stroke-width:0.5;" x1="1138" x2="1248" y1="444.5957" y2="444.5957"/><line style="stroke:#181818;stroke-width:0.5;" x1="1138" x2="1248" y1="452.5957" y2="452.5957"/></g><!--class CourseDescription--><g id="elem_CourseDescription"><rect codeLine="16" fill="#F1F1F1" height="60.582" id="CourseDescription" rx="2.5" ry="2.5" style="stroke:#181818;stroke-width:0.5;" width="149" x="1284.5" y="400.0137"/><ellipse cx="1299.5" cy="422.3047" fill="#ADD1B2" rx="11" ry="11" style="stroke:#181818;stroke-width:1.0;"/><path d="M1302.2656,418.1797 Q1302.4219,417.9609 1302.6094,417.8516 Q1302.7969,417.7422 1303.0156,417.7422 Q1303.3906,417.7422 1303.625,418.0078 Q1303.8594,418.2578 1303.8594,418.8672 L1303.8594,420.3203 Q1303.8594,420.9297 1303.625,421.1953 Q1303.3906,421.4609 1303.0156,421.4609 Q1302.6719,421.4609 1302.4688,421.2578 Q1302.2656,421.0703 1302.1563,420.5547 Q1302.1094,420.1953 1301.9219,420.0078 Q1301.5938,419.6328 1300.9844,419.4141 Q1300.375,419.1953 1299.75,419.1953 Q1298.9844,419.1953 1298.3438,419.5234 Q1297.7188,419.8516 1297.2188,420.6016 Q1296.7344,421.3516 1296.7344,422.3828 L1296.7344,423.4766 Q1296.7344,424.7109 1297.625,425.5391 Q1298.5156,426.3516 1300.1094,426.3516 Q1301.0469,426.3516 1301.7031,426.1016 Q1302.0938,425.9453 1302.5156,425.5078 Q1302.7813,425.2422 1302.9219,425.1641 Q1303.0781,425.0859 1303.2813,425.0859 Q1303.6094,425.0859 1303.8594,425.3516 Q1304.125,425.6016 1304.125,425.9453 Q1304.125,426.2891 1303.7813,426.6953 Q1303.2813,427.2734 1302.4844,427.6016 Q1301.4063,428.0547 1300.1094,428.0547 Q1298.5938,428.0547 1297.3906,427.4297 Q1296.4063,426.9297 1295.7188,425.8672 Q1295.0313,424.7891 1295.0313,423.5078 L1295.0313,422.3516 Q1295.0313,421.0234 1295.6406,419.8828 Q1296.2656,418.7266 1297.3594,418.1172 Q1298.4531,417.4922 1299.6875,417.4922 Q1300.4219,417.4922 1301.0625,417.6641 Q1301.7188,417.8203 1302.2656,418.1797 Z " fill="#000000"/><text fill="#000000" font-family="sans-serif" font-size="12" font-style="italic" lengthAdjust="spacing" textLength="27" x="1358.5" y="417.9629">«vo»</text><text fill="#000000" font-family="sans-serif" font-size="14" lengthAdjust="spacing" textLength="117" x="1313.5" y="436.082">CourseDescription</text><line style="stroke:#181818;stroke-width:0.5;" x1="1285.5" x2="1432.5" y1="444.5957" y2="444.5957"/><line style="stroke:#181818;stroke-width:0.5;" x1="1285.5" x2="1432.5" y1="452.5957" y2="452.5957"/></g><!--class CourseTitle--><g id="elem_CourseTitle"><rect codeLine="17" fill="#F1F1F1" height="60.582" id="CourseTitle" rx="2.5" ry="2.5" style="stroke:#181818;stroke-width:0.5;" width="105" x="1468.5" y="400.0137"/><ellipse cx="1483.5" cy="422.3047" fill="#ADD1B2" rx="11" ry="11" style="stroke:#181818;stroke-width:1.0;"/><path d="M1486.2656,418.1797 Q1486.4219,417.9609 1486.6094,417.8516 Q1486.7969,417.7422 1487.0156,417.7422 Q1487.3906,417.7422 1487.625,418.0078 Q1487.8594,418.2578 1487.8594,418.8672 L1487.8594,420.3203 Q1487.8594,420.9297 1487.625,421.1953 Q1487.3906,421.4609 1487.0156,421.4609 Q1486.6719,421.4609 1486.4688,421.2578 Q1486.2656,421.0703 1486.1563,420.5547 Q1486.1094,420.1953 1485.9219,420.0078 Q1485.5938,419.6328 1484.9844,419.4141 Q1484.375,419.1953 1483.75,419.1953 Q1482.9844,419.1953 1482.3438,419.5234 Q1481.7188,419.8516 1481.2188,420.6016 Q1480.7344,421.3516 1480.7344,422.3828 L1480.7344,423.4766 Q1480.7344,424.7109 1481.625,425.5391 Q1482.5156,426.3516 1484.1094,426.3516 Q1485.0469,426.3516 1485.7031,426.1016 Q1486.0938,425.9453 1486.5156,425.5078 Q1486.7813,425.2422 1486.9219,425.1641 Q1487.0781,425.0859 1487.2813,425.0859 Q1487.6094,425.0859 1487.8594,425.3516 Q1488.125,425.6016 1488.125,425.9453 Q1488.125,426.2891 1487.7813,426.6953 Q1487.2813,427.2734 1486.4844,427.6016 Q1485.4063,428.0547 1484.1094,428.0547 Q1482.5938,428.0547 1481.3906,427.4297 Q1480.4063,426.9297 1479.7188,425.8672 Q1479.0313,424.7891 1479.0313,423.5078 L1479.0313,422.3516 Q1479.0313,421.0234 1479.6406,419.8828 Q1480.2656,418.7266 1481.3594,418.1172 Q1482.4531,417.4922 1483.6875,417.4922 Q1484.4219,417.4922 1485.0625,417.6641 Q1485.7188,417.8203 1486.2656,418.1797 Z " fill="#000000"/><text fill="#000000" font-family="sans-serif" font-size="12" font-style="italic" lengthAdjust="spacing" textLength="27" x="1520.5" y="417.9629">«vo»</text><text fill="#000000" font-family="sans-serif" font-size="14" lengthAdjust="spacing" textLength="73" x="1497.5" y="436.082">CourseTitle</text><line style="stroke:#181818;stroke-width:0.5;" x1="1469.5" x2="1572.5" y1="444.5957" y2="444.5957"/><line style="stroke:#181818;stroke-width:0.5;" x1="1469.5" x2="1572.5" y1="452.5957" y2="452.5957"/></g><!--class CourseState--><g id="elem_CourseState"><rect codeLine="18" fill="#F1F1F1" height="97.8242" id="CourseState" rx="2.5" ry="2.5" style="stroke:#181818;stroke-width:0.5;" width="111" x="1608.5" y="381.5137"/><ellipse cx="1623.5" cy="403.8047" fill="#EB937F" rx="11" ry="11" style="stroke:#181818;stroke-width:1.0;"/><path d="M1622.3594,404.6016 L1622.3594,407.1016 L1626.6875,407.1016 L1626.6875,406.1797 Q1626.6875,405.5703 1626.9219,405.3047 Q1627.1719,405.0391 1627.5469,405.0391 Q1627.9219,405.0391 1628.1563,405.3047 Q1628.3906,405.5703 1628.3906,406.1797 L1628.3906,408.8047 L1620.3906,408.8047 Q1619.7656,408.8047 1619.5,408.5703 Q1619.25,408.3359 1619.25,407.9453 Q1619.25,407.5703 1619.5156,407.3359 Q1619.7813,407.1016 1620.3906,407.1016 L1620.6563,407.1016 L1620.6563,400.4453 L1620.3906,400.4453 Q1619.7656,400.4453 1619.5,400.2109 Q1619.25,399.9766 1619.25,399.5859 Q1619.25,399.2109 1619.5,398.9766 Q1619.7656,398.7422 1620.3906,398.7422 L1628.0156,398.7422 L1628.0156,401.3359 Q1628.0156,401.9453 1627.7813,402.2109 Q1627.5625,402.4609 1627.1719,402.4609 Q1626.7969,402.4609 1626.5625,402.2109 Q1626.3281,401.9453 1626.3281,401.3359 L1626.3281,400.4453 L1622.3594,400.4453 L1622.3594,402.8984 L1623.8438,402.8984 Q1623.8438,402.2422 1623.9688,402.0547 Q1624.2344,401.6484 1624.7031,401.6484 Q1625.0781,401.6484 1625.3125,401.9141 Q1625.5469,402.1641 1625.5469,402.7734 L1625.5469,404.7422 Q1625.5469,405.2891 1625.4219,405.4766 Q1625.1563,405.8672 1624.7031,405.8672 Q1624.2344,405.8672 1623.9688,405.4609 Q1623.8438,405.2734 1623.8438,404.6016 L1622.3594,404.6016 Z " fill="#000000"/><text fill="#000000" font-family="sans-serif" font-size="12" font-style="italic" lengthAdjust="spacing" textLength="27" x="1663.5" y="399.4629">«vo»</text><text fill="#000000" font-family="sans-serif" font-size="14" lengthAdjust="spacing" textLength="79" x="1637.5" y="417.582">CourseState</text><line style="stroke:#181818;stroke-width:0.5;" x1="1609.5" x2="1718.5" y1="426.0957" y2="426.0957"/><text fill="#000000" font-family="sans-serif" font-size="14" lengthAdjust="spacing" textLength="38" x="1614.5" y="445.2031">OPEN</text><text fill="#000000" font-family="sans-serif" font-size="14" lengthAdjust="spacing" textLength="47" x="1614.5" y="463.8242">CLOSE</text><line style="stroke:#181818;stroke-width:0.5;" x1="1609.5" x2="1718.5" y1="471.3379" y2="471.3379"/></g><!--class CourseEnrollment--><g id="elem_CourseEnrollment"><rect codeLine="30" fill="#F1F1F1" height="76.543" id="CourseEnrollment" rx="2.5" ry="2.5" style="stroke:#181818;stroke-width:0.5;" width="145" x="258.5" y="43.0137"/><ellipse cx="273.5" cy="73.2852" fill="#ADD1B2" rx="11" ry="11" style="stroke:#181818;stroke-width:1.0;"/><path d="M276.2656,69.1602 Q276.4219,68.9414 276.6094,68.832 Q276.7969,68.7227 277.0156,68.7227 Q277.3906,68.7227 277.625,68.9883 Q277.8594,69.2383 277.8594,69.8477 L277.8594,71.3008 Q277.8594,71.9102 277.625,72.1758 Q277.3906,72.4414 277.0156,72.4414 Q276.6719,72.4414 276.4688,72.2383 Q276.2656,72.0508 276.1563,71.5352 Q276.1094,71.1758 275.9219,70.9883 Q275.5938,70.6133 274.9844,70.3945 Q274.375,70.1758 273.75,70.1758 Q272.9844,70.1758 272.3438,70.5039 Q271.7188,70.832 271.2188,71.582 Q270.7344,72.332 270.7344,73.3633 L270.7344,74.457 Q270.7344,75.6914 271.625,76.5195 Q272.5156,77.332 274.1094,77.332 Q275.0469,77.332 275.7031,77.082 Q276.0938,76.9258 276.5156,76.4883 Q276.7813,76.2227 276.9219,76.1445 Q277.0781,76.0664 277.2813,76.0664 Q277.6094,76.0664 277.8594,76.332 Q278.125,76.582 278.125,76.9258 Q278.125,77.2695 277.7813,77.6758 Q277.2813,78.2539 276.4844,78.582 Q275.4063,79.0352 274.1094,79.0352 Q272.5938,79.0352 271.3906,78.4102 Q270.4063,77.9102 269.7188,76.8477 Q269.0313,75.7695 269.0313,74.4883 L269.0313,73.332 Q269.0313,72.0039 269.6406,70.8633 Q270.2656,69.707 271.3594,69.0977 Q272.4531,68.4727 273.6875,68.4727 Q274.4219,68.4727 275.0625,68.6445 Q275.7188,68.8008 276.2656,69.1602 Z " fill="#000000"/><text fill="#000000" font-family="sans-serif" font-size="12" font-style="italic" lengthAdjust="spacing" textLength="43" x="322.5" y="60.9629">«entity»</text><text fill="#000000" font-family="sans-serif" font-size="12" font-style="italic" lengthAdjust="spacing" textLength="35" x="326.5" y="76.9238">«root»</text><text fill="#000000" font-family="sans-serif" font-size="14" lengthAdjust="spacing" textLength="113" x="287.5" y="95.043">CourseEnrollment</text><line style="stroke:#181818;stroke-width:0.5;" x1="259.5" x2="402.5" y1="103.5566" y2="103.5566"/><line style="stroke:#181818;stroke-width:0.5;" x1="259.5" x2="402.5" y1="111.5566" y2="111.5566"/></g><!--class CourseEnrollmentState--><g id="elem_CourseEnrollmentState"><rect codeLine="31" fill="#F1F1F1" height="116.4453" id="CourseEnrollmentState" rx="2.5" ry="2.5" style="stroke:#181818;stroke-width:0.5;" width="178" x="22" y="202.5137"/><ellipse cx="37" cy="224.8047" fill="#EB937F" rx="11" ry="11" style="stroke:#181818;stroke-width:1.0;"/><path d="M35.8594,225.6016 L35.8594,228.1016 L40.1875,228.1016 L40.1875,227.1797 Q40.1875,226.5703 40.4219,226.3047 Q40.6719,226.0391 41.0469,226.0391 Q41.4219,226.0391 41.6563,226.3047 Q41.8906,226.5703 41.8906,227.1797 L41.8906,229.8047 L33.8906,229.8047 Q33.2656,229.8047 33,229.5703 Q32.75,229.3359 32.75,228.9453 Q32.75,228.5703 33.0156,228.3359 Q33.2813,228.1016 33.8906,228.1016 L34.1563,228.1016 L34.1563,221.4453 L33.8906,221.4453 Q33.2656,221.4453 33,221.2109 Q32.75,220.9766 32.75,220.5859 Q32.75,220.2109 33,219.9766 Q33.2656,219.7422 33.8906,219.7422 L41.5156,219.7422 L41.5156,222.3359 Q41.5156,222.9453 41.2813,223.2109 Q41.0625,223.4609 40.6719,223.4609 Q40.2969,223.4609 40.0625,223.2109 Q39.8281,222.9453 39.8281,222.3359 L39.8281,221.4453 L35.8594,221.4453 L35.8594,223.8984 L37.3438,223.8984 Q37.3438,223.2422 37.4688,223.0547 Q37.7344,222.6484 38.2031,222.6484 Q38.5781,222.6484 38.8125,222.9141 Q39.0469,223.1641 39.0469,223.7734 L39.0469,225.7422 Q39.0469,226.2891 38.9219,226.4766 Q38.6563,226.8672 38.2031,226.8672 Q37.7344,226.8672 37.4688,226.4609 Q37.3438,226.2734 37.3438,225.6016 L35.8594,225.6016 Z " fill="#000000"/><text fill="#000000" font-family="sans-serif" font-size="12" font-style="italic" lengthAdjust="spacing" textLength="27" x="110.5" y="220.4629">«vo»</text><text fill="#000000" font-family="sans-serif" font-size="14" lengthAdjust="spacing" textLength="146" x="51" y="238.582">CourseEnrollmentState</text><line style="stroke:#181818;stroke-width:0.5;" x1="23" x2="199" y1="247.0957" y2="247.0957"/><text fill="#000000" font-family="sans-serif" font-size="14" lengthAdjust="spacing" textLength="75" x="28" y="266.2031">ACCEPTED</text><text fill="#000000" font-family="sans-serif" font-size="14" lengthAdjust="spacing" textLength="65" x="28" y="284.8242">REFUSED</text><text fill="#000000" font-family="sans-serif" font-size="14" lengthAdjust="spacing" textLength="77" x="28" y="303.4453">UNDEFINED</text><line style="stroke:#181818;stroke-width:0.5;" x1="23" x2="199" y1="310.959" y2="310.959"/></g><!--class CourseEnrollmentDate--><g id="elem_CourseEnrollmentDate"><rect codeLine="36" fill="#F1F1F1" height="60.582" id="CourseEnrollmentDate" rx="2.5" ry="2.5" style="stroke:#181818;stroke-width:0.5;" width="175" x="235.5" y="230.0137"/><ellipse cx="250.5" cy="252.3047" fill="#ADD1B2" rx="11" ry="11" style="stroke:#181818;stroke-width:1.0;"/><path d="M253.2656,248.1797 Q253.4219,247.9609 253.6094,247.8516 Q253.7969,247.7422 254.0156,247.7422 Q254.3906,247.7422 254.625,248.0078 Q254.8594,248.2578 254.8594,248.8672 L254.8594,250.3203 Q254.8594,250.9297 254.625,251.1953 Q254.3906,251.4609 254.0156,251.4609 Q253.6719,251.4609 253.4688,251.2578 Q253.2656,251.0703 253.1563,250.5547 Q253.1094,250.1953 252.9219,250.0078 Q252.5938,249.6328 251.9844,249.4141 Q251.375,249.1953 250.75,249.1953 Q249.9844,249.1953 249.3438,249.5234 Q248.7188,249.8516 248.2188,250.6016 Q247.7344,251.3516 247.7344,252.3828 L247.7344,253.4766 Q247.7344,254.7109 248.625,255.5391 Q249.5156,256.3516 251.1094,256.3516 Q252.0469,256.3516 252.7031,256.1016 Q253.0938,255.9453 253.5156,255.5078 Q253.7813,255.2422 253.9219,255.1641 Q254.0781,255.0859 254.2813,255.0859 Q254.6094,255.0859 254.8594,255.3516 Q255.125,255.6016 255.125,255.9453 Q255.125,256.2891 254.7813,256.6953 Q254.2813,257.2734 253.4844,257.6016 Q252.4063,258.0547 251.1094,258.0547 Q249.5938,258.0547 248.3906,257.4297 Q247.4063,256.9297 246.7188,255.8672 Q246.0313,254.7891 246.0313,253.5078 L246.0313,252.3516 Q246.0313,251.0234 246.6406,249.8828 Q247.2656,248.7266 248.3594,248.1172 Q249.4531,247.4922 250.6875,247.4922 Q251.4219,247.4922 252.0625,247.6641 Q252.7188,247.8203 253.2656,248.1797 Z " fill="#000000"/><text fill="#000000" font-family="sans-serif" font-size="12" font-style="italic" lengthAdjust="spacing" textLength="27" x="322.5" y="247.9629">«vo»</text><text fill="#000000" font-family="sans-serif" font-size="14" lengthAdjust="spacing" textLength="143" x="264.5" y="266.082">CourseEnrollmentDate</text><line style="stroke:#181818;stroke-width:0.5;" x1="236.5" x2="409.5" y1="274.5957" y2="274.5957"/><line style="stroke:#181818;stroke-width:0.5;" x1="236.5" x2="409.5" y1="282.5957" y2="282.5957"/></g><!--link Student to MechanographicalNumber--><g id="link_Student_MechanographicalNumber"><path codeLine="8" d="M654.42,299.2137 C634.85,328.0537 608.1,367.4737 589.16,395.3737 " fill="none" id="Student-to-MechanographicalNumber" style="stroke:#181818;stroke-width:1.0;"/><polygon fill="#181818" points="586.19,399.7537,594.556,394.5566,588.9996,395.6177,587.9385,390.0613,586.19,399.7537" style="stroke:#181818;stroke-width:1.0;"/><text fill="#000000" font-family="sans-serif" font-size="13" lengthAdjust="spacing" textLength="7" x="582.6323" y="388.7577">1</text></g><!--link Student to StudentDateOfBirth--><g id="link_Student_StudentDateOfBirth"><path codeLine="9" d="M720.58,282.6237 C776.18,311.5337 876.51,363.7237 941.4,397.4737 " fill="none" id="Student-to-StudentDateOfBirth" style="stroke:#181818;stroke-width:1.0;"/><polygon fill="#181818" points="946.01,399.8737,939.8665,392.1757,941.5727,397.5692,936.1793,399.2754,946.01,399.8737" style="stroke:#181818;stroke-width:1.0;"/><text fill="#000000" font-family="sans-serif" font-size="13" lengthAdjust="spacing" textLength="7" x="926.5339" y="388.9025">1</text></g><!--link Student to StudentTaxPayerNumber--><g id="link_Student_StudentTaxPayerNumber"><path codeLine="10" d="M705.81,299.2137 C725.55,328.0537 752.53,367.4737 771.63,395.3737 " fill="none" id="Student-to-StudentTaxPayerNumber" style="stroke:#181818;stroke-width:1.0;"/><polygon fill="#181818" points="774.63,399.7537,772.8659,390.0641,771.8138,395.6222,766.2556,394.5701,774.63,399.7537" style="stroke:#181818;stroke-width:1.0;"/><text fill="#000000" font-family="sans-serif" font-size="13" lengthAdjust="spacing" textLength="7" x="762.7068" y="388.7577">1</text></g><!--link Course to CourseState--><g id="link_Course_CourseState"><path codeLine="23" d="M1398.25,280.2637 C1444.94,302.9037 1524.86,342.8037 1591,381.5137 C1595.22,383.9837 1599.54,386.5937 1603.86,389.2737 " fill="none" id="Course-to-CourseState" style="stroke:#181818;stroke-width:1.0;"/><polygon fill="#181818" points="1608.18,391.9637,1602.6557,383.81,1603.936,389.3201,1598.4259,390.6004,1608.18,391.9637" style="stroke:#181818;stroke-width:1.0;"/><text fill="#000000" font-family="sans-serif" font-size="13" lengthAdjust="spacing" textLength="7" x="1593.5796" y="382.9936">1</text></g><!--link Course to CourseTitle--><g id="link_Course_CourseTitle"><path codeLine="24" d="M1395.36,299.2137 C1423.39,328.2837 1461.8,368.1237 1488.75,396.0637 " fill="none" id="Course-to-CourseTitle" style="stroke:#181818;stroke-width:1.0;"/><polygon fill="#181818" points="1492.3,399.7537,1488.9322,390.4985,1488.8293,396.1545,1483.1734,396.0516,1492.3,399.7537" style="stroke:#181818;stroke-width:1.0;"/><text fill="#000000" font-family="sans-serif" font-size="13" lengthAdjust="spacing" textLength="7" x="1478.6588" y="388.7577">1</text></g><!--link Course to CourseDescription--><g id="link_Course_CourseDescription"><path codeLine="25" d="M1359,299.2137 C1359,327.8137 1359,366.8237 1359,394.6837 " fill="none" id="Course-to-CourseDescription" style="stroke:#181818;stroke-width:1.0;"/><polygon fill="#181818" points="1359,399.7537,1363,390.7537,1359,394.7537,1355,390.7537,1359,399.7537" style="stroke:#181818;stroke-width:1.0;"/><text fill="#000000" font-family="sans-serif" font-size="13" lengthAdjust="spacing" textLength="7" x="1351.2781" y="388.7577">1</text></g><!--link Course to CourseCode--><g id="link_Course_CourseCode"><path codeLine="26" d="M1321.75,299.2137 C1293.02,328.2837 1253.66,368.1237 1226.05,396.0637 " fill="none" id="Course-to-CourseCode" style="stroke:#181818;stroke-width:1.0;"/><polygon fill="#181818" points="1222.4,399.7537,1231.5708,396.1625,1225.914,396.1968,1225.8798,390.54,1222.4,399.7537" style="stroke:#181818;stroke-width:1.0;"/><text fill="#000000" font-family="sans-serif" font-size="13" lengthAdjust="spacing" textLength="7" x="1220.7419" y="388.7577">1</text></g><!--link CourseEnrollment to Student--><g id="link_CourseEnrollment_Student"><path codeLine="38" d="M403.74,119.4037 C473.44,154.7537 576.44,206.9937 634.98,236.6837 " fill="none" id="CourseEnrollment-to-Student" style="stroke:#181818;stroke-width:1.0;"/><polygon fill="#181818" points="639.47,238.9537,633.2674,231.3033,635.0151,236.6834,629.635,238.4311,639.47,238.9537" style="stroke:#181818;stroke-width:1.0;"/><text fill="#000000" font-family="sans-serif" font-size="13" lengthAdjust="spacing" textLength="38" x="496" y="165.042">enrolls</text><text fill="#000000" font-family="sans-serif" font-size="13" lengthAdjust="spacing" textLength="7" x="624.6272" y="230.6942">1</text></g><!--link CourseEnrollment to Course--><g id="link_CourseEnrollment_Course"><path codeLine="39" d="M403.55,87.0437 C540.42,96.5537 845.59,122.4037 1097,177.0137 C1175.1,193.9837 1263.23,224.0937 1314.79,242.8637 " fill="none" id="CourseEnrollment-to-Course" style="stroke:#181818;stroke-width:1.0;"/><polygon fill="#181818" points="1319.66,244.6437,1312.5755,237.8019,1314.9627,242.9304,1309.8342,245.3176,1319.66,244.6437" style="stroke:#181818;stroke-width:1.0;"/><text fill="#000000" font-family="sans-serif" font-size="13" lengthAdjust="spacing" textLength="56" x="1057" y="165.042">applied to</text><text fill="#000000" font-family="sans-serif" font-size="13" lengthAdjust="spacing" textLength="7" x="1305.0291" y="237.3977">1</text></g><!--link CourseEnrollment to CourseEnrollmentState--><g id="link_CourseEnrollment_CourseEnrollmentState"><path codeLine="40" d="M284.34,120.0537 C255.74,143.0637 218.47,173.0537 185.82,199.3237 " fill="none" id="CourseEnrollment-to-CourseEnrollmentState" style="stroke:#181818;stroke-width:1.0;"/><polygon fill="#181818" points="181.86,202.5037,191.3832,199.9921,185.7602,199.375,186.3773,193.7519,181.86,202.5037" style="stroke:#181818;stroke-width:1.0;"/><text fill="#000000" font-family="sans-serif" font-size="13" lengthAdjust="spacing" textLength="7" x="183.0695" y="191.4167">1</text></g><!--link CourseEnrollment to CourseEnrollmentDate--><g id="link_CourseEnrollment_CourseEnrollmentDate"><path codeLine="41" d="M329.3,120.0537 C327.9,151.0337 325.93,194.6637 324.57,224.8337 " fill="none" id="CourseEnrollment-to-CourseEnrollmentDate" style="stroke:#181818;stroke-width:1.0;"/><polygon fill="#181818" points="324.34,229.9337,328.7468,221.1257,324.5683,224.9389,320.7552,220.7604,324.34,229.9337" style="stroke:#181818;stroke-width:1.0;"/><text fill="#000000" font-family="sans-serif" font-size="13" lengthAdjust="spacing" textLength="7" x="316.8945" y="218.9749">1</text></g><!--SRC=[ZPBVReCW5CRl-nJ4-rxiTY4ccz9aoQPcsWTWoYgP2a7SrZHzzr6b3l1FouMHy_quVkSJZlClV230Wn0V14XbLv16-hvtsW2ryWgtxRKAeNfGUVHz20LZYZgT3UgDv2Lks45WNj8SLr5NVn01uJTpGDqkmxy9FX9nYmkn9F7dCnMo7A6UqZhORdtWFNWB1cRHQUirp7QwKP_dTcm1wqHBdDI6uetG1YXW1G73S1Cj96qkA9UKDJCP3Kn6PKKibJHThSLKgYcrs6jgnGcAhk_1QvoYVgDp7OwD8HXTBBbWFus5z2xM4MEOTV2Io6BGg16igkhfHNLbi9Y-aSy_tiy8dAZ0Kn2W94FXM7X7ktrgxFTHY7OlaQwSL_o4HdyhRCEoS_V0e_9w4TjvtFbD2iUSLvGKGBAxJZZZhvkQ6qZzfZy0]--></g></svg>