<?xml version="1.0" encoding="UTF-8" standalone="no"?><svg xmlns="http://www.w3.org/2000/svg" xmlns:xlink="http://www.w3.org/1999/xlink" contentStyleType="text/css" height="1581px" preserveAspectRatio="none" style="width:958px;height:1581px;background:#282828;" version="1.1" viewBox="0 0 958 1581" width="958px" zoomAndPan="magnify"><defs/><g><rect fill="#282828" height="1581" style="stroke:none;stroke-width:1.0;" width="958" x="0" y="0"/><!--cluster <<agr CourseEnrollment>>--><g id="cluster_&lt;&lt;agr CourseEnrollment&gt;&gt;"><path d="M13.5,388 L208.5,388 A3.75,3.75 0 0 1 211,390.5 L218,411.0146 L720.5,411.0146 A2.5,2.5 0 0 1 723,413.5146 L723,891.5 A2.5,2.5 0 0 1 720.5,894 L13.5,894 A2.5,2.5 0 0 1 11,891.5 L11,390.5 A2.5,2.5 0 0 1 13.5,388 " fill="#282828" style="stroke:#33FF33;stroke-width:1.0;"/><line style="stroke:#33FF33;stroke-width:1.0;" x1="11" x2="218" y1="411.0146" y2="411.0146"/><text fill="#33FF33" font-family="Verdana" font-size="14" font-weight="bold" lengthAdjust="spacing" textLength="194" x="15" y="404.0752">«agr CourseEnrollment»</text></g><!--cluster <<agr Student>>--><g id="cluster_&lt;&lt;agr Student&gt;&gt;"><path d="M204.5,918 L321.5,918 A3.75,3.75 0 0 1 324,920.5 L331,941.0146 L415.5,941.0146 A2.5,2.5 0 0 1 418,943.5146 L418,1571.5 A2.5,2.5 0 0 1 415.5,1574 L204.5,1574 A2.5,2.5 0 0 1 202,1571.5 L202,920.5 A2.5,2.5 0 0 1 204.5,918 " fill="#282828" style="stroke:#33FF33;stroke-width:1.0;"/><line style="stroke:#33FF33;stroke-width:1.0;" x1="202" x2="331" y1="941.0146" y2="941.0146"/><text fill="#33FF33" font-family="Verdana" font-size="14" font-weight="bold" lengthAdjust="spacing" textLength="116" x="206" y="934.0752">«agr Student»</text></g><!--cluster <<agr Course>>--><g id="cluster_&lt;&lt;agr Course&gt;&gt;"><path d="M827.5,11 L938.5,11 A3.75,3.75 0 0 1 941,13.5 L948,34.0146 L948.5,34.0146 A2.5,2.5 0 0 1 951,36.5146 L951,870.5 A2.5,2.5 0 0 1 948.5,873 L827.5,873 A2.5,2.5 0 0 1 825,870.5 L825,13.5 A2.5,2.5 0 0 1 827.5,11 " fill="#282828" style="stroke:#33FF33;stroke-width:1.0;"/><line style="stroke:#33FF33;stroke-width:1.0;" x1="825" x2="948" y1="34.0146" y2="34.0146"/><text fill="#33FF33" font-family="Verdana" font-size="14" font-weight="bold" lengthAdjust="spacing" textLength="110" x="829" y="27.0752">«agr Course»</text></g><!--class CourseEnrollment--><g id="elem_CourseEnrollment"><rect codeLine="9" fill="#282828" height="56.1826" id="CourseEnrollment" rx="2.5" ry="2.5" style="stroke:#33FF33;stroke-width:1.0;" width="131" x="244.5" y="652"/><text fill="#33FF33" font-family="Verdana" font-size="12" font-style="italic" lengthAdjust="spacing" textLength="51" x="284.5" y="669.0645">«entity»</text><text fill="#33FF33" font-family="Verdana" font-size="12" font-style="italic" lengthAdjust="spacing" textLength="40" x="290" y="683.6484">«root»</text><text fill="#33FF33" font-family="Verdana" font-size="14" lengthAdjust="spacing" textLength="125" x="247.5" y="700.2432">CourseEnrollment</text></g><!--class StudentEnrollmentState--><g id="elem_StudentEnrollmentState"><rect codeLine="10" fill="#282828" height="56.1826" id="StudentEnrollmentState" rx="2.5" ry="2.5" style="stroke:#33FF33;stroke-width:1.0;" width="176" x="531" y="822"/><text fill="#33FF33" font-family="Verdana" font-size="12" font-style="italic" lengthAdjust="spacing" textLength="30" x="604" y="839.0645">«vo»</text><text fill="#33FF33" font-family="Verdana" font-size="12" font-style="italic" lengthAdjust="spacing" textLength="51" x="593.5" y="853.6484">«enum»</text><text fill="#33FF33" font-family="Verdana" font-size="14" lengthAdjust="spacing" textLength="170" x="534" y="870.2432">StudentEnrollmentState</text></g><!--class CourseEnrollmentDate--><g id="elem_CourseEnrollmentDate"><rect codeLine="11" fill="#282828" height="41.5986" id="CourseEnrollmentDate" rx="2.5" ry="2.5" style="stroke:#33FF33;stroke-width:1.0;" width="164" x="537" y="630"/><text fill="#33FF33" font-family="Verdana" font-size="12" font-style="italic" lengthAdjust="spacing" textLength="30" x="604" y="647.0645">«vo»</text><text fill="#33FF33" font-family="Verdana" font-size="14" lengthAdjust="spacing" textLength="158" x="540" y="663.6592">CourseEnrollmentDate</text></g><!--class Course--><g id="elem_Course"><rect codeLine="32" fill="#282828" height="56.1826" id="Course" rx="2.5" ry="2.5" style="stroke:#33FF33;stroke-width:1.0;" width="56" x="591" y="424"/><text fill="#33FF33" font-family="Verdana" font-size="12" font-style="italic" lengthAdjust="spacing" textLength="51" x="593.5" y="441.0645">«entity»</text><text fill="#33FF33" font-family="Verdana" font-size="12" font-style="italic" lengthAdjust="spacing" textLength="40" x="599" y="455.6484">«root»</text><text fill="#33FF33" font-family="Verdana" font-size="14" lengthAdjust="spacing" textLength="50" x="594" y="472.2432">Course</text></g><!--class Student--><g id="elem_Student"><rect codeLine="20" fill="#282828" height="56.1826" id="Student" rx="2.5" ry="2.5" style="stroke:#33FF33;stroke-width:1.0;" width="63" x="27" y="822"/><text fill="#33FF33" font-family="Verdana" font-size="12" font-style="italic" lengthAdjust="spacing" textLength="51" x="33" y="839.0645">«entity»</text><text fill="#33FF33" font-family="Verdana" font-size="12" font-style="italic" lengthAdjust="spacing" textLength="40" x="38.5" y="853.6484">«root»</text><text fill="#33FF33" font-family="Verdana" font-size="14" lengthAdjust="spacing" textLength="57" x="30" y="870.2432">Student</text></g><!--class MechanographicalNumber--><g id="elem_MechanographicalNumber"><rect codeLine="21" fill="#282828" height="41.5986" id="MechanographicalNumber" rx="2.5" ry="2.5" style="stroke:#33FF33;stroke-width:1.0;" width="184" x="218" y="954"/><text fill="#33FF33" font-family="Verdana" font-size="12" font-style="italic" lengthAdjust="spacing" textLength="30" x="295" y="971.0645">«vo»</text><text fill="#33FF33" font-family="Verdana" font-size="14" lengthAdjust="spacing" textLength="178" x="221" y="987.6592">MechanographicalNumber</text></g><!--class StudentTaxPayerNumber--><g id="elem_StudentTaxPayerNumber"><rect codeLine="22" fill="#282828" height="41.5986" id="StudentTaxPayerNumber" rx="2.5" ry="2.5" style="stroke:#33FF33;stroke-width:1.0;" width="182" x="219" y="1146"/><text fill="#33FF33" font-family="Verdana" font-size="12" font-style="italic" lengthAdjust="spacing" textLength="30" x="295" y="1163.0645">«vo»</text><text fill="#33FF33" font-family="Verdana" font-size="14" lengthAdjust="spacing" textLength="176" x="222" y="1179.6592">StudentTaxPayerNumber</text></g><!--class StudentDateOfBirth--><g id="elem_StudentDateOfBirth"><rect codeLine="23" fill="#282828" height="41.5986" id="StudentDateOfBirth" rx="2.5" ry="2.5" style="stroke:#33FF33;stroke-width:1.0;" width="146" x="237" y="1338"/><text fill="#33FF33" font-family="Verdana" font-size="12" font-style="italic" lengthAdjust="spacing" textLength="30" x="295" y="1355.0645">«vo»</text><text fill="#33FF33" font-family="Verdana" font-size="14" lengthAdjust="spacing" textLength="140" x="240" y="1371.6592">StudentDateOfBirth</text></g><!--class SystemUser--><g id="elem_SystemUser"><rect fill="#282828" height="27.0146" id="SystemUser" rx="2.5" ry="2.5" style="stroke:#33FF33;stroke-width:1.0;" width="91" x="264.5" y="1530.5"/><text fill="#33FF33" font-family="Verdana" font-size="14" lengthAdjust="spacing" textLength="85" x="267.5" y="1549.5752">SystemUser</text></g><!--class Code--><g id="elem_Code"><rect codeLine="33" fill="#282828" height="41.5986" id="Code" rx="2.5" ry="2.5" style="stroke:#33FF33;stroke-width:1.0;" width="42" x="866.5" y="47"/><text fill="#33FF33" font-family="Verdana" font-size="12" font-style="italic" lengthAdjust="spacing" textLength="30" x="872.5" y="64.0645">«vo»</text><text fill="#33FF33" font-family="Verdana" font-size="14" lengthAdjust="spacing" textLength="36" x="869.5" y="80.6592">Code</text></g><!--class Description--><g id="elem_Description"><rect codeLine="34" fill="#282828" height="41.5986" id="Description" rx="2.5" ry="2.5" style="stroke:#33FF33;stroke-width:1.0;" width="85" x="845" y="239"/><text fill="#33FF33" font-family="Verdana" font-size="12" font-style="italic" lengthAdjust="spacing" textLength="30" x="872.5" y="256.0645">«vo»</text><text fill="#33FF33" font-family="Verdana" font-size="14" lengthAdjust="spacing" textLength="79" x="848" y="272.6592">Description</text></g><!--class Title--><g id="elem_Title"><rect codeLine="35" fill="#282828" height="41.5986" id="Title" rx="2.5" ry="2.5" style="stroke:#33FF33;stroke-width:1.0;" width="35" x="870" y="431"/><text fill="#33FF33" font-family="Verdana" font-size="12" font-style="italic" lengthAdjust="spacing" textLength="30" x="872.5" y="448.0645">«vo»</text><text fill="#33FF33" font-family="Verdana" font-size="14" lengthAdjust="spacing" textLength="29" x="873" y="464.6592">Title</text></g><!--class State--><g id="elem_State"><rect codeLine="36" fill="#282828" height="56.1826" id="State" rx="2.5" ry="2.5" style="stroke:#33FF33;stroke-width:1.0;" width="53" x="861" y="623"/><text fill="#33FF33" font-family="Verdana" font-size="12" font-style="italic" lengthAdjust="spacing" textLength="30" x="872.5" y="640.0645">«vo»</text><text fill="#33FF33" font-family="Verdana" font-size="12" font-style="italic" lengthAdjust="spacing" textLength="51" x="862" y="654.6484">«enum»</text><text fill="#33FF33" font-family="Verdana" font-size="14" lengthAdjust="spacing" textLength="38" x="868.5" y="671.2432">State</text></g><!--class Teacher--><g id="elem_Teacher"><rect fill="#282828" height="27.0146" id="Teacher" rx="2.5" ry="2.5" style="stroke:#33FF33;stroke-width:1.0;" width="61" x="857" y="829.5"/><text fill="#33FF33" font-family="Verdana" font-size="14" lengthAdjust="spacing" textLength="55" x="860" y="848.5752">Teacher</text></g><!--link CourseEnrollment to Course--><g id="link_CourseEnrollment_Course"><path codeLine="12" d="M348.95,651.81 C410.24,606.3 529.87,517.45 586.65,475.29 " fill="none" id="CourseEnrollment-to-Course" style="stroke:#33FF33;stroke-width:1.0;"/><polygon fill="#33FF33" points="590.95,472.09,581.3363,474.2295,586.9312,475.0648,586.096,480.6596,590.95,472.09" style="stroke:#33FF33;stroke-width:1.0;"/><text fill="#33FF33" font-family="Verdana" font-size="13" lengthAdjust="spacing" textLength="65" x="435" y="543.0698">applied to</text><text fill="#33FF33" font-family="Verdana" font-size="13" lengthAdjust="spacing" textLength="8" x="575.1378" y="491.96">1</text></g><!--link CourseEnrollment to StudentEnrollmentState--><g id="link_CourseEnrollment_StudentEnrollmentState"><path codeLine="13" d="M361.69,708.07 C417.13,738.77 505.68,787.8 562.83,819.45 " fill="none" id="CourseEnrollment-to-StudentEnrollmentState" style="stroke:#33FF33;stroke-width:1.0;"/><polygon fill="#33FF33" points="567.23,821.89,561.2855,814.0374,562.8532,819.4727,557.4179,821.0404,567.23,821.89" style="stroke:#33FF33;stroke-width:1.0;"/><text fill="#33FF33" font-family="Verdana" font-size="13" lengthAdjust="spacing" textLength="8" x="545.6361" y="811.355">1</text></g><!--link CourseEnrollment to CourseEnrollmentDate--><g id="link_CourseEnrollment_CourseEnrollmentDate"><path codeLine="14" d="M375.73,673.89 C421.14,669.6 482.35,663.81 531.87,659.14 " fill="none" id="CourseEnrollment-to-CourseEnrollmentDate" style="stroke:#33FF33;stroke-width:1.0;"/><polygon fill="#33FF33" points="536.93,658.66,527.5926,655.5275,531.9523,659.132,528.3478,663.4918,536.93,658.66" style="stroke:#33FF33;stroke-width:1.0;"/><text fill="#33FF33" font-family="Verdana" font-size="13" lengthAdjust="spacing" textLength="8" x="520.9954" y="673.1827">1</text></g><!--reverse link Student to CourseEnrollment--><g id="link_Student_CourseEnrollment"><path codeLine="15" d="M94.39,826.23 C139.89,795.23 219.36,741.07 267.78,708.08 " fill="none" id="Student-backto-CourseEnrollment" style="stroke:#33FF33;stroke-width:1.0;"/><polygon fill="#33FF33" points="90.09,829.15,99.7824,827.4015,94.226,826.3404,95.287,820.784,90.09,829.15" style="stroke:#33FF33;stroke-width:1.0;"/><text fill="#33FF33" font-family="Verdana" font-size="13" lengthAdjust="spacing" textLength="64" x="121" y="762.0698">applies to</text><text fill="#33FF33" font-family="Verdana" font-size="13" lengthAdjust="spacing" textLength="8" x="97.8753" y="839.367">1</text></g><!--link Student to MechanographicalNumber--><g id="link_Student_MechanographicalNumber"><path codeLine="25" d="M90.15,867.46 C117.2,882.67 157.83,905.04 194,923 C213.81,932.84 235.88,943 255.34,951.71 " fill="none" id="Student-to-MechanographicalNumber" style="stroke:#33FF33;stroke-width:1.0;"/><polygon fill="#33FF33" points="260.23,953.89,253.6451,946.5661,255.6651,951.85,250.3812,953.87,260.23,953.89" style="stroke:#33FF33;stroke-width:1.0;"/><text fill="#33FF33" font-family="Verdana" font-size="13" lengthAdjust="spacing" textLength="8" x="235.7629" y="943.3819">1</text></g><!--link Student to SystemUser--><g id="link_Student_SystemUser"><path codeLine="26" d="M60.9,878.25 C64.9,947.88 78.87,1132.84 120,1281 C142.48,1361.97 142.67,1388.46 194,1455 C217.91,1485.99 255.03,1512.08 280.6,1527.85 " fill="none" id="Student-to-SystemUser" style="stroke:#33FF33;stroke-width:1.0;"/><polygon fill="#33FF33" points="284.92,1530.48,279.312,1522.3837,280.649,1527.8803,275.1524,1529.2173,284.92,1530.48" style="stroke:#33FF33;stroke-width:1.0;"/><text fill="#33FF33" font-family="Verdana" font-size="13" lengthAdjust="spacing" textLength="8" x="52.55" y="899.2076">1</text></g><!--link Student to StudentDateOfBirth--><g id="link_Student_StudentDateOfBirth"><path codeLine="27" d="M62.3,878.23 C70.63,949.54 100.76,1139.94 194,1263 C215.68,1291.61 247.41,1317.27 272.05,1334.85 " fill="none" id="Student-to-StudentDateOfBirth" style="stroke:#33FF33;stroke-width:1.0;"/><polygon fill="#33FF33" points="276.25,1337.82,271.2063,1329.3606,272.166,1334.9355,266.5911,1335.8951,276.25,1337.82" style="stroke:#33FF33;stroke-width:1.0;"/><text fill="#33FF33" font-family="Verdana" font-size="13" lengthAdjust="spacing" textLength="8" x="256.6891" y="1327.2904">1</text></g><!--link Student to StudentTaxPayerNumber--><g id="link_Student_StudentTaxPayerNumber"><path codeLine="28" d="M72.65,878.25 C94.06,922.4 139.56,1009.12 194,1071 C218.2,1098.5 250.58,1124.8 274.82,1142.9 " fill="none" id="Student-to-StudentTaxPayerNumber" style="stroke:#33FF33;stroke-width:1.0;"/><polygon fill="#33FF33" points="278.94,1145.95,274.086,1137.3804,274.9212,1142.9752,269.3263,1143.8105,278.94,1145.95" style="stroke:#33FF33;stroke-width:1.0;"/><text fill="#33FF33" font-family="Verdana" font-size="13" lengthAdjust="spacing" textLength="8" x="259.7646" y="1135.1109">1</text></g><!--link Course to State--><g id="link_Course_State"><path codeLine="38" d="M647.02,472.18 C697.22,509.66 804.49,589.76 856.71,628.75 " fill="none" id="Course-to-State" style="stroke:#33FF33;stroke-width:1.0;"/><polygon fill="#33FF33" points="860.98,631.94,856.1603,623.351,856.9731,628.9492,851.375,629.762,860.98,631.94" style="stroke:#33FF33;stroke-width:1.0;"/><text fill="#33FF33" font-family="Verdana" font-size="13" lengthAdjust="spacing" textLength="8" x="845.1593" y="642.1266">1</text></g><!--link Course to Title--><g id="link_Course_Title"><path codeLine="39" d="M647.02,452 C700.01,452 816.58,452 864.88,452 " fill="none" id="Course-to-Title" style="stroke:#33FF33;stroke-width:1.0;"/><polygon fill="#33FF33" points="869.88,452,860.88,448,864.88,452,860.88,456,869.88,452" style="stroke:#33FF33;stroke-width:1.0;"/><text fill="#33FF33" font-family="Verdana" font-size="13" lengthAdjust="spacing" textLength="8" x="853.9076" y="468.0568">1</text></g><!--link Course to Description--><g id="link_Course_Description"><path codeLine="40" d="M647.39,429.31 C671.2,409.85 706.82,381.34 739,358 C775.53,331.5 818.66,303.18 848.81,283.83 " fill="none" id="Course-to-Description" style="stroke:#33FF33;stroke-width:1.0;"/><polygon fill="#33FF33" points="853.17,281.04,843.4341,282.5271,848.9599,283.7373,847.7497,289.2632,853.17,281.04" style="stroke:#33FF33;stroke-width:1.0;"/><text fill="#33FF33" font-family="Verdana" font-size="13" lengthAdjust="spacing" textLength="8" x="835.3479" y="301.577">1</text></g><!--link Course to Code--><g id="link_Course_Code"><path codeLine="41" d="M631.37,423.99 C650.24,379.16 690.76,289.48 739,222 C776.5,169.54 831.25,117.18 862.42,89.06 " fill="none" id="Course-to-Code" style="stroke:#33FF33;stroke-width:1.0;"/><polygon fill="#33FF33" points="866.47,85.42,857.0987,88.4496,862.7472,88.7577,862.4391,94.4062,866.47,85.42" style="stroke:#33FF33;stroke-width:1.0;"/><text fill="#33FF33" font-family="Verdana" font-size="13" lengthAdjust="spacing" textLength="8" x="850.4917" y="106.6244">1</text></g><!--link Course to Teacher--><g id="link_Course_Teacher"><path codeLine="42" d="M647.33,468.65 C673.78,486.42 712.52,517.21 731,555 C749.03,591.87 724.61,608.56 739,647 C759.64,702.11 781.55,707.02 817,754 C835.72,778.81 857.92,807.03 872.1,824.92 " fill="none" id="Course-to-Teacher" style="stroke:#33FF33;stroke-width:1.0;"/><polygon fill="#33FF33" points="875.52,829.24,873.0636,819.7024,872.4139,825.3218,866.7945,824.6721,875.52,829.24" style="stroke:#33FF33;stroke-width:1.0;"/><text fill="#33FF33" font-family="Verdana" font-size="13" lengthAdjust="spacing" textLength="68" x="740" y="644.0698">is ruled by</text><text fill="#33FF33" font-family="Verdana" font-size="13" lengthAdjust="spacing" textLength="9" x="859.722" y="818.7019">*</text></g><!--SRC=[ZLFBReCm4Bpp5LkEbP2QGoyLuj2anpwaf1_Wc0rOyKjhqnP5-VSQGXC892a7X9WPx-nuzywNg10u-QGWH1svhT2M4LEWJOuEBSmU7w9Iv0YehAz1eLeZkKZYneCtGA8eFUI2a7jXz87A1N69X- -DG9cxABACRrc14ASfAmZcfYA7BvgCb0grpx9u5q5uk6JEZM18q_0MliwoD2LZ0d-tx_6Nlie3uIHOUkOngBvCeq1TgJF5UON5YT_nHXwI98Du5dS0F06pLWhCGmxN1TFk_bDawAzLT8Urf3H9HiG_MwwnjHy5tydRlCS1teZv5Nd9j2c8sL9m9j-gPXe6gGsEMx6V3rOZtU8rpRrldWNvyaWQD7kCPTh1A9Y6lgoTH_Nfpk2pI-cLlaORTZAHw-4Q9iVuHgZpi6dTvFN-Bj1n4hPPgedSLi9BdCmpj3EQ-jwaGQ-nuGm693VVkaFR0XVHdhcBdAQjFjZMlGyd8-CbKbWVuO0g6VPdNOT0Vm40]--></g></svg>