<?xml version="1.0" encoding="UTF-8" standalone="no"?><svg xmlns="http://www.w3.org/2000/svg" xmlns:xlink="http://www.w3.org/1999/xlink" contentStyleType="text/css" height="1102px" preserveAspectRatio="none" style="width:2429px;height:1102px;background:#FFFFFF;" version="1.1" viewBox="0 0 2429 1102" width="2429px" zoomAndPan="magnify"><defs/><g><rect fill="#FFFFFF" height="886.7793" style="stroke:#181818;stroke-width:1.0;" width="10" x="59.5" y="98.2422"/><rect fill="#FFFFFF" height="31.291" style="stroke:#181818;stroke-width:1.0;" width="10" x="509.5" y="515.6563"/><rect fill="#FFFFFF" height="31.291" style="stroke:#181818;stroke-width:1.0;" width="10" x="509.5" y="578.2383"/><rect fill="#FFFFFF" height="31.291" style="stroke:#181818;stroke-width:1.0;" width="10" x="509.5" y="672.1113"/><rect fill="#FFFFFF" height="31.291" style="stroke:#181818;stroke-width:1.0;" width="10" x="509.5" y="734.6934"/><rect fill="#FFFFFF" height="187.7461" style="stroke:#181818;stroke-width:1.0;" width="10" x="509.5" y="797.2754"/><rect fill="#FFFFFF" height="62.582" style="stroke:#181818;stroke-width:1.0;" width="10" x="723.5" y="152.8242"/><rect fill="#FFFFFF" height="268.959" style="stroke:#181818;stroke-width:1.0;" width="10" x="723.5" y="246.6973"/><rect fill="#FFFFFF" height="62.582" style="stroke:#181818;stroke-width:1.0;" width="10" x="952.5" y="609.5293"/><rect fill="#FFFFFF" height="62.582" style="stroke:#181818;stroke-width:1.0;" width="10" x="1174" y="828.5664"/><rect fill="#FFFFFF" height="31.291" style="stroke:#181818;stroke-width:1.0;" width="10" x="1742" y="891.1484"/><rect fill="none" height="161.0859" style="stroke:#000000;stroke-width:1.5;" width="1624.5" x="10" y="292.9883"/><line style="stroke:#181818;stroke-width:0.5;stroke-dasharray:5.0,5.0;" x1="64" x2="64" y1="88.2422" y2="1003.0215"/><line style="stroke:#181818;stroke-width:0.5;stroke-dasharray:5.0,5.0;" x1="514.5" x2="514.5" y1="88.2422" y2="1003.0215"/><line style="stroke:#181818;stroke-width:0.5;stroke-dasharray:5.0,5.0;" x1="728.5" x2="728.5" y1="88.2422" y2="1003.0215"/><line style="stroke:#181818;stroke-width:0.5;stroke-dasharray:5.0,5.0;" x1="957.5" x2="957.5" y1="88.2422" y2="1003.0215"/><line style="stroke:#181818;stroke-width:0.5;stroke-dasharray:5.0,5.0;" x1="1178.5" x2="1178.5" y1="88.2422" y2="1003.0215"/><line style="stroke:#181818;stroke-width:0.5;stroke-dasharray:5.0,5.0;" x1="1380.5" x2="1380.5" y1="88.2422" y2="1003.0215"/><line style="stroke:#181818;stroke-width:0.5;stroke-dasharray:5.0,5.0;" x1="1552.5" x2="1552.5" y1="88.2422" y2="1003.0215"/><line style="stroke:#181818;stroke-width:0.5;stroke-dasharray:5.0,5.0;" x1="1746.5" x2="1746.5" y1="88.2422" y2="1003.0215"/><line style="stroke:#181818;stroke-width:0.5;stroke-dasharray:5.0,5.0;" x1="2048.5" x2="2048.5" y1="88.2422" y2="1003.0215"/><line style="stroke:#181818;stroke-width:0.5;stroke-dasharray:5.0,5.0;" x1="2359.5" x2="2359.5" y1="88.2422" y2="1003.0215"/><text fill="#000000" font-family="sans-serif" font-size="14" lengthAdjust="spacing" textLength="83" x="20" y="84.7285">Administrator</text><ellipse cx="64.5" cy="18.1211" fill="#E2E2F0" rx="8" ry="8" style="stroke:#181818;stroke-width:0.5;"/><path d="M64.5,26.1211 L64.5,53.1211 M51.5,34.1211 L77.5,34.1211 M64.5,53.1211 L51.5,68.1211 M64.5,53.1211 L77.5,68.1211 " fill="none" style="stroke:#181818;stroke-width:0.5;"/><text fill="#000000" font-family="sans-serif" font-size="14" lengthAdjust="spacing" textLength="83" x="20" y="1017.1289">Administrator</text><ellipse cx="64.5" cy="1029.1426" fill="#E2E2F0" rx="8" ry="8" style="stroke:#181818;stroke-width:0.5;"/><path d="M64.5,1037.1426 L64.5,1064.1426 M51.5,1045.1426 L77.5,1045.1426 M64.5,1064.1426 L51.5,1079.1426 M64.5,1064.1426 L77.5,1079.1426 " fill="none" style="stroke:#181818;stroke-width:0.5;"/><rect fill="#E2E2F0" height="51.2422" rx="2.5" ry="2.5" style="stroke:#181818;stroke-width:0.5;" width="190" x="419.5" y="36"/><text fill="#000000" font-family="sans-serif" font-size="14" font-style="italic" lengthAdjust="spacing" textLength="95" x="467" y="58.1074">«presentation»</text><text fill="#000000" font-family="sans-serif" font-size="14" lengthAdjust="spacing" textLength="176" x="426.5" y="76.7285">AnswerStudentApplicationUI</text><rect fill="#E2E2F0" height="51.2422" rx="2.5" ry="2.5" style="stroke:#181818;stroke-width:0.5;" width="190" x="419.5" y="1002.0215"/><text fill="#000000" font-family="sans-serif" font-size="14" font-style="italic" lengthAdjust="spacing" textLength="95" x="467" y="1024.1289">«presentation»</text><text fill="#000000" font-family="sans-serif" font-size="14" lengthAdjust="spacing" textLength="176" x="426.5" y="1042.75">AnswerStudentApplicationUI</text><rect fill="#E2E2F0" height="51.2422" rx="2.5" ry="2.5" style="stroke:#181818;stroke-width:0.5;" width="218" x="619.5" y="36"/><text fill="#000000" font-family="sans-serif" font-size="14" font-style="italic" lengthAdjust="spacing" textLength="84" x="686.5" y="58.1074">«application»</text><text fill="#000000" font-family="sans-serif" font-size="14" lengthAdjust="spacing" textLength="204" x="626.5" y="76.7285">ListEnrollmentCoursesController</text><rect fill="#E2E2F0" height="51.2422" rx="2.5" ry="2.5" style="stroke:#181818;stroke-width:0.5;" width="218" x="619.5" y="1002.0215"/><text fill="#000000" font-family="sans-serif" font-size="14" font-style="italic" lengthAdjust="spacing" textLength="84" x="686.5" y="1024.1289">«application»</text><text fill="#000000" font-family="sans-serif" font-size="14" lengthAdjust="spacing" textLength="204" x="626.5" y="1042.75">ListEnrollmentCoursesController</text><rect fill="#E2E2F0" height="51.2422" rx="2.5" ry="2.5" style="stroke:#181818;stroke-width:0.5;" width="220" x="847.5" y="36"/><text fill="#000000" font-family="sans-serif" font-size="14" font-style="italic" lengthAdjust="spacing" textLength="84" x="915.5" y="58.1074">«application»</text><text fill="#000000" font-family="sans-serif" font-size="14" lengthAdjust="spacing" textLength="206" x="854.5" y="76.7285">ListApplicatedStudentsController</text><rect fill="#E2E2F0" height="51.2422" rx="2.5" ry="2.5" style="stroke:#181818;stroke-width:0.5;" width="220" x="847.5" y="1002.0215"/><text fill="#000000" font-family="sans-serif" font-size="14" font-style="italic" lengthAdjust="spacing" textLength="84" x="915.5" y="1024.1289">«application»</text><text fill="#000000" font-family="sans-serif" font-size="14" lengthAdjust="spacing" textLength="206" x="854.5" y="1042.75">ListApplicatedStudentsController</text><rect fill="#E2E2F0" height="51.2422" rx="2.5" ry="2.5" style="stroke:#181818;stroke-width:0.5;" width="203" x="1077.5" y="36"/><text fill="#000000" font-family="sans-serif" font-size="14" font-style="italic" lengthAdjust="spacing" textLength="84" x="1137" y="58.1074">«application»</text><text fill="#000000" font-family="sans-serif" font-size="14" lengthAdjust="spacing" textLength="189" x="1084.5" y="76.7285">AnswerStudentApplicationImpl</text><rect fill="#E2E2F0" height="51.2422" rx="2.5" ry="2.5" style="stroke:#181818;stroke-width:0.5;" width="203" x="1077.5" y="1002.0215"/><text fill="#000000" font-family="sans-serif" font-size="14" font-style="italic" lengthAdjust="spacing" textLength="84" x="1137" y="1024.1289">«application»</text><text fill="#000000" font-family="sans-serif" font-size="14" lengthAdjust="spacing" textLength="189" x="1084.5" y="1042.75">AnswerStudentApplicationImpl</text><rect fill="#E2E2F0" height="51.2422" rx="2.5" ry="2.5" style="stroke:#181818;stroke-width:0.5;" width="181" x="1290.5" y="36"/><text fill="#000000" font-family="sans-serif" font-size="14" font-style="italic" lengthAdjust="spacing" textLength="84" x="1339" y="58.1074">«application»</text><text fill="#000000" font-family="sans-serif" font-size="14" lengthAdjust="spacing" textLength="167" x="1297.5" y="76.7285">SetCourseEnrollmentState</text><rect fill="#E2E2F0" height="51.2422" rx="2.5" ry="2.5" style="stroke:#181818;stroke-width:0.5;" width="181" x="1290.5" y="1002.0215"/><text fill="#000000" font-family="sans-serif" font-size="14" font-style="italic" lengthAdjust="spacing" textLength="84" x="1339" y="1024.1289">«application»</text><text fill="#000000" font-family="sans-serif" font-size="14" lengthAdjust="spacing" textLength="167" x="1297.5" y="1042.75">SetCourseEnrollmentState</text><rect fill="#E2E2F0" height="51.2422" rx="2.5" ry="2.5" style="stroke:#181818;stroke-width:0.5;" width="143" x="1481.5" y="36"/><text fill="#000000" font-family="sans-serif" font-size="14" font-style="italic" lengthAdjust="spacing" textLength="60" x="1523" y="58.1074">«service»</text><text fill="#000000" font-family="sans-serif" font-size="14" lengthAdjust="spacing" textLength="129" x="1488.5" y="76.7285">AuthorizationService</text><rect fill="#E2E2F0" height="51.2422" rx="2.5" ry="2.5" style="stroke:#181818;stroke-width:0.5;" width="143" x="1481.5" y="1002.0215"/><text fill="#000000" font-family="sans-serif" font-size="14" font-style="italic" lengthAdjust="spacing" textLength="60" x="1523" y="1024.1289">«service»</text><text fill="#000000" font-family="sans-serif" font-size="14" lengthAdjust="spacing" textLength="129" x="1488.5" y="1042.75">AuthorizationService</text><rect fill="#E2E2F0" height="51.2422" rx="2.5" ry="2.5" style="stroke:#181818;stroke-width:0.5;" width="225" x="1634.5" y="36"/><text fill="#000000" font-family="sans-serif" font-size="14" font-style="italic" lengthAdjust="spacing" textLength="60" x="1717" y="58.1074">«service»</text><text fill="#000000" font-family="sans-serif" font-size="14" lengthAdjust="spacing" textLength="211" x="1641.5" y="76.7285">AnswerStudentApplicationService</text><rect fill="#E2E2F0" height="51.2422" rx="2.5" ry="2.5" style="stroke:#181818;stroke-width:0.5;" width="225" x="1634.5" y="1002.0215"/><text fill="#000000" font-family="sans-serif" font-size="14" font-style="italic" lengthAdjust="spacing" textLength="60" x="1717" y="1024.1289">«service»</text><text fill="#000000" font-family="sans-serif" font-size="14" lengthAdjust="spacing" textLength="211" x="1641.5" y="1042.75">AnswerStudentApplicationService</text><text fill="#000000" font-family="sans-serif" font-size="14" font-style="italic" lengthAdjust="spacing" textLength="89" x="2001.5" y="66.1074">«persistence»</text><text fill="#000000" font-family="sans-serif" font-size="14" lengthAdjust="spacing" textLength="181" x="1955.5" y="84.7285">CourseEnrollmentRepository</text><path d="M2031,15 C2031,5 2049,5 2049,5 C2049,5 2067,5 2067,15 L2067,41 C2067,51 2049,51 2049,51 C2049,51 2031,51 2031,41 L2031,15 " fill="#E2E2F0" style="stroke:#181818;stroke-width:1.5;"/><path d="M2031,15 C2031,25 2049,25 2049,25 C2049,25 2067,25 2067,15 " fill="none" style="stroke:#181818;stroke-width:1.5;"/><text fill="#000000" font-family="sans-serif" font-size="14" font-style="italic" lengthAdjust="spacing" textLength="89" x="2001.5" y="1017.1289">«persistence»</text><text fill="#000000" font-family="sans-serif" font-size="14" lengthAdjust="spacing" textLength="181" x="1955.5" y="1035.75">CourseEnrollmentRepository</text><path d="M2031,1049.2637 C2031,1039.2637 2049,1039.2637 2049,1039.2637 C2049,1039.2637 2067,1039.2637 2067,1049.2637 L2067,1075.2637 C2067,1085.2637 2049,1085.2637 2049,1085.2637 C2049,1085.2637 2031,1085.2637 2031,1075.2637 L2031,1049.2637 " fill="#E2E2F0" style="stroke:#181818;stroke-width:1.5;"/><path d="M2031,1049.2637 C2031,1059.2637 2049,1059.2637 2049,1059.2637 C2049,1059.2637 2067,1059.2637 2067,1049.2637 " fill="none" style="stroke:#181818;stroke-width:1.5;"/><rect fill="#E2E2F0" height="51.2422" rx="2.5" ry="2.5" style="stroke:#181818;stroke-width:0.5;" width="127" x="2296.5" y="36"/><text fill="#000000" font-family="sans-serif" font-size="14" font-style="italic" lengthAdjust="spacing" textLength="62" x="2329" y="58.1074">«domain»</text><text fill="#000000" font-family="sans-serif" font-size="14" lengthAdjust="spacing" textLength="113" x="2303.5" y="76.7285">CourseEnrollment</text><rect fill="#E2E2F0" height="51.2422" rx="2.5" ry="2.5" style="stroke:#181818;stroke-width:0.5;" width="127" x="2296.5" y="1002.0215"/><text fill="#000000" font-family="sans-serif" font-size="14" font-style="italic" lengthAdjust="spacing" textLength="62" x="2329" y="1024.1289">«domain»</text><text fill="#000000" font-family="sans-serif" font-size="14" lengthAdjust="spacing" textLength="113" x="2303.5" y="1042.75">CourseEnrollment</text><rect fill="#FFFFFF" height="886.7793" style="stroke:#181818;stroke-width:1.0;" width="10" x="59.5" y="98.2422"/><rect fill="#FFFFFF" height="31.291" style="stroke:#181818;stroke-width:1.0;" width="10" x="509.5" y="515.6563"/><rect fill="#FFFFFF" height="31.291" style="stroke:#181818;stroke-width:1.0;" width="10" x="509.5" y="578.2383"/><rect fill="#FFFFFF" height="31.291" style="stroke:#181818;stroke-width:1.0;" width="10" x="509.5" y="672.1113"/><rect fill="#FFFFFF" height="31.291" style="stroke:#181818;stroke-width:1.0;" width="10" x="509.5" y="734.6934"/><rect fill="#FFFFFF" height="187.7461" style="stroke:#181818;stroke-width:1.0;" width="10" x="509.5" y="797.2754"/><rect fill="#FFFFFF" height="62.582" style="stroke:#181818;stroke-width:1.0;" width="10" x="723.5" y="152.8242"/><rect fill="#FFFFFF" height="268.959" style="stroke:#181818;stroke-width:1.0;" width="10" x="723.5" y="246.6973"/><rect fill="#FFFFFF" height="62.582" style="stroke:#181818;stroke-width:1.0;" width="10" x="952.5" y="609.5293"/><rect fill="#FFFFFF" height="62.582" style="stroke:#181818;stroke-width:1.0;" width="10" x="1174" y="828.5664"/><rect fill="#FFFFFF" height="31.291" style="stroke:#181818;stroke-width:1.0;" width="10" x="1742" y="891.1484"/><polygon fill="#181818" points="502.5,117.5332,512.5,121.5332,502.5,125.5332,506.5,121.5332" style="stroke:#181818;stroke-width:1.0;"/><line style="stroke:#181818;stroke-width:1.0;" x1="69.5" x2="508.5" y1="121.5332" y2="121.5332"/><text fill="#000000" font-family="sans-serif" font-size="13" font-weight="bold" lengthAdjust="spacing" textLength="7" x="76.5" y="116.2705">1</text><text fill="#000000" font-family="sans-serif" font-size="13" lengthAdjust="spacing" textLength="314" x="87.5" y="116.2705">asks to accept/reject students applications to courses</text><polygon fill="#181818" points="711.5,148.8242,721.5,152.8242,711.5,156.8242,715.5,152.8242" style="stroke:#181818;stroke-width:1.0;"/><line style="stroke:#181818;stroke-width:1.0;" x1="514.5" x2="717.5" y1="152.8242" y2="152.8242"/><text fill="#000000" font-family="sans-serif" font-size="13" font-weight="bold" lengthAdjust="spacing" textLength="7" x="521.5" y="147.5615">2</text><text fill="#000000" font-family="sans-serif" font-size="13" lengthAdjust="spacing" textLength="43" x="532.5" y="147.5615">creates</text><polygon fill="#181818" points="2037,180.1152,2047,184.1152,2037,188.1152,2041,184.1152" style="stroke:#181818;stroke-width:1.0;"/><line style="stroke:#181818;stroke-width:1.0;" x1="733.5" x2="2043" y1="184.1152" y2="184.1152"/><text fill="#000000" font-family="sans-serif" font-size="13" font-weight="bold" lengthAdjust="spacing" textLength="7" x="740.5" y="178.8525">3</text><text fill="#000000" font-family="sans-serif" font-size="13" lengthAdjust="spacing" textLength="75" x="751.5" y="178.8525">repositories()</text><polygon fill="#181818" points="1541,211.4063,1551,215.4063,1541,219.4063,1545,215.4063" style="stroke:#181818;stroke-width:1.0;"/><line style="stroke:#181818;stroke-width:1.0;" x1="728.5" x2="1547" y1="215.4063" y2="215.4063"/><text fill="#000000" font-family="sans-serif" font-size="13" font-weight="bold" lengthAdjust="spacing" textLength="7" x="735.5" y="210.1436">4</text><text fill="#000000" font-family="sans-serif" font-size="13" lengthAdjust="spacing" textLength="124" x="746.5" y="210.1436">authorizationService()</text><polygon fill="#181818" points="711.5,242.6973,721.5,246.6973,711.5,250.6973,715.5,246.6973" style="stroke:#181818;stroke-width:1.0;"/><line style="stroke:#181818;stroke-width:1.0;" x1="514.5" x2="717.5" y1="246.6973" y2="246.6973"/><text fill="#000000" font-family="sans-serif" font-size="13" font-weight="bold" lengthAdjust="spacing" textLength="7" x="521.5" y="241.4346">5</text><text fill="#000000" font-family="sans-serif" font-size="13" lengthAdjust="spacing" textLength="167" x="532.5" y="241.4346">allCoursesWithApplications()</text><polygon fill="#181818" points="1541,273.9883,1551,277.9883,1541,281.9883,1545,277.9883" style="stroke:#181818;stroke-width:1.0;"/><line style="stroke:#181818;stroke-width:1.0;" x1="733.5" x2="1547" y1="277.9883" y2="277.9883"/><text fill="#000000" font-family="sans-serif" font-size="13" font-weight="bold" lengthAdjust="spacing" textLength="7" x="740.5" y="272.7256">6</text><text fill="#000000" font-family="sans-serif" font-size="13" lengthAdjust="spacing" textLength="418" x="751.5" y="272.7256">ensureAuthenticatedUserHasAnyOf(ADMINISTRATOR, POWER_USER)</text><path d="M10,292.9883 L71,292.9883 L71,302.2793 L61,312.2793 L10,312.2793 L10,292.9883 " fill="#EEEEEE" style="stroke:#000000;stroke-width:1.5;"/><rect fill="none" height="161.0859" style="stroke:#000000;stroke-width:1.5;" width="1624.5" x="10" y="292.9883"/><text fill="#000000" font-family="sans-serif" font-size="13" font-weight="bold" lengthAdjust="spacing" textLength="16" x="25" y="308.0166">alt</text><text fill="#000000" font-family="sans-serif" font-size="11" font-weight="bold" lengthAdjust="spacing" textLength="180" x="86" y="306.8584">[user has insufficient privileges]</text><polygon fill="#181818" points="744.5,331.5703,734.5,335.5703,744.5,339.5703,740.5,335.5703" style="stroke:#181818;stroke-width:1.0;"/><line style="stroke:#181818;stroke-width:1.0;" x1="738.5" x2="1552" y1="335.5703" y2="335.5703"/><text fill="#000000" font-family="sans-serif" font-size="13" font-weight="bold" lengthAdjust="spacing" textLength="7" x="750.5" y="330.3076">7</text><text fill="#000000" font-family="sans-serif" font-size="13" lengthAdjust="spacing" textLength="120" x="761.5" y="330.3076">Insufficient Privileges</text><polygon fill="#181818" points="525.5,362.8613,515.5,366.8613,525.5,370.8613,521.5,366.8613" style="stroke:#181818;stroke-width:1.0;"/><line style="stroke:#181818;stroke-width:1.0;stroke-dasharray:2.0,2.0;" x1="519.5" x2="722.5" y1="366.8613" y2="366.8613"/><text fill="#000000" font-family="sans-serif" font-size="13" font-weight="bold" lengthAdjust="spacing" textLength="7" x="531.5" y="361.5986">8</text><text fill="#000000" font-family="sans-serif" font-size="13" lengthAdjust="spacing" textLength="120" x="542.5" y="361.5986">Insufficient Privileges</text><polygon fill="#181818" points="80.5,394.1523,70.5,398.1523,80.5,402.1523,76.5,398.1523" style="stroke:#181818;stroke-width:1.0;"/><line style="stroke:#181818;stroke-width:1.0;stroke-dasharray:2.0,2.0;" x1="74.5" x2="513.5" y1="398.1523" y2="398.1523"/><text fill="#000000" font-family="sans-serif" font-size="13" font-weight="bold" lengthAdjust="spacing" textLength="7" x="86.5" y="392.8896">9</text><text fill="#000000" font-family="sans-serif" font-size="13" lengthAdjust="spacing" textLength="120" x="97.5" y="392.8896">Insufficient Privileges</text><line style="stroke:#000000;stroke-width:1.0;stroke-dasharray:2.0,2.0;" x1="10" x2="1634.5" y1="407.1523" y2="407.1523"/><text fill="#000000" font-family="sans-serif" font-size="11" font-weight="bold" lengthAdjust="spacing" textLength="170" x="15" y="419.0225">[user has sufficient privileges]</text><polygon fill="#181818" points="744.5,442.0742,734.5,446.0742,744.5,450.0742,740.5,446.0742" style="stroke:#181818;stroke-width:1.0;"/><line style="stroke:#181818;stroke-width:1.0;" x1="738.5" x2="1552" y1="446.0742" y2="446.0742"/><text fill="#000000" font-family="sans-serif" font-size="13" font-weight="bold" lengthAdjust="spacing" textLength="14" x="750.5" y="440.8115">10</text><text fill="#000000" font-family="sans-serif" font-size="13" lengthAdjust="spacing" textLength="112" x="768.5" y="440.8115">Sufficient Privileges</text><polygon fill="#181818" points="2037,480.3652,2047,484.3652,2037,488.3652,2041,484.3652" style="stroke:#181818;stroke-width:1.0;"/><line style="stroke:#181818;stroke-width:1.0;" x1="733.5" x2="2043" y1="484.3652" y2="484.3652"/><text fill="#000000" font-family="sans-serif" font-size="13" font-weight="bold" lengthAdjust="spacing" textLength="14" x="740.5" y="479.1025">11</text><text fill="#000000" font-family="sans-serif" font-size="13" lengthAdjust="spacing" textLength="135" x="758.5" y="479.1025">listCourseEnrollments()</text><polygon fill="#181818" points="530.5,511.6563,520.5,515.6563,530.5,519.6563,526.5,515.6563" style="stroke:#181818;stroke-width:1.0;"/><line style="stroke:#181818;stroke-width:1.0;" x1="524.5" x2="727.5" y1="515.6563" y2="515.6563"/><text fill="#000000" font-family="sans-serif" font-size="13" font-weight="bold" lengthAdjust="spacing" textLength="14" x="536.5" y="510.3936">12</text><text fill="#000000" font-family="sans-serif" font-size="13" lengthAdjust="spacing" textLength="166" x="554.5" y="510.3936">List&lt;CourseEnrollmentDTO&gt;</text><polygon fill="#181818" points="80.5,542.9473,70.5,546.9473,80.5,550.9473,76.5,546.9473" style="stroke:#181818;stroke-width:1.0;"/><line style="stroke:#181818;stroke-width:1.0;stroke-dasharray:2.0,2.0;" x1="74.5" x2="513.5" y1="546.9473" y2="546.9473"/><text fill="#000000" font-family="sans-serif" font-size="13" font-weight="bold" lengthAdjust="spacing" textLength="14" x="86.5" y="541.6846">13</text><text fill="#000000" font-family="sans-serif" font-size="13" lengthAdjust="spacing" textLength="302" x="104.5" y="541.6846">shows course list and requests to select one course</text><polygon fill="#181818" points="497.5,574.2383,507.5,578.2383,497.5,582.2383,501.5,578.2383" style="stroke:#181818;stroke-width:1.0;"/><line style="stroke:#181818;stroke-width:1.0;" x1="69.5" x2="503.5" y1="578.2383" y2="578.2383"/><text fill="#000000" font-family="sans-serif" font-size="13" font-weight="bold" lengthAdjust="spacing" textLength="14" x="76.5" y="572.9756">14</text><text fill="#000000" font-family="sans-serif" font-size="13" lengthAdjust="spacing" textLength="96" x="94.5" y="572.9756">selects a course</text><polygon fill="#181818" points="940.5,605.5293,950.5,609.5293,940.5,613.5293,944.5,609.5293" style="stroke:#181818;stroke-width:1.0;"/><line style="stroke:#181818;stroke-width:1.0;" x1="514.5" x2="946.5" y1="609.5293" y2="609.5293"/><text fill="#000000" font-family="sans-serif" font-size="13" font-weight="bold" lengthAdjust="spacing" textLength="14" x="521.5" y="604.2666">15</text><text fill="#000000" font-family="sans-serif" font-size="13" lengthAdjust="spacing" textLength="310" x="539.5" y="604.2666">allCoursesWithApplicationsTo(CourseEnrollmentDTO)</text><polygon fill="#181818" points="2037,636.8203,2047,640.8203,2037,644.8203,2041,640.8203" style="stroke:#181818;stroke-width:1.0;"/><line style="stroke:#181818;stroke-width:1.0;" x1="962.5" x2="2043" y1="640.8203" y2="640.8203"/><text fill="#000000" font-family="sans-serif" font-size="13" font-weight="bold" lengthAdjust="spacing" textLength="14" x="969.5" y="635.5576">16</text><text fill="#000000" font-family="sans-serif" font-size="13" lengthAdjust="spacing" textLength="221" x="987.5" y="635.5576">listStudentsApplicatedTo(courseCode)</text><polygon fill="#181818" points="530.5,668.1113,520.5,672.1113,530.5,676.1113,526.5,672.1113" style="stroke:#181818;stroke-width:1.0;"/><line style="stroke:#181818;stroke-width:1.0;" x1="524.5" x2="956.5" y1="672.1113" y2="672.1113"/><text fill="#000000" font-family="sans-serif" font-size="13" font-weight="bold" lengthAdjust="spacing" textLength="14" x="536.5" y="666.8486">17</text><text fill="#000000" font-family="sans-serif" font-size="13" lengthAdjust="spacing" textLength="166" x="554.5" y="666.8486">List&lt;CourseEnrollmentDTO&gt;</text><polygon fill="#181818" points="80.5,699.4023,70.5,703.4023,80.5,707.4023,76.5,703.4023" style="stroke:#181818;stroke-width:1.0;"/><line style="stroke:#181818;stroke-width:1.0;stroke-dasharray:2.0,2.0;" x1="74.5" x2="513.5" y1="703.4023" y2="703.4023"/><text fill="#000000" font-family="sans-serif" font-size="13" font-weight="bold" lengthAdjust="spacing" textLength="14" x="86.5" y="698.1396">18</text><text fill="#000000" font-family="sans-serif" font-size="13" lengthAdjust="spacing" textLength="317" x="104.5" y="698.1396">shows students list and requests to select one student</text><polygon fill="#181818" points="497.5,730.6934,507.5,734.6934,497.5,738.6934,501.5,734.6934" style="stroke:#181818;stroke-width:1.0;"/><line style="stroke:#181818;stroke-width:1.0;" x1="69.5" x2="503.5" y1="734.6934" y2="734.6934"/><text fill="#000000" font-family="sans-serif" font-size="13" font-weight="bold" lengthAdjust="spacing" textLength="14" x="76.5" y="729.4307">19</text><text fill="#000000" font-family="sans-serif" font-size="13" lengthAdjust="spacing" textLength="214" x="94.5" y="729.4307">selects a student to give the approval</text><polygon fill="#181818" points="80.5,761.9844,70.5,765.9844,80.5,769.9844,76.5,765.9844" style="stroke:#181818;stroke-width:1.0;"/><line style="stroke:#181818;stroke-width:1.0;stroke-dasharray:2.0,2.0;" x1="74.5" x2="513.5" y1="765.9844" y2="765.9844"/><text fill="#000000" font-family="sans-serif" font-size="13" font-weight="bold" lengthAdjust="spacing" textLength="14" x="86.5" y="760.7217">20</text><text fill="#000000" font-family="sans-serif" font-size="13" lengthAdjust="spacing" textLength="214" x="104.5" y="760.7217">requests to select a application state</text><polygon fill="#181818" points="497.5,793.2754,507.5,797.2754,497.5,801.2754,501.5,797.2754" style="stroke:#181818;stroke-width:1.0;"/><line style="stroke:#181818;stroke-width:1.0;" x1="69.5" x2="503.5" y1="797.2754" y2="797.2754"/><text fill="#000000" font-family="sans-serif" font-size="13" font-weight="bold" lengthAdjust="spacing" textLength="14" x="76.5" y="792.0127">21</text><text fill="#000000" font-family="sans-serif" font-size="13" lengthAdjust="spacing" textLength="177" x="94.5" y="792.0127">accepts/rejects the application</text><polygon fill="#181818" points="1162,824.5664,1172,828.5664,1162,832.5664,1166,828.5664" style="stroke:#181818;stroke-width:1.0;"/><line style="stroke:#181818;stroke-width:1.0;" x1="519.5" x2="1168" y1="828.5664" y2="828.5664"/><text fill="#000000" font-family="sans-serif" font-size="13" font-weight="bold" lengthAdjust="spacing" textLength="14" x="526.5" y="823.3037">22</text><text fill="#000000" font-family="sans-serif" font-size="13" lengthAdjust="spacing" textLength="533" x="544.5" y="823.3037">answerStudentApplication(identity, courseCode, studentMechanographicalNumber, approval)</text><polygon fill="#181818" points="2037,855.8574,2047,859.8574,2037,863.8574,2041,859.8574" style="stroke:#181818;stroke-width:1.0;"/><line style="stroke:#181818;stroke-width:1.0;" x1="1184" x2="2043" y1="859.8574" y2="859.8574"/><text fill="#000000" font-family="sans-serif" font-size="13" font-weight="bold" lengthAdjust="spacing" textLength="14" x="1191" y="854.5947">23</text><text fill="#000000" font-family="sans-serif" font-size="13" lengthAdjust="spacing" textLength="198" x="1209" y="854.5947">theEnrollment = ofIdentity(identity)</text><polygon fill="#181818" points="1730,887.1484,1740,891.1484,1730,895.1484,1734,891.1484" style="stroke:#181818;stroke-width:1.0;"/><line style="stroke:#181818;stroke-width:1.0;" x1="1179" x2="1736" y1="891.1484" y2="891.1484"/><text fill="#000000" font-family="sans-serif" font-size="13" font-weight="bold" lengthAdjust="spacing" textLength="14" x="1186" y="885.8857">24</text><text fill="#000000" font-family="sans-serif" font-size="13" lengthAdjust="spacing" textLength="295" x="1204" y="885.8857">setCourseEnrollmentState(theEnrollment, approval)</text><polygon fill="#181818" points="2037,918.4395,2047,922.4395,2037,926.4395,2041,922.4395" style="stroke:#181818;stroke-width:1.0;"/><line style="stroke:#181818;stroke-width:1.0;" x1="1747" x2="2043" y1="922.4395" y2="922.4395"/><text fill="#000000" font-family="sans-serif" font-size="13" font-weight="bold" lengthAdjust="spacing" textLength="14" x="1754" y="917.1768">25</text><text fill="#000000" font-family="sans-serif" font-size="13" lengthAdjust="spacing" textLength="255" x="1772" y="917.1768">updateEnrollmentState(enrollment, approval)</text><polygon fill="#181818" points="2348,949.7305,2358,953.7305,2348,957.7305,2352,953.7305" style="stroke:#181818;stroke-width:1.0;"/><line style="stroke:#181818;stroke-width:1.0;" x1="2049" x2="2354" y1="953.7305" y2="953.7305"/><text fill="#000000" font-family="sans-serif" font-size="13" font-weight="bold" lengthAdjust="spacing" textLength="14" x="2056" y="948.4678">26</text><text fill="#000000" font-family="sans-serif" font-size="13" lengthAdjust="spacing" textLength="269" x="2074" y="948.4678">updateStudentEnrollment(enrollment, approval)</text><polygon fill="#181818" points="75.5,981.0215,65.5,985.0215,75.5,989.0215,71.5,985.0215" style="stroke:#181818;stroke-width:1.0;"/><line style="stroke:#181818;stroke-width:1.0;stroke-dasharray:2.0,2.0;" x1="69.5" x2="513.5" y1="985.0215" y2="985.0215"/><text fill="#000000" font-family="sans-serif" font-size="13" font-weight="bold" lengthAdjust="spacing" textLength="14" x="81.5" y="979.7588">27</text><text fill="#000000" font-family="sans-serif" font-size="13" lengthAdjust="spacing" textLength="398" x="99.5" y="979.7588">presents the student and the course that he applied with the approval</text><!--SRC=[bLRRJkCm47tFL_XjMwbitoksKWL8szL2KGlY4HbdIimwiTTsYk3hTyPnhlIsl8IuC-VCvSmutpBlZPjDfqRnmfUv-YvqFdNmjuH2m4Kg-QlbUPBmqkkYp5_0ul_2QyiMQIuBwRpbzCOTutIG66wz5D8W6biKxXtinfSf57vXZ9A2UwcBnoNPbv9TNXeB3dyCn_Dvp_itWjyKLYkLeyMLBgq3TwKBJqSGA9Lu5jugnE4j-XwOcXlI6Cm0Xnjt6kXGDilSg03YZ3oDie6OIflQ1jC7Gd02pWYZz9csyZFyjW6xao8uOuUoJ_HqrT6PmNS0t4xqtBzr_NyPNeMz1gETn9P_aC-RuTH4i0whJ8f1lvHx_i8Ti66UVLUBRrzykvH3Tt8IuGpTKfrpIQKXDSfTA63GNn8Ux69E-fgXpn_7l6PS231-Qk4DX6Skge1roXpCAdoN9EYC4BM-PanOG0xNiiMVaje4hKD6i_08QKfmet7Ne6hHB3o7BKJB5BwW3yFWIiL1U98-w_IHc8x5LbD3uKeBf27Clng9HspvJ-uMnSTgErfStoxlbfk7zU9XjPwm-zNJpVhvSNEpHdZbMOcsBCD6ICJPRh5Lr1XZvKugUCNwCFohk7fnBxlczttp9igwPyUCgI2KJcZoOLDGg98csFyATRCVi4ZxmJRjLgZUeLIf6mFha1djeikXyVN3Qhwlznrfbp8P9Euo_TwC0uN0U95YIBYtdGzITg18whg0QDRbGC31e5JcE16rzP1ytcx9OpfyqACz2Ou7vEtGHioa0UzNjjxNxGP7WYh2Avt2kETtVerRsbCbRbR5gI97mtEh7Cq9v5NkWE50qZQoUiUFHhM7dNVN60AZux3S_PqOTg6Boz3Lr3L2ZxrkVNEteVk1gsGawK3wZmbh6pIf4xq5aV52uzU4oT11tOMFYKcJSsTzDMH9Izkg0gFjt0a_cDuk8syJmBZlI1SRbNx_nJlg0NO3wkgb3Qa-GjI4aDl8IeDNtnTuE8LDG041aU90rrYno2ta0RIXIE9NLTNQMccaNNgF73xZdjMTXvIzuo3tLJXGShSSnFCF]--></g></svg>