<?xml version="1.0" encoding="us-ascii" standalone="no"?><svg xmlns="http://www.w3.org/2000/svg" xmlns:xlink="http://www.w3.org/1999/xlink" contentStyleType="text/css" height="305px" preserveAspectRatio="none" style="width:1092px;height:305px;background:#FFFFFF;" version="1.1" viewBox="0 0 1092 305" width="1092px" zoomAndPan="magnify"><defs/><g><!--class MakeCourseEnrollmentApplicationUI--><g id="elem_MakeCourseEnrollmentApplicationUI"><rect codeLine="2" fill="#F1F1F1" height="24" id="MakeCourseEnrollmentApplicationUI" rx="1.25" ry="1.25" style="stroke:#181818;stroke-width:0.25;" width="130" x="403" y="3.5"/><ellipse cx="410.5" cy="11.5" fill="#ADD1B2" rx="5.5" ry="5.5" style="stroke:#181818;stroke-width:0.5;"/><path d="M411.8828,9.4375 Q411.9609,9.3281 412.0547,9.2734 Q412.1484,9.2188 412.2578,9.2188 Q412.4453,9.2188 412.5625,9.3516 Q412.6797,9.4766 412.6797,9.7813 L412.6797,10.5078 Q412.6797,10.8125 412.5625,10.9453 Q412.4453,11.0781 412.2578,11.0781 Q412.0859,11.0781 411.9844,10.9766 Q411.8828,10.8828 411.8281,10.625 Q411.8047,10.4453 411.7109,10.3516 Q411.5469,10.1641 411.2422,10.0547 Q410.9375,9.9453 410.625,9.9453 Q410.2422,9.9453 409.9219,10.1094 Q409.6094,10.2734 409.3594,10.6484 Q409.1172,11.0234 409.1172,11.5391 L409.1172,12.0859 Q409.1172,12.7031 409.5625,13.1172 Q410.0078,13.5234 410.8047,13.5234 Q411.2734,13.5234 411.6016,13.3984 Q411.7969,13.3203 412.0078,13.1016 Q412.1406,12.9688 412.2109,12.9297 Q412.2891,12.8906 412.3906,12.8906 Q412.5547,12.8906 412.6797,13.0234 Q412.8125,13.1484 412.8125,13.3203 Q412.8125,13.4922 412.6406,13.6953 Q412.3906,13.9844 411.9922,14.1484 Q411.4531,14.375 410.8047,14.375 Q410.0469,14.375 409.4453,14.0625 Q408.9531,13.8125 408.6094,13.2813 Q408.2656,12.7422 408.2656,12.1016 L408.2656,11.5234 Q408.2656,10.8594 408.5703,10.2891 Q408.8828,9.7109 409.4297,9.4063 Q409.9766,9.0938 410.5938,9.0938 Q410.9609,9.0938 411.2813,9.1797 Q411.6094,9.2578 411.8828,9.4375 Z " fill="#000000"/><text fill="#000000" font-family="sans-serif" font-size="7" lengthAdjust="spacing" textLength="114" x="417.5" y="14.3984">MakeCourseEnrollmentApplicationUI</text><line style="stroke:#181818;stroke-width:0.25;" x1="403.5" x2="532.5" y1="19.5" y2="19.5"/><line style="stroke:#181818;stroke-width:0.25;" x1="403.5" x2="532.5" y1="23.5" y2="23.5"/></g><!--class OpenEnrollmentCoursesAvailableToEnrollStudentSessionService--><g id="elem_OpenEnrollmentCoursesAvailableToEnrollStudentSessionService"><rect codeLine="5" fill="#F1F1F1" height="33.3105" id="OpenEnrollmentCoursesAvailableToEnrollStudentSessionService" rx="1.25" ry="1.25" style="stroke:#181818;stroke-width:0.25;" width="330.5" x="87.75" y="71.5"/><ellipse cx="148.125" cy="79.5" fill="#ADD1B2" rx="5.5" ry="5.5" style="stroke:#181818;stroke-width:0.5;"/><path d="M149.5078,77.4375 Q149.5859,77.3281 149.6797,77.2734 Q149.7734,77.2188 149.8828,77.2188 Q150.0703,77.2188 150.1875,77.3516 Q150.3047,77.4766 150.3047,77.7813 L150.3047,78.5078 Q150.3047,78.8125 150.1875,78.9453 Q150.0703,79.0781 149.8828,79.0781 Q149.7109,79.0781 149.6094,78.9766 Q149.5078,78.8828 149.4531,78.625 Q149.4297,78.4453 149.3359,78.3516 Q149.1719,78.1641 148.8672,78.0547 Q148.5625,77.9453 148.25,77.9453 Q147.8672,77.9453 147.5469,78.1094 Q147.2344,78.2734 146.9844,78.6484 Q146.7422,79.0234 146.7422,79.5391 L146.7422,80.0859 Q146.7422,80.7031 147.1875,81.1172 Q147.6328,81.5234 148.4297,81.5234 Q148.8984,81.5234 149.2266,81.3984 Q149.4219,81.3203 149.6328,81.1016 Q149.7656,80.9688 149.8359,80.9297 Q149.9141,80.8906 150.0156,80.8906 Q150.1797,80.8906 150.3047,81.0234 Q150.4375,81.1484 150.4375,81.3203 Q150.4375,81.4922 150.2656,81.6953 Q150.0156,81.9844 149.6172,82.1484 Q149.0781,82.375 148.4297,82.375 Q147.6719,82.375 147.0703,82.0625 Q146.5781,81.8125 146.2344,81.2813 Q145.8906,80.7422 145.8906,80.1016 L145.8906,79.5234 Q145.8906,78.8594 146.1953,78.2891 Q146.5078,77.7109 147.0547,77.4063 Q147.6016,77.0938 148.2188,77.0938 Q148.5859,77.0938 148.9063,77.1797 Q149.2344,77.2578 149.5078,77.4375 Z " fill="#000000"/><text fill="#000000" font-family="sans-serif" font-size="7" lengthAdjust="spacing" textLength="205.5" x="158.375" y="82.3984">OpenEnrollmentCoursesAvailableToEnrollStudentSessionService</text><line style="stroke:#181818;stroke-width:0.25;" x1="88.25" x2="417.75" y1="87.5" y2="87.5"/><line style="stroke:#181818;stroke-width:0.25;" x1="88.25" x2="417.75" y1="91.5" y2="91.5"/><ellipse cx="93.25" cy="98.9053" fill="#84BE84" rx="1.5" ry="1.5" style="stroke:#038048;stroke-width:0.5;"/><text fill="#000000" font-family="sans-serif" font-size="7" lengthAdjust="spacing" textLength="317.5" x="97.75" y="101.0537">allOpenEnrollmentCoursesAvailableToEnrollStudentSessionService(Optional&lt;UserSession&gt; session)</text></g><!--class ListOpenEnrollmentCoursesAvailableToEnrollStudentSessionService--><g id="elem_ListOpenEnrollmentCoursesAvailableToEnrollStudentSessionService"><rect codeLine="9" fill="#F1F1F1" height="61.2422" id="ListOpenEnrollmentCoursesAvailableToEnrollStudentSessionService" rx="1.25" ry="1.25" style="stroke:#181818;stroke-width:0.25;" width="320.5" x="92.75" y="158.5"/><ellipse cx="142.625" cy="166.5" fill="#ADD1B2" rx="5.5" ry="5.5" style="stroke:#181818;stroke-width:0.5;"/><path d="M144.0078,164.4375 Q144.0859,164.3281 144.1797,164.2734 Q144.2734,164.2188 144.3828,164.2188 Q144.5703,164.2188 144.6875,164.3516 Q144.8047,164.4766 144.8047,164.7813 L144.8047,165.5078 Q144.8047,165.8125 144.6875,165.9453 Q144.5703,166.0781 144.3828,166.0781 Q144.2109,166.0781 144.1094,165.9766 Q144.0078,165.8828 143.9531,165.625 Q143.9297,165.4453 143.8359,165.3516 Q143.6719,165.1641 143.3672,165.0547 Q143.0625,164.9453 142.75,164.9453 Q142.3672,164.9453 142.0469,165.1094 Q141.7344,165.2734 141.4844,165.6484 Q141.2422,166.0234 141.2422,166.5391 L141.2422,167.0859 Q141.2422,167.7031 141.6875,168.1172 Q142.1328,168.5234 142.9297,168.5234 Q143.3984,168.5234 143.7266,168.3984 Q143.9219,168.3203 144.1328,168.1016 Q144.2656,167.9688 144.3359,167.9297 Q144.4141,167.8906 144.5156,167.8906 Q144.6797,167.8906 144.8047,168.0234 Q144.9375,168.1484 144.9375,168.3203 Q144.9375,168.4922 144.7656,168.6953 Q144.5156,168.9844 144.1172,169.1484 Q143.5781,169.375 142.9297,169.375 Q142.1719,169.375 141.5703,169.0625 Q141.0781,168.8125 140.7344,168.2813 Q140.3906,167.7422 140.3906,167.1016 L140.3906,166.5234 Q140.3906,165.8594 140.6953,165.2891 Q141.0078,164.7109 141.5547,164.4063 Q142.1016,164.0938 142.7188,164.0938 Q143.0859,164.0938 143.4063,164.1797 Q143.7344,164.2578 144.0078,164.4375 Z " fill="#000000"/><text fill="#000000" font-family="sans-serif" font-size="7" lengthAdjust="spacing" textLength="216.5" x="152.875" y="169.3984">ListOpenEnrollmentCoursesAvailableToEnrollStudentSessionService</text><line style="stroke:#181818;stroke-width:0.25;" x1="93.25" x2="412.75" y1="174.5" y2="174.5"/><line style="stroke:#181818;stroke-width:0.25;" x1="93.25" x2="412.75" y1="178.5" y2="178.5"/><ellipse cx="98.25" cy="185.9053" fill="#84BE84" rx="1.5" ry="1.5" style="stroke:#038048;stroke-width:0.5;"/><text fill="#000000" font-family="sans-serif" font-size="7" lengthAdjust="spacing" textLength="146.5" x="102.75" y="188.0537">findCourseByCourseCode(String courseCode)</text><ellipse cx="98.25" cy="195.2158" fill="#84BE84" rx="1.5" ry="1.5" style="stroke:#038048;stroke-width:0.5;"/><text fill="#000000" font-family="sans-serif" font-size="7" lengthAdjust="spacing" textLength="307.5" x="102.75" y="197.3643">allOpenEnrollmentCoursesAvailableToEnrollStudentSessionService(Optional&lt;UserSession&gt; user)</text><ellipse cx="98.25" cy="204.5264" fill="#84BE84" rx="1.5" ry="1.5" style="stroke:#038048;stroke-width:0.5;"/><text fill="#000000" font-family="sans-serif" font-size="7" lengthAdjust="spacing" textLength="147" x="102.75" y="206.6748">findStudentByUsername(Username userName)</text><ellipse cx="98.25" cy="213.8369" fill="#84BE84" rx="1.5" ry="1.5" style="stroke:#038048;stroke-width:0.5;"/><text fill="#000000" font-family="sans-serif" font-size="7" lengthAdjust="spacing" textLength="89.5" x="102.75" y="215.9854">allOpenEnrollmentCourses()</text></g><!--class FindStudentByUsernameService--><g id="elem_FindStudentByUsernameService"><rect codeLine="15" fill="#F1F1F1" height="33.3105" id="FindStudentByUsernameService" rx="1.25" ry="1.25" style="stroke:#181818;stroke-width:0.25;" width="160" x="928.5" y="172.25"/><ellipse cx="955.375" cy="180.25" fill="#ADD1B2" rx="5.5" ry="5.5" style="stroke:#181818;stroke-width:0.5;"/><path d="M956.7578,178.1875 Q956.8359,178.0781 956.9297,178.0234 Q957.0234,177.9688 957.1328,177.9688 Q957.3203,177.9688 957.4375,178.1016 Q957.5547,178.2266 957.5547,178.5313 L957.5547,179.2578 Q957.5547,179.5625 957.4375,179.6953 Q957.3203,179.8281 957.1328,179.8281 Q956.9609,179.8281 956.8594,179.7266 Q956.7578,179.6328 956.7031,179.375 Q956.6797,179.1953 956.5859,179.1016 Q956.4219,178.9141 956.1172,178.8047 Q955.8125,178.6953 955.5,178.6953 Q955.1172,178.6953 954.7969,178.8594 Q954.4844,179.0234 954.2344,179.3984 Q953.9922,179.7734 953.9922,180.2891 L953.9922,180.8359 Q953.9922,181.4531 954.4375,181.8672 Q954.8828,182.2734 955.6797,182.2734 Q956.1484,182.2734 956.4766,182.1484 Q956.6719,182.0703 956.8828,181.8516 Q957.0156,181.7188 957.0859,181.6797 Q957.1641,181.6406 957.2656,181.6406 Q957.4297,181.6406 957.5547,181.7734 Q957.6875,181.8984 957.6875,182.0703 Q957.6875,182.2422 957.5156,182.4453 Q957.2656,182.7344 956.8672,182.8984 Q956.3281,183.125 955.6797,183.125 Q954.9219,183.125 954.3203,182.8125 Q953.8281,182.5625 953.4844,182.0313 Q953.1406,181.4922 953.1406,180.8516 L953.1406,180.2734 Q953.1406,179.6094 953.4453,179.0391 Q953.7578,178.4609 954.3047,178.1563 Q954.8516,177.8438 955.4688,177.8438 Q955.8359,177.8438 956.1563,177.9297 Q956.4844,178.0078 956.7578,178.1875 Z " fill="#000000"/><text fill="#000000" font-family="sans-serif" font-size="7" lengthAdjust="spacing" textLength="102" x="965.625" y="183.1484">FindStudentByUsernameService</text><line style="stroke:#181818;stroke-width:0.25;" x1="929" x2="1088" y1="188.25" y2="188.25"/><line style="stroke:#181818;stroke-width:0.25;" x1="929" x2="1088" y1="192.25" y2="192.25"/><ellipse cx="934" cy="199.6553" fill="#84BE84" rx="1.5" ry="1.5" style="stroke:#038048;stroke-width:0.5;"/><text fill="#000000" font-family="sans-serif" font-size="7" lengthAdjust="spacing" textLength="147" x="938.5" y="201.8037">findStudentByUsername(Username userName)</text></g><!--class FindCourseByCourseCodeService--><g id="elem_FindCourseByCourseCodeService"><rect codeLine="18" fill="#F1F1F1" height="33.3105" id="FindCourseByCourseCodeService" rx="1.25" ry="1.25" style="stroke:#181818;stroke-width:0.25;" width="159.5" x="430.75" y="172.25"/><ellipse cx="454.125" cy="180.25" fill="#ADD1B2" rx="5.5" ry="5.5" style="stroke:#181818;stroke-width:0.5;"/><path d="M455.5078,178.1875 Q455.5859,178.0781 455.6797,178.0234 Q455.7734,177.9688 455.8828,177.9688 Q456.0703,177.9688 456.1875,178.1016 Q456.3047,178.2266 456.3047,178.5313 L456.3047,179.2578 Q456.3047,179.5625 456.1875,179.6953 Q456.0703,179.8281 455.8828,179.8281 Q455.7109,179.8281 455.6094,179.7266 Q455.5078,179.6328 455.4531,179.375 Q455.4297,179.1953 455.3359,179.1016 Q455.1719,178.9141 454.8672,178.8047 Q454.5625,178.6953 454.25,178.6953 Q453.8672,178.6953 453.5469,178.8594 Q453.2344,179.0234 452.9844,179.3984 Q452.7422,179.7734 452.7422,180.2891 L452.7422,180.8359 Q452.7422,181.4531 453.1875,181.8672 Q453.6328,182.2734 454.4297,182.2734 Q454.8984,182.2734 455.2266,182.1484 Q455.4219,182.0703 455.6328,181.8516 Q455.7656,181.7188 455.8359,181.6797 Q455.9141,181.6406 456.0156,181.6406 Q456.1797,181.6406 456.3047,181.7734 Q456.4375,181.8984 456.4375,182.0703 Q456.4375,182.2422 456.2656,182.4453 Q456.0156,182.7344 455.6172,182.8984 Q455.0781,183.125 454.4297,183.125 Q453.6719,183.125 453.0703,182.8125 Q452.5781,182.5625 452.2344,182.0313 Q451.8906,181.4922 451.8906,180.8516 L451.8906,180.2734 Q451.8906,179.6094 452.1953,179.0391 Q452.5078,178.4609 453.0547,178.1563 Q453.6016,177.8438 454.2188,177.8438 Q454.5859,177.8438 454.9063,177.9297 Q455.2344,178.0078 455.5078,178.1875 Z " fill="#000000"/><text fill="#000000" font-family="sans-serif" font-size="7" lengthAdjust="spacing" textLength="108.5" x="464.375" y="183.1484">FindCourseByCourseCodeService</text><line style="stroke:#181818;stroke-width:0.25;" x1="431.25" x2="589.75" y1="188.25" y2="188.25"/><line style="stroke:#181818;stroke-width:0.25;" x1="431.25" x2="589.75" y1="192.25" y2="192.25"/><ellipse cx="436.25" cy="199.6553" fill="#84BE84" rx="1.5" ry="1.5" style="stroke:#038048;stroke-width:0.5;"/><text fill="#000000" font-family="sans-serif" font-size="7" lengthAdjust="spacing" textLength="146.5" x="440.75" y="201.8037">findCourseByCourseCode(String courseCode)</text></g><!--class CreateCourseEnrollmentController--><g id="elem_CreateCourseEnrollmentController"><rect codeLine="21" fill="#F1F1F1" height="42.6211" id="CreateCourseEnrollmentController" rx="1.25" ry="1.25" style="stroke:#181818;stroke-width:0.25;" width="494.5" x="435.75" y="67"/><ellipse cx="626.375" cy="75" fill="#ADD1B2" rx="5.5" ry="5.5" style="stroke:#181818;stroke-width:0.5;"/><path d="M627.7578,72.9375 Q627.8359,72.8281 627.9297,72.7734 Q628.0234,72.7188 628.1328,72.7188 Q628.3203,72.7188 628.4375,72.8516 Q628.5547,72.9766 628.5547,73.2813 L628.5547,74.0078 Q628.5547,74.3125 628.4375,74.4453 Q628.3203,74.5781 628.1328,74.5781 Q627.9609,74.5781 627.8594,74.4766 Q627.7578,74.3828 627.7031,74.125 Q627.6797,73.9453 627.5859,73.8516 Q627.4219,73.6641 627.1172,73.5547 Q626.8125,73.4453 626.5,73.4453 Q626.1172,73.4453 625.7969,73.6094 Q625.4844,73.7734 625.2344,74.1484 Q624.9922,74.5234 624.9922,75.0391 L624.9922,75.5859 Q624.9922,76.2031 625.4375,76.6172 Q625.8828,77.0234 626.6797,77.0234 Q627.1484,77.0234 627.4766,76.8984 Q627.6719,76.8203 627.8828,76.6016 Q628.0156,76.4688 628.0859,76.4297 Q628.1641,76.3906 628.2656,76.3906 Q628.4297,76.3906 628.5547,76.5234 Q628.6875,76.6484 628.6875,76.8203 Q628.6875,76.9922 628.5156,77.1953 Q628.2656,77.4844 627.8672,77.6484 Q627.3281,77.875 626.6797,77.875 Q625.9219,77.875 625.3203,77.5625 Q624.8281,77.3125 624.4844,76.7813 Q624.1406,76.2422 624.1406,75.6016 L624.1406,75.0234 Q624.1406,74.3594 624.4453,73.7891 Q624.7578,73.2109 625.3047,72.9063 Q625.8516,72.5938 626.4688,72.5938 Q626.8359,72.5938 627.1563,72.6797 Q627.4844,72.7578 627.7578,72.9375 Z " fill="#000000"/><text fill="#000000" font-family="sans-serif" font-size="7" lengthAdjust="spacing" textLength="109" x="636.625" y="77.8984">CreateCourseEnrollmentController</text><line style="stroke:#181818;stroke-width:0.25;" x1="436.25" x2="929.75" y1="83" y2="83"/><line style="stroke:#181818;stroke-width:0.25;" x1="436.25" x2="929.75" y1="87" y2="87"/><ellipse cx="441.25" cy="94.4053" fill="#84BE84" rx="1.5" ry="1.5" style="stroke:#038048;stroke-width:0.5;"/><text fill="#000000" font-family="sans-serif" font-size="7" lengthAdjust="spacing" textLength="433.5" x="445.75" y="96.5537">createCourseEnrollment(CourseDTO selectedCourse, Optional&lt;UserSession&gt; session, StudentEnrollmentState studentEnrollmentState) {</text><ellipse cx="441.25" cy="103.7158" fill="#84BE84" rx="1.5" ry="1.5" style="stroke:#038048;stroke-width:0.5;"/><text fill="#000000" font-family="sans-serif" font-size="7" lengthAdjust="spacing" textLength="481.5" x="445.75" y="105.8643">createCourseEnrollment(Course course, Student student, CourseEnrollmentDate courseEnrollmentDate,StudentEnrollmentState studentEnrollmentState)</text></g><!--class CourseEnrollmentBuilder--><g id="elem_CourseEnrollmentBuilder"><rect codeLine="25" fill="#F1F1F1" height="79.8633" id="CourseEnrollmentBuilder" rx="1.25" ry="1.25" style="stroke:#181818;stroke-width:0.25;" width="253" x="658" y="149"/><ellipse cx="743.125" cy="157" fill="#ADD1B2" rx="5.5" ry="5.5" style="stroke:#181818;stroke-width:0.5;"/><path d="M744.5078,154.9375 Q744.5859,154.8281 744.6797,154.7734 Q744.7734,154.7188 744.8828,154.7188 Q745.0703,154.7188 745.1875,154.8516 Q745.3047,154.9766 745.3047,155.2813 L745.3047,156.0078 Q745.3047,156.3125 745.1875,156.4453 Q745.0703,156.5781 744.8828,156.5781 Q744.7109,156.5781 744.6094,156.4766 Q744.5078,156.3828 744.4531,156.125 Q744.4297,155.9453 744.3359,155.8516 Q744.1719,155.6641 743.8672,155.5547 Q743.5625,155.4453 743.25,155.4453 Q742.8672,155.4453 742.5469,155.6094 Q742.2344,155.7734 741.9844,156.1484 Q741.7422,156.5234 741.7422,157.0391 L741.7422,157.5859 Q741.7422,158.2031 742.1875,158.6172 Q742.6328,159.0234 743.4297,159.0234 Q743.8984,159.0234 744.2266,158.8984 Q744.4219,158.8203 744.6328,158.6016 Q744.7656,158.4688 744.8359,158.4297 Q744.9141,158.3906 745.0156,158.3906 Q745.1797,158.3906 745.3047,158.5234 Q745.4375,158.6484 745.4375,158.8203 Q745.4375,158.9922 745.2656,159.1953 Q745.0156,159.4844 744.6172,159.6484 Q744.0781,159.875 743.4297,159.875 Q742.6719,159.875 742.0703,159.5625 Q741.5781,159.3125 741.2344,158.7813 Q740.8906,158.2422 740.8906,157.6016 L740.8906,157.0234 Q740.8906,156.3594 741.1953,155.7891 Q741.5078,155.2109 742.0547,154.9063 Q742.6016,154.5938 743.2188,154.5938 Q743.5859,154.5938 743.9063,154.6797 Q744.2344,154.7578 744.5078,154.9375 Z " fill="#000000"/><text fill="#000000" font-family="sans-serif" font-size="7" lengthAdjust="spacing" textLength="78.5" x="753.375" y="159.8984">CourseEnrollmentBuilder</text><line style="stroke:#181818;stroke-width:0.25;" x1="658.5" x2="910.5" y1="165" y2="165"/><line style="stroke:#181818;stroke-width:0.25;" x1="658.5" x2="910.5" y1="169" y2="169"/><ellipse cx="663.5" cy="176.4053" fill="#84BE84" rx="1.5" ry="1.5" style="stroke:#038048;stroke-width:0.5;"/><text fill="#000000" font-family="sans-serif" font-size="7" lengthAdjust="spacing" textLength="47.5" x="668" y="178.5537">buildOrThrow()</text><ellipse cx="663.5" cy="185.7158" fill="#84BE84" rx="1.5" ry="1.5" style="stroke:#038048;stroke-width:0.5;"/><text fill="#000000" font-family="sans-serif" font-size="7" lengthAdjust="spacing" textLength="20" x="668" y="187.8643">build()</text><ellipse cx="663.5" cy="195.0264" fill="#84BE84" rx="1.5" ry="1.5" style="stroke:#038048;stroke-width:0.5;"/><text fill="#000000" font-family="sans-serif" font-size="7" lengthAdjust="spacing" textLength="91.5" x="668" y="197.1748">withStudent(Student student)</text><ellipse cx="663.5" cy="204.3369" fill="#84BE84" rx="1.5" ry="1.5" style="stroke:#038048;stroke-width:0.5;"/><text fill="#000000" font-family="sans-serif" font-size="7" lengthAdjust="spacing" textLength="86.5" x="668" y="206.4854">withCourse(Course course)</text><ellipse cx="663.5" cy="213.6475" fill="#84BE84" rx="1.5" ry="1.5" style="stroke:#038048;stroke-width:0.5;"/><text fill="#000000" font-family="sans-serif" font-size="7" lengthAdjust="spacing" textLength="240" x="668" y="215.7959">withCourseEnrollmentState(StudentEnrollmentState studentEnrollmentState)</text><ellipse cx="663.5" cy="222.958" fill="#84BE84" rx="1.5" ry="1.5" style="stroke:#038048;stroke-width:0.5;"/><text fill="#000000" font-family="sans-serif" font-size="7" lengthAdjust="spacing" textLength="192.5" x="668" y="225.1064">withCourseEnrollmentDate(LocalDate courseEnrollmentDate)</text></g><!--class CourseEnrollment--><g id="elem_CourseEnrollment"><rect codeLine="33" fill="#F1F1F1" height="33.3105" id="CourseEnrollment" rx="1.25" ry="1.25" style="stroke:#181818;stroke-width:0.25;" width="332" x="618.5" y="268.5"/><ellipse cx="754.125" cy="276.5" fill="#ADD1B2" rx="5.5" ry="5.5" style="stroke:#181818;stroke-width:0.5;"/><path d="M755.5078,274.4375 Q755.5859,274.3281 755.6797,274.2734 Q755.7734,274.2188 755.8828,274.2188 Q756.0703,274.2188 756.1875,274.3516 Q756.3047,274.4766 756.3047,274.7813 L756.3047,275.5078 Q756.3047,275.8125 756.1875,275.9453 Q756.0703,276.0781 755.8828,276.0781 Q755.7109,276.0781 755.6094,275.9766 Q755.5078,275.8828 755.4531,275.625 Q755.4297,275.4453 755.3359,275.3516 Q755.1719,275.1641 754.8672,275.0547 Q754.5625,274.9453 754.25,274.9453 Q753.8672,274.9453 753.5469,275.1094 Q753.2344,275.2734 752.9844,275.6484 Q752.7422,276.0234 752.7422,276.5391 L752.7422,277.0859 Q752.7422,277.7031 753.1875,278.1172 Q753.6328,278.5234 754.4297,278.5234 Q754.8984,278.5234 755.2266,278.3984 Q755.4219,278.3203 755.6328,278.1016 Q755.7656,277.9688 755.8359,277.9297 Q755.9141,277.8906 756.0156,277.8906 Q756.1797,277.8906 756.3047,278.0234 Q756.4375,278.1484 756.4375,278.3203 Q756.4375,278.4922 756.2656,278.6953 Q756.0156,278.9844 755.6172,279.1484 Q755.0781,279.375 754.4297,279.375 Q753.6719,279.375 753.0703,279.0625 Q752.5781,278.8125 752.2344,278.2813 Q751.8906,277.7422 751.8906,277.1016 L751.8906,276.5234 Q751.8906,275.8594 752.1953,275.2891 Q752.5078,274.7109 753.0547,274.4063 Q753.6016,274.0938 754.2188,274.0938 Q754.5859,274.0938 754.9063,274.1797 Q755.2344,274.2578 755.5078,274.4375 Z " fill="#000000"/><text fill="#000000" font-family="sans-serif" font-size="7" lengthAdjust="spacing" textLength="56.5" x="764.375" y="279.3984">CourseEnrollment</text><line style="stroke:#181818;stroke-width:0.25;" x1="619" x2="950" y1="284.5" y2="284.5"/><line style="stroke:#181818;stroke-width:0.25;" x1="619" x2="950" y1="288.5" y2="288.5"/><ellipse cx="624" cy="295.9053" fill="#84BE84" rx="1.5" ry="1.5" style="stroke:#038048;stroke-width:0.5;"/><text fill="#000000" font-family="sans-serif" font-size="7" lengthAdjust="spacing" textLength="319" x="628.5" y="298.0537">CourseEnrollment(LocalDate courseEnrollmentDate, StudentEnrollmentState studentEnrollmentState,</text></g><!--class StudentRepository--><g id="elem_StudentRepository"><rect codeLine="36" fill="#F1F1F1" height="33.3105" id="StudentRepository" rx="1.25" ry="1.25" style="stroke:#181818;stroke-width:0.25;" width="160" x="3.5" y="268.5"/><ellipse cx="52.125" cy="276.5" fill="#ADD1B2" rx="5.5" ry="5.5" style="stroke:#181818;stroke-width:0.5;"/><path d="M53.5078,274.4375 Q53.5859,274.3281 53.6797,274.2734 Q53.7734,274.2188 53.8828,274.2188 Q54.0703,274.2188 54.1875,274.3516 Q54.3047,274.4766 54.3047,274.7813 L54.3047,275.5078 Q54.3047,275.8125 54.1875,275.9453 Q54.0703,276.0781 53.8828,276.0781 Q53.7109,276.0781 53.6094,275.9766 Q53.5078,275.8828 53.4531,275.625 Q53.4297,275.4453 53.3359,275.3516 Q53.1719,275.1641 52.8672,275.0547 Q52.5625,274.9453 52.25,274.9453 Q51.8672,274.9453 51.5469,275.1094 Q51.2344,275.2734 50.9844,275.6484 Q50.7422,276.0234 50.7422,276.5391 L50.7422,277.0859 Q50.7422,277.7031 51.1875,278.1172 Q51.6328,278.5234 52.4297,278.5234 Q52.8984,278.5234 53.2266,278.3984 Q53.4219,278.3203 53.6328,278.1016 Q53.7656,277.9688 53.8359,277.9297 Q53.9141,277.8906 54.0156,277.8906 Q54.1797,277.8906 54.3047,278.0234 Q54.4375,278.1484 54.4375,278.3203 Q54.4375,278.4922 54.2656,278.6953 Q54.0156,278.9844 53.6172,279.1484 Q53.0781,279.375 52.4297,279.375 Q51.6719,279.375 51.0703,279.0625 Q50.5781,278.8125 50.2344,278.2813 Q49.8906,277.7422 49.8906,277.1016 L49.8906,276.5234 Q49.8906,275.8594 50.1953,275.2891 Q50.5078,274.7109 51.0547,274.4063 Q51.6016,274.0938 52.2188,274.0938 Q52.5859,274.0938 52.9063,274.1797 Q53.2344,274.2578 53.5078,274.4375 Z " fill="#000000"/><text fill="#000000" font-family="sans-serif" font-size="7" lengthAdjust="spacing" textLength="58.5" x="62.375" y="279.3984">StudentRepository</text><line style="stroke:#181818;stroke-width:0.25;" x1="4" x2="163" y1="284.5" y2="284.5"/><line style="stroke:#181818;stroke-width:0.25;" x1="4" x2="163" y1="288.5" y2="288.5"/><ellipse cx="9" cy="295.9053" fill="#84BE84" rx="1.5" ry="1.5" style="stroke:#038048;stroke-width:0.5;"/><text fill="#000000" font-family="sans-serif" font-size="7" lengthAdjust="spacing" textLength="147" x="13.5" y="298.0537">findStudentByUsername(Username userName)</text></g><!--class CourseRepository--><g id="elem_CourseRepository"><rect codeLine="40" fill="#F1F1F1" height="33.3105" id="CourseRepository" rx="1.25" ry="1.25" style="stroke:#181818;stroke-width:0.25;" width="159.5" x="181.25" y="268.5"/><ellipse cx="230.375" cy="276.5" fill="#ADD1B2" rx="5.5" ry="5.5" style="stroke:#181818;stroke-width:0.5;"/><path d="M231.7578,274.4375 Q231.8359,274.3281 231.9297,274.2734 Q232.0234,274.2188 232.1328,274.2188 Q232.3203,274.2188 232.4375,274.3516 Q232.5547,274.4766 232.5547,274.7813 L232.5547,275.5078 Q232.5547,275.8125 232.4375,275.9453 Q232.3203,276.0781 232.1328,276.0781 Q231.9609,276.0781 231.8594,275.9766 Q231.7578,275.8828 231.7031,275.625 Q231.6797,275.4453 231.5859,275.3516 Q231.4219,275.1641 231.1172,275.0547 Q230.8125,274.9453 230.5,274.9453 Q230.1172,274.9453 229.7969,275.1094 Q229.4844,275.2734 229.2344,275.6484 Q228.9922,276.0234 228.9922,276.5391 L228.9922,277.0859 Q228.9922,277.7031 229.4375,278.1172 Q229.8828,278.5234 230.6797,278.5234 Q231.1484,278.5234 231.4766,278.3984 Q231.6719,278.3203 231.8828,278.1016 Q232.0156,277.9688 232.0859,277.9297 Q232.1641,277.8906 232.2656,277.8906 Q232.4297,277.8906 232.5547,278.0234 Q232.6875,278.1484 232.6875,278.3203 Q232.6875,278.4922 232.5156,278.6953 Q232.2656,278.9844 231.8672,279.1484 Q231.3281,279.375 230.6797,279.375 Q229.9219,279.375 229.3203,279.0625 Q228.8281,278.8125 228.4844,278.2813 Q228.1406,277.7422 228.1406,277.1016 L228.1406,276.5234 Q228.1406,275.8594 228.4453,275.2891 Q228.7578,274.7109 229.3047,274.4063 Q229.8516,274.0938 230.4688,274.0938 Q230.8359,274.0938 231.1563,274.1797 Q231.4844,274.2578 231.7578,274.4375 Z " fill="#000000"/><text fill="#000000" font-family="sans-serif" font-size="7" lengthAdjust="spacing" textLength="57" x="240.625" y="279.3984">CourseRepository</text><line style="stroke:#181818;stroke-width:0.25;" x1="181.75" x2="340.25" y1="284.5" y2="284.5"/><line style="stroke:#181818;stroke-width:0.25;" x1="181.75" x2="340.25" y1="288.5" y2="288.5"/><ellipse cx="186.75" cy="295.9053" fill="#84BE84" rx="1.5" ry="1.5" style="stroke:#038048;stroke-width:0.5;"/><text fill="#000000" font-family="sans-serif" font-size="7" lengthAdjust="spacing" textLength="146.5" x="191.25" y="298.0537">findCourseByCourseCode(String courseCode)</text></g><!--class CourseEnrollmentRepository--><g id="elem_CourseEnrollmentRepository"><rect codeLine="44" fill="#F1F1F1" height="33.3105" id="CourseEnrollmentRepository" rx="1.25" ry="1.25" style="stroke:#181818;stroke-width:0.25;" width="219.5" x="373.75" y="268.5"/><ellipse cx="436.125" cy="276.5" fill="#ADD1B2" rx="5.5" ry="5.5" style="stroke:#181818;stroke-width:0.5;"/><path d="M437.5078,274.4375 Q437.5859,274.3281 437.6797,274.2734 Q437.7734,274.2188 437.8828,274.2188 Q438.0703,274.2188 438.1875,274.3516 Q438.3047,274.4766 438.3047,274.7813 L438.3047,275.5078 Q438.3047,275.8125 438.1875,275.9453 Q438.0703,276.0781 437.8828,276.0781 Q437.7109,276.0781 437.6094,275.9766 Q437.5078,275.8828 437.4531,275.625 Q437.4297,275.4453 437.3359,275.3516 Q437.1719,275.1641 436.8672,275.0547 Q436.5625,274.9453 436.25,274.9453 Q435.8672,274.9453 435.5469,275.1094 Q435.2344,275.2734 434.9844,275.6484 Q434.7422,276.0234 434.7422,276.5391 L434.7422,277.0859 Q434.7422,277.7031 435.1875,278.1172 Q435.6328,278.5234 436.4297,278.5234 Q436.8984,278.5234 437.2266,278.3984 Q437.4219,278.3203 437.6328,278.1016 Q437.7656,277.9688 437.8359,277.9297 Q437.9141,277.8906 438.0156,277.8906 Q438.1797,277.8906 438.3047,278.0234 Q438.4375,278.1484 438.4375,278.3203 Q438.4375,278.4922 438.2656,278.6953 Q438.0156,278.9844 437.6172,279.1484 Q437.0781,279.375 436.4297,279.375 Q435.6719,279.375 435.0703,279.0625 Q434.5781,278.8125 434.2344,278.2813 Q433.8906,277.7422 433.8906,277.1016 L433.8906,276.5234 Q433.8906,275.8594 434.1953,275.2891 Q434.5078,274.7109 435.0547,274.4063 Q435.6016,274.0938 436.2188,274.0938 Q436.5859,274.0938 436.9063,274.1797 Q437.2344,274.2578 437.5078,274.4375 Z " fill="#000000"/><text fill="#000000" font-family="sans-serif" font-size="7" lengthAdjust="spacing" textLength="90.5" x="446.375" y="279.3984">CourseEnrollmentRepository</text><line style="stroke:#181818;stroke-width:0.25;" x1="374.25" x2="592.75" y1="284.5" y2="284.5"/><line style="stroke:#181818;stroke-width:0.25;" x1="374.25" x2="592.75" y1="288.5" y2="288.5"/><ellipse cx="379.25" cy="295.9053" fill="#84BE84" rx="1.5" ry="1.5" style="stroke:#038048;stroke-width:0.5;"/><text fill="#000000" font-family="sans-serif" font-size="7" lengthAdjust="spacing" textLength="206.5" x="383.75" y="298.0537">checkIfStudentEnrolledInCourse(Course course, Student student)</text></g><!--link MakeCourseEnrollmentApplicationUI to OpenEnrollmentCoursesAvailableToEnrollStudentSessionService--><g id="link_MakeCourseEnrollmentApplicationUI_OpenEnrollmentCoursesAvailableToEnrollStudentSessionService"><path codeLine="47" d="M433.455,27.53 C398.61,39.155 344.4,57.245 304.485,70.57 " fill="none" id="MakeCourseEnrollmentApplicationUI-to-OpenEnrollmentCoursesAvailableToEnrollStudentSessionService" style="stroke:#181818;stroke-width:0.5;"/><polygon fill="#181818" points="301.88,71.44,306.782,71.9099,304.251,70.6473,305.5136,68.1163,301.88,71.44" style="stroke:#181818;stroke-width:0.5;"/><text fill="#000000" font-family="sans-serif" font-size="6.5" lengthAdjust="spacing" textLength="14" x="387" y="50.0142">uses</text></g><!--link OpenEnrollmentCoursesAvailableToEnrollStudentSessionService to ListOpenEnrollmentCoursesAvailableToEnrollStudentSessionService--><g id="link_OpenEnrollmentCoursesAvailableToEnrollStudentSessionService_ListOpenEnrollmentCoursesAvailableToEnrollStudentSessionService"><path codeLine="48" d="M253,105.22 C253,118.93 253,138.87 253,155.805 " fill="none" id="OpenEnrollmentCoursesAvailableToEnrollStudentSessionService-to-ListOpenEnrollmentCoursesAvailableToEnrollStudentSessionService" style="stroke:#181818;stroke-width:0.5;"/><polygon fill="#181818" points="253,158.495,255,153.995,253,155.995,251,153.995,253,158.495" style="stroke:#181818;stroke-width:0.5;"/><text fill="#000000" font-family="sans-serif" font-size="6.5" lengthAdjust="spacing" textLength="14" x="253.5" y="132.0142">uses</text></g><!--link ListOpenEnrollmentCoursesAvailableToEnrollStudentSessionService to CourseEnrollmentRepository--><g id="link_ListOpenEnrollmentCoursesAvailableToEnrollStudentSessionService_CourseEnrollmentRepository"><path codeLine="49" d="M325.615,219.505 C363.815,235.29 409.285,254.08 441.595,267.435 " fill="none" id="ListOpenEnrollmentCoursesAvailableToEnrollStudentSessionService-to-CourseEnrollmentRepository" style="stroke:#181818;stroke-width:0.5;"/><polygon fill="#181818" points="444.095,268.465,440.6916,264.906,441.7823,267.5156,439.1726,268.6063,444.095,268.465" style="stroke:#181818;stroke-width:0.5;"/><text fill="#000000" font-family="sans-serif" font-size="6.5" lengthAdjust="spacing" textLength="14" x="403" y="251.5142">uses</text></g><!--link ListOpenEnrollmentCoursesAvailableToEnrollStudentSessionService to CourseRepository--><g id="link_ListOpenEnrollmentCoursesAvailableToEnrollStudentSessionService_CourseRepository"><path codeLine="50" d="M255.52,219.505 C256.795,234.69 258.305,252.655 259.415,265.885 " fill="none" id="ListOpenEnrollmentCoursesAvailableToEnrollStudentSessionService-to-CourseRepository" style="stroke:#181818;stroke-width:0.5;"/><polygon fill="#181818" points="259.63,268.465,261.2373,263.8102,259.4159,265.9742,257.252,264.1528,259.63,268.465" style="stroke:#181818;stroke-width:0.5;"/><text fill="#000000" font-family="sans-serif" font-size="6.5" lengthAdjust="spacing" textLength="14" x="259" y="251.5142">uses</text></g><!--link ListOpenEnrollmentCoursesAvailableToEnrollStudentSessionService to StudentRepository--><g id="link_ListOpenEnrollmentCoursesAvailableToEnrollStudentSessionService_StudentRepository"><path codeLine="51" d="M199.6,219.505 C171.68,235.195 138.48,253.855 114.745,267.19 " fill="none" id="ListOpenEnrollmentCoursesAvailableToEnrollStudentSessionService-to-StudentRepository" style="stroke:#181818;stroke-width:0.5;"/><polygon fill="#181818" points="112.48,268.465,117.3833,268.0088,114.6607,267.2424,115.4271,264.5198,112.48,268.465" style="stroke:#181818;stroke-width:0.5;"/><text fill="#000000" font-family="sans-serif" font-size="6.5" lengthAdjust="spacing" textLength="14" x="154" y="251.5142">uses</text></g><!--link CreateCourseEnrollmentController to CourseEnrollmentBuilder--><g id="link_CreateCourseEnrollmentController_CourseEnrollmentBuilder"><path codeLine="52" d="M704.28,109.66 C715.305,120.495 729.17,134.125 742.26,146.985 " fill="none" id="CreateCourseEnrollmentController-to-CourseEnrollmentBuilder" style="stroke:#181818;stroke-width:0.5;"/><polygon fill="#181818" points="744.185,148.88,742.3802,144.2982,742.403,147.1265,739.5747,147.1494,744.185,148.88" style="stroke:#181818;stroke-width:0.5;"/><text fill="#000000" font-family="sans-serif" font-size="6.5" lengthAdjust="spacing" textLength="14" x="728" y="132.0142">uses</text></g><!--link CourseEnrollmentBuilder to CourseEnrollment--><g id="link_CourseEnrollmentBuilder_CourseEnrollment"><path codeLine="53" d="M784.5,229.065 C784.5,241.79 784.5,255.3 784.5,265.83 " fill="none" id="CourseEnrollmentBuilder-to-CourseEnrollment" style="stroke:#181818;stroke-width:0.5;"/><polygon fill="#181818" points="784.5,268.44,786.5,263.94,784.5,265.94,782.5,263.94,784.5,268.44" style="stroke:#181818;stroke-width:0.5;"/><text fill="#000000" font-family="sans-serif" font-size="6.5" lengthAdjust="spacing" textLength="14" x="785" y="251.5142">uses</text></g><!--link CreateCourseEnrollmentController to CourseEnrollmentRepository--><g id="link_CreateCourseEnrollmentController_CourseEnrollmentRepository"><path codeLine="54" d="M663.7,109.585 C654,120.73 642.53,135.015 634,149 C613.795,182.135 625.925,201.05 599,229 C582.49,246.14 559.63,258.685 538.605,267.485 " fill="none" id="CreateCourseEnrollmentController-to-CourseEnrollmentRepository" style="stroke:#181818;stroke-width:0.5;"/><polygon fill="#181818" points="536.185,268.485,541.1078,268.6133,538.4952,267.5295,539.579,264.917,536.185,268.485" style="stroke:#181818;stroke-width:0.5;"/><text fill="#000000" font-family="sans-serif" font-size="6.5" lengthAdjust="spacing" textLength="14" x="634.5" y="191.7642">uses</text></g><!--link CreateCourseEnrollmentController to FindStudentByUsernameService--><g id="link_CreateCourseEnrollmentController_FindStudentByUsernameService"><path codeLine="55" d="M780.245,109.51 C823.535,119.76 874.835,133.31 920,149 C937.95,155.235 957.29,163.66 973.295,171.125 " fill="none" id="CreateCourseEnrollmentController-to-FindStudentByUsernameService" style="stroke:#181818;stroke-width:0.5;"/><polygon fill="#181818" points="975.635,172.22,972.4036,168.5041,973.3697,171.1624,970.7114,172.1285,975.635,172.22" style="stroke:#181818;stroke-width:0.5;"/><text fill="#000000" font-family="sans-serif" font-size="6.5" lengthAdjust="spacing" textLength="14" x="869" y="132.0142">uses</text></g><!--link CreateCourseEnrollmentController to FindCourseByCourseCodeService--><g id="link_CreateCourseEnrollmentController_FindCourseByCourseCodeService"><path codeLine="56" d="M627.795,109.55 C617.515,114.06 607.02,119.11 597.5,124.5 C573.745,137.95 548.87,156.8 531.835,170.56 " fill="none" id="CreateCourseEnrollmentController-to-FindCourseByCourseCodeService" style="stroke:#181818;stroke-width:0.5;"/><polygon fill="#181818" points="529.795,172.21,534.5515,170.9351,531.7388,170.6378,532.0361,167.8251,529.795,172.21" style="stroke:#181818;stroke-width:0.5;"/><text fill="#000000" font-family="sans-serif" font-size="6.5" lengthAdjust="spacing" textLength="14" x="598" y="132.0142">uses</text></g><!--link MakeCourseEnrollmentApplicationUI to CreateCourseEnrollmentController--><g id="link_MakeCourseEnrollmentApplicationUI_CreateCourseEnrollmentController"><path codeLine="57" d="M502.545,27.53 C533.67,37.915 580.255,53.46 618.295,66.155 " fill="none" id="MakeCourseEnrollmentApplicationUI-to-CreateCourseEnrollmentController" style="stroke:#181818;stroke-width:0.5;"/><polygon fill="#181818" points="620.785,66.99,617.1424,63.6762,618.4119,66.2037,615.8843,67.4732,620.785,66.99" style="stroke:#181818;stroke-width:0.5;"/><text fill="#000000" font-family="sans-serif" font-size="6.5" lengthAdjust="spacing" textLength="14" x="576" y="50.0142">uses</text></g><!--SRC=[jPNVJi8m5CRlznIzxE9y0MD813KXGPSuV83I7QMnj4jRD8JuxgvitM3hW37XXluxl_ETh-rAET4QlP0lcCYrql0abEHy1S8yP1bdb1WcnVjq6_m60TsjZJCGzQeYIZzy4yR9WiDS5dE9MQVvT09Qvu04r3UZi0rG_hj1XFC151ndLXJXz-yQL3atGhfeXBNI6TFc7zH-C94MWUDDyJ-HAU34A2O-4Qr6mcjMjyuxuPwWCdQyiQi4MG5sZTtIrxnnIW-sLXLEFVk87XlEoheFRVjsiRaEEr50JEkqJgGmjWtAaQbt7Iu67kTnVc0uK0Db-WWTFLOHAcklKOd9-KXxXqDqbeoom0hkQ15g1ZpQNDGp6FNJLTlOO8tNZAUrUmlRZTLygUGF3lS7gzuFCyioEMxetrzI93eik3tVq8bxLjMDinxXcQI4TrhOROfpexLznu4z3qjKvI_3tY2JcXcfDjkWnyLhbD6cd7VHEjqu1D8bqA_fnq6ba4w5RxzR1znQVlBHkRqT3Nbjq9trHWS345R1m5V4gHY8iKgwz-FVarm5tJhTZdtga-uhllnULGZ_j2zoIDRBj1zxNljoEbzK1phhMftAvc1_]--></g></svg>