<?xml version="1.0" encoding="us-ascii" standalone="no"?><svg xmlns="http://www.w3.org/2000/svg" xmlns:xlink="http://www.w3.org/1999/xlink" contentStyleType="text/css" height="853px" preserveAspectRatio="none" style="width:438px;height:853px;background:#282828;" version="1.1" viewBox="0 0 438 853" width="438px" zoomAndPan="magnify"><defs/><g><rect fill="#282828" height="853" style="stroke:none;stroke-width:0.5;" width="438" x="0" y="0"/><!--cluster <<agr Course>>--><g id="cluster_&lt;&lt;agr Course&gt;&gt;"><path d="M287.75,507.5 L343.25,507.5 A1.875,1.875 0 0 1 344.5,508.75 L348,519.0073 L433.25,519.0073 A1.25,1.25 0 0 1 434.5,520.2573 L434.5,848.25 A1.25,1.25 0 0 1 433.25,849.5 L287.75,849.5 A1.25,1.25 0 0 1 286.5,848.25 L286.5,508.75 A1.25,1.25 0 0 1 287.75,507.5 " fill="#282828" style="stroke:#33FF33;stroke-width:0.5;"/><line style="stroke:#33FF33;stroke-width:0.5;" x1="286.5" x2="348" y1="519.0073" y2="519.0073"/><text fill="#33FF33" font-family="Verdana" font-size="7" font-weight="bold" lengthAdjust="spacing" textLength="55" x="288.5" y="515.5376">&#171;agr Course&#187;</text></g><!--cluster <<agr Student>>--><g id="cluster_&lt;&lt;agr Student&gt;&gt;"><path d="M6.75,5.5 L65.25,5.5 A1.875,1.875 0 0 1 66.5,6.75 L70,17.0073 L206.75,17.0073 A1.25,1.25 0 0 1 208,18.2573 L208,332.25 A1.25,1.25 0 0 1 206.75,333.5 L6.75,333.5 A1.25,1.25 0 0 1 5.5,332.25 L5.5,6.75 A1.25,1.25 0 0 1 6.75,5.5 " fill="#282828" style="stroke:#33FF33;stroke-width:0.5;"/><line style="stroke:#33FF33;stroke-width:0.5;" x1="5.5" x2="70" y1="17.0073" y2="17.0073"/><text fill="#33FF33" font-family="Verdana" font-size="7" font-weight="bold" lengthAdjust="spacing" textLength="58" x="7.5" y="13.5376">&#171;agr Student&#187;</text></g><!--cluster <<agr CourseEnrollment>>--><g id="cluster_&lt;&lt;agr CourseEnrollment&gt;&gt;"><path d="M114.5,345.5 L212,345.5 A1.875,1.875 0 0 1 213.25,346.75 L216.75,357.0073 L359.25,357.0073 A1.25,1.25 0 0 1 360.5,358.2573 L360.5,494.25 A1.25,1.25 0 0 1 359.25,495.5 L114.5,495.5 A1.25,1.25 0 0 1 113.25,494.25 L113.25,346.75 A1.25,1.25 0 0 1 114.5,345.5 " fill="#282828" style="stroke:#33FF33;stroke-width:0.5;"/><line style="stroke:#33FF33;stroke-width:0.5;" x1="113.25" x2="216.75" y1="357.0073" y2="357.0073"/><text fill="#33FF33" font-family="Verdana" font-size="7" font-weight="bold" lengthAdjust="spacing" textLength="97" x="115.25" y="353.5376">&#171;agr CourseEnrollment&#187;</text></g><!--class Course--><g id="elem_Course"><rect codeLine="9" fill="#282828" height="28.0913" id="Course" rx="1.25" ry="1.25" style="stroke:#33FF33;stroke-width:0.5;" width="28" x="294.5" y="625"/><text fill="#33FF33" font-family="Verdana" font-size="6" font-style="italic" lengthAdjust="spacing" textLength="25.5" x="295.75" y="633.5322">&#171;entity&#187;</text><text fill="#33FF33" font-family="Verdana" font-size="6" font-style="italic" lengthAdjust="spacing" textLength="20" x="298.5" y="640.8242">&#171;root&#187;</text><text fill="#33FF33" font-family="Verdana" font-size="7" lengthAdjust="spacing" textLength="25" x="296" y="649.1216">Course</text></g><!--class Code--><g id="elem_Code"><rect codeLine="10" fill="#282828" height="20.7993" id="Code" rx="1.25" ry="1.25" style="stroke:#33FF33;stroke-width:0.5;" width="21" x="394.75" y="820.5"/><text fill="#33FF33" font-family="Verdana" font-size="6" font-style="italic" lengthAdjust="spacing" textLength="15" x="397.75" y="829.0322">&#171;vo&#187;</text><text fill="#33FF33" font-family="Verdana" font-size="7" lengthAdjust="spacing" textLength="18" x="396.25" y="837.3296">Code</text></g><!--class Description--><g id="elem_Description"><rect codeLine="11" fill="#282828" height="20.7993" id="Description" rx="1.25" ry="1.25" style="stroke:#33FF33;stroke-width:0.5;" width="42.5" x="384" y="724.5"/><text fill="#33FF33" font-family="Verdana" font-size="6" font-style="italic" lengthAdjust="spacing" textLength="15" x="397.75" y="733.0322">&#171;vo&#187;</text><text fill="#33FF33" font-family="Verdana" font-size="7" lengthAdjust="spacing" textLength="39.5" x="385.5" y="741.3296">Description</text></g><!--class Title--><g id="elem_Title"><rect codeLine="12" fill="#282828" height="20.7993" id="Title" rx="1.25" ry="1.25" style="stroke:#33FF33;stroke-width:0.5;" width="17.5" x="396.5" y="628.5"/><text fill="#33FF33" font-family="Verdana" font-size="6" font-style="italic" lengthAdjust="spacing" textLength="15" x="397.75" y="637.0322">&#171;vo&#187;</text><text fill="#33FF33" font-family="Verdana" font-size="7" lengthAdjust="spacing" textLength="14.5" x="398" y="645.3296">Title</text></g><!--class State--><g id="elem_State"><rect codeLine="13" fill="#282828" height="28.0913" id="State" rx="1.25" ry="1.25" style="stroke:#33FF33;stroke-width:0.5;" width="26.5" x="392" y="525.5"/><text fill="#33FF33" font-family="Verdana" font-size="6" font-style="italic" lengthAdjust="spacing" textLength="15" x="397.75" y="534.0322">&#171;vo&#187;</text><text fill="#33FF33" font-family="Verdana" font-size="6" font-style="italic" lengthAdjust="spacing" textLength="25.5" x="392.5" y="541.3242">&#171;enum&#187;</text><text fill="#33FF33" font-family="Verdana" font-size="7" lengthAdjust="spacing" textLength="19" x="395.75" y="549.6216">State</text></g><!--class Student--><g id="elem_Student"><rect codeLine="24" fill="#282828" height="28.0913" id="Student" rx="1.25" ry="1.25" style="stroke:#33FF33;stroke-width:0.5;" width="31.5" x="13.5" y="205"/><text fill="#33FF33" font-family="Verdana" font-size="6" font-style="italic" lengthAdjust="spacing" textLength="25.5" x="16.5" y="213.5322">&#171;entity&#187;</text><text fill="#33FF33" font-family="Verdana" font-size="6" font-style="italic" lengthAdjust="spacing" textLength="20" x="19.25" y="220.8242">&#171;root&#187;</text><text fill="#33FF33" font-family="Verdana" font-size="7" lengthAdjust="spacing" textLength="28.5" x="15" y="229.1216">Student</text></g><!--class MechanographicalNumber--><g id="elem_MechanographicalNumber"><rect codeLine="25" fill="#282828" height="20.7993" id="MechanographicalNumber" rx="1.25" ry="1.25" style="stroke:#33FF33;stroke-width:0.5;" width="92" x="108" y="304.5"/><text fill="#33FF33" font-family="Verdana" font-size="6" font-style="italic" lengthAdjust="spacing" textLength="15" x="146.5" y="313.0322">&#171;vo&#187;</text><text fill="#33FF33" font-family="Verdana" font-size="7" lengthAdjust="spacing" textLength="89" x="109.5" y="321.3296">MechanographicalNumber</text></g><!--class StudentTaxPayerNumber--><g id="elem_StudentTaxPayerNumber"><rect codeLine="26" fill="#282828" height="20.7993" id="StudentTaxPayerNumber" rx="1.25" ry="1.25" style="stroke:#33FF33;stroke-width:0.5;" width="91" x="108.5" y="208.5"/><text fill="#33FF33" font-family="Verdana" font-size="6" font-style="italic" lengthAdjust="spacing" textLength="15" x="146.5" y="217.0322">&#171;vo&#187;</text><text fill="#33FF33" font-family="Verdana" font-size="7" lengthAdjust="spacing" textLength="88" x="110" y="225.3296">StudentTaxPayerNumber</text></g><!--class StudentDateOfBirth--><g id="elem_StudentDateOfBirth"><rect codeLine="27" fill="#282828" height="20.7993" id="StudentDateOfBirth" rx="1.25" ry="1.25" style="stroke:#33FF33;stroke-width:0.5;" width="73" x="117.5" y="112.5"/><text fill="#33FF33" font-family="Verdana" font-size="6" font-style="italic" lengthAdjust="spacing" textLength="15" x="146.5" y="121.0322">&#171;vo&#187;</text><text fill="#33FF33" font-family="Verdana" font-size="7" lengthAdjust="spacing" textLength="70" x="119" y="129.3296">StudentDateOfBirth</text></g><!--class SystemUser--><g id="elem_SystemUser"><rect fill="#282828" height="13.5073" id="SystemUser" rx="1.25" ry="1.25" style="stroke:#33FF33;stroke-width:0.5;" width="45.5" x="131.25" y="23.75"/><text fill="#33FF33" font-family="Verdana" font-size="7" lengthAdjust="spacing" textLength="42.5" x="132.75" y="33.2876">SystemUser</text></g><!--class CourseEnrollment--><g id="elem_CourseEnrollment"><rect codeLine="36" fill="#282828" height="28.0913" id="CourseEnrollment" rx="1.25" ry="1.25" style="stroke:#33FF33;stroke-width:0.5;" width="65.5" x="121.25" y="430"/><text fill="#33FF33" font-family="Verdana" font-size="6" font-style="italic" lengthAdjust="spacing" textLength="25.5" x="141.25" y="438.5322">&#171;entity&#187;</text><text fill="#33FF33" font-family="Verdana" font-size="6" font-style="italic" lengthAdjust="spacing" textLength="20" x="144" y="445.8242">&#171;root&#187;</text><text fill="#33FF33" font-family="Verdana" font-size="7" lengthAdjust="spacing" textLength="62.5" x="122.75" y="454.1216">CourseEnrollment</text></g><!--class StudentEnrollmentState--><g id="elem_StudentEnrollmentState"><rect codeLine="37" fill="#282828" height="28.0913" id="StudentEnrollmentState" rx="1.25" ry="1.25" style="stroke:#33FF33;stroke-width:0.5;" width="88" x="264.5" y="459.5"/><text fill="#33FF33" font-family="Verdana" font-size="6" font-style="italic" lengthAdjust="spacing" textLength="15" x="301" y="468.0322">&#171;vo&#187;</text><text fill="#33FF33" font-family="Verdana" font-size="6" font-style="italic" lengthAdjust="spacing" textLength="25.5" x="295.75" y="475.3242">&#171;enum&#187;</text><text fill="#33FF33" font-family="Verdana" font-size="7" lengthAdjust="spacing" textLength="85" x="266" y="483.6216">StudentEnrollmentState</text></g><!--class CourseEnrollmentDate--><g id="elem_CourseEnrollmentDate"><rect codeLine="38" fill="#282828" height="20.7993" id="CourseEnrollmentDate" rx="1.25" ry="1.25" style="stroke:#33FF33;stroke-width:0.5;" width="82" x="267.5" y="363.5"/><text fill="#33FF33" font-family="Verdana" font-size="6" font-style="italic" lengthAdjust="spacing" textLength="15" x="301" y="372.0322">&#171;vo&#187;</text><text fill="#33FF33" font-family="Verdana" font-size="7" lengthAdjust="spacing" textLength="79" x="269" y="380.3296">CourseEnrollmentDate</text></g><!--link Course to State--><g id="link_Course_State"><path codeLine="15" d="M322.515,624.955 C340.395,606.375 371.785,573.76 390.175,554.645 " fill="none" id="Course-to-State" style="stroke:#33FF33;stroke-width:0.5;"/><polygon fill="#33FF33" points="391.915,552.84,387.3517,554.691,390.1797,554.6396,390.2311,557.4676,391.915,552.84" style="stroke:#33FF33;stroke-width:0.5;"/><text fill="#33FF33" font-family="Verdana" font-size="6.5" lengthAdjust="spacing" textLength="4" x="383.9854" y="563.7937">1</text></g><!--link Course to Title--><g id="link_Course_Title"><path codeLine="16" d="M322.515,639 C341.6,639 376.075,639 393.71,639 " fill="none" id="Course-to-Title" style="stroke:#33FF33;stroke-width:0.5;"/><polygon fill="#33FF33" points="396.39,639,391.89,637,393.89,639,391.89,641,396.39,639" style="stroke:#33FF33;stroke-width:0.5;"/><text fill="#33FF33" font-family="Verdana" font-size="6.5" lengthAdjust="spacing" textLength="4" x="388.5211" y="646.9778">1</text></g><!--link Course to Description--><g id="link_Course_Description"><path codeLine="17" d="M322.515,652.55 C341.115,671.2 374.345,704.515 392.345,722.56 " fill="none" id="Course-to-Description" style="stroke:#33FF33;stroke-width:0.5;"/><polygon fill="#33FF33" points="394.25,724.475,392.4915,719.8752,392.4858,722.7037,389.6574,722.698,394.25,724.475" style="stroke:#33FF33;stroke-width:0.5;"/><text fill="#33FF33" font-family="Verdana" font-size="6.5" lengthAdjust="spacing" textLength="4" x="386.1063" y="719.0554">1</text></g><!--link Course to Code--><g id="link_Course_Code"><path codeLine="18" d="M316.04,653.12 C333.925,688.975 380.9,783.175 398.215,817.9 " fill="none" id="Course-to-Code" style="stroke:#33FF33;stroke-width:0.5;"/><polygon fill="#33FF33" points="399.41,820.295,399.1927,815.3754,398.2948,818.0575,395.6127,817.1596,399.41,820.295" style="stroke:#33FF33;stroke-width:0.5;"/><text fill="#33FF33" font-family="Verdana" font-size="6.5" lengthAdjust="spacing" textLength="4" x="393.107" y="815.1719">1</text></g><!--link Student to MechanographicalNumber--><g id="link_Student_MechanographicalNumber"><path codeLine="29" d="M45.05,230.87 C68.715,249.225 113.955,284.32 137.84,302.85 " fill="none" id="Student-to-MechanographicalNumber" style="stroke:#33FF33;stroke-width:0.5;"/><polygon fill="#33FF33" points="139.94,304.48,137.6093,300.1421,137.9643,302.9481,135.1583,303.3032,139.94,304.48" style="stroke:#33FF33;stroke-width:0.5;"/><text fill="#33FF33" font-family="Verdana" font-size="6.5" lengthAdjust="spacing" textLength="4" x="130.8209" y="299.062">1</text></g><!--link Student to SystemUser--><g id="link_Student_SystemUser"><path codeLine="30" d="M35.71,204.88 C47.375,178.1 74.98,118.695 108,75 C118.465,61.15 133.225,47.54 143.065,39.09 " fill="none" id="Student-to-SystemUser" style="stroke:#33FF33;stroke-width:0.5;"/><polygon fill="#33FF33" points="145.21,37.265,140.4887,38.6648,143.3083,38.8879,143.0853,41.7075,145.21,37.265" style="stroke:#33FF33;stroke-width:0.5;"/><text fill="#33FF33" font-family="Verdana" font-size="6.5" lengthAdjust="spacing" textLength="4" x="137.2312" y="47.7497">1</text></g><!--link Student to StudentDateOfBirth--><g id="link_Student_StudentDateOfBirth"><path codeLine="31" d="M45.05,207.13 C68.715,188.775 113.955,153.68 137.84,135.15 " fill="none" id="Student-to-StudentDateOfBirth" style="stroke:#33FF33;stroke-width:0.5;"/><polygon fill="#33FF33" points="139.94,133.52,135.1583,134.6968,137.9643,135.0519,137.6093,137.8579,139.94,133.52" style="stroke:#33FF33;stroke-width:0.5;"/><text fill="#33FF33" font-family="Verdana" font-size="6.5" lengthAdjust="spacing" textLength="4" x="131.8246" y="143.7885">1</text></g><!--link Student to StudentTaxPayerNumber--><g id="link_Student_StudentTaxPayerNumber"><path codeLine="32" d="M45.05,219 C60.21,219 84.23,219 105.815,219 " fill="none" id="Student-to-StudentTaxPayerNumber" style="stroke:#33FF33;stroke-width:0.5;"/><polygon fill="#33FF33" points="108.435,219,103.935,217,105.935,219,103.935,221,108.435,219" style="stroke:#33FF33;stroke-width:0.5;"/><text fill="#33FF33" font-family="Verdana" font-size="6.5" lengthAdjust="spacing" textLength="4" x="100.496" y="225.8703">1</text></g><!--link CourseEnrollment to Course--><g id="link_CourseEnrollment_Course"><path codeLine="39" d="M165.54,458.025 C193.275,493.255 265.76,585.34 295.25,622.8 " fill="none" id="CourseEnrollment-to-Course" style="stroke:#33FF33;stroke-width:0.5;"/><polygon fill="#33FF33" points="296.96,624.97,295.7425,620.1985,295.4114,623.0074,292.6024,622.6763,296.96,624.97" style="stroke:#33FF33;stroke-width:0.5;"/><text fill="#33FF33" font-family="Verdana" font-size="6.5" lengthAdjust="spacing" textLength="32.5" x="216.5" y="522.5349">applied to</text><text fill="#33FF33" font-family="Verdana" font-size="6.5" lengthAdjust="spacing" textLength="4" x="289.6596" y="619.7086">1</text></g><!--link CourseEnrollment to StudentEnrollmentState--><g id="link_CourseEnrollment_StudentEnrollmentState"><path codeLine="40" d="M186.865,450.22 C208.68,454.41 237.78,460.005 261.99,464.655 " fill="none" id="CourseEnrollment-to-StudentEnrollmentState" style="stroke:#33FF33;stroke-width:0.5;"/><polygon fill="#33FF33" points="264.465,465.135,260.4225,462.3229,262.0098,464.6639,259.6688,466.2513,264.465,465.135" style="stroke:#33FF33;stroke-width:0.5;"/><text fill="#33FF33" font-family="Verdana" font-size="6.5" lengthAdjust="spacing" textLength="4" x="256.5089" y="471.2866">1</text></g><!--link CourseEnrollment to CourseEnrollmentDate--><g id="link_CourseEnrollment_CourseEnrollmentDate"><path codeLine="41" d="M185.38,429.92 C213.935,416.895 255.865,397.775 282.55,385.605 " fill="none" id="CourseEnrollment-to-CourseEnrollmentDate" style="stroke:#33FF33;stroke-width:0.5;"/><polygon fill="#33FF33" points="284.92,384.525,279.9957,384.5664,282.6441,385.5595,281.651,388.2078,284.92,384.525" style="stroke:#33FF33;stroke-width:0.5;"/><text fill="#33FF33" font-family="Verdana" font-size="6.5" lengthAdjust="spacing" textLength="4" x="274.3651" y="394.7948">1</text></g><!--reverse link Student to CourseEnrollment--><g id="link_Student_CourseEnrollment"><path codeLine="42" d="M35.43,235.41 C40.995,250.85 50.065,274.46 60,294 C86.495,346.11 125.335,403.725 143.475,429.8 " fill="none" id="Student-backto-CourseEnrollment" style="stroke:#33FF33;stroke-width:0.5;"/><polygon fill="#33FF33" points="34.57,233.005,34.2066,237.916,35.414,235.3582,37.9718,236.5656,34.57,233.005" style="stroke:#33FF33;stroke-width:0.5;"/><text fill="#33FF33" font-family="Verdana" font-size="6.5" lengthAdjust="spacing" textLength="32" x="60.5" y="292.5349">applies to</text><text fill="#33FF33" font-family="Verdana" font-size="6.5" lengthAdjust="spacing" textLength="4" x="31.3378" y="243.6814">1</text></g><!--SRC=[ZPFBJiCm44Nt_eeX-qXqmGPPNa1Pyf1QFi0uqyJ2BzaE45NzTn8dVOIaBLbPSuyzrzUJcrYXHX0-vgL7D2HyIkEuvngCBJ2WWyNTBQbaWO3QnGOqwW_qWIZSH8WMl2oh28NqAAAqfaU5z49Xlzv8L4KWn77noKk4Z59UUdYqjG_8MBObq7v2yH268gLeeemDOvHwQoDZszq8Qa-bzCioTb9TOX1Ukiv3hutsh6LKE5DVHHw7UjUrrabFGEy58CyPP8kiHyTAOR_DeAO6PzKJSsUPxbg4x2P1hM9Tj7caf4REK_bALiyeAcviwRchfE3gfUvURpQ8TDoQ_xpn1lqrRjbcyRfva3vM1oXHWtv8RTx0BBfgGaJz7ix9aywNiF55PcBjd-39UAkKtkVxTnAFCbm9UcXxt9361IQZTRx3yiWFtCH3VXYLD3xtm9rJ4elsFxoyOTxTVvgC_OqIxo2QvnDmRojqjdQ_]--></g></svg>