<?xml version="1.0" encoding="us-ascii" standalone="no"?><svg xmlns="http://www.w3.org/2000/svg" xmlns:xlink="http://www.w3.org/1999/xlink" contentStyleType="text/css" height="604px" preserveAspectRatio="none" style="width:1565px;height:604px;background:#FFFFFF;" version="1.1" viewBox="0 0 1565 604" width="1565px" zoomAndPan="magnify"><defs/><g><rect fill="#FFFFFF" height="11.6455" style="stroke:#181818;stroke-width:0.5;" width="5" x="13.75" y="49.1211"/><rect fill="#FFFFFF" height="15.6455" style="stroke:#181818;stroke-width:0.5;" width="5" x="13.75" y="264.1582"/><rect fill="#FFFFFF" height="15.6455" style="stroke:#181818;stroke-width:0.5;" width="5" x="200.25" y="60.7666"/><rect fill="#FFFFFF" height="15.6455" style="stroke:#181818;stroke-width:0.5;" width="5" x="200.25" y="248.5127"/><rect fill="#FFFFFF" height="15.6455" style="stroke:#181818;stroke-width:0.5;" width="5" x="200.25" y="279.8037"/><rect fill="#FFFFFF" height="15.6455" style="stroke:#181818;stroke-width:0.5;" width="5" x="200.25" y="530.1318"/><rect fill="#FFFFFF" height="15.6455" style="stroke:#181818;stroke-width:0.5;" width="5" x="444.25" y="76.4121"/><rect fill="#FFFFFF" height="15.6455" style="stroke:#181818;stroke-width:0.5;" width="5" x="444.25" y="232.8672"/><rect fill="#FFFFFF" height="15.6455" style="stroke:#181818;stroke-width:0.5;" width="5" x="688.25" y="92.0576"/><rect fill="#FFFFFF" height="15.6455" style="stroke:#181818;stroke-width:0.5;" width="5" x="688.25" y="123.3486"/><rect fill="#FFFFFF" height="15.6455" style="stroke:#181818;stroke-width:0.5;" width="5" x="688.25" y="154.6396"/><rect fill="#FFFFFF" height="15.6455" style="stroke:#181818;stroke-width:0.5;" width="5" x="688.25" y="185.9307"/><rect fill="#FFFFFF" height="15.6455" style="stroke:#181818;stroke-width:0.5;" width="5" x="688.25" y="217.2217"/><rect fill="#FFFFFF" height="15.6455" style="stroke:#181818;stroke-width:0.5;" width="5" x="859.5" y="311.0947"/><rect fill="#FFFFFF" height="15.6455" style="stroke:#181818;stroke-width:0.5;" width="5" x="859.5" y="342.3857"/><rect fill="#FFFFFF" height="15.6455" style="stroke:#181818;stroke-width:0.5;" width="5" x="976.75" y="373.6768"/><rect fill="#FFFFFF" height="15.6455" style="stroke:#181818;stroke-width:0.5;" width="5" x="976.75" y="404.9678"/><rect fill="#FFFFFF" height="15.6455" style="stroke:#181818;stroke-width:0.5;" width="5" x="1097.5" y="295.4492"/><rect fill="#FFFFFF" height="15.6455" style="stroke:#181818;stroke-width:0.5;" width="5" x="1097.5" y="358.0313"/><rect fill="#FFFFFF" height="15.6455" style="stroke:#181818;stroke-width:0.5;" width="5" x="1097.5" y="420.6133"/><rect fill="#FFFFFF" height="15.6455" style="stroke:#181818;stroke-width:0.5;" width="5" x="1097.5" y="483.1953"/><rect fill="#FFFFFF" height="15.6455" style="stroke:#181818;stroke-width:0.5;" width="5" x="1097.5" y="514.4863"/><rect fill="#FFFFFF" height="15.6455" style="stroke:#181818;stroke-width:0.5;" width="5" x="1203.25" y="436.2588"/><rect fill="#FFFFFF" height="15.6455" style="stroke:#181818;stroke-width:0.5;" width="5" x="1203.25" y="467.5498"/><rect fill="#FFFFFF" height="15.6455" style="stroke:#181818;stroke-width:0.5;" width="5" x="1300.25" y="451.9043"/><rect fill="#FFFFFF" height="15.6455" style="stroke:#181818;stroke-width:0.5;" width="5" x="1367.75" y="138.9941"/><rect fill="#FFFFFF" height="15.6455" style="stroke:#181818;stroke-width:0.5;" width="5" x="1367.75" y="326.7402"/><rect fill="#FFFFFF" height="15.6455" style="stroke:#181818;stroke-width:0.5;" width="5" x="1433.5" y="107.7031"/><rect fill="#FFFFFF" height="15.6455" style="stroke:#181818;stroke-width:0.5;" width="5" x="1433.5" y="170.2852"/><rect fill="#FFFFFF" height="15.6455" style="stroke:#181818;stroke-width:0.5;" width="5" x="1433.5" y="389.3223"/><rect fill="#FFFFFF" height="15.6455" style="stroke:#181818;stroke-width:0.5;" width="5" x="1515.25" y="201.5762"/><rect fill="#FFFFFF" height="15.6455" style="stroke:#181818;stroke-width:0.5;" width="5" x="1515.25" y="498.8408"/><line style="stroke:#181818;stroke-width:0.25;stroke-dasharray:5.0,5.0;" x1="16" x2="16" y1="44.1211" y2="554.7773"/><line style="stroke:#181818;stroke-width:0.25;stroke-dasharray:5.0,5.0;" x1="202.75" x2="202.75" y1="44.1211" y2="554.7773"/><line style="stroke:#181818;stroke-width:0.25;stroke-dasharray:5.0,5.0;" x1="446.5" x2="446.5" y1="44.1211" y2="554.7773"/><line style="stroke:#181818;stroke-width:0.25;stroke-dasharray:5.0,5.0;" x1="690.5" x2="690.5" y1="44.1211" y2="554.7773"/><line style="stroke:#181818;stroke-width:0.25;stroke-dasharray:5.0,5.0;" x1="862" x2="862" y1="44.1211" y2="554.7773"/><line style="stroke:#181818;stroke-width:0.25;stroke-dasharray:5.0,5.0;" x1="979" x2="979" y1="44.1211" y2="554.7773"/><line style="stroke:#181818;stroke-width:0.25;stroke-dasharray:5.0,5.0;" x1="1100" x2="1100" y1="44.1211" y2="554.7773"/><line style="stroke:#181818;stroke-width:0.25;stroke-dasharray:5.0,5.0;" x1="1205.5" x2="1205.5" y1="44.1211" y2="554.7773"/><line style="stroke:#181818;stroke-width:0.25;stroke-dasharray:5.0,5.0;" x1="1302.5" x2="1302.5" y1="44.1211" y2="554.7773"/><line style="stroke:#181818;stroke-width:0.25;stroke-dasharray:5.0,5.0;" x1="1370" x2="1370" y1="44.1211" y2="554.7773"/><line style="stroke:#181818;stroke-width:0.25;stroke-dasharray:5.0,5.0;" x1="1436" x2="1436" y1="44.1211" y2="554.7773"/><line style="stroke:#181818;stroke-width:0.25;stroke-dasharray:5.0,5.0;" x1="1517.5" x2="1517.5" y1="44.1211" y2="554.7773"/><text fill="#000000" font-family="sans-serif" font-size="7" lengthAdjust="spacing" textLength="24.5" x="2.5" y="42.3643">Student</text><ellipse cx="16.25" cy="9.0605" fill="#E2E2F0" rx="4" ry="4" style="stroke:#181818;stroke-width:0.25;"/><path d="M16.25,13.0605 L16.25,26.5605 M9.75,17.0605 L22.75,17.0605 M16.25,26.5605 L9.75,34.0605 M16.25,26.5605 L22.75,34.0605 " fill="none" style="stroke:#181818;stroke-width:0.25;"/><text fill="#000000" font-family="sans-serif" font-size="7" lengthAdjust="spacing" textLength="24.5" x="2.5" y="561.8311">Student</text><ellipse cx="16.25" cy="567.8379" fill="#E2E2F0" rx="4" ry="4" style="stroke:#181818;stroke-width:0.25;"/><path d="M16.25,571.8379 L16.25,585.3379 M9.75,575.8379 L22.75,575.8379 M16.25,585.3379 L9.75,592.8379 M16.25,585.3379 L22.75,592.8379 " fill="none" style="stroke:#181818;stroke-width:0.25;"/><rect fill="#E2E2F0" height="25.6211" rx="1.25" ry="1.25" style="stroke:#181818;stroke-width:0.25;" width="121" x="142.25" y="18"/><text fill="#000000" font-family="sans-serif" font-size="7" font-style="italic" lengthAdjust="spacing" textLength="47.5" x="179" y="29.0537">&#171;presentation&#187;</text><text fill="#000000" font-family="sans-serif" font-size="7" lengthAdjust="spacing" textLength="114" x="145.75" y="38.3643">MakeCourseEnrollmentApplicationUI</text><rect fill="#E2E2F0" height="25.6211" rx="1.25" ry="1.25" style="stroke:#181818;stroke-width:0.25;" width="121" x="142.25" y="554.2773"/><text fill="#000000" font-family="sans-serif" font-size="7" font-style="italic" lengthAdjust="spacing" textLength="47.5" x="179" y="565.3311">&#171;presentation&#187;</text><text fill="#000000" font-family="sans-serif" font-size="7" lengthAdjust="spacing" textLength="114" x="145.75" y="574.6416">MakeCourseEnrollmentApplicationUI</text><rect fill="#E2E2F0" height="25.6211" rx="1.25" ry="1.25" style="stroke:#181818;stroke-width:0.25;" width="212.5" x="340.5" y="18"/><text fill="#000000" font-family="sans-serif" font-size="7" font-style="italic" lengthAdjust="spacing" textLength="42" x="425.75" y="29.0537">&#171;application&#187;</text><text fill="#000000" font-family="sans-serif" font-size="7" lengthAdjust="spacing" textLength="205.5" x="344" y="38.3643">OpenEnrollmentCoursesAvailableToEnrollStudentSessionService</text><rect fill="#E2E2F0" height="25.6211" rx="1.25" ry="1.25" style="stroke:#181818;stroke-width:0.25;" width="212.5" x="340.5" y="554.2773"/><text fill="#000000" font-family="sans-serif" font-size="7" font-style="italic" lengthAdjust="spacing" textLength="42" x="425.75" y="565.3311">&#171;application&#187;</text><text fill="#000000" font-family="sans-serif" font-size="7" lengthAdjust="spacing" textLength="205.5" x="344" y="574.6416">OpenEnrollmentCoursesAvailableToEnrollStudentSessionService</text><rect fill="#E2E2F0" height="25.6211" rx="1.25" ry="1.25" style="stroke:#181818;stroke-width:0.25;" width="223.5" x="579" y="18"/><text fill="#000000" font-family="sans-serif" font-size="7" font-style="italic" lengthAdjust="spacing" textLength="31" x="675.25" y="29.0537">&#171;domain&#187;</text><text fill="#000000" font-family="sans-serif" font-size="7" lengthAdjust="spacing" textLength="216.5" x="582.5" y="38.3643">ListOpenEnrollmentCoursesAvailableToEnrollStudentSessionService</text><rect fill="#E2E2F0" height="25.6211" rx="1.25" ry="1.25" style="stroke:#181818;stroke-width:0.25;" width="223.5" x="579" y="554.2773"/><text fill="#000000" font-family="sans-serif" font-size="7" font-style="italic" lengthAdjust="spacing" textLength="31" x="675.25" y="565.3311">&#171;domain&#187;</text><text fill="#000000" font-family="sans-serif" font-size="7" lengthAdjust="spacing" textLength="216.5" x="582.5" y="574.6416">ListOpenEnrollmentCoursesAvailableToEnrollStudentSessionService</text><rect fill="#E2E2F0" height="25.6211" rx="1.25" ry="1.25" style="stroke:#181818;stroke-width:0.25;" width="109" x="807.5" y="18"/><text fill="#000000" font-family="sans-serif" font-size="7" font-style="italic" lengthAdjust="spacing" textLength="42" x="841" y="29.0537">&#171;application&#187;</text><text fill="#000000" font-family="sans-serif" font-size="7" lengthAdjust="spacing" textLength="102" x="811" y="38.3643">FindStudentByUsernameService</text><rect fill="#E2E2F0" height="25.6211" rx="1.25" ry="1.25" style="stroke:#181818;stroke-width:0.25;" width="109" x="807.5" y="554.2773"/><text fill="#000000" font-family="sans-serif" font-size="7" font-style="italic" lengthAdjust="spacing" textLength="42" x="841" y="565.3311">&#171;application&#187;</text><text fill="#000000" font-family="sans-serif" font-size="7" lengthAdjust="spacing" textLength="102" x="811" y="574.6416">FindStudentByUsernameService</text><rect fill="#E2E2F0" height="25.6211" rx="1.25" ry="1.25" style="stroke:#181818;stroke-width:0.25;" width="115.5" x="921.5" y="18"/><text fill="#000000" font-family="sans-serif" font-size="7" font-style="italic" lengthAdjust="spacing" textLength="42" x="958.25" y="29.0537">&#171;application&#187;</text><text fill="#000000" font-family="sans-serif" font-size="7" lengthAdjust="spacing" textLength="108.5" x="925" y="38.3643">FindCourseByCourseCodeService</text><rect fill="#E2E2F0" height="25.6211" rx="1.25" ry="1.25" style="stroke:#181818;stroke-width:0.25;" width="115.5" x="921.5" y="554.2773"/><text fill="#000000" font-family="sans-serif" font-size="7" font-style="italic" lengthAdjust="spacing" textLength="42" x="958.25" y="565.3311">&#171;application&#187;</text><text fill="#000000" font-family="sans-serif" font-size="7" lengthAdjust="spacing" textLength="108.5" x="925" y="574.6416">FindCourseByCourseCodeService</text><rect fill="#E2E2F0" height="25.6211" rx="1.25" ry="1.25" style="stroke:#181818;stroke-width:0.25;" width="116" x="1042" y="18"/><text fill="#000000" font-family="sans-serif" font-size="7" font-style="italic" lengthAdjust="spacing" textLength="42" x="1079" y="29.0537">&#171;application&#187;</text><text fill="#000000" font-family="sans-serif" font-size="7" lengthAdjust="spacing" textLength="109" x="1045.5" y="38.3643">CreateCourseEnrollmentController</text><rect fill="#E2E2F0" height="25.6211" rx="1.25" ry="1.25" style="stroke:#181818;stroke-width:0.25;" width="116" x="1042" y="554.2773"/><text fill="#000000" font-family="sans-serif" font-size="7" font-style="italic" lengthAdjust="spacing" textLength="42" x="1079" y="565.3311">&#171;application&#187;</text><text fill="#000000" font-family="sans-serif" font-size="7" lengthAdjust="spacing" textLength="109" x="1045.5" y="574.6416">CreateCourseEnrollmentController</text><rect fill="#E2E2F0" height="25.6211" rx="1.25" ry="1.25" style="stroke:#181818;stroke-width:0.25;" width="85.5" x="1163" y="18"/><text fill="#000000" font-family="sans-serif" font-size="7" font-style="italic" lengthAdjust="spacing" textLength="29.5" x="1191" y="29.0537">&#171;builder&#187;</text><text fill="#000000" font-family="sans-serif" font-size="7" lengthAdjust="spacing" textLength="78.5" x="1166.5" y="38.3643">CourseEnrollmentBuilder</text><rect fill="#E2E2F0" height="25.6211" rx="1.25" ry="1.25" style="stroke:#181818;stroke-width:0.25;" width="85.5" x="1163" y="554.2773"/><text fill="#000000" font-family="sans-serif" font-size="7" font-style="italic" lengthAdjust="spacing" textLength="29.5" x="1191" y="565.3311">&#171;builder&#187;</text><text fill="#000000" font-family="sans-serif" font-size="7" lengthAdjust="spacing" textLength="78.5" x="1166.5" y="574.6416">CourseEnrollmentBuilder</text><rect fill="#E2E2F0" height="25.6211" rx="1.25" ry="1.25" style="stroke:#181818;stroke-width:0.25;" width="63.5" x="1271" y="18"/><text fill="#000000" font-family="sans-serif" font-size="7" font-style="italic" lengthAdjust="spacing" textLength="31" x="1287.25" y="29.0537">&#171;domain&#187;</text><text fill="#000000" font-family="sans-serif" font-size="7" lengthAdjust="spacing" textLength="56.5" x="1274.5" y="38.3643">CourseEnrollment</text><rect fill="#E2E2F0" height="25.6211" rx="1.25" ry="1.25" style="stroke:#181818;stroke-width:0.25;" width="63.5" x="1271" y="554.2773"/><text fill="#000000" font-family="sans-serif" font-size="7" font-style="italic" lengthAdjust="spacing" textLength="31" x="1287.25" y="565.3311">&#171;domain&#187;</text><text fill="#000000" font-family="sans-serif" font-size="7" lengthAdjust="spacing" textLength="56.5" x="1274.5" y="574.6416">CourseEnrollment</text><text fill="#000000" font-family="sans-serif" font-size="7" font-style="italic" lengthAdjust="spacing" textLength="44.5" x="1346.5" y="33.0537">&#171;persistence&#187;</text><text fill="#000000" font-family="sans-serif" font-size="7" lengthAdjust="spacing" textLength="58.5" x="1339.5" y="42.3643">StudentRepository</text><path d="M1361.25,7.5 C1361.25,2.5 1370.25,2.5 1370.25,2.5 C1370.25,2.5 1379.25,2.5 1379.25,7.5 L1379.25,20.5 C1379.25,25.5 1370.25,25.5 1370.25,25.5 C1370.25,25.5 1361.25,25.5 1361.25,20.5 L1361.25,7.5 " fill="#E2E2F0" style="stroke:#181818;stroke-width:0.75;"/><path d="M1361.25,7.5 C1361.25,12.5 1370.25,12.5 1370.25,12.5 C1370.25,12.5 1379.25,12.5 1379.25,7.5 " fill="none" style="stroke:#181818;stroke-width:0.75;"/><text fill="#000000" font-family="sans-serif" font-size="7" font-style="italic" lengthAdjust="spacing" textLength="44.5" x="1346.5" y="561.8311">&#171;persistence&#187;</text><text fill="#000000" font-family="sans-serif" font-size="7" lengthAdjust="spacing" textLength="58.5" x="1339.5" y="571.1416">StudentRepository</text><path d="M1361.25,577.8984 C1361.25,572.8984 1370.25,572.8984 1370.25,572.8984 C1370.25,572.8984 1379.25,572.8984 1379.25,577.8984 L1379.25,590.8984 C1379.25,595.8984 1370.25,595.8984 1370.25,595.8984 C1370.25,595.8984 1361.25,595.8984 1361.25,590.8984 L1361.25,577.8984 " fill="#E2E2F0" style="stroke:#181818;stroke-width:0.75;"/><path d="M1361.25,577.8984 C1361.25,582.8984 1370.25,582.8984 1370.25,582.8984 C1370.25,582.8984 1379.25,582.8984 1379.25,577.8984 " fill="none" style="stroke:#181818;stroke-width:0.75;"/><text fill="#000000" font-family="sans-serif" font-size="7" font-style="italic" lengthAdjust="spacing" textLength="44.5" x="1412.25" y="33.0537">&#171;persistence&#187;</text><text fill="#000000" font-family="sans-serif" font-size="7" lengthAdjust="spacing" textLength="57" x="1406" y="42.3643">CourseRepository</text><path d="M1427,7.5 C1427,2.5 1436,2.5 1436,2.5 C1436,2.5 1445,2.5 1445,7.5 L1445,20.5 C1445,25.5 1436,25.5 1436,25.5 C1436,25.5 1427,25.5 1427,20.5 L1427,7.5 " fill="#E2E2F0" style="stroke:#181818;stroke-width:0.75;"/><path d="M1427,7.5 C1427,12.5 1436,12.5 1436,12.5 C1436,12.5 1445,12.5 1445,7.5 " fill="none" style="stroke:#181818;stroke-width:0.75;"/><text fill="#000000" font-family="sans-serif" font-size="7" font-style="italic" lengthAdjust="spacing" textLength="44.5" x="1412.25" y="561.8311">&#171;persistence&#187;</text><text fill="#000000" font-family="sans-serif" font-size="7" lengthAdjust="spacing" textLength="57" x="1406" y="571.1416">CourseRepository</text><path d="M1427,577.8984 C1427,572.8984 1436,572.8984 1436,572.8984 C1436,572.8984 1445,572.8984 1445,577.8984 L1445,590.8984 C1445,595.8984 1436,595.8984 1436,595.8984 C1436,595.8984 1427,595.8984 1427,590.8984 L1427,577.8984 " fill="#E2E2F0" style="stroke:#181818;stroke-width:0.75;"/><path d="M1427,577.8984 C1427,582.8984 1436,582.8984 1436,582.8984 C1436,582.8984 1445,582.8984 1445,577.8984 " fill="none" style="stroke:#181818;stroke-width:0.75;"/><text fill="#000000" font-family="sans-serif" font-size="7" font-style="italic" lengthAdjust="spacing" textLength="44.5" x="1494" y="33.0537">&#171;persistence&#187;</text><text fill="#000000" font-family="sans-serif" font-size="7" lengthAdjust="spacing" textLength="90.5" x="1471" y="42.3643">CourseEnrollmentRepository</text><path d="M1508.75,7.5 C1508.75,2.5 1517.75,2.5 1517.75,2.5 C1517.75,2.5 1526.75,2.5 1526.75,7.5 L1526.75,20.5 C1526.75,25.5 1517.75,25.5 1517.75,25.5 C1517.75,25.5 1508.75,25.5 1508.75,20.5 L1508.75,7.5 " fill="#E2E2F0" style="stroke:#181818;stroke-width:0.75;"/><path d="M1508.75,7.5 C1508.75,12.5 1517.75,12.5 1517.75,12.5 C1517.75,12.5 1526.75,12.5 1526.75,7.5 " fill="none" style="stroke:#181818;stroke-width:0.75;"/><text fill="#000000" font-family="sans-serif" font-size="7" font-style="italic" lengthAdjust="spacing" textLength="44.5" x="1494" y="561.8311">&#171;persistence&#187;</text><text fill="#000000" font-family="sans-serif" font-size="7" lengthAdjust="spacing" textLength="90.5" x="1471" y="571.1416">CourseEnrollmentRepository</text><path d="M1508.75,577.8984 C1508.75,572.8984 1517.75,572.8984 1517.75,572.8984 C1517.75,572.8984 1526.75,572.8984 1526.75,577.8984 L1526.75,590.8984 C1526.75,595.8984 1517.75,595.8984 1517.75,595.8984 C1517.75,595.8984 1508.75,595.8984 1508.75,590.8984 L1508.75,577.8984 " fill="#E2E2F0" style="stroke:#181818;stroke-width:0.75;"/><path d="M1508.75,577.8984 C1508.75,582.8984 1517.75,582.8984 1517.75,582.8984 C1517.75,582.8984 1526.75,582.8984 1526.75,577.8984 " fill="none" style="stroke:#181818;stroke-width:0.75;"/><rect fill="#FFFFFF" height="11.6455" style="stroke:#181818;stroke-width:0.5;" width="5" x="13.75" y="49.1211"/><rect fill="#FFFFFF" height="15.6455" style="stroke:#181818;stroke-width:0.5;" width="5" x="13.75" y="264.1582"/><rect fill="#FFFFFF" height="15.6455" style="stroke:#181818;stroke-width:0.5;" width="5" x="200.25" y="60.7666"/><rect fill="#FFFFFF" height="15.6455" style="stroke:#181818;stroke-width:0.5;" width="5" x="200.25" y="248.5127"/><rect fill="#FFFFFF" height="15.6455" style="stroke:#181818;stroke-width:0.5;" width="5" x="200.25" y="279.8037"/><rect fill="#FFFFFF" height="15.6455" style="stroke:#181818;stroke-width:0.5;" width="5" x="200.25" y="530.1318"/><rect fill="#FFFFFF" height="15.6455" style="stroke:#181818;stroke-width:0.5;" width="5" x="444.25" y="76.4121"/><rect fill="#FFFFFF" height="15.6455" style="stroke:#181818;stroke-width:0.5;" width="5" x="444.25" y="232.8672"/><rect fill="#FFFFFF" height="15.6455" style="stroke:#181818;stroke-width:0.5;" width="5" x="688.25" y="92.0576"/><rect fill="#FFFFFF" height="15.6455" style="stroke:#181818;stroke-width:0.5;" width="5" x="688.25" y="123.3486"/><rect fill="#FFFFFF" height="15.6455" style="stroke:#181818;stroke-width:0.5;" width="5" x="688.25" y="154.6396"/><rect fill="#FFFFFF" height="15.6455" style="stroke:#181818;stroke-width:0.5;" width="5" x="688.25" y="185.9307"/><rect fill="#FFFFFF" height="15.6455" style="stroke:#181818;stroke-width:0.5;" width="5" x="688.25" y="217.2217"/><rect fill="#FFFFFF" height="15.6455" style="stroke:#181818;stroke-width:0.5;" width="5" x="859.5" y="311.0947"/><rect fill="#FFFFFF" height="15.6455" style="stroke:#181818;stroke-width:0.5;" width="5" x="859.5" y="342.3857"/><rect fill="#FFFFFF" height="15.6455" style="stroke:#181818;stroke-width:0.5;" width="5" x="976.75" y="373.6768"/><rect fill="#FFFFFF" height="15.6455" style="stroke:#181818;stroke-width:0.5;" width="5" x="976.75" y="404.9678"/><rect fill="#FFFFFF" height="15.6455" style="stroke:#181818;stroke-width:0.5;" width="5" x="1097.5" y="295.4492"/><rect fill="#FFFFFF" height="15.6455" style="stroke:#181818;stroke-width:0.5;" width="5" x="1097.5" y="358.0313"/><rect fill="#FFFFFF" height="15.6455" style="stroke:#181818;stroke-width:0.5;" width="5" x="1097.5" y="420.6133"/><rect fill="#FFFFFF" height="15.6455" style="stroke:#181818;stroke-width:0.5;" width="5" x="1097.5" y="483.1953"/><rect fill="#FFFFFF" height="15.6455" style="stroke:#181818;stroke-width:0.5;" width="5" x="1097.5" y="514.4863"/><rect fill="#FFFFFF" height="15.6455" style="stroke:#181818;stroke-width:0.5;" width="5" x="1203.25" y="436.2588"/><rect fill="#FFFFFF" height="15.6455" style="stroke:#181818;stroke-width:0.5;" width="5" x="1203.25" y="467.5498"/><rect fill="#FFFFFF" height="15.6455" style="stroke:#181818;stroke-width:0.5;" width="5" x="1300.25" y="451.9043"/><rect fill="#FFFFFF" height="15.6455" style="stroke:#181818;stroke-width:0.5;" width="5" x="1367.75" y="138.9941"/><rect fill="#FFFFFF" height="15.6455" style="stroke:#181818;stroke-width:0.5;" width="5" x="1367.75" y="326.7402"/><rect fill="#FFFFFF" height="15.6455" style="stroke:#181818;stroke-width:0.5;" width="5" x="1433.5" y="107.7031"/><rect fill="#FFFFFF" height="15.6455" style="stroke:#181818;stroke-width:0.5;" width="5" x="1433.5" y="170.2852"/><rect fill="#FFFFFF" height="15.6455" style="stroke:#181818;stroke-width:0.5;" width="5" x="1433.5" y="389.3223"/><rect fill="#FFFFFF" height="15.6455" style="stroke:#181818;stroke-width:0.5;" width="5" x="1515.25" y="201.5762"/><rect fill="#FFFFFF" height="15.6455" style="stroke:#181818;stroke-width:0.5;" width="5" x="1515.25" y="498.8408"/><polygon fill="#181818" points="194.25,58.7666,199.25,60.7666,194.25,62.7666,196.25,60.7666" style="stroke:#181818;stroke-width:0.5;"/><line style="stroke:#181818;stroke-width:0.5;" x1="16.25" x2="197.25" y1="60.7666" y2="60.7666"/><text fill="#000000" font-family="sans-serif" font-size="6.5" font-weight="bold" lengthAdjust="spacing" textLength="3.5" x="19.75" y="58.1353">1</text><text fill="#000000" font-family="sans-serif" font-size="6.5" lengthAdjust="spacing" textLength="73" x="25.25" y="58.1353">asks to enroll in a course</text><polygon fill="#181818" points="438.25,74.4121,443.25,76.4121,438.25,78.4121,440.25,76.4121" style="stroke:#181818;stroke-width:0.5;"/><line style="stroke:#181818;stroke-width:0.5;" x1="202.75" x2="441.25" y1="76.4121" y2="76.4121"/><text fill="#000000" font-family="sans-serif" font-size="6.5" font-weight="bold" lengthAdjust="spacing" textLength="3.5" x="206.25" y="73.7808">2</text><text fill="#000000" font-family="sans-serif" font-size="6.5" lengthAdjust="spacing" textLength="209" x="211.75" y="73.7808">list open enrollment courses that student isn't already candidate/enrolled</text><polygon fill="#181818" points="682.25,90.0576,687.25,92.0576,682.25,94.0576,684.25,92.0576" style="stroke:#181818;stroke-width:0.5;"/><line style="stroke:#181818;stroke-width:0.5;" x1="446.75" x2="685.25" y1="92.0576" y2="92.0576"/><text fill="#000000" font-family="sans-serif" font-size="6.5" font-weight="bold" lengthAdjust="spacing" textLength="3.5" x="450.25" y="89.4263">3</text><text fill="#000000" font-family="sans-serif" font-size="6.5" lengthAdjust="spacing" textLength="209" x="455.75" y="89.4263">list open enrollment courses that student isn't already candidate/enrolled</text><polygon fill="#181818" points="1427.5,105.7031,1432.5,107.7031,1427.5,109.7031,1429.5,107.7031" style="stroke:#181818;stroke-width:0.5;"/><line style="stroke:#181818;stroke-width:0.5;" x1="690.75" x2="1430.5" y1="107.7031" y2="107.7031"/><text fill="#000000" font-family="sans-serif" font-size="6.5" font-weight="bold" lengthAdjust="spacing" textLength="3.5" x="694.25" y="105.0718">4</text><text fill="#000000" font-family="sans-serif" font-size="6.5" lengthAdjust="spacing" textLength="81.5" x="699.75" y="105.0718">list open enrollment courses</text><polygon fill="#181818" points="698.75,121.3486,693.75,123.3486,698.75,125.3486,696.75,123.3486" style="stroke:#181818;stroke-width:0.5;"/><line style="stroke:#181818;stroke-width:0.5;" x1="695.75" x2="1435.5" y1="123.3486" y2="123.3486"/><text fill="#000000" font-family="sans-serif" font-size="6.5" font-weight="bold" lengthAdjust="spacing" textLength="3.5" x="701.75" y="120.7173">5</text><text fill="#000000" font-family="sans-serif" font-size="6.5" lengthAdjust="spacing" textLength="93" x="707.25" y="120.7173">returns open enrollment courses</text><polygon fill="#181818" points="1361.75,136.9941,1366.75,138.9941,1361.75,140.9941,1363.75,138.9941" style="stroke:#181818;stroke-width:0.5;"/><line style="stroke:#181818;stroke-width:0.5;" x1="690.75" x2="1364.75" y1="138.9941" y2="138.9941"/><text fill="#000000" font-family="sans-serif" font-size="6.5" font-weight="bold" lengthAdjust="spacing" textLength="3.5" x="694.25" y="136.3628">6</text><text fill="#000000" font-family="sans-serif" font-size="6.5" lengthAdjust="spacing" textLength="73" x="699.75" y="136.3628">find student by username</text><polygon fill="#181818" points="698.75,152.6396,693.75,154.6396,698.75,156.6396,696.75,154.6396" style="stroke:#181818;stroke-width:0.5;"/><line style="stroke:#181818;stroke-width:0.5;" x1="695.75" x2="1369.75" y1="154.6396" y2="154.6396"/><text fill="#000000" font-family="sans-serif" font-size="6.5" font-weight="bold" lengthAdjust="spacing" textLength="3.5" x="701.75" y="152.0083">7</text><text fill="#000000" font-family="sans-serif" font-size="6.5" lengthAdjust="spacing" textLength="43.5" x="707.25" y="152.0083">returns student</text><polygon fill="#181818" points="1427.5,168.2852,1432.5,170.2852,1427.5,172.2852,1429.5,170.2852" style="stroke:#181818;stroke-width:0.5;"/><line style="stroke:#181818;stroke-width:0.5;" x1="690.75" x2="1430.5" y1="170.2852" y2="170.2852"/><text fill="#000000" font-family="sans-serif" font-size="6.5" font-weight="bold" lengthAdjust="spacing" textLength="3.5" x="694.25" y="167.6538">8</text><text fill="#000000" font-family="sans-serif" font-size="6.5" lengthAdjust="spacing" textLength="74.5" x="699.75" y="167.6538">find courses by their code</text><polygon fill="#181818" points="698.75,183.9307,693.75,185.9307,698.75,187.9307,696.75,185.9307" style="stroke:#181818;stroke-width:0.5;"/><line style="stroke:#181818;stroke-width:0.5;" x1="695.75" x2="1435.5" y1="185.9307" y2="185.9307"/><text fill="#000000" font-family="sans-serif" font-size="6.5" font-weight="bold" lengthAdjust="spacing" textLength="3.5" x="701.75" y="183.2993">9</text><text fill="#000000" font-family="sans-serif" font-size="6.5" lengthAdjust="spacing" textLength="45" x="707.25" y="183.2993">returns courses</text><polygon fill="#181818" points="1509.25,199.5762,1514.25,201.5762,1509.25,203.5762,1511.25,201.5762" style="stroke:#181818;stroke-width:0.5;"/><line style="stroke:#181818;stroke-width:0.5;" x1="690.75" x2="1512.25" y1="201.5762" y2="201.5762"/><text fill="#000000" font-family="sans-serif" font-size="6.5" font-weight="bold" lengthAdjust="spacing" textLength="7" x="694.25" y="198.9448">10</text><text fill="#000000" font-family="sans-serif" font-size="6.5" lengthAdjust="spacing" textLength="90" x="703.25" y="198.9448">find courses student is enrolled</text><polygon fill="#181818" points="698.75,215.2217,693.75,217.2217,698.75,219.2217,696.75,217.2217" style="stroke:#181818;stroke-width:0.5;"/><line style="stroke:#181818;stroke-width:0.5;" x1="695.75" x2="1517.25" y1="217.2217" y2="217.2217"/><text fill="#000000" font-family="sans-serif" font-size="6.5" font-weight="bold" lengthAdjust="spacing" textLength="7" x="701.75" y="214.5903">11</text><text fill="#000000" font-family="sans-serif" font-size="6.5" lengthAdjust="spacing" textLength="45" x="710.75" y="214.5903">returns courses</text><polygon fill="#181818" points="454.75,230.8672,449.75,232.8672,454.75,234.8672,452.75,232.8672" style="stroke:#181818;stroke-width:0.5;"/><line style="stroke:#181818;stroke-width:0.5;" x1="451.75" x2="690.25" y1="232.8672" y2="232.8672"/><text fill="#000000" font-family="sans-serif" font-size="6.5" font-weight="bold" lengthAdjust="spacing" textLength="7" x="457.75" y="230.2358">12</text><text fill="#000000" font-family="sans-serif" font-size="6.5" lengthAdjust="spacing" textLength="220.5" x="466.75" y="230.2358">returns open enrollment courses that student isn't already candidate/enrolled</text><polygon fill="#181818" points="210.75,246.5127,205.75,248.5127,210.75,250.5127,208.75,248.5127" style="stroke:#181818;stroke-width:0.5;"/><line style="stroke:#181818;stroke-width:0.5;" x1="207.75" x2="446.25" y1="248.5127" y2="248.5127"/><text fill="#000000" font-family="sans-serif" font-size="6.5" font-weight="bold" lengthAdjust="spacing" textLength="7" x="213.75" y="245.8813">13</text><text fill="#000000" font-family="sans-serif" font-size="6.5" lengthAdjust="spacing" textLength="220.5" x="222.75" y="245.8813">returns open enrollment courses that student isn't already candidate/enrolled</text><polygon fill="#181818" points="24.25,262.1582,19.25,264.1582,24.25,266.1582,22.25,264.1582" style="stroke:#181818;stroke-width:0.5;"/><line style="stroke:#181818;stroke-width:0.5;" x1="21.25" x2="202.25" y1="264.1582" y2="264.1582"/><text fill="#000000" font-family="sans-serif" font-size="6.5" font-weight="bold" lengthAdjust="spacing" textLength="7" x="27.25" y="261.5269">14</text><text fill="#000000" font-family="sans-serif" font-size="6.5" lengthAdjust="spacing" textLength="60.5" x="36.25" y="261.5269">asks course to enroll</text><polygon fill="#181818" points="194.25,277.8037,199.25,279.8037,194.25,281.8037,196.25,279.8037" style="stroke:#181818;stroke-width:0.5;"/><line style="stroke:#181818;stroke-width:0.5;" x1="16.25" x2="197.25" y1="279.8037" y2="279.8037"/><text fill="#000000" font-family="sans-serif" font-size="6.5" font-weight="bold" lengthAdjust="spacing" textLength="7" x="19.75" y="277.1724">15</text><text fill="#000000" font-family="sans-serif" font-size="6.5" lengthAdjust="spacing" textLength="67.5" x="28.75" y="277.1724">selects course to enroll</text><polygon fill="#181818" points="1091.5,293.4492,1096.5,295.4492,1091.5,297.4492,1093.5,295.4492" style="stroke:#181818;stroke-width:0.5;"/><line style="stroke:#181818;stroke-width:0.5;" x1="202.75" x2="1094.5" y1="295.4492" y2="295.4492"/><text fill="#000000" font-family="sans-serif" font-size="6.5" font-weight="bold" lengthAdjust="spacing" textLength="7" x="206.25" y="292.8179">16</text><text fill="#000000" font-family="sans-serif" font-size="6.5" lengthAdjust="spacing" textLength="77" x="215.25" y="292.8179">create a course enrollment</text><polygon fill="#181818" points="870,309.0947,865,311.0947,870,313.0947,868,311.0947" style="stroke:#181818;stroke-width:0.5;"/><line style="stroke:#181818;stroke-width:0.5;" x1="867" x2="1099.5" y1="311.0947" y2="311.0947"/><text fill="#000000" font-family="sans-serif" font-size="6.5" font-weight="bold" lengthAdjust="spacing" textLength="7" x="873" y="308.4634">17</text><text fill="#000000" font-family="sans-serif" font-size="6.5" lengthAdjust="spacing" textLength="73" x="882" y="308.4634">find student by username</text><polygon fill="#181818" points="1361.75,324.7402,1366.75,326.7402,1361.75,328.7402,1363.75,326.7402" style="stroke:#181818;stroke-width:0.5;"/><line style="stroke:#181818;stroke-width:0.5;" x1="862" x2="1364.75" y1="326.7402" y2="326.7402"/><text fill="#000000" font-family="sans-serif" font-size="6.5" font-weight="bold" lengthAdjust="spacing" textLength="7" x="865.5" y="324.1089">18</text><text fill="#000000" font-family="sans-serif" font-size="6.5" lengthAdjust="spacing" textLength="36" x="874.5" y="324.1089">gets student</text><polygon fill="#181818" points="870,340.3857,865,342.3857,870,344.3857,868,342.3857" style="stroke:#181818;stroke-width:0.5;"/><line style="stroke:#181818;stroke-width:0.5;" x1="867" x2="1369.75" y1="342.3857" y2="342.3857"/><text fill="#000000" font-family="sans-serif" font-size="6.5" font-weight="bold" lengthAdjust="spacing" textLength="7" x="873" y="339.7544">19</text><text fill="#000000" font-family="sans-serif" font-size="6.5" lengthAdjust="spacing" textLength="43.5" x="882" y="339.7544">returns student</text><polygon fill="#181818" points="1091.5,356.0313,1096.5,358.0313,1091.5,360.0313,1093.5,358.0313" style="stroke:#181818;stroke-width:0.5;"/><line style="stroke:#181818;stroke-width:0.5;" x1="862" x2="1094.5" y1="358.0313" y2="358.0313"/><text fill="#000000" font-family="sans-serif" font-size="6.5" font-weight="bold" lengthAdjust="spacing" textLength="7" x="865.5" y="355.3999">20</text><text fill="#000000" font-family="sans-serif" font-size="6.5" lengthAdjust="spacing" textLength="43.5" x="874.5" y="355.3999">returns student</text><polygon fill="#181818" points="987.25,371.6768,982.25,373.6768,987.25,375.6768,985.25,373.6768" style="stroke:#181818;stroke-width:0.5;"/><line style="stroke:#181818;stroke-width:0.5;" x1="984.25" x2="1099.5" y1="373.6768" y2="373.6768"/><text fill="#000000" font-family="sans-serif" font-size="6.5" font-weight="bold" lengthAdjust="spacing" textLength="7" x="990.25" y="371.0454">21</text><text fill="#000000" font-family="sans-serif" font-size="6.5" lengthAdjust="spacing" textLength="78" x="999.25" y="371.0454">find course by course code</text><polygon fill="#181818" points="1427.5,387.3223,1432.5,389.3223,1427.5,391.3223,1429.5,389.3223" style="stroke:#181818;stroke-width:0.5;"/><line style="stroke:#181818;stroke-width:0.5;" x1="979.25" x2="1430.5" y1="389.3223" y2="389.3223"/><text fill="#000000" font-family="sans-serif" font-size="6.5" font-weight="bold" lengthAdjust="spacing" textLength="7" x="982.75" y="386.6909">22</text><text fill="#000000" font-family="sans-serif" font-size="6.5" lengthAdjust="spacing" textLength="34" x="991.75" y="386.6909">gets course</text><polygon fill="#181818" points="987.25,402.9678,982.25,404.9678,987.25,406.9678,985.25,404.9678" style="stroke:#181818;stroke-width:0.5;"/><line style="stroke:#181818;stroke-width:0.5;" x1="984.25" x2="1435.5" y1="404.9678" y2="404.9678"/><text fill="#000000" font-family="sans-serif" font-size="6.5" font-weight="bold" lengthAdjust="spacing" textLength="7" x="990.25" y="402.3364">23</text><text fill="#000000" font-family="sans-serif" font-size="6.5" lengthAdjust="spacing" textLength="41.5" x="999.25" y="402.3364">returns course</text><polygon fill="#181818" points="1091.5,418.6133,1096.5,420.6133,1091.5,422.6133,1093.5,420.6133" style="stroke:#181818;stroke-width:0.5;"/><line style="stroke:#181818;stroke-width:0.5;" x1="979.25" x2="1094.5" y1="420.6133" y2="420.6133"/><text fill="#000000" font-family="sans-serif" font-size="6.5" font-weight="bold" lengthAdjust="spacing" textLength="7" x="982.75" y="417.9819">24</text><text fill="#000000" font-family="sans-serif" font-size="6.5" lengthAdjust="spacing" textLength="41.5" x="991.75" y="417.9819">returns course</text><polygon fill="#181818" points="1197.25,434.2588,1202.25,436.2588,1197.25,438.2588,1199.25,436.2588" style="stroke:#181818;stroke-width:0.5;"/><line style="stroke:#181818;stroke-width:0.5;" x1="1100" x2="1200.25" y1="436.2588" y2="436.2588"/><text fill="#000000" font-family="sans-serif" font-size="6.5" font-weight="bold" lengthAdjust="spacing" textLength="7" x="1103.5" y="433.6274">25</text><text fill="#000000" font-family="sans-serif" font-size="6.5" lengthAdjust="spacing" textLength="71.5" x="1112.5" y="433.6274">create course enrollment</text><polygon fill="#181818" points="1294.25,449.9043,1299.25,451.9043,1294.25,453.9043,1296.25,451.9043" style="stroke:#181818;stroke-width:0.5;"/><line style="stroke:#181818;stroke-width:0.5;" x1="1205.75" x2="1297.25" y1="451.9043" y2="451.9043"/><text fill="#000000" font-family="sans-serif" font-size="6.5" font-weight="bold" lengthAdjust="spacing" textLength="7" x="1209.25" y="449.2729">26</text><text fill="#000000" font-family="sans-serif" font-size="6.5" lengthAdjust="spacing" textLength="67" x="1218.25" y="449.2729">build course enrollment</text><polygon fill="#181818" points="1213.75,465.5498,1208.75,467.5498,1213.75,469.5498,1211.75,467.5498" style="stroke:#181818;stroke-width:0.5;"/><line style="stroke:#181818;stroke-width:0.5;" x1="1210.75" x2="1302.25" y1="467.5498" y2="467.5498"/><text fill="#000000" font-family="sans-serif" font-size="6.5" font-weight="bold" lengthAdjust="spacing" textLength="7" x="1216.75" y="464.9185">27</text><text fill="#000000" font-family="sans-serif" font-size="6.5" lengthAdjust="spacing" textLength="73.5" x="1225.75" y="464.9185">returns course enrollment</text><polygon fill="#181818" points="1108,481.1953,1103,483.1953,1108,485.1953,1106,483.1953" style="stroke:#181818;stroke-width:0.5;"/><line style="stroke:#181818;stroke-width:0.5;" x1="1105" x2="1205.25" y1="483.1953" y2="483.1953"/><text fill="#000000" font-family="sans-serif" font-size="6.5" font-weight="bold" lengthAdjust="spacing" textLength="7" x="1111" y="480.564">28</text><text fill="#000000" font-family="sans-serif" font-size="6.5" lengthAdjust="spacing" textLength="73.5" x="1120" y="480.564">returns course enrollment</text><polygon fill="#181818" points="1509.25,496.8408,1514.25,498.8408,1509.25,500.8408,1511.25,498.8408" style="stroke:#181818;stroke-width:0.5;"/><line style="stroke:#181818;stroke-width:0.5;" x1="1100" x2="1512.25" y1="498.8408" y2="498.8408"/><text fill="#000000" font-family="sans-serif" font-size="6.5" font-weight="bold" lengthAdjust="spacing" textLength="7" x="1103.5" y="496.2095">29</text><text fill="#000000" font-family="sans-serif" font-size="6.5" lengthAdjust="spacing" textLength="66.5" x="1112.5" y="496.2095">save course enrollment</text><polygon fill="#181818" points="1108,512.4863,1103,514.4863,1108,516.4863,1106,514.4863" style="stroke:#181818;stroke-width:0.5;"/><line style="stroke:#181818;stroke-width:0.5;" x1="1105" x2="1517.25" y1="514.4863" y2="514.4863"/><text fill="#000000" font-family="sans-serif" font-size="6.5" font-weight="bold" lengthAdjust="spacing" textLength="7" x="1111" y="511.855">30</text><text fill="#000000" font-family="sans-serif" font-size="6.5" lengthAdjust="spacing" textLength="73.5" x="1120" y="511.855">returns course enrollment</text><polygon fill="#181818" points="210.75,528.1318,205.75,530.1318,210.75,532.1318,208.75,530.1318" style="stroke:#181818;stroke-width:0.5;"/><line style="stroke:#181818;stroke-width:0.5;" x1="207.75" x2="1099.5" y1="530.1318" y2="530.1318"/><text fill="#000000" font-family="sans-serif" font-size="6.5" font-weight="bold" lengthAdjust="spacing" textLength="7" x="213.75" y="527.5005">31</text><text fill="#000000" font-family="sans-serif" font-size="6.5" lengthAdjust="spacing" textLength="73.5" x="222.75" y="527.5005">returns course enrollment</text><polygon fill="#181818" points="21.75,543.7773,16.75,545.7773,21.75,547.7773,19.75,545.7773" style="stroke:#181818;stroke-width:0.5;"/><line style="stroke:#181818;stroke-width:0.5;" x1="18.75" x2="202.25" y1="545.7773" y2="545.7773"/><text fill="#000000" font-family="sans-serif" font-size="6.5" font-weight="bold" lengthAdjust="spacing" textLength="7" x="24.75" y="543.146">32</text><text fill="#000000" font-family="sans-serif" font-size="6.5" lengthAdjust="spacing" textLength="163" x="33.75" y="543.146">shows message of successful/failure enrollment creation</text><!--SRC=[rLZBZjiW5Dtp5UncbMOVMPPcebQgrAfIf_C1nBwPeB711PmgVr_yY6CR6nnZjpEh4BYFmttW0mydfJAvsswpX32LfycdYATR2RzpO15iOafU1KaH8hdYB4yF8FGuKbpWPvN7m1Gc4ijgY38Y58refYtXx-GDzZmN4ZupmPCarGAFMPRGY2ZAsSlNGj4j50IP0AcdouamxFZuaG6xALQ6vEEPq8GS4lZ5gxKQw3D8gKqyWpZJ20hlFkf1G6uuUx2-KQayeVcQ28AOfuJsaNsXBAuLdYul4WGZARJSMjTjMouKAuHFb-ftp-E-vN41c-cz0AACAjbpfeenYCAwKyRgeAVsbDCahksEB0N1eHevJ0tPQESc9eeSY8HhC_s4Z4kgk-jIQ9gJkXj0I5qRHNEszIidNNLZpg5zWpXaPt2rRx4u6kXPfw8v4khVJUXkzPrszYQnuXXA2KmP9ZWgTL0CXkbcmcaQEIKseK-txN2YOu2vDb5ZBnDTGTSxEX5rHOsfP0-wBX9TiV45HuJ5LES1jfKUnEsTkZVMY7h0Hnwwcz3tf5ehTZu1QOnuRWvvwcz2euVjuMe7m1TxOwYF0VKdbYW20IeNJ4xPc87d_QJBFB5t-AY_V4q57ouuhp-hg-JA082CcIMpTJsAMrin4RphRYgpSpriT7RK2QZG4p5y_5xwMBrZeHczDDq-1tZev5yuMKE8qFZIFqdW8ARtayfLFmNpAS5YXV7VoDOK4hrQ-1O9tI9S_Og-lZ5KExjT76PIw5bN5Wa9HCgEOPqBY_FEkyDHAT9SebhLC3D4Bf_89R09hKyCqzYI4qKZQNE6R8l3LEuLr23diRgvZvivmZEFU7c4OKALMJ1D2yn2LJN-lDJX3qLLrQC-pRkli4Rz8Ulg80qjAyjywh2xkOTLkWBKfHpJAADV4AONrlou-1VMs0jWSxXQZzRf1JNY1utCcy0qel9DqW5enCseW0705f9kmYP2y8d1lJKqEohB5rAd_IKvhrP94syjQyLowE1O89ptCE650himTPKd_aVYLFDayWgO7x7CeqZ_E-R9zgX9TIwWGzyBdDh8VSmD_GK0]--></g></svg>