<?xml version="1.0" encoding="us-ascii" standalone="no"?><svg xmlns="http://www.w3.org/2000/svg" xmlns:xlink="http://www.w3.org/1999/xlink" contentStyleType="text/css" height="937px" preserveAspectRatio="none" style="width:1496px;height:937px;background:#FFFFFF;" version="1.1" viewBox="0 0 1496 937" width="1496px" zoomAndPan="magnify"><defs/><g><text fill="#000000" font-family="sans-serif" font-size="14" font-weight="bold" lengthAdjust="spacing" textLength="147" x="667.5" y="25.1074">List Exams of Course</text><!--cluster <<agr Teacher>>--><g id="cluster_&lt;&lt;agr Teacher&gt;&gt;"><path d="M1054.5,60.1348 L1155.5,60.1348 A3.75,3.75 0 0 1 1158,62.6348 L1165,84.7559 L1486.5,84.7559 A2.5,2.5 0 0 1 1489,87.2559 L1489,502.1348 A2.5,2.5 0 0 1 1486.5,504.6348 L1054.5,504.6348 A2.5,2.5 0 0 1 1052,502.1348 L1052,62.6348 A2.5,2.5 0 0 1 1054.5,60.1348 " fill="none" style="stroke:#000000;stroke-width:1.5;"/><line style="stroke:#000000;stroke-width:1.5;" x1="1052" x2="1165" y1="84.7559" y2="84.7559"/><text fill="#000000" font-family="sans-serif" font-size="14" font-weight="bold" lengthAdjust="spacing" textLength="100" x="1056" y="77.2422">&#171;agr Teacher&#187;</text></g><!--cluster <<agr Course>>--><g id="cluster_&lt;&lt;agr Course&gt;&gt;"><path d="M590.5,45.6348 L685.5,45.6348 A3.75,3.75 0 0 1 688,48.1348 L695,70.2559 L1025.5,70.2559 A2.5,2.5 0 0 1 1028,72.7559 L1028,329.1348 A2.5,2.5 0 0 1 1025.5,331.6348 L590.5,331.6348 A2.5,2.5 0 0 1 588,329.1348 L588,48.1348 A2.5,2.5 0 0 1 590.5,45.6348 " fill="none" style="stroke:#000000;stroke-width:1.5;"/><line style="stroke:#000000;stroke-width:1.5;" x1="588" x2="695" y1="70.2559" y2="70.2559"/><text fill="#000000" font-family="sans-serif" font-size="14" font-weight="bold" lengthAdjust="spacing" textLength="94" x="592" y="62.7422">&#171;agr Course&#187;</text></g><!--cluster <<agr Exam>>--><g id="cluster_&lt;&lt;agr Exam&gt;&gt;"><path d="M8.5,382.6348 L89.5,382.6348 A3.75,3.75 0 0 1 92,385.1348 L99,407.2559 L1025.5,407.2559 A2.5,2.5 0 0 1 1028,409.7559 L1028,928.1348 A2.5,2.5 0 0 1 1025.5,930.6348 L8.5,930.6348 A2.5,2.5 0 0 1 6,928.1348 L6,385.1348 A2.5,2.5 0 0 1 8.5,382.6348 " fill="none" style="stroke:#000000;stroke-width:1.5;"/><line style="stroke:#000000;stroke-width:1.5;" x1="6" x2="99" y1="407.2559" y2="407.2559"/><text fill="#000000" font-family="sans-serif" font-size="14" font-weight="bold" lengthAdjust="spacing" textLength="80" x="10" y="399.7422">&#171;agr Exam&#187;</text></g><!--class Teacher--><g id="elem_Teacher"><rect codeLine="7" fill="#F1F1F1" height="76.543" id="Teacher" rx="2.5" ry="2.5" style="stroke:#181818;stroke-width:0.5;" width="85" x="1074.5" y="238.6348"/><ellipse cx="1089.5" cy="268.9063" fill="#ADD1B2" rx="11" ry="11" style="stroke:#181818;stroke-width:1.0;"/><path d="M1092.2656,264.7813 Q1092.4219,264.5625 1092.6094,264.4531 Q1092.7969,264.3438 1093.0156,264.3438 Q1093.3906,264.3438 1093.625,264.6094 Q1093.8594,264.8594 1093.8594,265.4688 L1093.8594,266.9219 Q1093.8594,267.5313 1093.625,267.7969 Q1093.3906,268.0625 1093.0156,268.0625 Q1092.6719,268.0625 1092.4688,267.8594 Q1092.2656,267.6719 1092.1563,267.1563 Q1092.1094,266.7969 1091.9219,266.6094 Q1091.5938,266.2344 1090.9844,266.0156 Q1090.375,265.7969 1089.75,265.7969 Q1088.9844,265.7969 1088.3438,266.125 Q1087.7188,266.4531 1087.2188,267.2031 Q1086.7344,267.9531 1086.7344,268.9844 L1086.7344,270.0781 Q1086.7344,271.3125 1087.625,272.1406 Q1088.5156,272.9531 1090.1094,272.9531 Q1091.0469,272.9531 1091.7031,272.7031 Q1092.0938,272.5469 1092.5156,272.1094 Q1092.7813,271.8438 1092.9219,271.7656 Q1093.0781,271.6875 1093.2813,271.6875 Q1093.6094,271.6875 1093.8594,271.9531 Q1094.125,272.2031 1094.125,272.5469 Q1094.125,272.8906 1093.7813,273.2969 Q1093.2813,273.875 1092.4844,274.2031 Q1091.4063,274.6563 1090.1094,274.6563 Q1088.5938,274.6563 1087.3906,274.0313 Q1086.4063,273.5313 1085.7188,272.4688 Q1085.0313,271.3906 1085.0313,270.1094 L1085.0313,268.9531 Q1085.0313,267.625 1085.6406,266.4844 Q1086.2656,265.3281 1087.3594,264.7188 Q1088.4531,264.0938 1089.6875,264.0938 Q1090.4219,264.0938 1091.0625,264.2656 Q1091.7188,264.4219 1092.2656,264.7813 Z " fill="#000000"/><text fill="#000000" font-family="sans-serif" font-size="12" font-style="italic" lengthAdjust="spacing" textLength="43" x="1108.5" y="256.584">&#171;entity&#187;</text><text fill="#000000" font-family="sans-serif" font-size="12" font-style="italic" lengthAdjust="spacing" textLength="35" x="1112.5" y="272.5449">&#171;root&#187;</text><text fill="#000000" font-family="sans-serif" font-size="14" lengthAdjust="spacing" textLength="53" x="1103.5" y="290.6641">Teacher</text><line style="stroke:#181818;stroke-width:0.5;" x1="1075.5" x2="1158.5" y1="299.1777" y2="299.1777"/><line style="stroke:#181818;stroke-width:0.5;" x1="1075.5" x2="1158.5" y1="307.1777" y2="307.1777"/></g><!--class Acronym--><g id="elem_Acronym"><rect codeLine="8" fill="#F1F1F1" height="60.582" id="Acronym" rx="2.5" ry="2.5" style="stroke:#181818;stroke-width:0.5;" width="87" x="1068.5" y="427.6348"/><ellipse cx="1083.5" cy="449.9258" fill="#ADD1B2" rx="11" ry="11" style="stroke:#181818;stroke-width:1.0;"/><path d="M1086.2656,445.8008 Q1086.4219,445.582 1086.6094,445.4727 Q1086.7969,445.3633 1087.0156,445.3633 Q1087.3906,445.3633 1087.625,445.6289 Q1087.8594,445.8789 1087.8594,446.4883 L1087.8594,447.9414 Q1087.8594,448.5508 1087.625,448.8164 Q1087.3906,449.082 1087.0156,449.082 Q1086.6719,449.082 1086.4688,448.8789 Q1086.2656,448.6914 1086.1563,448.1758 Q1086.1094,447.8164 1085.9219,447.6289 Q1085.5938,447.2539 1084.9844,447.0352 Q1084.375,446.8164 1083.75,446.8164 Q1082.9844,446.8164 1082.3438,447.1445 Q1081.7188,447.4727 1081.2188,448.2227 Q1080.7344,448.9727 1080.7344,450.0039 L1080.7344,451.0977 Q1080.7344,452.332 1081.625,453.1602 Q1082.5156,453.9727 1084.1094,453.9727 Q1085.0469,453.9727 1085.7031,453.7227 Q1086.0938,453.5664 1086.5156,453.1289 Q1086.7813,452.8633 1086.9219,452.7852 Q1087.0781,452.707 1087.2813,452.707 Q1087.6094,452.707 1087.8594,452.9727 Q1088.125,453.2227 1088.125,453.5664 Q1088.125,453.9102 1087.7813,454.3164 Q1087.2813,454.8945 1086.4844,455.2227 Q1085.4063,455.6758 1084.1094,455.6758 Q1082.5938,455.6758 1081.3906,455.0508 Q1080.4063,454.5508 1079.7188,453.4883 Q1079.0313,452.4102 1079.0313,451.1289 L1079.0313,449.9727 Q1079.0313,448.6445 1079.6406,447.5039 Q1080.2656,446.3477 1081.3594,445.7383 Q1082.4531,445.1133 1083.6875,445.1133 Q1084.4219,445.1133 1085.0625,445.2852 Q1085.7188,445.4414 1086.2656,445.8008 Z " fill="#000000"/><text fill="#000000" font-family="sans-serif" font-size="12" font-style="italic" lengthAdjust="spacing" textLength="27" x="1111.5" y="445.584">&#171;vo&#187;</text><text fill="#000000" font-family="sans-serif" font-size="14" lengthAdjust="spacing" textLength="55" x="1097.5" y="463.7031">Acronym</text><line style="stroke:#181818;stroke-width:0.5;" x1="1069.5" x2="1154.5" y1="472.2168" y2="472.2168"/><line style="stroke:#181818;stroke-width:0.5;" x1="1069.5" x2="1154.5" y1="480.2168" y2="480.2168"/></g><!--class TaxPayerNumber--><g id="elem_TaxPayerNumber"><rect codeLine="9" fill="#F1F1F1" height="60.582" id="TaxPayerNumber" rx="2.5" ry="2.5" style="stroke:#181818;stroke-width:0.5;" width="141" x="1190.5" y="427.6348"/><ellipse cx="1205.5" cy="449.9258" fill="#ADD1B2" rx="11" ry="11" style="stroke:#181818;stroke-width:1.0;"/><path d="M1208.2656,445.8008 Q1208.4219,445.582 1208.6094,445.4727 Q1208.7969,445.3633 1209.0156,445.3633 Q1209.3906,445.3633 1209.625,445.6289 Q1209.8594,445.8789 1209.8594,446.4883 L1209.8594,447.9414 Q1209.8594,448.5508 1209.625,448.8164 Q1209.3906,449.082 1209.0156,449.082 Q1208.6719,449.082 1208.4688,448.8789 Q1208.2656,448.6914 1208.1563,448.1758 Q1208.1094,447.8164 1207.9219,447.6289 Q1207.5938,447.2539 1206.9844,447.0352 Q1206.375,446.8164 1205.75,446.8164 Q1204.9844,446.8164 1204.3438,447.1445 Q1203.7188,447.4727 1203.2188,448.2227 Q1202.7344,448.9727 1202.7344,450.0039 L1202.7344,451.0977 Q1202.7344,452.332 1203.625,453.1602 Q1204.5156,453.9727 1206.1094,453.9727 Q1207.0469,453.9727 1207.7031,453.7227 Q1208.0938,453.5664 1208.5156,453.1289 Q1208.7813,452.8633 1208.9219,452.7852 Q1209.0781,452.707 1209.2813,452.707 Q1209.6094,452.707 1209.8594,452.9727 Q1210.125,453.2227 1210.125,453.5664 Q1210.125,453.9102 1209.7813,454.3164 Q1209.2813,454.8945 1208.4844,455.2227 Q1207.4063,455.6758 1206.1094,455.6758 Q1204.5938,455.6758 1203.3906,455.0508 Q1202.4063,454.5508 1201.7188,453.4883 Q1201.0313,452.4102 1201.0313,451.1289 L1201.0313,449.9727 Q1201.0313,448.6445 1201.6406,447.5039 Q1202.2656,446.3477 1203.3594,445.7383 Q1204.4531,445.1133 1205.6875,445.1133 Q1206.4219,445.1133 1207.0625,445.2852 Q1207.7188,445.4414 1208.2656,445.8008 Z " fill="#000000"/><text fill="#000000" font-family="sans-serif" font-size="12" font-style="italic" lengthAdjust="spacing" textLength="27" x="1260.5" y="445.584">&#171;vo&#187;</text><text fill="#000000" font-family="sans-serif" font-size="14" lengthAdjust="spacing" textLength="109" x="1219.5" y="463.7031">TaxPayerNumber</text><line style="stroke:#181818;stroke-width:0.5;" x1="1191.5" x2="1330.5" y1="472.2168" y2="472.2168"/><line style="stroke:#181818;stroke-width:0.5;" x1="1191.5" x2="1330.5" y1="480.2168" y2="480.2168"/></g><!--class DateOfBirth--><g id="elem_DateOfBirth"><rect codeLine="10" fill="#F1F1F1" height="60.582" id="DateOfBirth" rx="2.5" ry="2.5" style="stroke:#181818;stroke-width:0.5;" width="106" x="1367" y="427.6348"/><ellipse cx="1382" cy="449.9258" fill="#ADD1B2" rx="11" ry="11" style="stroke:#181818;stroke-width:1.0;"/><path d="M1384.7656,445.8008 Q1384.9219,445.582 1385.1094,445.4727 Q1385.2969,445.3633 1385.5156,445.3633 Q1385.8906,445.3633 1386.125,445.6289 Q1386.3594,445.8789 1386.3594,446.4883 L1386.3594,447.9414 Q1386.3594,448.5508 1386.125,448.8164 Q1385.8906,449.082 1385.5156,449.082 Q1385.1719,449.082 1384.9688,448.8789 Q1384.7656,448.6914 1384.6563,448.1758 Q1384.6094,447.8164 1384.4219,447.6289 Q1384.0938,447.2539 1383.4844,447.0352 Q1382.875,446.8164 1382.25,446.8164 Q1381.4844,446.8164 1380.8438,447.1445 Q1380.2188,447.4727 1379.7188,448.2227 Q1379.2344,448.9727 1379.2344,450.0039 L1379.2344,451.0977 Q1379.2344,452.332 1380.125,453.1602 Q1381.0156,453.9727 1382.6094,453.9727 Q1383.5469,453.9727 1384.2031,453.7227 Q1384.5938,453.5664 1385.0156,453.1289 Q1385.2813,452.8633 1385.4219,452.7852 Q1385.5781,452.707 1385.7813,452.707 Q1386.1094,452.707 1386.3594,452.9727 Q1386.625,453.2227 1386.625,453.5664 Q1386.625,453.9102 1386.2813,454.3164 Q1385.7813,454.8945 1384.9844,455.2227 Q1383.9063,455.6758 1382.6094,455.6758 Q1381.0938,455.6758 1379.8906,455.0508 Q1378.9063,454.5508 1378.2188,453.4883 Q1377.5313,452.4102 1377.5313,451.1289 L1377.5313,449.9727 Q1377.5313,448.6445 1378.1406,447.5039 Q1378.7656,446.3477 1379.8594,445.7383 Q1380.9531,445.1133 1382.1875,445.1133 Q1382.9219,445.1133 1383.5625,445.2852 Q1384.2188,445.4414 1384.7656,445.8008 Z " fill="#000000"/><text fill="#000000" font-family="sans-serif" font-size="12" font-style="italic" lengthAdjust="spacing" textLength="27" x="1419.5" y="445.584">&#171;vo&#187;</text><text fill="#000000" font-family="sans-serif" font-size="14" lengthAdjust="spacing" textLength="74" x="1396" y="463.7031">DateOfBirth</text><line style="stroke:#181818;stroke-width:0.5;" x1="1368" x2="1472" y1="472.2168" y2="472.2168"/><line style="stroke:#181818;stroke-width:0.5;" x1="1368" x2="1472" y1="480.2168" y2="480.2168"/></g><!--class SystemUser--><g id="elem_SystemUser"><rect fill="#F1F1F1" height="48" id="SystemUser" rx="2.5" ry="2.5" style="stroke:#181818;stroke-width:0.5;" width="107" x="1068.5" y="97.1348"/><ellipse cx="1083.5" cy="113.1348" fill="#ADD1B2" rx="11" ry="11" style="stroke:#181818;stroke-width:1.0;"/><path d="M1086.2656,109.0098 Q1086.4219,108.791 1086.6094,108.6816 Q1086.7969,108.5723 1087.0156,108.5723 Q1087.3906,108.5723 1087.625,108.8379 Q1087.8594,109.0879 1087.8594,109.6973 L1087.8594,111.1504 Q1087.8594,111.7598 1087.625,112.0254 Q1087.3906,112.291 1087.0156,112.291 Q1086.6719,112.291 1086.4688,112.0879 Q1086.2656,111.9004 1086.1563,111.3848 Q1086.1094,111.0254 1085.9219,110.8379 Q1085.5938,110.4629 1084.9844,110.2441 Q1084.375,110.0254 1083.75,110.0254 Q1082.9844,110.0254 1082.3438,110.3535 Q1081.7188,110.6816 1081.2188,111.4316 Q1080.7344,112.1816 1080.7344,113.2129 L1080.7344,114.3066 Q1080.7344,115.541 1081.625,116.3691 Q1082.5156,117.1816 1084.1094,117.1816 Q1085.0469,117.1816 1085.7031,116.9316 Q1086.0938,116.7754 1086.5156,116.3379 Q1086.7813,116.0723 1086.9219,115.9941 Q1087.0781,115.916 1087.2813,115.916 Q1087.6094,115.916 1087.8594,116.1816 Q1088.125,116.4316 1088.125,116.7754 Q1088.125,117.1191 1087.7813,117.5254 Q1087.2813,118.1035 1086.4844,118.4316 Q1085.4063,118.8848 1084.1094,118.8848 Q1082.5938,118.8848 1081.3906,118.2598 Q1080.4063,117.7598 1079.7188,116.6973 Q1079.0313,115.6191 1079.0313,114.3379 L1079.0313,113.1816 Q1079.0313,111.8535 1079.6406,110.7129 Q1080.2656,109.5566 1081.3594,108.9473 Q1082.4531,108.3223 1083.6875,108.3223 Q1084.4219,108.3223 1085.0625,108.4941 Q1085.7188,108.6504 1086.2656,109.0098 Z " fill="#000000"/><text fill="#000000" font-family="sans-serif" font-size="14" lengthAdjust="spacing" textLength="75" x="1097.5" y="118.9316">SystemUser</text><line style="stroke:#181818;stroke-width:0.5;" x1="1069.5" x2="1174.5" y1="129.1348" y2="129.1348"/><line style="stroke:#181818;stroke-width:0.5;" x1="1069.5" x2="1174.5" y1="137.1348" y2="137.1348"/></g><!--class Course--><g id="elem_Course"><rect codeLine="19" fill="#F1F1F1" height="76.543" id="Course" rx="2.5" ry="2.5" style="stroke:#181818;stroke-width:0.5;" width="78" x="776" y="82.6348"/><ellipse cx="791" cy="112.9063" fill="#ADD1B2" rx="11" ry="11" style="stroke:#181818;stroke-width:1.0;"/><path d="M793.7656,108.7813 Q793.9219,108.5625 794.1094,108.4531 Q794.2969,108.3438 794.5156,108.3438 Q794.8906,108.3438 795.125,108.6094 Q795.3594,108.8594 795.3594,109.4688 L795.3594,110.9219 Q795.3594,111.5313 795.125,111.7969 Q794.8906,112.0625 794.5156,112.0625 Q794.1719,112.0625 793.9688,111.8594 Q793.7656,111.6719 793.6563,111.1563 Q793.6094,110.7969 793.4219,110.6094 Q793.0938,110.2344 792.4844,110.0156 Q791.875,109.7969 791.25,109.7969 Q790.4844,109.7969 789.8438,110.125 Q789.2188,110.4531 788.7188,111.2031 Q788.2344,111.9531 788.2344,112.9844 L788.2344,114.0781 Q788.2344,115.3125 789.125,116.1406 Q790.0156,116.9531 791.6094,116.9531 Q792.5469,116.9531 793.2031,116.7031 Q793.5938,116.5469 794.0156,116.1094 Q794.2813,115.8438 794.4219,115.7656 Q794.5781,115.6875 794.7813,115.6875 Q795.1094,115.6875 795.3594,115.9531 Q795.625,116.2031 795.625,116.5469 Q795.625,116.8906 795.2813,117.2969 Q794.7813,117.875 793.9844,118.2031 Q792.9063,118.6563 791.6094,118.6563 Q790.0938,118.6563 788.8906,118.0313 Q787.9063,117.5313 787.2188,116.4688 Q786.5313,115.3906 786.5313,114.1094 L786.5313,112.9531 Q786.5313,111.625 787.1406,110.4844 Q787.7656,109.3281 788.8594,108.7188 Q789.9531,108.0938 791.1875,108.0938 Q791.9219,108.0938 792.5625,108.2656 Q793.2188,108.4219 793.7656,108.7813 Z " fill="#000000"/><text fill="#000000" font-family="sans-serif" font-size="12" font-style="italic" lengthAdjust="spacing" textLength="43" x="806.5" y="100.584">&#171;entity&#187;</text><text fill="#000000" font-family="sans-serif" font-size="12" font-style="italic" lengthAdjust="spacing" textLength="35" x="810.5" y="116.5449">&#171;root&#187;</text><text fill="#000000" font-family="sans-serif" font-size="14" lengthAdjust="spacing" textLength="46" x="805" y="134.6641">Course</text><line style="stroke:#181818;stroke-width:0.5;" x1="777" x2="853" y1="143.1777" y2="143.1777"/><line style="stroke:#181818;stroke-width:0.5;" x1="777" x2="853" y1="151.1777" y2="151.1777"/></g><!--class Code--><g id="elem_Code"><rect codeLine="20" fill="#F1F1F1" height="60.582" id="Code" rx="2.5" ry="2.5" style="stroke:#181818;stroke-width:0.5;" width="66" x="604" y="246.6348"/><ellipse cx="619" cy="268.9258" fill="#ADD1B2" rx="11" ry="11" style="stroke:#181818;stroke-width:1.0;"/><path d="M621.7656,264.8008 Q621.9219,264.582 622.1094,264.4727 Q622.2969,264.3633 622.5156,264.3633 Q622.8906,264.3633 623.125,264.6289 Q623.3594,264.8789 623.3594,265.4883 L623.3594,266.9414 Q623.3594,267.5508 623.125,267.8164 Q622.8906,268.082 622.5156,268.082 Q622.1719,268.082 621.9688,267.8789 Q621.7656,267.6914 621.6563,267.1758 Q621.6094,266.8164 621.4219,266.6289 Q621.0938,266.2539 620.4844,266.0352 Q619.875,265.8164 619.25,265.8164 Q618.4844,265.8164 617.8438,266.1445 Q617.2188,266.4727 616.7188,267.2227 Q616.2344,267.9727 616.2344,269.0039 L616.2344,270.0977 Q616.2344,271.332 617.125,272.1602 Q618.0156,272.9727 619.6094,272.9727 Q620.5469,272.9727 621.2031,272.7227 Q621.5938,272.5664 622.0156,272.1289 Q622.2813,271.8633 622.4219,271.7852 Q622.5781,271.707 622.7813,271.707 Q623.1094,271.707 623.3594,271.9727 Q623.625,272.2227 623.625,272.5664 Q623.625,272.9102 623.2813,273.3164 Q622.7813,273.8945 621.9844,274.2227 Q620.9063,274.6758 619.6094,274.6758 Q618.0938,274.6758 616.8906,274.0508 Q615.9063,273.5508 615.2188,272.4883 Q614.5313,271.4102 614.5313,270.1289 L614.5313,268.9727 Q614.5313,267.6445 615.1406,266.5039 Q615.7656,265.3477 616.8594,264.7383 Q617.9531,264.1133 619.1875,264.1133 Q619.9219,264.1133 620.5625,264.2852 Q621.2188,264.4414 621.7656,264.8008 Z " fill="#000000"/><text fill="#000000" font-family="sans-serif" font-size="12" font-style="italic" lengthAdjust="spacing" textLength="27" x="636.5" y="264.584">&#171;vo&#187;</text><text fill="#000000" font-family="sans-serif" font-size="14" lengthAdjust="spacing" textLength="34" x="633" y="282.7031">Code</text><line style="stroke:#181818;stroke-width:0.5;" x1="605" x2="669" y1="291.2168" y2="291.2168"/><line style="stroke:#181818;stroke-width:0.5;" x1="605" x2="669" y1="299.2168" y2="299.2168"/></g><!--class Description--><g id="elem_Description"><rect codeLine="21" fill="#F1F1F1" height="60.582" id="Description" rx="2.5" ry="2.5" style="stroke:#181818;stroke-width:0.5;" width="103" x="705.5" y="246.6348"/><ellipse cx="720.5" cy="268.9258" fill="#ADD1B2" rx="11" ry="11" style="stroke:#181818;stroke-width:1.0;"/><path d="M723.2656,264.8008 Q723.4219,264.582 723.6094,264.4727 Q723.7969,264.3633 724.0156,264.3633 Q724.3906,264.3633 724.625,264.6289 Q724.8594,264.8789 724.8594,265.4883 L724.8594,266.9414 Q724.8594,267.5508 724.625,267.8164 Q724.3906,268.082 724.0156,268.082 Q723.6719,268.082 723.4688,267.8789 Q723.2656,267.6914 723.1563,267.1758 Q723.1094,266.8164 722.9219,266.6289 Q722.5938,266.2539 721.9844,266.0352 Q721.375,265.8164 720.75,265.8164 Q719.9844,265.8164 719.3438,266.1445 Q718.7188,266.4727 718.2188,267.2227 Q717.7344,267.9727 717.7344,269.0039 L717.7344,270.0977 Q717.7344,271.332 718.625,272.1602 Q719.5156,272.9727 721.1094,272.9727 Q722.0469,272.9727 722.7031,272.7227 Q723.0938,272.5664 723.5156,272.1289 Q723.7813,271.8633 723.9219,271.7852 Q724.0781,271.707 724.2813,271.707 Q724.6094,271.707 724.8594,271.9727 Q725.125,272.2227 725.125,272.5664 Q725.125,272.9102 724.7813,273.3164 Q724.2813,273.8945 723.4844,274.2227 Q722.4063,274.6758 721.1094,274.6758 Q719.5938,274.6758 718.3906,274.0508 Q717.4063,273.5508 716.7188,272.4883 Q716.0313,271.4102 716.0313,270.1289 L716.0313,268.9727 Q716.0313,267.6445 716.6406,266.5039 Q717.2656,265.3477 718.3594,264.7383 Q719.4531,264.1133 720.6875,264.1133 Q721.4219,264.1133 722.0625,264.2852 Q722.7188,264.4414 723.2656,264.8008 Z " fill="#000000"/><text fill="#000000" font-family="sans-serif" font-size="12" font-style="italic" lengthAdjust="spacing" textLength="27" x="756.5" y="264.584">&#171;vo&#187;</text><text fill="#000000" font-family="sans-serif" font-size="14" lengthAdjust="spacing" textLength="71" x="734.5" y="282.7031">Description</text><line style="stroke:#181818;stroke-width:0.5;" x1="706.5" x2="807.5" y1="291.2168" y2="291.2168"/><line style="stroke:#181818;stroke-width:0.5;" x1="706.5" x2="807.5" y1="299.2168" y2="299.2168"/></g><!--class Title--><g id="elem_Title"><rect codeLine="22" fill="#F1F1F1" height="60.582" id="Title" rx="2.5" ry="2.5" style="stroke:#181818;stroke-width:0.5;" width="59" x="843.5" y="246.6348"/><ellipse cx="858.5" cy="268.9258" fill="#ADD1B2" rx="11" ry="11" style="stroke:#181818;stroke-width:1.0;"/><path d="M861.2656,264.8008 Q861.4219,264.582 861.6094,264.4727 Q861.7969,264.3633 862.0156,264.3633 Q862.3906,264.3633 862.625,264.6289 Q862.8594,264.8789 862.8594,265.4883 L862.8594,266.9414 Q862.8594,267.5508 862.625,267.8164 Q862.3906,268.082 862.0156,268.082 Q861.6719,268.082 861.4688,267.8789 Q861.2656,267.6914 861.1563,267.1758 Q861.1094,266.8164 860.9219,266.6289 Q860.5938,266.2539 859.9844,266.0352 Q859.375,265.8164 858.75,265.8164 Q857.9844,265.8164 857.3438,266.1445 Q856.7188,266.4727 856.2188,267.2227 Q855.7344,267.9727 855.7344,269.0039 L855.7344,270.0977 Q855.7344,271.332 856.625,272.1602 Q857.5156,272.9727 859.1094,272.9727 Q860.0469,272.9727 860.7031,272.7227 Q861.0938,272.5664 861.5156,272.1289 Q861.7813,271.8633 861.9219,271.7852 Q862.0781,271.707 862.2813,271.707 Q862.6094,271.707 862.8594,271.9727 Q863.125,272.2227 863.125,272.5664 Q863.125,272.9102 862.7813,273.3164 Q862.2813,273.8945 861.4844,274.2227 Q860.4063,274.6758 859.1094,274.6758 Q857.5938,274.6758 856.3906,274.0508 Q855.4063,273.5508 854.7188,272.4883 Q854.0313,271.4102 854.0313,270.1289 L854.0313,268.9727 Q854.0313,267.6445 854.6406,266.5039 Q855.2656,265.3477 856.3594,264.7383 Q857.4531,264.1133 858.6875,264.1133 Q859.4219,264.1133 860.0625,264.2852 Q860.7188,264.4414 861.2656,264.8008 Z " fill="#000000"/><text fill="#000000" font-family="sans-serif" font-size="12" font-style="italic" lengthAdjust="spacing" textLength="27" x="872.5" y="264.584">&#171;vo&#187;</text><text fill="#000000" font-family="sans-serif" font-size="14" lengthAdjust="spacing" textLength="27" x="872.5" y="282.7031">Title</text><line style="stroke:#181818;stroke-width:0.5;" x1="844.5" x2="901.5" y1="291.2168" y2="291.2168"/><line style="stroke:#181818;stroke-width:0.5;" x1="844.5" x2="901.5" y1="299.2168" y2="299.2168"/></g><!--class State--><g id="elem_State"><rect codeLine="23" fill="#F1F1F1" height="76.543" id="State" rx="2.5" ry="2.5" style="stroke:#181818;stroke-width:0.5;" width="74" x="938" y="238.6348"/><ellipse cx="953" cy="268.9063" fill="#ADD1B2" rx="11" ry="11" style="stroke:#181818;stroke-width:1.0;"/><path d="M955.7656,264.7813 Q955.9219,264.5625 956.1094,264.4531 Q956.2969,264.3438 956.5156,264.3438 Q956.8906,264.3438 957.125,264.6094 Q957.3594,264.8594 957.3594,265.4688 L957.3594,266.9219 Q957.3594,267.5313 957.125,267.7969 Q956.8906,268.0625 956.5156,268.0625 Q956.1719,268.0625 955.9688,267.8594 Q955.7656,267.6719 955.6563,267.1563 Q955.6094,266.7969 955.4219,266.6094 Q955.0938,266.2344 954.4844,266.0156 Q953.875,265.7969 953.25,265.7969 Q952.4844,265.7969 951.8438,266.125 Q951.2188,266.4531 950.7188,267.2031 Q950.2344,267.9531 950.2344,268.9844 L950.2344,270.0781 Q950.2344,271.3125 951.125,272.1406 Q952.0156,272.9531 953.6094,272.9531 Q954.5469,272.9531 955.2031,272.7031 Q955.5938,272.5469 956.0156,272.1094 Q956.2813,271.8438 956.4219,271.7656 Q956.5781,271.6875 956.7813,271.6875 Q957.1094,271.6875 957.3594,271.9531 Q957.625,272.2031 957.625,272.5469 Q957.625,272.8906 957.2813,273.2969 Q956.7813,273.875 955.9844,274.2031 Q954.9063,274.6563 953.6094,274.6563 Q952.0938,274.6563 950.8906,274.0313 Q949.9063,273.5313 949.2188,272.4688 Q948.5313,271.3906 948.5313,270.1094 L948.5313,268.9531 Q948.5313,267.625 949.1406,266.4844 Q949.7656,265.3281 950.8594,264.7188 Q951.9531,264.0938 953.1875,264.0938 Q953.9219,264.0938 954.5625,264.2656 Q955.2188,264.4219 955.7656,264.7813 Z " fill="#000000"/><text fill="#000000" font-family="sans-serif" font-size="12" font-style="italic" lengthAdjust="spacing" textLength="27" x="974.5" y="256.584">&#171;vo&#187;</text><text fill="#000000" font-family="sans-serif" font-size="12" font-style="italic" lengthAdjust="spacing" textLength="46" x="965" y="272.5449">&#171;enum&#187;</text><text fill="#000000" font-family="sans-serif" font-size="14" lengthAdjust="spacing" textLength="33" x="971.5" y="290.6641">State</text><line style="stroke:#181818;stroke-width:0.5;" x1="939" x2="1011" y1="299.1777" y2="299.1777"/><line style="stroke:#181818;stroke-width:0.5;" x1="939" x2="1011" y1="307.1777" y2="307.1777"/></g><!--class Exam--><g id="elem_Exam"><rect codeLine="35" fill="#F1F1F1" height="76.543" id="Exam" rx="2.5" ry="2.5" style="stroke:#181818;stroke-width:0.5;" width="71" x="471.5" y="419.6348"/><ellipse cx="486.5" cy="449.9063" fill="#ADD1B2" rx="11" ry="11" style="stroke:#181818;stroke-width:1.0;"/><path d="M489.2656,445.7813 Q489.4219,445.5625 489.6094,445.4531 Q489.7969,445.3438 490.0156,445.3438 Q490.3906,445.3438 490.625,445.6094 Q490.8594,445.8594 490.8594,446.4688 L490.8594,447.9219 Q490.8594,448.5313 490.625,448.7969 Q490.3906,449.0625 490.0156,449.0625 Q489.6719,449.0625 489.4688,448.8594 Q489.2656,448.6719 489.1563,448.1563 Q489.1094,447.7969 488.9219,447.6094 Q488.5938,447.2344 487.9844,447.0156 Q487.375,446.7969 486.75,446.7969 Q485.9844,446.7969 485.3438,447.125 Q484.7188,447.4531 484.2188,448.2031 Q483.7344,448.9531 483.7344,449.9844 L483.7344,451.0781 Q483.7344,452.3125 484.625,453.1406 Q485.5156,453.9531 487.1094,453.9531 Q488.0469,453.9531 488.7031,453.7031 Q489.0938,453.5469 489.5156,453.1094 Q489.7813,452.8438 489.9219,452.7656 Q490.0781,452.6875 490.2813,452.6875 Q490.6094,452.6875 490.8594,452.9531 Q491.125,453.2031 491.125,453.5469 Q491.125,453.8906 490.7813,454.2969 Q490.2813,454.875 489.4844,455.2031 Q488.4063,455.6563 487.1094,455.6563 Q485.5938,455.6563 484.3906,455.0313 Q483.4063,454.5313 482.7188,453.4688 Q482.0313,452.3906 482.0313,451.1094 L482.0313,449.9531 Q482.0313,448.625 482.6406,447.4844 Q483.2656,446.3281 484.3594,445.7188 Q485.4531,445.0938 486.6875,445.0938 Q487.4219,445.0938 488.0625,445.2656 Q488.7188,445.4219 489.2656,445.7813 Z " fill="#000000"/><text fill="#000000" font-family="sans-serif" font-size="12" font-style="italic" lengthAdjust="spacing" textLength="43" x="498.5" y="437.584">&#171;entity&#187;</text><text fill="#000000" font-family="sans-serif" font-size="12" font-style="italic" lengthAdjust="spacing" textLength="35" x="502.5" y="453.5449">&#171;root&#187;</text><text fill="#000000" font-family="sans-serif" font-size="14" lengthAdjust="spacing" textLength="34" x="503" y="471.6641">Exam</text><line style="stroke:#181818;stroke-width:0.5;" x1="472.5" x2="541.5" y1="480.1777" y2="480.1777"/><line style="stroke:#181818;stroke-width:0.5;" x1="472.5" x2="541.5" y1="488.1777" y2="488.1777"/></g><!--class ExamTitle--><g id="elem_ExamTitle"><rect codeLine="36" fill="#F1F1F1" height="60.582" id="ExamTitle" rx="2.5" ry="2.5" style="stroke:#181818;stroke-width:0.5;" width="93" x="254.5" y="575.6348"/><ellipse cx="269.5" cy="597.9258" fill="#ADD1B2" rx="11" ry="11" style="stroke:#181818;stroke-width:1.0;"/><path d="M272.2656,593.8008 Q272.4219,593.582 272.6094,593.4727 Q272.7969,593.3633 273.0156,593.3633 Q273.3906,593.3633 273.625,593.6289 Q273.8594,593.8789 273.8594,594.4883 L273.8594,595.9414 Q273.8594,596.5508 273.625,596.8164 Q273.3906,597.082 273.0156,597.082 Q272.6719,597.082 272.4688,596.8789 Q272.2656,596.6914 272.1563,596.1758 Q272.1094,595.8164 271.9219,595.6289 Q271.5938,595.2539 270.9844,595.0352 Q270.375,594.8164 269.75,594.8164 Q268.9844,594.8164 268.3438,595.1445 Q267.7188,595.4727 267.2188,596.2227 Q266.7344,596.9727 266.7344,598.0039 L266.7344,599.0977 Q266.7344,600.332 267.625,601.1602 Q268.5156,601.9727 270.1094,601.9727 Q271.0469,601.9727 271.7031,601.7227 Q272.0938,601.5664 272.5156,601.1289 Q272.7813,600.8633 272.9219,600.7852 Q273.0781,600.707 273.2813,600.707 Q273.6094,600.707 273.8594,600.9727 Q274.125,601.2227 274.125,601.5664 Q274.125,601.9102 273.7813,602.3164 Q273.2813,602.8945 272.4844,603.2227 Q271.4063,603.6758 270.1094,603.6758 Q268.5938,603.6758 267.3906,603.0508 Q266.4063,602.5508 265.7188,601.4883 Q265.0313,600.4102 265.0313,599.1289 L265.0313,597.9727 Q265.0313,596.6445 265.6406,595.5039 Q266.2656,594.3477 267.3594,593.7383 Q268.4531,593.1133 269.6875,593.1133 Q270.4219,593.1133 271.0625,593.2852 Q271.7188,593.4414 272.2656,593.8008 Z " fill="#000000"/><text fill="#000000" font-family="sans-serif" font-size="12" font-style="italic" lengthAdjust="spacing" textLength="27" x="300.5" y="593.584">&#171;vo&#187;</text><text fill="#000000" font-family="sans-serif" font-size="14" lengthAdjust="spacing" textLength="61" x="283.5" y="611.7031">ExamTitle</text><line style="stroke:#181818;stroke-width:0.5;" x1="255.5" x2="346.5" y1="620.2168" y2="620.2168"/><line style="stroke:#181818;stroke-width:0.5;" x1="255.5" x2="346.5" y1="628.2168" y2="628.2168"/></g><!--class ExamHeader--><g id="elem_ExamHeader"><rect codeLine="37" fill="#F1F1F1" height="60.582" id="ExamHeader" rx="2.5" ry="2.5" style="stroke:#181818;stroke-width:0.5;" width="112" x="383" y="575.6348"/><ellipse cx="398" cy="597.9258" fill="#ADD1B2" rx="11" ry="11" style="stroke:#181818;stroke-width:1.0;"/><path d="M400.7656,593.8008 Q400.9219,593.582 401.1094,593.4727 Q401.2969,593.3633 401.5156,593.3633 Q401.8906,593.3633 402.125,593.6289 Q402.3594,593.8789 402.3594,594.4883 L402.3594,595.9414 Q402.3594,596.5508 402.125,596.8164 Q401.8906,597.082 401.5156,597.082 Q401.1719,597.082 400.9688,596.8789 Q400.7656,596.6914 400.6563,596.1758 Q400.6094,595.8164 400.4219,595.6289 Q400.0938,595.2539 399.4844,595.0352 Q398.875,594.8164 398.25,594.8164 Q397.4844,594.8164 396.8438,595.1445 Q396.2188,595.4727 395.7188,596.2227 Q395.2344,596.9727 395.2344,598.0039 L395.2344,599.0977 Q395.2344,600.332 396.125,601.1602 Q397.0156,601.9727 398.6094,601.9727 Q399.5469,601.9727 400.2031,601.7227 Q400.5938,601.5664 401.0156,601.1289 Q401.2813,600.8633 401.4219,600.7852 Q401.5781,600.707 401.7813,600.707 Q402.1094,600.707 402.3594,600.9727 Q402.625,601.2227 402.625,601.5664 Q402.625,601.9102 402.2813,602.3164 Q401.7813,602.8945 400.9844,603.2227 Q399.9063,603.6758 398.6094,603.6758 Q397.0938,603.6758 395.8906,603.0508 Q394.9063,602.5508 394.2188,601.4883 Q393.5313,600.4102 393.5313,599.1289 L393.5313,597.9727 Q393.5313,596.6445 394.1406,595.5039 Q394.7656,594.3477 395.8594,593.7383 Q396.9531,593.1133 398.1875,593.1133 Q398.9219,593.1133 399.5625,593.2852 Q400.2188,593.4414 400.7656,593.8008 Z " fill="#000000"/><text fill="#000000" font-family="sans-serif" font-size="12" font-style="italic" lengthAdjust="spacing" textLength="43" x="430.5" y="593.584">&#171;entity&#187;</text><text fill="#000000" font-family="sans-serif" font-size="14" lengthAdjust="spacing" textLength="80" x="412" y="611.7031">ExamHeader</text><line style="stroke:#181818;stroke-width:0.5;" x1="384" x2="494" y1="620.2168" y2="620.2168"/><line style="stroke:#181818;stroke-width:0.5;" x1="384" x2="494" y1="628.2168" y2="628.2168"/></g><!--class ExamHeaderTextualDescription--><g id="elem_ExamHeaderTextualDescription"><rect codeLine="38" fill="#F1F1F1" height="60.582" id="ExamHeaderTextualDescription" rx="2.5" ry="2.5" style="stroke:#181818;stroke-width:0.5;" width="229" x="82.5" y="715.6348"/><ellipse cx="97.5" cy="737.9258" fill="#ADD1B2" rx="11" ry="11" style="stroke:#181818;stroke-width:1.0;"/><path d="M100.2656,733.8008 Q100.4219,733.582 100.6094,733.4727 Q100.7969,733.3633 101.0156,733.3633 Q101.3906,733.3633 101.625,733.6289 Q101.8594,733.8789 101.8594,734.4883 L101.8594,735.9414 Q101.8594,736.5508 101.625,736.8164 Q101.3906,737.082 101.0156,737.082 Q100.6719,737.082 100.4688,736.8789 Q100.2656,736.6914 100.1563,736.1758 Q100.1094,735.8164 99.9219,735.6289 Q99.5938,735.2539 98.9844,735.0352 Q98.375,734.8164 97.75,734.8164 Q96.9844,734.8164 96.3438,735.1445 Q95.7188,735.4727 95.2188,736.2227 Q94.7344,736.9727 94.7344,738.0039 L94.7344,739.0977 Q94.7344,740.332 95.625,741.1602 Q96.5156,741.9727 98.1094,741.9727 Q99.0469,741.9727 99.7031,741.7227 Q100.0938,741.5664 100.5156,741.1289 Q100.7813,740.8633 100.9219,740.7852 Q101.0781,740.707 101.2813,740.707 Q101.6094,740.707 101.8594,740.9727 Q102.125,741.2227 102.125,741.5664 Q102.125,741.9102 101.7813,742.3164 Q101.2813,742.8945 100.4844,743.2227 Q99.4063,743.6758 98.1094,743.6758 Q96.5938,743.6758 95.3906,743.0508 Q94.4063,742.5508 93.7188,741.4883 Q93.0313,740.4102 93.0313,739.1289 L93.0313,737.9727 Q93.0313,736.6445 93.6406,735.5039 Q94.2656,734.3477 95.3594,733.7383 Q96.4531,733.1133 97.6875,733.1133 Q98.4219,733.1133 99.0625,733.2852 Q99.7188,733.4414 100.2656,733.8008 Z " fill="#000000"/><text fill="#000000" font-family="sans-serif" font-size="12" font-style="italic" lengthAdjust="spacing" textLength="27" x="196.5" y="733.584">&#171;vo&#187;</text><text fill="#000000" font-family="sans-serif" font-size="14" lengthAdjust="spacing" textLength="197" x="111.5" y="751.7031">ExamHeaderTextualDescription</text><line style="stroke:#181818;stroke-width:0.5;" x1="83.5" x2="310.5" y1="760.2168" y2="760.2168"/><line style="stroke:#181818;stroke-width:0.5;" x1="83.5" x2="310.5" y1="768.2168" y2="768.2168"/></g><!--class ExamSection--><g id="elem_ExamSection"><rect codeLine="39" fill="#F1F1F1" height="60.582" id="ExamSection" rx="2.5" ry="2.5" style="stroke:#181818;stroke-width:0.5;" width="113" x="530.5" y="575.6348"/><ellipse cx="545.5" cy="597.9258" fill="#ADD1B2" rx="11" ry="11" style="stroke:#181818;stroke-width:1.0;"/><path d="M548.2656,593.8008 Q548.4219,593.582 548.6094,593.4727 Q548.7969,593.3633 549.0156,593.3633 Q549.3906,593.3633 549.625,593.6289 Q549.8594,593.8789 549.8594,594.4883 L549.8594,595.9414 Q549.8594,596.5508 549.625,596.8164 Q549.3906,597.082 549.0156,597.082 Q548.6719,597.082 548.4688,596.8789 Q548.2656,596.6914 548.1563,596.1758 Q548.1094,595.8164 547.9219,595.6289 Q547.5938,595.2539 546.9844,595.0352 Q546.375,594.8164 545.75,594.8164 Q544.9844,594.8164 544.3438,595.1445 Q543.7188,595.4727 543.2188,596.2227 Q542.7344,596.9727 542.7344,598.0039 L542.7344,599.0977 Q542.7344,600.332 543.625,601.1602 Q544.5156,601.9727 546.1094,601.9727 Q547.0469,601.9727 547.7031,601.7227 Q548.0938,601.5664 548.5156,601.1289 Q548.7813,600.8633 548.9219,600.7852 Q549.0781,600.707 549.2813,600.707 Q549.6094,600.707 549.8594,600.9727 Q550.125,601.2227 550.125,601.5664 Q550.125,601.9102 549.7813,602.3164 Q549.2813,602.8945 548.4844,603.2227 Q547.4063,603.6758 546.1094,603.6758 Q544.5938,603.6758 543.3906,603.0508 Q542.4063,602.5508 541.7188,601.4883 Q541.0313,600.4102 541.0313,599.1289 L541.0313,597.9727 Q541.0313,596.6445 541.6406,595.5039 Q542.2656,594.3477 543.3594,593.7383 Q544.4531,593.1133 545.6875,593.1133 Q546.4219,593.1133 547.0625,593.2852 Q547.7188,593.4414 548.2656,593.8008 Z " fill="#000000"/><text fill="#000000" font-family="sans-serif" font-size="12" font-style="italic" lengthAdjust="spacing" textLength="43" x="578.5" y="593.584">&#171;entity&#187;</text><text fill="#000000" font-family="sans-serif" font-size="14" lengthAdjust="spacing" textLength="81" x="559.5" y="611.7031">ExamSection</text><line style="stroke:#181818;stroke-width:0.5;" x1="531.5" x2="642.5" y1="620.2168" y2="620.2168"/><line style="stroke:#181818;stroke-width:0.5;" x1="531.5" x2="642.5" y1="628.2168" y2="628.2168"/></g><!--class ExamSectionTextualDescription--><g id="elem_ExamSectionTextualDescription"><rect codeLine="40" fill="#F1F1F1" height="60.582" id="ExamSectionTextualDescription" rx="2.5" ry="2.5" style="stroke:#181818;stroke-width:0.5;" width="230" x="347" y="715.6348"/><ellipse cx="362" cy="737.9258" fill="#ADD1B2" rx="11" ry="11" style="stroke:#181818;stroke-width:1.0;"/><path d="M364.7656,733.8008 Q364.9219,733.582 365.1094,733.4727 Q365.2969,733.3633 365.5156,733.3633 Q365.8906,733.3633 366.125,733.6289 Q366.3594,733.8789 366.3594,734.4883 L366.3594,735.9414 Q366.3594,736.5508 366.125,736.8164 Q365.8906,737.082 365.5156,737.082 Q365.1719,737.082 364.9688,736.8789 Q364.7656,736.6914 364.6563,736.1758 Q364.6094,735.8164 364.4219,735.6289 Q364.0938,735.2539 363.4844,735.0352 Q362.875,734.8164 362.25,734.8164 Q361.4844,734.8164 360.8438,735.1445 Q360.2188,735.4727 359.7188,736.2227 Q359.2344,736.9727 359.2344,738.0039 L359.2344,739.0977 Q359.2344,740.332 360.125,741.1602 Q361.0156,741.9727 362.6094,741.9727 Q363.5469,741.9727 364.2031,741.7227 Q364.5938,741.5664 365.0156,741.1289 Q365.2813,740.8633 365.4219,740.7852 Q365.5781,740.707 365.7813,740.707 Q366.1094,740.707 366.3594,740.9727 Q366.625,741.2227 366.625,741.5664 Q366.625,741.9102 366.2813,742.3164 Q365.7813,742.8945 364.9844,743.2227 Q363.9063,743.6758 362.6094,743.6758 Q361.0938,743.6758 359.8906,743.0508 Q358.9063,742.5508 358.2188,741.4883 Q357.5313,740.4102 357.5313,739.1289 L357.5313,737.9727 Q357.5313,736.6445 358.1406,735.5039 Q358.7656,734.3477 359.8594,733.7383 Q360.9531,733.1133 362.1875,733.1133 Q362.9219,733.1133 363.5625,733.2852 Q364.2188,733.4414 364.7656,733.8008 Z " fill="#000000"/><text fill="#000000" font-family="sans-serif" font-size="12" font-style="italic" lengthAdjust="spacing" textLength="27" x="461.5" y="733.584">&#171;vo&#187;</text><text fill="#000000" font-family="sans-serif" font-size="14" lengthAdjust="spacing" textLength="198" x="376" y="751.7031">ExamSectionTextualDescription</text><line style="stroke:#181818;stroke-width:0.5;" x1="348" x2="576" y1="760.2168" y2="760.2168"/><line style="stroke:#181818;stroke-width:0.5;" x1="348" x2="576" y1="768.2168" y2="768.2168"/></g><!--class ExamQuestion--><g id="elem_ExamQuestion"><rect codeLine="41" fill="#F1F1F1" height="60.582" id="ExamQuestion" rx="2.5" ry="2.5" style="stroke:#181818;stroke-width:0.5;" width="123" x="612.5" y="715.6348"/><ellipse cx="627.5" cy="737.9258" fill="#ADD1B2" rx="11" ry="11" style="stroke:#181818;stroke-width:1.0;"/><path d="M630.2656,733.8008 Q630.4219,733.582 630.6094,733.4727 Q630.7969,733.3633 631.0156,733.3633 Q631.3906,733.3633 631.625,733.6289 Q631.8594,733.8789 631.8594,734.4883 L631.8594,735.9414 Q631.8594,736.5508 631.625,736.8164 Q631.3906,737.082 631.0156,737.082 Q630.6719,737.082 630.4688,736.8789 Q630.2656,736.6914 630.1563,736.1758 Q630.1094,735.8164 629.9219,735.6289 Q629.5938,735.2539 628.9844,735.0352 Q628.375,734.8164 627.75,734.8164 Q626.9844,734.8164 626.3438,735.1445 Q625.7188,735.4727 625.2188,736.2227 Q624.7344,736.9727 624.7344,738.0039 L624.7344,739.0977 Q624.7344,740.332 625.625,741.1602 Q626.5156,741.9727 628.1094,741.9727 Q629.0469,741.9727 629.7031,741.7227 Q630.0938,741.5664 630.5156,741.1289 Q630.7813,740.8633 630.9219,740.7852 Q631.0781,740.707 631.2813,740.707 Q631.6094,740.707 631.8594,740.9727 Q632.125,741.2227 632.125,741.5664 Q632.125,741.9102 631.7813,742.3164 Q631.2813,742.8945 630.4844,743.2227 Q629.4063,743.6758 628.1094,743.6758 Q626.5938,743.6758 625.3906,743.0508 Q624.4063,742.5508 623.7188,741.4883 Q623.0313,740.4102 623.0313,739.1289 L623.0313,737.9727 Q623.0313,736.6445 623.6406,735.5039 Q624.2656,734.3477 625.3594,733.7383 Q626.4531,733.1133 627.6875,733.1133 Q628.4219,733.1133 629.0625,733.2852 Q629.7188,733.4414 630.2656,733.8008 Z " fill="#000000"/><text fill="#000000" font-family="sans-serif" font-size="12" font-style="italic" lengthAdjust="spacing" textLength="43" x="665.5" y="733.584">&#171;entity&#187;</text><text fill="#000000" font-family="sans-serif" font-size="14" lengthAdjust="spacing" textLength="91" x="641.5" y="751.7031">ExamQuestion</text><line style="stroke:#181818;stroke-width:0.5;" x1="613.5" x2="734.5" y1="760.2168" y2="760.2168"/><line style="stroke:#181818;stroke-width:0.5;" x1="613.5" x2="734.5" y1="768.2168" y2="768.2168"/></g><!--class ExamQuestionStatement--><g id="elem_ExamQuestionStatement"><rect codeLine="42" fill="#F1F1F1" height="60.582" id="ExamQuestionStatement" rx="2.5" ry="2.5" style="stroke:#181818;stroke-width:0.5;" width="187" x="22.5" y="845.6348"/><ellipse cx="37.5" cy="867.9258" fill="#ADD1B2" rx="11" ry="11" style="stroke:#181818;stroke-width:1.0;"/><path d="M40.2656,863.8008 Q40.4219,863.582 40.6094,863.4727 Q40.7969,863.3633 41.0156,863.3633 Q41.3906,863.3633 41.625,863.6289 Q41.8594,863.8789 41.8594,864.4883 L41.8594,865.9414 Q41.8594,866.5508 41.625,866.8164 Q41.3906,867.082 41.0156,867.082 Q40.6719,867.082 40.4688,866.8789 Q40.2656,866.6914 40.1563,866.1758 Q40.1094,865.8164 39.9219,865.6289 Q39.5938,865.2539 38.9844,865.0352 Q38.375,864.8164 37.75,864.8164 Q36.9844,864.8164 36.3438,865.1445 Q35.7188,865.4727 35.2188,866.2227 Q34.7344,866.9727 34.7344,868.0039 L34.7344,869.0977 Q34.7344,870.332 35.625,871.1602 Q36.5156,871.9727 38.1094,871.9727 Q39.0469,871.9727 39.7031,871.7227 Q40.0938,871.5664 40.5156,871.1289 Q40.7813,870.8633 40.9219,870.7852 Q41.0781,870.707 41.2813,870.707 Q41.6094,870.707 41.8594,870.9727 Q42.125,871.2227 42.125,871.5664 Q42.125,871.9102 41.7813,872.3164 Q41.2813,872.8945 40.4844,873.2227 Q39.4063,873.6758 38.1094,873.6758 Q36.5938,873.6758 35.3906,873.0508 Q34.4063,872.5508 33.7188,871.4883 Q33.0313,870.4102 33.0313,869.1289 L33.0313,867.9727 Q33.0313,866.6445 33.6406,865.5039 Q34.2656,864.3477 35.3594,863.7383 Q36.4531,863.1133 37.6875,863.1133 Q38.4219,863.1133 39.0625,863.2852 Q39.7188,863.4414 40.2656,863.8008 Z " fill="#000000"/><text fill="#000000" font-family="sans-serif" font-size="12" font-style="italic" lengthAdjust="spacing" textLength="27" x="115.5" y="863.584">&#171;vo&#187;</text><text fill="#000000" font-family="sans-serif" font-size="14" lengthAdjust="spacing" textLength="155" x="51.5" y="881.7031">ExamQuestionStatement</text><line style="stroke:#181818;stroke-width:0.5;" x1="23.5" x2="208.5" y1="890.2168" y2="890.2168"/><line style="stroke:#181818;stroke-width:0.5;" x1="23.5" x2="208.5" y1="898.2168" y2="898.2168"/></g><!--class ExamQuestionNumber--><g id="elem_ExamQuestionNumber"><rect codeLine="43" fill="#F1F1F1" height="60.582" id="ExamQuestionNumber" rx="2.5" ry="2.5" style="stroke:#181818;stroke-width:0.5;" width="172" x="245" y="845.6348"/><ellipse cx="260" cy="867.9258" fill="#ADD1B2" rx="11" ry="11" style="stroke:#181818;stroke-width:1.0;"/><path d="M262.7656,863.8008 Q262.9219,863.582 263.1094,863.4727 Q263.2969,863.3633 263.5156,863.3633 Q263.8906,863.3633 264.125,863.6289 Q264.3594,863.8789 264.3594,864.4883 L264.3594,865.9414 Q264.3594,866.5508 264.125,866.8164 Q263.8906,867.082 263.5156,867.082 Q263.1719,867.082 262.9688,866.8789 Q262.7656,866.6914 262.6563,866.1758 Q262.6094,865.8164 262.4219,865.6289 Q262.0938,865.2539 261.4844,865.0352 Q260.875,864.8164 260.25,864.8164 Q259.4844,864.8164 258.8438,865.1445 Q258.2188,865.4727 257.7188,866.2227 Q257.2344,866.9727 257.2344,868.0039 L257.2344,869.0977 Q257.2344,870.332 258.125,871.1602 Q259.0156,871.9727 260.6094,871.9727 Q261.5469,871.9727 262.2031,871.7227 Q262.5938,871.5664 263.0156,871.1289 Q263.2813,870.8633 263.4219,870.7852 Q263.5781,870.707 263.7813,870.707 Q264.1094,870.707 264.3594,870.9727 Q264.625,871.2227 264.625,871.5664 Q264.625,871.9102 264.2813,872.3164 Q263.7813,872.8945 262.9844,873.2227 Q261.9063,873.6758 260.6094,873.6758 Q259.0938,873.6758 257.8906,873.0508 Q256.9063,872.5508 256.2188,871.4883 Q255.5313,870.4102 255.5313,869.1289 L255.5313,867.9727 Q255.5313,866.6445 256.1406,865.5039 Q256.7656,864.3477 257.8594,863.7383 Q258.9531,863.1133 260.1875,863.1133 Q260.9219,863.1133 261.5625,863.2852 Q262.2188,863.4414 262.7656,863.8008 Z " fill="#000000"/><text fill="#000000" font-family="sans-serif" font-size="12" font-style="italic" lengthAdjust="spacing" textLength="27" x="330.5" y="863.584">&#171;vo&#187;</text><text fill="#000000" font-family="sans-serif" font-size="14" lengthAdjust="spacing" textLength="140" x="274" y="881.7031">ExamQuestionNumber</text><line style="stroke:#181818;stroke-width:0.5;" x1="246" x2="416" y1="890.2168" y2="890.2168"/><line style="stroke:#181818;stroke-width:0.5;" x1="246" x2="416" y1="898.2168" y2="898.2168"/></g><!--class ExamQuestionValue--><g id="elem_ExamQuestionValue"><rect codeLine="44" fill="#F1F1F1" height="60.582" id="ExamQuestionValue" rx="2.5" ry="2.5" style="stroke:#181818;stroke-width:0.5;" width="159" x="452.5" y="845.6348"/><ellipse cx="467.5" cy="867.9258" fill="#ADD1B2" rx="11" ry="11" style="stroke:#181818;stroke-width:1.0;"/><path d="M470.2656,863.8008 Q470.4219,863.582 470.6094,863.4727 Q470.7969,863.3633 471.0156,863.3633 Q471.3906,863.3633 471.625,863.6289 Q471.8594,863.8789 471.8594,864.4883 L471.8594,865.9414 Q471.8594,866.5508 471.625,866.8164 Q471.3906,867.082 471.0156,867.082 Q470.6719,867.082 470.4688,866.8789 Q470.2656,866.6914 470.1563,866.1758 Q470.1094,865.8164 469.9219,865.6289 Q469.5938,865.2539 468.9844,865.0352 Q468.375,864.8164 467.75,864.8164 Q466.9844,864.8164 466.3438,865.1445 Q465.7188,865.4727 465.2188,866.2227 Q464.7344,866.9727 464.7344,868.0039 L464.7344,869.0977 Q464.7344,870.332 465.625,871.1602 Q466.5156,871.9727 468.1094,871.9727 Q469.0469,871.9727 469.7031,871.7227 Q470.0938,871.5664 470.5156,871.1289 Q470.7813,870.8633 470.9219,870.7852 Q471.0781,870.707 471.2813,870.707 Q471.6094,870.707 471.8594,870.9727 Q472.125,871.2227 472.125,871.5664 Q472.125,871.9102 471.7813,872.3164 Q471.2813,872.8945 470.4844,873.2227 Q469.4063,873.6758 468.1094,873.6758 Q466.5938,873.6758 465.3906,873.0508 Q464.4063,872.5508 463.7188,871.4883 Q463.0313,870.4102 463.0313,869.1289 L463.0313,867.9727 Q463.0313,866.6445 463.6406,865.5039 Q464.2656,864.3477 465.3594,863.7383 Q466.4531,863.1133 467.6875,863.1133 Q468.4219,863.1133 469.0625,863.2852 Q469.7188,863.4414 470.2656,863.8008 Z " fill="#000000"/><text fill="#000000" font-family="sans-serif" font-size="12" font-style="italic" lengthAdjust="spacing" textLength="27" x="531.5" y="863.584">&#171;vo&#187;</text><text fill="#000000" font-family="sans-serif" font-size="14" lengthAdjust="spacing" textLength="127" x="481.5" y="881.7031">ExamQuestionValue</text><line style="stroke:#181818;stroke-width:0.5;" x1="453.5" x2="610.5" y1="890.2168" y2="890.2168"/><line style="stroke:#181818;stroke-width:0.5;" x1="453.5" x2="610.5" y1="898.2168" y2="898.2168"/></g><!--class ExamQuestionSolution--><g id="elem_ExamQuestionSolution"><rect codeLine="45" fill="#F1F1F1" height="60.582" id="ExamQuestionSolution" rx="2.5" ry="2.5" style="stroke:#181818;stroke-width:0.5;" width="174" x="647" y="845.6348"/><ellipse cx="662" cy="867.9258" fill="#ADD1B2" rx="11" ry="11" style="stroke:#181818;stroke-width:1.0;"/><path d="M664.7656,863.8008 Q664.9219,863.582 665.1094,863.4727 Q665.2969,863.3633 665.5156,863.3633 Q665.8906,863.3633 666.125,863.6289 Q666.3594,863.8789 666.3594,864.4883 L666.3594,865.9414 Q666.3594,866.5508 666.125,866.8164 Q665.8906,867.082 665.5156,867.082 Q665.1719,867.082 664.9688,866.8789 Q664.7656,866.6914 664.6563,866.1758 Q664.6094,865.8164 664.4219,865.6289 Q664.0938,865.2539 663.4844,865.0352 Q662.875,864.8164 662.25,864.8164 Q661.4844,864.8164 660.8438,865.1445 Q660.2188,865.4727 659.7188,866.2227 Q659.2344,866.9727 659.2344,868.0039 L659.2344,869.0977 Q659.2344,870.332 660.125,871.1602 Q661.0156,871.9727 662.6094,871.9727 Q663.5469,871.9727 664.2031,871.7227 Q664.5938,871.5664 665.0156,871.1289 Q665.2813,870.8633 665.4219,870.7852 Q665.5781,870.707 665.7813,870.707 Q666.1094,870.707 666.3594,870.9727 Q666.625,871.2227 666.625,871.5664 Q666.625,871.9102 666.2813,872.3164 Q665.7813,872.8945 664.9844,873.2227 Q663.9063,873.6758 662.6094,873.6758 Q661.0938,873.6758 659.8906,873.0508 Q658.9063,872.5508 658.2188,871.4883 Q657.5313,870.4102 657.5313,869.1289 L657.5313,867.9727 Q657.5313,866.6445 658.1406,865.5039 Q658.7656,864.3477 659.8594,863.7383 Q660.9531,863.1133 662.1875,863.1133 Q662.9219,863.1133 663.5625,863.2852 Q664.2188,863.4414 664.7656,863.8008 Z " fill="#000000"/><text fill="#000000" font-family="sans-serif" font-size="12" font-style="italic" lengthAdjust="spacing" textLength="27" x="733.5" y="863.584">&#171;vo&#187;</text><text fill="#000000" font-family="sans-serif" font-size="14" lengthAdjust="spacing" textLength="142" x="676" y="881.7031">ExamQuestionSolution</text><line style="stroke:#181818;stroke-width:0.5;" x1="648" x2="820" y1="890.2168" y2="890.2168"/><line style="stroke:#181818;stroke-width:0.5;" x1="648" x2="820" y1="898.2168" y2="898.2168"/></g><!--class ExamQuestionType--><g id="elem_ExamQuestionType"><rect codeLine="46" fill="#F1F1F1" height="76.543" id="ExamQuestionType" rx="2.5" ry="2.5" style="stroke:#181818;stroke-width:0.5;" width="155" x="856.5" y="837.6348"/><ellipse cx="871.5" cy="867.9063" fill="#ADD1B2" rx="11" ry="11" style="stroke:#181818;stroke-width:1.0;"/><path d="M874.2656,863.7813 Q874.4219,863.5625 874.6094,863.4531 Q874.7969,863.3438 875.0156,863.3438 Q875.3906,863.3438 875.625,863.6094 Q875.8594,863.8594 875.8594,864.4688 L875.8594,865.9219 Q875.8594,866.5313 875.625,866.7969 Q875.3906,867.0625 875.0156,867.0625 Q874.6719,867.0625 874.4688,866.8594 Q874.2656,866.6719 874.1563,866.1563 Q874.1094,865.7969 873.9219,865.6094 Q873.5938,865.2344 872.9844,865.0156 Q872.375,864.7969 871.75,864.7969 Q870.9844,864.7969 870.3438,865.125 Q869.7188,865.4531 869.2188,866.2031 Q868.7344,866.9531 868.7344,867.9844 L868.7344,869.0781 Q868.7344,870.3125 869.625,871.1406 Q870.5156,871.9531 872.1094,871.9531 Q873.0469,871.9531 873.7031,871.7031 Q874.0938,871.5469 874.5156,871.1094 Q874.7813,870.8438 874.9219,870.7656 Q875.0781,870.6875 875.2813,870.6875 Q875.6094,870.6875 875.8594,870.9531 Q876.125,871.2031 876.125,871.5469 Q876.125,871.8906 875.7813,872.2969 Q875.2813,872.875 874.4844,873.2031 Q873.4063,873.6563 872.1094,873.6563 Q870.5938,873.6563 869.3906,873.0313 Q868.4063,872.5313 867.7188,871.4688 Q867.0313,870.3906 867.0313,869.1094 L867.0313,867.9531 Q867.0313,866.625 867.6406,865.4844 Q868.2656,864.3281 869.3594,863.7188 Q870.4531,863.0938 871.6875,863.0938 Q872.4219,863.0938 873.0625,863.2656 Q873.7188,863.4219 874.2656,863.7813 Z " fill="#000000"/><text fill="#000000" font-family="sans-serif" font-size="12" font-style="italic" lengthAdjust="spacing" textLength="27" x="933.5" y="855.584">&#171;vo&#187;</text><text fill="#000000" font-family="sans-serif" font-size="12" font-style="italic" lengthAdjust="spacing" textLength="46" x="924" y="871.5449">&#171;enum&#187;</text><text fill="#000000" font-family="sans-serif" font-size="14" lengthAdjust="spacing" textLength="123" x="885.5" y="889.6641">ExamQuestionType</text><line style="stroke:#181818;stroke-width:0.5;" x1="857.5" x2="1010.5" y1="898.1777" y2="898.1777"/><line style="stroke:#181818;stroke-width:0.5;" x1="857.5" x2="1010.5" y1="906.1777" y2="906.1777"/></g><!--reverse link SystemUser to Teacher--><g id="link_SystemUser_Teacher"><path codeLine="12" d="M1121.09,150.2948 C1120.28,175.0648 1119.1,211.3148 1118.22,238.5548 " fill="none" id="SystemUser-backto-Teacher" style="stroke:#181818;stroke-width:1.0;"/><polygon fill="#181818" points="1121.25,145.1948,1116.9693,154.0647,1121.0929,150.1923,1124.9653,154.316,1121.25,145.1948" style="stroke:#181818;stroke-width:1.0;"/><text fill="#000000" font-family="sans-serif" font-size="13" lengthAdjust="spacing" textLength="7" x="1113.2141" y="167.1951">1</text></g><!--link Teacher to Acronym--><g id="link_Teacher_Acronym"><path codeLine="13" d="M1115.95,315.6548 C1115.07,347.0548 1113.83,391.5148 1112.98,422.1748 " fill="none" id="Teacher-to-Acronym" style="stroke:#181818;stroke-width:1.0;"/><polygon fill="#181818" points="1112.83,427.3548,1117.0854,418.4727,1112.9728,422.3568,1109.0887,418.2442,1112.83,427.3548" style="stroke:#181818;stroke-width:1.0;"/><text fill="#000000" font-family="sans-serif" font-size="13" lengthAdjust="spacing" textLength="7" x="1105.2793" y="416.3547">1</text></g><!--link Teacher to DateOfBirth--><g id="link_Teacher_DateOfBirth"><path codeLine="14" d="M1159.8,289.3848 C1208.77,303.6748 1289.84,331.7548 1349,374.6348 C1367.34,387.9248 1384.07,406.8548 1396.67,423.2248 " fill="none" id="Teacher-to-DateOfBirth" style="stroke:#181818;stroke-width:1.0;"/><polygon fill="#181818" points="1399.79,427.3248,1397.5298,417.7388,1396.7649,423.3437,1391.16,422.5789,1399.79,427.3248" style="stroke:#181818;stroke-width:1.0;"/><text fill="#000000" font-family="sans-serif" font-size="13" lengthAdjust="spacing" textLength="7" x="1387.8998" y="416.3185">1</text></g><!--link Teacher to TaxPayerNumber--><g id="link_Teacher_TaxPayerNumber"><path codeLine="15" d="M1147.19,315.6548 C1172.76,347.4448 1209.1,392.6248 1233.79,423.3148 " fill="none" id="Teacher-to-TaxPayerNumber" style="stroke:#181818;stroke-width:1.0;"/><polygon fill="#181818" points="1237.04,427.3548,1234.5285,417.8315,1233.9113,423.4546,1228.2882,422.8374,1237.04,427.3548" style="stroke:#181818;stroke-width:1.0;"/><text fill="#000000" font-family="sans-serif" font-size="13" lengthAdjust="spacing" textLength="7" x="1224.3764" y="416.3547">1</text></g><!--link Course to State--><g id="link_Course_State"><path codeLine="25" d="M854.14,159.8048 C878.38,183.1348 909.46,213.0448 934.03,236.6948 " fill="none" id="Course-to-State" style="stroke:#181818;stroke-width:1.0;"/><polygon fill="#181818" points="937.91,240.4348,934.1891,231.3158,934.3036,236.9715,928.6479,237.086,937.91,240.4348" style="stroke:#181818;stroke-width:1.0;"/><text fill="#000000" font-family="sans-serif" font-size="13" lengthAdjust="spacing" textLength="7" x="922.9188" y="228.638">1</text></g><!--link Course to Title--><g id="link_Course_Title"><path codeLine="26" d="M829.19,159.8048 C838.62,184.8548 850.91,217.4848 860.07,241.8048 " fill="none" id="Course-to-Title" style="stroke:#181818;stroke-width:1.0;"/><polygon fill="#181818" points="861.86,246.5548,862.4452,236.7233,860.1044,241.8731,854.9546,239.5323,861.86,246.5548" style="stroke:#181818;stroke-width:1.0;"/><text fill="#000000" font-family="sans-serif" font-size="13" lengthAdjust="spacing" textLength="7" x="851.8405" y="235.5959">1</text></g><!--link Course to Description--><g id="link_Course_Description"><path codeLine="27" d="M800.81,159.8048 C791.38,184.8548 779.09,217.4848 769.93,241.8048 " fill="none" id="Course-to-Description" style="stroke:#181818;stroke-width:1.0;"/><polygon fill="#181818" points="768.14,246.5548,775.0454,239.5323,769.8956,241.8731,767.5548,236.7233,768.14,246.5548" style="stroke:#181818;stroke-width:1.0;"/><text fill="#000000" font-family="sans-serif" font-size="13" lengthAdjust="spacing" textLength="7" x="762.7158" y="235.5959">1</text></g><!--link Course to Code--><g id="link_Course_Code"><path codeLine="28" d="M775.94,155.9348 C745.67,182.1148 704.02,218.1548 674.23,243.9248 " fill="none" id="Course-to-Code" style="stroke:#181818;stroke-width:1.0;"/><polygon fill="#181818" points="670.29,247.3348,679.715,244.4767,674.0732,244.0656,674.4843,238.4237,670.29,247.3348" style="stroke:#181818;stroke-width:1.0;"/><text fill="#000000" font-family="sans-serif" font-size="13" lengthAdjust="spacing" textLength="7" x="677.8779" y="236.5368">1</text></g><!--link Course to Teacher--><g id="link_Course_Teacher"><path codeLine="29" d="M854.17,142.1048 C909.55,170.3448 1010.57,221.8648 1069.94,252.1348 " fill="none" id="Course-to-Teacher" style="stroke:#181818;stroke-width:1.0;"/><polygon fill="#181818" points="1074.49,254.4548,1068.2874,246.8044,1070.0351,252.1845,1064.655,253.9322,1074.49,254.4548" style="stroke:#181818;stroke-width:1.0;"/><text fill="#000000" font-family="sans-serif" font-size="13" lengthAdjust="spacing" textLength="60" x="985" y="204.6631">is ruled by</text><text fill="#000000" font-family="sans-serif" font-size="13" lengthAdjust="spacing" textLength="5" x="1061.4726" y="245.9958">*</text></g><!--link Teacher to Exam--><g id="link_Teacher_Exam"><path codeLine="48" d="M1074.16,312.6548 C1060.12,322.5848 1044,332.6248 1028,339.6348 C858.98,413.7448 637.85,443.6448 547.8,453.2748 " fill="none" id="Teacher-to-Exam" style="stroke:#181818;stroke-width:1.0;"/><polygon fill="#181818" points="542.58,453.8348,551.9525,456.8608,547.552,453.3061,551.1067,448.9057,542.58,453.8348" style="stroke:#181818;stroke-width:1.0;"/><text fill="#000000" font-family="sans-serif" font-size="13" lengthAdjust="spacing" textLength="43" x="1002" y="362.6631">creates</text><text fill="#000000" font-family="sans-serif" font-size="13" lengthAdjust="spacing" textLength="5" x="550.434" y="448.3002">*</text></g><!--link Exam to ExamTitle--><g id="link_Exam_ExamTitle"><path codeLine="49" d="M471.12,484.5648 C436.78,508.9048 384.81,545.7348 347.35,572.2848 " fill="none" id="Exam-to-ExamTitle" style="stroke:#181818;stroke-width:1.0;"/><polygon fill="#181818" points="342.86,575.4648,352.5189,573.5398,346.944,572.5802,347.9037,567.0054,342.86,575.4648" style="stroke:#181818;stroke-width:1.0;"/><text fill="#000000" font-family="sans-serif" font-size="13" lengthAdjust="spacing" textLength="7" x="343.7718" y="564.4874">1</text></g><!--link Exam to ExamHeader--><g id="link_Exam_ExamHeader"><path codeLine="50" d="M489.49,496.7348 C478.83,519.6048 465.33,548.6048 454.97,570.8448 " fill="none" id="Exam-to-ExamHeader" style="stroke:#181818;stroke-width:1.0;"/><polygon fill="#181818" points="452.81,575.4848,460.234,569.013,454.9197,570.9517,452.9811,565.6374,452.81,575.4848" style="stroke:#181818;stroke-width:1.0;"/><text fill="#000000" font-family="sans-serif" font-size="13" lengthAdjust="spacing" textLength="7" x="447.9364" y="564.5115">1</text></g><!--link ExamHeader to ExamHeaderTextualDescription--><g id="link_ExamHeader_ExamHeaderTextualDescription"><path codeLine="51" d="M387.08,636.7348 C347.69,659.2048 293.6,690.0448 253.19,713.0948 " fill="none" id="ExamHeader-to-ExamHeaderTextualDescription" style="stroke:#181818;stroke-width:1.0;"/><polygon fill="#181818" points="248.83,715.5748,258.6305,714.5999,253.1756,713.1018,254.6737,707.6469,248.83,715.5748" style="stroke:#181818;stroke-width:1.0;"/><text fill="#000000" font-family="sans-serif" font-size="13" lengthAdjust="spacing" textLength="22" x="235.7616" y="704.1363">0..1</text></g><!--link Exam to ExamSection--><g id="link_Exam_ExamSection"><path codeLine="52" d="M527.6,496.7348 C540.14,519.6048 556.02,548.6048 568.21,570.8448 " fill="none" id="Exam-to-ExamSection" style="stroke:#181818;stroke-width:1.0;"/><polygon fill="#181818" points="570.76,575.4848,569.9485,565.6694,568.3597,571.0986,562.9306,569.5098,570.76,575.4848" style="stroke:#181818;stroke-width:1.0;"/><text fill="#000000" font-family="sans-serif" font-size="13" lengthAdjust="spacing" textLength="26" x="555" y="541.6631">have</text><text fill="#000000" font-family="sans-serif" font-size="13" lengthAdjust="spacing" textLength="5" x="561.8949" y="564.5115">*</text></g><!--link ExamSection to ExamSectionTextualDescription--><g id="link_ExamSection_ExamSectionTextualDescription"><path codeLine="53" d="M560.18,636.7348 C540.25,658.7548 513.02,688.8048 492.3,711.6848 " fill="none" id="ExamSection-to-ExamSectionTextualDescription" style="stroke:#181818;stroke-width:1.0;"/><polygon fill="#181818" points="488.77,715.5748,497.7724,711.5801,492.1227,711.8654,491.8374,706.2157,488.77,715.5748" style="stroke:#181818;stroke-width:1.0;"/><text fill="#000000" font-family="sans-serif" font-size="13" lengthAdjust="spacing" textLength="22" x="470.2197" y="704.1363">0..1</text></g><!--link ExamQuestion to ExamQuestionValue--><g id="link_ExamQuestion_ExamQuestionValue"><path codeLine="54" d="M641.07,776.8248 C619.38,796.3748 590.97,821.9848 568.58,842.1648 " fill="none" id="ExamQuestion-to-ExamQuestionValue" style="stroke:#181818;stroke-width:1.0;"/><polygon fill="#181818" points="564.76,845.6048,574.1255,842.5573,568.4765,842.2599,568.7738,836.6109,564.76,845.6048" style="stroke:#181818;stroke-width:1.0;"/><text fill="#000000" font-family="sans-serif" font-size="13" lengthAdjust="spacing" textLength="7" x="564.1606" y="834.1728">1</text></g><!--link ExamQuestion to ExamQuestionNumber--><g id="link_ExamQuestion_ExamQuestionNumber"><path codeLine="55" d="M612.33,770.1648 C606.47,772.3548 600.62,774.5348 595,776.6348 C534.84,799.0948 466.96,824.4148 415.1,843.7648 " fill="none" id="ExamQuestion-to-ExamQuestionNumber" style="stroke:#181818;stroke-width:1.0;"/><polygon fill="#181818" points="410.13,845.6148,419.9599,846.2263,414.8163,843.8717,417.1709,838.7282,410.13,845.6148" style="stroke:#181818;stroke-width:1.0;"/><text fill="#000000" font-family="sans-serif" font-size="13" lengthAdjust="spacing" textLength="7" x="419.6741" y="834.185">1</text></g><!--link ExamSection to ExamQuestion--><g id="link_ExamSection_ExamQuestion"><path codeLine="56" d="M605.66,636.7348 C619.43,658.5648 638.17,688.3048 652.55,711.1148 " fill="none" id="ExamSection-to-ExamQuestion" style="stroke:#181818;stroke-width:1.0;"/><polygon fill="#181818" points="655.37,715.5748,653.9448,705.8296,652.6995,711.3477,647.1814,710.1024,655.37,715.5748" style="stroke:#181818;stroke-width:1.0;"/><text fill="#000000" font-family="sans-serif" font-size="13" lengthAdjust="spacing" textLength="26" x="636" y="681.6631">have</text><text fill="#000000" font-family="sans-serif" font-size="13" lengthAdjust="spacing" textLength="5" x="645.7478" y="704.1363">*</text></g><!--link ExamQuestion to ExamQuestionSolution--><g id="link_ExamQuestion_ExamQuestionSolution"><path codeLine="57" d="M687.92,776.8248 C696.89,795.9648 708.59,820.9248 717.95,840.9048 " fill="none" id="ExamQuestion-to-ExamQuestionSolution" style="stroke:#181818;stroke-width:1.0;"/><polygon fill="#181818" points="720.16,845.6048,719.9516,835.7581,718.0331,841.0797,712.7115,839.1612,720.16,845.6048" style="stroke:#181818;stroke-width:1.0;"/><text fill="#000000" font-family="sans-serif" font-size="13" lengthAdjust="spacing" textLength="7" x="709.3669" y="834.1728">1</text></g><!--link ExamQuestion to ExamQuestionType--><g id="link_ExamQuestion_ExamQuestionType"><path codeLine="58" d="M733.98,776.6648 C769.28,794.0448 814.41,816.2648 852.87,835.1948 " fill="none" id="ExamQuestion-to-ExamQuestionType" style="stroke:#181818;stroke-width:1.0;"/><polygon fill="#181818" points="857.52,837.4848,851.2203,829.9142,853.0365,835.2716,847.6791,837.0878,857.52,837.4848" style="stroke:#181818;stroke-width:1.0;"/><text fill="#000000" font-family="sans-serif" font-size="13" lengthAdjust="spacing" textLength="7" x="841.2723" y="829.1046">1</text></g><!--link ExamQuestion to ExamQuestionStatement--><g id="link_ExamQuestion_ExamQuestionStatement"><path codeLine="59" d="M612.27,771.4748 C606.48,773.3648 600.66,775.1248 595,776.6348 C435.25,819.3048 388.46,797.7048 228,837.6348 C220.26,839.5648 212.28,841.7748 204.31,844.1248 " fill="none" id="ExamQuestion-to-ExamQuestionStatement" style="stroke:#181818;stroke-width:1.0;"/><polygon fill="#181818" points="199.36,845.6148,209.1281,846.8733,204.1511,844.1846,206.8398,839.2076,199.36,845.6148" style="stroke:#181818;stroke-width:1.0;"/><text fill="#000000" font-family="sans-serif" font-size="13" lengthAdjust="spacing" textLength="7" x="209.8294" y="834.185">1</text></g><!--link Exam to Course--><g id="link_Exam_Course"><path codeLine="60" d="M499.06,419.4248 C491.4,372.3148 486.03,291.4748 525,238.6348 C583.54,159.2648 705.15,133.8748 770.75,125.8248 " fill="none" id="Exam-to-Course" style="stroke:#181818;stroke-width:1.0;"/><polygon fill="#181818" points="775.76,125.2248,766.3456,122.332,770.796,125.8239,767.3041,130.2743,775.76,125.2248" style="stroke:#181818;stroke-width:1.0;"/><text fill="#000000" font-family="sans-serif" font-size="13" lengthAdjust="spacing" textLength="60" x="526" y="282.6631">belongs to</text><text fill="#000000" font-family="sans-serif" font-size="13" lengthAdjust="spacing" textLength="7" x="760.8798" y="121.509">1</text></g><!--SRC=[ZLJBRi8m4BpdArOv8e7QAx8YjRHI3rKVIjgx2Gj4JM9aEvG8yU-D7JiuhmPEQ6UOtPrPB1EP8hmcGiBpYMO2s1PMhE02FSyxqFY7xX1yGkYEGuGqtYCF0l_iUL1zufGAOSk4O2uJMGO18Pmn6GJdYyDwY3dBouoG8-iW4Jrzq1BvMv6jbKoFy4GblcyV4oxt3QhXi1GIio-17Fnx7yXyReVHiFaEymtxpUU1vfWnshZ1d3w3U7jGxz8pg3PE-tETlYvEkBDY6uHwENTn535F3Z9X-P1lAhg1UYYhFUgwwbfaLyFgMQ3PI5FRYEELRZ2AEiEDSjHQBgZxplp6sIKa0dYHuWRMPNLmVKlLKNOCLIM0lg7GSa6nz08mO942Nv1kgX6kEYEC24-oeAcpxfXYYB61HoKDvNRDpmB5bAZbw3IpYZObLX_m5EkRfWLEaKAM5YFtwTAYyc2bkZVP-fTLjw7ZNKBCiTf6Q8eksPjjWXs6wj0QpAIi6NUBHOlKJw4ZQQQnkIvXJu_NjhRSqHwDkFbXawaxTylrswZc7HgSPzQcTcV_LzTcUXjRHNkZhhtFVdBcVLZ26bEMxmH8LZq6Vm00]--></g></svg>