<?xml version="1.0" encoding="us-ascii" standalone="no"?><svg xmlns="http://www.w3.org/2000/svg" xmlns:xlink="http://www.w3.org/1999/xlink" contentStyleType="text/css" height="727px" preserveAspectRatio="none" style="width:943px;height:727px;background:#FFFFFF;" version="1.1" viewBox="0 0 943 727" width="943px" zoomAndPan="magnify"><defs/><g><text fill="#000000" font-family="sans-serif" font-size="14" font-weight="bold" lengthAdjust="spacing" textLength="223" x="361.75" y="30.1074">Bulk Student Enrollment By CSV</text><rect fill="#FFFFFF" height="469.3652" style="stroke:#181818;stroke-width:1.0;" width="10" x="254.5" y="156.5332"/><rect fill="#FFFFFF" height="219.0371" style="stroke:#181818;stroke-width:1.0;" width="10" x="426.5" y="187.8242"/><rect fill="#FFFFFF" height="375.4922" style="stroke:#181818;stroke-width:1.0;" width="10" x="581.5" y="219.1152"/><rect fill="#FFFFFF" height="125.1641" style="stroke:#181818;stroke-width:1.0;" width="10" x="721" y="250.4063"/><rect fill="#FFFFFF" height="281.6191" style="stroke:#181818;stroke-width:1.0;" width="10" x="883.5" y="281.6973"/><line style="stroke:#181818;stroke-width:0.5;stroke-dasharray:5.0,5.0;" x1="34" x2="34" y1="123.2422" y2="643.8984"/><line style="stroke:#181818;stroke-width:0.5;stroke-dasharray:5.0,5.0;" x1="259" x2="259" y1="123.2422" y2="643.8984"/><line style="stroke:#181818;stroke-width:0.5;stroke-dasharray:5.0,5.0;" x1="431" x2="431" y1="123.2422" y2="643.8984"/><line style="stroke:#181818;stroke-width:0.5;stroke-dasharray:5.0,5.0;" x1="586" x2="586" y1="123.2422" y2="643.8984"/><line style="stroke:#181818;stroke-width:0.5;stroke-dasharray:5.0,5.0;" x1="726" x2="726" y1="123.2422" y2="643.8984"/><line style="stroke:#181818;stroke-width:0.5;stroke-dasharray:5.0,5.0;" x1="888.5" x2="888.5" y1="123.2422" y2="643.8984"/><text fill="#000000" font-family="sans-serif" font-size="14" lengthAdjust="spacing" textLength="53" x="5" y="119.7285">Teacher</text><ellipse cx="34.5" cy="53.1211" fill="#E2E2F0" rx="8" ry="8" style="stroke:#181818;stroke-width:0.5;"/><path d="M34.5,61.1211 L34.5,88.1211 M21.5,69.1211 L47.5,69.1211 M34.5,88.1211 L21.5,103.1211 M34.5,88.1211 L47.5,103.1211 " fill="none" style="stroke:#181818;stroke-width:0.5;"/><text fill="#000000" font-family="sans-serif" font-size="14" lengthAdjust="spacing" textLength="53" x="5" y="658.0059">Teacher</text><ellipse cx="34.5" cy="670.0195" fill="#E2E2F0" rx="8" ry="8" style="stroke:#181818;stroke-width:0.5;"/><path d="M34.5,678.0195 L34.5,705.0195 M21.5,686.0195 L47.5,686.0195 M34.5,705.0195 L21.5,720.0195 M34.5,705.0195 L47.5,720.0195 " fill="none" style="stroke:#181818;stroke-width:0.5;"/><rect fill="#E2E2F0" height="32.6211" rx="2.5" ry="2.5" style="stroke:#181818;stroke-width:0.5;" width="89" x="215" y="89.6211"/><text fill="#000000" font-family="sans-serif" font-size="14" lengthAdjust="spacing" textLength="75" x="222" y="111.7285">ListExamsUI</text><rect fill="#E2E2F0" height="32.6211" rx="2.5" ry="2.5" style="stroke:#181818;stroke-width:0.5;" width="89" x="215" y="642.8984"/><text fill="#000000" font-family="sans-serif" font-size="14" lengthAdjust="spacing" textLength="75" x="222" y="665.0059">ListExamsUI</text><rect fill="#E2E2F0" height="32.6211" rx="2.5" ry="2.5" style="stroke:#181818;stroke-width:0.5;" width="151" x="356" y="89.6211"/><text fill="#000000" font-family="sans-serif" font-size="14" lengthAdjust="spacing" textLength="137" x="363" y="111.7285">ListCoursesController</text><rect fill="#E2E2F0" height="32.6211" rx="2.5" ry="2.5" style="stroke:#181818;stroke-width:0.5;" width="151" x="356" y="642.8984"/><text fill="#000000" font-family="sans-serif" font-size="14" lengthAdjust="spacing" textLength="137" x="363" y="665.0059">ListCoursesController</text><rect fill="#E2E2F0" height="32.6211" rx="2.5" ry="2.5" style="stroke:#181818;stroke-width:0.5;" width="139" x="517" y="89.6211"/><text fill="#000000" font-family="sans-serif" font-size="14" lengthAdjust="spacing" textLength="125" x="524" y="111.7285">ListExamsController</text><rect fill="#E2E2F0" height="32.6211" rx="2.5" ry="2.5" style="stroke:#181818;stroke-width:0.5;" width="139" x="517" y="642.8984"/><text fill="#000000" font-family="sans-serif" font-size="14" lengthAdjust="spacing" textLength="125" x="524" y="665.0059">ListExamsController</text><text fill="#000000" font-family="sans-serif" font-size="14" lengthAdjust="spacing" textLength="114" x="666" y="119.7285">CourseRepository</text><path d="M708,68.6211 C708,58.6211 726,58.6211 726,58.6211 C726,58.6211 744,58.6211 744,68.6211 L744,94.6211 C744,104.6211 726,104.6211 726,104.6211 C726,104.6211 708,104.6211 708,94.6211 L708,68.6211 " fill="#E2E2F0" style="stroke:#181818;stroke-width:1.5;"/><path d="M708,68.6211 C708,78.6211 726,78.6211 726,78.6211 C726,78.6211 744,78.6211 744,68.6211 " fill="none" style="stroke:#181818;stroke-width:1.5;"/><text fill="#000000" font-family="sans-serif" font-size="14" lengthAdjust="spacing" textLength="114" x="666" y="658.0059">CourseRepository</text><path d="M708,671.5195 C708,661.5195 726,661.5195 726,661.5195 C726,661.5195 744,661.5195 744,671.5195 L744,697.5195 C744,707.5195 726,707.5195 726,707.5195 C726,707.5195 708,707.5195 708,697.5195 L708,671.5195 " fill="#E2E2F0" style="stroke:#181818;stroke-width:1.5;"/><path d="M708,671.5195 C708,681.5195 726,681.5195 726,681.5195 C726,681.5195 744,681.5195 744,671.5195 " fill="none" style="stroke:#181818;stroke-width:1.5;"/><text fill="#000000" font-family="sans-serif" font-size="14" lengthAdjust="spacing" textLength="102" x="834.5" y="119.7285">ExamRepository</text><path d="M870.5,68.6211 C870.5,58.6211 888.5,58.6211 888.5,58.6211 C888.5,58.6211 906.5,58.6211 906.5,68.6211 L906.5,94.6211 C906.5,104.6211 888.5,104.6211 888.5,104.6211 C888.5,104.6211 870.5,104.6211 870.5,94.6211 L870.5,68.6211 " fill="#E2E2F0" style="stroke:#181818;stroke-width:1.5;"/><path d="M870.5,68.6211 C870.5,78.6211 888.5,78.6211 888.5,78.6211 C888.5,78.6211 906.5,78.6211 906.5,68.6211 " fill="none" style="stroke:#181818;stroke-width:1.5;"/><text fill="#000000" font-family="sans-serif" font-size="14" lengthAdjust="spacing" textLength="102" x="834.5" y="658.0059">ExamRepository</text><path d="M870.5,671.5195 C870.5,661.5195 888.5,661.5195 888.5,661.5195 C888.5,661.5195 906.5,661.5195 906.5,671.5195 L906.5,697.5195 C906.5,707.5195 888.5,707.5195 888.5,707.5195 C888.5,707.5195 870.5,707.5195 870.5,697.5195 L870.5,671.5195 " fill="#E2E2F0" style="stroke:#181818;stroke-width:1.5;"/><path d="M870.5,671.5195 C870.5,681.5195 888.5,681.5195 888.5,681.5195 C888.5,681.5195 906.5,681.5195 906.5,671.5195 " fill="none" style="stroke:#181818;stroke-width:1.5;"/><rect fill="#FFFFFF" height="469.3652" style="stroke:#181818;stroke-width:1.0;" width="10" x="254.5" y="156.5332"/><rect fill="#FFFFFF" height="219.0371" style="stroke:#181818;stroke-width:1.0;" width="10" x="426.5" y="187.8242"/><rect fill="#FFFFFF" height="375.4922" style="stroke:#181818;stroke-width:1.0;" width="10" x="581.5" y="219.1152"/><rect fill="#FFFFFF" height="125.1641" style="stroke:#181818;stroke-width:1.0;" width="10" x="721" y="250.4063"/><rect fill="#FFFFFF" height="281.6191" style="stroke:#181818;stroke-width:1.0;" width="10" x="883.5" y="281.6973"/><polygon fill="#181818" points="242.5,152.5332,252.5,156.5332,242.5,160.5332,246.5,156.5332" style="stroke:#181818;stroke-width:1.0;"/><line style="stroke:#181818;stroke-width:1.0;" x1="0" x2="248.5" y1="156.5332" y2="156.5332"/><text fill="#000000" font-family="sans-serif" font-size="13" font-weight="bold" lengthAdjust="spacing" textLength="7" x="7" y="151.2705">1</text><text fill="#000000" font-family="sans-serif" font-size="13" lengthAdjust="spacing" textLength="41" x="18" y="151.2705">Onload</text><polygon fill="#181818" points="414.5,183.8242,424.5,187.8242,414.5,191.8242,418.5,187.8242" style="stroke:#181818;stroke-width:1.0;"/><line style="stroke:#181818;stroke-width:1.0;" x1="264.5" x2="420.5" y1="187.8242" y2="187.8242"/><text fill="#000000" font-family="sans-serif" font-size="13" font-weight="bold" lengthAdjust="spacing" textLength="7" x="271.5" y="182.5615">2</text><text fill="#000000" font-family="sans-serif" font-size="13" lengthAdjust="spacing" textLength="132" x="282.5" y="182.5615">ListCoursesController()</text><polygon fill="#181818" points="569.5,215.1152,579.5,219.1152,569.5,223.1152,573.5,219.1152" style="stroke:#181818;stroke-width:1.0;"/><line style="stroke:#181818;stroke-width:1.0;" x1="264.5" x2="575.5" y1="219.1152" y2="219.1152"/><text fill="#000000" font-family="sans-serif" font-size="13" font-weight="bold" lengthAdjust="spacing" textLength="7" x="271.5" y="213.8525">3</text><text fill="#000000" font-family="sans-serif" font-size="13" lengthAdjust="spacing" textLength="125" x="282.5" y="213.8525">ListExamsController()</text><polygon fill="#181818" points="709,246.4063,719,250.4063,709,254.4063,713,250.4063" style="stroke:#181818;stroke-width:1.0;"/><line style="stroke:#181818;stroke-width:1.0;" x1="436.5" x2="715" y1="250.4063" y2="250.4063"/><text fill="#000000" font-family="sans-serif" font-size="13" font-weight="bold" lengthAdjust="spacing" textLength="7" x="443.5" y="245.1436">4</text><text fill="#000000" font-family="sans-serif" font-size="13" lengthAdjust="spacing" textLength="251" x="454.5" y="245.1436">PersistenceContext.repositories().courses()</text><polygon fill="#181818" points="871.5,277.6973,881.5,281.6973,871.5,285.6973,875.5,281.6973" style="stroke:#181818;stroke-width:1.0;"/><line style="stroke:#181818;stroke-width:1.0;" x1="591.5" x2="877.5" y1="281.6973" y2="281.6973"/><text fill="#000000" font-family="sans-serif" font-size="13" font-weight="bold" lengthAdjust="spacing" textLength="7" x="598.5" y="276.4346">5</text><text fill="#000000" font-family="sans-serif" font-size="13" lengthAdjust="spacing" textLength="244" x="609.5" y="276.4346">PersistenceContext.repositories().exams()</text><polygon fill="#181818" points="414.5,308.9883,424.5,312.9883,414.5,316.9883,418.5,312.9883" style="stroke:#181818;stroke-width:1.0;"/><line style="stroke:#181818;stroke-width:1.0;" x1="264.5" x2="420.5" y1="312.9883" y2="312.9883"/><text fill="#000000" font-family="sans-serif" font-size="13" font-weight="bold" lengthAdjust="spacing" textLength="7" x="271.5" y="307.7256">6</text><text fill="#000000" font-family="sans-serif" font-size="13" lengthAdjust="spacing" textLength="69" x="282.5" y="307.7256">allCourses()</text><polygon fill="#181818" points="709,340.2793,719,344.2793,709,348.2793,713,344.2793" style="stroke:#181818;stroke-width:1.0;"/><line style="stroke:#181818;stroke-width:1.0;" x1="436.5" x2="715" y1="344.2793" y2="344.2793"/><text fill="#000000" font-family="sans-serif" font-size="13" font-weight="bold" lengthAdjust="spacing" textLength="7" x="443.5" y="339.0166">7</text><text fill="#000000" font-family="sans-serif" font-size="13" lengthAdjust="spacing" textLength="88" x="454.5" y="339.0166">listAllCourses()</text><polygon fill="#181818" points="447.5,371.5703,437.5,375.5703,447.5,379.5703,443.5,375.5703" style="stroke:#181818;stroke-width:1.0;"/><line style="stroke:#181818;stroke-width:1.0;" x1="441.5" x2="725" y1="375.5703" y2="375.5703"/><text fill="#000000" font-family="sans-serif" font-size="13" font-weight="bold" lengthAdjust="spacing" textLength="7" x="453.5" y="370.3076">8</text><text fill="#000000" font-family="sans-serif" font-size="13" lengthAdjust="spacing" textLength="118" x="464.5" y="370.3076">return list of courses</text><polygon fill="#181818" points="275.5,402.8613,265.5,406.8613,275.5,410.8613,271.5,406.8613" style="stroke:#181818;stroke-width:1.0;"/><line style="stroke:#181818;stroke-width:1.0;" x1="269.5" x2="430.5" y1="406.8613" y2="406.8613"/><text fill="#000000" font-family="sans-serif" font-size="13" font-weight="bold" lengthAdjust="spacing" textLength="7" x="281.5" y="401.5986">9</text><text fill="#000000" font-family="sans-serif" font-size="13" lengthAdjust="spacing" textLength="118" x="292.5" y="401.5986">return list of courses</text><polygon fill="#181818" points="45.5,434.1523,35.5,438.1523,45.5,442.1523,41.5,438.1523" style="stroke:#181818;stroke-width:1.0;"/><line style="stroke:#181818;stroke-width:1.0;" x1="39.5" x2="253.5" y1="438.1523" y2="438.1523"/><text fill="#000000" font-family="sans-serif" font-size="13" font-weight="bold" lengthAdjust="spacing" textLength="14" x="51.5" y="432.8896">10</text><text fill="#000000" font-family="sans-serif" font-size="13" lengthAdjust="spacing" textLength="146" x="69.5" y="432.8896">Shows the list of courses</text><polygon fill="#181818" points="242.5,465.4434,252.5,469.4434,242.5,473.4434,246.5,469.4434" style="stroke:#181818;stroke-width:1.0;"/><line style="stroke:#181818;stroke-width:1.0;" x1="34.5" x2="248.5" y1="469.4434" y2="469.4434"/><text fill="#000000" font-family="sans-serif" font-size="13" font-weight="bold" lengthAdjust="spacing" textLength="14" x="41.5" y="464.1807">11</text><text fill="#000000" font-family="sans-serif" font-size="13" lengthAdjust="spacing" textLength="107" x="59.5" y="464.1807">selects the course</text><polygon fill="#181818" points="569.5,496.7344,579.5,500.7344,569.5,504.7344,573.5,500.7344" style="stroke:#181818;stroke-width:1.0;"/><line style="stroke:#181818;stroke-width:1.0;" x1="264.5" x2="575.5" y1="500.7344" y2="500.7344"/><text fill="#000000" font-family="sans-serif" font-size="13" font-weight="bold" lengthAdjust="spacing" textLength="14" x="271.5" y="495.4717">12</text><text fill="#000000" font-family="sans-serif" font-size="13" lengthAdjust="spacing" textLength="156" x="289.5" y="495.4717">listExams(selectedCourse)</text><polygon fill="#181818" points="871.5,528.0254,881.5,532.0254,871.5,536.0254,875.5,532.0254" style="stroke:#181818;stroke-width:1.0;"/><line style="stroke:#181818;stroke-width:1.0;" x1="591.5" x2="877.5" y1="532.0254" y2="532.0254"/><text fill="#000000" font-family="sans-serif" font-size="13" font-weight="bold" lengthAdjust="spacing" textLength="14" x="598.5" y="526.7627">13</text><text fill="#000000" font-family="sans-serif" font-size="13" lengthAdjust="spacing" textLength="250" x="616.5" y="526.7627">listAllExamsOfCourseByCode(Coursecode)</text><polygon fill="#181818" points="602.5,559.3164,592.5,563.3164,602.5,567.3164,598.5,563.3164" style="stroke:#181818;stroke-width:1.0;"/><line style="stroke:#181818;stroke-width:1.0;" x1="596.5" x2="887.5" y1="563.3164" y2="563.3164"/><text fill="#000000" font-family="sans-serif" font-size="13" font-weight="bold" lengthAdjust="spacing" textLength="14" x="608.5" y="558.0537">14</text><text fill="#000000" font-family="sans-serif" font-size="13" lengthAdjust="spacing" textLength="76" x="626.5" y="558.0537">return results</text><polygon fill="#181818" points="275.5,590.6074,265.5,594.6074,275.5,598.6074,271.5,594.6074" style="stroke:#181818;stroke-width:1.0;"/><line style="stroke:#181818;stroke-width:1.0;" x1="269.5" x2="585.5" y1="594.6074" y2="594.6074"/><text fill="#000000" font-family="sans-serif" font-size="13" font-weight="bold" lengthAdjust="spacing" textLength="14" x="281.5" y="589.3447">15</text><text fill="#000000" font-family="sans-serif" font-size="13" lengthAdjust="spacing" textLength="76" x="299.5" y="589.3447">return results</text><polygon fill="#181818" points="45.5,621.8984,35.5,625.8984,45.5,629.8984,41.5,625.8984" style="stroke:#181818;stroke-width:1.0;"/><line style="stroke:#181818;stroke-width:1.0;" x1="39.5" x2="258.5" y1="625.8984" y2="625.8984"/><text fill="#000000" font-family="sans-serif" font-size="13" font-weight="bold" lengthAdjust="spacing" textLength="14" x="51.5" y="620.6357">16</text><text fill="#000000" font-family="sans-serif" font-size="13" lengthAdjust="spacing" textLength="178" x="69.5" y="620.6357">Shows the Teacher the Exams</text><!--SRC=[ZLFBRi8m4BpdAomk3GVWpg5IYJWWLQ8geNUJB8rLnqxjTGj_Nxy2mQGIDsTtPcTcLtbg43kzN2mwJWMQbiyhsIuqV1iG5SngHZyLRRCC6N8WAyE_o0vD3GB9MYZ9UUkUgpCfTXyPDIY5QG-WienMA1KfWLODA48rAREEAcGLwwmGcRmoZUiJRVL-Ct7j_UQ-NqYZDEX22dHIe3pILGjK_unBmBRci3L5Ug0Qo2JCV8TEQcOTdYyZNMc0SyCIb2rvK3PxjdR9acm5bxHsKTaFHN0PRDrseqKB6OsHJw-SFaqW1hkHb-GPicAiNYTAEdUM-mPAMxexe6F32UUgJy90vrDxO-yezU7JHGl1pCCJmNbD7FfnwK8evyL5VTm_jr8lASptRYOfGAE4HnDv935JLiDzfe6EFznZrEjPIilPDV9N4spWZbPUvchWK650XMvwLzxVDGzOg4FCwUZUuoOyONiCoDMva3NauQEoJq_jrtCHYX4LQCFn9bf_cQlWS2VZ1BUAqLtqFxXxUvj3elqV_W00]--></g></svg>