<?xml version="1.0" encoding="UTF-8" standalone="no"?><svg xmlns="http://www.w3.org/2000/svg" xmlns:xlink="http://www.w3.org/1999/xlink" contentStyleType="text/css" height="232px" preserveAspectRatio="none" style="width:420px;height:232px;background:#FFFFFF;" version="1.1" viewBox="0 0 420 232" width="420px" zoomAndPan="magnify"><defs/><g><!--cluster <<agr MeetingParticipation>>--><g id="cluster_&lt;&lt;agr MeetingParticipation&gt;&gt;"><path d="M8.5,6.0137 L198.5,6.0137 A3.75,3.75 0 0 1 201,8.5137 L208,30.6348 L410.5,30.6348 A2.5,2.5 0 0 1 413,33.1348 L413,222.5137 A2.5,2.5 0 0 1 410.5,225.0137 L8.5,225.0137 A2.5,2.5 0 0 1 6,222.5137 L6,8.5137 A2.5,2.5 0 0 1 8.5,6.0137 " fill="none" style="stroke:#000000;stroke-width:1.5;"/><line style="stroke:#000000;stroke-width:1.5;" x1="6" x2="208" y1="30.6348" y2="30.6348"/><text fill="#000000" font-family="sans-serif" font-size="14" font-weight="bold" lengthAdjust="spacing" textLength="189" x="10" y="23.1211">«agr MeetingParticipation»</text></g><!--class MeetingParticipation--><g id="elem_MeetingParticipation"><rect codeLine="7" fill="#F1F1F1" height="60.543" id="MeetingParticipation" rx="2.5" ry="2.5" style="stroke:#181818;stroke-width:0.5;" width="134" x="198" y="43.0137"/><text fill="#000000" font-family="sans-serif" font-size="12" font-style="italic" lengthAdjust="spacing" textLength="43" x="243.5" y="60.9629">«entity»</text><text fill="#000000" font-family="sans-serif" font-size="12" font-style="italic" lengthAdjust="spacing" textLength="35" x="247.5" y="76.9238">«root»</text><text fill="#000000" font-family="sans-serif" font-size="14" lengthAdjust="spacing" textLength="128" x="201" y="95.043">MeetingParticipation</text></g><!--class MeetingParticipationState--><g id="elem_MeetingParticipationState"><rect codeLine="8" fill="#F1F1F1" height="44.582" id="MeetingParticipationState" rx="2.5" ry="2.5" style="stroke:#181818;stroke-width:0.5;" width="167" x="22.5" y="164.0137"/><text fill="#000000" font-family="sans-serif" font-size="12" font-style="italic" lengthAdjust="spacing" textLength="27" x="92.5" y="181.9629">«vo»</text><text fill="#000000" font-family="sans-serif" font-size="14" lengthAdjust="spacing" textLength="161" x="25.5" y="200.082">MeetingParticipationState</text></g><!--class SystemUser--><g id="elem_SystemUser"><rect fill="#F1F1F1" height="28.6211" id="SystemUser" rx="2.5" ry="2.5" style="stroke:#181818;stroke-width:0.5;" width="81" x="224.5" y="172.0137"/><text fill="#000000" font-family="sans-serif" font-size="14" lengthAdjust="spacing" textLength="75" x="227.5" y="192.1211">SystemUser</text></g><!--class Meeting--><g id="elem_Meeting"><rect fill="#F1F1F1" height="28.6211" id="Meeting" rx="2.5" ry="2.5" style="stroke:#181818;stroke-width:0.5;" width="56" x="341" y="172.0137"/><text fill="#000000" font-family="sans-serif" font-size="14" lengthAdjust="spacing" textLength="50" x="344" y="192.1211">Meeting</text></g><!--link MeetingParticipation to SystemUser--><g id="link_MeetingParticipation_SystemUser"><path codeLine="10" d="M265,104.2637 C265,124.1637 265,149.7437 265,166.8337 " fill="none" id="MeetingParticipation-to-SystemUser" style="stroke:#181818;stroke-width:1.0;"/><polygon fill="#181818" points="265,171.8537,269,162.8537,265,166.8537,261,162.8537,265,171.8537" style="stroke:#181818;stroke-width:1.0;"/><text fill="#000000" font-family="sans-serif" font-size="13" lengthAdjust="spacing" textLength="5" x="259.1094" y="160.7506">*</text></g><!--link MeetingParticipation to Meeting--><g id="link_MeetingParticipation_Meeting"><path codeLine="11" d="M292.87,104.2637 C312,124.6737 336.73,151.0737 352.73,168.1437 " fill="none" id="MeetingParticipation-to-Meeting" style="stroke:#181818;stroke-width:1.0;"/><polygon fill="#181818" points="356.2,171.8537,352.9627,162.5521,352.7803,168.206,347.1264,168.0236,356.2,171.8537" style="stroke:#181818;stroke-width:1.0;"/><text fill="#000000" font-family="sans-serif" font-size="13" lengthAdjust="spacing" textLength="5" x="345.7494" y="160.7506">*</text></g><!--link MeetingParticipation to MeetingParticipationState--><g id="link_MeetingParticipation_MeetingParticipationState"><path codeLine="12" d="M222.39,104.2637 C197.1,121.9137 165.42,144.0337 141.5,160.7337 " fill="none" id="MeetingParticipation-to-MeetingParticipationState" style="stroke:#181818;stroke-width:1.0;"/><polygon fill="#181818" points="137.12,163.7837,146.7909,161.9198,141.2222,160.925,142.217,155.3563,137.12,163.7837" style="stroke:#181818;stroke-width:1.0;"/><text fill="#000000" font-family="sans-serif" font-size="13" lengthAdjust="spacing" textLength="7" x="137.1976" y="152.9001">1</text></g><!--SRC=[XSv12i9030NG_PmYp5Bemdt83GIXU80u3MsmxSWa2gNqxcfrMMbsd_y-fDD686b9lHY4xfFOlUZruMBVF8XtkR4Gxfnkt0f4H6uBd4HSn_RCnJNfdLtpI1Jd0EzBFPjj4aGPNNqYGYmvEz6yx4ngPnV4PrxjYhSOL1L1F4Ie9tCPBYPbt_xA7NYC_nyBomi0]--></g></svg>