<?xml version="1.0" encoding="us-ascii" standalone="no"?><svg xmlns="http://www.w3.org/2000/svg" xmlns:xlink="http://www.w3.org/1999/xlink" contentStyleType="text/css" height="493px" preserveAspectRatio="none" style="width:1571px;height:493px;background:#FFFFFF;" version="1.1" viewBox="0 0 1571 493" width="1571px" zoomAndPan="magnify"><defs/><g><rect fill="#FFFFFF" height="287.0625" style="stroke:#181818;stroke-width:1.0;" width="10" x="19" y="93.5938"/><rect fill="#FFFFFF" height="121.3984" style="stroke:#181818;stroke-width:1.0;" width="10" x="616" y="114.7266"/><rect fill="#FFFFFF" height="115.3984" style="stroke:#181818;stroke-width:1.0;" width="10" x="616" y="265.2578"/><rect fill="#FFFFFF" height="60.1328" style="stroke:#181818;stroke-width:1.0;" width="10" x="999" y="146.8594"/><rect fill="#FFFFFF" height="57.1328" style="stroke:#181818;stroke-width:1.0;" width="10" x="1233" y="294.3906"/><rect fill="#FFFFFF" height="14" style="stroke:#181818;stroke-width:1.0;" width="10" x="1489" y="178.9922"/><rect fill="#FFFFFF" height="14" style="stroke:#181818;stroke-width:1.0;" width="10" x="1489" y="323.5234"/><line style="stroke:#181818;stroke-width:0.5;stroke-dasharray:5.0,5.0;" x1="24" x2="24" y1="83.5938" y2="398.6563"/><line style="stroke:#181818;stroke-width:0.5;stroke-dasharray:5.0,5.0;" x1="621" x2="621" y1="83.5938" y2="398.6563"/><line style="stroke:#181818;stroke-width:0.5;stroke-dasharray:5.0,5.0;" x1="1003.5" x2="1003.5" y1="83.5938" y2="398.6563"/><line style="stroke:#181818;stroke-width:0.5;stroke-dasharray:5.0,5.0;" x1="1237.5" x2="1237.5" y1="83.5938" y2="398.6563"/><line style="stroke:#181818;stroke-width:0.5;stroke-dasharray:5.0,5.0;" x1="1494" x2="1494" y1="83.5938" y2="398.6563"/><text fill="#000000" font-family="sans-serif" font-size="14" lengthAdjust="spacing" textLength="32" x="5" y="80.292">User</text><ellipse cx="24" cy="15.7969" fill="#E2E2F0" rx="8" ry="8" style="stroke:#181818;stroke-width:0.5;"/><path d="M24,23.7969 L24,50.7969 M11,31.7969 L37,31.7969 M24,50.7969 L11,65.7969 M24,50.7969 L37,65.7969 " fill="none" style="stroke:#181818;stroke-width:0.5;"/><text fill="#000000" font-family="sans-serif" font-size="14" lengthAdjust="spacing" textLength="32" x="5" y="410.6514">User</text><ellipse cx="24" cy="422.4531" fill="#E2E2F0" rx="8" ry="8" style="stroke:#181818;stroke-width:0.5;"/><path d="M24,430.4531 L24,457.4531 M11,438.4531 L37,438.4531 M24,457.4531 L11,472.4531 M24,457.4531 L37,472.4531 " fill="none" style="stroke:#181818;stroke-width:0.5;"/><rect fill="#E2E2F0" height="46.5938" rx="2.5" ry="2.5" style="stroke:#181818;stroke-width:0.5;" width="192" x="525" y="36"/><text fill="#000000" font-family="sans-serif" font-size="14" font-style="italic" lengthAdjust="spacing" textLength="108" x="567" y="55.9951">&#171;presentation&#187;</text><text fill="#000000" font-family="sans-serif" font-size="14" lengthAdjust="spacing" textLength="178" x="532" y="72.292">ListMeetingParticipantsUI</text><rect fill="#E2E2F0" height="46.5938" rx="2.5" ry="2.5" style="stroke:#181818;stroke-width:0.5;" width="192" x="525" y="397.6563"/><text fill="#000000" font-family="sans-serif" font-size="14" font-style="italic" lengthAdjust="spacing" textLength="108" x="567" y="417.6514">&#171;presentation&#187;</text><text fill="#000000" font-family="sans-serif" font-size="14" lengthAdjust="spacing" textLength="178" x="532" y="433.9482">ListMeetingParticipantsUI</text><rect fill="#E2E2F0" height="46.5938" rx="2.5" ry="2.5" style="stroke:#181818;stroke-width:0.5;" width="187" x="910.5" y="36"/><text fill="#000000" font-family="sans-serif" font-size="14" font-style="italic" lengthAdjust="spacing" textLength="97" x="955.5" y="55.9951">&#171;application&#187;</text><text fill="#000000" font-family="sans-serif" font-size="14" lengthAdjust="spacing" textLength="173" x="917.5" y="72.292">ListUserMeetingsService</text><rect fill="#E2E2F0" height="46.5938" rx="2.5" ry="2.5" style="stroke:#181818;stroke-width:0.5;" width="187" x="910.5" y="397.6563"/><text fill="#000000" font-family="sans-serif" font-size="14" font-style="italic" lengthAdjust="spacing" textLength="97" x="955.5" y="417.6514">&#171;application&#187;</text><text fill="#000000" font-family="sans-serif" font-size="14" lengthAdjust="spacing" textLength="173" x="917.5" y="433.9482">ListUserMeetingsService</text><rect fill="#E2E2F0" height="46.5938" rx="2.5" ry="2.5" style="stroke:#181818;stroke-width:0.5;" width="249" x="1113.5" y="36"/><text fill="#000000" font-family="sans-serif" font-size="14" font-style="italic" lengthAdjust="spacing" textLength="97" x="1189.5" y="55.9951">&#171;application&#187;</text><text fill="#000000" font-family="sans-serif" font-size="14" lengthAdjust="spacing" textLength="235" x="1120.5" y="72.292">ListMeetingParticipantsController</text><rect fill="#E2E2F0" height="46.5938" rx="2.5" ry="2.5" style="stroke:#181818;stroke-width:0.5;" width="249" x="1113.5" y="397.6563"/><text fill="#000000" font-family="sans-serif" font-size="14" font-style="italic" lengthAdjust="spacing" textLength="97" x="1189.5" y="417.6514">&#171;application&#187;</text><text fill="#000000" font-family="sans-serif" font-size="14" lengthAdjust="spacing" textLength="235" x="1120.5" y="433.9482">ListMeetingParticipantsController</text><text fill="#000000" font-family="sans-serif" font-size="14" font-style="italic" lengthAdjust="spacing" textLength="100" x="1441" y="63.9951">&#171;persistence&#187;</text><text fill="#000000" font-family="sans-serif" font-size="14" lengthAdjust="spacing" textLength="146" x="1418" y="80.292">MeetingParticipation</text><path d="M1476,15 C1476,5 1494,5 1494,5 C1494,5 1512,5 1512,15 L1512,41 C1512,51 1494,51 1494,51 C1494,51 1476,51 1476,41 L1476,15 " fill="#E2E2F0" style="stroke:#181818;stroke-width:1.5;"/><path d="M1476,15 C1476,25 1494,25 1494,25 C1494,25 1512,25 1512,15 " fill="none" style="stroke:#181818;stroke-width:1.5;"/><text fill="#000000" font-family="sans-serif" font-size="14" font-style="italic" lengthAdjust="spacing" textLength="100" x="1441" y="410.6514">&#171;persistence&#187;</text><text fill="#000000" font-family="sans-serif" font-size="14" lengthAdjust="spacing" textLength="146" x="1418" y="426.9482">MeetingParticipation</text><path d="M1476,440.25 C1476,430.25 1494,430.25 1494,430.25 C1494,430.25 1512,430.25 1512,440.25 L1512,466.25 C1512,476.25 1494,476.25 1494,476.25 C1494,476.25 1476,476.25 1476,466.25 L1476,440.25 " fill="#E2E2F0" style="stroke:#181818;stroke-width:1.5;"/><path d="M1476,440.25 C1476,450.25 1494,450.25 1494,450.25 C1494,450.25 1512,450.25 1512,440.25 " fill="none" style="stroke:#181818;stroke-width:1.5;"/><rect fill="#FFFFFF" height="287.0625" style="stroke:#181818;stroke-width:1.0;" width="10" x="19" y="93.5938"/><rect fill="#FFFFFF" height="121.3984" style="stroke:#181818;stroke-width:1.0;" width="10" x="616" y="114.7266"/><rect fill="#FFFFFF" height="115.3984" style="stroke:#181818;stroke-width:1.0;" width="10" x="616" y="265.2578"/><rect fill="#FFFFFF" height="60.1328" style="stroke:#181818;stroke-width:1.0;" width="10" x="999" y="146.8594"/><rect fill="#FFFFFF" height="57.1328" style="stroke:#181818;stroke-width:1.0;" width="10" x="1233" y="294.3906"/><rect fill="#FFFFFF" height="14" style="stroke:#181818;stroke-width:1.0;" width="10" x="1489" y="178.9922"/><rect fill="#FFFFFF" height="14" style="stroke:#181818;stroke-width:1.0;" width="10" x="1489" y="323.5234"/><polygon fill="#181818" points="604,110.7266,614,114.7266,604,118.7266,608,114.7266" style="stroke:#181818;stroke-width:1.0;"/><line style="stroke:#181818;stroke-width:1.0;" x1="29" x2="610" y1="114.7266" y2="114.7266"/><text fill="#000000" font-family="sans-serif" font-size="13" lengthAdjust="spacing" textLength="471" x="36" y="109.6606">asks to view a list of participants in a meeting that he owns/participates</text><polygon fill="#181818" points="987,142.8594,997,146.8594,987,150.8594,991,146.8594" style="stroke:#181818;stroke-width:1.0;"/><line style="stroke:#181818;stroke-width:1.0;" x1="626" x2="993" y1="146.8594" y2="146.8594"/><text fill="#000000" font-family="sans-serif" font-size="13" lengthAdjust="spacing" textLength="354" x="633" y="141.7935">List&lt;MeetingDTO&gt; userMeetings = listUserMeetings()</text><path d="M1014,127.7266 L1014,152.7266 L1271,152.7266 L1271,137.7266 L1261,127.7266 L1014,127.7266 " fill="#FEFFDD" style="stroke:#181818;stroke-width:0.5;"/><path d="M1261,127.7266 L1261,137.7266 L1271,137.7266 L1261,127.7266 " fill="#FEFFDD" style="stroke:#181818;stroke-width:0.5;"/><text fill="#000000" font-family="sans-serif" font-size="13" lengthAdjust="spacing" textLength="236" x="1020" y="144.7935">the user is obtained through session</text><polygon fill="#181818" points="1477,174.9922,1487,178.9922,1477,182.9922,1481,178.9922" style="stroke:#181818;stroke-width:1.0;"/><line style="stroke:#181818;stroke-width:1.0;" x1="1009" x2="1483" y1="178.9922" y2="178.9922"/><text fill="#000000" font-family="sans-serif" font-size="13" lengthAdjust="spacing" textLength="388" x="1016" y="173.9263">List&lt;Meeting&gt; userMeetings = listAllMeetingsByUser(user)</text><polygon fill="#181818" points="1020,188.9922,1010,192.9922,1020,196.9922,1016,192.9922" style="stroke:#181818;stroke-width:1.0;"/><line style="stroke:#181818;stroke-width:1.0;stroke-dasharray:2.0,2.0;" x1="1014" x2="1493" y1="192.9922" y2="192.9922"/><polygon fill="#181818" points="637,202.9922,627,206.9922,637,210.9922,633,206.9922" style="stroke:#181818;stroke-width:1.0;"/><line style="stroke:#181818;stroke-width:1.0;stroke-dasharray:2.0,2.0;" x1="631" x2="1003" y1="206.9922" y2="206.9922"/><polygon fill="#181818" points="40,232.125,30,236.125,40,240.125,36,236.125" style="stroke:#181818;stroke-width:1.0;"/><line style="stroke:#181818;stroke-width:1.0;stroke-dasharray:2.0,2.0;" x1="34" x2="620" y1="236.125" y2="236.125"/><text fill="#000000" font-family="sans-serif" font-size="13" lengthAdjust="spacing" textLength="348" x="46" y="231.0591">presents all the user meetings and asks to select one</text><polygon fill="#181818" points="604,261.2578,614,265.2578,604,269.2578,608,265.2578" style="stroke:#181818;stroke-width:1.0;"/><line style="stroke:#181818;stroke-width:1.0;" x1="29" x2="610" y1="265.2578" y2="265.2578"/><text fill="#000000" font-family="sans-serif" font-size="13" lengthAdjust="spacing" textLength="132" x="36" y="260.1919">selects one meeting</text><polygon fill="#181818" points="1221,290.3906,1231,294.3906,1221,298.3906,1225,294.3906" style="stroke:#181818;stroke-width:1.0;"/><line style="stroke:#181818;stroke-width:1.0;" x1="626" x2="1227" y1="294.3906" y2="294.3906"/><text fill="#000000" font-family="sans-serif" font-size="13" lengthAdjust="spacing" textLength="588" x="633" y="289.3247">List&lt;MeetingParticipationDTO&gt; meetingParticipants = listMeetingParticipants(meetingID)</text><polygon fill="#181818" points="1477,319.5234,1487,323.5234,1477,327.5234,1481,323.5234" style="stroke:#181818;stroke-width:1.0;"/><line style="stroke:#181818;stroke-width:1.0;" x1="1243" x2="1483" y1="323.5234" y2="323.5234"/><text fill="#000000" font-family="sans-serif" font-size="13" lengthAdjust="spacing" textLength="227" x="1250" y="318.4575">listMeetingParticipants(meetingID)</text><polygon fill="#181818" points="1254,333.5234,1244,337.5234,1254,341.5234,1250,337.5234" style="stroke:#181818;stroke-width:1.0;"/><line style="stroke:#181818;stroke-width:1.0;stroke-dasharray:2.0,2.0;" x1="1248" x2="1493" y1="337.5234" y2="337.5234"/><polygon fill="#181818" points="637,347.5234,627,351.5234,637,355.5234,633,351.5234" style="stroke:#181818;stroke-width:1.0;"/><line style="stroke:#181818;stroke-width:1.0;stroke-dasharray:2.0,2.0;" x1="631" x2="1237" y1="351.5234" y2="351.5234"/><polygon fill="#181818" points="35,376.6563,25,380.6563,35,384.6563,31,380.6563" style="stroke:#181818;stroke-width:1.0;"/><line style="stroke:#181818;stroke-width:1.0;stroke-dasharray:2.0,2.0;" x1="29" x2="620" y1="380.6563" y2="380.6563"/><text fill="#000000" font-family="sans-serif" font-size="13" lengthAdjust="spacing" textLength="563" x="41" y="375.5903">presents meeting participants and their respective status (accept, reject or no answer)</text><!--SRC=[bLFDRjim3BxhANXR1YpBFSW2REkbG8SDsFe0gip5McL949a4U_kHijt8JNhOnN_YzyEFzBkUETDsiyd1HZuEuQDBmyO5IxJkl3qKEnXZ7QS2ZuG5BC5HxYRRmjxvB21uyCJV4Dd7mu_BPtgyhzKUThjSa32oPP_YVdy5LkQ9W7vYENc72gMJ4wpDENZt5lI6xjSKkQGGHhUEIxXYwIpR9qi8h-5whgY2EQblB2GY61qAIdFm9yiuHg0NME-rmwrWdWaumSdZ6Im4GK7w3OrT0Y_KC8oAmBrbw17IETBcfOoH6XLlX5iKD8XjRNSt6RxxzNrVNSonmQUgsIQvUd-X4WOJapmKV-ZPS3_s09uWFR7r4JjnLDBnq0CXaSHWC7QW6AFoug9cihHnqyFd4EOlN_wgePKMDMQKo5IszTYSwN1vM1LhjEsHLceWwr5Ml4nxHM13W9UcXjcFbGxcmH06T3AJY2sbHjoESQmYBPjfRioZxjGoYSK6rUaCrviv1NHZPrTJzVrTavFAcAfrIVz_yCkSAzlhe4VsgwHhxHjHpmkyM6rDMlBtHMWfe_B8lEI7FnAih7EO-OCS_QaZAB9MWg2pRiLo6EsR_cF_0000]--></g></svg>