<?xml version="1.0" encoding="UTF-8" standalone="no"?><svg xmlns="http://www.w3.org/2000/svg" xmlns:xlink="http://www.w3.org/1999/xlink" contentStyleType="text/css" height="542px" preserveAspectRatio="none" style="width:1151px;height:542px;background:#FFFFFF;" version="1.1" viewBox="0 0 1151 542" width="1151px" zoomAndPan="magnify"><defs/><g><!--MD5=[ae9ffa745ebf427bcf53f3ec7515a2f0]
class DeactivateUserUI--><g id="elem_DeactivateUserUI"><rect codeLine="2" fill="#F1F1F1" height="83.2188" id="DeactivateUserUI" rx="2.5" ry="2.5" style="stroke:#181818;stroke-width:0.5;" width="297" x="805" y="7"/><ellipse cx="894.25" cy="23" fill="#B4A7E5" rx="11" ry="11" style="stroke:#181818;stroke-width:1.0;"/><path d="M895.25,20 L895.25,26 L897.25,26 L897.7344,26 L898.25,26.625 L898.25,27 L898.25,27.375 L897.7344,28 L897.25,28 L891.25,28 L890.7656,28 L890.25,27.375 L890.25,27 L890.25,26.625 L890.7656,26 L891.25,26 L893.25,26 L893.25,20 L891.25,20 L890.7656,20 L890.25,19.375 L890.25,19 L890.25,18.625 L890.7656,18 L891.25,18 L897.25,18 L897.7344,18 L898.25,18.625 L898.25,19 L898.25,19.375 L897.7344,20 L897.25,20 L895.25,20 Z " fill="#000000"/><text fill="#000000" font-family="sans-serif" font-size="14" font-style="italic" lengthAdjust="spacing" textLength="110" x="914.75" y="28.7285">DeactivateUserUI</text><line style="stroke:#181818;stroke-width:0.5;" x1="806" x2="1101" y1="39" y2="39"/><line style="stroke:#181818;stroke-width:0.5;" x1="806" x2="1101" y1="47" y2="47"/><ellipse cx="816" cy="61.3047" fill="#84BE84" rx="3" ry="3" style="stroke:#038048;stroke-width:1.0;"/><text fill="#000000" font-family="sans-serif" font-size="14" lengthAdjust="spacing" textLength="271" x="825" y="65.5332">showListOfUsers(users: List&lt;SystemUser&gt;)</text><ellipse cx="816" cy="78.9141" fill="#84BE84" rx="3" ry="3" style="stroke:#038048;stroke-width:1.0;"/><text fill="#000000" font-family="sans-serif" font-size="14" lengthAdjust="spacing" textLength="200" x="825" y="83.1426">getUserSelection(): SystemUser</text></g><!--MD5=[1474f03da7100fcbc31f069bb7305994]
class DeactivateUserController--><g id="elem_DeactivateUserController"><rect codeLine="7" fill="#F1F1F1" height="100.8281" id="DeactivateUserController" rx="2.5" ry="2.5" style="stroke:#181818;stroke-width:0.5;" width="324" x="684.5" y="150"/><ellipse cx="763.25" cy="166" fill="#ADD1B2" rx="11" ry="11" style="stroke:#181818;stroke-width:1.0;"/><path d="M765.25,162.5 Q765.4531,162 765.6875,161.75 Q765.9219,161.5 766.1875,161.5 Q766.6563,161.5 766.9531,161.7813 Q767.25,162.0625 767.25,162.7188 L767.25,164.2813 Q767.25,164.9375 766.9688,165.2188 Q766.6875,165.5 766.25,165.5 Q765.8594,165.5 765.6094,165.3281 Q765.3594,165.1563 765.25,164.7031 Q765.2031,164.3906 765.0313,164.2188 Q764.7188,163.8906 764.1563,163.7031 Q763.5938,163.5 763.0313,163.5 Q762.3281,163.5 761.7344,163.7813 Q761.1563,164.0625 760.7031,164.6875 Q760.25,165.3125 760.25,166.1719 L760.25,167.0938 Q760.25,168.125 761.0938,168.8125 Q761.9375,169.5 763.4375,169.5 Q764.3281,169.5 764.9531,169.2969 Q765.3125,169.1875 765.7188,168.8281 Q765.9844,168.625 766.125,168.5625 Q766.2656,168.5 766.4375,168.5 Q766.7656,168.5 767,168.7656 Q767.25,169.0156 767.25,169.375 Q767.25,169.7188 766.9063,170.125 Q766.4063,170.7188 765.6094,171.0469 Q764.5625,171.5 763.2813,171.5 Q761.7813,171.5 760.5781,170.9063 Q759.6094,170.4375 758.9219,169.4219 Q758.25,168.4063 758.25,167.2031 L758.25,166.1094 Q758.25,164.8594 758.8438,163.7656 Q759.4531,162.6719 760.5,162.0938 Q761.5625,161.5 762.75,161.5 Q763.4688,161.5 764.0938,161.75 Q764.7188,162 765.25,162.5 Z " fill="#000000"/><text fill="#000000" font-family="sans-serif" font-size="14" lengthAdjust="spacing" textLength="158" x="783.75" y="171.7285">DeactivateUserController</text><line style="stroke:#181818;stroke-width:0.5;" x1="685.5" x2="1007.5" y1="182" y2="182"/><rect fill="none" height="6" style="stroke:#C82930;stroke-width:1.0;" width="6" x="692.5" y="193.3047"/><text fill="#000000" font-family="sans-serif" font-size="14" lengthAdjust="spacing" textLength="265" x="704.5" y="200.5332">authorizationService: AuthorizationService</text><rect fill="none" height="6" style="stroke:#C82930;stroke-width:1.0;" width="6" x="692.5" y="210.9141"/><text fill="#000000" font-family="sans-serif" font-size="14" lengthAdjust="spacing" textLength="241" x="704.5" y="218.1426">userService: UserManagementService</text><line style="stroke:#181818;stroke-width:0.5;" x1="685.5" x2="1007.5" y1="225.2188" y2="225.2188"/><ellipse cx="695.5" cy="239.5234" fill="#84BE84" rx="3" ry="3" style="stroke:#038048;stroke-width:1.0;"/><text fill="#000000" font-family="sans-serif" font-size="14" lengthAdjust="spacing" textLength="298" x="704.5" y="243.752">deactivateUser(user: SystemUser): SystemUser</text></g><!--MD5=[54a33dd013dd881697601ca49de6dfbc]
class AuthorizationService--><g id="elem_AuthorizationService"><rect codeLine="13" fill="#F1F1F1" height="65.6094" id="AuthorizationService" rx="2.5" ry="2.5" style="stroke:#181818;stroke-width:0.5;" width="365" x="7" y="390"/><ellipse cx="120.75" cy="406" fill="#B4A7E5" rx="11" ry="11" style="stroke:#181818;stroke-width:1.0;"/><path d="M121.75,403 L121.75,409 L123.75,409 L124.2344,409 L124.75,409.625 L124.75,410 L124.75,410.375 L124.2344,411 L123.75,411 L117.75,411 L117.2656,411 L116.75,410.375 L116.75,410 L116.75,409.625 L117.2656,409 L117.75,409 L119.75,409 L119.75,403 L117.75,403 L117.2656,403 L116.75,402.375 L116.75,402 L116.75,401.625 L117.2656,401 L117.75,401 L123.75,401 L124.2344,401 L124.75,401.625 L124.75,402 L124.75,402.375 L124.2344,403 L123.75,403 L121.75,403 Z " fill="#000000"/><text fill="#000000" font-family="sans-serif" font-size="14" font-style="italic" lengthAdjust="spacing" textLength="129" x="141.25" y="411.7285">AuthorizationService</text><line style="stroke:#181818;stroke-width:0.5;" x1="8" x2="371" y1="422" y2="422"/><line style="stroke:#181818;stroke-width:0.5;" x1="8" x2="371" y1="430" y2="430"/><ellipse cx="18" cy="444.3047" fill="#84BE84" rx="3" ry="3" style="stroke:#038048;stroke-width:1.0;"/><text fill="#000000" font-family="sans-serif" font-size="14" lengthAdjust="spacing" textLength="339" x="27" y="448.5332">ensureAuthenticatedUserHasAnyOf(roles: List&lt;Role&gt;)</text></g><!--MD5=[dee3711f8c64a3e2b37828f172d71c22]
class UserManagementService--><g id="elem_UserManagementService"><rect codeLine="17" fill="#F1F1F1" height="65.6094" id="UserManagementService" rx="2.5" ry="2.5" style="stroke:#181818;stroke-width:0.5;" width="324" x="407.5" y="390"/><ellipse cx="485.75" cy="406" fill="#B4A7E5" rx="11" ry="11" style="stroke:#181818;stroke-width:1.0;"/><path d="M486.75,403 L486.75,409 L488.75,409 L489.2344,409 L489.75,409.625 L489.75,410 L489.75,410.375 L489.2344,411 L488.75,411 L482.75,411 L482.2656,411 L481.75,410.375 L481.75,410 L481.75,409.625 L482.2656,409 L482.75,409 L484.75,409 L484.75,403 L482.75,403 L482.2656,403 L481.75,402.375 L481.75,402 L481.75,401.625 L482.2656,401 L482.75,401 L488.75,401 L489.2344,401 L489.75,401.625 L489.75,402 L489.75,402.375 L489.2344,403 L488.75,403 L486.75,403 Z " fill="#000000"/><text fill="#000000" font-family="sans-serif" font-size="14" font-style="italic" lengthAdjust="spacing" textLength="159" x="506.25" y="411.7285">UserManagementService</text><line style="stroke:#181818;stroke-width:0.5;" x1="408.5" x2="730.5" y1="422" y2="422"/><line style="stroke:#181818;stroke-width:0.5;" x1="408.5" x2="730.5" y1="430" y2="430"/><ellipse cx="418.5" cy="444.3047" fill="#84BE84" rx="3" ry="3" style="stroke:#038048;stroke-width:1.0;"/><text fill="#000000" font-family="sans-serif" font-size="14" lengthAdjust="spacing" textLength="298" x="427.5" y="448.5332">deactivateUser(user: SystemUser): SystemUser</text></g><!--MD5=[093c210125347143eef5bb9199eae634]
class UserRepository--><g id="elem_UserRepository"><rect codeLine="21" fill="#F1F1F1" height="65.6094" id="UserRepository" rx="2.5" ry="2.5" style="stroke:#181818;stroke-width:0.5;" width="177" x="767" y="390"/><ellipse cx="803.6" cy="406" fill="#ADD1B2" rx="11" ry="11" style="stroke:#181818;stroke-width:1.0;"/><path d="M805.6,402.5 Q805.8031,402 806.0375,401.75 Q806.2719,401.5 806.5375,401.5 Q807.0063,401.5 807.3031,401.7813 Q807.6,402.0625 807.6,402.7188 L807.6,404.2813 Q807.6,404.9375 807.3188,405.2188 Q807.0375,405.5 806.6,405.5 Q806.2094,405.5 805.9594,405.3281 Q805.7094,405.1563 805.6,404.7031 Q805.5531,404.3906 805.3813,404.2188 Q805.0688,403.8906 804.5063,403.7031 Q803.9438,403.5 803.3813,403.5 Q802.6781,403.5 802.0844,403.7813 Q801.5063,404.0625 801.0531,404.6875 Q800.6,405.3125 800.6,406.1719 L800.6,407.0938 Q800.6,408.125 801.4438,408.8125 Q802.2875,409.5 803.7875,409.5 Q804.6781,409.5 805.3031,409.2969 Q805.6625,409.1875 806.0688,408.8281 Q806.3344,408.625 806.475,408.5625 Q806.6156,408.5 806.7875,408.5 Q807.1156,408.5 807.35,408.7656 Q807.6,409.0156 807.6,409.375 Q807.6,409.7188 807.2563,410.125 Q806.7563,410.7188 805.9594,411.0469 Q804.9125,411.5 803.6313,411.5 Q802.1313,411.5 800.9281,410.9063 Q799.9594,410.4375 799.2719,409.4219 Q798.6,408.4063 798.6,407.2031 L798.6,406.1094 Q798.6,404.8594 799.1938,403.7656 Q799.8031,402.6719 800.85,402.0938 Q801.9125,401.5 803.1,401.5 Q803.8188,401.5 804.4438,401.75 Q805.0688,402 805.6,402.5 Z " fill="#000000"/><text fill="#000000" font-family="sans-serif" font-size="14" lengthAdjust="spacing" textLength="97" x="822.4" y="411.7285">UserRepository</text><line style="stroke:#181818;stroke-width:0.5;" x1="768" x2="943" y1="422" y2="422"/><line style="stroke:#181818;stroke-width:0.5;" x1="768" x2="943" y1="430" y2="430"/><ellipse cx="778" cy="444.3047" fill="#84BE84" rx="3" ry="3" style="stroke:#038048;stroke-width:1.0;"/><text fill="#000000" font-family="sans-serif" font-size="14" lengthAdjust="spacing" textLength="151" x="787" y="448.5332">save(user: SystemUser)</text></g><!--MD5=[bc064d979c32666ae52f3d7624591b7b]
class SystemUser--><g id="elem_SystemUser"><rect codeLine="25" fill="#F1F1F1" height="224.0938" id="SystemUser" rx="2.5" ry="2.5" style="stroke:#181818;stroke-width:0.5;" width="165" x="979" y="311"/><ellipse cx="1020.1" cy="327" fill="#ADD1B2" rx="11" ry="11" style="stroke:#181818;stroke-width:1.0;"/><path d="M1022.1,323.5 Q1022.3031,323 1022.5375,322.75 Q1022.7719,322.5 1023.0375,322.5 Q1023.5063,322.5 1023.8031,322.7813 Q1024.1,323.0625 1024.1,323.7188 L1024.1,325.2813 Q1024.1,325.9375 1023.8188,326.2188 Q1023.5375,326.5 1023.1,326.5 Q1022.7094,326.5 1022.4594,326.3281 Q1022.2094,326.1563 1022.1,325.7031 Q1022.0531,325.3906 1021.8813,325.2188 Q1021.5688,324.8906 1021.0063,324.7031 Q1020.4438,324.5 1019.8813,324.5 Q1019.1781,324.5 1018.5844,324.7813 Q1018.0063,325.0625 1017.5531,325.6875 Q1017.1,326.3125 1017.1,327.1719 L1017.1,328.0938 Q1017.1,329.125 1017.9438,329.8125 Q1018.7875,330.5 1020.2875,330.5 Q1021.1781,330.5 1021.8031,330.2969 Q1022.1625,330.1875 1022.5688,329.8281 Q1022.8344,329.625 1022.975,329.5625 Q1023.1156,329.5 1023.2875,329.5 Q1023.6156,329.5 1023.85,329.7656 Q1024.1,330.0156 1024.1,330.375 Q1024.1,330.7188 1023.7563,331.125 Q1023.2563,331.7188 1022.4594,332.0469 Q1021.4125,332.5 1020.1313,332.5 Q1018.6313,332.5 1017.4281,331.9063 Q1016.4594,331.4375 1015.7719,330.4219 Q1015.1,329.4063 1015.1,328.2031 L1015.1,327.1094 Q1015.1,325.8594 1015.6938,324.7656 Q1016.3031,323.6719 1017.35,323.0938 Q1018.4125,322.5 1019.6,322.5 Q1020.3188,322.5 1020.9438,322.75 Q1021.5688,323 1022.1,323.5 Z " fill="#000000"/><text fill="#000000" font-family="sans-serif" font-size="14" lengthAdjust="spacing" textLength="75" x="1039.9" y="332.7285">SystemUser</text><line style="stroke:#181818;stroke-width:0.5;" x1="980" x2="1143" y1="343" y2="343"/><rect fill="none" height="6" style="stroke:#C82930;stroke-width:1.0;" width="6" x="987" y="354.3047"/><text fill="#000000" font-family="sans-serif" font-size="14" lengthAdjust="spacing" textLength="108" x="999" y="361.5332">username: String</text><rect fill="none" height="6" style="stroke:#C82930;stroke-width:1.0;" width="6" x="987" y="371.9141"/><text fill="#000000" font-family="sans-serif" font-size="14" lengthAdjust="spacing" textLength="105" x="999" y="379.1426">password: String</text><rect fill="none" height="6" style="stroke:#C82930;stroke-width:1.0;" width="6" x="987" y="389.5234"/><text fill="#000000" font-family="sans-serif" font-size="14" lengthAdjust="spacing" textLength="104" x="999" y="396.752">firstName: String</text><rect fill="none" height="6" style="stroke:#C82930;stroke-width:1.0;" width="6" x="987" y="407.1328"/><text fill="#000000" font-family="sans-serif" font-size="14" lengthAdjust="spacing" textLength="103" x="999" y="414.3613">lastName: String</text><rect fill="none" height="6" style="stroke:#C82930;stroke-width:1.0;" width="6" x="987" y="424.7422"/><text fill="#000000" font-family="sans-serif" font-size="14" lengthAdjust="spacing" textLength="78" x="999" y="431.9707">email: String</text><line style="stroke:#181818;stroke-width:0.5;" x1="980" x2="1143" y1="439.0469" y2="439.0469"/><ellipse cx="990" cy="453.3516" fill="#84BE84" rx="3" ry="3" style="stroke:#038048;stroke-width:1.0;"/><text fill="#000000" font-family="sans-serif" font-size="14" lengthAdjust="spacing" textLength="139" x="999" y="457.5801">getUsername(): String</text><ellipse cx="990" cy="470.9609" fill="#84BE84" rx="3" ry="3" style="stroke:#038048;stroke-width:1.0;"/><text fill="#000000" font-family="sans-serif" font-size="14" lengthAdjust="spacing" textLength="136" x="999" y="475.1895">getPassword(): String</text><ellipse cx="990" cy="488.5703" fill="#84BE84" rx="3" ry="3" style="stroke:#038048;stroke-width:1.0;"/><text fill="#000000" font-family="sans-serif" font-size="14" lengthAdjust="spacing" textLength="139" x="999" y="492.7988">getFirstName(): String</text><ellipse cx="990" cy="506.1797" fill="#84BE84" rx="3" ry="3" style="stroke:#038048;stroke-width:1.0;"/><text fill="#000000" font-family="sans-serif" font-size="14" lengthAdjust="spacing" textLength="138" x="999" y="510.4082">getLastName(): String</text><ellipse cx="990" cy="523.7891" fill="#84BE84" rx="3" ry="3" style="stroke:#038048;stroke-width:1.0;"/><text fill="#000000" font-family="sans-serif" font-size="14" lengthAdjust="spacing" textLength="109" x="999" y="528.0176">getEmail(): String</text></g><!--MD5=[f7c149252e42f53e61d2391811a11848]
link DeactivateUserUI to DeactivateUserController--><g id="link_DeactivateUserUI_DeactivateUserController"><path codeLine="38" d="M924.54,90.09 C912.35,107.19 897.97,127.34 884.91,145.65 " fill="none" id="DeactivateUserUI-to-DeactivateUserController" style="stroke:#181818;stroke-width:1.0;"/><polygon fill="#181818" points="881.97,149.78,890.4494,144.7701,884.8708,145.7075,883.9334,140.1288,881.97,149.78" style="stroke:#181818;stroke-width:1.0;"/></g><!--MD5=[340c8d024e3ca713c971a4972ff40b69]
link DeactivateUserUI to SystemUser--><g id="link_DeactivateUserUI_SystemUser"><path codeLine="39" d="M990.25,90.21 C1003.83,107.48 1017.98,128.56 1026.5,150 C1045.91,198.88 1055.09,256.21 1059.25,305.61 " fill="none" id="DeactivateUserUI-to-SystemUser" style="stroke:#181818;stroke-width:1.0;"/><polygon fill="#181818" points="1059.66,310.67,1062.901,301.3697,1059.246,305.6872,1054.9285,302.0321,1059.66,310.67" style="stroke:#181818;stroke-width:1.0;"/></g><!--MD5=[92aaa88c6b5627b760d7e4682cd6a01b]
link DeactivateUserController to AuthorizationService--><g id="link_DeactivateUserController_AuthorizationService"><path codeLine="40" d="M684.37,229.19 C595.51,247.11 484.45,274.07 389.5,311 C337.58,331.19 282.5,362.59 243.31,386.85 " fill="none" id="DeactivateUserController-to-AuthorizationService" style="stroke:#181818;stroke-width:1.0;"/><polygon fill="#181818" points="238.62,389.77,248.3761,388.4215,242.868,387.1328,244.1566,381.6247,238.62,389.77" style="stroke:#181818;stroke-width:1.0;"/></g><!--MD5=[d59207c8ee47e822b7928eb535efc3a8]
link DeactivateUserController to UserManagementService--><g id="link_DeactivateUserController_UserManagementService"><path codeLine="41" d="M783.99,251.26 C732.26,292.44 660.03,349.93 614.02,386.56 " fill="none" id="DeactivateUserController-to-UserManagementService" style="stroke:#181818;stroke-width:1.0;"/><polygon fill="#181818" points="609.92,389.82,619.4533,387.3467,613.8327,386.707,614.4724,381.0864,609.92,389.82" style="stroke:#181818;stroke-width:1.0;"/></g><!--MD5=[40204ed7cb1d7dc7247dd4751a5c7ec9]
link DeactivateUserController to SystemUser--><g id="link_DeactivateUserController_SystemUser"><path codeLine="42" d="M900.28,251.09 C919.87,269.58 941.99,290.94 961.5,311 C966.04,315.67 970.65,320.49 975.28,325.38 " fill="none" id="DeactivateUserController-to-SystemUser" style="stroke:#181818;stroke-width:1.0;"/><polygon fill="#181818" points="978.81,329.14,975.5545,319.8447,975.3832,325.499,969.7289,325.3277,978.81,329.14" style="stroke:#181818;stroke-width:1.0;"/></g><!--MD5=[f5f5861f0f87832042b0c92bcad7d43c]
link DeactivateUserController to UserRepository--><g id="link_DeactivateUserController_UserRepository"><path codeLine="43" d="M848.53,251.26 C850.18,291.7 852.47,347.85 853.97,384.55 " fill="none" id="DeactivateUserController-to-UserRepository" style="stroke:#181818;stroke-width:1.0;"/><polygon fill="#181818" points="854.19,389.82,857.801,380.657,853.9759,384.8246,849.8083,380.9995,854.19,389.82" style="stroke:#181818;stroke-width:1.0;"/></g><!--MD5=[ac7d46e3e2dfff817822a079a8a3378f]
@startuml

interface DeactivateUserUI {
  +showListOfUsers(users: List<SystemUser>)
  +getUserSelection(): SystemUser
}

class DeactivateUserController {
  -authorizationService: AuthorizationService
  -userService: UserManagementService
  +deactivateUser(user: SystemUser): SystemUser
}

interface AuthorizationService {
  +ensureAuthenticatedUserHasAnyOf(roles: List<Role>)
}

interface UserManagementService {
  +deactivateUser(user: SystemUser): SystemUser
}

class UserRepository {
  +save(user: SystemUser)
}

class SystemUser {
  -username: String
  -password: String
  -firstName: String
  -lastName: String
  -email: String
  +getUsername(): String
  +getPassword(): String
  +getFirstName(): String
  +getLastName(): String
  +getEmail(): String
}

DeactivateUserUI - -> DeactivateUserController
DeactivateUserUI - -> SystemUser
DeactivateUserController - -> AuthorizationService
DeactivateUserController - -> UserManagementService
DeactivateUserController - -> SystemUser
DeactivateUserController - -> UserRepository
@enduml

PlantUML version 1.2022.12(Sun Oct 23 19:12:26 BST 2022)
(GPL source distribution)
Java Runtime: OpenJDK Runtime Environment
JVM: OpenJDK 64-Bit Server VM
Default Encoding: Cp1252
Language: en
Country: US
--></g></svg>