<?xml version="1.0" encoding="us-ascii" standalone="no"?><svg xmlns="http://www.w3.org/2000/svg" xmlns:xlink="http://www.w3.org/1999/xlink" contentStyleType="text/css" height="509px" preserveAspectRatio="none" style="width:1629px;height:509px;background:#FFFFFF;" version="1.1" viewBox="0 0 1629 509" width="1629px" zoomAndPan="magnify"><defs/><g><!--cluster <<agr SharedBoard>>--><g id="cluster_&lt;&lt;agr SharedBoard&gt;&gt;"><path d="M1152.5,287 L1288.5,287 A3.75,3.75 0 0 1 1291,289.5 L1298,308.6406 L1619.5,308.6406 A2.5,2.5 0 0 1 1622,311.1406 L1622,499.5 A2.5,2.5 0 0 1 1619.5,502 L1152.5,502 A2.5,2.5 0 0 1 1150,499.5 L1150,289.5 A2.5,2.5 0 0 1 1152.5,287 " fill="none" style="stroke:#000000;stroke-width:1.5;"/><line style="stroke:#000000;stroke-width:1.5;" x1="1150" x2="1298" y1="308.6406" y2="308.6406"/><text fill="#000000" font-family="sans-serif" font-size="14" font-weight="bold" lengthAdjust="spacing" textLength="135" x="1154" y="301.6738">&#171;agr SharedBoard&#187;</text></g><!--cluster <<agr PostIt>>--><g id="cluster_&lt;&lt;agr PostIt&gt;&gt;"><path d="M661.5,139 L745.5,139 A3.75,3.75 0 0 1 748,141.5 L755,160.6406 L1123.5,160.6406 A2.5,2.5 0 0 1 1126,163.1406 L1126,380 A2.5,2.5 0 0 1 1123.5,382.5 L661.5,382.5 A2.5,2.5 0 0 1 659,380 L659,141.5 A2.5,2.5 0 0 1 661.5,139 " fill="none" style="stroke:#000000;stroke-width:1.5;"/><line style="stroke:#000000;stroke-width:1.5;" x1="659" x2="755" y1="160.6406" y2="160.6406"/><text fill="#000000" font-family="sans-serif" font-size="14" font-weight="bold" lengthAdjust="spacing" textLength="83" x="663" y="153.6738">&#171;agr PostIt&#187;</text></g><!--cluster <<agr PostItModification>>--><g id="cluster_&lt;&lt;agr PostItModification&gt;&gt;"><path d="M8.5,6 L179.5,6 A3.75,3.75 0 0 1 182,8.5 L189,27.6406 L632.5,27.6406 A2.5,2.5 0 0 1 635,30.1406 L635,232 A2.5,2.5 0 0 1 632.5,234.5 L8.5,234.5 A2.5,2.5 0 0 1 6,232 L6,8.5 A2.5,2.5 0 0 1 8.5,6 " fill="none" style="stroke:#000000;stroke-width:1.5;"/><line style="stroke:#000000;stroke-width:1.5;" x1="6" x2="189" y1="27.6406" y2="27.6406"/><text fill="#000000" font-family="sans-serif" font-size="14" font-weight="bold" lengthAdjust="spacing" textLength="170" x="10" y="20.6738">&#171;agr PostItModification&#187;</text></g><!--class SharedBoard--><g id="elem_SharedBoard"><rect codeLine="7" fill="#F1F1F1" height="52.4531" id="SharedBoard" rx="2.5" ry="2.5" style="stroke:#181818;stroke-width:0.5;" width="90" x="1259" y="321"/><text fill="#000000" font-family="sans-serif" font-size="12" font-style="italic" lengthAdjust="spacing" textLength="43" x="1282.5" y="336.8633">&#171;entity&#187;</text><text fill="#000000" font-family="sans-serif" font-size="12" font-style="italic" lengthAdjust="spacing" textLength="35" x="1286.5" y="350.2695">&#171;root&#187;</text><text fill="#000000" font-family="sans-serif" font-size="14" lengthAdjust="spacing" textLength="84" x="1262" y="365.4863">SharedBoard</text></g><!--class SharedBoardTitle--><g id="elem_SharedBoardTitle"><rect codeLine="8" fill="#F1F1F1" height="39.0469" id="SharedBoardTitle" rx="2.5" ry="2.5" style="stroke:#181818;stroke-width:0.5;" width="117" x="1166.5" y="440.5"/><text fill="#000000" font-family="sans-serif" font-size="12" font-style="italic" lengthAdjust="spacing" textLength="27" x="1211.5" y="456.3633">&#171;vo&#187;</text><text fill="#000000" font-family="sans-serif" font-size="14" lengthAdjust="spacing" textLength="111" x="1169.5" y="471.5801">SharedBoardTitle</text></g><!--class CreationTimestamp--><g id="elem_CreationTimestamp"><rect codeLine="9" fill="#F1F1F1" height="39.0469" id="CreationTimestamp" rx="2.5" ry="2.5" style="stroke:#181818;stroke-width:0.5;" width="129" x="1318.5" y="440.5"/><text fill="#000000" font-family="sans-serif" font-size="12" font-style="italic" lengthAdjust="spacing" textLength="27" x="1369.5" y="456.3633">&#171;vo&#187;</text><text fill="#000000" font-family="sans-serif" font-size="14" lengthAdjust="spacing" textLength="123" x="1321.5" y="471.5801">CreationTimestamp</text></g><!--class SharedBoardState--><g id="elem_SharedBoardState"><rect codeLine="10" fill="#F1F1F1" height="52.4531" id="SharedBoardState" rx="2.5" ry="2.5" style="stroke:#181818;stroke-width:0.5;" width="123" x="1482.5" y="434"/><text fill="#000000" font-family="sans-serif" font-size="12" font-style="italic" lengthAdjust="spacing" textLength="27" x="1530.5" y="449.8633">&#171;vo&#187;</text><text fill="#000000" font-family="sans-serif" font-size="12" font-style="italic" lengthAdjust="spacing" textLength="46" x="1521" y="463.2695">&#171;enum&#187;</text><text fill="#000000" font-family="sans-serif" font-size="14" lengthAdjust="spacing" textLength="117" x="1485.5" y="478.4863">SharedBoardState</text></g><!--class PostIt--><g id="elem_PostIt"><rect codeLine="18" fill="#F1F1F1" height="52.4531" id="PostIt" rx="2.5" ry="2.5" style="stroke:#181818;stroke-width:0.5;" width="45" x="862.5" y="173"/><text fill="#000000" font-family="sans-serif" font-size="12" font-style="italic" lengthAdjust="spacing" textLength="43" x="863.5" y="188.8633">&#171;entity&#187;</text><text fill="#000000" font-family="sans-serif" font-size="12" font-style="italic" lengthAdjust="spacing" textLength="35" x="867.5" y="202.2695">&#171;root&#187;</text><text fill="#000000" font-family="sans-serif" font-size="14" lengthAdjust="spacing" textLength="35" x="867.5" y="217.4863">PostIt</text></g><!--class PostItRow--><g id="elem_PostItRow"><rect codeLine="19" fill="#F1F1F1" height="39.0469" id="PostItRow" rx="2.5" ry="2.5" style="stroke:#181818;stroke-width:0.5;" width="68" x="675" y="327.5"/><text fill="#000000" font-family="sans-serif" font-size="12" font-style="italic" lengthAdjust="spacing" textLength="27" x="695.5" y="343.3633">&#171;vo&#187;</text><text fill="#000000" font-family="sans-serif" font-size="14" lengthAdjust="spacing" textLength="62" x="678" y="358.5801">PostItRow</text></g><!--class PostItColumn--><g id="elem_PostItColumn"><rect codeLine="20" fill="#F1F1F1" height="39.0469" id="PostItColumn" rx="2.5" ry="2.5" style="stroke:#181818;stroke-width:0.5;" width="89" x="778.5" y="327.5"/><text fill="#000000" font-family="sans-serif" font-size="12" font-style="italic" lengthAdjust="spacing" textLength="27" x="809.5" y="343.3633">&#171;vo&#187;</text><text fill="#000000" font-family="sans-serif" font-size="14" lengthAdjust="spacing" textLength="83" x="781.5" y="358.5801">PostItColumn</text></g><!--class PostItContent--><g id="elem_PostItContent"><rect codeLine="21" fill="#F1F1F1" height="39.0469" id="PostItContent" rx="2.5" ry="2.5" style="stroke:#181818;stroke-width:0.5;" width="91" x="902.5" y="327.5"/><text fill="#000000" font-family="sans-serif" font-size="12" font-style="italic" lengthAdjust="spacing" textLength="27" x="934.5" y="343.3633">&#171;vo&#187;</text><text fill="#000000" font-family="sans-serif" font-size="14" lengthAdjust="spacing" textLength="85" x="905.5" y="358.5801">PostItContent</text></g><!--class SystemUser--><g id="elem_SystemUser"><rect fill="#F1F1F1" height="25.6406" id="SystemUser" rx="2.5" ry="2.5" style="stroke:#181818;stroke-width:0.5;" width="81" x="1028.5" y="334"/><text fill="#000000" font-family="sans-serif" font-size="14" lengthAdjust="spacing" textLength="75" x="1031.5" y="351.6738">SystemUser</text></g><!--class PostItModification--><g id="elem_PostItModification"><rect codeLine="31" fill="#F1F1F1" height="52.4531" id="PostItModification" rx="2.5" ry="2.5" style="stroke:#181818;stroke-width:0.5;" width="116" x="292" y="40"/><text fill="#000000" font-family="sans-serif" font-size="12" font-style="italic" lengthAdjust="spacing" textLength="43" x="328.5" y="55.8633">&#171;entity&#187;</text><text fill="#000000" font-family="sans-serif" font-size="12" font-style="italic" lengthAdjust="spacing" textLength="35" x="332.5" y="69.2695">&#171;root&#187;</text><text fill="#000000" font-family="sans-serif" font-size="14" lengthAdjust="spacing" textLength="110" x="295" y="84.4863">PostItModification</text></g><!--class PostItOldRow--><g id="elem_PostItOldRow"><rect codeLine="32" fill="#F1F1F1" height="39.0469" id="PostItOldRow" rx="2.5" ry="2.5" style="stroke:#181818;stroke-width:0.5;" width="90" x="22" y="179.5"/><text fill="#000000" font-family="sans-serif" font-size="12" font-style="italic" lengthAdjust="spacing" textLength="27" x="53.5" y="195.3633">&#171;vo&#187;</text><text fill="#000000" font-family="sans-serif" font-size="14" lengthAdjust="spacing" textLength="84" x="25" y="210.5801">PostItOldRow</text></g><!--class PostItOldColumn--><g id="elem_PostItOldColumn"><rect codeLine="33" fill="#F1F1F1" height="39.0469" id="PostItOldColumn" rx="2.5" ry="2.5" style="stroke:#181818;stroke-width:0.5;" width="111" x="147.5" y="179.5"/><text fill="#000000" font-family="sans-serif" font-size="12" font-style="italic" lengthAdjust="spacing" textLength="27" x="189.5" y="195.3633">&#171;vo&#187;</text><text fill="#000000" font-family="sans-serif" font-size="14" lengthAdjust="spacing" textLength="105" x="150.5" y="210.5801">PostItOldColumn</text></g><!--class PostItOldContent--><g id="elem_PostItOldContent"><rect codeLine="34" fill="#F1F1F1" height="39.0469" id="PostItOldContent" rx="2.5" ry="2.5" style="stroke:#181818;stroke-width:0.5;" width="113" x="293.5" y="179.5"/><text fill="#000000" font-family="sans-serif" font-size="12" font-style="italic" lengthAdjust="spacing" textLength="27" x="336.5" y="195.3633">&#171;vo&#187;</text><text fill="#000000" font-family="sans-serif" font-size="14" lengthAdjust="spacing" textLength="107" x="296.5" y="210.5801">PostItOldContent</text></g><!--class PostItModificationDateTime--><g id="elem_PostItModificationDateTime"><rect codeLine="35" fill="#F1F1F1" height="39.0469" id="PostItModificationDateTime" rx="2.5" ry="2.5" style="stroke:#181818;stroke-width:0.5;" width="177" x="441.5" y="179.5"/><text fill="#000000" font-family="sans-serif" font-size="12" font-style="italic" lengthAdjust="spacing" textLength="27" x="516.5" y="195.3633">&#171;vo&#187;</text><text fill="#000000" font-family="sans-serif" font-size="14" lengthAdjust="spacing" textLength="171" x="444.5" y="210.5801">PostItModificationDateTime</text></g><!--link SharedBoard to SharedBoardState--><g id="link_SharedBoard_SharedBoardState"><path codeLine="12" d="M1349.14,368.88 C1387.58,386.66 1443.08,412.33 1485.03,431.73 " fill="none" id="SharedBoard-to-SharedBoardState" style="stroke:#181818;stroke-width:1.0;"/><polygon fill="#181818" points="1489.82,433.94,1483.329,426.5328,1485.2815,431.842,1479.9722,433.7944,1489.82,433.94" style="stroke:#181818;stroke-width:1.0;"/><text fill="#000000" font-family="sans-serif" font-size="13" lengthAdjust="spacing" textLength="7" x="1468.0395" y="423.2459">1</text></g><!--link SharedBoard to SharedBoardTitle--><g id="link_SharedBoard_SharedBoardTitle"><path codeLine="13" d="M1286.07,373.19 C1272.64,392.06 1254.42,417.67 1241.38,435.99 " fill="none" id="SharedBoard-to-SharedBoardTitle" style="stroke:#181818;stroke-width:1.0;"/><polygon fill="#181818" points="1238.18,440.48,1246.6477,435.4503,1241.0713,436.4007,1240.1209,430.8243,1238.18,440.48" style="stroke:#181818;stroke-width:1.0;"/><text fill="#000000" font-family="sans-serif" font-size="13" lengthAdjust="spacing" textLength="7" x="1234.2655" y="429.8713">1</text></g><!--link SharedBoard to CreationTimestamp--><g id="link_SharedBoard_CreationTimestamp"><path codeLine="14" d="M1321.93,373.19 C1335.36,392.06 1353.58,417.67 1366.62,435.99 " fill="none" id="SharedBoard-to-CreationTimestamp" style="stroke:#181818;stroke-width:1.0;"/><polygon fill="#181818" points="1369.82,440.48,1367.8791,430.8243,1366.9287,436.4007,1361.3523,435.4503,1369.82,440.48" style="stroke:#181818;stroke-width:1.0;"/><text fill="#000000" font-family="sans-serif" font-size="13" lengthAdjust="spacing" textLength="7" x="1357.5033" y="429.8713">1</text></g><!--link PostIt to SharedBoard--><g id="link_PostIt_SharedBoard"><path codeLine="23" d="M907.7,207.08 C950.56,220.53 1046.25,250.94 1126,279 C1169.52,294.32 1218.56,312.87 1254.13,326.57 " fill="none" id="PostIt-to-SharedBoard" style="stroke:#181818;stroke-width:1.0;"/><polygon fill="#181818" points="1258.84,328.38,1251.8801,321.4115,1254.1744,326.5822,1249.0037,328.8765,1258.84,328.38" style="stroke:#181818;stroke-width:1.0;"/><text fill="#000000" font-family="sans-serif" font-size="13" lengthAdjust="spacing" textLength="45" x="1101" y="267.7686">belongs</text><text fill="#000000" font-family="sans-serif" font-size="13" lengthAdjust="spacing" textLength="7" x="1244.0848" y="322.071">1</text></g><!--link PostIt to PostItRow--><g id="link_PostIt_PostItRow"><path codeLine="24" d="M862.35,211.35 C836.19,225.12 792.7,250.12 761,279 C746.7,292.03 733.38,309.34 723.8,323.1 " fill="none" id="PostIt-to-PostItRow" style="stroke:#181818;stroke-width:1.0;"/><polygon fill="#181818" points="720.95,327.25,729.357,322.1195,723.7923,323.1365,722.7754,317.5718,720.95,327.25" style="stroke:#181818;stroke-width:1.0;"/><text fill="#000000" font-family="sans-serif" font-size="13" lengthAdjust="spacing" textLength="7" x="716.5378" y="316.8993">1</text></g><!--link PostIt to PostItColumn--><g id="link_PostIt_PostItColumn"><path codeLine="25" d="M874.34,225.1 C862.74,252.42 844.33,295.78 832.99,322.47 " fill="none" id="PostIt-to-PostItColumn" style="stroke:#181818;stroke-width:1.0;"/><polygon fill="#181818" points="830.96,327.25,838.1465,320.5155,832.9054,322.644,830.7769,317.4028,830.96,327.25" style="stroke:#181818;stroke-width:1.0;"/><text fill="#000000" font-family="sans-serif" font-size="13" lengthAdjust="spacing" textLength="7" x="825.3259" y="316.8993">1</text></g><!--link PostIt to SystemUser--><g id="link_PostIt_SystemUser"><path codeLine="26" d="M907.76,211.58 C934.09,225.57 978.07,250.77 1011,279 C1028.78,294.24 1045.93,315.05 1056.91,329.42 " fill="none" id="PostIt-to-SystemUser" style="stroke:#181818;stroke-width:1.0;"/><polygon fill="#181818" points="1060.11,333.65,1057.8716,324.0589,1057.094,329.662,1051.4909,328.8845,1060.11,333.65" style="stroke:#181818;stroke-width:1.0;"/><text fill="#000000" font-family="sans-serif" font-size="13" lengthAdjust="spacing" textLength="7" x="1047.9991" y="323.2063">1</text></g><!--link PostIt to PostItContent--><g id="link_PostIt_PostItContent"><path codeLine="27" d="M895.83,225.1 C907.62,252.42 926.33,295.78 937.85,322.47 " fill="none" id="PostIt-to-PostItContent" style="stroke:#181818;stroke-width:1.0;"/><polygon fill="#181818" points="939.91,327.25,940.0413,317.402,937.9404,322.6543,932.6881,320.5534,939.91,327.25" style="stroke:#181818;stroke-width:1.0;"/><text fill="#000000" font-family="sans-serif" font-size="13" lengthAdjust="spacing" textLength="7" x="929.3606" y="316.8993">1</text></g><!--link PostItModification to PostIt--><g id="link_PostItModification_PostIt"><path codeLine="37" d="M408.02,79.3 C465.73,91.71 556.71,111.73 635,131 C716.25,151 811.57,177.36 857.51,190.24 " fill="none" id="PostItModification-to-PostIt" style="stroke:#181818;stroke-width:1.0;"/><polygon fill="#181818" points="862.33,191.59,854.7529,185.2981,857.5176,190.2334,852.5823,192.998,862.33,191.59" style="stroke:#181818;stroke-width:1.0;"/><text fill="#000000" font-family="sans-serif" font-size="13" lengthAdjust="spacing" textLength="7" x="847.6426" y="185.1359">1</text></g><!--link PostItModification to PostItOldRow--><g id="link_PostItModification_PostItOldRow"><path codeLine="38" d="M291.9,75.23 C245.44,83.77 180.03,100.35 130,131 C111.33,142.44 94.59,160.84 83.06,175.47 " fill="none" id="PostItModification-to-PostItOldRow" style="stroke:#181818;stroke-width:1.0;"/><polygon fill="#181818" points="79.95,179.49,88.6177,174.8133,83.0068,175.5333,82.2869,169.9224,79.95,179.49" style="stroke:#181818;stroke-width:1.0;"/><text fill="#000000" font-family="sans-serif" font-size="13" lengthAdjust="spacing" textLength="7" x="75.9622" y="168.8844">1</text></g><!--link PostItModification to PostItOldColumn--><g id="link_PostItModification_PostItOldColumn"><path codeLine="39" d="M320.66,92.03 C307,103.77 290.58,118.01 276,131 C259.45,145.75 241.06,162.63 226.88,175.76 " fill="none" id="PostItModification-to-PostItOldColumn" style="stroke:#181818;stroke-width:1.0;"/><polygon fill="#181818" points="223,179.35,232.3212,176.1696,226.6685,175.9527,226.8855,170.3,223,179.35" style="stroke:#181818;stroke-width:1.0;"/><text fill="#000000" font-family="sans-serif" font-size="13" lengthAdjust="spacing" textLength="7" x="221.2594" y="168.6998">1</text></g><!--link PostItModification to PostItOldContent--><g id="link_PostItModification_PostItOldContent"><path codeLine="40" d="M350,92.26 C350,115.9 350,150.96 350,174.13 " fill="none" id="PostItModification-to-PostItOldContent" style="stroke:#181818;stroke-width:1.0;"/><polygon fill="#181818" points="350,179.18,354,170.18,350,174.18,346,170.18,350,179.18" style="stroke:#181818;stroke-width:1.0;"/><text fill="#000000" font-family="sans-serif" font-size="13" lengthAdjust="spacing" textLength="7" x="341.9281" y="168.8079">1</text></g><!--link PostItModification to PostItModificationDateTime--><g id="link_PostItModification_PostItModificationDateTime"><path codeLine="41" d="M384.71,92.26 C418.24,116.66 468.5,153.24 500.25,176.35 " fill="none" id="PostItModification-to-PostItModificationDateTime" style="stroke:#181818;stroke-width:1.0;"/><polygon fill="#181818" points="504.41,179.38,499.4876,170.8494,500.3676,176.4374,494.7796,177.3174,504.41,179.38" style="stroke:#181818;stroke-width:1.0;"/><text fill="#000000" font-family="sans-serif" font-size="13" lengthAdjust="spacing" textLength="7" x="488.1376" y="168.7394">1</text></g><!--SRC=[ZPA_RiCW48TtdW9vpz2rGWn9bmvLgoHz068kDYeO2owDh2ZlNXkYoBNn7q-sVn_SyHsbaa1pvN8DdfJTnrc1beztC3Ksr80vWVE4r2B_4GNGZ35HE7eeXGEvjS99phCReUsJQ-5zFs4CAbJOSCwOinOvlztJv56X1iP-xG3PEH2eR7LK1ZmAKoUOtZO75FZOfgjzCG4DR8-YcmsdsKisMha639rEWgD-oNsaxijwVCU1jVXpGLY4zlQQi12pdTKNKyt45ROLdda0OfGwAtsb9z2sAdmAV7Op7SPsabKQZs2-FRYvrQ7RIOKVLggpoeFmfCu-i4hjfvPpTjjuGN0W_ZkUQ-gjlNJTLKaDfCyDnAoZuc5MiwDPBU5nEAlur9b9EzS_]--></g></svg>