<?xml version="1.0" encoding="us-ascii" standalone="no"?><svg xmlns="http://www.w3.org/2000/svg" xmlns:xlink="http://www.w3.org/1999/xlink" contentStyleType="text/css" height="1015.7px" preserveAspectRatio="none" style="width:2676px;height:1015px;background:#FFFFFF;" version="1.1" viewBox="0 0 2676 1015" width="2676.8px" zoomAndPan="magnify"><defs/><g><rect fill="#FFFFFF" height="873.5234" style="stroke:#181818;stroke-width:0.6999999999999998;" width="7" x="22.75" y="64.5969"/><rect fill="#FFFFFF" height="104.032" style="stroke:#181818;stroke-width:0.6999999999999998;" width="7" x="261.45" y="78.9633"/><rect fill="#FFFFFF" height="735.1586" style="stroke:#181818;stroke-width:0.6999999999999998;" width="7" x="261.45" y="202.9617"/><rect fill="#FFFFFF" height="61.9992" style="stroke:#181818;stroke-width:0.6999999999999998;" width="7" x="556.85" y="101.0297"/><rect fill="#FFFFFF" height="532.6945" style="stroke:#181818;stroke-width:0.6999999999999998;" width="7" x="694.4" y="385.4594"/><rect fill="#FFFFFF" height="19.9664" style="stroke:#181818;stroke-width:0.6999999999999998;" width="7" x="851.55" y="123.0961"/><rect fill="#FFFFFF" height="19.9664" style="stroke:#181818;stroke-width:0.6999999999999998;" width="7" x="965.3" y="405.4258"/><rect fill="#FFFFFF" height="462.9953" style="stroke:#181818;stroke-width:0.6999999999999998;" width="7" x="965.3" y="445.3586"/><rect fill="#FFFFFF" height="413.9625" style="stroke:#181818;stroke-width:0.6999999999999998;" width="7" x="1319.5" y="494.3914"/><rect fill="#FFFFFF" height="374.0297" style="stroke:#181818;stroke-width:0.6999999999999998;" width="7" x="1642.2" y="514.3578"/><rect fill="#FFFFFF" height="102.2656" style="stroke:#181818;stroke-width:0.6999999999999998;" width="7" x="2086" y="550.7906"/><rect fill="#FFFFFF" height="169.4984" style="stroke:#181818;stroke-width:0.6999999999999998;" width="7" x="2086" y="699.2891"/><rect fill="none" height="31.5328" style="stroke:#000000;stroke-width:1.0499999999999998;" width="303.8" x="7" y="273.3609"/><rect fill="none" height="31.5328" style="stroke:#000000;stroke-width:1.0499999999999998;" width="303.8" x="7" y="334.6602"/><rect fill="none" height="138.6984" style="stroke:#000000;stroke-width:1.0499999999999998;" width="971.6" x="1587.6" y="524.8578"/><rect fill="none" height="205.9312" style="stroke:#000000;stroke-width:1.0499999999999998;" width="1085" x="1587.6" y="673.3562"/><line style="stroke:#181818;stroke-width:0.3499999999999999;stroke-dasharray:5.0,5.0;" x1="25.9" x2="25.9" y1="57.5969" y2="950.7203"/><line style="stroke:#181818;stroke-width:0.3499999999999999;stroke-dasharray:5.0,5.0;" x1="264.6" x2="264.6" y1="57.5969" y2="950.7203"/><line style="stroke:#181818;stroke-width:0.3499999999999999;stroke-dasharray:5.0,5.0;" x1="560.35" x2="560.35" y1="57.5969" y2="950.7203"/><line style="stroke:#181818;stroke-width:0.3499999999999999;stroke-dasharray:5.0,5.0;" x1="697.55" x2="697.55" y1="57.5969" y2="950.7203"/><line style="stroke:#181818;stroke-width:0.3499999999999999;stroke-dasharray:5.0,5.0;" x1="855.05" x2="855.05" y1="57.5969" y2="950.7203"/><line style="stroke:#181818;stroke-width:0.3499999999999999;stroke-dasharray:5.0,5.0;" x1="968.45" x2="968.45" y1="57.5969" y2="950.7203"/><line style="stroke:#181818;stroke-width:0.3499999999999999;stroke-dasharray:5.0,5.0;" x1="1322.65" x2="1322.65" y1="57.5969" y2="950.7203"/><line style="stroke:#181818;stroke-width:0.3499999999999999;stroke-dasharray:5.0,5.0;" x1="1645.7" x2="1645.7" y1="57.5969" y2="950.7203"/><line style="stroke:#181818;stroke-width:0.3499999999999999;stroke-dasharray:5.0,5.0;" x1="1741.6" x2="1741.6" y1="57.5969" y2="950.7203"/><line style="stroke:#181818;stroke-width:0.3499999999999999;stroke-dasharray:5.0,5.0;" x1="1842.4" x2="1842.4" y1="57.5969" y2="950.7203"/><line style="stroke:#181818;stroke-width:0.3499999999999999;stroke-dasharray:5.0,5.0;" x1="1931.3" x2="1931.3" y1="57.5969" y2="950.7203"/><line style="stroke:#181818;stroke-width:0.3499999999999999;stroke-dasharray:5.0,5.0;" x1="2089.5" x2="2089.5" y1="57.5969" y2="950.7203"/><text fill="#000000" font-family="sans-serif" font-size="9.8" lengthAdjust="spacing" textLength="20.3" x="14" y="55.5201">User</text><ellipse cx="26.25" cy="10.5984" fill="#E2E2F0" rx="5.6" ry="5.6" style="stroke:#181818;stroke-width:0.3499999999999999;"/><path d="M26.25,16.1984 L26.25,35.0984 M17.15,21.7984 L35.35,21.7984 M26.25,35.0984 L17.15,45.5984 M26.25,35.0984 L35.35,45.5984 " fill="none" style="stroke:#181818;stroke-width:0.3499999999999999;"/><text fill="#000000" font-family="sans-serif" font-size="9.8" lengthAdjust="spacing" textLength="20.3" x="14" y="958.892">User</text><ellipse cx="26.25" cy="966.9187" fill="#E2E2F0" rx="5.6" ry="5.6" style="stroke:#181818;stroke-width:0.3499999999999999;"/><path d="M26.25,972.5187 L26.25,991.4187 M17.15,978.1187 L35.35,978.1187 M26.25,991.4187 L17.15,1001.9187 M26.25,991.4187 L35.35,1001.9187 " fill="none" style="stroke:#181818;stroke-width:0.3499999999999999;"/><rect fill="#E2E2F0" height="31.6969" rx="1.75" ry="1.75" style="stroke:#181818;stroke-width:0.3499999999999999;" width="77.7" x="226.1" y="25.2"/><text fill="#000000" font-family="sans-serif" font-size="9.8" font-style="italic" lengthAdjust="spacing" textLength="66.5" x="231.7" y="38.9717">&#171;presentation&#187;</text><text fill="#000000" font-family="sans-serif" font-size="9.8" lengthAdjust="spacing" textLength="67.9" x="231" y="49.9201">ChangePostItUI</text><rect fill="#E2E2F0" height="31.6969" rx="1.75" ry="1.75" style="stroke:#181818;stroke-width:0.3499999999999999;" width="77.7" x="226.1" y="950.0203"/><text fill="#000000" font-family="sans-serif" font-size="9.8" font-style="italic" lengthAdjust="spacing" textLength="66.5" x="231.7" y="963.792">&#171;presentation&#187;</text><text fill="#000000" font-family="sans-serif" font-size="9.8" lengthAdjust="spacing" textLength="67.9" x="231" y="974.7404">ChangePostItUI</text><rect fill="#E2E2F0" height="31.6969" rx="1.75" ry="1.75" style="stroke:#181818;stroke-width:0.3499999999999999;" width="158.2" x="481.25" y="25.2"/><text fill="#000000" font-family="sans-serif" font-size="9.8" font-style="italic" lengthAdjust="spacing" textLength="58.8" x="530.95" y="38.9717">&#171;application&#187;</text><text fill="#000000" font-family="sans-serif" font-size="9.8" lengthAdjust="spacing" textLength="148.4" x="486.15" y="49.9201">ListWritableSharedBoardsService</text><rect fill="#E2E2F0" height="31.6969" rx="1.75" ry="1.75" style="stroke:#181818;stroke-width:0.3499999999999999;" width="158.2" x="481.25" y="950.0203"/><text fill="#000000" font-family="sans-serif" font-size="9.8" font-style="italic" lengthAdjust="spacing" textLength="58.8" x="530.95" y="963.792">&#171;application&#187;</text><text fill="#000000" font-family="sans-serif" font-size="9.8" lengthAdjust="spacing" textLength="148.4" x="486.15" y="974.7404">ListWritableSharedBoardsService</text><rect fill="#E2E2F0" height="31.6969" rx="1.75" ry="1.75" style="stroke:#181818;stroke-width:0.3499999999999999;" width="102.9" x="646.45" y="25.2"/><text fill="#000000" font-family="sans-serif" font-size="9.8" font-style="italic" lengthAdjust="spacing" textLength="58.8" x="668.5" y="38.9717">&#171;application&#187;</text><text fill="#000000" font-family="sans-serif" font-size="9.8" lengthAdjust="spacing" textLength="93.1" x="651.35" y="49.9201">SendRequestService</text><rect fill="#E2E2F0" height="31.6969" rx="1.75" ry="1.75" style="stroke:#181818;stroke-width:0.3499999999999999;" width="102.9" x="646.45" y="950.0203"/><text fill="#000000" font-family="sans-serif" font-size="9.8" font-style="italic" lengthAdjust="spacing" textLength="58.8" x="668.5" y="963.792">&#171;application&#187;</text><text fill="#000000" font-family="sans-serif" font-size="9.8" lengthAdjust="spacing" textLength="93.1" x="651.35" y="974.7404">SendRequestService</text><text fill="#000000" font-family="sans-serif" font-size="9.8" font-style="italic" lengthAdjust="spacing" textLength="62.3" x="821.8" y="44.5717">&#171;persistence&#187;</text><text fill="#000000" font-family="sans-serif" font-size="9.8" lengthAdjust="spacing" textLength="161" x="772.45" y="55.5201">SharedBoardParticipationRepository</text><path d="M842.45,10.5 C842.45,3.5 855.05,3.5 855.05,3.5 C855.05,3.5 867.65,3.5 867.65,10.5 L867.65,28.7 C867.65,35.7 855.05,35.7 855.05,35.7 C855.05,35.7 842.45,35.7 842.45,28.7 L842.45,10.5 " fill="#E2E2F0" style="stroke:#181818;stroke-width:1.0499999999999998;"/><path d="M842.45,10.5 C842.45,17.5 855.05,17.5 855.05,17.5 C855.05,17.5 867.65,17.5 867.65,10.5 " fill="none" style="stroke:#181818;stroke-width:1.0499999999999998;"/><text fill="#000000" font-family="sans-serif" font-size="9.8" font-style="italic" lengthAdjust="spacing" textLength="62.3" x="821.8" y="958.892">&#171;persistence&#187;</text><text fill="#000000" font-family="sans-serif" font-size="9.8" lengthAdjust="spacing" textLength="161" x="772.45" y="969.8404">SharedBoardParticipationRepository</text><path d="M842.45,978.9172 C842.45,971.9172 855.05,971.9172 855.05,971.9172 C855.05,971.9172 867.65,971.9172 867.65,978.9172 L867.65,997.1172 C867.65,1004.1172 855.05,1004.1172 855.05,1004.1172 C855.05,1004.1172 842.45,1004.1172 842.45,997.1172 L842.45,978.9172 " fill="#E2E2F0" style="stroke:#181818;stroke-width:1.0499999999999998;"/><path d="M842.45,978.9172 C842.45,985.9172 855.05,985.9172 855.05,985.9172 C855.05,985.9172 867.65,985.9172 867.65,978.9172 " fill="none" style="stroke:#181818;stroke-width:1.0499999999999998;"/><rect fill="#E2E2F0" height="31.6969" rx="1.75" ry="1.75" style="stroke:#181818;stroke-width:0.3499999999999999;" width="48.3" x="944.65" y="25.2"/><text fill="#000000" font-family="sans-serif" font-size="9.8" font-style="italic" lengthAdjust="spacing" textLength="38.5" x="949.55" y="38.9717">&#171;server&#187;</text><text fill="#000000" font-family="sans-serif" font-size="9.8" lengthAdjust="spacing" textLength="29.4" x="954.1" y="49.9201">Server</text><rect fill="#E2E2F0" height="31.6969" rx="1.75" ry="1.75" style="stroke:#181818;stroke-width:0.3499999999999999;" width="48.3" x="944.65" y="950.0203"/><text fill="#000000" font-family="sans-serif" font-size="9.8" font-style="italic" lengthAdjust="spacing" textLength="38.5" x="949.55" y="963.792">&#171;server&#187;</text><text fill="#000000" font-family="sans-serif" font-size="9.8" lengthAdjust="spacing" textLength="29.4" x="954.1" y="974.7404">Server</text><rect fill="#E2E2F0" height="31.6969" rx="1.75" ry="1.75" style="stroke:#181818;stroke-width:0.3499999999999999;" width="112.7" x="1266.65" y="25.2"/><text fill="#000000" font-family="sans-serif" font-size="9.8" font-style="italic" lengthAdjust="spacing" textLength="58.8" x="1293.6" y="38.9717">&#171;application&#187;</text><text fill="#000000" font-family="sans-serif" font-size="9.8" lengthAdjust="spacing" textLength="102.9" x="1271.55" y="49.9201">ChangePostItController</text><rect fill="#E2E2F0" height="31.6969" rx="1.75" ry="1.75" style="stroke:#181818;stroke-width:0.3499999999999999;" width="112.7" x="1266.65" y="950.0203"/><text fill="#000000" font-family="sans-serif" font-size="9.8" font-style="italic" lengthAdjust="spacing" textLength="58.8" x="1293.6" y="963.792">&#171;application&#187;</text><text fill="#000000" font-family="sans-serif" font-size="9.8" lengthAdjust="spacing" textLength="102.9" x="1271.55" y="974.7404">ChangePostItController</text><rect fill="#E2E2F0" height="31.6969" rx="1.75" ry="1.75" style="stroke:#181818;stroke-width:0.3499999999999999;" width="102.2" x="1594.6" y="25.2"/><text fill="#000000" font-family="sans-serif" font-size="9.8" font-style="italic" lengthAdjust="spacing" textLength="42" x="1624.7" y="38.9717">&#171;service&#187;</text><text fill="#000000" font-family="sans-serif" font-size="9.8" lengthAdjust="spacing" textLength="92.4" x="1599.5" y="49.9201">PostItChangeService</text><rect fill="#E2E2F0" height="31.6969" rx="1.75" ry="1.75" style="stroke:#181818;stroke-width:0.3499999999999999;" width="102.2" x="1594.6" y="950.0203"/><text fill="#000000" font-family="sans-serif" font-size="9.8" font-style="italic" lengthAdjust="spacing" textLength="42" x="1624.7" y="963.792">&#171;service&#187;</text><text fill="#000000" font-family="sans-serif" font-size="9.8" lengthAdjust="spacing" textLength="92.4" x="1599.5" y="974.7404">PostItChangeService</text><text fill="#000000" font-family="sans-serif" font-size="9.8" font-style="italic" lengthAdjust="spacing" textLength="62.3" x="1708.7" y="44.5717">&#171;persistence&#187;</text><text fill="#000000" font-family="sans-serif" font-size="9.8" lengthAdjust="spacing" textLength="72.1" x="1703.8" y="55.5201">PostItRepository</text><path d="M1729.35,10.5 C1729.35,3.5 1741.95,3.5 1741.95,3.5 C1741.95,3.5 1754.55,3.5 1754.55,10.5 L1754.55,28.7 C1754.55,35.7 1741.95,35.7 1741.95,35.7 C1741.95,35.7 1729.35,35.7 1729.35,28.7 L1729.35,10.5 " fill="#E2E2F0" style="stroke:#181818;stroke-width:1.0499999999999998;"/><path d="M1729.35,10.5 C1729.35,17.5 1741.95,17.5 1741.95,17.5 C1741.95,17.5 1754.55,17.5 1754.55,10.5 " fill="none" style="stroke:#181818;stroke-width:1.0499999999999998;"/><text fill="#000000" font-family="sans-serif" font-size="9.8" font-style="italic" lengthAdjust="spacing" textLength="62.3" x="1708.7" y="958.892">&#171;persistence&#187;</text><text fill="#000000" font-family="sans-serif" font-size="9.8" lengthAdjust="spacing" textLength="72.1" x="1703.8" y="969.8404">PostItRepository</text><path d="M1729.35,978.9172 C1729.35,971.9172 1741.95,971.9172 1741.95,971.9172 C1741.95,971.9172 1754.55,971.9172 1754.55,978.9172 L1754.55,997.1172 C1754.55,1004.1172 1741.95,1004.1172 1741.95,1004.1172 C1741.95,1004.1172 1729.35,1004.1172 1729.35,997.1172 L1729.35,978.9172 " fill="#E2E2F0" style="stroke:#181818;stroke-width:1.0499999999999998;"/><path d="M1729.35,978.9172 C1729.35,985.9172 1741.95,985.9172 1741.95,985.9172 C1741.95,985.9172 1754.55,985.9172 1754.55,978.9172 " fill="none" style="stroke:#181818;stroke-width:1.0499999999999998;"/><text fill="#000000" font-family="sans-serif" font-size="9.8" font-style="italic" lengthAdjust="spacing" textLength="62.3" x="1809.15" y="44.5717">&#171;persistence&#187;</text><text fill="#000000" font-family="sans-serif" font-size="9.8" lengthAdjust="spacing" textLength="106.4" x="1787.1" y="55.5201">SharedBoardRepository</text><path d="M1829.8,10.5 C1829.8,3.5 1842.4,3.5 1842.4,3.5 C1842.4,3.5 1855,3.5 1855,10.5 L1855,28.7 C1855,35.7 1842.4,35.7 1842.4,35.7 C1842.4,35.7 1829.8,35.7 1829.8,28.7 L1829.8,10.5 " fill="#E2E2F0" style="stroke:#181818;stroke-width:1.0499999999999998;"/><path d="M1829.8,10.5 C1829.8,17.5 1842.4,17.5 1842.4,17.5 C1842.4,17.5 1855,17.5 1855,10.5 " fill="none" style="stroke:#181818;stroke-width:1.0499999999999998;"/><text fill="#000000" font-family="sans-serif" font-size="9.8" font-style="italic" lengthAdjust="spacing" textLength="62.3" x="1809.15" y="958.892">&#171;persistence&#187;</text><text fill="#000000" font-family="sans-serif" font-size="9.8" lengthAdjust="spacing" textLength="106.4" x="1787.1" y="969.8404">SharedBoardRepository</text><path d="M1829.8,978.9172 C1829.8,971.9172 1842.4,971.9172 1842.4,971.9172 C1842.4,971.9172 1855,971.9172 1855,978.9172 L1855,997.1172 C1855,1004.1172 1842.4,1004.1172 1842.4,1004.1172 C1842.4,1004.1172 1829.8,1004.1172 1829.8,997.1172 L1829.8,978.9172 " fill="#E2E2F0" style="stroke:#181818;stroke-width:1.0499999999999998;"/><path d="M1829.8,978.9172 C1829.8,985.9172 1842.4,985.9172 1842.4,985.9172 C1842.4,985.9172 1855,985.9172 1855,978.9172 " fill="none" style="stroke:#181818;stroke-width:1.0499999999999998;"/><rect fill="#E2E2F0" height="31.6969" rx="1.75" ry="1.75" style="stroke:#181818;stroke-width:0.3499999999999999;" width="53.2" x="1904.7" y="25.2"/><text fill="#000000" font-family="sans-serif" font-size="9.8" font-style="italic" lengthAdjust="spacing" textLength="43.4" x="1909.6" y="38.9717">&#171;domain&#187;</text><text fill="#000000" font-family="sans-serif" font-size="9.8" lengthAdjust="spacing" textLength="24.5" x="1919.05" y="49.9201">PostIt</text><rect fill="#E2E2F0" height="31.6969" rx="1.75" ry="1.75" style="stroke:#181818;stroke-width:0.3499999999999999;" width="53.2" x="1904.7" y="950.0203"/><text fill="#000000" font-family="sans-serif" font-size="9.8" font-style="italic" lengthAdjust="spacing" textLength="43.4" x="1909.6" y="963.792">&#171;domain&#187;</text><text fill="#000000" font-family="sans-serif" font-size="9.8" lengthAdjust="spacing" textLength="24.5" x="1919.05" y="974.7404">PostIt</text><rect fill="#E2E2F0" height="31.6969" rx="1.75" ry="1.75" style="stroke:#181818;stroke-width:0.3499999999999999;" width="68.6" x="2055.2" y="25.2"/><text fill="#000000" font-family="sans-serif" font-size="9.8" font-style="italic" lengthAdjust="spacing" textLength="43.4" x="2067.8" y="38.9717">&#171;domain&#187;</text><text fill="#000000" font-family="sans-serif" font-size="9.8" lengthAdjust="spacing" textLength="58.8" x="2060.1" y="49.9201">SharedBoard</text><rect fill="#E2E2F0" height="31.6969" rx="1.75" ry="1.75" style="stroke:#181818;stroke-width:0.3499999999999999;" width="68.6" x="2055.2" y="950.0203"/><text fill="#000000" font-family="sans-serif" font-size="9.8" font-style="italic" lengthAdjust="spacing" textLength="43.4" x="2067.8" y="963.792">&#171;domain&#187;</text><text fill="#000000" font-family="sans-serif" font-size="9.8" lengthAdjust="spacing" textLength="58.8" x="2060.1" y="974.7404">SharedBoard</text><rect fill="#FFFFFF" height="873.5234" style="stroke:#181818;stroke-width:0.6999999999999998;" width="7" x="22.75" y="64.5969"/><rect fill="#FFFFFF" height="104.032" style="stroke:#181818;stroke-width:0.6999999999999998;" width="7" x="261.45" y="78.9633"/><rect fill="#FFFFFF" height="735.1586" style="stroke:#181818;stroke-width:0.6999999999999998;" width="7" x="261.45" y="202.9617"/><rect fill="#FFFFFF" height="61.9992" style="stroke:#181818;stroke-width:0.6999999999999998;" width="7" x="556.85" y="101.0297"/><rect fill="#FFFFFF" height="532.6945" style="stroke:#181818;stroke-width:0.6999999999999998;" width="7" x="694.4" y="385.4594"/><rect fill="#FFFFFF" height="19.9664" style="stroke:#181818;stroke-width:0.6999999999999998;" width="7" x="851.55" y="123.0961"/><rect fill="#FFFFFF" height="19.9664" style="stroke:#181818;stroke-width:0.6999999999999998;" width="7" x="965.3" y="405.4258"/><rect fill="#FFFFFF" height="462.9953" style="stroke:#181818;stroke-width:0.6999999999999998;" width="7" x="965.3" y="445.3586"/><rect fill="#FFFFFF" height="413.9625" style="stroke:#181818;stroke-width:0.6999999999999998;" width="7" x="1319.5" y="494.3914"/><rect fill="#FFFFFF" height="374.0297" style="stroke:#181818;stroke-width:0.6999999999999998;" width="7" x="1642.2" y="514.3578"/><rect fill="#FFFFFF" height="102.2656" style="stroke:#181818;stroke-width:0.6999999999999998;" width="7" x="2086" y="550.7906"/><rect fill="#FFFFFF" height="169.4984" style="stroke:#181818;stroke-width:0.6999999999999998;" width="7" x="2086" y="699.2891"/><polygon fill="#181818" points="253.05,76.1633,260.05,78.9633,253.05,81.7633,255.85,78.9633" style="stroke:#181818;stroke-width:0.6999999999999998;"/><line style="stroke:#181818;stroke-width:0.6999999999999998;" x1="29.75" x2="257.25" y1="78.9633" y2="78.9633"/><text fill="#000000" font-family="sans-serif" font-size="9.1" lengthAdjust="spacing" textLength="98" x="34.65" y="75.6349">asks to change a post-it</text><polygon fill="#181818" points="548.45,98.2297,555.45,101.0297,548.45,103.8297,551.25,101.0297" style="stroke:#181818;stroke-width:0.6999999999999998;"/><line style="stroke:#181818;stroke-width:0.6999999999999998;" x1="268.45" x2="552.65" y1="101.0297" y2="101.0297"/><text fill="#000000" font-family="sans-serif" font-size="9.1" lengthAdjust="spacing" textLength="275.1" x="273.35" y="97.7013">List&lt;SharedBoardDTO&gt; sharedBoards = listWritableSharedBoards()</text><path d="M567,88.0633 L567,104.8633 L733.6,104.8633 L733.6,95.0633 L726.6,88.0633 L567,88.0633 " fill="#FEFFDD" style="stroke:#181818;stroke-width:0.3499999999999999;"/><path d="M726.6,88.0633 L726.6,95.0633 L733.6,95.0633 L726.6,88.0633 " fill="#FEFFDD" style="stroke:#181818;stroke-width:0.3499999999999999;"/><text fill="#000000" font-family="sans-serif" font-size="9.1" lengthAdjust="spacing" textLength="151.9" x="571.2" y="99.8013">The user is obtained through session.</text><polygon fill="#181818" points="843.15,120.2961,850.15,123.0961,843.15,125.8961,845.95,123.0961" style="stroke:#181818;stroke-width:0.6999999999999998;"/><line style="stroke:#181818;stroke-width:0.6999999999999998;" x1="563.85" x2="847.35" y1="123.0961" y2="123.0961"/><text fill="#000000" font-family="sans-serif" font-size="9.1" lengthAdjust="spacing" textLength="274.4" x="568.75" y="119.7677">List&lt;SharedBoard&gt; sharedBoards = listWritableSharedBoards(user)</text><polygon fill="#181818" points="571.55,140.2625,564.55,143.0625,571.55,145.8625,568.75,143.0625" style="stroke:#181818;stroke-width:0.6999999999999998;"/><line style="stroke:#181818;stroke-width:0.6999999999999998;stroke-dasharray:2.0,2.0;" x1="567.35" x2="854.35" y1="143.0625" y2="143.0625"/><text fill="#000000" font-family="sans-serif" font-size="9.1" lengthAdjust="spacing" textLength="137.2" x="575.75" y="139.7341">List&lt;SharedBoard&gt; sharedBoards</text><polygon fill="#181818" points="276.15,160.2289,269.15,163.0289,276.15,165.8289,273.35,163.0289" style="stroke:#181818;stroke-width:0.6999999999999998;"/><line style="stroke:#181818;stroke-width:0.6999999999999998;stroke-dasharray:2.0,2.0;" x1="271.95" x2="559.65" y1="163.0289" y2="163.0289"/><text fill="#000000" font-family="sans-serif" font-size="9.1" lengthAdjust="spacing" textLength="155.4" x="280.35" y="159.7005">List&lt;SharedBoardDTO&gt; sharedBoards</text><polygon fill="#181818" points="37.45,180.1953,30.45,182.9953,37.45,185.7953,34.65,182.9953" style="stroke:#181818;stroke-width:0.6999999999999998;"/><line style="stroke:#181818;stroke-width:0.6999999999999998;stroke-dasharray:2.0,2.0;" x1="33.25" x2="264.25" y1="182.9953" y2="182.9953"/><text fill="#000000" font-family="sans-serif" font-size="9.1" lengthAdjust="spacing" textLength="214.9" x="41.65" y="179.6669">shows writable shared boards and asks to select one</text><polygon fill="#181818" points="253.05,200.1617,260.05,202.9617,253.05,205.7617,255.85,202.9617" style="stroke:#181818;stroke-width:0.6999999999999998;"/><line style="stroke:#181818;stroke-width:0.6999999999999998;" x1="29.75" x2="257.25" y1="202.9617" y2="202.9617"/><text fill="#000000" font-family="sans-serif" font-size="9.1" lengthAdjust="spacing" textLength="102.2" x="34.65" y="199.6333">selects one shared board</text><polygon fill="#181818" points="37.45,220.1281,30.45,222.9281,37.45,225.7281,34.65,222.9281" style="stroke:#181818;stroke-width:0.6999999999999998;"/><line style="stroke:#181818;stroke-width:0.6999999999999998;stroke-dasharray:2.0,2.0;" x1="33.25" x2="260.75" y1="222.9281" y2="222.9281"/><text fill="#000000" font-family="sans-serif" font-size="9.1" lengthAdjust="spacing" textLength="144.9" x="41.65" y="219.5997">asks for a row, column of the post-it</text><polygon fill="#181818" points="253.05,240.0945,260.05,242.8945,253.05,245.6945,255.85,242.8945" style="stroke:#181818;stroke-width:0.6999999999999998;"/><line style="stroke:#181818;stroke-width:0.6999999999999998;" x1="29.75" x2="257.25" y1="242.8945" y2="242.8945"/><text fill="#000000" font-family="sans-serif" font-size="9.1" lengthAdjust="spacing" textLength="101.5" x="34.65" y="239.5661">Input the row and column</text><polygon fill="#181818" points="37.45,260.0609,30.45,262.8609,37.45,265.6609,34.65,262.8609" style="stroke:#181818;stroke-width:0.6999999999999998;"/><line style="stroke:#181818;stroke-width:0.6999999999999998;stroke-dasharray:2.0,2.0;" x1="33.25" x2="260.75" y1="262.8609" y2="262.8609"/><text fill="#000000" font-family="sans-serif" font-size="9.1" lengthAdjust="spacing" textLength="123.9" x="41.65" y="259.5325">asks if want to change content</text><path d="M7,273.3609 L49.7,273.3609 L49.7,277.9273 L42.7,284.9273 L7,284.9273 L7,273.3609 " fill="#EEEEEE" style="stroke:#000000;stroke-width:1.0499999999999998;"/><rect fill="none" height="31.5328" style="stroke:#000000;stroke-width:1.0499999999999998;" width="303.8" x="7" y="273.3609"/><text fill="#000000" font-family="sans-serif" font-size="9.1" font-weight="bold" lengthAdjust="spacing" textLength="11.2" x="17.5" y="282.2989">alt</text><text fill="#000000" font-family="sans-serif" font-size="7.7" font-weight="bold" lengthAdjust="spacing" textLength="86.1" x="60.2" y="281.7315">[want change content]</text><polygon fill="#181818" points="253.05,296.4937,260.05,299.2937,253.05,302.0937,255.85,299.2937" style="stroke:#181818;stroke-width:0.6999999999999998;"/><line style="stroke:#181818;stroke-width:0.6999999999999998;" x1="29.75" x2="257.25" y1="299.2937" y2="299.2937"/><text fill="#000000" font-family="sans-serif" font-size="9.1" lengthAdjust="spacing" textLength="86.8" x="34.65" y="295.9653">Input the new content</text><polygon fill="#181818" points="37.45,321.3602,30.45,324.1602,37.45,326.9602,34.65,324.1602" style="stroke:#181818;stroke-width:0.6999999999999998;"/><line style="stroke:#181818;stroke-width:0.6999999999999998;stroke-dasharray:2.0,2.0;" x1="33.25" x2="260.75" y1="324.1602" y2="324.1602"/><text fill="#000000" font-family="sans-serif" font-size="9.1" lengthAdjust="spacing" textLength="125.3" x="41.65" y="320.8317">asks if want to change position</text><path d="M7,334.6602 L49.7,334.6602 L49.7,339.2266 L42.7,346.2266 L7,346.2266 L7,334.6602 " fill="#EEEEEE" style="stroke:#000000;stroke-width:1.0499999999999998;"/><rect fill="none" height="31.5328" style="stroke:#000000;stroke-width:1.0499999999999998;" width="303.8" x="7" y="334.6602"/><text fill="#000000" font-family="sans-serif" font-size="9.1" font-weight="bold" lengthAdjust="spacing" textLength="11.2" x="17.5" y="343.5981">alt</text><text fill="#000000" font-family="sans-serif" font-size="7.7" font-weight="bold" lengthAdjust="spacing" textLength="86.1" x="60.2" y="343.0308">[want change content]</text><polygon fill="#181818" points="253.05,357.793,260.05,360.593,253.05,363.393,255.85,360.593" style="stroke:#181818;stroke-width:0.6999999999999998;"/><line style="stroke:#181818;stroke-width:0.6999999999999998;" x1="29.75" x2="257.25" y1="360.593" y2="360.593"/><text fill="#000000" font-family="sans-serif" font-size="9.1" lengthAdjust="spacing" textLength="88.2" x="34.65" y="357.2646">Input the new position</text><polygon fill="#181818" points="686,382.6594,693,385.4594,686,388.2594,688.8,385.4594" style="stroke:#181818;stroke-width:0.6999999999999998;"/><line style="stroke:#181818;stroke-width:0.6999999999999998;" x1="268.45" x2="690.2" y1="385.4594" y2="385.4594"/><text fill="#000000" font-family="sans-serif" font-size="9.1" lengthAdjust="spacing" textLength="319.9" x="273.35" y="382.131">sendPostItChangeRequest(row,column,row,column,newContent,selectedBoard)</text><polygon fill="#181818" points="956.9,402.6258,963.9,405.4258,956.9,408.2258,959.7,405.4258" style="stroke:#181818;stroke-width:0.6999999999999998;"/><line style="stroke:#181818;stroke-width:0.6999999999999998;" x1="701.4" x2="961.1" y1="405.4258" y2="405.4258"/><text fill="#000000" font-family="sans-serif" font-size="9.1" lengthAdjust="spacing" textLength="113.4" x="706.3" y="402.0974">establishes TCP connection</text><polygon fill="#181818" points="709.1,422.5922,702.1,425.3922,709.1,428.1922,706.3,425.3922" style="stroke:#181818;stroke-width:0.6999999999999998;"/><line style="stroke:#181818;stroke-width:0.6999999999999998;stroke-dasharray:2.0,2.0;" x1="704.9" x2="968.1" y1="425.3922" y2="425.3922"/><text fill="#000000" font-family="sans-serif" font-size="9.1" lengthAdjust="spacing" textLength="80.5" x="713.3" y="422.0638">accepts the request</text><polygon fill="#181818" points="956.9,442.5586,963.9,445.3586,956.9,448.1586,959.7,445.3586" style="stroke:#181818;stroke-width:0.6999999999999998;"/><line style="stroke:#181818;stroke-width:0.6999999999999998;" x1="701.4" x2="961.1" y1="445.3586" y2="445.3586"/><text fill="#000000" font-family="sans-serif" font-size="9.1" lengthAdjust="spacing" textLength="102.9" x="706.3" y="442.0302">sends post-it data related</text><line style="stroke:#181818;stroke-width:0.6999999999999998;" x1="972.3" x2="1001.7" y1="465.325" y2="465.325"/><line style="stroke:#181818;stroke-width:0.6999999999999998;" x1="1001.7" x2="1001.7" y1="465.325" y2="474.425"/><line style="stroke:#181818;stroke-width:0.6999999999999998;" x1="973" x2="1001.7" y1="474.425" y2="474.425"/><polygon fill="#181818" points="980,471.625,973,474.425,980,477.225,977.2,474.425" style="stroke:#181818;stroke-width:0.6999999999999998;"/><text fill="#000000" font-family="sans-serif" font-size="9.1" lengthAdjust="spacing" textLength="191.1" x="977.2" y="461.9966">creats a new thread to attend the client request</text><polygon fill="#181818" points="1311.1,491.5914,1318.1,494.3914,1311.1,497.1914,1313.9,494.3914" style="stroke:#181818;stroke-width:0.6999999999999998;"/><line style="stroke:#181818;stroke-width:0.6999999999999998;" x1="972.3" x2="1315.3" y1="494.3914" y2="494.3914"/><text fill="#000000" font-family="sans-serif" font-size="9.1" lengthAdjust="spacing" textLength="333.9" x="977.2" y="491.063">changePostIt(newRow, newColumn, exRow, exColumn, newContent, sharedBoard)</text><polygon fill="#181818" points="1633.8,511.5578,1640.8,514.3578,1633.8,517.1578,1636.6,514.3578" style="stroke:#181818;stroke-width:0.6999999999999998;"/><line style="stroke:#181818;stroke-width:0.6999999999999998;" x1="1326.5" x2="1638" y1="514.3578" y2="514.3578"/><text fill="#000000" font-family="sans-serif" font-size="9.1" lengthAdjust="spacing" textLength="302.4" x="1331.4" y="511.0294">changePostIt(newRow,newColumn,exRow,exColumn,content,sharedBoard)</text><path d="M1587.6,524.8578 L1630.3,524.8578 L1630.3,529.4242 L1623.3,536.4242 L1587.6,536.4242 L1587.6,524.8578 " fill="#EEEEEE" style="stroke:#000000;stroke-width:1.0499999999999998;"/><rect fill="none" height="138.6984" style="stroke:#000000;stroke-width:1.0499999999999998;" width="971.6" x="1587.6" y="524.8578"/><text fill="#000000" font-family="sans-serif" font-size="9.1" font-weight="bold" lengthAdjust="spacing" textLength="11.2" x="1598.1" y="533.7958">alt</text><text fill="#000000" font-family="sans-serif" font-size="7.7" font-weight="bold" lengthAdjust="spacing" textLength="55.3" x="1640.8" y="533.2284">[content!=null]</text><polygon fill="#181818" points="2077.6,547.9906,2084.6,550.7906,2077.6,553.5906,2080.4,550.7906" style="stroke:#181818;stroke-width:0.6999999999999998;"/><line style="stroke:#181818;stroke-width:0.6999999999999998;" x1="1649.2" x2="2081.8" y1="550.7906" y2="550.7906"/><text fill="#000000" font-family="sans-serif" font-size="9.1" lengthAdjust="spacing" textLength="206.5" x="1654.1" y="547.4622">changePostItContent(newRow,newColumn,content)</text><line style="stroke:#181818;stroke-width:0.6999999999999998;" x1="2093" x2="2122.4" y1="570.757" y2="570.757"/><line style="stroke:#181818;stroke-width:0.6999999999999998;" x1="2122.4" x2="2122.4" y1="570.757" y2="579.857"/><line style="stroke:#181818;stroke-width:0.6999999999999998;" x1="2093.7" x2="2122.4" y1="579.857" y2="579.857"/><polygon fill="#181818" points="2100.7,577.057,2093.7,579.857,2100.7,582.657,2097.9,579.857" style="stroke:#181818;stroke-width:0.6999999999999998;"/><text fill="#000000" font-family="sans-serif" font-size="9.1" lengthAdjust="spacing" textLength="140" x="2097.9" y="567.4286">verifyIfCellIsOccupied(row, column)</text><polygon fill="#181818" points="1939,597.0234,1932,599.8234,1939,602.6234,1936.2,599.8234" style="stroke:#181818;stroke-width:0.6999999999999998;"/><line style="stroke:#181818;stroke-width:0.6999999999999998;" x1="1934.8" x2="2085.3" y1="599.8234" y2="599.8234"/><text fill="#000000" font-family="sans-serif" font-size="9.1" lengthAdjust="spacing" textLength="137.9" x="1943.2" y="596.495">changePostItContent(newContent)</text><line style="stroke:#181818;stroke-width:0.6999999999999998;" x1="2093" x2="2122.4" y1="619.7898" y2="619.7898"/><line style="stroke:#181818;stroke-width:0.6999999999999998;" x1="2122.4" x2="2122.4" y1="619.7898" y2="628.8898"/><line style="stroke:#181818;stroke-width:0.6999999999999998;" x1="2093.7" x2="2122.4" y1="628.8898" y2="628.8898"/><polygon fill="#181818" points="2100.7,626.0898,2093.7,628.8898,2100.7,631.6898,2097.9,628.8898" style="stroke:#181818;stroke-width:0.6999999999999998;"/><text fill="#000000" font-family="sans-serif" font-size="9.1" lengthAdjust="spacing" textLength="452.9" x="2097.9" y="616.4614">actionStack.push(new BoardAction(Action.CHANGE_POST_IT_CONTENT, row, column, null, null, newContent))</text><line style="stroke:#181818;stroke-width:0.6999999999999998;" x1="2093" x2="2122.4" y1="652.3562" y2="652.3562"/><line style="stroke:#181818;stroke-width:0.6999999999999998;" x1="2122.4" x2="2122.4" y1="652.3562" y2="661.4562"/><line style="stroke:#181818;stroke-width:0.6999999999999998;" x1="2089.5" x2="2122.4" y1="661.4562" y2="661.4562"/><polygon fill="#181818" points="2096.5,658.6562,2089.5,661.4562,2096.5,664.2562,2093.7,661.4562" style="stroke:#181818;stroke-width:0.6999999999999998;"/><text fill="#000000" font-family="sans-serif" font-size="9.1" lengthAdjust="spacing" textLength="429.1" x="2097.9" y="649.0278">history.push(new BoardAction(Action.CHANGE_POST_IT_CONTENT, row, column, null, null, newContent)</text><path d="M1587.6,673.3562 L1630.3,673.3562 L1630.3,677.9227 L1623.3,684.9227 L1587.6,684.9227 L1587.6,673.3562 " fill="#EEEEEE" style="stroke:#000000;stroke-width:1.0499999999999998;"/><rect fill="none" height="205.9312" style="stroke:#000000;stroke-width:1.0499999999999998;" width="1085" x="1587.6" y="673.3562"/><text fill="#000000" font-family="sans-serif" font-size="9.1" font-weight="bold" lengthAdjust="spacing" textLength="11.2" x="1598.1" y="682.2942">alt</text><text fill="#000000" font-family="sans-serif" font-size="7.7" font-weight="bold" lengthAdjust="spacing" textLength="71.4" x="1640.8" y="681.7269">[newRow!=exRow]</text><polygon fill="#181818" points="2077.6,696.4891,2084.6,699.2891,2077.6,702.0891,2080.4,699.2891" style="stroke:#181818;stroke-width:0.6999999999999998;"/><line style="stroke:#181818;stroke-width:0.6999999999999998;" x1="1649.2" x2="2081.8" y1="699.2891" y2="699.2891"/><text fill="#000000" font-family="sans-serif" font-size="9.1" lengthAdjust="spacing" textLength="248.5" x="1654.1" y="695.9606">changePostItPosition(newRow,newColumn,exRow,exColumn)</text><line style="stroke:#181818;stroke-width:0.6999999999999998;" x1="2093" x2="2122.4" y1="719.2555" y2="719.2555"/><line style="stroke:#181818;stroke-width:0.6999999999999998;" x1="2122.4" x2="2122.4" y1="719.2555" y2="728.3555"/><line style="stroke:#181818;stroke-width:0.6999999999999998;" x1="2093.7" x2="2122.4" y1="728.3555" y2="728.3555"/><polygon fill="#181818" points="2100.7,725.5555,2093.7,728.3555,2100.7,731.1555,2097.9,728.3555" style="stroke:#181818;stroke-width:0.6999999999999998;"/><text fill="#000000" font-family="sans-serif" font-size="9.1" lengthAdjust="spacing" textLength="168.7" x="2097.9" y="715.9271">verifyIfCellIsOccupied(oldRow, oldColumn)</text><line style="stroke:#181818;stroke-width:0.6999999999999998;" x1="2093" x2="2122.4" y1="748.3219" y2="748.3219"/><line style="stroke:#181818;stroke-width:0.6999999999999998;" x1="2122.4" x2="2122.4" y1="748.3219" y2="757.4219"/><line style="stroke:#181818;stroke-width:0.6999999999999998;" x1="2093.7" x2="2122.4" y1="757.4219" y2="757.4219"/><polygon fill="#181818" points="2100.7,754.6219,2093.7,757.4219,2100.7,760.2219,2097.9,757.4219" style="stroke:#181818;stroke-width:0.6999999999999998;"/><text fill="#000000" font-family="sans-serif" font-size="9.1" lengthAdjust="spacing" textLength="177.1" x="2097.9" y="744.9935">verifyIfCellIsOccupied(newRow, newColumn)</text><line style="stroke:#181818;stroke-width:0.6999999999999998;" x1="2093" x2="2122.4" y1="777.3883" y2="777.3883"/><line style="stroke:#181818;stroke-width:0.6999999999999998;" x1="2122.4" x2="2122.4" y1="777.3883" y2="786.4883"/><line style="stroke:#181818;stroke-width:0.6999999999999998;" x1="2093.7" x2="2122.4" y1="786.4883" y2="786.4883"/><polygon fill="#181818" points="2100.7,783.6883,2093.7,786.4883,2100.7,789.2883,2097.9,786.4883" style="stroke:#181818;stroke-width:0.6999999999999998;"/><text fill="#000000" font-family="sans-serif" font-size="9.1" lengthAdjust="spacing" textLength="72.8" x="2097.9" y="774.0599">clearOldCellPostIt</text><line style="stroke:#181818;stroke-width:0.6999999999999998;" x1="2093" x2="2122.4" y1="806.4547" y2="806.4547"/><line style="stroke:#181818;stroke-width:0.6999999999999998;" x1="2122.4" x2="2122.4" y1="806.4547" y2="815.5547"/><line style="stroke:#181818;stroke-width:0.6999999999999998;" x1="2093.7" x2="2122.4" y1="815.5547" y2="815.5547"/><polygon fill="#181818" points="2100.7,812.7547,2093.7,815.5547,2100.7,818.3547,2097.9,815.5547" style="stroke:#181818;stroke-width:0.6999999999999998;"/><text fill="#000000" font-family="sans-serif" font-size="9.1" lengthAdjust="spacing" textLength="77.7" x="2097.9" y="803.1263">updateNewPosition</text><line style="stroke:#181818;stroke-width:0.6999999999999998;" x1="2093" x2="2122.4" y1="835.5211" y2="835.5211"/><line style="stroke:#181818;stroke-width:0.6999999999999998;" x1="2122.4" x2="2122.4" y1="835.5211" y2="844.6211"/><line style="stroke:#181818;stroke-width:0.6999999999999998;" x1="2093.7" x2="2122.4" y1="844.6211" y2="844.6211"/><polygon fill="#181818" points="2100.7,841.8211,2093.7,844.6211,2100.7,847.4211,2097.9,844.6211" style="stroke:#181818;stroke-width:0.6999999999999998;"/><text fill="#000000" font-family="sans-serif" font-size="9.1" lengthAdjust="spacing" textLength="566.3" x="2097.9" y="832.1927">actionStack.push(new BoardAction(Action.CHANGE_POST_IT_PLACE, oldRow, oldColumn, newRow, newColumn, aux.content().content()))</text><line style="stroke:#181818;stroke-width:0.6999999999999998;" x1="2093" x2="2122.4" y1="868.0875" y2="868.0875"/><line style="stroke:#181818;stroke-width:0.6999999999999998;" x1="2122.4" x2="2122.4" y1="868.0875" y2="877.1875"/><line style="stroke:#181818;stroke-width:0.6999999999999998;" x1="2089.5" x2="2122.4" y1="877.1875" y2="877.1875"/><polygon fill="#181818" points="2096.5,874.3875,2089.5,877.1875,2096.5,879.9875,2093.7,877.1875" style="stroke:#181818;stroke-width:0.6999999999999998;"/><text fill="#000000" font-family="sans-serif" font-size="9.1" lengthAdjust="spacing" textLength="545.3" x="2097.9" y="864.7591">history.push(new BoardAction(Action.CHANGE_POST_IT_PLACE, oldRow, oldColumn, newRow, newColumn,aux.content().content()));</text><polygon fill="#181818" points="1334.2,885.5875,1327.2,888.3875,1334.2,891.1875,1331.4,888.3875" style="stroke:#181818;stroke-width:0.6999999999999998;"/><line style="stroke:#181818;stroke-width:0.6999999999999998;stroke-dasharray:2.0,2.0;" x1="1330" x2="1645" y1="888.3875" y2="888.3875"/><polygon fill="#181818" points="976.5,905.5539,969.5,908.3539,976.5,911.1539,973.7,908.3539" style="stroke:#181818;stroke-width:0.6999999999999998;"/><line style="stroke:#181818;stroke-width:0.6999999999999998;stroke-dasharray:2.0,2.0;" x1="972.3" x2="1322.3" y1="908.3539" y2="908.3539"/><text fill="#000000" font-family="sans-serif" font-size="9.1" lengthAdjust="spacing" textLength="140" x="980.7" y="905.0255">answer with the operation success</text><polygon fill="#181818" points="276.15,915.3539,269.15,918.1539,276.15,920.9539,273.35,918.1539" style="stroke:#181818;stroke-width:0.6999999999999998;"/><line style="stroke:#181818;stroke-width:0.6999999999999998;stroke-dasharray:2.0,2.0;" x1="271.95" x2="697.2" y1="918.1539" y2="918.1539"/><polygon fill="#181818" points="33.95,935.3203,26.95,938.1203,33.95,940.9203,31.15,938.1203" style="stroke:#181818;stroke-width:0.6999999999999998;"/><line style="stroke:#181818;stroke-width:0.6999999999999998;stroke-dasharray:2.0,2.0;" x1="29.75" x2="264.25" y1="938.1203" y2="938.1203"/><text fill="#000000" font-family="sans-serif" font-size="9.1" lengthAdjust="spacing" textLength="102.9" x="38.15" y="934.7919">shows operation success</text><!--SRC=[jLPDR-Cs4BthLt1l3k04Q8wk4o1LWzR08ZPYB_PeCDGu8bPBgYGLP_zzXqDAeYmvIGFq4YlIlFVcut4aBfmsx9i5mxXb3VvcDJTE2bbpvLXUSlKC6stTodrRKOXaosLjm89ot4cjRcy7YA_Ikkz6ElvKmRRa1ee_D3U5tO9vaG8yXNqHlo49h-jAYYcEBQZY4VvfmBeXx7e4ApWgSGiiqTgqL3xc4Mfj9HRvYpYUwht1Exu6C1Pp1ILW96zUGZzik5ekmyL9NDgSN2jdT5K5dA0dU-5CzMQX4KlHIQKHZWL7QKavThK6sB2ooQgckdFQa7VR4THyC0ATT1XSw9zSZgRMQ_ZW9xf8OZCkd7pX3eBD_1zsUUiDjS3u7vOv7IjddAGkfKimCiD8Z2VtBCXdoqJopzqQdoM6OpUiEkF5sKNFw-aofV7AoEVIPRiovCUaPVh9OUfGC5SQtJoNw0ThSOfN6HgKUL16sVYiMcEDC_juMbutJIroPXtvvVdwXofP0HCqb6lRydSREE3mNVBzzsZVdGM6wgDbnrX7H8QfMyPLqStKGWN2CQqWPVJpJ1qGegmF6t2D7D1dG087N5-S6NsSCw6hvgTY-e3pWiv10vMLgXj7Zn51MGRG5BCyiAFtTMzBWOSSrrx6AnSUdTm_8wNWs8Luuo3yOtfqKD5ldn7iiAtYz56wfjQh8jr4SVNEV5D3U-R99PBdGNuUPXRzCZnJrncHUv6mGnSCAT4fqfPWsIxV-28Kmgc-3ad1MSHSzZbo8Q16Uz3eGdu3VmRSMDJNPbilCByF4LuXf3Whcg250OwYd3gAIm1uuSV3dVDTzRc8Ic8dkfHwZlGLi8Z_XIRFaEpH-vKwIJrby4ftuBMzaNGvFPH9anE1B1NhjVtxOrgwLmx2dQve9_kM9FAI8sFmbnlLL5qENXHJ2Dj_g1uB6YSHYHAbSFG3ISA6lPM7Nwj33bMriciXcbf2CKjE_qKFYc-hipdahUf8XZ5EljmwBdvSrOqjVJoZTjpHardukSh_ldluwtw_MMzt-zLkdwyVTlSFktcwZt2Ms9xkRwyxALpYLiPNy_yccXwQq6I_86YSOInVRiWI7nZd9cwOzqprwR7ggg1JWR_vwN3VWOwEs0HKLC3D6haH6YeQnpGrhWnuW6DRx2ZaaqxPVBtBxwcqOObpDh4TUFDw5S_8xAA_cdBG9_ppNr8vcydlOsDvNwKk6Yx5D3xPAuDDbgvYhkmHBuxIbRHuDNwmqYSrims-6woT83pLQHSzlIJejNdoZNCz-OtpfjIGWxvi_mK0]--></g></svg>