<?xml version="1.0" encoding="us-ascii" standalone="no"?><svg xmlns="http://www.w3.org/2000/svg" xmlns:xlink="http://www.w3.org/1999/xlink" contentStyleType="text/css" height="320.4px" preserveAspectRatio="none" style="width:653px;height:320px;background:#FFFFFF;" version="1.1" viewBox="0 0 653 320" width="653.4px" zoomAndPan="magnify"><defs/><g><!--cluster <<agr Teacher>>--><g id="cluster_&lt;&lt;agr Teacher&gt;&gt;"><path d="M388.5,157.8 L449.1,157.8 A2.25,2.25 0 0 1 450.6,159.3 L454.8,170.7844 L647.7,170.7844 A1.5,1.5 0 0 1 649.2,172.2844 L649.2,305.4 A1.5,1.5 0 0 1 647.7,306.9 L388.5,306.9 A1.5,1.5 0 0 1 387,305.4 L387,159.3 A1.5,1.5 0 0 1 388.5,157.8 " fill="none" style="stroke:#000000;stroke-width:0.8999999999999999;"/><line style="stroke:#000000;stroke-width:0.8999999999999999;" x1="387" x2="454.8" y1="170.7844" y2="170.7844"/><text fill="#000000" font-family="sans-serif" font-size="8.4" font-weight="bold" lengthAdjust="spacing" textLength="60" x="389.4" y="166.6043">&#171;agr Teacher&#187;</text></g><!--cluster <<agr Course>>--><g id="cluster_&lt;&lt;agr Course&gt;&gt;"><path d="M5.1,157.8 L62.1,157.8 A2.25,2.25 0 0 1 63.6,159.3 L67.8,170.7844 L371.1,170.7844 A1.5,1.5 0 0 1 372.6,172.2844 L372.6,314.7 A1.5,1.5 0 0 1 371.1,316.2 L5.1,316.2 A1.5,1.5 0 0 1 3.6,314.7 L3.6,159.3 A1.5,1.5 0 0 1 5.1,157.8 " fill="none" style="stroke:#000000;stroke-width:0.8999999999999999;"/><line style="stroke:#000000;stroke-width:0.8999999999999999;" x1="3.6" x2="67.8" y1="170.7844" y2="170.7844"/><text fill="#000000" font-family="sans-serif" font-size="8.4" font-weight="bold" lengthAdjust="spacing" textLength="56.4" x="6" y="166.6043">&#171;agr Course&#187;</text></g><!--cluster <<agr TeamElement>>--><g id="cluster_&lt;&lt;agr TeamElement&gt;&gt;"><path d="M268.5,3.6 L351.3,3.6 A2.25,2.25 0 0 1 352.8,5.1 L357,16.5844 L399.3,16.5844 A1.5,1.5 0 0 1 400.8,18.0844 L400.8,141.9 A1.5,1.5 0 0 1 399.3,143.4 L268.5,143.4 A1.5,1.5 0 0 1 267,141.9 L267,5.1 A1.5,1.5 0 0 1 268.5,3.6 " fill="none" style="stroke:#000000;stroke-width:0.8999999999999999;"/><line style="stroke:#000000;stroke-width:0.8999999999999999;" x1="267" x2="357" y1="16.5844" y2="16.5844"/><text fill="#000000" font-family="sans-serif" font-size="8.4" font-weight="bold" lengthAdjust="spacing" textLength="82.2" x="269.4" y="12.4043">&#171;agr TeamElement&#187;</text></g><!--class Teacher--><g id="elem_Teacher"><rect codeLine="4" fill="#F1F1F1" height="41.0719" id="Teacher" rx="1.5" ry="1.5" style="stroke:#181818;stroke-width:0.3;" width="51" x="441.9" y="178.2"/><ellipse cx="450.9" cy="193.9359" fill="#ADD1B2" rx="6.6" ry="6.6" style="stroke:#181818;stroke-width:0.6;"/><path d="M452.5594,191.4609 Q452.6531,191.3297 452.7656,191.2641 Q452.8781,191.1984 453.0094,191.1984 Q453.2344,191.1984 453.375,191.3578 Q453.5156,191.5078 453.5156,191.8734 L453.5156,192.7453 Q453.5156,193.1109 453.375,193.2703 Q453.2344,193.4297 453.0094,193.4297 Q452.8031,193.4297 452.6813,193.3078 Q452.5594,193.1953 452.4938,192.8859 Q452.4656,192.6703 452.3531,192.5578 Q452.1563,192.3328 451.7906,192.2016 Q451.425,192.0703 451.05,192.0703 Q450.5906,192.0703 450.2063,192.2672 Q449.8313,192.4641 449.5313,192.9141 Q449.2406,193.3641 449.2406,193.9828 L449.2406,194.6391 Q449.2406,195.3797 449.775,195.8766 Q450.3094,196.3641 451.2656,196.3641 Q451.8281,196.3641 452.2219,196.2141 Q452.4563,196.1203 452.7094,195.8578 Q452.8688,195.6984 452.9531,195.6516 Q453.0469,195.6047 453.1688,195.6047 Q453.3656,195.6047 453.5156,195.7641 Q453.675,195.9141 453.675,196.1203 Q453.675,196.3266 453.4688,196.5703 Q453.1688,196.9172 452.6906,197.1141 Q452.0438,197.3859 451.2656,197.3859 Q450.3563,197.3859 449.6344,197.0109 Q449.0438,196.7109 448.6312,196.0734 Q448.2188,195.4266 448.2188,194.6578 L448.2188,193.9641 Q448.2188,193.1672 448.5844,192.4828 Q448.9594,191.7891 449.6156,191.4234 Q450.2719,191.0484 451.0125,191.0484 Q451.4531,191.0484 451.8375,191.1516 Q452.2313,191.2453 452.5594,191.4609 Z " fill="#000000"/><text fill="#000000" font-family="sans-serif" font-size="7.2" font-style="italic" lengthAdjust="spacing" textLength="25.8" x="462.3" y="187.718">&#171;entity&#187;</text><text fill="#000000" font-family="sans-serif" font-size="7.2" font-style="italic" lengthAdjust="spacing" textLength="21" x="464.7" y="195.7617">&#171;root&#187;</text><text fill="#000000" font-family="sans-serif" font-size="8.4" lengthAdjust="spacing" textLength="31.8" x="459.3" y="204.8918">Teacher</text><line style="stroke:#181818;stroke-width:0.3;" x1="442.5" x2="492.3" y1="209.6719" y2="209.6719"/><line style="stroke:#181818;stroke-width:0.3;" x1="442.5" x2="492.3" y1="214.4719" y2="214.4719"/></g><!--class Acronym--><g id="elem_Acronym"><rect codeLine="5" fill="#F1F1F1" height="33.0281" id="Acronym" rx="1.5" ry="1.5" style="stroke:#181818;stroke-width:0.3;" width="52.2" x="396.9" y="264.3"/><ellipse cx="405.9" cy="276.0141" fill="#ADD1B2" rx="6.6" ry="6.6" style="stroke:#181818;stroke-width:0.6;"/><path d="M407.5594,273.5391 Q407.6531,273.4078 407.7656,273.3422 Q407.8781,273.2766 408.0094,273.2766 Q408.2344,273.2766 408.375,273.4359 Q408.5156,273.5859 408.5156,273.9516 L408.5156,274.8234 Q408.5156,275.1891 408.375,275.3484 Q408.2344,275.5078 408.0094,275.5078 Q407.8031,275.5078 407.6813,275.3859 Q407.5594,275.2734 407.4938,274.9641 Q407.4656,274.7484 407.3531,274.6359 Q407.1563,274.4109 406.7906,274.2797 Q406.425,274.1484 406.05,274.1484 Q405.5906,274.1484 405.2063,274.3453 Q404.8313,274.5422 404.5313,274.9922 Q404.2406,275.4422 404.2406,276.0609 L404.2406,276.7172 Q404.2406,277.4578 404.775,277.9547 Q405.3094,278.4422 406.2656,278.4422 Q406.8281,278.4422 407.2219,278.2922 Q407.4563,278.1984 407.7094,277.9359 Q407.8688,277.7766 407.9531,277.7297 Q408.0469,277.6828 408.1688,277.6828 Q408.3656,277.6828 408.5156,277.8422 Q408.675,277.9922 408.675,278.1984 Q408.675,278.4047 408.4688,278.6484 Q408.1688,278.9953 407.6906,279.1922 Q407.0438,279.4641 406.2656,279.4641 Q405.3563,279.4641 404.6344,279.0891 Q404.0438,278.7891 403.6312,278.1516 Q403.2188,277.5047 403.2188,276.7359 L403.2188,276.0422 Q403.2188,275.2453 403.5844,274.5609 Q403.9594,273.8672 404.6156,273.5016 Q405.2719,273.1266 406.0125,273.1266 Q406.4531,273.1266 406.8375,273.2297 Q407.2313,273.3234 407.5594,273.5391 Z " fill="#000000"/><text fill="#000000" font-family="sans-serif" font-size="7.2" font-style="italic" lengthAdjust="spacing" textLength="16.2" x="422.7" y="273.818">&#171;vo&#187;</text><text fill="#000000" font-family="sans-serif" font-size="8.4" lengthAdjust="spacing" textLength="33" x="414.3" y="282.948">Acronym</text><line style="stroke:#181818;stroke-width:0.3;" x1="397.5" x2="448.5" y1="287.7281" y2="287.7281"/><line style="stroke:#181818;stroke-width:0.3;" x1="397.5" x2="448.5" y1="292.5281" y2="292.5281"/></g><!--class TaxPayerNumber--><g id="elem_TaxPayerNumber"><rect codeLine="6" fill="#F1F1F1" height="33.0281" id="TaxPayerNumber" rx="1.5" ry="1.5" style="stroke:#181818;stroke-width:0.3;" width="84.6" x="470.1" y="264.3"/><ellipse cx="479.1" cy="276.0141" fill="#ADD1B2" rx="6.6" ry="6.6" style="stroke:#181818;stroke-width:0.6;"/><path d="M480.7594,273.5391 Q480.8531,273.4078 480.9656,273.3422 Q481.0781,273.2766 481.2094,273.2766 Q481.4344,273.2766 481.575,273.4359 Q481.7156,273.5859 481.7156,273.9516 L481.7156,274.8234 Q481.7156,275.1891 481.575,275.3484 Q481.4344,275.5078 481.2094,275.5078 Q481.0031,275.5078 480.8812,275.3859 Q480.7594,275.2734 480.6937,274.9641 Q480.6656,274.7484 480.5531,274.6359 Q480.3563,274.4109 479.9906,274.2797 Q479.625,274.1484 479.25,274.1484 Q478.7906,274.1484 478.4063,274.3453 Q478.0313,274.5422 477.7313,274.9922 Q477.4406,275.4422 477.4406,276.0609 L477.4406,276.7172 Q477.4406,277.4578 477.975,277.9547 Q478.5094,278.4422 479.4656,278.4422 Q480.0281,278.4422 480.4219,278.2922 Q480.6563,278.1984 480.9094,277.9359 Q481.0687,277.7766 481.1531,277.7297 Q481.2469,277.6828 481.3688,277.6828 Q481.5656,277.6828 481.7156,277.8422 Q481.875,277.9922 481.875,278.1984 Q481.875,278.4047 481.6688,278.6484 Q481.3688,278.9953 480.8906,279.1922 Q480.2438,279.4641 479.4656,279.4641 Q478.5563,279.4641 477.8344,279.0891 Q477.2438,278.7891 476.8312,278.1516 Q476.4188,277.5047 476.4188,276.7359 L476.4188,276.0422 Q476.4188,275.2453 476.7844,274.5609 Q477.1594,273.8672 477.8156,273.5016 Q478.4719,273.1266 479.2125,273.1266 Q479.6531,273.1266 480.0375,273.2297 Q480.4313,273.3234 480.7594,273.5391 Z " fill="#000000"/><text fill="#000000" font-family="sans-serif" font-size="7.2" font-style="italic" lengthAdjust="spacing" textLength="16.2" x="512.1" y="273.818">&#171;vo&#187;</text><text fill="#000000" font-family="sans-serif" font-size="8.4" lengthAdjust="spacing" textLength="65.4" x="487.5" y="282.948">TaxPayerNumber</text><line style="stroke:#181818;stroke-width:0.3;" x1="470.7" x2="554.1" y1="287.7281" y2="287.7281"/><line style="stroke:#181818;stroke-width:0.3;" x1="470.7" x2="554.1" y1="292.5281" y2="292.5281"/></g><!--class DateOfBirth--><g id="elem_DateOfBirth"><rect codeLine="7" fill="#F1F1F1" height="33.0281" id="DateOfBirth" rx="1.5" ry="1.5" style="stroke:#181818;stroke-width:0.3;" width="63.6" x="576" y="264.3"/><ellipse cx="585" cy="276.0141" fill="#ADD1B2" rx="6.6" ry="6.6" style="stroke:#181818;stroke-width:0.6;"/><path d="M586.6594,273.5391 Q586.7531,273.4078 586.8656,273.3422 Q586.9781,273.2766 587.1094,273.2766 Q587.3344,273.2766 587.475,273.4359 Q587.6156,273.5859 587.6156,273.9516 L587.6156,274.8234 Q587.6156,275.1891 587.475,275.3484 Q587.3344,275.5078 587.1094,275.5078 Q586.9031,275.5078 586.7813,275.3859 Q586.6594,275.2734 586.5938,274.9641 Q586.5656,274.7484 586.4531,274.6359 Q586.2563,274.4109 585.8906,274.2797 Q585.525,274.1484 585.15,274.1484 Q584.6906,274.1484 584.3063,274.3453 Q583.9313,274.5422 583.6313,274.9922 Q583.3406,275.4422 583.3406,276.0609 L583.3406,276.7172 Q583.3406,277.4578 583.875,277.9547 Q584.4094,278.4422 585.3656,278.4422 Q585.9281,278.4422 586.3219,278.2922 Q586.5563,278.1984 586.8094,277.9359 Q586.9688,277.7766 587.0531,277.7297 Q587.1469,277.6828 587.2688,277.6828 Q587.4656,277.6828 587.6156,277.8422 Q587.775,277.9922 587.775,278.1984 Q587.775,278.4047 587.5688,278.6484 Q587.2688,278.9953 586.7906,279.1922 Q586.1438,279.4641 585.3656,279.4641 Q584.4563,279.4641 583.7344,279.0891 Q583.1438,278.7891 582.7312,278.1516 Q582.3188,277.5047 582.3188,276.7359 L582.3188,276.0422 Q582.3188,275.2453 582.6844,274.5609 Q583.0594,273.8672 583.7156,273.5016 Q584.3719,273.1266 585.1125,273.1266 Q585.5531,273.1266 585.9375,273.2297 Q586.3313,273.3234 586.6594,273.5391 Z " fill="#000000"/><text fill="#000000" font-family="sans-serif" font-size="7.2" font-style="italic" lengthAdjust="spacing" textLength="16.2" x="607.5" y="273.818">&#171;vo&#187;</text><text fill="#000000" font-family="sans-serif" font-size="8.4" lengthAdjust="spacing" textLength="44.4" x="593.4" y="282.948">DateOfBirth</text><line style="stroke:#181818;stroke-width:0.3;" x1="576.6" x2="639" y1="287.7281" y2="287.7281"/><line style="stroke:#181818;stroke-width:0.3;" x1="576.6" x2="639" y1="292.5281" y2="292.5281"/></g><!--class Course--><g id="elem_Course"><rect codeLine="16" fill="#F1F1F1" height="41.0719" id="Course" rx="1.5" ry="1.5" style="stroke:#181818;stroke-width:0.3;" width="46.8" x="220.2" y="178.2"/><ellipse cx="229.2" cy="193.9359" fill="#ADD1B2" rx="6.6" ry="6.6" style="stroke:#181818;stroke-width:0.6;"/><path d="M230.8594,191.4609 Q230.9531,191.3297 231.0656,191.2641 Q231.1781,191.1984 231.3094,191.1984 Q231.5344,191.1984 231.675,191.3578 Q231.8156,191.5078 231.8156,191.8734 L231.8156,192.7453 Q231.8156,193.1109 231.675,193.2703 Q231.5344,193.4297 231.3094,193.4297 Q231.1031,193.4297 230.9813,193.3078 Q230.8594,193.1953 230.7938,192.8859 Q230.7656,192.6703 230.6531,192.5578 Q230.4562,192.3328 230.0906,192.2016 Q229.725,192.0703 229.35,192.0703 Q228.8906,192.0703 228.5063,192.2672 Q228.1313,192.4641 227.8312,192.9141 Q227.5406,193.3641 227.5406,193.9828 L227.5406,194.6391 Q227.5406,195.3797 228.075,195.8766 Q228.6094,196.3641 229.5656,196.3641 Q230.1281,196.3641 230.5219,196.2141 Q230.7563,196.1203 231.0094,195.8578 Q231.1688,195.6984 231.2531,195.6516 Q231.3469,195.6047 231.4688,195.6047 Q231.6656,195.6047 231.8156,195.7641 Q231.975,195.9141 231.975,196.1203 Q231.975,196.3266 231.7687,196.5703 Q231.4688,196.9172 230.9906,197.1141 Q230.3438,197.3859 229.5656,197.3859 Q228.6563,197.3859 227.9344,197.0109 Q227.3438,196.7109 226.9313,196.0734 Q226.5187,195.4266 226.5187,194.6578 L226.5187,193.9641 Q226.5187,193.1672 226.8844,192.4828 Q227.2594,191.7891 227.9156,191.4234 Q228.5719,191.0484 229.3125,191.0484 Q229.7531,191.0484 230.1375,191.1516 Q230.5313,191.2453 230.8594,191.4609 Z " fill="#000000"/><text fill="#000000" font-family="sans-serif" font-size="7.2" font-style="italic" lengthAdjust="spacing" textLength="25.8" x="238.5" y="187.718">&#171;entity&#187;</text><text fill="#000000" font-family="sans-serif" font-size="7.2" font-style="italic" lengthAdjust="spacing" textLength="21" x="240.9" y="195.7617">&#171;root&#187;</text><text fill="#000000" font-family="sans-serif" font-size="8.4" lengthAdjust="spacing" textLength="27.6" x="237.6" y="204.8918">Course</text><line style="stroke:#181818;stroke-width:0.3;" x1="220.8" x2="266.4" y1="209.6719" y2="209.6719"/><line style="stroke:#181818;stroke-width:0.3;" x1="220.8" x2="266.4" y1="214.4719" y2="214.4719"/></g><!--class CourseCode--><g id="elem_CourseCode"><rect codeLine="17" fill="#F1F1F1" height="33.0281" id="CourseCode" rx="1.5" ry="1.5" style="stroke:#181818;stroke-width:0.3;" width="67.2" x="13.2" y="264.3"/><ellipse cx="22.2" cy="276.0141" fill="#ADD1B2" rx="6.6" ry="6.6" style="stroke:#181818;stroke-width:0.6;"/><path d="M23.8594,273.5391 Q23.9531,273.4078 24.0656,273.3422 Q24.1781,273.2766 24.3094,273.2766 Q24.5344,273.2766 24.675,273.4359 Q24.8156,273.5859 24.8156,273.9516 L24.8156,274.8234 Q24.8156,275.1891 24.675,275.3484 Q24.5344,275.5078 24.3094,275.5078 Q24.1031,275.5078 23.9813,275.3859 Q23.8594,275.2734 23.7938,274.9641 Q23.7656,274.7484 23.6531,274.6359 Q23.4563,274.4109 23.0906,274.2797 Q22.725,274.1484 22.35,274.1484 Q21.8906,274.1484 21.5062,274.3453 Q21.1312,274.5422 20.8313,274.9922 Q20.5406,275.4422 20.5406,276.0609 L20.5406,276.7172 Q20.5406,277.4578 21.075,277.9547 Q21.6094,278.4422 22.5656,278.4422 Q23.1281,278.4422 23.5219,278.2922 Q23.7562,278.1984 24.0094,277.9359 Q24.1688,277.7766 24.2531,277.7297 Q24.3469,277.6828 24.4688,277.6828 Q24.6656,277.6828 24.8156,277.8422 Q24.975,277.9922 24.975,278.1984 Q24.975,278.4047 24.7688,278.6484 Q24.4688,278.9953 23.9906,279.1922 Q23.3438,279.4641 22.5656,279.4641 Q21.6563,279.4641 20.9344,279.0891 Q20.3438,278.7891 19.9313,278.1516 Q19.5188,277.5047 19.5188,276.7359 L19.5188,276.0422 Q19.5188,275.2453 19.8844,274.5609 Q20.2594,273.8672 20.9156,273.5016 Q21.5719,273.1266 22.3125,273.1266 Q22.7531,273.1266 23.1375,273.2297 Q23.5313,273.3234 23.8594,273.5391 Z " fill="#000000"/><text fill="#000000" font-family="sans-serif" font-size="7.2" font-style="italic" lengthAdjust="spacing" textLength="16.2" x="46.5" y="273.818">&#171;vo&#187;</text><text fill="#000000" font-family="sans-serif" font-size="8.4" lengthAdjust="spacing" textLength="48" x="30.6" y="282.948">CourseCode</text><line style="stroke:#181818;stroke-width:0.3;" x1="13.8" x2="79.8" y1="287.7281" y2="287.7281"/><line style="stroke:#181818;stroke-width:0.3;" x1="13.8" x2="79.8" y1="292.5281" y2="292.5281"/></g><!--class CourseDescription--><g id="elem_CourseDescription"><rect codeLine="18" fill="#F1F1F1" height="33.0281" id="CourseDescription" rx="1.5" ry="1.5" style="stroke:#181818;stroke-width:0.3;" width="89.4" x="101.7" y="264.3"/><ellipse cx="110.7" cy="276.0141" fill="#ADD1B2" rx="6.6" ry="6.6" style="stroke:#181818;stroke-width:0.6;"/><path d="M112.3594,273.5391 Q112.4531,273.4078 112.5656,273.3422 Q112.6781,273.2766 112.8094,273.2766 Q113.0344,273.2766 113.175,273.4359 Q113.3156,273.5859 113.3156,273.9516 L113.3156,274.8234 Q113.3156,275.1891 113.175,275.3484 Q113.0344,275.5078 112.8094,275.5078 Q112.6031,275.5078 112.4813,275.3859 Q112.3594,275.2734 112.2938,274.9641 Q112.2656,274.7484 112.1531,274.6359 Q111.9563,274.4109 111.5906,274.2797 Q111.225,274.1484 110.85,274.1484 Q110.3906,274.1484 110.0063,274.3453 Q109.6313,274.5422 109.3313,274.9922 Q109.0406,275.4422 109.0406,276.0609 L109.0406,276.7172 Q109.0406,277.4578 109.575,277.9547 Q110.1094,278.4422 111.0656,278.4422 Q111.6281,278.4422 112.0219,278.2922 Q112.2563,278.1984 112.5094,277.9359 Q112.6688,277.7766 112.7531,277.7297 Q112.8469,277.6828 112.9688,277.6828 Q113.1656,277.6828 113.3156,277.8422 Q113.475,277.9922 113.475,278.1984 Q113.475,278.4047 113.2688,278.6484 Q112.9688,278.9953 112.4906,279.1922 Q111.8438,279.4641 111.0656,279.4641 Q110.1563,279.4641 109.4344,279.0891 Q108.8438,278.7891 108.4312,278.1516 Q108.0188,277.5047 108.0188,276.7359 L108.0188,276.0422 Q108.0188,275.2453 108.3844,274.5609 Q108.7594,273.8672 109.4156,273.5016 Q110.0719,273.1266 110.8125,273.1266 Q111.2531,273.1266 111.6375,273.2297 Q112.0313,273.3234 112.3594,273.5391 Z " fill="#000000"/><text fill="#000000" font-family="sans-serif" font-size="7.2" font-style="italic" lengthAdjust="spacing" textLength="16.2" x="146.1" y="273.818">&#171;vo&#187;</text><text fill="#000000" font-family="sans-serif" font-size="8.4" lengthAdjust="spacing" textLength="70.2" x="119.1" y="282.948">CourseDescription</text><line style="stroke:#181818;stroke-width:0.3;" x1="102.3" x2="190.5" y1="287.7281" y2="287.7281"/><line style="stroke:#181818;stroke-width:0.3;" x1="102.3" x2="190.5" y1="292.5281" y2="292.5281"/></g><!--class CourseTitle--><g id="elem_CourseTitle"><rect codeLine="19" fill="#F1F1F1" height="33.0281" id="CourseTitle" rx="1.5" ry="1.5" style="stroke:#181818;stroke-width:0.3;" width="63" x="212.1" y="264.3"/><ellipse cx="221.1" cy="276.0141" fill="#ADD1B2" rx="6.6" ry="6.6" style="stroke:#181818;stroke-width:0.6;"/><path d="M222.7594,273.5391 Q222.8531,273.4078 222.9656,273.3422 Q223.0781,273.2766 223.2094,273.2766 Q223.4344,273.2766 223.575,273.4359 Q223.7156,273.5859 223.7156,273.9516 L223.7156,274.8234 Q223.7156,275.1891 223.575,275.3484 Q223.4344,275.5078 223.2094,275.5078 Q223.0031,275.5078 222.8813,275.3859 Q222.7594,275.2734 222.6938,274.9641 Q222.6656,274.7484 222.5531,274.6359 Q222.3563,274.4109 221.9906,274.2797 Q221.625,274.1484 221.25,274.1484 Q220.7906,274.1484 220.4063,274.3453 Q220.0313,274.5422 219.7313,274.9922 Q219.4406,275.4422 219.4406,276.0609 L219.4406,276.7172 Q219.4406,277.4578 219.975,277.9547 Q220.5094,278.4422 221.4656,278.4422 Q222.0281,278.4422 222.4219,278.2922 Q222.6563,278.1984 222.9094,277.9359 Q223.0688,277.7766 223.1531,277.7297 Q223.2469,277.6828 223.3688,277.6828 Q223.5656,277.6828 223.7156,277.8422 Q223.875,277.9922 223.875,278.1984 Q223.875,278.4047 223.6688,278.6484 Q223.3688,278.9953 222.8906,279.1922 Q222.2438,279.4641 221.4656,279.4641 Q220.5563,279.4641 219.8344,279.0891 Q219.2438,278.7891 218.8312,278.1516 Q218.4188,277.5047 218.4188,276.7359 L218.4188,276.0422 Q218.4188,275.2453 218.7844,274.5609 Q219.1594,273.8672 219.8156,273.5016 Q220.4719,273.1266 221.2125,273.1266 Q221.6531,273.1266 222.0375,273.2297 Q222.4313,273.3234 222.7594,273.5391 Z " fill="#000000"/><text fill="#000000" font-family="sans-serif" font-size="7.2" font-style="italic" lengthAdjust="spacing" textLength="16.2" x="243.3" y="273.818">&#171;vo&#187;</text><text fill="#000000" font-family="sans-serif" font-size="8.4" lengthAdjust="spacing" textLength="43.8" x="229.5" y="282.948">CourseTitle</text><line style="stroke:#181818;stroke-width:0.3;" x1="212.7" x2="274.5" y1="287.7281" y2="287.7281"/><line style="stroke:#181818;stroke-width:0.3;" x1="212.7" x2="274.5" y1="292.5281" y2="292.5281"/></g><!--class CourseState--><g id="elem_CourseState"><rect codeLine="20" fill="#F1F1F1" height="51.7969" id="CourseState" rx="1.5" ry="1.5" style="stroke:#181818;stroke-width:0.3;" width="66.6" x="296.1" y="255"/><ellipse cx="305.1" cy="266.7141" fill="#EB937F" rx="6.6" ry="6.6" style="stroke:#181818;stroke-width:0.6;"/><path d="M304.4156,267.1922 L304.4156,268.6922 L307.0125,268.6922 L307.0125,268.1391 Q307.0125,267.7734 307.1531,267.6141 Q307.3031,267.4547 307.5281,267.4547 Q307.7531,267.4547 307.8938,267.6141 Q308.0344,267.7734 308.0344,268.1391 L308.0344,269.7141 L303.2344,269.7141 Q302.8594,269.7141 302.7,269.5734 Q302.55,269.4328 302.55,269.1984 Q302.55,268.9734 302.7094,268.8328 Q302.8688,268.6922 303.2344,268.6922 L303.3938,268.6922 L303.3938,264.6984 L303.2344,264.6984 Q302.8594,264.6984 302.7,264.5578 Q302.55,264.4172 302.55,264.1828 Q302.55,263.9578 302.7,263.8172 Q302.8594,263.6766 303.2344,263.6766 L307.8094,263.6766 L307.8094,265.2328 Q307.8094,265.5984 307.6688,265.7578 Q307.5375,265.9078 307.3031,265.9078 Q307.0781,265.9078 306.9375,265.7578 Q306.7969,265.5984 306.7969,265.2328 L306.7969,264.6984 L304.4156,264.6984 L304.4156,266.1703 L305.3063,266.1703 Q305.3063,265.7766 305.3812,265.6641 Q305.5406,265.4203 305.8219,265.4203 Q306.0469,265.4203 306.1875,265.5797 Q306.3281,265.7297 306.3281,266.0953 L306.3281,267.2766 Q306.3281,267.6047 306.2531,267.7172 Q306.0938,267.9516 305.8219,267.9516 Q305.5406,267.9516 305.3812,267.7078 Q305.3063,267.5953 305.3063,267.1922 L304.4156,267.1922 Z " fill="#000000"/><text fill="#000000" font-family="sans-serif" font-size="7.2" font-style="italic" lengthAdjust="spacing" textLength="16.2" x="329.1" y="264.518">&#171;vo&#187;</text><text fill="#000000" font-family="sans-serif" font-size="8.4" lengthAdjust="spacing" textLength="47.4" x="313.5" y="273.648">CourseState</text><line style="stroke:#181818;stroke-width:0.3;" x1="296.7" x2="362.1" y1="278.4281" y2="278.4281"/><text fill="#000000" font-family="sans-serif" font-size="8.4" lengthAdjust="spacing" textLength="22.8" x="299.7" y="288.4324">OPEN</text><text fill="#000000" font-family="sans-serif" font-size="8.4" lengthAdjust="spacing" textLength="28.2" x="299.7" y="297.8168">CLOSE</text><line style="stroke:#181818;stroke-width:0.3;" x1="296.7" x2="362.1" y1="301.9969" y2="301.9969"/></g><!--class TeamElement--><g id="elem_TeamElement"><rect codeLine="32" fill="#F1F1F1" height="41.0719" id="TeamElement" rx="1.5" ry="1.5" style="stroke:#181818;stroke-width:0.3;" width="71.4" x="297.9" y="24"/><ellipse cx="306.9" cy="39.7359" fill="#ADD1B2" rx="6.6" ry="6.6" style="stroke:#181818;stroke-width:0.6;"/><path d="M308.5594,37.2609 Q308.6531,37.1297 308.7656,37.0641 Q308.8781,36.9984 309.0094,36.9984 Q309.2344,36.9984 309.375,37.1578 Q309.5156,37.3078 309.5156,37.6734 L309.5156,38.5453 Q309.5156,38.9109 309.375,39.0703 Q309.2344,39.2297 309.0094,39.2297 Q308.8031,39.2297 308.6813,39.1078 Q308.5594,38.9953 308.4938,38.6859 Q308.4656,38.4703 308.3531,38.3578 Q308.1563,38.1328 307.7906,38.0016 Q307.425,37.8703 307.05,37.8703 Q306.5906,37.8703 306.2063,38.0672 Q305.8313,38.2641 305.5313,38.7141 Q305.2406,39.1641 305.2406,39.7828 L305.2406,40.4391 Q305.2406,41.1797 305.775,41.6766 Q306.3094,42.1641 307.2656,42.1641 Q307.8281,42.1641 308.2219,42.0141 Q308.4563,41.9203 308.7094,41.6578 Q308.8688,41.4984 308.9531,41.4516 Q309.0469,41.4047 309.1688,41.4047 Q309.3656,41.4047 309.5156,41.5641 Q309.675,41.7141 309.675,41.9203 Q309.675,42.1266 309.4688,42.3703 Q309.1688,42.7172 308.6906,42.9141 Q308.0438,43.1859 307.2656,43.1859 Q306.3563,43.1859 305.6344,42.8109 Q305.0438,42.5109 304.6312,41.8734 Q304.2188,41.2266 304.2188,40.4578 L304.2188,39.7641 Q304.2188,38.9672 304.5844,38.2828 Q304.9594,37.5891 305.6156,37.2234 Q306.2719,36.8484 307.0125,36.8484 Q307.4531,36.8484 307.8375,36.9516 Q308.2313,37.0453 308.5594,37.2609 Z " fill="#000000"/><text fill="#000000" font-family="sans-serif" font-size="7.2" font-style="italic" lengthAdjust="spacing" textLength="25.8" x="328.5" y="33.518">&#171;entity&#187;</text><text fill="#000000" font-family="sans-serif" font-size="7.2" font-style="italic" lengthAdjust="spacing" textLength="21" x="330.9" y="41.5617">&#171;root&#187;</text><text fill="#000000" font-family="sans-serif" font-size="8.4" lengthAdjust="spacing" textLength="52.2" x="315.3" y="50.6918">TeamElement</text><line style="stroke:#181818;stroke-width:0.3;" x1="298.5" x2="368.7" y1="55.4719" y2="55.4719"/><line style="stroke:#181818;stroke-width:0.3;" x1="298.5" x2="368.7" y1="60.2719" y2="60.2719"/></g><!--class course--><g id="elem_course"><rect codeLine="33" fill="#F1F1F1" height="33.0281" id="course" rx="1.5" ry="1.5" style="stroke:#181818;stroke-width:0.3;" width="45" x="276.9" y="100.8"/><ellipse cx="285.9" cy="112.5141" fill="#ADD1B2" rx="6.6" ry="6.6" style="stroke:#181818;stroke-width:0.6;"/><path d="M287.5594,110.0391 Q287.6531,109.9078 287.7656,109.8422 Q287.8781,109.7766 288.0094,109.7766 Q288.2344,109.7766 288.375,109.9359 Q288.5156,110.0859 288.5156,110.4516 L288.5156,111.3234 Q288.5156,111.6891 288.375,111.8484 Q288.2344,112.0078 288.0094,112.0078 Q287.8031,112.0078 287.6813,111.8859 Q287.5594,111.7734 287.4938,111.4641 Q287.4656,111.2484 287.3531,111.1359 Q287.1563,110.9109 286.7906,110.7797 Q286.425,110.6484 286.05,110.6484 Q285.5906,110.6484 285.2063,110.8453 Q284.8313,111.0422 284.5313,111.4922 Q284.2406,111.9422 284.2406,112.5609 L284.2406,113.2172 Q284.2406,113.9578 284.775,114.4547 Q285.3094,114.9422 286.2656,114.9422 Q286.8281,114.9422 287.2219,114.7922 Q287.4563,114.6984 287.7094,114.4359 Q287.8688,114.2766 287.9531,114.2297 Q288.0469,114.1828 288.1688,114.1828 Q288.3656,114.1828 288.5156,114.3422 Q288.675,114.4922 288.675,114.6984 Q288.675,114.9047 288.4688,115.1484 Q288.1688,115.4953 287.6906,115.6922 Q287.0438,115.9641 286.2656,115.9641 Q285.3563,115.9641 284.6344,115.5891 Q284.0438,115.2891 283.6312,114.6516 Q283.2188,114.0047 283.2188,113.2359 L283.2188,112.5422 Q283.2188,111.7453 283.5844,111.0609 Q283.9594,110.3672 284.6156,110.0016 Q285.2719,109.6266 286.0125,109.6266 Q286.4531,109.6266 286.8375,109.7297 Q287.2313,109.8234 287.5594,110.0391 Z " fill="#000000"/><text fill="#000000" font-family="sans-serif" font-size="7.2" font-style="italic" lengthAdjust="spacing" textLength="16.2" x="299.1" y="110.318">&#171;vo&#187;</text><text fill="#000000" font-family="sans-serif" font-size="8.4" lengthAdjust="spacing" textLength="25.8" x="294.3" y="119.448">course</text><line style="stroke:#181818;stroke-width:0.3;" x1="277.5" x2="321.3" y1="124.2281" y2="124.2281"/><line style="stroke:#181818;stroke-width:0.3;" x1="277.5" x2="321.3" y1="129.0281" y2="129.0281"/></g><!--class teacher--><g id="elem_teacher"><rect codeLine="35" fill="#F1F1F1" height="33.0281" id="teacher" rx="1.5" ry="1.5" style="stroke:#181818;stroke-width:0.3;" width="48" x="343.2" y="100.8"/><ellipse cx="352.2" cy="112.5141" fill="#ADD1B2" rx="6.6" ry="6.6" style="stroke:#181818;stroke-width:0.6;"/><path d="M353.8594,110.0391 Q353.9531,109.9078 354.0656,109.8422 Q354.1781,109.7766 354.3094,109.7766 Q354.5344,109.7766 354.675,109.9359 Q354.8156,110.0859 354.8156,110.4516 L354.8156,111.3234 Q354.8156,111.6891 354.675,111.8484 Q354.5344,112.0078 354.3094,112.0078 Q354.1031,112.0078 353.9813,111.8859 Q353.8594,111.7734 353.7938,111.4641 Q353.7656,111.2484 353.6531,111.1359 Q353.4563,110.9109 353.0906,110.7797 Q352.725,110.6484 352.35,110.6484 Q351.8906,110.6484 351.5062,110.8453 Q351.1312,111.0422 350.8313,111.4922 Q350.5406,111.9422 350.5406,112.5609 L350.5406,113.2172 Q350.5406,113.9578 351.075,114.4547 Q351.6094,114.9422 352.5656,114.9422 Q353.1281,114.9422 353.5219,114.7922 Q353.7562,114.6984 354.0094,114.4359 Q354.1688,114.2766 354.2531,114.2297 Q354.3469,114.1828 354.4688,114.1828 Q354.6656,114.1828 354.8156,114.3422 Q354.975,114.4922 354.975,114.6984 Q354.975,114.9047 354.7688,115.1484 Q354.4688,115.4953 353.9906,115.6922 Q353.3438,115.9641 352.5656,115.9641 Q351.6563,115.9641 350.9344,115.5891 Q350.3438,115.2891 349.9313,114.6516 Q349.5188,114.0047 349.5188,113.2359 L349.5188,112.5422 Q349.5188,111.7453 349.8844,111.0609 Q350.2594,110.3672 350.9156,110.0016 Q351.5719,109.6266 352.3125,109.6266 Q352.7531,109.6266 353.1375,109.7297 Q353.5313,109.8234 353.8594,110.0391 Z " fill="#000000"/><text fill="#000000" font-family="sans-serif" font-size="7.2" font-style="italic" lengthAdjust="spacing" textLength="16.2" x="366.9" y="110.318">&#171;vo&#187;</text><text fill="#000000" font-family="sans-serif" font-size="8.4" lengthAdjust="spacing" textLength="28.8" x="360.6" y="119.448">teacher</text><line style="stroke:#181818;stroke-width:0.3;" x1="343.8" x2="390.6" y1="124.2281" y2="124.2281"/><line style="stroke:#181818;stroke-width:0.3;" x1="343.8" x2="390.6" y1="129.0281" y2="129.0281"/></g><!--link Teacher to Acronym--><g id="link_Teacher_Acronym"><path codeLine="10" d="M456.54,219.012 C449.442,231.96 440.238,248.754 433.266,261.474 " fill="none" id="Teacher-to-Acronym" style="stroke:#181818;stroke-width:0.6;"/><polygon fill="#181818" points="431.814,264.12,436.5117,260.535,433.2542,261.4883,432.3009,258.2308,431.814,264.12" style="stroke:#181818;stroke-width:0.6;"/><text fill="#000000" font-family="sans-serif" font-size="7.8" lengthAdjust="spacing" textLength="4.2" x="429.2505" y="257.7265">1</text></g><!--link Teacher to DateOfBirth--><g id="link_Teacher_DateOfBirth"><path codeLine="11" d="M492.996,213.66 C512.766,224.862 540.774,240.81 565.2,255 C569.448,257.466 573.918,260.088 578.304,262.674 " fill="none" id="Teacher-to-DateOfBirth" style="stroke:#181818;stroke-width:0.6;"/><polygon fill="#181818" points="581.022,264.276,577.5956,259.4615,578.4397,262.7489,575.1523,263.5931,581.022,264.276" style="stroke:#181818;stroke-width:0.6;"/><text fill="#000000" font-family="sans-serif" font-size="7.8" lengthAdjust="spacing" textLength="4.2" x="569.783" y="257.9205">1</text></g><!--link Teacher to TaxPayerNumber--><g id="link_Teacher_TaxPayerNumber"><path codeLine="12" d="M478.41,219.012 C485.598,231.96 494.928,248.754 501.996,261.474 " fill="none" id="Teacher-to-TaxPayerNumber" style="stroke:#181818;stroke-width:0.6;"/><polygon fill="#181818" points="503.466,264.12,502.9415,258.234,502.0091,261.4975,498.7456,260.5651,503.466,264.12" style="stroke:#181818;stroke-width:0.6;"/><text fill="#000000" font-family="sans-serif" font-size="7.8" lengthAdjust="spacing" textLength="4.2" x="496.5765" y="257.7265">1</text></g><!--link Course to CourseState--><g id="link_Course_CourseState"><path codeLine="25" d="M264.588,219.012 C275.334,229.158 288.582,241.668 300.3,252.726 " fill="none" id="Course-to-CourseState" style="stroke:#181818;stroke-width:0.6;"/><polygon fill="#181818" points="302.616,254.916,300.3393,249.4629,300.4354,252.8556,297.0427,252.9518,302.616,254.916" style="stroke:#181818;stroke-width:0.6;"/><text fill="#000000" font-family="sans-serif" font-size="7.8" lengthAdjust="spacing" textLength="4.2" x="293.6321" y="248.6042">1</text></g><!--link Course to CourseTitle--><g id="link_Course_CourseTitle"><path codeLine="26" d="M243.6,219.012 C243.6,231.798 243.6,248.334 243.6,260.994 " fill="none" id="Course-to-CourseTitle" style="stroke:#181818;stroke-width:0.6;"/><polygon fill="#181818" points="243.6,264.12,246,258.72,243.6,261.12,241.2,258.72,243.6,264.12" style="stroke:#181818;stroke-width:0.6;"/><text fill="#000000" font-family="sans-serif" font-size="7.8" lengthAdjust="spacing" textLength="4.2" x="238.8881" y="257.7265">1</text></g><!--link Course to CourseDescription--><g id="link_Course_CourseDescription"><path codeLine="27" d="M220.068,218.808 C204.234,232.008 183.498,249.282 168.066,262.146 " fill="none" id="Course-to-CourseDescription" style="stroke:#181818;stroke-width:0.6;"/><polygon fill="#181818" points="165.636,264.174,171.3214,262.5628,167.9414,262.2543,168.2499,258.8742,165.636,264.174" style="stroke:#181818;stroke-width:0.6;"/><text fill="#000000" font-family="sans-serif" font-size="7.8" lengthAdjust="spacing" textLength="4.2" x="165.6129" y="257.7936">1</text></g><!--link Course to CourseCode--><g id="link_Course_CourseCode"><path codeLine="28" d="M220.14,206.448 C189.792,216.132 135.564,234.462 91.2,255 C86.178,257.328 80.964,260.016 75.954,262.752 " fill="none" id="Course-to-CourseCode" style="stroke:#181818;stroke-width:0.6;"/><polygon fill="#181818" points="73.188,264.276,79.0753,263.7662,75.8141,262.8256,76.7547,259.5645,73.188,264.276" style="stroke:#181818;stroke-width:0.6;"/><text fill="#000000" font-family="sans-serif" font-size="7.8" lengthAdjust="spacing" textLength="4.2" x="74.9082" y="257.9205">1</text></g><!--link TeamElement to course--><g id="link_TeamElement_course"><path codeLine="37" d="M324.072,64.974 C319.158,75.276 313.2,87.768 308.37,97.896 " fill="none" id="TeamElement-to-course" style="stroke:#181818;stroke-width:0.6;"/><polygon fill="#181818" points="307.038,100.686,311.5218,96.8369,308.3245,97.9758,307.1855,94.7785,307.038,100.686" style="stroke:#181818;stroke-width:0.6;"/><text fill="#000000" font-family="sans-serif" font-size="7.8" lengthAdjust="spacing" textLength="4.2" x="304.1879" y="94.3086">1</text></g><!--link TeamElement to teacher--><g id="link_TeamElement_teacher"><path codeLine="38" d="M342.96,64.974 C347.79,75.276 353.64,87.768 358.386,97.896 " fill="none" id="TeamElement-to-teacher" style="stroke:#181818;stroke-width:0.6;"/><polygon fill="#181818" points="359.694,100.686,359.569,94.778,358.4178,97.971,355.2249,96.8199,359.694,100.686" style="stroke:#181818;stroke-width:0.6;"/><text fill="#000000" font-family="sans-serif" font-size="7.8" lengthAdjust="spacing" textLength="4.2" x="353.1525" y="94.3086">1</text></g><!--link teacher to Teacher--><g id="link_teacher_Teacher"><path codeLine="39" d="M387.234,133.914 C402.426,146.058 423.462,162.876 440.172,176.232 " fill="none" id="teacher-to-Teacher" style="stroke:#181818;stroke-width:0.6;"/><polygon fill="#181818" points="442.602,178.176,439.8799,172.931,440.2577,176.304,436.8847,176.6818,442.602,178.176" style="stroke:#181818;stroke-width:0.6;"/><text fill="#000000" font-family="sans-serif" font-size="7.8" lengthAdjust="spacing" textLength="4.2" x="386.9571" y="145.5595">1</text></g><!--link course to Course--><g id="link_course_Course"><path codeLine="40" d="M288.24,133.914 C279.954,145.818 268.536,162.204 259.32,175.434 " fill="none" id="course-to-Course" style="stroke:#181818;stroke-width:0.6;"/><polygon fill="#181818" points="257.508,178.032,262.5644,174.9738,259.2232,175.5707,258.6263,172.2295,257.508,178.032" style="stroke:#181818;stroke-width:0.6;"/><text fill="#000000" font-family="sans-serif" font-size="7.8" lengthAdjust="spacing" textLength="4.2" x="281.1394" y="145.5595">1</text></g><!--SRC=[XPB1ZeCW48RlFWNntiFU2KdNUjlK9lK5M3hRabKnYBjhchxxee0TMcCv8T_lFpC_j5nyypEGb59-rgG4BYwW6KklIKBi4XNlkd1CAJH6ce4nIhLIXh7h3QcsGgjcg2dzKG-av7y7Fe3Uz_NdQFCas743nTUxrEOoKzU0Bqqs9_NRR1X9tz9GAEQU8QT57hUIs39j746cUjt1bC2zFtVuOdudojG9Y1lYYUsW4rgsHgfc8GIdAQMf8ABGzBM7HsF7yt1YTXM7V1_ssKTnpAUFculF_JPFZrmYZC95NQnBq33hmZ6HXQ3jpTHv1RNDz25jHCYBp8KhYYF1sFZRlpyg_oPcVzokCrkLUCD94yp7yp7W4Z7VLq0kYCIcy0y0]--></g></svg>