<?xml version="1.0" encoding="us-ascii" standalone="no"?><svg xmlns="http://www.w3.org/2000/svg" xmlns:xlink="http://www.w3.org/1999/xlink" contentStyleType="text/css" height="668px" preserveAspectRatio="none" style="width:404px;height:668px;background:#282828;" version="1.1" viewBox="0 0 404 668" width="404px" zoomAndPan="magnify"><defs/><g><rect fill="#282828" height="668" style="stroke:none;stroke-width:0.5;" width="404" x="0" y="0"/><!--cluster <<agr Teacher>>--><g id="cluster_&lt;&lt;agr Teacher&gt;&gt;"><path d="M233.25,425.5 L292.25,425.5 A1.875,1.875 0 0 1 293.5,426.75 L297,437.0073 L399.25,437.0073 A1.25,1.25 0 0 1 400.5,438.2573 L400.5,663.25 A1.25,1.25 0 0 1 399.25,664.5 L233.25,664.5 A1.25,1.25 0 0 1 232,663.25 L232,426.75 A1.25,1.25 0 0 1 233.25,425.5 " fill="#282828" style="stroke:#33FF33;stroke-width:0.5;"/><line style="stroke:#33FF33;stroke-width:0.5;" x1="232" x2="297" y1="437.0073" y2="437.0073"/><text fill="#33FF33" font-family="Verdana" font-size="7" font-weight="bold" lengthAdjust="spacing" textLength="58.5" x="234" y="433.5376">&#171;agr Teacher&#187;</text></g><!--cluster <<agr Course>>--><g id="cluster_&lt;&lt;agr Course&gt;&gt;"><path d="M110.25,71.5 L165.75,71.5 A1.875,1.875 0 0 1 167,72.75 L170.5,83.0073 L294.25,83.0073 A1.25,1.25 0 0 1 295.5,84.2573 L295.5,412.25 A1.25,1.25 0 0 1 294.25,413.5 L110.25,413.5 A1.25,1.25 0 0 1 109,412.25 L109,72.75 A1.25,1.25 0 0 1 110.25,71.5 " fill="#282828" style="stroke:#33FF33;stroke-width:0.5;"/><line style="stroke:#33FF33;stroke-width:0.5;" x1="109" x2="170.5" y1="83.0073" y2="83.0073"/><text fill="#33FF33" font-family="Verdana" font-size="7" font-weight="bold" lengthAdjust="spacing" textLength="55" x="111" y="79.5376">&#171;agr Course&#187;</text></g><!--cluster <<agr TeamElement>>--><g id="cluster_&lt;&lt;agr TeamElement&gt;&gt;"><path d="M6.75,5.5 L86.75,5.5 A1.875,1.875 0 0 1 88,6.75 L91.5,17.0073 L174.75,17.0073 A1.25,1.25 0 0 1 176,18.2573 L176,58.25 A1.25,1.25 0 0 1 174.75,59.5 L6.75,59.5 A1.25,1.25 0 0 1 5.5,58.25 L5.5,6.75 A1.25,1.25 0 0 1 6.75,5.5 " fill="#282828" style="stroke:#33FF33;stroke-width:0.5;"/><line style="stroke:#33FF33;stroke-width:0.5;" x1="5.5" x2="91.5" y1="17.0073" y2="17.0073"/><text fill="#33FF33" font-family="Verdana" font-size="7" font-weight="bold" lengthAdjust="spacing" textLength="79.5" x="7.5" y="13.5376">&#171;agr TeamElement&#187;</text></g><!--class Teacher--><g id="elem_Teacher"><rect codeLine="11" fill="#282828" height="28.0913" id="Teacher" rx="1.25" ry="1.25" style="stroke:#33FF33;stroke-width:0.5;" width="41.5" x="240" y="480.5"/><ellipse cx="246.5" cy="494.5457" fill="#282828" rx="4.5" ry="4.5" style="stroke:#33FF33;stroke-width:0.5;"/><path d="M247.8828,492.4832 Q247.9609,492.3738 248.0547,492.3191 Q248.1484,492.2644 248.2578,492.2644 Q248.4453,492.2644 248.5625,492.3972 Q248.6797,492.5222 248.6797,492.8269 L248.6797,493.5535 Q248.6797,493.8582 248.5625,493.991 Q248.4453,494.1238 248.2578,494.1238 Q248.0859,494.1238 247.9844,494.0222 Q247.8828,493.9285 247.8281,493.6707 Q247.8047,493.491 247.7109,493.3972 Q247.5469,493.2097 247.2422,493.1003 Q246.9375,492.991 246.625,492.991 Q246.2422,492.991 245.9219,493.155 Q245.6094,493.3191 245.3594,493.6941 Q245.1172,494.0691 245.1172,494.5847 L245.1172,495.1316 Q245.1172,495.7488 245.5625,496.1628 Q246.0078,496.5691 246.8047,496.5691 Q247.2734,496.5691 247.6016,496.4441 Q247.7969,496.366 248.0078,496.1472 Q248.1406,496.0144 248.2109,495.9753 Q248.2891,495.9363 248.3906,495.9363 Q248.5547,495.9363 248.6797,496.0691 Q248.8125,496.1941 248.8125,496.366 Q248.8125,496.5378 248.6406,496.741 Q248.3906,497.03 247.9922,497.1941 Q247.4531,497.4207 246.8047,497.4207 Q246.0469,497.4207 245.4453,497.1082 Q244.9531,496.8582 244.6094,496.3269 Q244.2656,495.7878 244.2656,495.1472 L244.2656,494.5691 Q244.2656,493.905 244.5703,493.3347 Q244.8828,492.7566 245.4297,492.4519 Q245.9766,492.1394 246.5938,492.1394 Q246.9609,492.1394 247.2813,492.2253 Q247.6094,492.3035 247.8828,492.4832 Z " fill="#33FF33"/><text fill="#33FF33" font-family="Verdana" font-size="6" font-style="italic" lengthAdjust="spacing" textLength="25.5" x="253.5" y="489.0322">&#171;entity&#187;</text><text fill="#33FF33" font-family="Verdana" font-size="6" font-style="italic" lengthAdjust="spacing" textLength="20" x="256.25" y="496.3242">&#171;root&#187;</text><text fill="#33FF33" font-family="Verdana" font-size="7" lengthAdjust="spacing" textLength="27.5" x="252.5" y="504.6216">Teacher</text></g><!--class Acronym--><g id="elem_Acronym"><rect codeLine="12" fill="#282828" height="20.7993" id="Acronym" rx="1.25" ry="1.25" style="stroke:#33FF33;stroke-width:0.5;" width="45" x="333.25" y="635.5"/><ellipse cx="339.75" cy="645.8997" fill="#282828" rx="4.5" ry="4.5" style="stroke:#33FF33;stroke-width:0.5;"/><path d="M341.1328,643.8372 Q341.2109,643.7278 341.3047,643.6731 Q341.3984,643.6184 341.5078,643.6184 Q341.6953,643.6184 341.8125,643.7512 Q341.9297,643.8762 341.9297,644.1809 L341.9297,644.9075 Q341.9297,645.2122 341.8125,645.345 Q341.6953,645.4778 341.5078,645.4778 Q341.3359,645.4778 341.2344,645.3762 Q341.1328,645.2825 341.0781,645.0247 Q341.0547,644.845 340.9609,644.7512 Q340.7969,644.5637 340.4922,644.4543 Q340.1875,644.345 339.875,644.345 Q339.4922,644.345 339.1719,644.509 Q338.8594,644.6731 338.6094,645.0481 Q338.3672,645.4231 338.3672,645.9387 L338.3672,646.4856 Q338.3672,647.1028 338.8125,647.5168 Q339.2578,647.9231 340.0547,647.9231 Q340.5234,647.9231 340.8516,647.7981 Q341.0469,647.72 341.2578,647.5012 Q341.3906,647.3684 341.4609,647.3293 Q341.5391,647.2903 341.6406,647.2903 Q341.8047,647.2903 341.9297,647.4231 Q342.0625,647.5481 342.0625,647.72 Q342.0625,647.8918 341.8906,648.095 Q341.6406,648.384 341.2422,648.5481 Q340.7031,648.7747 340.0547,648.7747 Q339.2969,648.7747 338.6953,648.4622 Q338.2031,648.2122 337.8594,647.6809 Q337.5156,647.1418 337.5156,646.5012 L337.5156,645.9231 Q337.5156,645.259 337.8203,644.6887 Q338.1328,644.1106 338.6797,643.8059 Q339.2266,643.4934 339.8438,643.4934 Q340.2109,643.4934 340.5313,643.5793 Q340.8594,643.6575 341.1328,643.8372 Z " fill="#33FF33"/><text fill="#33FF33" font-family="Verdana" font-size="6" font-style="italic" lengthAdjust="spacing" textLength="15" x="353.75" y="644.0322">&#171;vo&#187;</text><text fill="#33FF33" font-family="Verdana" font-size="7" lengthAdjust="spacing" textLength="31" x="345.75" y="652.3296">Acronym</text></g><!--class TaxPayerNumber--><g id="elem_TaxPayerNumber"><rect codeLine="13" fill="#282828" height="20.7993" id="TaxPayerNumber" rx="1.25" ry="1.25" style="stroke:#33FF33;stroke-width:0.5;" width="73.5" x="319" y="539.5"/><ellipse cx="325.5" cy="549.8997" fill="#282828" rx="4.5" ry="4.5" style="stroke:#33FF33;stroke-width:0.5;"/><path d="M326.8828,547.8372 Q326.9609,547.7278 327.0547,547.6731 Q327.1484,547.6184 327.2578,547.6184 Q327.4453,547.6184 327.5625,547.7512 Q327.6797,547.8762 327.6797,548.1809 L327.6797,548.9075 Q327.6797,549.2122 327.5625,549.345 Q327.4453,549.4778 327.2578,549.4778 Q327.0859,549.4778 326.9844,549.3762 Q326.8828,549.2825 326.8281,549.0247 Q326.8047,548.845 326.7109,548.7512 Q326.5469,548.5637 326.2422,548.4543 Q325.9375,548.345 325.625,548.345 Q325.2422,548.345 324.9219,548.509 Q324.6094,548.6731 324.3594,549.0481 Q324.1172,549.4231 324.1172,549.9387 L324.1172,550.4856 Q324.1172,551.1028 324.5625,551.5168 Q325.0078,551.9231 325.8047,551.9231 Q326.2734,551.9231 326.6016,551.7981 Q326.7969,551.72 327.0078,551.5012 Q327.1406,551.3684 327.2109,551.3293 Q327.2891,551.2903 327.3906,551.2903 Q327.5547,551.2903 327.6797,551.4231 Q327.8125,551.5481 327.8125,551.72 Q327.8125,551.8918 327.6406,552.095 Q327.3906,552.384 326.9922,552.5481 Q326.4531,552.7747 325.8047,552.7747 Q325.0469,552.7747 324.4453,552.4622 Q323.9531,552.2122 323.6094,551.6809 Q323.2656,551.1418 323.2656,550.5012 L323.2656,549.9231 Q323.2656,549.259 323.5703,548.6887 Q323.8828,548.1106 324.4297,547.8059 Q324.9766,547.4934 325.5938,547.4934 Q325.9609,547.4934 326.2813,547.5793 Q326.6094,547.6575 326.8828,547.8372 Z " fill="#33FF33"/><text fill="#33FF33" font-family="Verdana" font-size="6" font-style="italic" lengthAdjust="spacing" textLength="15" x="353.75" y="548.0322">&#171;vo&#187;</text><text fill="#33FF33" font-family="Verdana" font-size="7" lengthAdjust="spacing" textLength="59.5" x="331.5" y="556.3296">TaxPayerNumber</text></g><!--class DateOfBirth--><g id="elem_DateOfBirth"><rect codeLine="14" fill="#282828" height="20.7993" id="DateOfBirth" rx="1.25" ry="1.25" style="stroke:#33FF33;stroke-width:0.5;" width="55.5" x="328" y="443.5"/><ellipse cx="334.5" cy="453.8997" fill="#282828" rx="4.5" ry="4.5" style="stroke:#33FF33;stroke-width:0.5;"/><path d="M335.8828,451.8372 Q335.9609,451.7278 336.0547,451.6731 Q336.1484,451.6184 336.2578,451.6184 Q336.4453,451.6184 336.5625,451.7512 Q336.6797,451.8762 336.6797,452.1809 L336.6797,452.9075 Q336.6797,453.2122 336.5625,453.345 Q336.4453,453.4778 336.2578,453.4778 Q336.0859,453.4778 335.9844,453.3762 Q335.8828,453.2825 335.8281,453.0247 Q335.8047,452.845 335.7109,452.7512 Q335.5469,452.5637 335.2422,452.4543 Q334.9375,452.345 334.625,452.345 Q334.2422,452.345 333.9219,452.509 Q333.6094,452.6731 333.3594,453.0481 Q333.1172,453.4231 333.1172,453.9387 L333.1172,454.4856 Q333.1172,455.1028 333.5625,455.5168 Q334.0078,455.9231 334.8047,455.9231 Q335.2734,455.9231 335.6016,455.7981 Q335.7969,455.72 336.0078,455.5012 Q336.1406,455.3684 336.2109,455.3293 Q336.2891,455.2903 336.3906,455.2903 Q336.5547,455.2903 336.6797,455.4231 Q336.8125,455.5481 336.8125,455.72 Q336.8125,455.8918 336.6406,456.095 Q336.3906,456.384 335.9922,456.5481 Q335.4531,456.7747 334.8047,456.7747 Q334.0469,456.7747 333.4453,456.4622 Q332.9531,456.2122 332.6094,455.6809 Q332.2656,455.1418 332.2656,454.5012 L332.2656,453.9231 Q332.2656,453.259 332.5703,452.6887 Q332.8828,452.1106 333.4297,451.8059 Q333.9766,451.4934 334.5938,451.4934 Q334.9609,451.4934 335.2813,451.5793 Q335.6094,451.6575 335.8828,451.8372 Z " fill="#33FF33"/><text fill="#33FF33" font-family="Verdana" font-size="6" font-style="italic" lengthAdjust="spacing" textLength="15" x="353.75" y="452.0322">&#171;vo&#187;</text><text fill="#33FF33" font-family="Verdana" font-size="7" lengthAdjust="spacing" textLength="41.5" x="340.5" y="460.3296">DateOfBirth</text></g><!--class Course--><g id="elem_Course"><rect codeLine="22" fill="#282828" height="28.0913" id="Course" rx="1.25" ry="1.25" style="stroke:#33FF33;stroke-width:0.5;" width="39" x="117" y="237.5"/><ellipse cx="123.5" cy="251.5457" fill="#282828" rx="4.5" ry="4.5" style="stroke:#33FF33;stroke-width:0.5;"/><path d="M124.8828,249.4832 Q124.9609,249.3738 125.0547,249.3191 Q125.1484,249.2644 125.2578,249.2644 Q125.4453,249.2644 125.5625,249.3972 Q125.6797,249.5222 125.6797,249.8269 L125.6797,250.5535 Q125.6797,250.8582 125.5625,250.991 Q125.4453,251.1238 125.2578,251.1238 Q125.0859,251.1238 124.9844,251.0222 Q124.8828,250.9285 124.8281,250.6707 Q124.8047,250.491 124.7109,250.3972 Q124.5469,250.2097 124.2422,250.1003 Q123.9375,249.991 123.625,249.991 Q123.2422,249.991 122.9219,250.155 Q122.6094,250.3191 122.3594,250.6941 Q122.1172,251.0691 122.1172,251.5847 L122.1172,252.1316 Q122.1172,252.7488 122.5625,253.1628 Q123.0078,253.5691 123.8047,253.5691 Q124.2734,253.5691 124.6016,253.4441 Q124.7969,253.366 125.0078,253.1472 Q125.1406,253.0144 125.2109,252.9753 Q125.2891,252.9363 125.3906,252.9363 Q125.5547,252.9363 125.6797,253.0691 Q125.8125,253.1941 125.8125,253.366 Q125.8125,253.5378 125.6406,253.741 Q125.3906,254.03 124.9922,254.1941 Q124.4531,254.4207 123.8047,254.4207 Q123.0469,254.4207 122.4453,254.1082 Q121.9531,253.8582 121.6094,253.3269 Q121.2656,252.7878 121.2656,252.1472 L121.2656,251.5691 Q121.2656,250.905 121.5703,250.3347 Q121.8828,249.7566 122.4297,249.4519 Q122.9766,249.1394 123.5938,249.1394 Q123.9609,249.1394 124.2813,249.2253 Q124.6094,249.3035 124.8828,249.4832 Z " fill="#33FF33"/><text fill="#33FF33" font-family="Verdana" font-size="6" font-style="italic" lengthAdjust="spacing" textLength="25.5" x="129.25" y="246.0322">&#171;entity&#187;</text><text fill="#33FF33" font-family="Verdana" font-size="6" font-style="italic" lengthAdjust="spacing" textLength="20" x="132" y="253.3242">&#171;root&#187;</text><text fill="#33FF33" font-family="Verdana" font-size="7" lengthAdjust="spacing" textLength="25" x="129.5" y="261.6216">Course</text></g><!--class Code--><g id="elem_Code"><rect codeLine="23" fill="#282828" height="20.7993" id="Code" rx="1.25" ry="1.25" style="stroke:#33FF33;stroke-width:0.5;" width="32" x="244.75" y="384.5"/><ellipse cx="251.25" cy="394.8997" fill="#282828" rx="4.5" ry="4.5" style="stroke:#33FF33;stroke-width:0.5;"/><path d="M252.6328,392.8372 Q252.7109,392.7278 252.8047,392.6731 Q252.8984,392.6184 253.0078,392.6184 Q253.1953,392.6184 253.3125,392.7512 Q253.4297,392.8762 253.4297,393.1809 L253.4297,393.9075 Q253.4297,394.2122 253.3125,394.345 Q253.1953,394.4778 253.0078,394.4778 Q252.8359,394.4778 252.7344,394.3762 Q252.6328,394.2825 252.5781,394.0247 Q252.5547,393.845 252.4609,393.7512 Q252.2969,393.5637 251.9922,393.4543 Q251.6875,393.345 251.375,393.345 Q250.9922,393.345 250.6719,393.509 Q250.3594,393.6731 250.1094,394.0481 Q249.8672,394.4231 249.8672,394.9387 L249.8672,395.4856 Q249.8672,396.1028 250.3125,396.5168 Q250.7578,396.9231 251.5547,396.9231 Q252.0234,396.9231 252.3516,396.7981 Q252.5469,396.72 252.7578,396.5012 Q252.8906,396.3684 252.9609,396.3293 Q253.0391,396.2903 253.1406,396.2903 Q253.3047,396.2903 253.4297,396.4231 Q253.5625,396.5481 253.5625,396.72 Q253.5625,396.8918 253.3906,397.095 Q253.1406,397.384 252.7422,397.5481 Q252.2031,397.7747 251.5547,397.7747 Q250.7969,397.7747 250.1953,397.4622 Q249.7031,397.2122 249.3594,396.6809 Q249.0156,396.1418 249.0156,395.5012 L249.0156,394.9231 Q249.0156,394.259 249.3203,393.6887 Q249.6328,393.1106 250.1797,392.8059 Q250.7266,392.4934 251.3438,392.4934 Q251.7109,392.4934 252.0313,392.5793 Q252.3594,392.6575 252.6328,392.8372 Z " fill="#33FF33"/><text fill="#33FF33" font-family="Verdana" font-size="6" font-style="italic" lengthAdjust="spacing" textLength="15" x="258.75" y="393.0322">&#171;vo&#187;</text><text fill="#33FF33" font-family="Verdana" font-size="7" lengthAdjust="spacing" textLength="18" x="257.25" y="401.3296">Code</text></g><!--class Description--><g id="elem_Description"><rect codeLine="24" fill="#282828" height="20.7993" id="Description" rx="1.25" ry="1.25" style="stroke:#33FF33;stroke-width:0.5;" width="53.5" x="234" y="288.5"/><ellipse cx="240.5" cy="298.8997" fill="#282828" rx="4.5" ry="4.5" style="stroke:#33FF33;stroke-width:0.5;"/><path d="M241.8828,296.8372 Q241.9609,296.7278 242.0547,296.6731 Q242.1484,296.6184 242.2578,296.6184 Q242.4453,296.6184 242.5625,296.7512 Q242.6797,296.8762 242.6797,297.1809 L242.6797,297.9075 Q242.6797,298.2122 242.5625,298.345 Q242.4453,298.4778 242.2578,298.4778 Q242.0859,298.4778 241.9844,298.3762 Q241.8828,298.2825 241.8281,298.0247 Q241.8047,297.845 241.7109,297.7512 Q241.5469,297.5637 241.2422,297.4543 Q240.9375,297.345 240.625,297.345 Q240.2422,297.345 239.9219,297.509 Q239.6094,297.6731 239.3594,298.0481 Q239.1172,298.4231 239.1172,298.9387 L239.1172,299.4856 Q239.1172,300.1028 239.5625,300.5168 Q240.0078,300.9231 240.8047,300.9231 Q241.2734,300.9231 241.6016,300.7981 Q241.7969,300.72 242.0078,300.5012 Q242.1406,300.3684 242.2109,300.3293 Q242.2891,300.2903 242.3906,300.2903 Q242.5547,300.2903 242.6797,300.4231 Q242.8125,300.5481 242.8125,300.72 Q242.8125,300.8918 242.6406,301.095 Q242.3906,301.384 241.9922,301.5481 Q241.4531,301.7747 240.8047,301.7747 Q240.0469,301.7747 239.4453,301.4622 Q238.9531,301.2122 238.6094,300.6809 Q238.2656,300.1418 238.2656,299.5012 L238.2656,298.9231 Q238.2656,298.259 238.5703,297.6887 Q238.8828,297.1106 239.4297,296.8059 Q239.9766,296.4934 240.5938,296.4934 Q240.9609,296.4934 241.2813,296.5793 Q241.6094,296.6575 241.8828,296.8372 Z " fill="#33FF33"/><text fill="#33FF33" font-family="Verdana" font-size="6" font-style="italic" lengthAdjust="spacing" textLength="15" x="258.75" y="297.0322">&#171;vo&#187;</text><text fill="#33FF33" font-family="Verdana" font-size="7" lengthAdjust="spacing" textLength="39.5" x="246.5" y="305.3296">Description</text></g><!--class Title--><g id="elem_Title"><rect codeLine="25" fill="#282828" height="20.7993" id="Title" rx="1.25" ry="1.25" style="stroke:#33FF33;stroke-width:0.5;" width="28.5" x="246.5" y="192.5"/><ellipse cx="253" cy="202.8997" fill="#282828" rx="4.5" ry="4.5" style="stroke:#33FF33;stroke-width:0.5;"/><path d="M254.3828,200.8372 Q254.4609,200.7278 254.5547,200.6731 Q254.6484,200.6184 254.7578,200.6184 Q254.9453,200.6184 255.0625,200.7512 Q255.1797,200.8762 255.1797,201.1809 L255.1797,201.9075 Q255.1797,202.2122 255.0625,202.345 Q254.9453,202.4778 254.7578,202.4778 Q254.5859,202.4778 254.4844,202.3762 Q254.3828,202.2825 254.3281,202.0247 Q254.3047,201.845 254.2109,201.7512 Q254.0469,201.5637 253.7422,201.4543 Q253.4375,201.345 253.125,201.345 Q252.7422,201.345 252.4219,201.509 Q252.1094,201.6731 251.8594,202.0481 Q251.6172,202.4231 251.6172,202.9387 L251.6172,203.4856 Q251.6172,204.1028 252.0625,204.5168 Q252.5078,204.9231 253.3047,204.9231 Q253.7734,204.9231 254.1016,204.7981 Q254.2969,204.72 254.5078,204.5012 Q254.6406,204.3684 254.7109,204.3293 Q254.7891,204.2903 254.8906,204.2903 Q255.0547,204.2903 255.1797,204.4231 Q255.3125,204.5481 255.3125,204.72 Q255.3125,204.8918 255.1406,205.095 Q254.8906,205.384 254.4922,205.5481 Q253.9531,205.7747 253.3047,205.7747 Q252.5469,205.7747 251.9453,205.4622 Q251.4531,205.2122 251.1094,204.6809 Q250.7656,204.1418 250.7656,203.5012 L250.7656,202.9231 Q250.7656,202.259 251.0703,201.6887 Q251.3828,201.1106 251.9297,200.8059 Q252.4766,200.4934 253.0938,200.4934 Q253.4609,200.4934 253.7813,200.5793 Q254.1094,200.6575 254.3828,200.8372 Z " fill="#33FF33"/><text fill="#33FF33" font-family="Verdana" font-size="6" font-style="italic" lengthAdjust="spacing" textLength="15" x="258.75" y="201.0322">&#171;vo&#187;</text><text fill="#33FF33" font-family="Verdana" font-size="7" lengthAdjust="spacing" textLength="14.5" x="259" y="209.3296">Title</text></g><!--class State--><g id="elem_State"><rect codeLine="26" fill="#282828" height="28.0913" id="State" rx="1.25" ry="1.25" style="stroke:#33FF33;stroke-width:0.5;" width="37.5" x="242" y="89.5"/><ellipse cx="248.5" cy="103.5457" fill="#282828" rx="4.5" ry="4.5" style="stroke:#33FF33;stroke-width:0.5;"/><path d="M249.8828,101.4832 Q249.9609,101.3738 250.0547,101.3191 Q250.1484,101.2644 250.2578,101.2644 Q250.4453,101.2644 250.5625,101.3972 Q250.6797,101.5222 250.6797,101.8269 L250.6797,102.5535 Q250.6797,102.8582 250.5625,102.991 Q250.4453,103.1238 250.2578,103.1238 Q250.0859,103.1238 249.9844,103.0222 Q249.8828,102.9285 249.8281,102.6707 Q249.8047,102.491 249.7109,102.3972 Q249.5469,102.2097 249.2422,102.1003 Q248.9375,101.991 248.625,101.991 Q248.2422,101.991 247.9219,102.155 Q247.6094,102.3191 247.3594,102.6941 Q247.1172,103.0691 247.1172,103.5847 L247.1172,104.1316 Q247.1172,104.7488 247.5625,105.1628 Q248.0078,105.5691 248.8047,105.5691 Q249.2734,105.5691 249.6016,105.4441 Q249.7969,105.366 250.0078,105.1472 Q250.1406,105.0144 250.2109,104.9753 Q250.2891,104.9363 250.3906,104.9363 Q250.5547,104.9363 250.6797,105.0691 Q250.8125,105.1941 250.8125,105.366 Q250.8125,105.5378 250.6406,105.741 Q250.3906,106.03 249.9922,106.1941 Q249.4531,106.4207 248.8047,106.4207 Q248.0469,106.4207 247.4453,106.1082 Q246.9531,105.8582 246.6094,105.3269 Q246.2656,104.7878 246.2656,104.1472 L246.2656,103.5691 Q246.2656,102.905 246.5703,102.3347 Q246.8828,101.7566 247.4297,101.4519 Q247.9766,101.1394 248.5938,101.1394 Q248.9609,101.1394 249.2813,101.2253 Q249.6094,101.3035 249.8828,101.4832 Z " fill="#33FF33"/><text fill="#33FF33" font-family="Verdana" font-size="6" font-style="italic" lengthAdjust="spacing" textLength="15" x="258.75" y="98.0322">&#171;vo&#187;</text><text fill="#33FF33" font-family="Verdana" font-size="6" font-style="italic" lengthAdjust="spacing" textLength="25.5" x="253.5" y="105.3242">&#171;enum&#187;</text><text fill="#33FF33" font-family="Verdana" font-size="7" lengthAdjust="spacing" textLength="19" x="256.75" y="113.6216">State</text></g><!--class TeamElement--><g id="elem_TeamElement"><rect codeLine="37" fill="#282828" height="28.0913" id="TeamElement" rx="1.25" ry="1.25" style="stroke:#33FF33;stroke-width:0.5;" width="61" x="13.5" y="23.5"/><ellipse cx="20" cy="37.5457" fill="#282828" rx="4.5" ry="4.5" style="stroke:#33FF33;stroke-width:0.5;"/><path d="M21.3828,35.4832 Q21.4609,35.3738 21.5547,35.3191 Q21.6484,35.2644 21.7578,35.2644 Q21.9453,35.2644 22.0625,35.3972 Q22.1797,35.5222 22.1797,35.8269 L22.1797,36.5535 Q22.1797,36.8582 22.0625,36.991 Q21.9453,37.1238 21.7578,37.1238 Q21.5859,37.1238 21.4844,37.0222 Q21.3828,36.9285 21.3281,36.6707 Q21.3047,36.491 21.2109,36.3972 Q21.0469,36.2097 20.7422,36.1003 Q20.4375,35.991 20.125,35.991 Q19.7422,35.991 19.4219,36.155 Q19.1094,36.3191 18.8594,36.6941 Q18.6172,37.0691 18.6172,37.5847 L18.6172,38.1316 Q18.6172,38.7488 19.0625,39.1628 Q19.5078,39.5691 20.3047,39.5691 Q20.7734,39.5691 21.1016,39.4441 Q21.2969,39.366 21.5078,39.1472 Q21.6406,39.0144 21.7109,38.9753 Q21.7891,38.9363 21.8906,38.9363 Q22.0547,38.9363 22.1797,39.0691 Q22.3125,39.1941 22.3125,39.366 Q22.3125,39.5378 22.1406,39.741 Q21.8906,40.03 21.4922,40.1941 Q20.9531,40.4207 20.3047,40.4207 Q19.5469,40.4207 18.9453,40.1082 Q18.4531,39.8582 18.1094,39.3269 Q17.7656,38.7878 17.7656,38.1472 L17.7656,37.5691 Q17.7656,36.905 18.0703,36.3347 Q18.3828,35.7566 18.9297,35.4519 Q19.4766,35.1394 20.0938,35.1394 Q20.4609,35.1394 20.7813,35.2253 Q21.1094,35.3035 21.3828,35.4832 Z " fill="#33FF33"/><text fill="#33FF33" font-family="Verdana" font-size="6" font-style="italic" lengthAdjust="spacing" textLength="25.5" x="36.75" y="32.0322">&#171;entity&#187;</text><text fill="#33FF33" font-family="Verdana" font-size="6" font-style="italic" lengthAdjust="spacing" textLength="20" x="39.5" y="39.3242">&#171;root&#187;</text><text fill="#33FF33" font-family="Verdana" font-size="7" lengthAdjust="spacing" textLength="47" x="26" y="47.6216">TeamElement</text></g><!--class AdhesionDate--><g id="elem_AdhesionDate"><rect codeLine="38" fill="#282828" height="20.7993" id="AdhesionDate" rx="1.25" ry="1.25" style="stroke:#33FF33;stroke-width:0.5;" width="63" x="105" y="27"/><ellipse cx="111.5" cy="37.3997" fill="#282828" rx="4.5" ry="4.5" style="stroke:#33FF33;stroke-width:0.5;"/><path d="M112.8828,35.3372 Q112.9609,35.2278 113.0547,35.1731 Q113.1484,35.1184 113.2578,35.1184 Q113.4453,35.1184 113.5625,35.2512 Q113.6797,35.3762 113.6797,35.6809 L113.6797,36.4075 Q113.6797,36.7122 113.5625,36.845 Q113.4453,36.9778 113.2578,36.9778 Q113.0859,36.9778 112.9844,36.8762 Q112.8828,36.7825 112.8281,36.5247 Q112.8047,36.345 112.7109,36.2512 Q112.5469,36.0637 112.2422,35.9543 Q111.9375,35.845 111.625,35.845 Q111.2422,35.845 110.9219,36.009 Q110.6094,36.1731 110.3594,36.5481 Q110.1172,36.9231 110.1172,37.4387 L110.1172,37.9856 Q110.1172,38.6028 110.5625,39.0168 Q111.0078,39.4231 111.8047,39.4231 Q112.2734,39.4231 112.6016,39.2981 Q112.7969,39.22 113.0078,39.0012 Q113.1406,38.8684 113.2109,38.8293 Q113.2891,38.7903 113.3906,38.7903 Q113.5547,38.7903 113.6797,38.9231 Q113.8125,39.0481 113.8125,39.22 Q113.8125,39.3918 113.6406,39.595 Q113.3906,39.884 112.9922,40.0481 Q112.4531,40.2747 111.8047,40.2747 Q111.0469,40.2747 110.4453,39.9622 Q109.9531,39.7122 109.6094,39.1809 Q109.2656,38.6418 109.2656,38.0012 L109.2656,37.4231 Q109.2656,36.759 109.5703,36.1887 Q109.8828,35.6106 110.4297,35.3059 Q110.9766,34.9934 111.5938,34.9934 Q111.9609,34.9934 112.2813,35.0793 Q112.6094,35.1575 112.8828,35.3372 Z " fill="#33FF33"/><text fill="#33FF33" font-family="Verdana" font-size="6" font-style="italic" lengthAdjust="spacing" textLength="15" x="134.5" y="35.5322">&#171;vo&#187;</text><text fill="#33FF33" font-family="Verdana" font-size="7" lengthAdjust="spacing" textLength="49" x="117.5" y="43.8296">AdhesionDate</text></g><!--link Teacher to Acronym--><g id="link_Teacher_Acronym"><path codeLine="17" d="M268.32,508.585 C278.66,528.84 298.88,567.15 319,598 C327.115,610.44 337.405,623.875 344.945,633.36 " fill="none" id="Teacher-to-Acronym" style="stroke:#33FF33;stroke-width:0.5;"/><polygon fill="#33FF33" points="346.605,635.44,345.3577,630.6761,345.0441,633.4871,342.2331,633.1735,346.605,635.44" style="stroke:#33FF33;stroke-width:0.5;"/><text fill="#33FF33" font-family="Verdana" font-size="6.5" lengthAdjust="spacing" textLength="4" x="339.1918" y="630.1844">1</text></g><!--link Teacher to DateOfBirth--><g id="link_Teacher_DateOfBirth"><path codeLine="18" d="M281.645,485.71 C295.33,479.815 313.505,471.985 328.365,465.585 " fill="none" id="Teacher-to-DateOfBirth" style="stroke:#33FF33;stroke-width:0.5;"/><polygon fill="#33FF33" points="330.72,464.57,325.7958,464.5228,328.4259,465.5634,327.3853,468.1935,330.72,464.57" style="stroke:#33FF33;stroke-width:0.5;"/><text fill="#33FF33" font-family="Verdana" font-size="6.5" lengthAdjust="spacing" textLength="4" x="320.1314" y="474.6686">1</text></g><!--link Teacher to TaxPayerNumber--><g id="link_Teacher_TaxPayerNumber"><path codeLine="19" d="M281.645,506.545 C297.5,515.9 319.37,528.815 335.145,538.13 " fill="none" id="Teacher-to-TaxPayerNumber" style="stroke:#33FF33;stroke-width:0.5;"/><polygon fill="#33FF33" points="337.43,539.475,334.5746,535.4629,335.2781,538.2025,332.5386,538.9059,337.43,539.475" style="stroke:#33FF33;stroke-width:0.5;"/><text fill="#33FF33" font-family="Verdana" font-size="6.5" lengthAdjust="spacing" textLength="4" x="326.953" y="534.0554">1</text></g><!--link Course to State--><g id="link_Course_State"><path codeLine="28" d="M148.705,237.445 C171.65,209.89 222.41,148.94 246.735,119.725 " fill="none" id="Course-to-State" style="stroke:#33FF33;stroke-width:0.5;"/><polygon fill="#33FF33" points="248.44,117.68,244.0235,119.8582,246.8402,119.6011,247.0973,122.4179,248.44,117.68" style="stroke:#33FF33;stroke-width:0.5;"/><text fill="#33FF33" font-family="Verdana" font-size="6.5" lengthAdjust="spacing" textLength="4" x="241.3097" y="128.1708">1</text></g><!--link Course to Title--><g id="link_Course_Title"><path codeLine="29" d="M156.125,243.975 C180.26,234.475 221.36,218.305 244.035,209.38 " fill="none" id="Course-to-Title" style="stroke:#33FF33;stroke-width:0.5;"/><polygon fill="#33FF33" points="246.435,208.435,241.5154,208.218,244.1079,209.3487,242.9773,211.9413,246.435,208.435" style="stroke:#33FF33;stroke-width:0.5;"/><text fill="#33FF33" font-family="Verdana" font-size="6.5" lengthAdjust="spacing" textLength="4" x="238.4582" y="217.2819">1</text></g><!--link Course to Description--><g id="link_Course_Description"><path codeLine="30" d="M156.005,256.915 C172.805,261.9 197.855,269.815 219,278.5 C225.27,281.075 231.91,284.19 237.985,287.21 " fill="none" id="Course-to-Description" style="stroke:#33FF33;stroke-width:0.5;"/><polygon fill="#33FF33" points="240.375,288.405,237.2494,284.5997,238.1404,287.2841,235.4559,288.1751,240.375,288.405" style="stroke:#33FF33;stroke-width:0.5;"/><text fill="#33FF33" font-family="Verdana" font-size="6.5" lengthAdjust="spacing" textLength="4" x="229.5227" y="283.1387">1</text></g><!--link Course to Code--><g id="link_Course_Code"><path codeLine="31" d="M152.885,265.625 C161.895,273.525 173.445,283.47 184,292 C199.175,304.265 207.755,302.555 219,318.5 C226.655,329.355 222.235,335.03 228,347 C234.155,359.785 243.34,373.08 250.335,382.425 " fill="none" id="Course-to-Code" style="stroke:#33FF33;stroke-width:0.5;"/><polygon fill="#33FF33" points="251.885,384.48,250.7741,379.6825,250.3804,382.4834,247.5795,382.0898,251.885,384.48" style="stroke:#33FF33;stroke-width:0.5;"/><text fill="#33FF33" font-family="Verdana" font-size="6.5" lengthAdjust="spacing" textLength="4" x="244.4218" y="379.062">1</text></g><!--link Course to Teacher--><g id="link_Course_Teacher"><path codeLine="32" d="M143.965,265.535 C153.105,283.925 169.67,317.17 184,345.5 C208.43,393.8 237.675,450.69 251.795,478.105 " fill="none" id="Course-to-Teacher" style="stroke:#33FF33;stroke-width:0.5;"/><polygon fill="#33FF33" points="252.95,480.345,252.6698,475.4285,251.8063,478.1219,249.1129,477.2585,252.95,480.345" style="stroke:#33FF33;stroke-width:0.5;"/><text fill="#33FF33" font-family="Verdana" font-size="6.5" lengthAdjust="spacing" textLength="34" x="184.5" y="344.0349">is ruled by</text><text fill="#33FF33" font-family="Verdana" font-size="6.5" lengthAdjust="spacing" textLength="4.5" x="246.0003" y="475.0531">*</text></g><!--link TeamElement to AdhesionDate--><g id="link_TeamElement_AdhesionDate"><path codeLine="39" d="M74.585,37.5 C83.49,37.5 93.295,37.5 102.405,37.5 " fill="none" id="TeamElement-to-AdhesionDate" style="stroke:#33FF33;stroke-width:0.5;"/><polygon fill="#33FF33" points="104.955,37.5,100.455,35.5,102.455,37.5,100.455,39.5,104.955,37.5" style="stroke:#33FF33;stroke-width:0.5;"/><text fill="#33FF33" font-family="Verdana" font-size="6.5" lengthAdjust="spacing" textLength="4" x="97.0764" y="44.5032">1</text></g><!--link TeamElement to Course--><g id="link_TeamElement_Course"><path codeLine="40" d="M50.505,51.54 C66.76,89.56 111.57,194.37 128.97,235.055 " fill="none" id="TeamElement-to-Course" style="stroke:#33FF33;stroke-width:0.5;"/><polygon fill="#33FF33" points="129.975,237.405,130.0536,232.4812,128.9962,235.1046,126.3729,234.0472,129.975,237.405" style="stroke:#33FF33;stroke-width:0.5;"/><text fill="#33FF33" font-family="Verdana" font-size="6.5" lengthAdjust="spacing" textLength="4" x="123.897" y="232.1278">1</text></g><!--link TeamElement to Teacher--><g id="link_TeamElement_Teacher"><path codeLine="41" d="M44.9,51.645 C46.93,114.415 57.95,367.365 105,428 C137.805,470.275 202.735,486.07 237.315,491.655 " fill="none" id="TeamElement-to-Teacher" style="stroke:#33FF33;stroke-width:0.5;"/><polygon fill="#33FF33" points="239.955,492.075,235.8248,489.3934,237.486,491.6825,235.1968,493.3438,239.955,492.075" style="stroke:#33FF33;stroke-width:0.5;"/><text fill="#33FF33" font-family="Verdana" font-size="6.5" lengthAdjust="spacing" textLength="4" x="232.0371" y="498.8641">1</text></g><!--SRC=[XLBBJiCm4BpxAvOSaIhH0nTaHOB25P3e3xZ9Dh4Qsz5w0qHL_ntdLPmgLNtS6NaUktTSea78Y5S58LhX3zhMYfG1wtBqMCFwyK6KEaT0KtCB1iqEoOiAzmpiW7HHCkIQC6Fjh0YlLjb15GY9bAeWsABAIgGqJOv2G7XPfRoVnbAYPSrjcaf9pd6Q7ayHwpaZPriZvRUxGBRgzrErIEzDPsY1yAeOF_OlchWyem7k6QCuh7BtOrSf9EjaafhZ8nRzjOZFpOZJPGSRrv37le9_WyFmHW6Ri0OO_CVPq6UawwxnfMeqLxWm_-8GOvXtgesPEe7H2vm3zTGv4bNL2rn58tDNELsi6EnrxvDpiK-WFL1JOGwxDjpKQU6gp5iLZjVoHQqH0hUkAo_H1vlTUc5MMFp9r4dClaeQybo5ntmXZ_W3]--></g></svg>