<?xml version="1.0" encoding="us-ascii" standalone="no"?><svg xmlns="http://www.w3.org/2000/svg" xmlns:xlink="http://www.w3.org/1999/xlink" contentStyleType="text/css" height="767.2px" preserveAspectRatio="none" style="width:1924px;height:767px;background:#FFFFFF;" version="1.1" viewBox="0 0 1924 767" width="1925px" zoomAndPan="magnify"><defs/><g><rect fill="#FFFFFF" height="625.2586" style="stroke:#181818;stroke-width:0.6999999999999998;" width="7" x="31.15" y="64.5969"/><rect fill="#FFFFFF" height="19.9664" style="stroke:#181818;stroke-width:0.6999999999999998;" width="7" x="292.25" y="178.7953"/><rect fill="#FFFFFF" height="108.932" style="stroke:#181818;stroke-width:0.6999999999999998;" width="7" x="292.25" y="318.5602"/><rect fill="#FFFFFF" height="242.3969" style="stroke:#181818;stroke-width:0.6999999999999998;" width="7" x="292.25" y="447.4586"/><rect fill="#FFFFFF" height="208.0641" style="stroke:#181818;stroke-width:0.6999999999999998;" width="7" x="516.95" y="467.425"/><rect fill="#FFFFFF" height="88.9656" style="stroke:#181818;stroke-width:0.6999999999999998;" width="7" x="665.35" y="338.5266"/><rect fill="#FFFFFF" height="39.9328" style="stroke:#181818;stroke-width:0.6999999999999998;" width="7" x="898.45" y="258.6609"/><rect fill="#FFFFFF" height="39.9328" style="stroke:#181818;stroke-width:0.6999999999999998;" width="7" x="1003.1" y="118.8961"/><rect fill="#FFFFFF" height="86.8656" style="stroke:#181818;stroke-width:0.6999999999999998;" width="7" x="1107.4" y="588.6234"/><rect fill="#FFFFFF" height="19.9664" style="stroke:#181818;stroke-width:0.6999999999999998;" width="7" x="1349.95" y="625.0562"/><rect fill="#FFFFFF" height="19.9664" style="stroke:#181818;stroke-width:0.6999999999999998;" width="7" x="1652.7" y="487.3914"/><rect fill="#FFFFFF" height="19.9664" style="stroke:#181818;stroke-width:0.6999999999999998;" width="7" x="1746.15" y="543.7906"/><rect fill="none" height="51.4992" style="stroke:#000000;stroke-width:1.0499999999999998;" width="1342.6" x="458.5" y="517.8578"/><rect fill="none" height="71.4656" style="stroke:#000000;stroke-width:1.0499999999999998;" width="866.6" x="1054.2" y="599.1234"/><line style="stroke:#181818;stroke-width:0.3499999999999999;stroke-dasharray:5.0,5.0;" x1="34.3" x2="34.3" y1="57.5969" y2="702.4555"/><line style="stroke:#181818;stroke-width:0.3499999999999999;stroke-dasharray:5.0,5.0;" x1="295.4" x2="295.4" y1="57.5969" y2="702.4555"/><line style="stroke:#181818;stroke-width:0.3499999999999999;stroke-dasharray:5.0,5.0;" x1="520.1" x2="520.1" y1="57.5969" y2="702.4555"/><line style="stroke:#181818;stroke-width:0.3499999999999999;stroke-dasharray:5.0,5.0;" x1="668.5" x2="668.5" y1="57.5969" y2="702.4555"/><line style="stroke:#181818;stroke-width:0.3499999999999999;stroke-dasharray:5.0,5.0;" x1="901.6" x2="901.6" y1="57.5969" y2="702.4555"/><line style="stroke:#181818;stroke-width:0.3499999999999999;stroke-dasharray:5.0,5.0;" x1="1006.6" x2="1006.6" y1="57.5969" y2="702.4555"/><line style="stroke:#181818;stroke-width:0.3499999999999999;stroke-dasharray:5.0,5.0;" x1="1110.9" x2="1110.9" y1="57.5969" y2="702.4555"/><line style="stroke:#181818;stroke-width:0.3499999999999999;stroke-dasharray:5.0,5.0;" x1="1230.6" x2="1230.6" y1="57.5969" y2="702.4555"/><line style="stroke:#181818;stroke-width:0.3499999999999999;stroke-dasharray:5.0,5.0;" x1="1353.1" x2="1353.1" y1="57.5969" y2="702.4555"/><line style="stroke:#181818;stroke-width:0.3499999999999999;stroke-dasharray:5.0,5.0;" x1="1571.5" x2="1571.5" y1="57.5969" y2="702.4555"/><line style="stroke:#181818;stroke-width:0.3499999999999999;stroke-dasharray:5.0,5.0;" x1="1656.2" x2="1656.2" y1="57.5969" y2="702.4555"/><line style="stroke:#181818;stroke-width:0.3499999999999999;stroke-dasharray:5.0,5.0;" x1="1749.3" x2="1749.3" y1="57.5969" y2="702.4555"/><line style="stroke:#181818;stroke-width:0.3499999999999999;stroke-dasharray:5.0,5.0;" x1="1857.1" x2="1857.1" y1="57.5969" y2="702.4555"/><text fill="#000000" font-family="sans-serif" font-size="9.8" lengthAdjust="spacing" textLength="58.1" x="3.5" y="55.5201">Administrator</text><ellipse cx="34.65" cy="10.5984" fill="#E2E2F0" rx="5.6" ry="5.6" style="stroke:#181818;stroke-width:0.3499999999999999;"/><path d="M34.65,16.1984 L34.65,35.0984 M25.55,21.7984 L43.75,21.7984 M34.65,35.0984 L25.55,45.5984 M34.65,35.0984 L43.75,45.5984 " fill="none" style="stroke:#181818;stroke-width:0.3499999999999999;"/><text fill="#000000" font-family="sans-serif" font-size="9.8" lengthAdjust="spacing" textLength="58.1" x="3.5" y="710.6271">Administrator</text><ellipse cx="34.65" cy="718.6539" fill="#E2E2F0" rx="5.6" ry="5.6" style="stroke:#181818;stroke-width:0.3499999999999999;"/><path d="M34.65,724.2539 L34.65,743.1539 M25.55,729.8539 L43.75,729.8539 M34.65,743.1539 L25.55,753.6539 M34.65,743.1539 L43.75,753.6539 " fill="none" style="stroke:#181818;stroke-width:0.3499999999999999;"/><rect fill="#E2E2F0" height="31.6969" rx="1.75" ry="1.75" style="stroke:#181818;stroke-width:0.3499999999999999;" width="76.3" x="257.6" y="25.2"/><text fill="#000000" font-family="sans-serif" font-size="9.8" font-style="italic" lengthAdjust="spacing" textLength="66.5" x="262.5" y="38.9717">&#171;presentation&#187;</text><text fill="#000000" font-family="sans-serif" font-size="9.8" lengthAdjust="spacing" textLength="65.1" x="263.2" y="49.9201">SetTeachersUI</text><rect fill="#E2E2F0" height="31.6969" rx="1.75" ry="1.75" style="stroke:#181818;stroke-width:0.3499999999999999;" width="76.3" x="257.6" y="701.7555"/><text fill="#000000" font-family="sans-serif" font-size="9.8" font-style="italic" lengthAdjust="spacing" textLength="66.5" x="262.5" y="715.5271">&#171;presentation&#187;</text><text fill="#000000" font-family="sans-serif" font-size="9.8" lengthAdjust="spacing" textLength="65.1" x="263.2" y="726.4756">SetTeachersUI</text><rect fill="#E2E2F0" height="31.6969" rx="1.75" ry="1.75" style="stroke:#181818;stroke-width:0.3499999999999999;" width="109.9" x="465.5" y="25.2"/><text fill="#000000" font-family="sans-serif" font-size="9.8" font-style="italic" lengthAdjust="spacing" textLength="58.8" x="491.05" y="38.9717">&#171;application&#187;</text><text fill="#000000" font-family="sans-serif" font-size="9.8" lengthAdjust="spacing" textLength="100.1" x="470.4" y="49.9201">SetTeachersController</text><rect fill="#E2E2F0" height="31.6969" rx="1.75" ry="1.75" style="stroke:#181818;stroke-width:0.3499999999999999;" width="109.9" x="465.5" y="701.7555"/><text fill="#000000" font-family="sans-serif" font-size="9.8" font-style="italic" lengthAdjust="spacing" textLength="58.8" x="491.05" y="715.5271">&#171;application&#187;</text><text fill="#000000" font-family="sans-serif" font-size="9.8" lengthAdjust="spacing" textLength="100.1" x="470.4" y="726.4756">SetTeachersController</text><rect fill="#E2E2F0" height="31.6969" rx="1.75" ry="1.75" style="stroke:#181818;stroke-width:0.3499999999999999;" width="172.9" x="582.4" y="25.2"/><text fill="#000000" font-family="sans-serif" font-size="9.8" font-style="italic" lengthAdjust="spacing" textLength="42" x="647.85" y="38.9717">&#171;service&#187;</text><text fill="#000000" font-family="sans-serif" font-size="9.8" lengthAdjust="spacing" textLength="163.1" x="587.3" y="49.9201">ValidTeachersToAddToTeamService</text><rect fill="#E2E2F0" height="31.6969" rx="1.75" ry="1.75" style="stroke:#181818;stroke-width:0.3499999999999999;" width="172.9" x="582.4" y="701.7555"/><text fill="#000000" font-family="sans-serif" font-size="9.8" font-style="italic" lengthAdjust="spacing" textLength="42" x="647.85" y="715.5271">&#171;service&#187;</text><text fill="#000000" font-family="sans-serif" font-size="9.8" lengthAdjust="spacing" textLength="163.1" x="587.3" y="726.4756">ValidTeachersToAddToTeamService</text><rect fill="#E2E2F0" height="31.6969" rx="1.75" ry="1.75" style="stroke:#181818;stroke-width:0.3499999999999999;" width="100.1" x="851.9" y="25.2"/><text fill="#000000" font-family="sans-serif" font-size="9.8" font-style="italic" lengthAdjust="spacing" textLength="42" x="880.95" y="38.9717">&#171;service&#187;</text><text fill="#000000" font-family="sans-serif" font-size="9.8" lengthAdjust="spacing" textLength="90.3" x="856.8" y="49.9201">ListTeachersService</text><rect fill="#E2E2F0" height="31.6969" rx="1.75" ry="1.75" style="stroke:#181818;stroke-width:0.3499999999999999;" width="100.1" x="851.9" y="701.7555"/><text fill="#000000" font-family="sans-serif" font-size="9.8" font-style="italic" lengthAdjust="spacing" textLength="42" x="880.95" y="715.5271">&#171;service&#187;</text><text fill="#000000" font-family="sans-serif" font-size="9.8" lengthAdjust="spacing" textLength="90.3" x="856.8" y="726.4756">ListTeachersService</text><rect fill="#E2E2F0" height="31.6969" rx="1.75" ry="1.75" style="stroke:#181818;stroke-width:0.3499999999999999;" width="95.2" x="959" y="25.2"/><text fill="#000000" font-family="sans-serif" font-size="9.8" font-style="italic" lengthAdjust="spacing" textLength="42" x="985.6" y="38.9717">&#171;service&#187;</text><text fill="#000000" font-family="sans-serif" font-size="9.8" lengthAdjust="spacing" textLength="85.4" x="963.9" y="49.9201">ListCoursesService</text><rect fill="#E2E2F0" height="31.6969" rx="1.75" ry="1.75" style="stroke:#181818;stroke-width:0.3499999999999999;" width="95.2" x="959" y="701.7555"/><text fill="#000000" font-family="sans-serif" font-size="9.8" font-style="italic" lengthAdjust="spacing" textLength="42" x="985.6" y="715.5271">&#171;service&#187;</text><text fill="#000000" font-family="sans-serif" font-size="9.8" lengthAdjust="spacing" textLength="85.4" x="963.9" y="726.4756">ListCoursesService</text><rect fill="#E2E2F0" height="31.6969" rx="1.75" ry="1.75" style="stroke:#181818;stroke-width:0.3499999999999999;" width="99.4" x="1061.2" y="25.2"/><text fill="#000000" font-family="sans-serif" font-size="9.8" font-style="italic" lengthAdjust="spacing" textLength="42" x="1089.9" y="38.9717">&#171;service&#187;</text><text fill="#000000" font-family="sans-serif" font-size="9.8" lengthAdjust="spacing" textLength="89.6" x="1066.1" y="49.9201">SetTeachersService</text><rect fill="#E2E2F0" height="31.6969" rx="1.75" ry="1.75" style="stroke:#181818;stroke-width:0.3499999999999999;" width="99.4" x="1061.2" y="701.7555"/><text fill="#000000" font-family="sans-serif" font-size="9.8" font-style="italic" lengthAdjust="spacing" textLength="42" x="1089.9" y="715.5271">&#171;service&#187;</text><text fill="#000000" font-family="sans-serif" font-size="9.8" lengthAdjust="spacing" textLength="89.6" x="1066.1" y="726.4756">SetTeachersService</text><rect fill="#E2E2F0" height="31.6969" rx="1.75" ry="1.75" style="stroke:#181818;stroke-width:0.3499999999999999;" width="126.7" x="1167.6" y="25.2"/><text fill="#000000" font-family="sans-serif" font-size="9.8" font-style="italic" lengthAdjust="spacing" textLength="42" x="1209.95" y="38.9717">&#171;service&#187;</text><text fill="#000000" font-family="sans-serif" font-size="9.8" lengthAdjust="spacing" textLength="116.9" x="1172.5" y="49.9201">FindCourseRegentService</text><rect fill="#E2E2F0" height="31.6969" rx="1.75" ry="1.75" style="stroke:#181818;stroke-width:0.3499999999999999;" width="126.7" x="1167.6" y="701.7555"/><text fill="#000000" font-family="sans-serif" font-size="9.8" font-style="italic" lengthAdjust="spacing" textLength="42" x="1209.95" y="715.5271">&#171;service&#187;</text><text fill="#000000" font-family="sans-serif" font-size="9.8" lengthAdjust="spacing" textLength="116.9" x="1172.5" y="726.4756">FindCourseRegentService</text><rect fill="#E2E2F0" height="31.6969" rx="1.75" ry="1.75" style="stroke:#181818;stroke-width:0.3499999999999999;" width="104.3" x="1301.3" y="25.2"/><text fill="#000000" font-family="sans-serif" font-size="9.8" font-style="italic" lengthAdjust="spacing" textLength="42" x="1332.45" y="38.9717">&#171;service&#187;</text><text fill="#000000" font-family="sans-serif" font-size="9.8" lengthAdjust="spacing" textLength="94.5" x="1306.2" y="49.9201">TeamElementFactory</text><rect fill="#E2E2F0" height="31.6969" rx="1.75" ry="1.75" style="stroke:#181818;stroke-width:0.3499999999999999;" width="104.3" x="1301.3" y="701.7555"/><text fill="#000000" font-family="sans-serif" font-size="9.8" font-style="italic" lengthAdjust="spacing" textLength="42" x="1332.45" y="715.5271">&#171;service&#187;</text><text fill="#000000" font-family="sans-serif" font-size="9.8" lengthAdjust="spacing" textLength="94.5" x="1306.2" y="726.4756">TeamElementFactory</text><rect fill="#E2E2F0" height="31.6969" rx="1.75" ry="1.75" style="stroke:#181818;stroke-width:0.3499999999999999;" width="70.7" x="1536.5" y="25.2"/><text fill="#000000" font-family="sans-serif" font-size="9.8" font-style="italic" lengthAdjust="spacing" textLength="43.4" x="1550.15" y="38.9717">&#171;domain&#187;</text><text fill="#000000" font-family="sans-serif" font-size="9.8" lengthAdjust="spacing" textLength="60.9" x="1541.4" y="49.9201">TeamElement</text><rect fill="#E2E2F0" height="31.6969" rx="1.75" ry="1.75" style="stroke:#181818;stroke-width:0.3499999999999999;" width="70.7" x="1536.5" y="701.7555"/><text fill="#000000" font-family="sans-serif" font-size="9.8" font-style="italic" lengthAdjust="spacing" textLength="43.4" x="1550.15" y="715.5271">&#171;domain&#187;</text><text fill="#000000" font-family="sans-serif" font-size="9.8" lengthAdjust="spacing" textLength="60.9" x="1541.4" y="726.4756">TeamElement</text><text fill="#000000" font-family="sans-serif" font-size="9.8" font-style="italic" lengthAdjust="spacing" textLength="62.3" x="1622.95" y="44.5717">&#171;persistence&#187;</text><text fill="#000000" font-family="sans-serif" font-size="9.8" lengthAdjust="spacing" textLength="79.8" x="1614.2" y="55.5201">CourseRepository</text><path d="M1643.6,10.5 C1643.6,3.5 1656.2,3.5 1656.2,3.5 C1656.2,3.5 1668.8,3.5 1668.8,10.5 L1668.8,28.7 C1668.8,35.7 1656.2,35.7 1656.2,35.7 C1656.2,35.7 1643.6,35.7 1643.6,28.7 L1643.6,10.5 " fill="#E2E2F0" style="stroke:#181818;stroke-width:1.0499999999999998;"/><path d="M1643.6,10.5 C1643.6,17.5 1656.2,17.5 1656.2,17.5 C1656.2,17.5 1668.8,17.5 1668.8,10.5 " fill="none" style="stroke:#181818;stroke-width:1.0499999999999998;"/><text fill="#000000" font-family="sans-serif" font-size="9.8" font-style="italic" lengthAdjust="spacing" textLength="62.3" x="1622.95" y="710.6271">&#171;persistence&#187;</text><text fill="#000000" font-family="sans-serif" font-size="9.8" lengthAdjust="spacing" textLength="79.8" x="1614.2" y="721.5756">CourseRepository</text><path d="M1643.6,730.6523 C1643.6,723.6523 1656.2,723.6523 1656.2,723.6523 C1656.2,723.6523 1668.8,723.6523 1668.8,730.6523 L1668.8,748.8523 C1668.8,755.8523 1656.2,755.8523 1656.2,755.8523 C1656.2,755.8523 1643.6,755.8523 1643.6,748.8523 L1643.6,730.6523 " fill="#E2E2F0" style="stroke:#181818;stroke-width:1.0499999999999998;"/><path d="M1643.6,730.6523 C1643.6,737.6523 1656.2,737.6523 1656.2,737.6523 C1656.2,737.6523 1668.8,737.6523 1668.8,730.6523 " fill="none" style="stroke:#181818;stroke-width:1.0499999999999998;"/><text fill="#000000" font-family="sans-serif" font-size="9.8" font-style="italic" lengthAdjust="spacing" textLength="62.3" x="1716.4" y="44.5717">&#171;persistence&#187;</text><text fill="#000000" font-family="sans-serif" font-size="9.8" lengthAdjust="spacing" textLength="84.7" x="1705.2" y="55.5201">TeacherRepository</text><path d="M1737.05,10.5 C1737.05,3.5 1749.65,3.5 1749.65,3.5 C1749.65,3.5 1762.25,3.5 1762.25,10.5 L1762.25,28.7 C1762.25,35.7 1749.65,35.7 1749.65,35.7 C1749.65,35.7 1737.05,35.7 1737.05,28.7 L1737.05,10.5 " fill="#E2E2F0" style="stroke:#181818;stroke-width:1.0499999999999998;"/><path d="M1737.05,10.5 C1737.05,17.5 1749.65,17.5 1749.65,17.5 C1749.65,17.5 1762.25,17.5 1762.25,10.5 " fill="none" style="stroke:#181818;stroke-width:1.0499999999999998;"/><text fill="#000000" font-family="sans-serif" font-size="9.8" font-style="italic" lengthAdjust="spacing" textLength="62.3" x="1716.4" y="710.6271">&#171;persistence&#187;</text><text fill="#000000" font-family="sans-serif" font-size="9.8" lengthAdjust="spacing" textLength="84.7" x="1705.2" y="721.5756">TeacherRepository</text><path d="M1737.05,730.6523 C1737.05,723.6523 1749.65,723.6523 1749.65,723.6523 C1749.65,723.6523 1762.25,723.6523 1762.25,730.6523 L1762.25,748.8523 C1762.25,755.8523 1749.65,755.8523 1749.65,755.8523 C1749.65,755.8523 1737.05,755.8523 1737.05,748.8523 L1737.05,730.6523 " fill="#E2E2F0" style="stroke:#181818;stroke-width:1.0499999999999998;"/><path d="M1737.05,730.6523 C1737.05,737.6523 1749.65,737.6523 1749.65,737.6523 C1749.65,737.6523 1762.25,737.6523 1762.25,730.6523 " fill="none" style="stroke:#181818;stroke-width:1.0499999999999998;"/><text fill="#000000" font-family="sans-serif" font-size="9.8" font-style="italic" lengthAdjust="spacing" textLength="62.3" x="1824.2" y="44.5717">&#171;persistence&#187;</text><text fill="#000000" font-family="sans-serif" font-size="9.8" lengthAdjust="spacing" textLength="108.5" x="1801.1" y="55.5201">TeamElementRepository</text><path d="M1844.85,10.5 C1844.85,3.5 1857.45,3.5 1857.45,3.5 C1857.45,3.5 1870.05,3.5 1870.05,10.5 L1870.05,28.7 C1870.05,35.7 1857.45,35.7 1857.45,35.7 C1857.45,35.7 1844.85,35.7 1844.85,28.7 L1844.85,10.5 " fill="#E2E2F0" style="stroke:#181818;stroke-width:1.0499999999999998;"/><path d="M1844.85,10.5 C1844.85,17.5 1857.45,17.5 1857.45,17.5 C1857.45,17.5 1870.05,17.5 1870.05,10.5 " fill="none" style="stroke:#181818;stroke-width:1.0499999999999998;"/><text fill="#000000" font-family="sans-serif" font-size="9.8" font-style="italic" lengthAdjust="spacing" textLength="62.3" x="1824.2" y="710.6271">&#171;persistence&#187;</text><text fill="#000000" font-family="sans-serif" font-size="9.8" lengthAdjust="spacing" textLength="108.5" x="1801.1" y="721.5756">TeamElementRepository</text><path d="M1844.85,730.6523 C1844.85,723.6523 1857.45,723.6523 1857.45,723.6523 C1857.45,723.6523 1870.05,723.6523 1870.05,730.6523 L1870.05,748.8523 C1870.05,755.8523 1857.45,755.8523 1857.45,755.8523 C1857.45,755.8523 1844.85,755.8523 1844.85,748.8523 L1844.85,730.6523 " fill="#E2E2F0" style="stroke:#181818;stroke-width:1.0499999999999998;"/><path d="M1844.85,730.6523 C1844.85,737.6523 1857.45,737.6523 1857.45,737.6523 C1857.45,737.6523 1870.05,737.6523 1870.05,730.6523 " fill="none" style="stroke:#181818;stroke-width:1.0499999999999998;"/><rect fill="#FFFFFF" height="625.2586" style="stroke:#181818;stroke-width:0.6999999999999998;" width="7" x="31.15" y="64.5969"/><rect fill="#FFFFFF" height="19.9664" style="stroke:#181818;stroke-width:0.6999999999999998;" width="7" x="292.25" y="178.7953"/><rect fill="#FFFFFF" height="108.932" style="stroke:#181818;stroke-width:0.6999999999999998;" width="7" x="292.25" y="318.5602"/><rect fill="#FFFFFF" height="242.3969" style="stroke:#181818;stroke-width:0.6999999999999998;" width="7" x="292.25" y="447.4586"/><rect fill="#FFFFFF" height="208.0641" style="stroke:#181818;stroke-width:0.6999999999999998;" width="7" x="516.95" y="467.425"/><rect fill="#FFFFFF" height="88.9656" style="stroke:#181818;stroke-width:0.6999999999999998;" width="7" x="665.35" y="338.5266"/><rect fill="#FFFFFF" height="39.9328" style="stroke:#181818;stroke-width:0.6999999999999998;" width="7" x="898.45" y="258.6609"/><rect fill="#FFFFFF" height="39.9328" style="stroke:#181818;stroke-width:0.6999999999999998;" width="7" x="1003.1" y="118.8961"/><rect fill="#FFFFFF" height="86.8656" style="stroke:#181818;stroke-width:0.6999999999999998;" width="7" x="1107.4" y="588.6234"/><rect fill="#FFFFFF" height="19.9664" style="stroke:#181818;stroke-width:0.6999999999999998;" width="7" x="1349.95" y="625.0562"/><rect fill="#FFFFFF" height="19.9664" style="stroke:#181818;stroke-width:0.6999999999999998;" width="7" x="1652.7" y="487.3914"/><rect fill="#FFFFFF" height="19.9664" style="stroke:#181818;stroke-width:0.6999999999999998;" width="7" x="1746.15" y="543.7906"/><polygon fill="#181818" points="287.35,76.1633,294.35,78.9633,287.35,81.7633,290.15,78.9633" style="stroke:#181818;stroke-width:0.6999999999999998;"/><line style="stroke:#181818;stroke-width:0.6999999999999998;" x1="38.15" x2="291.55" y1="78.9633" y2="78.9633"/><text fill="#000000" font-family="sans-serif" font-size="9.1" font-weight="bold" lengthAdjust="spacing" textLength="4.9" x="43.05" y="75.6349">1</text><text fill="#000000" font-family="sans-serif" font-size="9.1" lengthAdjust="spacing" textLength="146.3" x="50.75" y="75.6349">asks to set the teachers of a course</text><polygon fill="#181818" points="512.05,96.1297,519.05,98.9297,512.05,101.7297,514.85,98.9297" style="stroke:#181818;stroke-width:0.6999999999999998;"/><line style="stroke:#181818;stroke-width:0.6999999999999998;" x1="295.75" x2="516.25" y1="98.9297" y2="98.9297"/><text fill="#000000" font-family="sans-serif" font-size="9.1" font-weight="bold" lengthAdjust="spacing" textLength="4.9" x="300.65" y="95.6013">2</text><text fill="#000000" font-family="sans-serif" font-size="9.1" lengthAdjust="spacing" textLength="51.1" x="308.35" y="95.6013">listCourses()</text><polygon fill="#181818" points="994.7,116.0961,1001.7,118.8961,994.7,121.6961,997.5,118.8961" style="stroke:#181818;stroke-width:0.6999999999999998;"/><line style="stroke:#181818;stroke-width:0.6999999999999998;" x1="520.45" x2="998.9" y1="118.8961" y2="118.8961"/><text fill="#000000" font-family="sans-serif" font-size="9.1" font-weight="bold" lengthAdjust="spacing" textLength="4.9" x="525.35" y="115.5677">3</text><text fill="#000000" font-family="sans-serif" font-size="9.1" lengthAdjust="spacing" textLength="48.3" x="533.05" y="115.5677">allCourses()</text><polygon fill="#181818" points="1647.8,136.0625,1654.8,138.8625,1647.8,141.6625,1650.6,138.8625" style="stroke:#181818;stroke-width:0.6999999999999998;"/><line style="stroke:#181818;stroke-width:0.6999999999999998;" x1="1010.1" x2="1652" y1="138.8625" y2="138.8625"/><text fill="#000000" font-family="sans-serif" font-size="9.1" font-weight="bold" lengthAdjust="spacing" textLength="4.9" x="1015" y="135.5341">4</text><text fill="#000000" font-family="sans-serif" font-size="9.1" lengthAdjust="spacing" textLength="63.7" x="1022.7" y="135.5341">findAllCourses()</text><polygon fill="#181818" points="528.15,156.0289,521.15,158.8289,528.15,161.6289,525.35,158.8289" style="stroke:#181818;stroke-width:0.6999999999999998;"/><line style="stroke:#181818;stroke-width:0.6999999999999998;" x1="523.95" x2="1005.9" y1="158.8289" y2="158.8289"/><text fill="#000000" font-family="sans-serif" font-size="9.1" font-weight="bold" lengthAdjust="spacing" textLength="4.9" x="532.35" y="155.5005">5</text><text fill="#000000" font-family="sans-serif" font-size="9.1" lengthAdjust="spacing" textLength="72.8" x="540.05" y="155.5005">List&lt;CourseDTO&gt;</text><polygon fill="#181818" points="306.95,175.9953,299.95,178.7953,306.95,181.5953,304.15,178.7953" style="stroke:#181818;stroke-width:0.6999999999999998;"/><line style="stroke:#181818;stroke-width:0.6999999999999998;" x1="302.75" x2="519.75" y1="178.7953" y2="178.7953"/><text fill="#000000" font-family="sans-serif" font-size="9.1" font-weight="bold" lengthAdjust="spacing" textLength="4.9" x="311.15" y="175.4669">6</text><text fill="#000000" font-family="sans-serif" font-size="9.1" lengthAdjust="spacing" textLength="72.8" x="318.85" y="175.4669">List&lt;CourseDTO&gt;</text><polygon fill="#181818" points="45.85,195.9617,38.85,198.7617,45.85,201.5617,43.05,198.7617" style="stroke:#181818;stroke-width:0.6999999999999998;"/><line style="stroke:#181818;stroke-width:0.6999999999999998;stroke-dasharray:2.0,2.0;" x1="41.65" x2="295.05" y1="198.7617" y2="198.7617"/><text fill="#000000" font-family="sans-serif" font-size="9.1" font-weight="bold" lengthAdjust="spacing" textLength="4.9" x="50.05" y="195.4333">7</text><text fill="#000000" font-family="sans-serif" font-size="9.1" lengthAdjust="spacing" textLength="211.4" x="57.75" y="195.4333">shows course list and requests to select one course</text><polygon fill="#181818" points="287.35,215.9281,294.35,218.7281,287.35,221.5281,290.15,218.7281" style="stroke:#181818;stroke-width:0.6999999999999998;"/><line style="stroke:#181818;stroke-width:0.6999999999999998;" x1="38.15" x2="291.55" y1="218.7281" y2="218.7281"/><text fill="#000000" font-family="sans-serif" font-size="9.1" font-weight="bold" lengthAdjust="spacing" textLength="4.9" x="43.05" y="215.3997">8</text><text fill="#000000" font-family="sans-serif" font-size="9.1" lengthAdjust="spacing" textLength="67.2" x="50.75" y="215.3997">selects a course</text><polygon fill="#181818" points="512.05,235.8945,519.05,238.6945,512.05,241.4945,514.85,238.6945" style="stroke:#181818;stroke-width:0.6999999999999998;"/><line style="stroke:#181818;stroke-width:0.6999999999999998;" x1="295.75" x2="516.25" y1="238.6945" y2="238.6945"/><text fill="#000000" font-family="sans-serif" font-size="9.1" font-weight="bold" lengthAdjust="spacing" textLength="4.9" x="300.65" y="235.3661">9</text><text fill="#000000" font-family="sans-serif" font-size="9.1" lengthAdjust="spacing" textLength="54.6" x="308.35" y="235.3661">listTeachers()</text><polygon fill="#181818" points="890.05,255.8609,897.05,258.6609,890.05,261.4609,892.85,258.6609" style="stroke:#181818;stroke-width:0.6999999999999998;"/><line style="stroke:#181818;stroke-width:0.6999999999999998;" x1="520.45" x2="894.25" y1="258.6609" y2="258.6609"/><text fill="#000000" font-family="sans-serif" font-size="9.1" font-weight="bold" lengthAdjust="spacing" textLength="9.8" x="525.35" y="255.3325">10</text><text fill="#000000" font-family="sans-serif" font-size="9.1" lengthAdjust="spacing" textLength="51.8" x="537.95" y="255.3325">allTeachers()</text><polygon fill="#181818" points="1741.25,275.8273,1748.25,278.6273,1741.25,281.4273,1744.05,278.6273" style="stroke:#181818;stroke-width:0.6999999999999998;"/><line style="stroke:#181818;stroke-width:0.6999999999999998;" x1="905.45" x2="1745.45" y1="278.6273" y2="278.6273"/><text fill="#000000" font-family="sans-serif" font-size="9.1" font-weight="bold" lengthAdjust="spacing" textLength="9.8" x="910.35" y="275.2989">11</text><text fill="#000000" font-family="sans-serif" font-size="9.1" lengthAdjust="spacing" textLength="30.1" x="922.95" y="275.2989">findAll()</text><polygon fill="#181818" points="528.15,295.7937,521.15,298.5937,528.15,301.3937,525.35,298.5937" style="stroke:#181818;stroke-width:0.6999999999999998;"/><line style="stroke:#181818;stroke-width:0.6999999999999998;" x1="523.95" x2="901.25" y1="298.5937" y2="298.5937"/><text fill="#000000" font-family="sans-serif" font-size="9.1" font-weight="bold" lengthAdjust="spacing" textLength="9.8" x="532.35" y="295.2653">12</text><text fill="#000000" font-family="sans-serif" font-size="9.1" lengthAdjust="spacing" textLength="76.3" x="544.95" y="295.2653">List&lt;TeacherDTO&gt;</text><polygon fill="#181818" points="306.95,315.7602,299.95,318.5602,306.95,321.3602,304.15,318.5602" style="stroke:#181818;stroke-width:0.6999999999999998;"/><line style="stroke:#181818;stroke-width:0.6999999999999998;" x1="302.75" x2="519.75" y1="318.5602" y2="318.5602"/><text fill="#000000" font-family="sans-serif" font-size="9.1" font-weight="bold" lengthAdjust="spacing" textLength="9.8" x="311.15" y="315.2317">13</text><text fill="#000000" font-family="sans-serif" font-size="9.1" lengthAdjust="spacing" textLength="76.3" x="323.75" y="315.2317">List&lt;TeacherDTO&gt;</text><polygon fill="#181818" points="656.95,335.7266,663.95,338.5266,656.95,341.3266,659.75,338.5266" style="stroke:#181818;stroke-width:0.6999999999999998;"/><line style="stroke:#181818;stroke-width:0.6999999999999998;" x1="299.25" x2="661.15" y1="338.5266" y2="338.5266"/><text fill="#000000" font-family="sans-serif" font-size="9.1" font-weight="bold" lengthAdjust="spacing" textLength="9.8" x="304.15" y="335.1981">14</text><text fill="#000000" font-family="sans-serif" font-size="9.1" lengthAdjust="spacing" textLength="234.5" x="316.75" y="335.1981">validateTeachersToAddToTeam(teachers, selectedCourse)</text><polygon fill="#181818" points="1222.55,355.693,1229.55,358.493,1222.55,361.293,1225.35,358.493" style="stroke:#181818;stroke-width:0.6999999999999998;"/><line style="stroke:#181818;stroke-width:0.6999999999999998;" x1="672.35" x2="1226.75" y1="358.493" y2="358.493"/><text fill="#000000" font-family="sans-serif" font-size="9.1" font-weight="bold" lengthAdjust="spacing" textLength="9.8" x="677.25" y="355.1646">15</text><text fill="#000000" font-family="sans-serif" font-size="9.1" lengthAdjust="spacing" textLength="133" x="689.85" y="355.1646">regent = findCourseRegent(code)</text><polygon fill="#181818" points="1647.8,375.6594,1654.8,378.4594,1647.8,381.2594,1650.6,378.4594" style="stroke:#181818;stroke-width:0.6999999999999998;"/><line style="stroke:#181818;stroke-width:0.6999999999999998;" x1="1230.95" x2="1652" y1="378.4594" y2="378.4594"/><text fill="#000000" font-family="sans-serif" font-size="9.1" font-weight="bold" lengthAdjust="spacing" textLength="9.8" x="1235.85" y="375.131">16</text><text fill="#000000" font-family="sans-serif" font-size="9.1" lengthAdjust="spacing" textLength="77" x="1248.45" y="375.131">findRegentOf(code)</text><line style="stroke:#181818;stroke-width:0.6999999999999998;" x1="672.35" x2="701.75" y1="398.4258" y2="398.4258"/><line style="stroke:#181818;stroke-width:0.6999999999999998;" x1="701.75" x2="701.75" y1="398.4258" y2="407.5258"/><line style="stroke:#181818;stroke-width:0.6999999999999998;" x1="673.05" x2="701.75" y1="407.5258" y2="407.5258"/><polygon fill="#181818" points="680.05,404.7258,673.05,407.5258,680.05,410.3258,677.25,407.5258" style="stroke:#181818;stroke-width:0.6999999999999998;"/><text fill="#000000" font-family="sans-serif" font-size="9.1" font-weight="bold" lengthAdjust="spacing" textLength="9.8" x="677.25" y="395.0974">17</text><text fill="#000000" font-family="sans-serif" font-size="9.1" lengthAdjust="spacing" textLength="203.7" x="689.85" y="395.0974">teacherList.removeIf(teachersList.contains(regent))</text><polygon fill="#181818" points="45.85,424.6922,38.85,427.4922,45.85,430.2922,43.05,427.4922" style="stroke:#181818;stroke-width:0.6999999999999998;"/><line style="stroke:#181818;stroke-width:0.6999999999999998;stroke-dasharray:2.0,2.0;" x1="41.65" x2="295.05" y1="427.4922" y2="427.4922"/><text fill="#000000" font-family="sans-serif" font-size="9.1" font-weight="bold" lengthAdjust="spacing" textLength="9.8" x="50.05" y="424.1638">18</text><text fill="#000000" font-family="sans-serif" font-size="9.1" lengthAdjust="spacing" textLength="224.7" x="62.65" y="424.1638">shows teachers list and requests to select the teachers</text><polygon fill="#181818" points="283.85,444.6586,290.85,447.4586,283.85,450.2586,286.65,447.4586" style="stroke:#181818;stroke-width:0.6999999999999998;"/><line style="stroke:#181818;stroke-width:0.6999999999999998;" x1="38.15" x2="288.05" y1="447.4586" y2="447.4586"/><text fill="#000000" font-family="sans-serif" font-size="9.1" font-weight="bold" lengthAdjust="spacing" textLength="9.8" x="43.05" y="444.1302">19</text><text fill="#000000" font-family="sans-serif" font-size="9.1" lengthAdjust="spacing" textLength="82.6" x="55.65" y="444.1302">selects the teachers</text><polygon fill="#181818" points="508.55,464.625,515.55,467.425,508.55,470.225,511.35,467.425" style="stroke:#181818;stroke-width:0.6999999999999998;"/><line style="stroke:#181818;stroke-width:0.6999999999999998;" x1="299.25" x2="512.75" y1="467.425" y2="467.425"/><text fill="#000000" font-family="sans-serif" font-size="9.1" font-weight="bold" lengthAdjust="spacing" textLength="9.8" x="304.15" y="464.0966">20</text><text fill="#000000" font-family="sans-serif" font-size="9.1" lengthAdjust="spacing" textLength="191.8" x="316.75" y="464.0966">setTeachersTo(selectedCourse, listOfTeachers)</text><polygon fill="#181818" points="1644.3,484.5914,1651.3,487.3914,1644.3,490.1914,1647.1,487.3914" style="stroke:#181818;stroke-width:0.6999999999999998;"/><line style="stroke:#181818;stroke-width:0.6999999999999998;" x1="523.95" x2="1648.5" y1="487.3914" y2="487.3914"/><text fill="#000000" font-family="sans-serif" font-size="9.1" font-weight="bold" lengthAdjust="spacing" textLength="9.8" x="528.85" y="484.063">21</text><text fill="#000000" font-family="sans-serif" font-size="9.1" lengthAdjust="spacing" textLength="128.8" x="541.45" y="484.063">findCourseByCode(courseCode)</text><polygon fill="#181818" points="531.65,504.5578,524.65,507.3578,531.65,510.1578,528.85,507.3578" style="stroke:#181818;stroke-width:0.6999999999999998;"/><line style="stroke:#181818;stroke-width:0.6999999999999998;" x1="527.45" x2="1655.5" y1="507.3578" y2="507.3578"/><text fill="#000000" font-family="sans-serif" font-size="9.1" font-weight="bold" lengthAdjust="spacing" textLength="9.8" x="535.85" y="504.0294">22</text><text fill="#000000" font-family="sans-serif" font-size="9.1" lengthAdjust="spacing" textLength="41.3" x="548.45" y="504.0294">theCourse</text><path d="M458.5,517.8578 L509.6,517.8578 L509.6,522.4242 L502.6,529.4242 L458.5,529.4242 L458.5,517.8578 " fill="#EEEEEE" style="stroke:#000000;stroke-width:1.0499999999999998;"/><rect fill="none" height="51.4992" style="stroke:#000000;stroke-width:1.0499999999999998;" width="1342.6" x="458.5" y="517.8578"/><text fill="#000000" font-family="sans-serif" font-size="9.1" font-weight="bold" lengthAdjust="spacing" textLength="19.6" x="469" y="526.7958">loop</text><text fill="#000000" font-family="sans-serif" font-size="7.7" font-weight="bold" lengthAdjust="spacing" textLength="139.3" x="520.1" y="526.2284">[for each element in listOfTeachers]</text><polygon fill="#181818" points="1737.75,540.9906,1744.75,543.7906,1737.75,546.5906,1740.55,543.7906" style="stroke:#181818;stroke-width:0.6999999999999998;"/><line style="stroke:#181818;stroke-width:0.6999999999999998;" x1="523.95" x2="1741.95" y1="543.7906" y2="543.7906"/><text fill="#000000" font-family="sans-serif" font-size="9.1" font-weight="bold" lengthAdjust="spacing" textLength="9.8" x="528.85" y="540.4622">23</text><text fill="#000000" font-family="sans-serif" font-size="9.1" lengthAdjust="spacing" textLength="165.9" x="541.45" y="540.4622">findTeacherByAcronym(teacherAcronym)</text><polygon fill="#181818" points="531.65,560.957,524.65,563.757,531.65,566.557,528.85,563.757" style="stroke:#181818;stroke-width:0.6999999999999998;"/><line style="stroke:#181818;stroke-width:0.6999999999999998;" x1="527.45" x2="1748.95" y1="563.757" y2="563.757"/><text fill="#000000" font-family="sans-serif" font-size="9.1" font-weight="bold" lengthAdjust="spacing" textLength="9.8" x="535.85" y="560.4286">24</text><text fill="#000000" font-family="sans-serif" font-size="9.1" lengthAdjust="spacing" textLength="44.8" x="548.45" y="560.4286">theTeacher</text><polygon fill="#181818" points="1099,585.8234,1106,588.6234,1099,591.4234,1101.8,588.6234" style="stroke:#181818;stroke-width:0.6999999999999998;"/><line style="stroke:#181818;stroke-width:0.6999999999999998;" x1="523.95" x2="1103.2" y1="588.6234" y2="588.6234"/><text fill="#000000" font-family="sans-serif" font-size="9.1" font-weight="bold" lengthAdjust="spacing" textLength="9.8" x="528.85" y="585.295">25</text><text fill="#000000" font-family="sans-serif" font-size="9.1" lengthAdjust="spacing" textLength="151.9" x="541.45" y="585.295">setTeachers(theCourse, teachersList)</text><path d="M1054.2,599.1234 L1105.3,599.1234 L1105.3,603.6898 L1098.3,610.6898 L1054.2,610.6898 L1054.2,599.1234 " fill="#EEEEEE" style="stroke:#000000;stroke-width:1.0499999999999998;"/><rect fill="none" height="71.4656" style="stroke:#000000;stroke-width:1.0499999999999998;" width="866.6" x="1054.2" y="599.1234"/><text fill="#000000" font-family="sans-serif" font-size="9.1" font-weight="bold" lengthAdjust="spacing" textLength="19.6" x="1064.7" y="608.0614">loop</text><text fill="#000000" font-family="sans-serif" font-size="7.7" font-weight="bold" lengthAdjust="spacing" textLength="131.6" x="1115.8" y="607.494">[for each element in teachersList]</text><polygon fill="#181818" points="1341.55,622.2562,1348.55,625.0562,1341.55,627.8562,1344.35,625.0562" style="stroke:#181818;stroke-width:0.6999999999999998;"/><line style="stroke:#181818;stroke-width:0.6999999999999998;" x1="1114.4" x2="1345.75" y1="625.0562" y2="625.0562"/><text fill="#000000" font-family="sans-serif" font-size="9.1" font-weight="bold" lengthAdjust="spacing" textLength="9.8" x="1119.3" y="621.7278">26</text><text fill="#000000" font-family="sans-serif" font-size="9.1" lengthAdjust="spacing" textLength="196" x="1131.9" y="621.7278">createTeamElement(course, teacher, LocalDate)</text><polygon fill="#181818" points="1563.45,642.2227,1570.45,645.0227,1563.45,647.8227,1566.25,645.0227" style="stroke:#181818;stroke-width:0.6999999999999998;"/><line style="stroke:#181818;stroke-width:0.6999999999999998;" x1="1353.45" x2="1567.65" y1="645.0227" y2="645.0227"/><text fill="#000000" font-family="sans-serif" font-size="9.1" font-weight="bold" lengthAdjust="spacing" textLength="9.8" x="1358.35" y="641.6942">27</text><text fill="#000000" font-family="sans-serif" font-size="9.1" lengthAdjust="spacing" textLength="185.5" x="1370.95" y="641.6942">TeamElement(adhesionDate, course, teacher)</text><polygon fill="#181818" points="1849.05,662.1891,1856.05,664.9891,1849.05,667.7891,1851.85,664.9891" style="stroke:#181818;stroke-width:0.6999999999999998;"/><line style="stroke:#181818;stroke-width:0.6999999999999998;" x1="1114.4" x2="1853.25" y1="664.9891" y2="664.9891"/><text fill="#000000" font-family="sans-serif" font-size="9.1" font-weight="bold" lengthAdjust="spacing" textLength="9.8" x="1119.3" y="661.6606">28</text><text fill="#000000" font-family="sans-serif" font-size="9.1" lengthAdjust="spacing" textLength="77.7" x="1131.9" y="661.6606">save(teamElement)</text><polygon fill="#181818" points="42.35,687.0555,35.35,689.8555,42.35,692.6555,39.55,689.8555" style="stroke:#181818;stroke-width:0.6999999999999998;"/><line style="stroke:#181818;stroke-width:0.6999999999999998;stroke-dasharray:2.0,2.0;" x1="38.15" x2="295.05" y1="689.8555" y2="689.8555"/><text fill="#000000" font-family="sans-serif" font-size="9.1" font-weight="bold" lengthAdjust="spacing" textLength="9.8" x="46.55" y="686.5271">29</text><text fill="#000000" font-family="sans-serif" font-size="9.1" lengthAdjust="spacing" textLength="136.5" x="59.15" y="686.5271">presents the successful message</text><!--SRC=[ZLRBRjim4BphAtYh33Z9NN0Df4u310WGe75x3HXgPGkLH9MaNFZlktng9JbEVR15SMUuE_kWlnoDwNLnTzStl3D3szmAsTvf-3D09-2chFb1yJRB-61aDxJleF1P6AdOVTdMNQsDudR5DUFsHTPpPMfHzyZ6Ni7iWOiZAFtpoPeCDTjiUWKQEiDDBRljzYF0JdP6oQO1nwqDl0cZ6eJplczgSGdzYpTr6V5xUL-MUudBzXNKgHPWUHGStlH988tsBsSKpnXGP20mFFqpr4uEIWC52NaLH68be6k8nxeh_J4_u80AJkF25_0XrChmlO4MZHvT-iuMLN7nFmXhIfURJIbRNblvIsxuEzV0eb-zr7MaLxYo-SO8KI1RJnGHWbz2p5LCzE823XP0zy5uwnF7NL-WxflTR6qn5eZzZUcLJ8DXvWYOQPyI9Yl6COKsgYn3KmIa8YnOCsOyNsLPsa6ha7QaRfhH93dXjxDWXVPEfO9LcDnxYXWjoBcsqZRUvc7_Wih0d9YwuYASGqPNXjf7XfPUb8Bfe_ohGzWkICQx4bt4SQ1D4Ae1OPZi8Af3VB2CKtszkVvCozW963SD8FITqvAOfFFyVXRCWfXcL1DjnxtnI2T9u9lB62ZdCYuWD6OMFZwqE6EAavr7Q79X9EMnpjP18GYTlKfawO30bpOYlp_AjNqHdjXN5paT4hcG9M6DY6dXUTENQcbCJhAFHMmGgyUjWbQUuAbAqRYt0YStJWUT-xDMs1zKe4MrfPQxLc-qDnCTILiKQLgCISkBDJdXd2HqKQDw7DPxcKzJjdQElrJHWDHdP9YK4z7T4tmxxr3st3V8pcM0nDNBp26c3g7lkqNxEUD6ofvLU2LRTnY4cOtXJxrSk1JR9XXyEzyB9RjpAjMmdFbcCezTU1TevkwP3331riU90xxBYSfv2d3DQ7MjIA9ilZ-CbeAoKCJslYkOKE2RCbubGVbqq9ezIy6R1xGYqIBOrHF-tcpfTLZGQoddvH4q_ZUnw3MRCQ-e796GZYxRofgVm8eUANq_9ja8mwpWKxNDfthun-KhNWz2WDRLqB0MV_bXCS79qZ7y0m00]--></g></svg>