<?xml version="1.0" encoding="us-ascii" standalone="no"?><svg xmlns="http://www.w3.org/2000/svg" xmlns:xlink="http://www.w3.org/1999/xlink" contentStyleType="text/css" height="1570px" preserveAspectRatio="none" style="width:2380px;height:1570px;background:#FFFFFF;" version="1.1" viewBox="0 0 2380 1570" width="2380px" zoomAndPan="magnify"><defs/><g><text fill="#000000" font-family="sans-serif" font-size="14" font-weight="bold" lengthAdjust="spacing" textLength="223" x="1080" y="30.1074">Bulk Student Enrollment By CSV</text><rect fill="#FFFFFF" height="968.1484" style="stroke:#181818;stroke-width:1.0;" width="10" x="31" y="500.7344"/><rect fill="#FFFFFF" height="31.291" style="stroke:#181818;stroke-width:1.0;" width="10" x="145.5" y="156.5332"/><rect fill="#FFFFFF" height="1281.0586" style="stroke:#181818;stroke-width:1.0;" width="10" x="289" y="187.8242"/><rect fill="#FFFFFF" height="1218.4766" style="stroke:#181818;stroke-width:1.0;" width="10" x="525" y="219.1152"/><rect fill="#FFFFFF" height="1155.8945" style="stroke:#181818;stroke-width:1.0;" width="10" x="763" y="250.4063"/><rect fill="#FFFFFF" height="534.9473" style="stroke:#181818;stroke-width:1.0;" width="10" x="1204" y="281.6973"/><rect fill="#FFFFFF" height="597.5293" style="stroke:#181818;stroke-width:1.0;" width="10" x="1504" y="344.2793"/><rect fill="#FFFFFF" height="851.5664" style="stroke:#181818;stroke-width:1.0;" width="10" x="1753" y="406.8613"/><rect fill="#FFFFFF" height="534.9473" style="stroke:#181818;stroke-width:1.0;" width="10" x="1939" y="375.5703"/><rect fill="#FFFFFF" height="472.3652" style="stroke:#181818;stroke-width:1.0;" width="10" x="2070.5" y="312.9883"/><rect fill="#FFFFFF" height="820.2754" style="stroke:#181818;stroke-width:1.0;" width="10" x="2235.5" y="438.1523"/><rect fill="none" height="766.4023" style="stroke:#000000;stroke-width:1.5;" width="1755.5" x="618.5" y="609.6074"/><rect fill="none" height="688.8203" style="stroke:#000000;stroke-width:1.5;" width="1735.5" x="628.5" y="635.8984"/><rect fill="none" height="358.9102" style="stroke:#000000;stroke-width:1.5;" width="1715.5" x="638.5" y="958.8086"/><rect fill="none" height="172.4551" style="stroke:#000000;stroke-width:1.5;" width="1695.5" x="648.5" y="1138.2637"/><line style="stroke:#181818;stroke-width:0.5;stroke-dasharray:5.0,5.0;" x1="36" x2="36" y1="123.2422" y2="1486.8828"/><line style="stroke:#181818;stroke-width:0.5;stroke-dasharray:5.0,5.0;" x1="150" x2="150" y1="123.2422" y2="1486.8828"/><line style="stroke:#181818;stroke-width:0.5;stroke-dasharray:5.0,5.0;" x1="294" x2="294" y1="123.2422" y2="1486.8828"/><line style="stroke:#181818;stroke-width:0.5;stroke-dasharray:5.0,5.0;" x1="529.5" x2="529.5" y1="123.2422" y2="1486.8828"/><line style="stroke:#181818;stroke-width:0.5;stroke-dasharray:5.0,5.0;" x1="767.5" x2="767.5" y1="123.2422" y2="1486.8828"/><line style="stroke:#181818;stroke-width:0.5;stroke-dasharray:5.0,5.0;" x1="1209" x2="1209" y1="123.2422" y2="1486.8828"/><line style="stroke:#181818;stroke-width:0.5;stroke-dasharray:5.0,5.0;" x1="1509" x2="1509" y1="123.2422" y2="1486.8828"/><line style="stroke:#181818;stroke-width:0.5;stroke-dasharray:5.0,5.0;" x1="1758" x2="1758" y1="123.2422" y2="1486.8828"/><line style="stroke:#181818;stroke-width:0.5;stroke-dasharray:5.0,5.0;" x1="1944" x2="1944" y1="123.2422" y2="1486.8828"/><line style="stroke:#181818;stroke-width:0.5;stroke-dasharray:5.0,5.0;" x1="2075" x2="2075" y1="123.2422" y2="1486.8828"/><line style="stroke:#181818;stroke-width:0.5;stroke-dasharray:5.0,5.0;" x1="2240" x2="2240" y1="123.2422" y2="1486.8828"/><text fill="#000000" font-family="sans-serif" font-size="14" lengthAdjust="spacing" textLength="56" x="5" y="119.7285">Manager</text><ellipse cx="36" cy="53.1211" fill="#E2E2F0" rx="8" ry="8" style="stroke:#181818;stroke-width:0.5;"/><path d="M36,61.1211 L36,88.1211 M23,69.1211 L49,69.1211 M36,88.1211 L23,103.1211 M36,88.1211 L49,103.1211 " fill="none" style="stroke:#181818;stroke-width:0.5;"/><text fill="#000000" font-family="sans-serif" font-size="14" lengthAdjust="spacing" textLength="56" x="5" y="1500.9902">Manager</text><ellipse cx="36" cy="1513.0039" fill="#E2E2F0" rx="8" ry="8" style="stroke:#181818;stroke-width:0.5;"/><path d="M36,1521.0039 L36,1548.0039 M23,1529.0039 L49,1529.0039 M36,1548.0039 L23,1563.0039 M36,1548.0039 L49,1563.0039 " fill="none" style="stroke:#181818;stroke-width:0.5;"/><rect fill="#E2E2F0" height="32.6211" rx="2.5" ry="2.5" style="stroke:#181818;stroke-width:0.5;" width="147" x="77" y="89.6211"/><text fill="#000000" font-family="sans-serif" font-size="14" lengthAdjust="spacing" textLength="133" x="84" y="111.7285">BulkEnrollmentAction</text><rect fill="#E2E2F0" height="32.6211" rx="2.5" ry="2.5" style="stroke:#181818;stroke-width:0.5;" width="147" x="77" y="1485.8828"/><text fill="#000000" font-family="sans-serif" font-size="14" lengthAdjust="spacing" textLength="133" x="84" y="1507.9902">BulkEnrollmentAction</text><rect fill="#E2E2F0" height="32.6211" rx="2.5" ry="2.5" style="stroke:#181818;stroke-width:0.5;" width="120" x="234" y="89.6211"/><text fill="#000000" font-family="sans-serif" font-size="14" lengthAdjust="spacing" textLength="106" x="241" y="111.7285">BulkEnrollmentUI</text><rect fill="#E2E2F0" height="32.6211" rx="2.5" ry="2.5" style="stroke:#181818;stroke-width:0.5;" width="120" x="234" y="1485.8828"/><text fill="#000000" font-family="sans-serif" font-size="14" lengthAdjust="spacing" textLength="106" x="241" y="1507.9902">BulkEnrollmentUI</text><rect fill="#E2E2F0" height="32.6211" rx="2.5" ry="2.5" style="stroke:#181818;stroke-width:0.5;" width="219" x="420.5" y="89.6211"/><text fill="#000000" font-family="sans-serif" font-size="14" lengthAdjust="spacing" textLength="205" x="427.5" y="111.7285">BulkStudentEnrollmentController</text><rect fill="#E2E2F0" height="32.6211" rx="2.5" ry="2.5" style="stroke:#181818;stroke-width:0.5;" width="219" x="420.5" y="1485.8828"/><text fill="#000000" font-family="sans-serif" font-size="14" lengthAdjust="spacing" textLength="205" x="427.5" y="1507.9902">BulkStudentEnrollmentController</text><rect fill="#E2E2F0" height="32.6211" rx="2.5" ry="2.5" style="stroke:#181818;stroke-width:0.5;" width="219" x="658.5" y="89.6211"/><text fill="#000000" font-family="sans-serif" font-size="14" lengthAdjust="spacing" textLength="205" x="665.5" y="111.7285">ReadBulkStudentEnrollmentCSV</text><rect fill="#E2E2F0" height="32.6211" rx="2.5" ry="2.5" style="stroke:#181818;stroke-width:0.5;" width="219" x="658.5" y="1485.8828"/><text fill="#000000" font-family="sans-serif" font-size="14" lengthAdjust="spacing" textLength="205" x="665.5" y="1507.9902">ReadBulkStudentEnrollmentCSV</text><rect fill="#E2E2F0" height="32.6211" rx="2.5" ry="2.5" style="stroke:#181818;stroke-width:0.5;" width="334" x="1042" y="89.6211"/><text fill="#000000" font-family="sans-serif" font-size="14" lengthAdjust="spacing" textLength="320" x="1049" y="111.7285">FindStudentByMechanographicalNumberController</text><rect fill="#E2E2F0" height="32.6211" rx="2.5" ry="2.5" style="stroke:#181818;stroke-width:0.5;" width="334" x="1042" y="1485.8828"/><text fill="#000000" font-family="sans-serif" font-size="14" lengthAdjust="spacing" textLength="320" x="1049" y="1507.9902">FindStudentByMechanographicalNumberController</text><rect fill="#E2E2F0" height="32.6211" rx="2.5" ry="2.5" style="stroke:#181818;stroke-width:0.5;" width="246" x="1386" y="89.6211"/><text fill="#000000" font-family="sans-serif" font-size="14" lengthAdjust="spacing" textLength="232" x="1393" y="111.7285">FindCourseByCourseCodeController</text><rect fill="#E2E2F0" height="32.6211" rx="2.5" ry="2.5" style="stroke:#181818;stroke-width:0.5;" width="246" x="1386" y="1485.8828"/><text fill="#000000" font-family="sans-serif" font-size="14" lengthAdjust="spacing" textLength="232" x="1393" y="1507.9902">FindCourseByCourseCodeController</text><rect fill="#E2E2F0" height="32.6211" rx="2.5" ry="2.5" style="stroke:#181818;stroke-width:0.5;" width="232" x="1642" y="89.6211"/><text fill="#000000" font-family="sans-serif" font-size="14" lengthAdjust="spacing" textLength="218" x="1649" y="111.7285">CreateCourseEnrollmentController</text><rect fill="#E2E2F0" height="32.6211" rx="2.5" ry="2.5" style="stroke:#181818;stroke-width:0.5;" width="232" x="1642" y="1485.8828"/><text fill="#000000" font-family="sans-serif" font-size="14" lengthAdjust="spacing" textLength="218" x="1649" y="1507.9902">CreateCourseEnrollmentController</text><text fill="#000000" font-family="sans-serif" font-size="14" lengthAdjust="spacing" textLength="114" x="1884" y="119.7285">CourseRepository</text><path d="M1926,68.6211 C1926,58.6211 1944,58.6211 1944,58.6211 C1944,58.6211 1962,58.6211 1962,68.6211 L1962,94.6211 C1962,104.6211 1944,104.6211 1944,104.6211 C1944,104.6211 1926,104.6211 1926,94.6211 L1926,68.6211 " fill="#E2E2F0" style="stroke:#181818;stroke-width:1.5;"/><path d="M1926,68.6211 C1926,78.6211 1944,78.6211 1944,78.6211 C1944,78.6211 1962,78.6211 1962,68.6211 " fill="none" style="stroke:#181818;stroke-width:1.5;"/><text fill="#000000" font-family="sans-serif" font-size="14" lengthAdjust="spacing" textLength="114" x="1884" y="1500.9902">CourseRepository</text><path d="M1926,1514.5039 C1926,1504.5039 1944,1504.5039 1944,1504.5039 C1944,1504.5039 1962,1504.5039 1962,1514.5039 L1962,1540.5039 C1962,1550.5039 1944,1550.5039 1944,1550.5039 C1944,1550.5039 1926,1550.5039 1926,1540.5039 L1926,1514.5039 " fill="#E2E2F0" style="stroke:#181818;stroke-width:1.5;"/><path d="M1926,1514.5039 C1926,1524.5039 1944,1524.5039 1944,1524.5039 C1944,1524.5039 1962,1524.5039 1962,1514.5039 " fill="none" style="stroke:#181818;stroke-width:1.5;"/><text fill="#000000" font-family="sans-serif" font-size="14" lengthAdjust="spacing" textLength="117" x="2014" y="119.7285">StudentRepository</text><path d="M2057.5,68.6211 C2057.5,58.6211 2075.5,58.6211 2075.5,58.6211 C2075.5,58.6211 2093.5,58.6211 2093.5,68.6211 L2093.5,94.6211 C2093.5,104.6211 2075.5,104.6211 2075.5,104.6211 C2075.5,104.6211 2057.5,104.6211 2057.5,94.6211 L2057.5,68.6211 " fill="#E2E2F0" style="stroke:#181818;stroke-width:1.5;"/><path d="M2057.5,68.6211 C2057.5,78.6211 2075.5,78.6211 2075.5,78.6211 C2075.5,78.6211 2093.5,78.6211 2093.5,68.6211 " fill="none" style="stroke:#181818;stroke-width:1.5;"/><text fill="#000000" font-family="sans-serif" font-size="14" lengthAdjust="spacing" textLength="117" x="2014" y="1500.9902">StudentRepository</text><path d="M2057.5,1514.5039 C2057.5,1504.5039 2075.5,1504.5039 2075.5,1504.5039 C2075.5,1504.5039 2093.5,1504.5039 2093.5,1514.5039 L2093.5,1540.5039 C2093.5,1550.5039 2075.5,1550.5039 2075.5,1550.5039 C2075.5,1550.5039 2057.5,1550.5039 2057.5,1540.5039 L2057.5,1514.5039 " fill="#E2E2F0" style="stroke:#181818;stroke-width:1.5;"/><path d="M2057.5,1514.5039 C2057.5,1524.5039 2075.5,1524.5039 2075.5,1524.5039 C2075.5,1524.5039 2093.5,1524.5039 2093.5,1514.5039 " fill="none" style="stroke:#181818;stroke-width:1.5;"/><text fill="#000000" font-family="sans-serif" font-size="14" lengthAdjust="spacing" textLength="181" x="2147" y="119.7285">CourseEnrollmentRepository</text><path d="M2222.5,68.6211 C2222.5,58.6211 2240.5,58.6211 2240.5,58.6211 C2240.5,58.6211 2258.5,58.6211 2258.5,68.6211 L2258.5,94.6211 C2258.5,104.6211 2240.5,104.6211 2240.5,104.6211 C2240.5,104.6211 2222.5,104.6211 2222.5,94.6211 L2222.5,68.6211 " fill="#E2E2F0" style="stroke:#181818;stroke-width:1.5;"/><path d="M2222.5,68.6211 C2222.5,78.6211 2240.5,78.6211 2240.5,78.6211 C2240.5,78.6211 2258.5,78.6211 2258.5,68.6211 " fill="none" style="stroke:#181818;stroke-width:1.5;"/><text fill="#000000" font-family="sans-serif" font-size="14" lengthAdjust="spacing" textLength="181" x="2147" y="1500.9902">CourseEnrollmentRepository</text><path d="M2222.5,1514.5039 C2222.5,1504.5039 2240.5,1504.5039 2240.5,1504.5039 C2240.5,1504.5039 2258.5,1504.5039 2258.5,1514.5039 L2258.5,1540.5039 C2258.5,1550.5039 2240.5,1550.5039 2240.5,1550.5039 C2240.5,1550.5039 2222.5,1550.5039 2222.5,1540.5039 L2222.5,1514.5039 " fill="#E2E2F0" style="stroke:#181818;stroke-width:1.5;"/><path d="M2222.5,1514.5039 C2222.5,1524.5039 2240.5,1524.5039 2240.5,1524.5039 C2240.5,1524.5039 2258.5,1524.5039 2258.5,1514.5039 " fill="none" style="stroke:#181818;stroke-width:1.5;"/><rect fill="#FFFFFF" height="968.1484" style="stroke:#181818;stroke-width:1.0;" width="10" x="31" y="500.7344"/><rect fill="#FFFFFF" height="31.291" style="stroke:#181818;stroke-width:1.0;" width="10" x="145.5" y="156.5332"/><rect fill="#FFFFFF" height="1281.0586" style="stroke:#181818;stroke-width:1.0;" width="10" x="289" y="187.8242"/><rect fill="#FFFFFF" height="1218.4766" style="stroke:#181818;stroke-width:1.0;" width="10" x="525" y="219.1152"/><rect fill="#FFFFFF" height="1155.8945" style="stroke:#181818;stroke-width:1.0;" width="10" x="763" y="250.4063"/><rect fill="#FFFFFF" height="534.9473" style="stroke:#181818;stroke-width:1.0;" width="10" x="1204" y="281.6973"/><rect fill="#FFFFFF" height="597.5293" style="stroke:#181818;stroke-width:1.0;" width="10" x="1504" y="344.2793"/><rect fill="#FFFFFF" height="851.5664" style="stroke:#181818;stroke-width:1.0;" width="10" x="1753" y="406.8613"/><rect fill="#FFFFFF" height="534.9473" style="stroke:#181818;stroke-width:1.0;" width="10" x="1939" y="375.5703"/><rect fill="#FFFFFF" height="472.3652" style="stroke:#181818;stroke-width:1.0;" width="10" x="2070.5" y="312.9883"/><rect fill="#FFFFFF" height="820.2754" style="stroke:#181818;stroke-width:1.0;" width="10" x="2235.5" y="438.1523"/><polygon fill="#181818" points="133.5,152.5332,143.5,156.5332,133.5,160.5332,137.5,156.5332" style="stroke:#181818;stroke-width:1.0;"/><line style="stroke:#181818;stroke-width:1.0;" x1="36" x2="139.5" y1="156.5332" y2="156.5332"/><text fill="#000000" font-family="sans-serif" font-size="13" font-weight="bold" lengthAdjust="spacing" textLength="7" x="43" y="151.2705">1</text><text fill="#000000" font-family="sans-serif" font-size="13" lengthAdjust="spacing" textLength="41" x="54" y="151.2705">Onload</text><polygon fill="#181818" points="277,183.8242,287,187.8242,277,191.8242,281,187.8242" style="stroke:#181818;stroke-width:1.0;"/><line style="stroke:#181818;stroke-width:1.0;" x1="150.5" x2="283" y1="187.8242" y2="187.8242"/><text fill="#000000" font-family="sans-serif" font-size="13" font-weight="bold" lengthAdjust="spacing" textLength="7" x="157.5" y="182.5615">2</text><text fill="#000000" font-family="sans-serif" font-size="13" lengthAdjust="spacing" textLength="54" x="168.5" y="182.5615">execute()</text><polygon fill="#181818" points="513,215.1152,523,219.1152,513,223.1152,517,219.1152" style="stroke:#181818;stroke-width:1.0;"/><line style="stroke:#181818;stroke-width:1.0;" x1="299" x2="519" y1="219.1152" y2="219.1152"/><text fill="#000000" font-family="sans-serif" font-size="13" font-weight="bold" lengthAdjust="spacing" textLength="7" x="306" y="213.8525">3</text><text fill="#000000" font-family="sans-serif" font-size="13" lengthAdjust="spacing" textLength="196" x="317" y="213.8525">BulkStudentEnrollmentController()</text><polygon fill="#181818" points="751,246.4063,761,250.4063,751,254.4063,755,250.4063" style="stroke:#181818;stroke-width:1.0;"/><line style="stroke:#181818;stroke-width:1.0;" x1="535" x2="757" y1="250.4063" y2="250.4063"/><text fill="#000000" font-family="sans-serif" font-size="13" font-weight="bold" lengthAdjust="spacing" textLength="7" x="542" y="245.1436">4</text><text fill="#000000" font-family="sans-serif" font-size="13" lengthAdjust="spacing" textLength="198" x="553" y="245.1436">ReadBulkStudentEnrollmentCSV()</text><polygon fill="#181818" points="1192,277.6973,1202,281.6973,1192,285.6973,1196,281.6973" style="stroke:#181818;stroke-width:1.0;"/><line style="stroke:#181818;stroke-width:1.0;" x1="773" x2="1198" y1="281.6973" y2="281.6973"/><text fill="#000000" font-family="sans-serif" font-size="13" font-weight="bold" lengthAdjust="spacing" textLength="7" x="780" y="276.4346">5</text><text fill="#000000" font-family="sans-serif" font-size="13" lengthAdjust="spacing" textLength="299" x="791" y="276.4346">FindStudentByMechanographicalNumberController()</text><polygon fill="#181818" points="2058.5,308.9883,2068.5,312.9883,2058.5,316.9883,2062.5,312.9883" style="stroke:#181818;stroke-width:1.0;"/><line style="stroke:#181818;stroke-width:1.0;" x1="1214" x2="2064.5" y1="312.9883" y2="312.9883"/><text fill="#000000" font-family="sans-serif" font-size="13" font-weight="bold" lengthAdjust="spacing" textLength="7" x="1221" y="307.7256">6</text><text fill="#000000" font-family="sans-serif" font-size="13" lengthAdjust="spacing" textLength="255" x="1232" y="307.7256">PersistenceContext.repositories().students()</text><polygon fill="#181818" points="1492,340.2793,1502,344.2793,1492,348.2793,1496,344.2793" style="stroke:#181818;stroke-width:1.0;"/><line style="stroke:#181818;stroke-width:1.0;" x1="773" x2="1498" y1="344.2793" y2="344.2793"/><text fill="#000000" font-family="sans-serif" font-size="13" font-weight="bold" lengthAdjust="spacing" textLength="7" x="780" y="339.0166">7</text><text fill="#000000" font-family="sans-serif" font-size="13" lengthAdjust="spacing" textLength="216" x="791" y="339.0166">FindCourseByCourseCodeController()</text><polygon fill="#181818" points="1927,371.5703,1937,375.5703,1927,379.5703,1931,375.5703" style="stroke:#181818;stroke-width:1.0;"/><line style="stroke:#181818;stroke-width:1.0;" x1="1514" x2="1933" y1="375.5703" y2="375.5703"/><text fill="#000000" font-family="sans-serif" font-size="13" font-weight="bold" lengthAdjust="spacing" textLength="7" x="1521" y="370.3076">8</text><text fill="#000000" font-family="sans-serif" font-size="13" lengthAdjust="spacing" textLength="251" x="1532" y="370.3076">PersistenceContext.repositories().courses()</text><polygon fill="#181818" points="1741,402.8613,1751,406.8613,1741,410.8613,1745,406.8613" style="stroke:#181818;stroke-width:1.0;"/><line style="stroke:#181818;stroke-width:1.0;" x1="773" x2="1747" y1="406.8613" y2="406.8613"/><text fill="#000000" font-family="sans-serif" font-size="13" font-weight="bold" lengthAdjust="spacing" textLength="7" x="780" y="401.5986">9</text><text fill="#000000" font-family="sans-serif" font-size="13" lengthAdjust="spacing" textLength="204" x="791" y="401.5986">CreateCourseEnrollmentController()</text><polygon fill="#181818" points="2223.5,434.1523,2233.5,438.1523,2223.5,442.1523,2227.5,438.1523" style="stroke:#181818;stroke-width:1.0;"/><line style="stroke:#181818;stroke-width:1.0;" x1="1763" x2="2229.5" y1="438.1523" y2="438.1523"/><text fill="#000000" font-family="sans-serif" font-size="13" font-weight="bold" lengthAdjust="spacing" textLength="14" x="1770" y="432.8896">10</text><text fill="#000000" font-family="sans-serif" font-size="13" lengthAdjust="spacing" textLength="313" x="1788" y="432.8896">PersistenceContext.repositories().courseEnrollments()</text><polygon fill="#181818" points="2223.5,465.4434,2233.5,469.4434,2223.5,473.4434,2227.5,469.4434" style="stroke:#181818;stroke-width:1.0;"/><line style="stroke:#181818;stroke-width:1.0;" x1="773" x2="2229.5" y1="469.4434" y2="469.4434"/><text fill="#000000" font-family="sans-serif" font-size="13" font-weight="bold" lengthAdjust="spacing" textLength="14" x="780" y="464.1807">11</text><text fill="#000000" font-family="sans-serif" font-size="13" lengthAdjust="spacing" textLength="313" x="798" y="464.1807">PersistenceContext.repositories().courseEnrollments()</text><polygon fill="#181818" points="52,496.7344,42,500.7344,52,504.7344,48,500.7344" style="stroke:#181818;stroke-width:1.0;"/><line style="stroke:#181818;stroke-width:1.0;" x1="46" x2="288" y1="500.7344" y2="500.7344"/><text fill="#000000" font-family="sans-serif" font-size="13" font-weight="bold" lengthAdjust="spacing" textLength="14" x="58" y="495.4717">12</text><text fill="#000000" font-family="sans-serif" font-size="13" lengthAdjust="spacing" textLength="99" x="76" y="495.4717">asks the file path</text><polygon fill="#181818" points="277,528.0254,287,532.0254,277,536.0254,281,532.0254" style="stroke:#181818;stroke-width:1.0;"/><line style="stroke:#181818;stroke-width:1.0;" x1="41" x2="283" y1="532.0254" y2="532.0254"/><text fill="#000000" font-family="sans-serif" font-size="13" font-weight="bold" lengthAdjust="spacing" textLength="14" x="48" y="526.7627">13</text><text fill="#000000" font-family="sans-serif" font-size="13" lengthAdjust="spacing" textLength="100" x="66" y="526.7627">gives the file path</text><polygon fill="#181818" points="513,559.3164,523,563.3164,513,567.3164,517,563.3164" style="stroke:#181818;stroke-width:1.0;"/><line style="stroke:#181818;stroke-width:1.0;" x1="299" x2="519" y1="563.3164" y2="563.3164"/><text fill="#000000" font-family="sans-serif" font-size="13" font-weight="bold" lengthAdjust="spacing" textLength="14" x="306" y="558.0537">14</text><text fill="#000000" font-family="sans-serif" font-size="13" lengthAdjust="spacing" textLength="112" x="324" y="558.0537">enrollStudents(File)</text><polygon fill="#181818" points="751,590.6074,761,594.6074,751,598.6074,755,594.6074" style="stroke:#181818;stroke-width:1.0;"/><line style="stroke:#181818;stroke-width:1.0;" x1="535" x2="757" y1="594.6074" y2="594.6074"/><text fill="#000000" font-family="sans-serif" font-size="13" font-weight="bold" lengthAdjust="spacing" textLength="14" x="542" y="589.3447">15</text><text fill="#000000" font-family="sans-serif" font-size="13" lengthAdjust="spacing" textLength="153" x="560" y="589.3447">bulkRegisterStudents(File)</text><path d="M618.5,609.6074 L691.5,609.6074 L691.5,618.8984 L681.5,628.8984 L618.5,628.8984 L618.5,609.6074 " fill="#EEEEEE" style="stroke:#000000;stroke-width:1.5;"/><rect fill="none" height="766.4023" style="stroke:#000000;stroke-width:1.5;" width="1755.5" x="618.5" y="609.6074"/><text fill="#000000" font-family="sans-serif" font-size="13" font-weight="bold" lengthAdjust="spacing" textLength="28" x="633.5" y="624.6357">loop</text><text fill="#000000" font-family="sans-serif" font-size="11" font-weight="bold" lengthAdjust="spacing" textLength="202" x="706.5" y="623.4775">[while there are lines in the CSV file]</text><path d="M628.5,635.8984 L689.5,635.8984 L689.5,645.1895 L679.5,655.1895 L628.5,655.1895 L628.5,635.8984 " fill="#EEEEEE" style="stroke:#000000;stroke-width:1.5;"/><rect fill="none" height="688.8203" style="stroke:#000000;stroke-width:1.5;" width="1735.5" x="628.5" y="635.8984"/><text fill="#000000" font-family="sans-serif" font-size="13" font-weight="bold" lengthAdjust="spacing" textLength="16" x="643.5" y="650.9268">alt</text><text fill="#000000" font-family="sans-serif" font-size="11" font-weight="bold" lengthAdjust="spacing" textLength="135" x="704.5" y="649.7686">[isnt correctly formated]</text><line style="stroke:#181818;stroke-width:1.0;" x1="773" x2="815" y1="678.4805" y2="678.4805"/><line style="stroke:#181818;stroke-width:1.0;" x1="815" x2="815" y1="678.4805" y2="691.4805"/><line style="stroke:#181818;stroke-width:1.0;" x1="774" x2="815" y1="691.4805" y2="691.4805"/><polygon fill="#181818" points="784,687.4805,774,691.4805,784,695.4805,780,691.4805" style="stroke:#181818;stroke-width:1.0;"/><text fill="#000000" font-family="sans-serif" font-size="13" font-weight="bold" lengthAdjust="spacing" textLength="14" x="780" y="673.2178">16</text><text fill="#000000" font-family="sans-serif" font-size="13" lengthAdjust="spacing" textLength="206" x="798" y="673.2178">results add line incorrectly formated</text><polygon fill="#181818" points="1192,718.7715,1202,722.7715,1192,726.7715,1196,722.7715" style="stroke:#181818;stroke-width:1.0;"/><line style="stroke:#181818;stroke-width:1.0;" x1="773" x2="1198" y1="722.7715" y2="722.7715"/><text fill="#000000" font-family="sans-serif" font-size="13" font-weight="bold" lengthAdjust="spacing" textLength="14" x="780" y="717.5088">17</text><text fill="#000000" font-family="sans-serif" font-size="13" lengthAdjust="spacing" textLength="389" x="798" y="717.5088">findStudentByMechanographicalNumber(mechanographicalNumber)</text><polygon fill="#181818" points="2058.5,750.0625,2068.5,754.0625,2058.5,758.0625,2062.5,754.0625" style="stroke:#181818;stroke-width:1.0;"/><line style="stroke:#181818;stroke-width:1.0;" x1="1214" x2="2064.5" y1="754.0625" y2="754.0625"/><text fill="#000000" font-family="sans-serif" font-size="13" font-weight="bold" lengthAdjust="spacing" textLength="14" x="1221" y="748.7998">18</text><text fill="#000000" font-family="sans-serif" font-size="13" lengthAdjust="spacing" textLength="389" x="1239" y="748.7998">findStudentByMechanographicalNumber(mechanographicalNumber)</text><polygon fill="#181818" points="1225,781.3535,1215,785.3535,1225,789.3535,1221,785.3535" style="stroke:#181818;stroke-width:1.0;"/><line style="stroke:#181818;stroke-width:1.0;" x1="1219" x2="2074.5" y1="785.3535" y2="785.3535"/><text fill="#000000" font-family="sans-serif" font-size="13" font-weight="bold" lengthAdjust="spacing" textLength="14" x="1231" y="780.0908">19</text><text fill="#000000" font-family="sans-serif" font-size="13" lengthAdjust="spacing" textLength="69" x="1249" y="780.0908">return result</text><polygon fill="#181818" points="784,812.6445,774,816.6445,784,820.6445,780,816.6445" style="stroke:#181818;stroke-width:1.0;"/><line style="stroke:#181818;stroke-width:1.0;" x1="778" x2="1208" y1="816.6445" y2="816.6445"/><text fill="#000000" font-family="sans-serif" font-size="13" font-weight="bold" lengthAdjust="spacing" textLength="14" x="790" y="811.3818">20</text><text fill="#000000" font-family="sans-serif" font-size="13" lengthAdjust="spacing" textLength="69" x="808" y="811.3818">return result</text><polygon fill="#181818" points="1492,843.9355,1502,847.9355,1492,851.9355,1496,847.9355" style="stroke:#181818;stroke-width:1.0;"/><line style="stroke:#181818;stroke-width:1.0;" x1="773" x2="1498" y1="847.9355" y2="847.9355"/><text fill="#000000" font-family="sans-serif" font-size="13" font-weight="bold" lengthAdjust="spacing" textLength="14" x="780" y="842.6729">21</text><text fill="#000000" font-family="sans-serif" font-size="13" lengthAdjust="spacing" textLength="225" x="798" y="842.6729">findCourseByCourseCode(courseCode)</text><polygon fill="#181818" points="1927,875.2266,1937,879.2266,1927,883.2266,1931,879.2266" style="stroke:#181818;stroke-width:1.0;"/><line style="stroke:#181818;stroke-width:1.0;" x1="1514" x2="1933" y1="879.2266" y2="879.2266"/><text fill="#000000" font-family="sans-serif" font-size="13" font-weight="bold" lengthAdjust="spacing" textLength="14" x="1521" y="873.9639">22</text><text fill="#000000" font-family="sans-serif" font-size="13" lengthAdjust="spacing" textLength="184" x="1539" y="873.9639">findCourseByCode(courseCode)</text><polygon fill="#181818" points="1932,906.5176,1942,910.5176,1932,914.5176,1936,910.5176" style="stroke:#181818;stroke-width:1.0;"/><line style="stroke:#181818;stroke-width:1.0;" x1="1514" x2="1938" y1="910.5176" y2="910.5176"/><text fill="#000000" font-family="sans-serif" font-size="13" font-weight="bold" lengthAdjust="spacing" textLength="14" x="1521" y="905.2549">23</text><text fill="#000000" font-family="sans-serif" font-size="13" lengthAdjust="spacing" textLength="69" x="1539" y="905.2549">return result</text><polygon fill="#181818" points="784,937.8086,774,941.8086,784,945.8086,780,941.8086" style="stroke:#181818;stroke-width:1.0;"/><line style="stroke:#181818;stroke-width:1.0;" x1="778" x2="1508" y1="941.8086" y2="941.8086"/><text fill="#000000" font-family="sans-serif" font-size="13" font-weight="bold" lengthAdjust="spacing" textLength="14" x="790" y="936.5459">24</text><text fill="#000000" font-family="sans-serif" font-size="13" lengthAdjust="spacing" textLength="69" x="808" y="936.5459">return result</text><line style="stroke:#000000;stroke-width:1.0;stroke-dasharray:2.0,2.0;" x1="628.5" x2="2364" y1="950.8086" y2="950.8086"/><path d="M638.5,958.8086 L699.5,958.8086 L699.5,968.0996 L689.5,978.0996 L638.5,978.0996 L638.5,958.8086 " fill="#EEEEEE" style="stroke:#000000;stroke-width:1.5;"/><rect fill="none" height="358.9102" style="stroke:#000000;stroke-width:1.5;" width="1715.5" x="638.5" y="958.8086"/><text fill="#000000" font-family="sans-serif" font-size="13" font-weight="bold" lengthAdjust="spacing" textLength="16" x="653.5" y="973.8369">alt</text><text fill="#000000" font-family="sans-serif" font-size="11" font-weight="bold" lengthAdjust="spacing" textLength="129" x="714.5" y="972.6787">[user or course invalid]</text><line style="stroke:#181818;stroke-width:1.0;" x1="773" x2="815" y1="1001.3906" y2="1001.3906"/><line style="stroke:#181818;stroke-width:1.0;" x1="815" x2="815" y1="1001.3906" y2="1014.3906"/><line style="stroke:#181818;stroke-width:1.0;" x1="774" x2="815" y1="1014.3906" y2="1014.3906"/><polygon fill="#181818" points="784,1010.3906,774,1014.3906,784,1018.3906,780,1014.3906" style="stroke:#181818;stroke-width:1.0;"/><text fill="#000000" font-family="sans-serif" font-size="13" font-weight="bold" lengthAdjust="spacing" textLength="14" x="780" y="996.1279">25</text><text fill="#000000" font-family="sans-serif" font-size="13" lengthAdjust="spacing" textLength="241" x="798" y="996.1279">results add line with user or course invalid</text><line style="stroke:#000000;stroke-width:1.0;stroke-dasharray:2.0,2.0;" x1="638.5" x2="2354" y1="1023.3906" y2="1023.3906"/><line style="stroke:#181818;stroke-width:1.0;" x1="773" x2="815" y1="1047.6816" y2="1047.6816"/><line style="stroke:#181818;stroke-width:1.0;" x1="815" x2="815" y1="1047.6816" y2="1060.6816"/><line style="stroke:#181818;stroke-width:1.0;" x1="774" x2="815" y1="1060.6816" y2="1060.6816"/><polygon fill="#181818" points="784,1056.6816,774,1060.6816,784,1064.6816,780,1060.6816" style="stroke:#181818;stroke-width:1.0;"/><text fill="#000000" font-family="sans-serif" font-size="13" font-weight="bold" lengthAdjust="spacing" textLength="14" x="780" y="1042.4189">26</text><text fill="#000000" font-family="sans-serif" font-size="13" lengthAdjust="spacing" textLength="226" x="798" y="1042.4189">verifyEnrollmentExists(course, student)</text><polygon fill="#181818" points="2223.5,1087.9727,2233.5,1091.9727,2223.5,1095.9727,2227.5,1091.9727" style="stroke:#181818;stroke-width:1.0;"/><line style="stroke:#181818;stroke-width:1.0;" x1="773" x2="2229.5" y1="1091.9727" y2="1091.9727"/><text fill="#000000" font-family="sans-serif" font-size="13" font-weight="bold" lengthAdjust="spacing" textLength="14" x="780" y="1086.71">27</text><text fill="#000000" font-family="sans-serif" font-size="13" lengthAdjust="spacing" textLength="278" x="798" y="1086.71">checkIfStudentEnrolledInCourse(course,student)</text><polygon fill="#181818" points="784,1119.2637,774,1123.2637,784,1127.2637,780,1123.2637" style="stroke:#181818;stroke-width:1.0;"/><line style="stroke:#181818;stroke-width:1.0;" x1="778" x2="2234.5" y1="1123.2637" y2="1123.2637"/><text fill="#000000" font-family="sans-serif" font-size="13" font-weight="bold" lengthAdjust="spacing" textLength="14" x="790" y="1118.001">28</text><text fill="#000000" font-family="sans-serif" font-size="13" lengthAdjust="spacing" textLength="69" x="808" y="1118.001">return result</text><path d="M648.5,1138.2637 L709.5,1138.2637 L709.5,1147.5547 L699.5,1157.5547 L648.5,1157.5547 L648.5,1138.2637 " fill="#EEEEEE" style="stroke:#000000;stroke-width:1.5;"/><rect fill="none" height="172.4551" style="stroke:#000000;stroke-width:1.5;" width="1695.5" x="648.5" y="1138.2637"/><text fill="#000000" font-family="sans-serif" font-size="13" font-weight="bold" lengthAdjust="spacing" textLength="16" x="663.5" y="1153.292">alt</text><text fill="#000000" font-family="sans-serif" font-size="11" font-weight="bold" lengthAdjust="spacing" textLength="149" x="724.5" y="1152.1338">[enrollemnt already exists]</text><line style="stroke:#181818;stroke-width:1.0;" x1="773" x2="815" y1="1180.8457" y2="1180.8457"/><line style="stroke:#181818;stroke-width:1.0;" x1="815" x2="815" y1="1180.8457" y2="1193.8457"/><line style="stroke:#181818;stroke-width:1.0;" x1="774" x2="815" y1="1193.8457" y2="1193.8457"/><polygon fill="#181818" points="784,1189.8457,774,1193.8457,784,1197.8457,780,1193.8457" style="stroke:#181818;stroke-width:1.0;"/><text fill="#000000" font-family="sans-serif" font-size="13" font-weight="bold" lengthAdjust="spacing" textLength="14" x="780" y="1175.583">29</text><text fill="#000000" font-family="sans-serif" font-size="13" lengthAdjust="spacing" textLength="233" x="798" y="1175.583">results add line with repeated enrollemnt</text><line style="stroke:#000000;stroke-width:1.0;stroke-dasharray:2.0,2.0;" x1="648.5" x2="2344" y1="1202.8457" y2="1202.8457"/><polygon fill="#181818" points="1741,1223.1367,1751,1227.1367,1741,1231.1367,1745,1227.1367" style="stroke:#181818;stroke-width:1.0;"/><line style="stroke:#181818;stroke-width:1.0;" x1="773" x2="1747" y1="1227.1367" y2="1227.1367"/><text fill="#000000" font-family="sans-serif" font-size="13" font-weight="bold" lengthAdjust="spacing" textLength="14" x="780" y="1221.874">30</text><text fill="#000000" font-family="sans-serif" font-size="13" lengthAdjust="spacing" textLength="414" x="798" y="1221.874">createCourseEnrollment(course,student,courseEnrollmentDate,enrolled)</text><polygon fill="#181818" points="2228.5,1254.4277,2238.5,1258.4277,2228.5,1262.4277,2232.5,1258.4277" style="stroke:#181818;stroke-width:1.0;"/><line style="stroke:#181818;stroke-width:1.0;" x1="1758" x2="2234.5" y1="1258.4277" y2="1258.4277"/><text fill="#000000" font-family="sans-serif" font-size="13" font-weight="bold" lengthAdjust="spacing" textLength="14" x="1765" y="1253.165">31</text><text fill="#000000" font-family="sans-serif" font-size="13" lengthAdjust="spacing" textLength="137" x="1783" y="1253.165">save(CourseEnrollment)</text><line style="stroke:#181818;stroke-width:1.0;" x1="773" x2="815" y1="1289.7188" y2="1289.7188"/><line style="stroke:#181818;stroke-width:1.0;" x1="815" x2="815" y1="1289.7188" y2="1302.7188"/><line style="stroke:#181818;stroke-width:1.0;" x1="774" x2="815" y1="1302.7188" y2="1302.7188"/><polygon fill="#181818" points="784,1298.7188,774,1302.7188,784,1306.7188,780,1302.7188" style="stroke:#181818;stroke-width:1.0;"/><text fill="#000000" font-family="sans-serif" font-size="13" font-weight="bold" lengthAdjust="spacing" textLength="14" x="780" y="1284.4561">32</text><text fill="#000000" font-family="sans-serif" font-size="13" lengthAdjust="spacing" textLength="273" x="798" y="1284.4561">results add line with successful Student creatio</text><line style="stroke:#181818;stroke-width:1.0;" x1="773" x2="815" y1="1355.0098" y2="1355.0098"/><line style="stroke:#181818;stroke-width:1.0;" x1="815" x2="815" y1="1355.0098" y2="1368.0098"/><line style="stroke:#181818;stroke-width:1.0;" x1="774" x2="815" y1="1368.0098" y2="1368.0098"/><polygon fill="#181818" points="784,1364.0098,774,1368.0098,784,1372.0098,780,1368.0098" style="stroke:#181818;stroke-width:1.0;"/><text fill="#000000" font-family="sans-serif" font-size="13" font-weight="bold" lengthAdjust="spacing" textLength="14" x="780" y="1349.7471">33</text><text fill="#000000" font-family="sans-serif" font-size="13" lengthAdjust="spacing" textLength="85" x="798" y="1349.7471">lineCounter ++</text><polygon fill="#181818" points="546,1402.3008,536,1406.3008,546,1410.3008,542,1406.3008" style="stroke:#181818;stroke-width:1.0;"/><line style="stroke:#181818;stroke-width:1.0;" x1="540" x2="767" y1="1406.3008" y2="1406.3008"/><text fill="#000000" font-family="sans-serif" font-size="13" font-weight="bold" lengthAdjust="spacing" textLength="14" x="552" y="1401.0381">34</text><text fill="#000000" font-family="sans-serif" font-size="13" lengthAdjust="spacing" textLength="76" x="570" y="1401.0381">return results</text><polygon fill="#181818" points="310,1433.5918,300,1437.5918,310,1441.5918,306,1437.5918" style="stroke:#181818;stroke-width:1.0;"/><line style="stroke:#181818;stroke-width:1.0;" x1="304" x2="529" y1="1437.5918" y2="1437.5918"/><text fill="#000000" font-family="sans-serif" font-size="13" font-weight="bold" lengthAdjust="spacing" textLength="14" x="316" y="1432.3291">35</text><text fill="#000000" font-family="sans-serif" font-size="13" lengthAdjust="spacing" textLength="107" x="334" y="1432.3291">passes the results</text><polygon fill="#181818" points="47,1464.8828,37,1468.8828,47,1472.8828,43,1468.8828" style="stroke:#181818;stroke-width:1.0;"/><line style="stroke:#181818;stroke-width:1.0;" x1="41" x2="293" y1="1468.8828" y2="1468.8828"/><text fill="#000000" font-family="sans-serif" font-size="13" font-weight="bold" lengthAdjust="spacing" textLength="14" x="53" y="1463.6201">36</text><text fill="#000000" font-family="sans-serif" font-size="13" lengthAdjust="spacing" textLength="180" x="71" y="1463.6201">Shows the Manager the results</text><!--SRC=[fLPDR-8m4BtdLrXxMQ9-tNjOQM5RYGExgwBsxje3iUhOMTkXvT_ls752OX8AwW4Ho7jlFlncak-5SvMzlxkh95MkBkKjq-MTXNyrA0OtND2jeMMMEU4aa7ajtyZQrHoK8m_AQ2bBVpdVayNw9QErqwekNy5a6MLE6xAYYcx146h9AgkeSOA92WEHRrxgeF2JEQ7LDu_3orF8vsL0FI-FGJ6n0tQXbVFNO09duSoGz0IKZnFNBu7X0Rwm0UjHA1uPy_qAM46LnYPLXM1K_Wxb9u4HVHJRgonqRIpCzyttGdD8CyORHyo50UgWuKpNYhVnfYTpwkWhjO3Cm7c2Ibk1fxFlaFwl7YvMbm3ntmINvf0G0ZfRaPiV_b39FVcZfARSMqFii8HmrFuE0fwNU1y-WDKEPdd6OG3gVk2n8nBnM1WIFZbr5EgOlXEUXDnugiW_PO0-kVL1oqIHvanHuo8xz4MZAw9G8-bRXff_mLXXdHz1puKFTslQtWgmi_pMDX5j8XXQtiio6YYcUSflWrv5sxNiA7HsSYpesrHoBBd6ewZwcQjJiMZkdaOusOioFCInmzFslkqb-YNPQDWL2b3xPeahW6m4BjEAkk8GTDKCIfY3hTX12kpR7aA0TMk1HmJbn-P-HMC_mTPdR19i9hMko7lXrJ6C0KBn8uN2i4A5o5x3Hy-eT4HON3nC6mFCoJtPQ5DYpdpOepQk0LjBPmdbF4YYucbgDqgRpqTfLex-dO-EqHVrWae_FmEkDYeMsDzHxUGTakYtOvha7JmwhPlHQPsnxZAV6CuXyIpAP8BTpFPuPzJLRW-Gjd5FRV4D05y6cbJG3ZignRdcUHUkc5884KPbTc34PdyOn8SF70CRct5DulRCHuQS5S3Ubfl14m7uKZLDRHLw0er7flhYws_65KgS8IfnpV4zFkbyFfUq03UDNv2yftPK_s2Xij65cXHmdMwiNyYvZY5uFhvUBTt1B1NEKmkqRnymtAiNb6nhni3QJIsxTyvGbD0PADvzHXMz2cQ1MzgGgwiKDpBETfXfyxnlbshOoXMrDgxb4OgljRVgruL-Rx3jA_04RzN_WQyt_m40]--></g></svg>