<?xml version="1.0" encoding="us-ascii" standalone="no"?><svg xmlns="http://www.w3.org/2000/svg" xmlns:xlink="http://www.w3.org/1999/xlink" contentStyleType="text/css" height="789px" preserveAspectRatio="none" style="width:2001px;height:789px;background:#FFFFFF;" version="1.1" viewBox="0 0 2001 789" width="2001px" zoomAndPan="magnify"><defs/><g><text fill="#000000" font-family="sans-serif" font-size="14" font-weight="bold" lengthAdjust="spacing" textLength="196" x="895.5" y="25.1074">Bulk Enroll Students By CSV</text><!--cluster <<agr Course>>--><g id="cluster_&lt;&lt;agr Course&gt;&gt;"><path d="M1268.5,403.6348 L1363.5,403.6348 A3.75,3.75 0 0 1 1366,406.1348 L1373,428.2559 L1991.5,428.2559 A2.5,2.5 0 0 1 1994,430.7559 L1994,780.1348 A2.5,2.5 0 0 1 1991.5,782.6348 L1268.5,782.6348 A2.5,2.5 0 0 1 1266,780.1348 L1266,406.1348 A2.5,2.5 0 0 1 1268.5,403.6348 " fill="none" style="stroke:#000000;stroke-width:1.5;"/><line style="stroke:#000000;stroke-width:1.5;" x1="1266" x2="1373" y1="428.2559" y2="428.2559"/><text fill="#000000" font-family="sans-serif" font-size="14" font-weight="bold" lengthAdjust="spacing" textLength="94" x="1270" y="420.7422">&#171;agr Course&#187;</text></g><!--cluster <<agr Student>>--><g id="cluster_&lt;&lt;agr Student&gt;&gt;"><path d="M8.5,45.6348 L107.5,45.6348 A3.75,3.75 0 0 1 110,48.1348 L117,70.2559 L791.5,70.2559 A2.5,2.5 0 0 1 794,72.7559 L794,344.1348 A2.5,2.5 0 0 1 791.5,346.6348 L8.5,346.6348 A2.5,2.5 0 0 1 6,344.1348 L6,48.1348 A2.5,2.5 0 0 1 8.5,45.6348 " fill="none" style="stroke:#000000;stroke-width:1.5;"/><line style="stroke:#000000;stroke-width:1.5;" x1="6" x2="117" y1="70.2559" y2="70.2559"/><text fill="#000000" font-family="sans-serif" font-size="14" font-weight="bold" lengthAdjust="spacing" textLength="98" x="10" y="62.7422">&#171;agr Student&#187;</text></g><!--cluster <<agr CourseEnrollment>>--><g id="cluster_&lt;&lt;agr CourseEnrollment&gt;&gt;"><path d="M820.5,224.6348 L991.5,224.6348 A3.75,3.75 0 0 1 994,227.1348 L1001,249.2559 L1239.5,249.2559 A2.5,2.5 0 0 1 1242,251.7559 L1242,531.1348 A2.5,2.5 0 0 1 1239.5,533.6348 L820.5,533.6348 A2.5,2.5 0 0 1 818,531.1348 L818,227.1348 A2.5,2.5 0 0 1 820.5,224.6348 " fill="none" style="stroke:#000000;stroke-width:1.5;"/><line style="stroke:#000000;stroke-width:1.5;" x1="818" x2="1001" y1="249.2559" y2="249.2559"/><text fill="#000000" font-family="sans-serif" font-size="14" font-weight="bold" lengthAdjust="spacing" textLength="170" x="822" y="241.7422">&#171;agr CourseEnrollment&#187;</text></g><!--class Course--><g id="elem_Course"><rect codeLine="6" fill="#F1F1F1" height="76.543" id="Course" rx="2.5" ry="2.5" style="stroke:#181818;stroke-width:0.5;" width="78" x="1512" y="440.6348"/><ellipse cx="1527" cy="470.9063" fill="#ADD1B2" rx="11" ry="11" style="stroke:#181818;stroke-width:1.0;"/><path d="M1529.7656,466.7813 Q1529.9219,466.5625 1530.1094,466.4531 Q1530.2969,466.3438 1530.5156,466.3438 Q1530.8906,466.3438 1531.125,466.6094 Q1531.3594,466.8594 1531.3594,467.4688 L1531.3594,468.9219 Q1531.3594,469.5313 1531.125,469.7969 Q1530.8906,470.0625 1530.5156,470.0625 Q1530.1719,470.0625 1529.9688,469.8594 Q1529.7656,469.6719 1529.6563,469.1563 Q1529.6094,468.7969 1529.4219,468.6094 Q1529.0938,468.2344 1528.4844,468.0156 Q1527.875,467.7969 1527.25,467.7969 Q1526.4844,467.7969 1525.8438,468.125 Q1525.2188,468.4531 1524.7188,469.2031 Q1524.2344,469.9531 1524.2344,470.9844 L1524.2344,472.0781 Q1524.2344,473.3125 1525.125,474.1406 Q1526.0156,474.9531 1527.6094,474.9531 Q1528.5469,474.9531 1529.2031,474.7031 Q1529.5938,474.5469 1530.0156,474.1094 Q1530.2813,473.8438 1530.4219,473.7656 Q1530.5781,473.6875 1530.7813,473.6875 Q1531.1094,473.6875 1531.3594,473.9531 Q1531.625,474.2031 1531.625,474.5469 Q1531.625,474.8906 1531.2813,475.2969 Q1530.7813,475.875 1529.9844,476.2031 Q1528.9063,476.6563 1527.6094,476.6563 Q1526.0938,476.6563 1524.8906,476.0313 Q1523.9063,475.5313 1523.2188,474.4688 Q1522.5313,473.3906 1522.5313,472.1094 L1522.5313,470.9531 Q1522.5313,469.625 1523.1406,468.4844 Q1523.7656,467.3281 1524.8594,466.7188 Q1525.9531,466.0938 1527.1875,466.0938 Q1527.9219,466.0938 1528.5625,466.2656 Q1529.2188,466.4219 1529.7656,466.7813 Z " fill="#000000"/><text fill="#000000" font-family="sans-serif" font-size="12" font-style="italic" lengthAdjust="spacing" textLength="43" x="1542.5" y="458.584">&#171;entity&#187;</text><text fill="#000000" font-family="sans-serif" font-size="12" font-style="italic" lengthAdjust="spacing" textLength="35" x="1546.5" y="474.5449">&#171;root&#187;</text><text fill="#000000" font-family="sans-serif" font-size="14" lengthAdjust="spacing" textLength="46" x="1541" y="492.6641">Course</text><line style="stroke:#181818;stroke-width:0.5;" x1="1513" x2="1589" y1="501.1777" y2="501.1777"/><line style="stroke:#181818;stroke-width:0.5;" x1="1513" x2="1589" y1="509.1777" y2="509.1777"/></g><!--class Code--><g id="elem_Code"><rect codeLine="7" fill="#F1F1F1" height="60.582" id="Code" rx="2.5" ry="2.5" style="stroke:#181818;stroke-width:0.5;" width="66" x="1282" y="588.6348"/><ellipse cx="1297" cy="610.9258" fill="#ADD1B2" rx="11" ry="11" style="stroke:#181818;stroke-width:1.0;"/><path d="M1299.7656,606.8008 Q1299.9219,606.582 1300.1094,606.4727 Q1300.2969,606.3633 1300.5156,606.3633 Q1300.8906,606.3633 1301.125,606.6289 Q1301.3594,606.8789 1301.3594,607.4883 L1301.3594,608.9414 Q1301.3594,609.5508 1301.125,609.8164 Q1300.8906,610.082 1300.5156,610.082 Q1300.1719,610.082 1299.9688,609.8789 Q1299.7656,609.6914 1299.6563,609.1758 Q1299.6094,608.8164 1299.4219,608.6289 Q1299.0938,608.2539 1298.4844,608.0352 Q1297.875,607.8164 1297.25,607.8164 Q1296.4844,607.8164 1295.8438,608.1445 Q1295.2188,608.4727 1294.7188,609.2227 Q1294.2344,609.9727 1294.2344,611.0039 L1294.2344,612.0977 Q1294.2344,613.332 1295.125,614.1602 Q1296.0156,614.9727 1297.6094,614.9727 Q1298.5469,614.9727 1299.2031,614.7227 Q1299.5938,614.5664 1300.0156,614.1289 Q1300.2813,613.8633 1300.4219,613.7852 Q1300.5781,613.707 1300.7813,613.707 Q1301.1094,613.707 1301.3594,613.9727 Q1301.625,614.2227 1301.625,614.5664 Q1301.625,614.9102 1301.2813,615.3164 Q1300.7813,615.8945 1299.9844,616.2227 Q1298.9063,616.6758 1297.6094,616.6758 Q1296.0938,616.6758 1294.8906,616.0508 Q1293.9063,615.5508 1293.2188,614.4883 Q1292.5313,613.4102 1292.5313,612.1289 L1292.5313,610.9727 Q1292.5313,609.6445 1293.1406,608.5039 Q1293.7656,607.3477 1294.8594,606.7383 Q1295.9531,606.1133 1297.1875,606.1133 Q1297.9219,606.1133 1298.5625,606.2852 Q1299.2188,606.4414 1299.7656,606.8008 Z " fill="#000000"/><text fill="#000000" font-family="sans-serif" font-size="12" font-style="italic" lengthAdjust="spacing" textLength="27" x="1314.5" y="606.584">&#171;vo&#187;</text><text fill="#000000" font-family="sans-serif" font-size="14" lengthAdjust="spacing" textLength="34" x="1311" y="624.7031">Code</text><line style="stroke:#181818;stroke-width:0.5;" x1="1283" x2="1347" y1="633.2168" y2="633.2168"/><line style="stroke:#181818;stroke-width:0.5;" x1="1283" x2="1347" y1="641.2168" y2="641.2168"/></g><!--class Description--><g id="elem_Description"><rect codeLine="8" fill="#F1F1F1" height="60.582" id="Description" rx="2.5" ry="2.5" style="stroke:#181818;stroke-width:0.5;" width="103" x="1383.5" y="588.6348"/><ellipse cx="1398.5" cy="610.9258" fill="#ADD1B2" rx="11" ry="11" style="stroke:#181818;stroke-width:1.0;"/><path d="M1401.2656,606.8008 Q1401.4219,606.582 1401.6094,606.4727 Q1401.7969,606.3633 1402.0156,606.3633 Q1402.3906,606.3633 1402.625,606.6289 Q1402.8594,606.8789 1402.8594,607.4883 L1402.8594,608.9414 Q1402.8594,609.5508 1402.625,609.8164 Q1402.3906,610.082 1402.0156,610.082 Q1401.6719,610.082 1401.4688,609.8789 Q1401.2656,609.6914 1401.1563,609.1758 Q1401.1094,608.8164 1400.9219,608.6289 Q1400.5938,608.2539 1399.9844,608.0352 Q1399.375,607.8164 1398.75,607.8164 Q1397.9844,607.8164 1397.3438,608.1445 Q1396.7188,608.4727 1396.2188,609.2227 Q1395.7344,609.9727 1395.7344,611.0039 L1395.7344,612.0977 Q1395.7344,613.332 1396.625,614.1602 Q1397.5156,614.9727 1399.1094,614.9727 Q1400.0469,614.9727 1400.7031,614.7227 Q1401.0938,614.5664 1401.5156,614.1289 Q1401.7813,613.8633 1401.9219,613.7852 Q1402.0781,613.707 1402.2813,613.707 Q1402.6094,613.707 1402.8594,613.9727 Q1403.125,614.2227 1403.125,614.5664 Q1403.125,614.9102 1402.7813,615.3164 Q1402.2813,615.8945 1401.4844,616.2227 Q1400.4063,616.6758 1399.1094,616.6758 Q1397.5938,616.6758 1396.3906,616.0508 Q1395.4063,615.5508 1394.7188,614.4883 Q1394.0313,613.4102 1394.0313,612.1289 L1394.0313,610.9727 Q1394.0313,609.6445 1394.6406,608.5039 Q1395.2656,607.3477 1396.3594,606.7383 Q1397.4531,606.1133 1398.6875,606.1133 Q1399.4219,606.1133 1400.0625,606.2852 Q1400.7188,606.4414 1401.2656,606.8008 Z " fill="#000000"/><text fill="#000000" font-family="sans-serif" font-size="12" font-style="italic" lengthAdjust="spacing" textLength="27" x="1434.5" y="606.584">&#171;vo&#187;</text><text fill="#000000" font-family="sans-serif" font-size="14" lengthAdjust="spacing" textLength="71" x="1412.5" y="624.7031">Description</text><line style="stroke:#181818;stroke-width:0.5;" x1="1384.5" x2="1485.5" y1="633.2168" y2="633.2168"/><line style="stroke:#181818;stroke-width:0.5;" x1="1384.5" x2="1485.5" y1="641.2168" y2="641.2168"/></g><!--class Title--><g id="elem_Title"><rect codeLine="9" fill="#F1F1F1" height="60.582" id="Title" rx="2.5" ry="2.5" style="stroke:#181818;stroke-width:0.5;" width="59" x="1521.5" y="588.6348"/><ellipse cx="1536.5" cy="610.9258" fill="#ADD1B2" rx="11" ry="11" style="stroke:#181818;stroke-width:1.0;"/><path d="M1539.2656,606.8008 Q1539.4219,606.582 1539.6094,606.4727 Q1539.7969,606.3633 1540.0156,606.3633 Q1540.3906,606.3633 1540.625,606.6289 Q1540.8594,606.8789 1540.8594,607.4883 L1540.8594,608.9414 Q1540.8594,609.5508 1540.625,609.8164 Q1540.3906,610.082 1540.0156,610.082 Q1539.6719,610.082 1539.4688,609.8789 Q1539.2656,609.6914 1539.1563,609.1758 Q1539.1094,608.8164 1538.9219,608.6289 Q1538.5938,608.2539 1537.9844,608.0352 Q1537.375,607.8164 1536.75,607.8164 Q1535.9844,607.8164 1535.3438,608.1445 Q1534.7188,608.4727 1534.2188,609.2227 Q1533.7344,609.9727 1533.7344,611.0039 L1533.7344,612.0977 Q1533.7344,613.332 1534.625,614.1602 Q1535.5156,614.9727 1537.1094,614.9727 Q1538.0469,614.9727 1538.7031,614.7227 Q1539.0938,614.5664 1539.5156,614.1289 Q1539.7813,613.8633 1539.9219,613.7852 Q1540.0781,613.707 1540.2813,613.707 Q1540.6094,613.707 1540.8594,613.9727 Q1541.125,614.2227 1541.125,614.5664 Q1541.125,614.9102 1540.7813,615.3164 Q1540.2813,615.8945 1539.4844,616.2227 Q1538.4063,616.6758 1537.1094,616.6758 Q1535.5938,616.6758 1534.3906,616.0508 Q1533.4063,615.5508 1532.7188,614.4883 Q1532.0313,613.4102 1532.0313,612.1289 L1532.0313,610.9727 Q1532.0313,609.6445 1532.6406,608.5039 Q1533.2656,607.3477 1534.3594,606.7383 Q1535.4531,606.1133 1536.6875,606.1133 Q1537.4219,606.1133 1538.0625,606.2852 Q1538.7188,606.4414 1539.2656,606.8008 Z " fill="#000000"/><text fill="#000000" font-family="sans-serif" font-size="12" font-style="italic" lengthAdjust="spacing" textLength="27" x="1550.5" y="606.584">&#171;vo&#187;</text><text fill="#000000" font-family="sans-serif" font-size="14" lengthAdjust="spacing" textLength="27" x="1550.5" y="624.7031">Title</text><line style="stroke:#181818;stroke-width:0.5;" x1="1522.5" x2="1579.5" y1="633.2168" y2="633.2168"/><line style="stroke:#181818;stroke-width:0.5;" x1="1522.5" x2="1579.5" y1="641.2168" y2="641.2168"/></g><!--class State--><g id="elem_State"><rect codeLine="10" fill="#F1F1F1" height="76.543" id="State" rx="2.5" ry="2.5" style="stroke:#181818;stroke-width:0.5;" width="74" x="1616" y="580.6348"/><ellipse cx="1631" cy="610.9063" fill="#ADD1B2" rx="11" ry="11" style="stroke:#181818;stroke-width:1.0;"/><path d="M1633.7656,606.7813 Q1633.9219,606.5625 1634.1094,606.4531 Q1634.2969,606.3438 1634.5156,606.3438 Q1634.8906,606.3438 1635.125,606.6094 Q1635.3594,606.8594 1635.3594,607.4688 L1635.3594,608.9219 Q1635.3594,609.5313 1635.125,609.7969 Q1634.8906,610.0625 1634.5156,610.0625 Q1634.1719,610.0625 1633.9688,609.8594 Q1633.7656,609.6719 1633.6563,609.1563 Q1633.6094,608.7969 1633.4219,608.6094 Q1633.0938,608.2344 1632.4844,608.0156 Q1631.875,607.7969 1631.25,607.7969 Q1630.4844,607.7969 1629.8438,608.125 Q1629.2188,608.4531 1628.7188,609.2031 Q1628.2344,609.9531 1628.2344,610.9844 L1628.2344,612.0781 Q1628.2344,613.3125 1629.125,614.1406 Q1630.0156,614.9531 1631.6094,614.9531 Q1632.5469,614.9531 1633.2031,614.7031 Q1633.5938,614.5469 1634.0156,614.1094 Q1634.2813,613.8438 1634.4219,613.7656 Q1634.5781,613.6875 1634.7813,613.6875 Q1635.1094,613.6875 1635.3594,613.9531 Q1635.625,614.2031 1635.625,614.5469 Q1635.625,614.8906 1635.2813,615.2969 Q1634.7813,615.875 1633.9844,616.2031 Q1632.9063,616.6563 1631.6094,616.6563 Q1630.0938,616.6563 1628.8906,616.0313 Q1627.9063,615.5313 1627.2188,614.4688 Q1626.5313,613.3906 1626.5313,612.1094 L1626.5313,610.9531 Q1626.5313,609.625 1627.1406,608.4844 Q1627.7656,607.3281 1628.8594,606.7188 Q1629.9531,606.0938 1631.1875,606.0938 Q1631.9219,606.0938 1632.5625,606.2656 Q1633.2188,606.4219 1633.7656,606.7813 Z " fill="#000000"/><text fill="#000000" font-family="sans-serif" font-size="12" font-style="italic" lengthAdjust="spacing" textLength="27" x="1652.5" y="598.584">&#171;vo&#187;</text><text fill="#000000" font-family="sans-serif" font-size="12" font-style="italic" lengthAdjust="spacing" textLength="46" x="1643" y="614.5449">&#171;enum&#187;</text><text fill="#000000" font-family="sans-serif" font-size="14" lengthAdjust="spacing" textLength="33" x="1649.5" y="632.6641">State</text><line style="stroke:#181818;stroke-width:0.5;" x1="1617" x2="1689" y1="641.1777" y2="641.1777"/><line style="stroke:#181818;stroke-width:0.5;" x1="1617" x2="1689" y1="649.1777" y2="649.1777"/></g><!--class Teacher--><g id="elem_Teacher"><rect fill="#F1F1F1" height="48" id="Teacher" rx="2.5" ry="2.5" style="stroke:#181818;stroke-width:0.5;" width="85" x="1795.5" y="718.6348"/><ellipse cx="1810.5" cy="734.6348" fill="#ADD1B2" rx="11" ry="11" style="stroke:#181818;stroke-width:1.0;"/><path d="M1813.2656,730.5098 Q1813.4219,730.291 1813.6094,730.1816 Q1813.7969,730.0723 1814.0156,730.0723 Q1814.3906,730.0723 1814.625,730.3379 Q1814.8594,730.5879 1814.8594,731.1973 L1814.8594,732.6504 Q1814.8594,733.2598 1814.625,733.5254 Q1814.3906,733.791 1814.0156,733.791 Q1813.6719,733.791 1813.4688,733.5879 Q1813.2656,733.4004 1813.1563,732.8848 Q1813.1094,732.5254 1812.9219,732.3379 Q1812.5938,731.9629 1811.9844,731.7441 Q1811.375,731.5254 1810.75,731.5254 Q1809.9844,731.5254 1809.3438,731.8535 Q1808.7188,732.1816 1808.2188,732.9316 Q1807.7344,733.6816 1807.7344,734.7129 L1807.7344,735.8066 Q1807.7344,737.041 1808.625,737.8691 Q1809.5156,738.6816 1811.1094,738.6816 Q1812.0469,738.6816 1812.7031,738.4316 Q1813.0938,738.2754 1813.5156,737.8379 Q1813.7813,737.5723 1813.9219,737.4941 Q1814.0781,737.416 1814.2813,737.416 Q1814.6094,737.416 1814.8594,737.6816 Q1815.125,737.9316 1815.125,738.2754 Q1815.125,738.6191 1814.7813,739.0254 Q1814.2813,739.6035 1813.4844,739.9316 Q1812.4063,740.3848 1811.1094,740.3848 Q1809.5938,740.3848 1808.3906,739.7598 Q1807.4063,739.2598 1806.7188,738.1973 Q1806.0313,737.1191 1806.0313,735.8379 L1806.0313,734.6816 Q1806.0313,733.3535 1806.6406,732.2129 Q1807.2656,731.0566 1808.3594,730.4473 Q1809.4531,729.8223 1810.6875,729.8223 Q1811.4219,729.8223 1812.0625,729.9941 Q1812.7188,730.1504 1813.2656,730.5098 Z " fill="#000000"/><text fill="#000000" font-family="sans-serif" font-size="14" lengthAdjust="spacing" textLength="53" x="1824.5" y="740.4316">Teacher</text><line style="stroke:#181818;stroke-width:0.5;" x1="1796.5" x2="1879.5" y1="750.6348" y2="750.6348"/><line style="stroke:#181818;stroke-width:0.5;" x1="1796.5" x2="1879.5" y1="758.6348" y2="758.6348"/></g><!--class Student--><g id="elem_Student"><rect codeLine="26" fill="#F1F1F1" height="76.543" id="Student" rx="2.5" ry="2.5" style="stroke:#181818;stroke-width:0.5;" width="81" x="517.5" y="82.6348"/><ellipse cx="532.5" cy="112.9063" fill="#ADD1B2" rx="11" ry="11" style="stroke:#181818;stroke-width:1.0;"/><path d="M535.2656,108.7813 Q535.4219,108.5625 535.6094,108.4531 Q535.7969,108.3438 536.0156,108.3438 Q536.3906,108.3438 536.625,108.6094 Q536.8594,108.8594 536.8594,109.4688 L536.8594,110.9219 Q536.8594,111.5313 536.625,111.7969 Q536.3906,112.0625 536.0156,112.0625 Q535.6719,112.0625 535.4688,111.8594 Q535.2656,111.6719 535.1563,111.1563 Q535.1094,110.7969 534.9219,110.6094 Q534.5938,110.2344 533.9844,110.0156 Q533.375,109.7969 532.75,109.7969 Q531.9844,109.7969 531.3438,110.125 Q530.7188,110.4531 530.2188,111.2031 Q529.7344,111.9531 529.7344,112.9844 L529.7344,114.0781 Q529.7344,115.3125 530.625,116.1406 Q531.5156,116.9531 533.1094,116.9531 Q534.0469,116.9531 534.7031,116.7031 Q535.0938,116.5469 535.5156,116.1094 Q535.7813,115.8438 535.9219,115.7656 Q536.0781,115.6875 536.2813,115.6875 Q536.6094,115.6875 536.8594,115.9531 Q537.125,116.2031 537.125,116.5469 Q537.125,116.8906 536.7813,117.2969 Q536.2813,117.875 535.4844,118.2031 Q534.4063,118.6563 533.1094,118.6563 Q531.5938,118.6563 530.3906,118.0313 Q529.4063,117.5313 528.7188,116.4688 Q528.0313,115.3906 528.0313,114.1094 L528.0313,112.9531 Q528.0313,111.625 528.6406,110.4844 Q529.2656,109.3281 530.3594,108.7188 Q531.4531,108.0938 532.6875,108.0938 Q533.4219,108.0938 534.0625,108.2656 Q534.7188,108.4219 535.2656,108.7813 Z " fill="#000000"/><text fill="#000000" font-family="sans-serif" font-size="12" font-style="italic" lengthAdjust="spacing" textLength="43" x="549.5" y="100.584">&#171;entity&#187;</text><text fill="#000000" font-family="sans-serif" font-size="12" font-style="italic" lengthAdjust="spacing" textLength="35" x="553.5" y="116.5449">&#171;root&#187;</text><text fill="#000000" font-family="sans-serif" font-size="14" lengthAdjust="spacing" textLength="49" x="546.5" y="134.6641">Student</text><line style="stroke:#181818;stroke-width:0.5;" x1="518.5" x2="597.5" y1="143.1777" y2="143.1777"/><line style="stroke:#181818;stroke-width:0.5;" x1="518.5" x2="597.5" y1="151.1777" y2="151.1777"/></g><!--class MechanographicalNumber--><g id="elem_MechanographicalNumber"><rect codeLine="27" fill="#F1F1F1" height="60.582" id="MechanographicalNumber" rx="2.5" ry="2.5" style="stroke:#181818;stroke-width:0.5;" width="197" x="22.5" y="269.6348"/><ellipse cx="37.5" cy="291.9258" fill="#ADD1B2" rx="11" ry="11" style="stroke:#181818;stroke-width:1.0;"/><path d="M40.2656,287.8008 Q40.4219,287.582 40.6094,287.4727 Q40.7969,287.3633 41.0156,287.3633 Q41.3906,287.3633 41.625,287.6289 Q41.8594,287.8789 41.8594,288.4883 L41.8594,289.9414 Q41.8594,290.5508 41.625,290.8164 Q41.3906,291.082 41.0156,291.082 Q40.6719,291.082 40.4688,290.8789 Q40.2656,290.6914 40.1563,290.1758 Q40.1094,289.8164 39.9219,289.6289 Q39.5938,289.2539 38.9844,289.0352 Q38.375,288.8164 37.75,288.8164 Q36.9844,288.8164 36.3438,289.1445 Q35.7188,289.4727 35.2188,290.2227 Q34.7344,290.9727 34.7344,292.0039 L34.7344,293.0977 Q34.7344,294.332 35.625,295.1602 Q36.5156,295.9727 38.1094,295.9727 Q39.0469,295.9727 39.7031,295.7227 Q40.0938,295.5664 40.5156,295.1289 Q40.7813,294.8633 40.9219,294.7852 Q41.0781,294.707 41.2813,294.707 Q41.6094,294.707 41.8594,294.9727 Q42.125,295.2227 42.125,295.5664 Q42.125,295.9102 41.7813,296.3164 Q41.2813,296.8945 40.4844,297.2227 Q39.4063,297.6758 38.1094,297.6758 Q36.5938,297.6758 35.3906,297.0508 Q34.4063,296.5508 33.7188,295.4883 Q33.0313,294.4102 33.0313,293.1289 L33.0313,291.9727 Q33.0313,290.6445 33.6406,289.5039 Q34.2656,288.3477 35.3594,287.7383 Q36.4531,287.1133 37.6875,287.1133 Q38.4219,287.1133 39.0625,287.2852 Q39.7188,287.4414 40.2656,287.8008 Z " fill="#000000"/><text fill="#000000" font-family="sans-serif" font-size="12" font-style="italic" lengthAdjust="spacing" textLength="27" x="120.5" y="287.584">&#171;vo&#187;</text><text fill="#000000" font-family="sans-serif" font-size="14" lengthAdjust="spacing" textLength="165" x="51.5" y="305.7031">MechanographicalNumber</text><line style="stroke:#181818;stroke-width:0.5;" x1="23.5" x2="218.5" y1="314.2168" y2="314.2168"/><line style="stroke:#181818;stroke-width:0.5;" x1="23.5" x2="218.5" y1="322.2168" y2="322.2168"/></g><!--class StudentTaxPayerNumber--><g id="elem_StudentTaxPayerNumber"><rect codeLine="28" fill="#F1F1F1" height="60.582" id="StudentTaxPayerNumber" rx="2.5" ry="2.5" style="stroke:#181818;stroke-width:0.5;" width="190" x="255" y="269.6348"/><ellipse cx="270" cy="291.9258" fill="#ADD1B2" rx="11" ry="11" style="stroke:#181818;stroke-width:1.0;"/><path d="M272.7656,287.8008 Q272.9219,287.582 273.1094,287.4727 Q273.2969,287.3633 273.5156,287.3633 Q273.8906,287.3633 274.125,287.6289 Q274.3594,287.8789 274.3594,288.4883 L274.3594,289.9414 Q274.3594,290.5508 274.125,290.8164 Q273.8906,291.082 273.5156,291.082 Q273.1719,291.082 272.9688,290.8789 Q272.7656,290.6914 272.6563,290.1758 Q272.6094,289.8164 272.4219,289.6289 Q272.0938,289.2539 271.4844,289.0352 Q270.875,288.8164 270.25,288.8164 Q269.4844,288.8164 268.8438,289.1445 Q268.2188,289.4727 267.7188,290.2227 Q267.2344,290.9727 267.2344,292.0039 L267.2344,293.0977 Q267.2344,294.332 268.125,295.1602 Q269.0156,295.9727 270.6094,295.9727 Q271.5469,295.9727 272.2031,295.7227 Q272.5938,295.5664 273.0156,295.1289 Q273.2813,294.8633 273.4219,294.7852 Q273.5781,294.707 273.7813,294.707 Q274.1094,294.707 274.3594,294.9727 Q274.625,295.2227 274.625,295.5664 Q274.625,295.9102 274.2813,296.3164 Q273.7813,296.8945 272.9844,297.2227 Q271.9063,297.6758 270.6094,297.6758 Q269.0938,297.6758 267.8906,297.0508 Q266.9063,296.5508 266.2188,295.4883 Q265.5313,294.4102 265.5313,293.1289 L265.5313,291.9727 Q265.5313,290.6445 266.1406,289.5039 Q266.7656,288.3477 267.8594,287.7383 Q268.9531,287.1133 270.1875,287.1133 Q270.9219,287.1133 271.5625,287.2852 Q272.2188,287.4414 272.7656,287.8008 Z " fill="#000000"/><text fill="#000000" font-family="sans-serif" font-size="12" font-style="italic" lengthAdjust="spacing" textLength="27" x="349.5" y="287.584">&#171;vo&#187;</text><text fill="#000000" font-family="sans-serif" font-size="14" lengthAdjust="spacing" textLength="158" x="284" y="305.7031">StudentTaxPayerNumber</text><line style="stroke:#181818;stroke-width:0.5;" x1="256" x2="444" y1="314.2168" y2="314.2168"/><line style="stroke:#181818;stroke-width:0.5;" x1="256" x2="444" y1="322.2168" y2="322.2168"/></g><!--class StudentDateOfBirth--><g id="elem_StudentDateOfBirth"><rect codeLine="29" fill="#F1F1F1" height="60.582" id="StudentDateOfBirth" rx="2.5" ry="2.5" style="stroke:#181818;stroke-width:0.5;" width="155" x="480.5" y="269.6348"/><ellipse cx="495.5" cy="291.9258" fill="#ADD1B2" rx="11" ry="11" style="stroke:#181818;stroke-width:1.0;"/><path d="M498.2656,287.8008 Q498.4219,287.582 498.6094,287.4727 Q498.7969,287.3633 499.0156,287.3633 Q499.3906,287.3633 499.625,287.6289 Q499.8594,287.8789 499.8594,288.4883 L499.8594,289.9414 Q499.8594,290.5508 499.625,290.8164 Q499.3906,291.082 499.0156,291.082 Q498.6719,291.082 498.4688,290.8789 Q498.2656,290.6914 498.1563,290.1758 Q498.1094,289.8164 497.9219,289.6289 Q497.5938,289.2539 496.9844,289.0352 Q496.375,288.8164 495.75,288.8164 Q494.9844,288.8164 494.3438,289.1445 Q493.7188,289.4727 493.2188,290.2227 Q492.7344,290.9727 492.7344,292.0039 L492.7344,293.0977 Q492.7344,294.332 493.625,295.1602 Q494.5156,295.9727 496.1094,295.9727 Q497.0469,295.9727 497.7031,295.7227 Q498.0938,295.5664 498.5156,295.1289 Q498.7813,294.8633 498.9219,294.7852 Q499.0781,294.707 499.2813,294.707 Q499.6094,294.707 499.8594,294.9727 Q500.125,295.2227 500.125,295.5664 Q500.125,295.9102 499.7813,296.3164 Q499.2813,296.8945 498.4844,297.2227 Q497.4063,297.6758 496.1094,297.6758 Q494.5938,297.6758 493.3906,297.0508 Q492.4063,296.5508 491.7188,295.4883 Q491.0313,294.4102 491.0313,293.1289 L491.0313,291.9727 Q491.0313,290.6445 491.6406,289.5039 Q492.2656,288.3477 493.3594,287.7383 Q494.4531,287.1133 495.6875,287.1133 Q496.4219,287.1133 497.0625,287.2852 Q497.7188,287.4414 498.2656,287.8008 Z " fill="#000000"/><text fill="#000000" font-family="sans-serif" font-size="12" font-style="italic" lengthAdjust="spacing" textLength="27" x="557.5" y="287.584">&#171;vo&#187;</text><text fill="#000000" font-family="sans-serif" font-size="14" lengthAdjust="spacing" textLength="123" x="509.5" y="305.7031">StudentDateOfBirth</text><line style="stroke:#181818;stroke-width:0.5;" x1="481.5" x2="634.5" y1="314.2168" y2="314.2168"/><line style="stroke:#181818;stroke-width:0.5;" x1="481.5" x2="634.5" y1="322.2168" y2="322.2168"/></g><!--class SystemUser--><g id="elem_SystemUser"><rect fill="#F1F1F1" height="48" id="SystemUser" rx="2.5" ry="2.5" style="stroke:#181818;stroke-width:0.5;" width="107" x="670.5" y="276.1348"/><ellipse cx="685.5" cy="292.1348" fill="#ADD1B2" rx="11" ry="11" style="stroke:#181818;stroke-width:1.0;"/><path d="M688.2656,288.0098 Q688.4219,287.791 688.6094,287.6816 Q688.7969,287.5723 689.0156,287.5723 Q689.3906,287.5723 689.625,287.8379 Q689.8594,288.0879 689.8594,288.6973 L689.8594,290.1504 Q689.8594,290.7598 689.625,291.0254 Q689.3906,291.291 689.0156,291.291 Q688.6719,291.291 688.4688,291.0879 Q688.2656,290.9004 688.1563,290.3848 Q688.1094,290.0254 687.9219,289.8379 Q687.5938,289.4629 686.9844,289.2441 Q686.375,289.0254 685.75,289.0254 Q684.9844,289.0254 684.3438,289.3535 Q683.7188,289.6816 683.2188,290.4316 Q682.7344,291.1816 682.7344,292.2129 L682.7344,293.3066 Q682.7344,294.541 683.625,295.3691 Q684.5156,296.1816 686.1094,296.1816 Q687.0469,296.1816 687.7031,295.9316 Q688.0938,295.7754 688.5156,295.3379 Q688.7813,295.0723 688.9219,294.9941 Q689.0781,294.916 689.2813,294.916 Q689.6094,294.916 689.8594,295.1816 Q690.125,295.4316 690.125,295.7754 Q690.125,296.1191 689.7813,296.5254 Q689.2813,297.1035 688.4844,297.4316 Q687.4063,297.8848 686.1094,297.8848 Q684.5938,297.8848 683.3906,297.2598 Q682.4063,296.7598 681.7188,295.6973 Q681.0313,294.6191 681.0313,293.3379 L681.0313,292.1816 Q681.0313,290.8535 681.6406,289.7129 Q682.2656,288.5566 683.3594,287.9473 Q684.4531,287.3223 685.6875,287.3223 Q686.4219,287.3223 687.0625,287.4941 Q687.7188,287.6504 688.2656,288.0098 Z " fill="#000000"/><text fill="#000000" font-family="sans-serif" font-size="14" lengthAdjust="spacing" textLength="75" x="699.5" y="297.9316">SystemUser</text><line style="stroke:#181818;stroke-width:0.5;" x1="671.5" x2="776.5" y1="308.1348" y2="308.1348"/><line style="stroke:#181818;stroke-width:0.5;" x1="671.5" x2="776.5" y1="316.1348" y2="316.1348"/></g><!--class CourseEnrollment--><g id="elem_CourseEnrollment"><rect codeLine="43" fill="#F1F1F1" height="76.543" id="CourseEnrollment" rx="2.5" ry="2.5" style="stroke:#181818;stroke-width:0.5;" width="145" x="958.5" y="261.6348"/><ellipse cx="973.5" cy="291.9063" fill="#ADD1B2" rx="11" ry="11" style="stroke:#181818;stroke-width:1.0;"/><path d="M976.2656,287.7813 Q976.4219,287.5625 976.6094,287.4531 Q976.7969,287.3438 977.0156,287.3438 Q977.3906,287.3438 977.625,287.6094 Q977.8594,287.8594 977.8594,288.4688 L977.8594,289.9219 Q977.8594,290.5313 977.625,290.7969 Q977.3906,291.0625 977.0156,291.0625 Q976.6719,291.0625 976.4688,290.8594 Q976.2656,290.6719 976.1563,290.1563 Q976.1094,289.7969 975.9219,289.6094 Q975.5938,289.2344 974.9844,289.0156 Q974.375,288.7969 973.75,288.7969 Q972.9844,288.7969 972.3438,289.125 Q971.7188,289.4531 971.2188,290.2031 Q970.7344,290.9531 970.7344,291.9844 L970.7344,293.0781 Q970.7344,294.3125 971.625,295.1406 Q972.5156,295.9531 974.1094,295.9531 Q975.0469,295.9531 975.7031,295.7031 Q976.0938,295.5469 976.5156,295.1094 Q976.7813,294.8438 976.9219,294.7656 Q977.0781,294.6875 977.2813,294.6875 Q977.6094,294.6875 977.8594,294.9531 Q978.125,295.2031 978.125,295.5469 Q978.125,295.8906 977.7813,296.2969 Q977.2813,296.875 976.4844,297.2031 Q975.4063,297.6563 974.1094,297.6563 Q972.5938,297.6563 971.3906,297.0313 Q970.4063,296.5313 969.7188,295.4688 Q969.0313,294.3906 969.0313,293.1094 L969.0313,291.9531 Q969.0313,290.625 969.6406,289.4844 Q970.2656,288.3281 971.3594,287.7188 Q972.4531,287.0938 973.6875,287.0938 Q974.4219,287.0938 975.0625,287.2656 Q975.7188,287.4219 976.2656,287.7813 Z " fill="#000000"/><text fill="#000000" font-family="sans-serif" font-size="12" font-style="italic" lengthAdjust="spacing" textLength="43" x="1022.5" y="279.584">&#171;entity&#187;</text><text fill="#000000" font-family="sans-serif" font-size="12" font-style="italic" lengthAdjust="spacing" textLength="35" x="1026.5" y="295.5449">&#171;root&#187;</text><text fill="#000000" font-family="sans-serif" font-size="14" lengthAdjust="spacing" textLength="113" x="987.5" y="313.6641">CourseEnrollment</text><line style="stroke:#181818;stroke-width:0.5;" x1="959.5" x2="1102.5" y1="322.1777" y2="322.1777"/><line style="stroke:#181818;stroke-width:0.5;" x1="959.5" x2="1102.5" y1="330.1777" y2="330.1777"/></g><!--class StudentEnrollmentState--><g id="elem_StudentEnrollmentState"><rect codeLine="44" fill="#F1F1F1" height="76.543" id="StudentEnrollmentState" rx="2.5" ry="2.5" style="stroke:#181818;stroke-width:0.5;" width="181" x="834.5" y="440.6348"/><ellipse cx="849.5" cy="470.9063" fill="#ADD1B2" rx="11" ry="11" style="stroke:#181818;stroke-width:1.0;"/><path d="M852.2656,466.7813 Q852.4219,466.5625 852.6094,466.4531 Q852.7969,466.3438 853.0156,466.3438 Q853.3906,466.3438 853.625,466.6094 Q853.8594,466.8594 853.8594,467.4688 L853.8594,468.9219 Q853.8594,469.5313 853.625,469.7969 Q853.3906,470.0625 853.0156,470.0625 Q852.6719,470.0625 852.4688,469.8594 Q852.2656,469.6719 852.1563,469.1563 Q852.1094,468.7969 851.9219,468.6094 Q851.5938,468.2344 850.9844,468.0156 Q850.375,467.7969 849.75,467.7969 Q848.9844,467.7969 848.3438,468.125 Q847.7188,468.4531 847.2188,469.2031 Q846.7344,469.9531 846.7344,470.9844 L846.7344,472.0781 Q846.7344,473.3125 847.625,474.1406 Q848.5156,474.9531 850.1094,474.9531 Q851.0469,474.9531 851.7031,474.7031 Q852.0938,474.5469 852.5156,474.1094 Q852.7813,473.8438 852.9219,473.7656 Q853.0781,473.6875 853.2813,473.6875 Q853.6094,473.6875 853.8594,473.9531 Q854.125,474.2031 854.125,474.5469 Q854.125,474.8906 853.7813,475.2969 Q853.2813,475.875 852.4844,476.2031 Q851.4063,476.6563 850.1094,476.6563 Q848.5938,476.6563 847.3906,476.0313 Q846.4063,475.5313 845.7188,474.4688 Q845.0313,473.3906 845.0313,472.1094 L845.0313,470.9531 Q845.0313,469.625 845.6406,468.4844 Q846.2656,467.3281 847.3594,466.7188 Q848.4531,466.0938 849.6875,466.0938 Q850.4219,466.0938 851.0625,466.2656 Q851.7188,466.4219 852.2656,466.7813 Z " fill="#000000"/><text fill="#000000" font-family="sans-serif" font-size="12" font-style="italic" lengthAdjust="spacing" textLength="27" x="924.5" y="458.584">&#171;vo&#187;</text><text fill="#000000" font-family="sans-serif" font-size="12" font-style="italic" lengthAdjust="spacing" textLength="46" x="915" y="474.5449">&#171;enum&#187;</text><text fill="#000000" font-family="sans-serif" font-size="14" lengthAdjust="spacing" textLength="149" x="863.5" y="492.6641">StudentEnrollmentState</text><line style="stroke:#181818;stroke-width:0.5;" x1="835.5" x2="1014.5" y1="501.1777" y2="501.1777"/><line style="stroke:#181818;stroke-width:0.5;" x1="835.5" x2="1014.5" y1="509.1777" y2="509.1777"/></g><!--class CourseEnrollmentDate--><g id="elem_CourseEnrollmentDate"><rect codeLine="45" fill="#F1F1F1" height="60.582" id="CourseEnrollmentDate" rx="2.5" ry="2.5" style="stroke:#181818;stroke-width:0.5;" width="175" x="1050.5" y="448.6348"/><ellipse cx="1065.5" cy="470.9258" fill="#ADD1B2" rx="11" ry="11" style="stroke:#181818;stroke-width:1.0;"/><path d="M1068.2656,466.8008 Q1068.4219,466.582 1068.6094,466.4727 Q1068.7969,466.3633 1069.0156,466.3633 Q1069.3906,466.3633 1069.625,466.6289 Q1069.8594,466.8789 1069.8594,467.4883 L1069.8594,468.9414 Q1069.8594,469.5508 1069.625,469.8164 Q1069.3906,470.082 1069.0156,470.082 Q1068.6719,470.082 1068.4688,469.8789 Q1068.2656,469.6914 1068.1563,469.1758 Q1068.1094,468.8164 1067.9219,468.6289 Q1067.5938,468.2539 1066.9844,468.0352 Q1066.375,467.8164 1065.75,467.8164 Q1064.9844,467.8164 1064.3438,468.1445 Q1063.7188,468.4727 1063.2188,469.2227 Q1062.7344,469.9727 1062.7344,471.0039 L1062.7344,472.0977 Q1062.7344,473.332 1063.625,474.1602 Q1064.5156,474.9727 1066.1094,474.9727 Q1067.0469,474.9727 1067.7031,474.7227 Q1068.0938,474.5664 1068.5156,474.1289 Q1068.7813,473.8633 1068.9219,473.7852 Q1069.0781,473.707 1069.2813,473.707 Q1069.6094,473.707 1069.8594,473.9727 Q1070.125,474.2227 1070.125,474.5664 Q1070.125,474.9102 1069.7813,475.3164 Q1069.2813,475.8945 1068.4844,476.2227 Q1067.4063,476.6758 1066.1094,476.6758 Q1064.5938,476.6758 1063.3906,476.0508 Q1062.4063,475.5508 1061.7188,474.4883 Q1061.0313,473.4102 1061.0313,472.1289 L1061.0313,470.9727 Q1061.0313,469.6445 1061.6406,468.5039 Q1062.2656,467.3477 1063.3594,466.7383 Q1064.4531,466.1133 1065.6875,466.1133 Q1066.4219,466.1133 1067.0625,466.2852 Q1067.7188,466.4414 1068.2656,466.8008 Z " fill="#000000"/><text fill="#000000" font-family="sans-serif" font-size="12" font-style="italic" lengthAdjust="spacing" textLength="27" x="1137.5" y="466.584">&#171;vo&#187;</text><text fill="#000000" font-family="sans-serif" font-size="14" lengthAdjust="spacing" textLength="143" x="1079.5" y="484.7031">CourseEnrollmentDate</text><line style="stroke:#181818;stroke-width:0.5;" x1="1051.5" x2="1224.5" y1="493.2168" y2="493.2168"/><line style="stroke:#181818;stroke-width:0.5;" x1="1051.5" x2="1224.5" y1="501.2168" y2="501.2168"/></g><!--link Course to State--><g id="link_Course_State"><path codeLine="12" d="M1578.87,517.8448 C1592.25,535.9448 1608.33,557.6948 1622.08,576.3048 " fill="none" id="Course-to-State" style="stroke:#181818;stroke-width:1.0;"/><polygon fill="#181818" points="1625.16,580.4748,1623.0368,570.8575,1622.1921,576.4509,1616.5986,575.6062,1625.16,580.4748" style="stroke:#181818;stroke-width:1.0;"/><text fill="#000000" font-family="sans-serif" font-size="13" lengthAdjust="spacing" textLength="7" x="1612.7734" y="569.4617">1</text></g><!--link Course to Title--><g id="link_Course_Title"><path codeLine="13" d="M1551,517.8448 C1551,538.2048 1551,563.1848 1551,583.1248 " fill="none" id="Course-to-Title" style="stroke:#181818;stroke-width:1.0;"/><polygon fill="#181818" points="1551,588.3348,1555,579.3348,1551,583.3348,1547,579.3348,1551,588.3348" style="stroke:#181818;stroke-width:1.0;"/><text fill="#000000" font-family="sans-serif" font-size="13" lengthAdjust="spacing" textLength="7" x="1543.2781" y="577.3306">1</text></g><!--link Course to Description--><g id="link_Course_Description"><path codeLine="14" d="M1519.3,517.8448 C1501.82,538.6448 1480.29,564.2548 1463.37,584.3848 " fill="none" id="Course-to-Description" style="stroke:#181818;stroke-width:1.0;"/><polygon fill="#181818" points="1460.05,588.3348,1468.9004,584.0139,1463.265,584.5054,1462.7734,578.8699,1460.05,588.3348" style="stroke:#181818;stroke-width:1.0;"/><text fill="#000000" font-family="sans-serif" font-size="13" lengthAdjust="spacing" textLength="7" x="1457.4947" y="577.3306">1</text></g><!--link Course to Code--><g id="link_Course_Code"><path codeLine="15" d="M1511.86,499.4348 C1473.79,518.6448 1414.75,549.6748 1366,580.6348 C1361.45,583.5248 1356.78,586.6748 1352.19,589.8948 " fill="none" id="Course-to-Code" style="stroke:#181818;stroke-width:1.0;"/><polygon fill="#181818" points="1348.01,592.8548,1357.6689,590.9298,1352.094,589.9702,1353.0537,584.3954,1348.01,592.8548" style="stroke:#181818;stroke-width:1.0;"/><text fill="#000000" font-family="sans-serif" font-size="13" lengthAdjust="spacing" textLength="7" x="1355.9966" y="582.3525">1</text></g><!--link Course to Teacher--><g id="link_Course_Teacher"><path codeLine="16" d="M1590.2,500.5348 C1623.52,518.9248 1671.6,548.0248 1708,580.6348 C1753.97,621.8148 1796.78,680.2248 1819.98,714.1948 " fill="none" id="Course-to-Teacher" style="stroke:#181818;stroke-width:1.0;"/><polygon fill="#181818" points="1822.98,718.6248,1821.2544,708.9283,1820.1802,714.4822,1814.6263,713.408,1822.98,718.6248" style="stroke:#181818;stroke-width:1.0;"/><text fill="#000000" font-family="sans-serif" font-size="13" lengthAdjust="spacing" textLength="84" x="1778" y="624.6631">have a team of</text><text fill="#000000" font-family="sans-serif" font-size="13" lengthAdjust="spacing" textLength="5" x="1813.4905" y="707.3597">*</text></g><!--link Course to Teacher--><g id="link_Course_Teacher"><path codeLine="17" d="M1590.23,486.5848 C1668.02,500.2448 1837.27,534.6948 1871,580.6348 C1900.09,620.2548 1875.08,679.4548 1855.62,713.9448 " fill="none" id="Course-to-Teacher-1" style="stroke:#181818;stroke-width:1.0;"/><polygon fill="#181818" points="1853.03,718.4348,1860.9806,712.6221,1855.5199,714.0988,1854.0431,708.6382,1853.03,718.4348" style="stroke:#181818;stroke-width:1.0;"/><text fill="#000000" font-family="sans-serif" font-size="13" lengthAdjust="spacing" textLength="60" x="1885" y="624.6631">is ruled by</text><text fill="#000000" font-family="sans-serif" font-size="13" lengthAdjust="spacing" textLength="7" x="1848.8404" y="707.5279">1</text></g><!--link Student to MechanographicalNumber--><g id="link_Student_MechanographicalNumber"><path codeLine="31" d="M517.29,129.6948 C454.94,142.2448 333.03,170.6548 238,216.6348 C210.41,229.9848 182.25,249.6148 160.47,266.3848 " fill="none" id="Student-to-MechanographicalNumber" style="stroke:#181818;stroke-width:1.0;"/><polygon fill="#181818" points="156.48,269.4748,166.0435,267.1211,160.4314,266.411,161.1415,260.7989,156.48,269.4748" style="stroke:#181818;stroke-width:1.0;"/><text fill="#000000" font-family="sans-serif" font-size="13" lengthAdjust="spacing" textLength="7" x="156.0759" y="258.4994">1</text></g><!--link Student to SystemUser--><g id="link_Student_SystemUser"><path codeLine="32" d="M597.05,159.6348 C614.49,176.7248 635.09,197.3848 653,216.6348 C669.73,234.6148 687.78,255.6048 701.49,271.9148 " fill="none" id="Student-to-SystemUser" style="stroke:#181818;stroke-width:1.0;"/><polygon fill="#181818" points="704.88,275.9548,702.1566,266.4899,701.665,272.1254,696.0296,271.6339,704.88,275.9548" style="stroke:#181818;stroke-width:1.0;"/><text fill="#000000" font-family="sans-serif" font-size="13" lengthAdjust="spacing" textLength="7" x="595.7158" y="181.2133">1</text></g><!--link Student to StudentDateOfBirth--><g id="link_Student_StudentDateOfBirth"><path codeLine="34" d="M558,159.6748 C558,190.6548 558,234.2848 558,264.4548 " fill="none" id="Student-to-StudentDateOfBirth" style="stroke:#181818;stroke-width:1.0;"/><polygon fill="#181818" points="558,269.5548,562,260.5548,558,264.5548,554,260.5548,558,269.5548" style="stroke:#181818;stroke-width:1.0;"/><text fill="#000000" font-family="sans-serif" font-size="13" lengthAdjust="spacing" textLength="7" x="550.2781" y="258.5959">1</text></g><!--link Student to StudentTaxPayerNumber--><g id="link_Student_StudentTaxPayerNumber"><path codeLine="35" d="M517.4,156.6848 C480.21,188.3248 425.54,234.8548 388.9,266.0348 " fill="none" id="Student-to-StudentTaxPayerNumber" style="stroke:#181818;stroke-width:1.0;"/><polygon fill="#181818" points="384.97,269.3748,394.4177,266.5927,388.7793,266.1361,389.2359,260.4977,384.97,269.3748" style="stroke:#181818;stroke-width:1.0;"/><text fill="#000000" font-family="sans-serif" font-size="13" lengthAdjust="spacing" textLength="7" x="384.4607" y="258.3788">1</text></g><!--link CourseEnrollment to Course--><g id="link_CourseEnrollment_Course"><path codeLine="46" d="M1103.58,325.8348 C1213.08,363.1148 1417.26,432.6148 1506.89,463.1248 " fill="none" id="CourseEnrollment-to-Course" style="stroke:#181818;stroke-width:1.0;"/><polygon fill="#181818" points="1511.85,464.8048,1504.625,458.1115,1507.1181,463.1894,1502.0403,465.6825,1511.85,464.8048" style="stroke:#181818;stroke-width:1.0;"/><text fill="#000000" font-family="sans-serif" font-size="13" lengthAdjust="spacing" textLength="56" x="1276" y="383.6631">applied to</text><text fill="#000000" font-family="sans-serif" font-size="13" lengthAdjust="spacing" textLength="7" x="1496.9864" y="457.6928">1</text></g><!--link CourseEnrollment to StudentEnrollmentState--><g id="link_CourseEnrollment_StudentEnrollmentState"><path codeLine="47" d="M1008.52,338.6748 C991.43,367.2048 967.92,406.4548 950.2,436.0548 " fill="none" id="CourseEnrollment-to-StudentEnrollmentState" style="stroke:#181818;stroke-width:1.0;"/><polygon fill="#181818" points="947.63,440.3448,955.6904,434.6853,950.2025,436.0573,948.8305,430.5693,947.63,440.3448" style="stroke:#181818;stroke-width:1.0;"/><text fill="#000000" font-family="sans-serif" font-size="13" lengthAdjust="spacing" textLength="7" x="943.918" y="429.3094">1</text></g><!--link CourseEnrollment to CourseEnrollmentDate--><g id="link_CourseEnrollment_CourseEnrollmentDate"><path codeLine="48" d="M1053.69,338.6748 C1072.58,369.9148 1099.23,414.0048 1117.49,444.2048 " fill="none" id="CourseEnrollment-to-CourseEnrollmentDate" style="stroke:#181818;stroke-width:1.0;"/><polygon fill="#181818" points="1120.12,448.5548,1118.8956,438.7823,1117.537,444.2736,1112.0457,442.9151,1120.12,448.5548" style="stroke:#181818;stroke-width:1.0;"/><text fill="#000000" font-family="sans-serif" font-size="13" lengthAdjust="spacing" textLength="7" x="1108.7104" y="437.5959">1</text></g><!--reverse link Student to CourseEnrollment--><g id="link_Student_CourseEnrollment"><path codeLine="49" d="M603.54,139.1748 C685.68,169.9148 859.3,234.8848 958.13,271.8648 " fill="none" id="Student-backto-CourseEnrollment" style="stroke:#181818;stroke-width:1.0;"/><polygon fill="#181818" points="598.74,137.3748,605.7809,144.2614,603.4263,139.1179,608.5699,136.7633,598.74,137.3748" style="stroke:#181818;stroke-width:1.0;"/><text fill="#000000" font-family="sans-serif" font-size="13" lengthAdjust="spacing" textLength="56" x="781" y="204.6631">applies to</text><text fill="#000000" font-family="sans-serif" font-size="13" lengthAdjust="spacing" textLength="7" x="606.6203" y="135.8484">1</text></g><!--SRC=[ZPC_RuCm4CLtFiM9fL8bXgwHvI59j_wJIBixS0bM34QsIOkYVlSQuuGuaAICztxcdk-T3JS2OTw87JnNIWe1gMboh8o6UGkBz2kAeffbExP5Y0bXMmKBsIYDbCQ72EoN2QQrBn9YJtBJKag8aj9GUlWDe1o1aBsazAowH9qfNXikgruBpgmwWnFrr33ZwrtNfdIw0tel04b28NwAUpHKSlbTUTKrkAgUcRlATDSw5nFN-D7-6bbMe88P56oFmC0WAq5kGjZREB5SWse4vh1kxV3jdKO9-8XS1C58NFbE2A-O5QoIMyNgWcTCl3Nb6jNaXDtlLkpdWxMexd5BE-JtpPmhKvmWHtbzo6FQGS1sM8UdhJPOVcelFnnraYHkmY-OcKQXdLhDbE4PhwqB7Vngs89BcxUmyDPz2bTUGlzkocCWbszYaE5EChxrSC0jBeoM_7g7vS1xRkGXEIsjMxyPiBeMt6wRaRSFJBlxJvFGtoZdBijBy6XBTxRiyFy0]--></g></svg>