<?xml version="1.0" encoding="us-ascii" standalone="no"?><svg xmlns="http://www.w3.org/2000/svg" xmlns:xlink="http://www.w3.org/1999/xlink" contentStyleType="text/css" height="277px" preserveAspectRatio="none" style="width:628px;height:277px;background:#FFFFFF;" version="1.1" viewBox="0 0 628 277" width="628px" zoomAndPan="magnify"><defs/><g><!--cluster <<agr Course>>--><g id="cluster_&lt;&lt;agr Course&gt;&gt;"><path d="M8.5,6 L103.5,6 A3.75,3.75 0 0 1 106,8.5 L113,27.6406 L618.5,27.6406 A2.5,2.5 0 0 1 621,30.1406 L621,267.5 A2.5,2.5 0 0 1 618.5,270 L8.5,270 A2.5,2.5 0 0 1 6,267.5 L6,8.5 A2.5,2.5 0 0 1 8.5,6 " fill="none" style="stroke:#000000;stroke-width:1.5;"/><line style="stroke:#000000;stroke-width:1.5;" x1="6" x2="113" y1="27.6406" y2="27.6406"/><text fill="#000000" font-family="sans-serif" font-size="14" font-weight="bold" lengthAdjust="spacing" textLength="94" x="10" y="20.6738">&#171;agr Course&#187;</text></g><!--class Course--><g id="elem_Course"><rect codeLine="4" fill="#F1F1F1" height="68.4531" id="Course" rx="2.5" ry="2.5" style="stroke:#181818;stroke-width:0.5;" width="78" x="286" y="40"/><ellipse cx="301" cy="66.2266" fill="#ADD1B2" rx="11" ry="11" style="stroke:#181818;stroke-width:1.0;"/><path d="M303.7656,62.1016 Q303.9219,61.8828 304.1094,61.7734 Q304.2969,61.6641 304.5156,61.6641 Q304.8906,61.6641 305.125,61.9297 Q305.3594,62.1797 305.3594,62.7891 L305.3594,64.2422 Q305.3594,64.8516 305.125,65.1172 Q304.8906,65.3828 304.5156,65.3828 Q304.1719,65.3828 303.9688,65.1797 Q303.7656,64.9922 303.6563,64.4766 Q303.6094,64.1172 303.4219,63.9297 Q303.0938,63.5547 302.4844,63.3359 Q301.875,63.1172 301.25,63.1172 Q300.4844,63.1172 299.8438,63.4453 Q299.2188,63.7734 298.7188,64.5234 Q298.2344,65.2734 298.2344,66.3047 L298.2344,67.3984 Q298.2344,68.6328 299.125,69.4609 Q300.0156,70.2734 301.6094,70.2734 Q302.5469,70.2734 303.2031,70.0234 Q303.5938,69.8672 304.0156,69.4297 Q304.2813,69.1641 304.4219,69.0859 Q304.5781,69.0078 304.7813,69.0078 Q305.1094,69.0078 305.3594,69.2734 Q305.625,69.5234 305.625,69.8672 Q305.625,70.2109 305.2813,70.6172 Q304.7813,71.1953 303.9844,71.5234 Q302.9063,71.9766 301.6094,71.9766 Q300.0938,71.9766 298.8906,71.3516 Q297.9063,70.8516 297.2188,69.7891 Q296.5313,68.7109 296.5313,67.4297 L296.5313,66.2734 Q296.5313,64.9453 297.1406,63.8047 Q297.7656,62.6484 298.8594,62.0391 Q299.9531,61.4141 301.1875,61.4141 Q301.9219,61.4141 302.5625,61.5859 Q303.2188,61.7422 303.7656,62.1016 Z " fill="#000000"/><text fill="#000000" font-family="sans-serif" font-size="12" font-style="italic" lengthAdjust="spacing" textLength="43" x="316.5" y="55.8633">&#171;entity&#187;</text><text fill="#000000" font-family="sans-serif" font-size="12" font-style="italic" lengthAdjust="spacing" textLength="35" x="320.5" y="69.2695">&#171;root&#187;</text><text fill="#000000" font-family="sans-serif" font-size="14" lengthAdjust="spacing" textLength="46" x="315" y="84.4863">Course</text><line style="stroke:#181818;stroke-width:0.5;" x1="287" x2="363" y1="92.4531" y2="92.4531"/><line style="stroke:#181818;stroke-width:0.5;" x1="287" x2="363" y1="100.4531" y2="100.4531"/></g><!--class CourseCode--><g id="elem_CourseCode"><rect codeLine="5" fill="#F1F1F1" height="55.0469" id="CourseCode" rx="2.5" ry="2.5" style="stroke:#181818;stroke-width:0.5;" width="112" x="22" y="183.5"/><ellipse cx="37" cy="203.0234" fill="#ADD1B2" rx="11" ry="11" style="stroke:#181818;stroke-width:1.0;"/><path d="M39.7656,198.8984 Q39.9219,198.6797 40.1094,198.5703 Q40.2969,198.4609 40.5156,198.4609 Q40.8906,198.4609 41.125,198.7266 Q41.3594,198.9766 41.3594,199.5859 L41.3594,201.0391 Q41.3594,201.6484 41.125,201.9141 Q40.8906,202.1797 40.5156,202.1797 Q40.1719,202.1797 39.9688,201.9766 Q39.7656,201.7891 39.6563,201.2734 Q39.6094,200.9141 39.4219,200.7266 Q39.0938,200.3516 38.4844,200.1328 Q37.875,199.9141 37.25,199.9141 Q36.4844,199.9141 35.8438,200.2422 Q35.2188,200.5703 34.7188,201.3203 Q34.2344,202.0703 34.2344,203.1016 L34.2344,204.1953 Q34.2344,205.4297 35.125,206.2578 Q36.0156,207.0703 37.6094,207.0703 Q38.5469,207.0703 39.2031,206.8203 Q39.5938,206.6641 40.0156,206.2266 Q40.2813,205.9609 40.4219,205.8828 Q40.5781,205.8047 40.7813,205.8047 Q41.1094,205.8047 41.3594,206.0703 Q41.625,206.3203 41.625,206.6641 Q41.625,207.0078 41.2813,207.4141 Q40.7813,207.9922 39.9844,208.3203 Q38.9063,208.7734 37.6094,208.7734 Q36.0938,208.7734 34.8906,208.1484 Q33.9063,207.6484 33.2188,206.5859 Q32.5313,205.5078 32.5313,204.2266 L32.5313,203.0703 Q32.5313,201.7422 33.1406,200.6016 Q33.7656,199.4453 34.8594,198.8359 Q35.9531,198.2109 37.1875,198.2109 Q37.9219,198.2109 38.5625,198.3828 Q39.2188,198.5391 39.7656,198.8984 Z " fill="#000000"/><text fill="#000000" font-family="sans-serif" font-size="12" font-style="italic" lengthAdjust="spacing" textLength="27" x="77.5" y="199.3633">&#171;vo&#187;</text><text fill="#000000" font-family="sans-serif" font-size="14" lengthAdjust="spacing" textLength="80" x="51" y="214.5801">CourseCode</text><line style="stroke:#181818;stroke-width:0.5;" x1="23" x2="133" y1="222.5469" y2="222.5469"/><line style="stroke:#181818;stroke-width:0.5;" x1="23" x2="133" y1="230.5469" y2="230.5469"/></g><!--class CourseDescription--><g id="elem_CourseDescription"><rect codeLine="6" fill="#F1F1F1" height="55.0469" id="CourseDescription" rx="2.5" ry="2.5" style="stroke:#181818;stroke-width:0.5;" width="149" x="169.5" y="183.5"/><ellipse cx="184.5" cy="203.0234" fill="#ADD1B2" rx="11" ry="11" style="stroke:#181818;stroke-width:1.0;"/><path d="M187.2656,198.8984 Q187.4219,198.6797 187.6094,198.5703 Q187.7969,198.4609 188.0156,198.4609 Q188.3906,198.4609 188.625,198.7266 Q188.8594,198.9766 188.8594,199.5859 L188.8594,201.0391 Q188.8594,201.6484 188.625,201.9141 Q188.3906,202.1797 188.0156,202.1797 Q187.6719,202.1797 187.4688,201.9766 Q187.2656,201.7891 187.1563,201.2734 Q187.1094,200.9141 186.9219,200.7266 Q186.5938,200.3516 185.9844,200.1328 Q185.375,199.9141 184.75,199.9141 Q183.9844,199.9141 183.3438,200.2422 Q182.7188,200.5703 182.2188,201.3203 Q181.7344,202.0703 181.7344,203.1016 L181.7344,204.1953 Q181.7344,205.4297 182.625,206.2578 Q183.5156,207.0703 185.1094,207.0703 Q186.0469,207.0703 186.7031,206.8203 Q187.0938,206.6641 187.5156,206.2266 Q187.7813,205.9609 187.9219,205.8828 Q188.0781,205.8047 188.2813,205.8047 Q188.6094,205.8047 188.8594,206.0703 Q189.125,206.3203 189.125,206.6641 Q189.125,207.0078 188.7813,207.4141 Q188.2813,207.9922 187.4844,208.3203 Q186.4063,208.7734 185.1094,208.7734 Q183.5938,208.7734 182.3906,208.1484 Q181.4063,207.6484 180.7188,206.5859 Q180.0313,205.5078 180.0313,204.2266 L180.0313,203.0703 Q180.0313,201.7422 180.6406,200.6016 Q181.2656,199.4453 182.3594,198.8359 Q183.4531,198.2109 184.6875,198.2109 Q185.4219,198.2109 186.0625,198.3828 Q186.7188,198.5391 187.2656,198.8984 Z " fill="#000000"/><text fill="#000000" font-family="sans-serif" font-size="12" font-style="italic" lengthAdjust="spacing" textLength="27" x="243.5" y="199.3633">&#171;vo&#187;</text><text fill="#000000" font-family="sans-serif" font-size="14" lengthAdjust="spacing" textLength="117" x="198.5" y="214.5801">CourseDescription</text><line style="stroke:#181818;stroke-width:0.5;" x1="170.5" x2="317.5" y1="222.5469" y2="222.5469"/><line style="stroke:#181818;stroke-width:0.5;" x1="170.5" x2="317.5" y1="230.5469" y2="230.5469"/></g><!--class CourseTitle--><g id="elem_CourseTitle"><rect codeLine="7" fill="#F1F1F1" height="55.0469" id="CourseTitle" rx="2.5" ry="2.5" style="stroke:#181818;stroke-width:0.5;" width="105" x="353.5" y="183.5"/><ellipse cx="368.5" cy="203.0234" fill="#ADD1B2" rx="11" ry="11" style="stroke:#181818;stroke-width:1.0;"/><path d="M371.2656,198.8984 Q371.4219,198.6797 371.6094,198.5703 Q371.7969,198.4609 372.0156,198.4609 Q372.3906,198.4609 372.625,198.7266 Q372.8594,198.9766 372.8594,199.5859 L372.8594,201.0391 Q372.8594,201.6484 372.625,201.9141 Q372.3906,202.1797 372.0156,202.1797 Q371.6719,202.1797 371.4688,201.9766 Q371.2656,201.7891 371.1563,201.2734 Q371.1094,200.9141 370.9219,200.7266 Q370.5938,200.3516 369.9844,200.1328 Q369.375,199.9141 368.75,199.9141 Q367.9844,199.9141 367.3438,200.2422 Q366.7188,200.5703 366.2188,201.3203 Q365.7344,202.0703 365.7344,203.1016 L365.7344,204.1953 Q365.7344,205.4297 366.625,206.2578 Q367.5156,207.0703 369.1094,207.0703 Q370.0469,207.0703 370.7031,206.8203 Q371.0938,206.6641 371.5156,206.2266 Q371.7813,205.9609 371.9219,205.8828 Q372.0781,205.8047 372.2813,205.8047 Q372.6094,205.8047 372.8594,206.0703 Q373.125,206.3203 373.125,206.6641 Q373.125,207.0078 372.7813,207.4141 Q372.2813,207.9922 371.4844,208.3203 Q370.4063,208.7734 369.1094,208.7734 Q367.5938,208.7734 366.3906,208.1484 Q365.4063,207.6484 364.7188,206.5859 Q364.0313,205.5078 364.0313,204.2266 L364.0313,203.0703 Q364.0313,201.7422 364.6406,200.6016 Q365.2656,199.4453 366.3594,198.8359 Q367.4531,198.2109 368.6875,198.2109 Q369.4219,198.2109 370.0625,198.3828 Q370.7188,198.5391 371.2656,198.8984 Z " fill="#000000"/><text fill="#000000" font-family="sans-serif" font-size="12" font-style="italic" lengthAdjust="spacing" textLength="27" x="405.5" y="199.3633">&#171;vo&#187;</text><text fill="#000000" font-family="sans-serif" font-size="14" lengthAdjust="spacing" textLength="73" x="382.5" y="214.5801">CourseTitle</text><line style="stroke:#181818;stroke-width:0.5;" x1="354.5" x2="457.5" y1="222.5469" y2="222.5469"/><line style="stroke:#181818;stroke-width:0.5;" x1="354.5" x2="457.5" y1="230.5469" y2="230.5469"/></g><!--class CourseState--><g id="elem_CourseState"><rect codeLine="8" fill="#F1F1F1" height="86.3281" id="CourseState" rx="2.5" ry="2.5" style="stroke:#181818;stroke-width:0.5;" width="111" x="493.5" y="168"/><ellipse cx="508.5" cy="187.5234" fill="#EB937F" rx="11" ry="11" style="stroke:#181818;stroke-width:1.0;"/><path d="M507.3594,188.3203 L507.3594,190.8203 L511.6875,190.8203 L511.6875,189.8984 Q511.6875,189.2891 511.9219,189.0234 Q512.1719,188.7578 512.5469,188.7578 Q512.9219,188.7578 513.1563,189.0234 Q513.3906,189.2891 513.3906,189.8984 L513.3906,192.5234 L505.3906,192.5234 Q504.7656,192.5234 504.5,192.2891 Q504.25,192.0547 504.25,191.6641 Q504.25,191.2891 504.5156,191.0547 Q504.7813,190.8203 505.3906,190.8203 L505.6563,190.8203 L505.6563,184.1641 L505.3906,184.1641 Q504.7656,184.1641 504.5,183.9297 Q504.25,183.6953 504.25,183.3047 Q504.25,182.9297 504.5,182.6953 Q504.7656,182.4609 505.3906,182.4609 L513.0156,182.4609 L513.0156,185.0547 Q513.0156,185.6641 512.7813,185.9297 Q512.5625,186.1797 512.1719,186.1797 Q511.7969,186.1797 511.5625,185.9297 Q511.3281,185.6641 511.3281,185.0547 L511.3281,184.1641 L507.3594,184.1641 L507.3594,186.6172 L508.8438,186.6172 Q508.8438,185.9609 508.9688,185.7734 Q509.2344,185.3672 509.7031,185.3672 Q510.0781,185.3672 510.3125,185.6328 Q510.5469,185.8828 510.5469,186.4922 L510.5469,188.4609 Q510.5469,189.0078 510.4219,189.1953 Q510.1563,189.5859 509.7031,189.5859 Q509.2344,189.5859 508.9688,189.1797 Q508.8438,188.9922 508.8438,188.3203 L507.3594,188.3203 Z " fill="#000000"/><text fill="#000000" font-family="sans-serif" font-size="12" font-style="italic" lengthAdjust="spacing" textLength="27" x="548.5" y="183.8633">&#171;vo&#187;</text><text fill="#000000" font-family="sans-serif" font-size="14" lengthAdjust="spacing" textLength="79" x="522.5" y="199.0801">CourseState</text><line style="stroke:#181818;stroke-width:0.5;" x1="494.5" x2="603.5" y1="207.0469" y2="207.0469"/><text fill="#000000" font-family="sans-serif" font-size="14" lengthAdjust="spacing" textLength="38" x="499.5" y="223.7207">OPEN</text><text fill="#000000" font-family="sans-serif" font-size="14" lengthAdjust="spacing" textLength="47" x="499.5" y="239.3613">CLOSE</text><line style="stroke:#181818;stroke-width:0.5;" x1="494.5" x2="603.5" y1="246.3281" y2="246.3281"/></g><!--link Course to CourseState--><g id="link_Course_CourseState"><path codeLine="13" d="M364.02,98.52 C398.49,119.29 449.29,149.91 488.94,173.8 " fill="none" id="Course-to-CourseState" style="stroke:#181818;stroke-width:1.0;"/><polygon fill="#181818" points="493.22,176.39,487.5922,168.3074,488.9427,173.8007,483.4494,175.1511,493.22,176.39" style="stroke:#181818;stroke-width:1.0;"/><text fill="#000000" font-family="sans-serif" font-size="13" lengthAdjust="spacing" textLength="7" x="478.6248" y="168.8398">1</text></g><!--link Course to CourseTitle--><g id="link_Course_CourseTitle"><path codeLine="14" d="M344.81,108.02 C357.76,129.6 374.55,157.59 387.27,178.79 " fill="none" id="Course-to-CourseTitle" style="stroke:#181818;stroke-width:1.0;"/><polygon fill="#181818" points="389.92,183.2,388.6956,173.4275,387.337,178.9188,381.8457,177.5603,389.92,183.2" style="stroke:#181818;stroke-width:1.0;"/><text fill="#000000" font-family="sans-serif" font-size="13" lengthAdjust="spacing" textLength="7" x="378.1474" y="172.5441">1</text></g><!--link Course to CourseDescription--><g id="link_Course_CourseDescription"><path codeLine="15" d="M305.19,108.02 C292.24,129.6 275.45,157.59 262.73,178.79 " fill="none" id="Course-to-CourseDescription" style="stroke:#181818;stroke-width:1.0;"/><polygon fill="#181818" points="260.08,183.2,268.1543,177.5603,262.663,178.9188,261.3044,173.4275,260.08,183.2" style="stroke:#181818;stroke-width:1.0;"/><text fill="#000000" font-family="sans-serif" font-size="13" lengthAdjust="spacing" textLength="7" x="256.1464" y="172.5441">1</text></g><!--link Course to CourseCode--><g id="link_Course_CourseCode"><path codeLine="16" d="M285.7,95.8 C250.54,114.48 197.67,142.77 152,168 C144.61,172.08 136.83,176.43 129.21,180.73 " fill="none" id="Course-to-CourseCode" style="stroke:#181818;stroke-width:1.0;"/><polygon fill="#181818" points="124.49,183.4,134.2929,182.4495,128.8417,180.9378,130.3534,175.4867,124.49,183.4" style="stroke:#181818;stroke-width:1.0;"/><text fill="#000000" font-family="sans-serif" font-size="13" lengthAdjust="spacing" textLength="7" x="127.9688" y="172.7929">1</text></g><!--SRC=[VP312eCm343l_OhIkuVTGoxEsvW3zmD5WvIvLjguCSH_dwiAYiDSslIzXAIjBX-w9ga0TErbwZeV257rGevHDZg4-H60B1l-809uvnYn7tPIwYgI02-7k6Dd2gKtBHjd9-DF_TrmGnjAjdlEi63D2uniZFoMNPTxUicBB2Q3YCTK9fC4fJgfTPSDhjpRRfGunR6oMkPO_Fs86CGN]--></g></svg>