<?xml version="1.0" encoding="UTF-8" standalone="no"?><svg xmlns="http://www.w3.org/2000/svg" xmlns:xlink="http://www.w3.org/1999/xlink" contentStyleType="text/css" height="673px" preserveAspectRatio="none" style="width:652px;height:673px;background:#FFFFFF;" version="1.1" viewBox="0 0 652 673" width="652px" zoomAndPan="magnify"><defs/><g><!--MD5=[8bd8122c978da19386f74f6644c991b7]
class ListUserExamsUI--><g id="elem_ListUserExamsUI"><rect codeLine="2" fill="#F1F1F1" height="65.6094" id="ListUserExamsUI" rx="2.5" ry="2.5" style="stroke:#181818;stroke-width:0.5;" width="136" x="224.5" y="7"/><ellipse cx="239.5" cy="23" fill="#ADD1B2" rx="11" ry="11" style="stroke:#181818;stroke-width:1.0;"/><path d="M241.5,19.5 Q241.7031,19 241.9375,18.75 Q242.1719,18.5 242.4375,18.5 Q242.9063,18.5 243.2031,18.7813 Q243.5,19.0625 243.5,19.7188 L243.5,21.2813 Q243.5,21.9375 243.2188,22.2188 Q242.9375,22.5 242.5,22.5 Q242.1094,22.5 241.8594,22.3281 Q241.6094,22.1563 241.5,21.7031 Q241.4531,21.3906 241.2813,21.2188 Q240.9688,20.8906 240.4063,20.7031 Q239.8438,20.5 239.2813,20.5 Q238.5781,20.5 237.9844,20.7813 Q237.4063,21.0625 236.9531,21.6875 Q236.5,22.3125 236.5,23.1719 L236.5,24.0938 Q236.5,25.125 237.3438,25.8125 Q238.1875,26.5 239.6875,26.5 Q240.5781,26.5 241.2031,26.2969 Q241.5625,26.1875 241.9688,25.8281 Q242.2344,25.625 242.375,25.5625 Q242.5156,25.5 242.6875,25.5 Q243.0156,25.5 243.25,25.7656 Q243.5,26.0156 243.5,26.375 Q243.5,26.7188 243.1563,27.125 Q242.6563,27.7188 241.8594,28.0469 Q240.8125,28.5 239.5313,28.5 Q238.0313,28.5 236.8281,27.9063 Q235.8594,27.4375 235.1719,26.4219 Q234.5,25.4063 234.5,24.2031 L234.5,23.1094 Q234.5,21.8594 235.0938,20.7656 Q235.7031,19.6719 236.75,19.0938 Q237.8125,18.5 239,18.5 Q239.7188,18.5 240.3438,18.75 Q240.9688,19 241.5,19.5 Z " fill="#000000"/><text fill="#000000" font-family="sans-serif" font-size="14" lengthAdjust="spacing" textLength="104" x="253.5" y="28.7285">ListUserExamsUI</text><line style="stroke:#181818;stroke-width:0.5;" x1="225.5" x2="359.5" y1="39" y2="39"/><line style="stroke:#181818;stroke-width:0.5;" x1="225.5" x2="359.5" y1="47" y2="47"/><ellipse cx="235.5" cy="61.3047" fill="#84BE84" rx="3" ry="3" style="stroke:#038048;stroke-width:1.0;"/><text fill="#000000" font-family="sans-serif" font-size="14" lengthAdjust="spacing" textLength="105" x="244.5" y="65.5332">showExamsList()</text></g><!--MD5=[22910152c5a3f5bb98dce32d59bfffd8]
class ListUserExamsController--><g id="elem_ListUserExamsController"><rect codeLine="6" fill="#F1F1F1" height="65.6094" id="ListUserExamsController" rx="2.5" ry="2.5" style="stroke:#181818;stroke-width:0.5;" width="186" x="199.5" y="151"/><ellipse cx="214.5" cy="167" fill="#ADD1B2" rx="11" ry="11" style="stroke:#181818;stroke-width:1.0;"/><path d="M216.5,163.5 Q216.7031,163 216.9375,162.75 Q217.1719,162.5 217.4375,162.5 Q217.9063,162.5 218.2031,162.7813 Q218.5,163.0625 218.5,163.7188 L218.5,165.2813 Q218.5,165.9375 218.2188,166.2188 Q217.9375,166.5 217.5,166.5 Q217.1094,166.5 216.8594,166.3281 Q216.6094,166.1563 216.5,165.7031 Q216.4531,165.3906 216.2813,165.2188 Q215.9688,164.8906 215.4063,164.7031 Q214.8438,164.5 214.2813,164.5 Q213.5781,164.5 212.9844,164.7813 Q212.4063,165.0625 211.9531,165.6875 Q211.5,166.3125 211.5,167.1719 L211.5,168.0938 Q211.5,169.125 212.3438,169.8125 Q213.1875,170.5 214.6875,170.5 Q215.5781,170.5 216.2031,170.2969 Q216.5625,170.1875 216.9688,169.8281 Q217.2344,169.625 217.375,169.5625 Q217.5156,169.5 217.6875,169.5 Q218.0156,169.5 218.25,169.7656 Q218.5,170.0156 218.5,170.375 Q218.5,170.7188 218.1563,171.125 Q217.6563,171.7188 216.8594,172.0469 Q215.8125,172.5 214.5313,172.5 Q213.0313,172.5 211.8281,171.9063 Q210.8594,171.4375 210.1719,170.4219 Q209.5,169.4063 209.5,168.2031 L209.5,167.1094 Q209.5,165.8594 210.0938,164.7656 Q210.7031,163.6719 211.75,163.0938 Q212.8125,162.5 214,162.5 Q214.7188,162.5 215.3438,162.75 Q215.9688,163 216.5,163.5 Z " fill="#000000"/><text fill="#000000" font-family="sans-serif" font-size="14" lengthAdjust="spacing" textLength="154" x="228.5" y="172.7285">ListUserExamsController</text><line style="stroke:#181818;stroke-width:0.5;" x1="200.5" x2="384.5" y1="183" y2="183"/><line style="stroke:#181818;stroke-width:0.5;" x1="200.5" x2="384.5" y1="191" y2="191"/><ellipse cx="210.5" cy="205.3047" fill="#84BE84" rx="3" ry="3" style="stroke:#038048;stroke-width:1.0;"/><text fill="#000000" font-family="sans-serif" font-size="14" lengthAdjust="spacing" textLength="97" x="219.5" y="209.5332">listUserExams()</text></g><!--MD5=[54a33dd013dd881697601ca49de6dfbc]
class AuthorizationService--><g id="elem_AuthorizationService"><rect codeLine="10" fill="#F1F1F1" height="65.6094" id="AuthorizationService" rx="2.5" ry="2.5" style="stroke:#181818;stroke-width:0.5;" width="259" x="7" y="295"/><ellipse cx="67.75" cy="311" fill="#ADD1B2" rx="11" ry="11" style="stroke:#181818;stroke-width:1.0;"/><path d="M69.75,307.5 Q69.9531,307 70.1875,306.75 Q70.4219,306.5 70.6875,306.5 Q71.1563,306.5 71.4531,306.7813 Q71.75,307.0625 71.75,307.7188 L71.75,309.2813 Q71.75,309.9375 71.4688,310.2188 Q71.1875,310.5 70.75,310.5 Q70.3594,310.5 70.1094,310.3281 Q69.8594,310.1563 69.75,309.7031 Q69.7031,309.3906 69.5313,309.2188 Q69.2188,308.8906 68.6563,308.7031 Q68.0938,308.5 67.5313,308.5 Q66.8281,308.5 66.2344,308.7813 Q65.6563,309.0625 65.2031,309.6875 Q64.75,310.3125 64.75,311.1719 L64.75,312.0938 Q64.75,313.125 65.5938,313.8125 Q66.4375,314.5 67.9375,314.5 Q68.8281,314.5 69.4531,314.2969 Q69.8125,314.1875 70.2188,313.8281 Q70.4844,313.625 70.625,313.5625 Q70.7656,313.5 70.9375,313.5 Q71.2656,313.5 71.5,313.7656 Q71.75,314.0156 71.75,314.375 Q71.75,314.7188 71.4063,315.125 Q70.9063,315.7188 70.1094,316.0469 Q69.0625,316.5 67.7813,316.5 Q66.2813,316.5 65.0781,315.9063 Q64.1094,315.4375 63.4219,314.4219 Q62.75,313.4063 62.75,312.2031 L62.75,311.1094 Q62.75,309.8594 63.3438,308.7656 Q63.9531,307.6719 65,307.0938 Q66.0625,306.5 67.25,306.5 Q67.9688,306.5 68.5938,306.75 Q69.2188,307 69.75,307.5 Z " fill="#000000"/><text fill="#000000" font-family="sans-serif" font-size="14" lengthAdjust="spacing" textLength="129" x="88.25" y="316.7285">AuthorizationService</text><line style="stroke:#181818;stroke-width:0.5;" x1="8" x2="265" y1="327" y2="327"/><line style="stroke:#181818;stroke-width:0.5;" x1="8" x2="265" y1="335" y2="335"/><ellipse cx="18" cy="349.3047" fill="#84BE84" rx="3" ry="3" style="stroke:#038048;stroke-width:1.0;"/><text fill="#000000" font-family="sans-serif" font-size="14" lengthAdjust="spacing" textLength="233" x="27" y="353.5332">ensureAuthenticatedUserHasAnyOf()</text></g><!--MD5=[395e0ce56abe2a1470ceefe2b607ffc3]
class IExamService--><g id="elem_IExamService"><rect codeLine="14" fill="#F1F1F1" height="65.6094" id="IExamService" rx="2.5" ry="2.5" style="stroke:#181818;stroke-width:0.5;" width="151" x="301" y="295"/><ellipse cx="331.75" cy="311" fill="#ADD1B2" rx="11" ry="11" style="stroke:#181818;stroke-width:1.0;"/><path d="M333.75,307.5 Q333.9531,307 334.1875,306.75 Q334.4219,306.5 334.6875,306.5 Q335.1563,306.5 335.4531,306.7813 Q335.75,307.0625 335.75,307.7188 L335.75,309.2813 Q335.75,309.9375 335.4688,310.2188 Q335.1875,310.5 334.75,310.5 Q334.3594,310.5 334.1094,310.3281 Q333.8594,310.1563 333.75,309.7031 Q333.7031,309.3906 333.5313,309.2188 Q333.2188,308.8906 332.6563,308.7031 Q332.0938,308.5 331.5313,308.5 Q330.8281,308.5 330.2344,308.7813 Q329.6563,309.0625 329.2031,309.6875 Q328.75,310.3125 328.75,311.1719 L328.75,312.0938 Q328.75,313.125 329.5938,313.8125 Q330.4375,314.5 331.9375,314.5 Q332.8281,314.5 333.4531,314.2969 Q333.8125,314.1875 334.2188,313.8281 Q334.4844,313.625 334.625,313.5625 Q334.7656,313.5 334.9375,313.5 Q335.2656,313.5 335.5,313.7656 Q335.75,314.0156 335.75,314.375 Q335.75,314.7188 335.4063,315.125 Q334.9063,315.7188 334.1094,316.0469 Q333.0625,316.5 331.7813,316.5 Q330.2813,316.5 329.0781,315.9063 Q328.1094,315.4375 327.4219,314.4219 Q326.75,313.4063 326.75,312.2031 L326.75,311.1094 Q326.75,309.8594 327.3438,308.7656 Q327.9531,307.6719 329,307.0938 Q330.0625,306.5 331.25,306.5 Q331.9688,306.5 332.5938,306.75 Q333.2188,307 333.75,307.5 Z " fill="#000000"/><text fill="#000000" font-family="sans-serif" font-size="14" lengthAdjust="spacing" textLength="84" x="349.25" y="316.7285">IExamService</text><line style="stroke:#181818;stroke-width:0.5;" x1="302" x2="451" y1="327" y2="327"/><line style="stroke:#181818;stroke-width:0.5;" x1="302" x2="451" y1="335" y2="335"/><ellipse cx="312" cy="349.3047" fill="#84BE84" rx="3" ry="3" style="stroke:#038048;stroke-width:1.0;"/><text fill="#000000" font-family="sans-serif" font-size="14" lengthAdjust="spacing" textLength="125" x="321" y="353.5332">listUserExams(user)</text></g><!--MD5=[6e9ada766f8be15fbe3b4678318c7898]
class ExamService--><g id="elem_ExamService"><rect codeLine="18" fill="#F1F1F1" height="65.6094" id="ExamService" rx="2.5" ry="2.5" style="stroke:#181818;stroke-width:0.5;" width="151" x="301" y="439"/><ellipse cx="333.1" cy="455" fill="#ADD1B2" rx="11" ry="11" style="stroke:#181818;stroke-width:1.0;"/><path d="M335.1,451.5 Q335.3031,451 335.5375,450.75 Q335.7719,450.5 336.0375,450.5 Q336.5063,450.5 336.8031,450.7813 Q337.1,451.0625 337.1,451.7188 L337.1,453.2813 Q337.1,453.9375 336.8188,454.2188 Q336.5375,454.5 336.1,454.5 Q335.7094,454.5 335.4594,454.3281 Q335.2094,454.1563 335.1,453.7031 Q335.0531,453.3906 334.8813,453.2188 Q334.5688,452.8906 334.0063,452.7031 Q333.4438,452.5 332.8813,452.5 Q332.1781,452.5 331.5844,452.7813 Q331.0063,453.0625 330.5531,453.6875 Q330.1,454.3125 330.1,455.1719 L330.1,456.0938 Q330.1,457.125 330.9438,457.8125 Q331.7875,458.5 333.2875,458.5 Q334.1781,458.5 334.8031,458.2969 Q335.1625,458.1875 335.5688,457.8281 Q335.8344,457.625 335.975,457.5625 Q336.1156,457.5 336.2875,457.5 Q336.6156,457.5 336.85,457.7656 Q337.1,458.0156 337.1,458.375 Q337.1,458.7188 336.7563,459.125 Q336.2563,459.7188 335.4594,460.0469 Q334.4125,460.5 333.1313,460.5 Q331.6313,460.5 330.4281,459.9063 Q329.4594,459.4375 328.7719,458.4219 Q328.1,457.4063 328.1,456.2031 L328.1,455.1094 Q328.1,453.8594 328.6938,452.7656 Q329.3031,451.6719 330.35,451.0938 Q331.4125,450.5 332.6,450.5 Q333.3188,450.5 333.9438,450.75 Q334.5688,451 335.1,451.5 Z " fill="#000000"/><text fill="#000000" font-family="sans-serif" font-size="14" lengthAdjust="spacing" textLength="81" x="350.9" y="460.7285">ExamService</text><line style="stroke:#181818;stroke-width:0.5;" x1="302" x2="451" y1="471" y2="471"/><line style="stroke:#181818;stroke-width:0.5;" x1="302" x2="451" y1="479" y2="479"/><ellipse cx="312" cy="493.3047" fill="#84BE84" rx="3" ry="3" style="stroke:#038048;stroke-width:1.0;"/><text fill="#000000" font-family="sans-serif" font-size="14" lengthAdjust="spacing" textLength="125" x="321" y="497.5332">listUserExams(user)</text></g><!--MD5=[3ee499f49186d42e50124f3efd1ade05]
class ExamRepository--><g id="elem_ExamRepository"><rect codeLine="22" fill="#F1F1F1" height="83.2188" id="ExamRepository" rx="2.5" ry="2.5" style="stroke:#181818;stroke-width:0.5;" width="269" x="242" y="583"/><ellipse cx="321.25" cy="599" fill="#ADD1B2" rx="11" ry="11" style="stroke:#181818;stroke-width:1.0;"/><path d="M323.25,595.5 Q323.4531,595 323.6875,594.75 Q323.9219,594.5 324.1875,594.5 Q324.6563,594.5 324.9531,594.7813 Q325.25,595.0625 325.25,595.7188 L325.25,597.2813 Q325.25,597.9375 324.9688,598.2188 Q324.6875,598.5 324.25,598.5 Q323.8594,598.5 323.6094,598.3281 Q323.3594,598.1563 323.25,597.7031 Q323.2031,597.3906 323.0313,597.2188 Q322.7188,596.8906 322.1563,596.7031 Q321.5938,596.5 321.0313,596.5 Q320.3281,596.5 319.7344,596.7813 Q319.1563,597.0625 318.7031,597.6875 Q318.25,598.3125 318.25,599.1719 L318.25,600.0938 Q318.25,601.125 319.0938,601.8125 Q319.9375,602.5 321.4375,602.5 Q322.3281,602.5 322.9531,602.2969 Q323.3125,602.1875 323.7188,601.8281 Q323.9844,601.625 324.125,601.5625 Q324.2656,601.5 324.4375,601.5 Q324.7656,601.5 325,601.7656 Q325.25,602.0156 325.25,602.375 Q325.25,602.7188 324.9063,603.125 Q324.4063,603.7188 323.6094,604.0469 Q322.5625,604.5 321.2813,604.5 Q319.7813,604.5 318.5781,603.9063 Q317.6094,603.4375 316.9219,602.4219 Q316.25,601.4063 316.25,600.2031 L316.25,599.1094 Q316.25,597.8594 316.8438,596.7656 Q317.4531,595.6719 318.5,595.0938 Q319.5625,594.5 320.75,594.5 Q321.4688,594.5 322.0938,594.75 Q322.7188,595 323.25,595.5 Z " fill="#000000"/><text fill="#000000" font-family="sans-serif" font-size="14" lengthAdjust="spacing" textLength="102" x="341.75" y="604.7285">ExamRepository</text><line style="stroke:#181818;stroke-width:0.5;" x1="243" x2="510" y1="615" y2="615"/><line style="stroke:#181818;stroke-width:0.5;" x1="243" x2="510" y1="623" y2="623"/><ellipse cx="253" cy="637.3047" fill="#84BE84" rx="3" ry="3" style="stroke:#038048;stroke-width:1.0;"/><text fill="#000000" font-family="sans-serif" font-size="14" lengthAdjust="spacing" textLength="84" x="262" y="641.5332">repositories()</text><ellipse cx="253" cy="654.9141" fill="#84BE84" rx="3" ry="3" style="stroke:#038048;stroke-width:1.0;"/><text fill="#000000" font-family="sans-serif" font-size="14" lengthAdjust="spacing" textLength="243" x="262" y="659.1426">listAllExamsOfCoursesOfStudent(user)</text></g><!--MD5=[29c0dbaa2577742515a48a362a1933e3]
link ListUserExamsUI to ListUserExamsController--><g id="link_ListUserExamsUI_ListUserExamsController"><path codeLine="27" d="M267.55,73.13 C261.8,82.29 256.49,92.61 253.5,103 C249.23,117.81 254.21,133.22 261.87,146.51 " fill="none" id="ListUserExamsUI-to-ListUserExamsController" style="stroke:#181818;stroke-width:1.0;stroke-dasharray:7.0,7.0;"/><polygon fill="#181818" points="264.56,150.94,263.2973,141.1724,261.9603,146.669,256.4637,145.332,264.56,150.94" style="stroke:#181818;stroke-width:1.0;"/><text fill="#000000" font-family="sans-serif" font-size="13" lengthAdjust="spacing" textLength="30" x="254.5" y="117.4951">Uses</text></g><!--MD5=[611df5eefef988520b41461c2c27df69]
link ListUserExamsController to ListUserExamsUI--><g id="link_ListUserExamsController_ListUserExamsUI"><path codeLine="35" d="M292.5,150.91 C292.5,129.33 292.5,100.81 292.5,78.24 " fill="none" id="ListUserExamsController-to-ListUserExamsUI" style="stroke:#181818;stroke-width:1.0;"/><polygon fill="#181818" points="292.5,73.22,288.5,82.22,292.5,78.22,296.5,82.22,292.5,73.22" style="stroke:#181818;stroke-width:1.0;"/><text fill="#000000" font-family="sans-serif" font-size="13" lengthAdjust="spacing" textLength="167" x="293.5" y="117.4951">Returns Iterable&lt;ExamDTO&gt;</text></g><!--MD5=[1f4a650e14e2a2b9150adbaacd1b3c34]
link ListUserExamsController to AuthorizationService--><g id="link_ListUserExamsController_AuthorizationService"><path codeLine="28" d="M246.04,217.29 C233.78,226.45 220.83,236.73 209.5,247 C194.6,260.5 179.41,276.69 166.77,290.95 " fill="none" id="ListUserExamsController-to-AuthorizationService" style="stroke:#181818;stroke-width:1.0;stroke-dasharray:7.0,7.0;"/><polygon fill="#181818" points="163.28,294.92,172.2334,290.8168,166.5876,291.1704,166.2341,285.5246,163.28,294.92" style="stroke:#181818;stroke-width:1.0;"/><text fill="#000000" font-family="sans-serif" font-size="13" lengthAdjust="spacing" textLength="30" x="210.5" y="261.4951">Uses</text></g><!--MD5=[3c2d13d199c78d57b9b97fbb30dba538]
link ListUserExamsController to IExamService--><g id="link_ListUserExamsController_IExamService"><path codeLine="29" d="M261.56,217.3 C251.11,232.19 244.18,249.87 253.5,265 C263.47,281.19 279.12,293.31 295.95,302.32 " fill="none" id="ListUserExamsController-to-IExamService" style="stroke:#181818;stroke-width:1.0;stroke-dasharray:7.0,7.0;"/><polygon fill="#181818" points="300.72,304.78,294.5469,297.1058,296.2739,302.4926,290.8871,304.2196,300.72,304.78" style="stroke:#181818;stroke-width:1.0;"/><text fill="#000000" font-family="sans-serif" font-size="13" lengthAdjust="spacing" textLength="30" x="254.5" y="261.4951">Uses</text></g><!--MD5=[3c2d13d199c78d57b9b97fbb30dba538]
link ListUserExamsController to IExamService--><g id="link_ListUserExamsController_IExamService"><path codeLine="30" d="M303.28,217.2 C308.93,232.22 316.54,250.05 325.5,265 C330.79,273.84 337.28,282.74 343.83,290.93 " fill="none" id="ListUserExamsController-to-IExamService-1" style="stroke:#181818;stroke-width:1.0;"/><polygon fill="#181818" points="347.05,294.89,344.5002,285.3769,343.9057,291.0024,338.2801,290.4079,347.05,294.89" style="stroke:#181818;stroke-width:1.0;"/><text fill="#000000" font-family="sans-serif" font-size="13" lengthAdjust="spacing" textLength="126" x="326.5" y="261.4951">Calls listUserExams()</text></g><!--MD5=[0f896605ae1799de81477f217af3c67a]
link IExamService to ListUserExamsController--><g id="link_IExamService_ListUserExamsController"><path codeLine="34" d="M439.11,294.91 C457.37,281.21 469.54,264.39 457.5,247 C441.75,224.26 416.56,209.85 390.56,200.72 " fill="none" id="IExamService-to-ListUserExamsController" style="stroke:#181818;stroke-width:1.0;"/><polygon fill="#181818" points="385.69,199.08,392.9392,205.747,390.4277,200.6783,395.4964,198.1667,385.69,199.08" style="stroke:#181818;stroke-width:1.0;"/><text fill="#000000" font-family="sans-serif" font-size="13" lengthAdjust="spacing" textLength="167" x="463.5" y="261.4951">Returns Iterable&lt;ExamDTO&gt;</text></g><!--MD5=[f727ffa9666c1c3ea5283bf675c42e21]
link IExamService to ExamService--><g id="link_IExamService_ExamService"><path codeLine="31" d="M376.5,361.22 C376.5,382.83 376.5,411.34 376.5,433.9 " fill="none" id="IExamService-to-ExamService" style="stroke:#181818;stroke-width:1.0;"/><polygon fill="#181818" points="376.5,438.91,380.5,429.91,376.5,433.91,372.5,429.91,376.5,438.91" style="stroke:#181818;stroke-width:1.0;"/><text fill="#000000" font-family="sans-serif" font-size="13" lengthAdjust="spacing" textLength="126" x="377.5" y="405.4951">Calls listUserExams()</text></g><!--MD5=[cc4a9c3e48681b772cd9ee4679292ae6]
link ExamService to ExamRepository--><g id="link_ExamService_ExamRepository"><path codeLine="32" d="M376.5,505.29 C376.5,526.4 376.5,554.31 376.5,577.71 " fill="none" id="ExamService-to-ExamRepository" style="stroke:#181818;stroke-width:1.0;"/><polygon fill="#181818" points="376.5,582.93,380.5,573.93,376.5,577.93,372.5,573.93,376.5,582.93" style="stroke:#181818;stroke-width:1.0;"/><text fill="#000000" font-family="sans-serif" font-size="13" lengthAdjust="spacing" textLength="96" x="377.5" y="549.4951">Retrieves exams</text></g><!--MD5=[3b74c1d82212d9425bd248c90ccc92ce]
link ExamService to ExamService--><g id="link_ExamService_ExamService"><path codeLine="33" d="M452.16,458.63 C472,459.42 487,463.88 487,472 C487,479.42 474.47,483.79 457.16,485.09 " fill="none" id="ExamService-to-ExamService" style="stroke:#181818;stroke-width:1.0;"/><polygon fill="#181818" points="452.16,485.37,461.3741,488.8485,457.1518,485.0839,460.9164,480.8616,452.16,485.37" style="stroke:#181818;stroke-width:1.0;"/><text fill="#000000" font-family="sans-serif" font-size="13" lengthAdjust="spacing" textLength="146" x="493" y="477.4951">Returns List&lt;ExamDTO&gt;</text></g><!--MD5=[18e895d69b550802436bac1bf5f3a23c]
@startuml

class ListUserExamsUI {
  +showExamsList()
}

class ListUserExamsController {
  +listUserExams()
}

class AuthorizationService {
  +ensureAuthenticatedUserHasAnyOf()
}

class IExamService {
  +listUserExams(user)
}

class ExamService {
  +listUserExams(user)
}

class ExamRepository {
  +repositories()
  +listAllExamsOfCoursesOfStudent(user)
}

ListUserExamsUI ..> ListUserExamsController : Uses
ListUserExamsController ..> AuthorizationService : Uses
ListUserExamsController ..> IExamService : Uses
ListUserExamsController - -> IExamService : Calls listUserExams()
IExamService - -> ExamService : Calls listUserExams()
ExamService - -> ExamRepository : Retrieves exams
ExamService - -> ExamService : Returns List<ExamDTO>
IExamService - -> ListUserExamsController : Returns Iterable<ExamDTO>
ListUserExamsController - -> ListUserExamsUI : Returns Iterable<ExamDTO>

@enduml

PlantUML version 1.2022.12(Sun Oct 23 19:12:26 BST 2022)
(GPL source distribution)
Java Runtime: OpenJDK Runtime Environment
JVM: OpenJDK 64-Bit Server VM
Default Encoding: Cp1252
Language: en
Country: US
--></g></svg>