<?xml version="1.0" encoding="UTF-8" standalone="no"?><svg xmlns="http://www.w3.org/2000/svg" xmlns:xlink="http://www.w3.org/1999/xlink" contentStyleType="text/css" height="925.1px" preserveAspectRatio="none" style="width:1817px;height:925px;background:#FFFFFF;" version="1.1" viewBox="0 0 1817 925" width="1817.2px" zoomAndPan="magnify"><defs/><g><rect fill="#FFFFFF" height="644.7805" style="stroke:#181818;stroke-width:1.1;" width="11" x="459.25" y="163.8141"/><rect fill="#FFFFFF" height="702.7539" style="stroke:#181818;stroke-width:1.1;" width="11" x="1032.9" y="105.8406"/><rect fill="#FFFFFF" height="702.7539" style="stroke:#181818;stroke-width:1.1;" width="11" x="1452" y="105.8406"/><rect fill="none" height="171.1531" style="stroke:#000000;stroke-width:1.6500000000000001;" width="973.5" x="11" y="313.8609"/><line style="stroke:#181818;stroke-width:0.55;stroke-dasharray:5.0,5.0;" x1="51.7" x2="51.7" y1="94.8406" y2="818.4945"/><line style="stroke:#181818;stroke-width:0.55;stroke-dasharray:5.0,5.0;" x1="283.25" x2="283.25" y1="94.8406" y2="818.4945"/><line style="stroke:#181818;stroke-width:0.55;stroke-dasharray:5.0,5.0;" x1="464.75" x2="464.75" y1="94.8406" y2="818.4945"/><line style="stroke:#181818;stroke-width:0.55;stroke-dasharray:5.0,5.0;" x1="894.3" x2="894.3" y1="94.8406" y2="818.4945"/><line style="stroke:#181818;stroke-width:0.55;stroke-dasharray:5.0,5.0;" x1="1038.4" x2="1038.4" y1="94.8406" y2="818.4945"/><line style="stroke:#181818;stroke-width:0.55;stroke-dasharray:5.0,5.0;" x1="1456.95" x2="1456.95" y1="94.8406" y2="818.4945"/><line style="stroke:#181818;stroke-width:0.55;stroke-dasharray:5.0,5.0;" x1="1756.7" x2="1756.7" y1="94.8406" y2="818.4945"/><text fill="#000000" font-family="sans-serif" font-size="15.4" lengthAdjust="spacing" textLength="53.9" x="22" y="91.4568">Student</text><ellipse cx="52.25" cy="18.8203" fill="#E2E2F0" rx="8.8" ry="8.8" style="stroke:#181818;stroke-width:0.55;"/><path d="M52.25,27.6203 L52.25,57.3203 M37.95,36.4203 L66.55,36.4203 M52.25,57.3203 L37.95,73.8203 M52.25,57.3203 L66.55,73.8203 " fill="none" style="stroke:#181818;stroke-width:0.55;"/><text fill="#000000" font-family="sans-serif" font-size="15.4" lengthAdjust="spacing" textLength="53.9" x="22" y="833.3811">Student</text><ellipse cx="52.25" cy="846.1148" fill="#E2E2F0" rx="8.8" ry="8.8" style="stroke:#181818;stroke-width:0.55;"/><path d="M52.25,854.9148 L52.25,884.6148 M37.95,863.7148 L66.55,863.7148 M52.25,884.6148 L37.95,901.1148 M52.25,884.6148 L66.55,901.1148 " fill="none" style="stroke:#181818;stroke-width:0.55;"/><rect fill="#E2E2F0" height="54.1406" rx="2.75" ry="2.75" style="stroke:#181818;stroke-width:0.55;" width="129.8" x="218.35" y="39.6"/><text fill="#000000" font-family="sans-serif" font-size="15.4" font-style="italic" lengthAdjust="spacing" textLength="104.5" x="231" y="63.2865">«presentation»</text><text fill="#000000" font-family="sans-serif" font-size="15.4" lengthAdjust="spacing" textLength="114.4" x="226.05" y="82.6568">ListUserExamsUI</text><rect fill="#E2E2F0" height="54.1406" rx="2.75" ry="2.75" style="stroke:#181818;stroke-width:0.55;" width="129.8" x="218.35" y="817.3945"/><text fill="#000000" font-family="sans-serif" font-size="15.4" font-style="italic" lengthAdjust="spacing" textLength="104.5" x="231" y="841.0811">«presentation»</text><text fill="#000000" font-family="sans-serif" font-size="15.4" lengthAdjust="spacing" textLength="114.4" x="226.05" y="860.4514">ListUserExamsUI</text><rect fill="#E2E2F0" height="54.1406" rx="2.75" ry="2.75" style="stroke:#181818;stroke-width:0.55;" width="184.8" x="372.35" y="39.6"/><text fill="#000000" font-family="sans-serif" font-size="15.4" font-style="italic" lengthAdjust="spacing" textLength="92.4" x="418.55" y="63.2865">«application»</text><text fill="#000000" font-family="sans-serif" font-size="15.4" lengthAdjust="spacing" textLength="169.4" x="380.05" y="82.6568">ListUserExamsController</text><rect fill="#E2E2F0" height="54.1406" rx="2.75" ry="2.75" style="stroke:#181818;stroke-width:0.55;" width="184.8" x="372.35" y="817.3945"/><text fill="#000000" font-family="sans-serif" font-size="15.4" font-style="italic" lengthAdjust="spacing" textLength="92.4" x="418.55" y="841.0811">«application»</text><text fill="#000000" font-family="sans-serif" font-size="15.4" lengthAdjust="spacing" textLength="169.4" x="380.05" y="860.4514">ListUserExamsController</text><rect fill="#E2E2F0" height="54.1406" rx="2.75" ry="2.75" style="stroke:#181818;stroke-width:0.55;" width="157.3" x="816.2" y="39.6"/><text fill="#000000" font-family="sans-serif" font-size="15.4" font-style="italic" lengthAdjust="spacing" textLength="66" x="861.85" y="63.2865">«service»</text><text fill="#000000" font-family="sans-serif" font-size="15.4" lengthAdjust="spacing" textLength="141.9" x="823.9" y="82.6568">AuthorizationService</text><rect fill="#E2E2F0" height="54.1406" rx="2.75" ry="2.75" style="stroke:#181818;stroke-width:0.55;" width="157.3" x="816.2" y="817.3945"/><text fill="#000000" font-family="sans-serif" font-size="15.4" font-style="italic" lengthAdjust="spacing" textLength="66" x="861.85" y="841.0811">«service»</text><text fill="#000000" font-family="sans-serif" font-size="15.4" lengthAdjust="spacing" textLength="141.9" x="823.9" y="860.4514">AuthorizationService</text><rect fill="#E2E2F0" height="54.1406" rx="2.75" ry="2.75" style="stroke:#181818;stroke-width:0.55;" width="107.8" x="984.5" y="39.6"/><text fill="#000000" font-family="sans-serif" font-size="15.4" font-style="italic" lengthAdjust="spacing" textLength="66" x="1005.4" y="63.2865">«service»</text><text fill="#000000" font-family="sans-serif" font-size="15.4" lengthAdjust="spacing" textLength="92.4" x="992.2" y="82.6568">IExamService</text><rect fill="#E2E2F0" height="54.1406" rx="2.75" ry="2.75" style="stroke:#181818;stroke-width:0.55;" width="107.8" x="984.5" y="817.3945"/><text fill="#000000" font-family="sans-serif" font-size="15.4" font-style="italic" lengthAdjust="spacing" textLength="66" x="1005.4" y="841.0811">«service»</text><text fill="#000000" font-family="sans-serif" font-size="15.4" lengthAdjust="spacing" textLength="92.4" x="992.2" y="860.4514">IExamService</text><rect fill="#E2E2F0" height="54.1406" rx="2.75" ry="2.75" style="stroke:#181818;stroke-width:0.55;" width="104.5" x="1405.25" y="39.6"/><text fill="#000000" font-family="sans-serif" font-size="15.4" font-style="italic" lengthAdjust="spacing" textLength="66" x="1424.5" y="63.2865">«service»</text><text fill="#000000" font-family="sans-serif" font-size="15.4" lengthAdjust="spacing" textLength="89.1" x="1412.95" y="82.6568">ExamService</text><rect fill="#E2E2F0" height="54.1406" rx="2.75" ry="2.75" style="stroke:#181818;stroke-width:0.55;" width="104.5" x="1405.25" y="817.3945"/><text fill="#000000" font-family="sans-serif" font-size="15.4" font-style="italic" lengthAdjust="spacing" textLength="66" x="1424.5" y="841.0811">«service»</text><text fill="#000000" font-family="sans-serif" font-size="15.4" lengthAdjust="spacing" textLength="89.1" x="1412.95" y="860.4514">ExamService</text><text fill="#000000" font-family="sans-serif" font-size="15.4" font-style="italic" lengthAdjust="spacing" textLength="97.9" x="1704.45" y="72.0865">«persistence»</text><text fill="#000000" font-family="sans-serif" font-size="15.4" lengthAdjust="spacing" textLength="112.2" x="1697.3" y="91.4568">ExamRepository</text><path d="M1736.9,16.5 C1736.9,5.5 1756.7,5.5 1756.7,5.5 C1756.7,5.5 1776.5,5.5 1776.5,16.5 L1776.5,45.1 C1776.5,56.1 1756.7,56.1 1756.7,56.1 C1756.7,56.1 1736.9,56.1 1736.9,45.1 L1736.9,16.5 " fill="#E2E2F0" style="stroke:#181818;stroke-width:1.6500000000000001;"/><path d="M1736.9,16.5 C1736.9,27.5 1756.7,27.5 1756.7,27.5 C1756.7,27.5 1776.5,27.5 1776.5,16.5 " fill="none" style="stroke:#181818;stroke-width:1.6500000000000001;"/><text fill="#000000" font-family="sans-serif" font-size="15.4" font-style="italic" lengthAdjust="spacing" textLength="97.9" x="1704.45" y="833.3811">«persistence»</text><text fill="#000000" font-family="sans-serif" font-size="15.4" lengthAdjust="spacing" textLength="112.2" x="1697.3" y="852.7514">ExamRepository</text><path d="M1736.9,867.1352 C1736.9,856.1352 1756.7,856.1352 1756.7,856.1352 C1756.7,856.1352 1776.5,856.1352 1776.5,867.1352 L1776.5,895.7352 C1776.5,906.7352 1756.7,906.7352 1756.7,906.7352 C1756.7,906.7352 1736.9,906.7352 1736.9,895.7352 L1736.9,867.1352 " fill="#E2E2F0" style="stroke:#181818;stroke-width:1.6500000000000001;"/><path d="M1736.9,867.1352 C1736.9,878.1352 1756.7,878.1352 1756.7,878.1352 C1756.7,878.1352 1776.5,878.1352 1776.5,867.1352 " fill="none" style="stroke:#181818;stroke-width:1.6500000000000001;"/><rect fill="#FFFFFF" height="644.7805" style="stroke:#181818;stroke-width:1.1;" width="11" x="459.25" y="163.8141"/><rect fill="#FFFFFF" height="702.7539" style="stroke:#181818;stroke-width:1.1;" width="11" x="1032.9" y="105.8406"/><rect fill="#FFFFFF" height="702.7539" style="stroke:#181818;stroke-width:1.1;" width="11" x="1452" y="105.8406"/><polygon fill="#181818" points="270.05,126.0273,281.05,130.4273,270.05,134.8273,274.45,130.4273" style="stroke:#181818;stroke-width:1.1;"/><line style="stroke:#181818;stroke-width:1.1;" x1="52.25" x2="276.65" y1="130.4273" y2="130.4273"/><text fill="#000000" font-family="sans-serif" font-size="14.3" font-weight="bold" lengthAdjust="spacing" textLength="7.7" x="59.95" y="125.0853">1</text><text fill="#000000" font-family="sans-serif" font-size="14.3" lengthAdjust="spacing" textLength="192.5" x="72.05" y="125.0853">requests a list of future exams</text><polygon fill="#181818" points="446.05,159.4141,457.05,163.8141,446.05,168.2141,450.45,163.8141" style="stroke:#181818;stroke-width:1.1;"/><line style="stroke:#181818;stroke-width:1.1;" x1="283.25" x2="452.65" y1="163.8141" y2="163.8141"/><text fill="#000000" font-family="sans-serif" font-size="14.3" font-weight="bold" lengthAdjust="spacing" textLength="7.7" x="290.95" y="158.472">2</text><text fill="#000000" font-family="sans-serif" font-size="14.3" lengthAdjust="spacing" textLength="47.3" x="303.05" y="158.472">creates</text><polygon fill="#181818" points="881.65,192.8008,892.65,197.2008,881.65,201.6008,886.05,197.2008" style="stroke:#181818;stroke-width:1.1;"/><line style="stroke:#181818;stroke-width:1.1;" x1="470.25" x2="888.25" y1="197.2008" y2="197.2008"/><text fill="#000000" font-family="sans-serif" font-size="14.3" font-weight="bold" lengthAdjust="spacing" textLength="7.7" x="477.95" y="191.8587">3</text><text fill="#000000" font-family="sans-serif" font-size="14.3" lengthAdjust="spacing" textLength="136.4" x="490.05" y="191.8587">authorizationService()</text><polygon fill="#181818" points="1019.7,226.1875,1030.7,230.5875,1019.7,234.9875,1024.1,230.5875" style="stroke:#181818;stroke-width:1.1;"/><line style="stroke:#181818;stroke-width:1.1;" x1="470.25" x2="1026.3" y1="230.5875" y2="230.5875"/><text fill="#000000" font-family="sans-serif" font-size="14.3" font-weight="bold" lengthAdjust="spacing" textLength="7.7" x="477.95" y="225.2454">4</text><text fill="#000000" font-family="sans-serif" font-size="14.3" lengthAdjust="spacing" textLength="47.3" x="490.05" y="225.2454">creates</text><polygon fill="#181818" points="446.05,259.5742,457.05,263.9742,446.05,268.3742,450.45,263.9742" style="stroke:#181818;stroke-width:1.1;"/><line style="stroke:#181818;stroke-width:1.1;" x1="283.25" x2="452.65" y1="263.9742" y2="263.9742"/><text fill="#000000" font-family="sans-serif" font-size="14.3" font-weight="bold" lengthAdjust="spacing" textLength="7.7" x="290.95" y="258.6321">5</text><text fill="#000000" font-family="sans-serif" font-size="14.3" lengthAdjust="spacing" textLength="102.3" x="303.05" y="258.6321">listUserExams()</text><polygon fill="#181818" points="881.65,292.9609,892.65,297.3609,881.65,301.7609,886.05,297.3609" style="stroke:#181818;stroke-width:1.1;"/><line style="stroke:#181818;stroke-width:1.1;" x1="470.25" x2="888.25" y1="297.3609" y2="297.3609"/><text fill="#000000" font-family="sans-serif" font-size="14.3" font-weight="bold" lengthAdjust="spacing" textLength="7.7" x="477.95" y="292.0188">6</text><text fill="#000000" font-family="sans-serif" font-size="14.3" lengthAdjust="spacing" textLength="386.1" x="490.05" y="292.0188">ensureAuthenticatedUserHasAnyOf(ELearningUser, Student)</text><path d="M11,313.8609 L78.1,313.8609 L78.1,323.0477 L67.1,334.0477 L11,334.0477 L11,313.8609 " fill="#EEEEEE" style="stroke:#000000;stroke-width:1.6500000000000001;"/><rect fill="none" height="171.1531" style="stroke:#000000;stroke-width:1.6500000000000001;" width="973.5" x="11" y="313.8609"/><text fill="#000000" font-family="sans-serif" font-size="14.3" font-weight="bold" lengthAdjust="spacing" textLength="17.6" x="27.5" y="329.8056">alt</text><text fill="#000000" font-family="sans-serif" font-size="12.1" font-weight="bold" lengthAdjust="spacing" textLength="198" x="94.6" y="328.6218">[user has insufficient privileges]</text><polygon fill="#181818" points="482.35,354.2344,471.35,358.6344,482.35,363.0344,477.95,358.6344" style="stroke:#181818;stroke-width:1.1;"/><line style="stroke:#181818;stroke-width:1.1;" x1="475.75" x2="893.75" y1="358.6344" y2="358.6344"/><text fill="#000000" font-family="sans-serif" font-size="14.3" font-weight="bold" lengthAdjust="spacing" textLength="7.7" x="488.95" y="353.2923">7</text><text fill="#000000" font-family="sans-serif" font-size="14.3" lengthAdjust="spacing" textLength="132" x="501.05" y="353.2923">Insufficient Privileges</text><polygon fill="#181818" points="295.35,387.6211,284.35,392.0211,295.35,396.4211,290.95,392.0211" style="stroke:#181818;stroke-width:1.1;"/><line style="stroke:#181818;stroke-width:1.1;stroke-dasharray:2.0,2.0;" x1="288.75" x2="458.15" y1="392.0211" y2="392.0211"/><text fill="#000000" font-family="sans-serif" font-size="14.3" font-weight="bold" lengthAdjust="spacing" textLength="7.7" x="301.95" y="386.679">8</text><text fill="#000000" font-family="sans-serif" font-size="14.3" lengthAdjust="spacing" textLength="132" x="314.05" y="386.679">Insufficient Privileges</text><polygon fill="#181818" points="64.35,421.0078,53.35,425.4078,64.35,429.8078,59.95,425.4078" style="stroke:#181818;stroke-width:1.1;"/><line style="stroke:#181818;stroke-width:1.1;stroke-dasharray:2.0,2.0;" x1="57.75" x2="282.15" y1="425.4078" y2="425.4078"/><text fill="#000000" font-family="sans-serif" font-size="14.3" font-weight="bold" lengthAdjust="spacing" textLength="7.7" x="70.95" y="420.0657">9</text><text fill="#000000" font-family="sans-serif" font-size="14.3" lengthAdjust="spacing" textLength="132" x="83.05" y="420.0657">Insufficient Privileges</text><line style="stroke:#000000;stroke-width:1.1;stroke-dasharray:2.0,2.0;" x1="11" x2="984.5" y1="435.3078" y2="435.3078"/><text fill="#000000" font-family="sans-serif" font-size="12.1" font-weight="bold" lengthAdjust="spacing" textLength="187" x="16.5" y="447.8687">[user has sufficient privileges]</text><polygon fill="#181818" points="482.35,471.8141,471.35,476.2141,482.35,480.6141,477.95,476.2141" style="stroke:#181818;stroke-width:1.1;"/><line style="stroke:#181818;stroke-width:1.1;" x1="475.75" x2="893.75" y1="476.2141" y2="476.2141"/><text fill="#000000" font-family="sans-serif" font-size="14.3" font-weight="bold" lengthAdjust="spacing" textLength="15.4" x="488.95" y="470.872">10</text><text fill="#000000" font-family="sans-serif" font-size="14.3" lengthAdjust="spacing" textLength="123.2" x="508.75" y="470.872">Sufficient Privileges</text><polygon fill="#181818" points="1019.7,512.9008,1030.7,517.3008,1019.7,521.7008,1024.1,517.3008" style="stroke:#181818;stroke-width:1.1;"/><line style="stroke:#181818;stroke-width:1.1;" x1="470.25" x2="1026.3" y1="517.3008" y2="517.3008"/><text fill="#000000" font-family="sans-serif" font-size="14.3" font-weight="bold" lengthAdjust="spacing" textLength="15.4" x="477.95" y="511.9587">11</text><text fill="#000000" font-family="sans-serif" font-size="14.3" lengthAdjust="spacing" textLength="361.9" x="497.75" y="511.9587">listUserExams(authz.session().get().authenticatedUser())</text><polygon fill="#181818" points="1438.8,546.2875,1449.8,550.6875,1438.8,555.0875,1443.2,550.6875" style="stroke:#181818;stroke-width:1.1;"/><line style="stroke:#181818;stroke-width:1.1;" x1="1043.9" x2="1445.4" y1="550.6875" y2="550.6875"/><text fill="#000000" font-family="sans-serif" font-size="14.3" font-weight="bold" lengthAdjust="spacing" textLength="15.4" x="1051.6" y="545.3454">12</text><text fill="#000000" font-family="sans-serif" font-size="14.3" lengthAdjust="spacing" textLength="361.9" x="1071.4" y="545.3454">listUserExams(authz.session().get().authenticatedUser())</text><polygon fill="#181818" points="1743.5,579.6742,1754.5,584.0742,1743.5,588.4742,1747.9,584.0742" style="stroke:#181818;stroke-width:1.1;"/><line style="stroke:#181818;stroke-width:1.1;" x1="1463" x2="1750.1" y1="584.0742" y2="584.0742"/><text fill="#000000" font-family="sans-serif" font-size="14.3" font-weight="bold" lengthAdjust="spacing" textLength="15.4" x="1470.7" y="578.7321">13</text><text fill="#000000" font-family="sans-serif" font-size="14.3" lengthAdjust="spacing" textLength="82.5" x="1490.5" y="578.7321">repositories()</text><polygon fill="#181818" points="1743.5,613.0609,1754.5,617.4609,1743.5,621.8609,1747.9,617.4609" style="stroke:#181818;stroke-width:1.1;"/><line style="stroke:#181818;stroke-width:1.1;" x1="1463" x2="1750.1" y1="617.4609" y2="617.4609"/><text fill="#000000" font-family="sans-serif" font-size="14.3" font-weight="bold" lengthAdjust="spacing" textLength="15.4" x="1470.7" y="612.1188">14</text><text fill="#000000" font-family="sans-serif" font-size="14.3" lengthAdjust="spacing" textLength="247.5" x="1490.5" y="612.1188">listAllExamsOfCoursesOfStudent(user)</text><line style="stroke:#181818;stroke-width:1.1;" x1="1463" x2="1509.2" y1="650.8477" y2="650.8477"/><line style="stroke:#181818;stroke-width:1.1;" x1="1509.2" x2="1509.2" y1="650.8477" y2="665.1477"/><line style="stroke:#181818;stroke-width:1.1;" x1="1464.1" x2="1509.2" y1="665.1477" y2="665.1477"/><polygon fill="#181818" points="1475.1,660.7477,1464.1,665.1477,1475.1,669.5477,1470.7,665.1477" style="stroke:#181818;stroke-width:1.1;"/><text fill="#000000" font-family="sans-serif" font-size="14.3" font-weight="bold" lengthAdjust="spacing" textLength="15.4" x="1470.7" y="645.5056">15</text><text fill="#000000" font-family="sans-serif" font-size="14.3" lengthAdjust="spacing" textLength="146.3" x="1490.5" y="645.5056">List&lt;ExamDTO&gt; result</text><polygon fill="#181818" points="1056,694.1344,1045,698.5344,1056,702.9344,1051.6,698.5344" style="stroke:#181818;stroke-width:1.1;"/><line style="stroke:#181818;stroke-width:1.1;" x1="1049.4" x2="1450.9" y1="698.5344" y2="698.5344"/><text fill="#000000" font-family="sans-serif" font-size="14.3" font-weight="bold" lengthAdjust="spacing" textLength="15.4" x="1062.6" y="693.1923">16</text><text fill="#000000" font-family="sans-serif" font-size="14.3" lengthAdjust="spacing" textLength="169.4" x="1082.4" y="693.1923">Iterable&lt;ExamDTO&gt; result</text><polygon fill="#181818" points="482.35,727.5211,471.35,731.9211,482.35,736.3211,477.95,731.9211" style="stroke:#181818;stroke-width:1.1;"/><line style="stroke:#181818;stroke-width:1.1;" x1="475.75" x2="1031.8" y1="731.9211" y2="731.9211"/><text fill="#000000" font-family="sans-serif" font-size="14.3" font-weight="bold" lengthAdjust="spacing" textLength="15.4" x="488.95" y="726.579">17</text><text fill="#000000" font-family="sans-serif" font-size="14.3" lengthAdjust="spacing" textLength="129.8" x="508.75" y="726.579">Iterable&lt;ExamDTO&gt;</text><polygon fill="#181818" points="295.35,760.9078,284.35,765.3078,295.35,769.7078,290.95,765.3078" style="stroke:#181818;stroke-width:1.1;"/><line style="stroke:#181818;stroke-width:1.1;" x1="288.75" x2="458.15" y1="765.3078" y2="765.3078"/><text fill="#000000" font-family="sans-serif" font-size="14.3" font-weight="bold" lengthAdjust="spacing" textLength="15.4" x="301.95" y="759.9657">18</text><text fill="#000000" font-family="sans-serif" font-size="14.3" lengthAdjust="spacing" textLength="129.8" x="321.75" y="759.9657">Iterable&lt;ExamDTO&gt;</text><polygon fill="#181818" points="64.35,794.2945,53.35,798.6945,64.35,803.0945,59.95,798.6945" style="stroke:#181818;stroke-width:1.1;"/><line style="stroke:#181818;stroke-width:1.1;stroke-dasharray:2.0,2.0;" x1="57.75" x2="282.15" y1="798.6945" y2="798.6945"/><text fill="#000000" font-family="sans-serif" font-size="14.3" font-weight="bold" lengthAdjust="spacing" textLength="15.4" x="70.95" y="793.3524">19</text><text fill="#000000" font-family="sans-serif" font-size="14.3" lengthAdjust="spacing" textLength="173.8" x="90.75" y="793.3524">shows the list of his exams</text><!--MD5=[ea5d698d644403bb0879daec2853d59f]
@startuml
'https://plantuml.com/sequence-diagram
autonumber

actor Student as user

participant ListUserExamsUI as ui <<presentation>>
participant ListUserExamsController as lue_ctrl <<application>>
participant AuthorizationService as authz <<service>>
participant IExamService as iService <<service>>
participant ExamService as service <<service>>

database ExamRepository as repo <<persistence>>

user->ui : requests a list of future exams
ui-> lue_ctrl: creates
activate lue_ctrl
lue_ctrl->authz: authorizationService()
lue_ctrl->iService: creates

ui->lue_ctrl: listUserExams()

lue_ctrl->authz: ensureAuthenticatedUserHasAnyOf(ELearningUser, Student)
alt user has insufficient privileges
    authz -> lue_ctrl : Insufficient Privileges
    lue_ctrl - -> ui : Insufficient Privileges
    ui - -> user : Insufficient Privileges
else user has sufficient privileges
    authz -> lue_ctrl : Sufficient Privileges
end

activate iService
activate service
lue_ctrl-> iService : listUserExams(authz.session().get().authenticatedUser())
iService->service: listUserExams(authz.session().get().authenticatedUser())
service->repo: repositories()
service->repo: listAllExamsOfCoursesOfStudent(user)
service->service : List<ExamDTO> result
service->iService: Iterable<ExamDTO> result
iService->lue_ctrl : Iterable<ExamDTO>
lue_ctrl->ui: Iterable<ExamDTO>
ui- ->user: shows the list of his exams
@enduml

@startuml
autonumber

actor Student as user

participant ListUserExamsUI as ui <<presentation>>
participant ListUserExamsController as lue_ctrl <<application>>
participant AuthorizationService as authz <<service>>
participant IExamService as iService <<service>>
participant ExamService as service <<service>>

database ExamRepository as repo <<persistence>>

user->ui : requests a list of future exams
ui-> lue_ctrl: creates
activate lue_ctrl
lue_ctrl->authz: authorizationService()
lue_ctrl->iService: creates

ui->lue_ctrl: listUserExams()

lue_ctrl->authz: ensureAuthenticatedUserHasAnyOf(ELearningUser, Student)
alt user has insufficient privileges
    authz -> lue_ctrl : Insufficient Privileges
    lue_ctrl - -> ui : Insufficient Privileges
    ui - -> user : Insufficient Privileges
else user has sufficient privileges
    authz -> lue_ctrl : Sufficient Privileges
end

activate iService
activate service
lue_ctrl-> iService : listUserExams(authz.session().get().authenticatedUser())
iService->service: listUserExams(authz.session().get().authenticatedUser())
service->repo: repositories()
service->repo: listAllExamsOfCoursesOfStudent(user)
service->service : List<ExamDTO> result
service->iService: Iterable<ExamDTO> result
iService->lue_ctrl : Iterable<ExamDTO>
lue_ctrl->ui: Iterable<ExamDTO>
ui- ->user: shows the list of his exams
@enduml

PlantUML version 1.2022.12(Sun Oct 23 19:12:26 BST 2022)
(GPL source distribution)
Java Runtime: OpenJDK Runtime Environment
JVM: OpenJDK 64-Bit Server VM
Default Encoding: Cp1252
Language: en
Country: US
--></g></svg>