<?xml version="1.0" encoding="us-ascii" standalone="no"?><svg xmlns="http://www.w3.org/2000/svg" xmlns:xlink="http://www.w3.org/1999/xlink" contentStyleType="text/css" height="1628px" preserveAspectRatio="none" style="width:601px;height:1628px;background:#282828;" version="1.1" viewBox="0 0 601 1628" width="601.5px" zoomAndPan="magnify"><defs/><g><rect fill="#282828" height="1628" style="stroke:none;stroke-width:0.5;" width="601.5" x="0" y="0"/><!--cluster <<agr Student>>--><g id="cluster_&lt;&lt;agr Student&gt;&gt;"><path d="M132,5.5 L190.5,5.5 A1.875,1.875 0 0 1 191.75,6.75 L195.25,17.0073 L395.75,17.0073 A1.25,1.25 0 0 1 397,18.2573 L397,332.25 A1.25,1.25 0 0 1 395.75,333.5 L132,333.5 A1.25,1.25 0 0 1 130.75,332.25 L130.75,6.75 A1.25,1.25 0 0 1 132,5.5 " fill="#282828" style="stroke:#33FF33;stroke-width:0.5;"/><line style="stroke:#33FF33;stroke-width:0.5;" x1="130.75" x2="195.25" y1="17.0073" y2="17.0073"/><text fill="#33FF33" font-family="Verdana" font-size="7" font-weight="bold" lengthAdjust="spacing" textLength="58" x="132.75" y="13.5376">&#171;agr Student&#187;</text></g><!--cluster <<agr Exam>>--><g id="cluster_&lt;&lt;agr Exam&gt;&gt;"><path d="M132.5,544.5 L181.5,544.5 A1.875,1.875 0 0 1 182.75,545.75 L186.25,556.0073 L596.75,556.0073 A1.25,1.25 0 0 1 598,557.2573 L598,1070.25 A1.25,1.25 0 0 1 596.75,1071.5 L132.5,1071.5 A1.25,1.25 0 0 1 131.25,1070.25 L131.25,545.75 A1.25,1.25 0 0 1 132.5,544.5 " fill="#282828" style="stroke:#33FF33;stroke-width:0.5;"/><line style="stroke:#33FF33;stroke-width:0.5;" x1="131.25" x2="186.25" y1="556.0073" y2="556.0073"/><text fill="#33FF33" font-family="Verdana" font-size="7" font-weight="bold" lengthAdjust="spacing" textLength="48.5" x="133.25" y="552.5376">&#171;agr Exam&#187;</text></g><!--cluster <<agr ExamSection>>--><g id="cluster_&lt;&lt;agr ExamSection&gt;&gt;"><path d="M123.5,1083.5 L201,1083.5 A1.875,1.875 0 0 1 202.25,1084.75 L205.75,1095.0073 L406.75,1095.0073 A1.25,1.25 0 0 1 408,1096.2573 L408,1136.25 A1.25,1.25 0 0 1 406.75,1137.5 L123.5,1137.5 A1.25,1.25 0 0 1 122.25,1136.25 L122.25,1084.75 A1.25,1.25 0 0 1 123.5,1083.5 " fill="#282828" style="stroke:#33FF33;stroke-width:0.5;"/><line style="stroke:#33FF33;stroke-width:0.5;" x1="122.25" x2="205.75" y1="1095.0073" y2="1095.0073"/><text fill="#33FF33" font-family="Verdana" font-size="7" font-weight="bold" lengthAdjust="spacing" textLength="77" x="124.25" y="1091.5376">&#171;agr ExamSection&#187;</text></g><!--cluster <<agr ExamQuestion>>--><g id="cluster_&lt;&lt;agr ExamQuestion&gt;&gt;"><path d="M6.75,1186.5 L90.25,1186.5 A1.875,1.875 0 0 1 91.5,1187.75 L95,1198.0073 L217.75,1198.0073 A1.25,1.25 0 0 1 219,1199.2573 L219,1623.25 A1.25,1.25 0 0 1 217.75,1624.5 L6.75,1624.5 A1.25,1.25 0 0 1 5.5,1623.25 L5.5,1187.75 A1.25,1.25 0 0 1 6.75,1186.5 " fill="#282828" style="stroke:#33FF33;stroke-width:0.5;"/><line style="stroke:#33FF33;stroke-width:0.5;" x1="5.5" x2="95" y1="1198.0073" y2="1198.0073"/><text fill="#33FF33" font-family="Verdana" font-size="7" font-weight="bold" lengthAdjust="spacing" textLength="83" x="7.5" y="1194.5376">&#171;agr ExamQuestion&#187;</text></g><!--cluster <<agr FormerExam>>--><g id="cluster_&lt;&lt;agr FormerExam&gt;&gt;"><path d="M10,429 L87,429 A1.875,1.875 0 0 1 88.25,430.25 L91.75,440.5073 L192,440.5073 A1.25,1.25 0 0 1 193.25,441.7573 L193.25,481.75 A1.25,1.25 0 0 1 192,483 L10,483 A1.25,1.25 0 0 1 8.75,481.75 L8.75,430.25 A1.25,1.25 0 0 1 10,429 " fill="#282828" style="stroke:#33FF33;stroke-width:0.5;"/><line style="stroke:#33FF33;stroke-width:0.5;" x1="8.75" x2="91.75" y1="440.5073" y2="440.5073"/><text fill="#33FF33" font-family="Verdana" font-size="7" font-weight="bold" lengthAdjust="spacing" textLength="76.5" x="10.75" y="437.0376">&#171;agr FormerExam&#187;</text></g><!--cluster <<agr CourseEnrollment>>--><g id="cluster_&lt;&lt;agr CourseEnrollment&gt;&gt;"><path d="M292.5,345.5 L390,345.5 A1.875,1.875 0 0 1 391.25,346.75 L394.75,357.0073 L584.5,357.0073 A1.25,1.25 0 0 1 585.75,358.2573 L585.75,494.25 A1.25,1.25 0 0 1 584.5,495.5 L292.5,495.5 A1.25,1.25 0 0 1 291.25,494.25 L291.25,346.75 A1.25,1.25 0 0 1 292.5,345.5 " fill="#282828" style="stroke:#33FF33;stroke-width:0.5;"/><line style="stroke:#33FF33;stroke-width:0.5;" x1="291.25" x2="394.75" y1="357.0073" y2="357.0073"/><text fill="#33FF33" font-family="Verdana" font-size="7" font-weight="bold" lengthAdjust="spacing" textLength="97" x="293.25" y="353.5376">&#171;agr CourseEnrollment&#187;</text></g><!--class Student--><g id="elem_Student"><rect codeLine="14" fill="#282828" height="28.0913" id="Student" rx="1.25" ry="1.25" style="stroke:#33FF33;stroke-width:0.5;" width="42.5" x="138.75" y="251.5"/><ellipse cx="145.25" cy="265.5457" fill="#282828" rx="4.5" ry="4.5" style="stroke:#33FF33;stroke-width:0.5;"/><path d="M146.6328,263.4832 Q146.7109,263.3738 146.8047,263.3191 Q146.8984,263.2644 147.0078,263.2644 Q147.1953,263.2644 147.3125,263.3972 Q147.4297,263.5222 147.4297,263.8269 L147.4297,264.5535 Q147.4297,264.8582 147.3125,264.991 Q147.1953,265.1238 147.0078,265.1238 Q146.8359,265.1238 146.7344,265.0222 Q146.6328,264.9285 146.5781,264.6707 Q146.5547,264.491 146.4609,264.3972 Q146.2969,264.2097 145.9922,264.1003 Q145.6875,263.991 145.375,263.991 Q144.9922,263.991 144.6719,264.155 Q144.3594,264.3191 144.1094,264.6941 Q143.8672,265.0691 143.8672,265.5847 L143.8672,266.1316 Q143.8672,266.7488 144.3125,267.1628 Q144.7578,267.5691 145.5547,267.5691 Q146.0234,267.5691 146.3516,267.4441 Q146.5469,267.366 146.7578,267.1472 Q146.8906,267.0144 146.9609,266.9753 Q147.0391,266.9363 147.1406,266.9363 Q147.3047,266.9363 147.4297,267.0691 Q147.5625,267.1941 147.5625,267.366 Q147.5625,267.5378 147.3906,267.741 Q147.1406,268.03 146.7422,268.1941 Q146.2031,268.4207 145.5547,268.4207 Q144.7969,268.4207 144.1953,268.1082 Q143.7031,267.8582 143.3594,267.3269 Q143.0156,266.7878 143.0156,266.1472 L143.0156,265.5691 Q143.0156,264.905 143.3203,264.3347 Q143.6328,263.7566 144.1797,263.4519 Q144.7266,263.1394 145.3438,263.1394 Q145.7109,263.1394 146.0313,263.2253 Q146.3594,263.3035 146.6328,263.4832 Z " fill="#33FF33"/><text fill="#33FF33" font-family="Verdana" font-size="6" font-style="italic" lengthAdjust="spacing" textLength="25.5" x="152.75" y="260.0322">&#171;entity&#187;</text><text fill="#33FF33" font-family="Verdana" font-size="6" font-style="italic" lengthAdjust="spacing" textLength="20" x="155.5" y="267.3242">&#171;root&#187;</text><text fill="#33FF33" font-family="Verdana" font-size="7" lengthAdjust="spacing" textLength="28.5" x="151.25" y="275.6216">Student</text></g><!--class MechanographicalNumber--><g id="elem_MechanographicalNumber"><rect codeLine="15" fill="#282828" height="20.7993" id="MechanographicalNumber" rx="1.25" ry="1.25" style="stroke:#33FF33;stroke-width:0.5;" width="103" x="286" y="304.5"/><ellipse cx="292.5" cy="314.8997" fill="#282828" rx="4.5" ry="4.5" style="stroke:#33FF33;stroke-width:0.5;"/><path d="M293.8828,312.8372 Q293.9609,312.7278 294.0547,312.6731 Q294.1484,312.6184 294.2578,312.6184 Q294.4453,312.6184 294.5625,312.7512 Q294.6797,312.8762 294.6797,313.1809 L294.6797,313.9075 Q294.6797,314.2122 294.5625,314.345 Q294.4453,314.4778 294.2578,314.4778 Q294.0859,314.4778 293.9844,314.3762 Q293.8828,314.2825 293.8281,314.0247 Q293.8047,313.845 293.7109,313.7512 Q293.5469,313.5637 293.2422,313.4543 Q292.9375,313.345 292.625,313.345 Q292.2422,313.345 291.9219,313.509 Q291.6094,313.6731 291.3594,314.0481 Q291.1172,314.4231 291.1172,314.9387 L291.1172,315.4856 Q291.1172,316.1028 291.5625,316.5168 Q292.0078,316.9231 292.8047,316.9231 Q293.2734,316.9231 293.6016,316.7981 Q293.7969,316.72 294.0078,316.5012 Q294.1406,316.3684 294.2109,316.3293 Q294.2891,316.2903 294.3906,316.2903 Q294.5547,316.2903 294.6797,316.4231 Q294.8125,316.5481 294.8125,316.72 Q294.8125,316.8918 294.6406,317.095 Q294.3906,317.384 293.9922,317.5481 Q293.4531,317.7747 292.8047,317.7747 Q292.0469,317.7747 291.4453,317.4622 Q290.9531,317.2122 290.6094,316.6809 Q290.2656,316.1418 290.2656,315.5012 L290.2656,314.9231 Q290.2656,314.259 290.5703,313.6887 Q290.8828,313.1106 291.4297,312.8059 Q291.9766,312.4934 292.5938,312.4934 Q292.9609,312.4934 293.2813,312.5793 Q293.6094,312.6575 293.8828,312.8372 Z " fill="#33FF33"/><text fill="#33FF33" font-family="Verdana" font-size="6" font-style="italic" lengthAdjust="spacing" textLength="15" x="335.5" y="313.0322">&#171;vo&#187;</text><text fill="#33FF33" font-family="Verdana" font-size="7" lengthAdjust="spacing" textLength="89" x="298.5" y="321.3296">MechanographicalNumber</text></g><!--class StudentTaxPayerNumber--><g id="elem_StudentTaxPayerNumber"><rect codeLine="16" fill="#282828" height="20.7993" id="StudentTaxPayerNumber" rx="1.25" ry="1.25" style="stroke:#33FF33;stroke-width:0.5;" width="102" x="286.5" y="208.5"/><ellipse cx="293" cy="218.8997" fill="#282828" rx="4.5" ry="4.5" style="stroke:#33FF33;stroke-width:0.5;"/><path d="M294.3828,216.8372 Q294.4609,216.7278 294.5547,216.6731 Q294.6484,216.6184 294.7578,216.6184 Q294.9453,216.6184 295.0625,216.7512 Q295.1797,216.8762 295.1797,217.1809 L295.1797,217.9075 Q295.1797,218.2122 295.0625,218.345 Q294.9453,218.4778 294.7578,218.4778 Q294.5859,218.4778 294.4844,218.3762 Q294.3828,218.2825 294.3281,218.0247 Q294.3047,217.845 294.2109,217.7512 Q294.0469,217.5637 293.7422,217.4543 Q293.4375,217.345 293.125,217.345 Q292.7422,217.345 292.4219,217.509 Q292.1094,217.6731 291.8594,218.0481 Q291.6172,218.4231 291.6172,218.9387 L291.6172,219.4856 Q291.6172,220.1028 292.0625,220.5168 Q292.5078,220.9231 293.3047,220.9231 Q293.7734,220.9231 294.1016,220.7981 Q294.2969,220.72 294.5078,220.5012 Q294.6406,220.3684 294.7109,220.3293 Q294.7891,220.2903 294.8906,220.2903 Q295.0547,220.2903 295.1797,220.4231 Q295.3125,220.5481 295.3125,220.72 Q295.3125,220.8918 295.1406,221.095 Q294.8906,221.384 294.4922,221.5481 Q293.9531,221.7747 293.3047,221.7747 Q292.5469,221.7747 291.9453,221.4622 Q291.4531,221.2122 291.1094,220.6809 Q290.7656,220.1418 290.7656,219.5012 L290.7656,218.9231 Q290.7656,218.259 291.0703,217.6887 Q291.3828,217.1106 291.9297,216.8059 Q292.4766,216.4934 293.0938,216.4934 Q293.4609,216.4934 293.7813,216.5793 Q294.1094,216.6575 294.3828,216.8372 Z " fill="#33FF33"/><text fill="#33FF33" font-family="Verdana" font-size="6" font-style="italic" lengthAdjust="spacing" textLength="15" x="335.5" y="217.0322">&#171;vo&#187;</text><text fill="#33FF33" font-family="Verdana" font-size="7" lengthAdjust="spacing" textLength="88" x="299" y="225.3296">StudentTaxPayerNumber</text></g><!--class StudentDateOfBirth--><g id="elem_StudentDateOfBirth"><rect codeLine="17" fill="#282828" height="20.7993" id="StudentDateOfBirth" rx="1.25" ry="1.25" style="stroke:#33FF33;stroke-width:0.5;" width="84" x="295.5" y="112.5"/><ellipse cx="302" cy="122.8997" fill="#282828" rx="4.5" ry="4.5" style="stroke:#33FF33;stroke-width:0.5;"/><path d="M303.3828,120.8372 Q303.4609,120.7278 303.5547,120.6731 Q303.6484,120.6184 303.7578,120.6184 Q303.9453,120.6184 304.0625,120.7512 Q304.1797,120.8762 304.1797,121.1809 L304.1797,121.9075 Q304.1797,122.2122 304.0625,122.345 Q303.9453,122.4778 303.7578,122.4778 Q303.5859,122.4778 303.4844,122.3762 Q303.3828,122.2825 303.3281,122.0247 Q303.3047,121.845 303.2109,121.7512 Q303.0469,121.5637 302.7422,121.4543 Q302.4375,121.345 302.125,121.345 Q301.7422,121.345 301.4219,121.509 Q301.1094,121.6731 300.8594,122.0481 Q300.6172,122.4231 300.6172,122.9387 L300.6172,123.4856 Q300.6172,124.1028 301.0625,124.5168 Q301.5078,124.9231 302.3047,124.9231 Q302.7734,124.9231 303.1016,124.7981 Q303.2969,124.72 303.5078,124.5012 Q303.6406,124.3684 303.7109,124.3293 Q303.7891,124.2903 303.8906,124.2903 Q304.0547,124.2903 304.1797,124.4231 Q304.3125,124.5481 304.3125,124.72 Q304.3125,124.8918 304.1406,125.095 Q303.8906,125.384 303.4922,125.5481 Q302.9531,125.7747 302.3047,125.7747 Q301.5469,125.7747 300.9453,125.4622 Q300.4531,125.2122 300.1094,124.6809 Q299.7656,124.1418 299.7656,123.5012 L299.7656,122.9231 Q299.7656,122.259 300.0703,121.6887 Q300.3828,121.1106 300.9297,120.8059 Q301.4766,120.4934 302.0938,120.4934 Q302.4609,120.4934 302.7813,120.5793 Q303.1094,120.6575 303.3828,120.8372 Z " fill="#33FF33"/><text fill="#33FF33" font-family="Verdana" font-size="6" font-style="italic" lengthAdjust="spacing" textLength="15" x="335.5" y="121.0322">&#171;vo&#187;</text><text fill="#33FF33" font-family="Verdana" font-size="7" lengthAdjust="spacing" textLength="70" x="308" y="129.3296">StudentDateOfBirth</text></g><!--class SystemUser--><g id="elem_SystemUser"><rect fill="#282828" height="14" id="SystemUser" rx="1.25" ry="1.25" style="stroke:#33FF33;stroke-width:0.5;" width="56.5" x="309.25" y="23.5"/><ellipse cx="315.75" cy="30.5" fill="#282828" rx="4.5" ry="4.5" style="stroke:#33FF33;stroke-width:0.5;"/><path d="M317.1328,28.4375 Q317.2109,28.3281 317.3047,28.2734 Q317.3984,28.2188 317.5078,28.2188 Q317.6953,28.2188 317.8125,28.3516 Q317.9297,28.4766 317.9297,28.7813 L317.9297,29.5078 Q317.9297,29.8125 317.8125,29.9453 Q317.6953,30.0781 317.5078,30.0781 Q317.3359,30.0781 317.2344,29.9766 Q317.1328,29.8828 317.0781,29.625 Q317.0547,29.4453 316.9609,29.3516 Q316.7969,29.1641 316.4922,29.0547 Q316.1875,28.9453 315.875,28.9453 Q315.4922,28.9453 315.1719,29.1094 Q314.8594,29.2734 314.6094,29.6484 Q314.3672,30.0234 314.3672,30.5391 L314.3672,31.0859 Q314.3672,31.7031 314.8125,32.1172 Q315.2578,32.5234 316.0547,32.5234 Q316.5234,32.5234 316.8516,32.3984 Q317.0469,32.3203 317.2578,32.1016 Q317.3906,31.9688 317.4609,31.9297 Q317.5391,31.8906 317.6406,31.8906 Q317.8047,31.8906 317.9297,32.0234 Q318.0625,32.1484 318.0625,32.3203 Q318.0625,32.4922 317.8906,32.6953 Q317.6406,32.9844 317.2422,33.1484 Q316.7031,33.375 316.0547,33.375 Q315.2969,33.375 314.6953,33.0625 Q314.2031,32.8125 313.8594,32.2813 Q313.5156,31.7422 313.5156,31.1016 L313.5156,30.5234 Q313.5156,29.8594 313.8203,29.2891 Q314.1328,28.7109 314.6797,28.4063 Q315.2266,28.0938 315.8438,28.0938 Q316.2109,28.0938 316.5313,28.1797 Q316.8594,28.2578 317.1328,28.4375 Z " fill="#33FF33"/><text fill="#33FF33" font-family="Verdana" font-size="7" lengthAdjust="spacing" textLength="42.5" x="321.75" y="33.2839">SystemUser</text></g><!--class Exam--><g id="elem_Exam"><rect codeLine="26" fill="#282828" height="28.0913" id="Exam" rx="1.25" ry="1.25" style="stroke:#33FF33;stroke-width:0.5;" width="37.5" x="318.75" y="803.5"/><ellipse cx="325.25" cy="817.5457" fill="#282828" rx="4.5" ry="4.5" style="stroke:#33FF33;stroke-width:0.5;"/><path d="M326.6328,815.4832 Q326.7109,815.3738 326.8047,815.3191 Q326.8984,815.2644 327.0078,815.2644 Q327.1953,815.2644 327.3125,815.3972 Q327.4297,815.5222 327.4297,815.8269 L327.4297,816.5535 Q327.4297,816.8582 327.3125,816.991 Q327.1953,817.1238 327.0078,817.1238 Q326.8359,817.1238 326.7344,817.0222 Q326.6328,816.9285 326.5781,816.6707 Q326.5547,816.491 326.4609,816.3972 Q326.2969,816.2097 325.9922,816.1003 Q325.6875,815.991 325.375,815.991 Q324.9922,815.991 324.6719,816.155 Q324.3594,816.3191 324.1094,816.6941 Q323.8672,817.0691 323.8672,817.5847 L323.8672,818.1316 Q323.8672,818.7488 324.3125,819.1628 Q324.7578,819.5691 325.5547,819.5691 Q326.0234,819.5691 326.3516,819.4441 Q326.5469,819.366 326.7578,819.1472 Q326.8906,819.0144 326.9609,818.9753 Q327.0391,818.9363 327.1406,818.9363 Q327.3047,818.9363 327.4297,819.0691 Q327.5625,819.1941 327.5625,819.366 Q327.5625,819.5378 327.3906,819.741 Q327.1406,820.03 326.7422,820.1941 Q326.2031,820.4207 325.5547,820.4207 Q324.7969,820.4207 324.1953,820.1082 Q323.7031,819.8582 323.3594,819.3269 Q323.0156,818.7878 323.0156,818.1472 L323.0156,817.5691 Q323.0156,816.905 323.3203,816.3347 Q323.6328,815.7566 324.1797,815.4519 Q324.7266,815.1394 325.3438,815.1394 Q325.7109,815.1394 326.0313,815.2253 Q326.3594,815.3035 326.6328,815.4832 Z " fill="#33FF33"/><text fill="#33FF33" font-family="Verdana" font-size="6" font-style="italic" lengthAdjust="spacing" textLength="25.5" x="330.25" y="812.0322">&#171;entity&#187;</text><text fill="#33FF33" font-family="Verdana" font-size="6" font-style="italic" lengthAdjust="spacing" textLength="20" x="333" y="819.3242">&#171;root&#187;</text><text fill="#33FF33" font-family="Verdana" font-size="7" lengthAdjust="spacing" textLength="19.5" x="333.25" y="827.6216">Exam</text></g><!--class ExamType--><g id="elem_ExamType"><rect codeLine="27" fill="#282828" height="28.0913" id="ExamType" rx="1.25" ry="1.25" style="stroke:#33FF33;stroke-width:0.5;" width="50.5" x="503" y="1035.5"/><ellipse cx="509.5" cy="1049.5457" fill="#282828" rx="4.5" ry="4.5" style="stroke:#33FF33;stroke-width:0.5;"/><path d="M510.8828,1047.4832 Q510.9609,1047.3738 511.0547,1047.3191 Q511.1484,1047.2644 511.2578,1047.2644 Q511.4453,1047.2644 511.5625,1047.3972 Q511.6797,1047.5222 511.6797,1047.8269 L511.6797,1048.5535 Q511.6797,1048.8582 511.5625,1048.991 Q511.4453,1049.1238 511.2578,1049.1238 Q511.0859,1049.1238 510.9844,1049.0222 Q510.8828,1048.9285 510.8281,1048.6707 Q510.8047,1048.491 510.7109,1048.3972 Q510.5469,1048.2097 510.2422,1048.1003 Q509.9375,1047.991 509.625,1047.991 Q509.2422,1047.991 508.9219,1048.155 Q508.6094,1048.3191 508.3594,1048.6941 Q508.1172,1049.0691 508.1172,1049.5847 L508.1172,1050.1316 Q508.1172,1050.7488 508.5625,1051.1628 Q509.0078,1051.5691 509.8047,1051.5691 Q510.2734,1051.5691 510.6016,1051.4441 Q510.7969,1051.366 511.0078,1051.1472 Q511.1406,1051.0144 511.2109,1050.9753 Q511.2891,1050.9363 511.3906,1050.9363 Q511.5547,1050.9363 511.6797,1051.0691 Q511.8125,1051.1941 511.8125,1051.366 Q511.8125,1051.5378 511.6406,1051.741 Q511.3906,1052.03 510.9922,1052.1941 Q510.4531,1052.4207 509.8047,1052.4207 Q509.0469,1052.4207 508.4453,1052.1082 Q507.9531,1051.8582 507.6094,1051.3269 Q507.2656,1050.7878 507.2656,1050.1472 L507.2656,1049.5691 Q507.2656,1048.905 507.5703,1048.3347 Q507.8828,1047.7566 508.4297,1047.4519 Q508.9766,1047.1394 509.5938,1047.1394 Q509.9609,1047.1394 510.2813,1047.2253 Q510.6094,1047.3035 510.8828,1047.4832 Z " fill="#33FF33"/><text fill="#33FF33" font-family="Verdana" font-size="6" font-style="italic" lengthAdjust="spacing" textLength="25.5" x="521" y="1044.0322">&#171;enum&#187;</text><text fill="#33FF33" font-family="Verdana" font-size="6" font-style="italic" lengthAdjust="spacing" textLength="15" x="526.25" y="1051.3242">&#171;vo&#187;</text><text fill="#33FF33" font-family="Verdana" font-size="7" lengthAdjust="spacing" textLength="36.5" x="515.5" y="1059.6216">ExamType</text></g><!--class ExamTitle--><g id="elem_ExamTitle"><rect codeLine="28" fill="#282828" height="20.7993" id="ExamTitle" rx="1.25" ry="1.25" style="stroke:#33FF33;stroke-width:0.5;" width="48" x="504.25" y="939.5"/><ellipse cx="510.75" cy="949.8997" fill="#282828" rx="4.5" ry="4.5" style="stroke:#33FF33;stroke-width:0.5;"/><path d="M512.1328,947.8372 Q512.2109,947.7278 512.3047,947.6731 Q512.3984,947.6184 512.5078,947.6184 Q512.6953,947.6184 512.8125,947.7512 Q512.9297,947.8762 512.9297,948.1809 L512.9297,948.9075 Q512.9297,949.2122 512.8125,949.345 Q512.6953,949.4778 512.5078,949.4778 Q512.3359,949.4778 512.2344,949.3762 Q512.1328,949.2825 512.0781,949.0247 Q512.0547,948.845 511.9609,948.7512 Q511.7969,948.5637 511.4922,948.4543 Q511.1875,948.345 510.875,948.345 Q510.4922,948.345 510.1719,948.509 Q509.8594,948.6731 509.6094,949.0481 Q509.3672,949.4231 509.3672,949.9387 L509.3672,950.4856 Q509.3672,951.1028 509.8125,951.5168 Q510.2578,951.9231 511.0547,951.9231 Q511.5234,951.9231 511.8516,951.7981 Q512.0469,951.72 512.2578,951.5012 Q512.3906,951.3684 512.4609,951.3293 Q512.5391,951.2903 512.6406,951.2903 Q512.8047,951.2903 512.9297,951.4231 Q513.0625,951.5481 513.0625,951.72 Q513.0625,951.8918 512.8906,952.095 Q512.6406,952.384 512.2422,952.5481 Q511.7031,952.7747 511.0547,952.7747 Q510.2969,952.7747 509.6953,952.4622 Q509.2031,952.2122 508.8594,951.6809 Q508.5156,951.1418 508.5156,950.5012 L508.5156,949.9231 Q508.5156,949.259 508.8203,948.6887 Q509.1328,948.1106 509.6797,947.8059 Q510.2266,947.4934 510.8438,947.4934 Q511.2109,947.4934 511.5313,947.5793 Q511.8594,947.6575 512.1328,947.8372 Z " fill="#33FF33"/><text fill="#33FF33" font-family="Verdana" font-size="6" font-style="italic" lengthAdjust="spacing" textLength="15" x="526.25" y="948.0322">&#171;vo&#187;</text><text fill="#33FF33" font-family="Verdana" font-size="7" lengthAdjust="spacing" textLength="34" x="516.75" y="956.3296">ExamTitle</text></g><!--class ExamHeaderTextualDescription--><g id="elem_ExamHeaderTextualDescription"><rect codeLine="29" fill="#282828" height="20.7993" id="ExamHeaderTextualDescription" rx="1.25" ry="1.25" style="stroke:#33FF33;stroke-width:0.5;" width="123.5" x="466.5" y="843.5"/><ellipse cx="473" cy="853.8997" fill="#282828" rx="4.5" ry="4.5" style="stroke:#33FF33;stroke-width:0.5;"/><path d="M474.3828,851.8372 Q474.4609,851.7278 474.5547,851.6731 Q474.6484,851.6184 474.7578,851.6184 Q474.9453,851.6184 475.0625,851.7512 Q475.1797,851.8762 475.1797,852.1809 L475.1797,852.9075 Q475.1797,853.2122 475.0625,853.345 Q474.9453,853.4778 474.7578,853.4778 Q474.5859,853.4778 474.4844,853.3762 Q474.3828,853.2825 474.3281,853.0247 Q474.3047,852.845 474.2109,852.7512 Q474.0469,852.5637 473.7422,852.4543 Q473.4375,852.345 473.125,852.345 Q472.7422,852.345 472.4219,852.509 Q472.1094,852.6731 471.8594,853.0481 Q471.6172,853.4231 471.6172,853.9387 L471.6172,854.4856 Q471.6172,855.1028 472.0625,855.5168 Q472.5078,855.9231 473.3047,855.9231 Q473.7734,855.9231 474.1016,855.7981 Q474.2969,855.72 474.5078,855.5012 Q474.6406,855.3684 474.7109,855.3293 Q474.7891,855.2903 474.8906,855.2903 Q475.0547,855.2903 475.1797,855.4231 Q475.3125,855.5481 475.3125,855.72 Q475.3125,855.8918 475.1406,856.095 Q474.8906,856.384 474.4922,856.5481 Q473.9531,856.7747 473.3047,856.7747 Q472.5469,856.7747 471.9453,856.4622 Q471.4531,856.2122 471.1094,855.6809 Q470.7656,855.1418 470.7656,854.5012 L470.7656,853.9231 Q470.7656,853.259 471.0703,852.6887 Q471.3828,852.1106 471.9297,851.8059 Q472.4766,851.4934 473.0938,851.4934 Q473.4609,851.4934 473.7813,851.5793 Q474.1094,851.6575 474.3828,851.8372 Z " fill="#33FF33"/><text fill="#33FF33" font-family="Verdana" font-size="6" font-style="italic" lengthAdjust="spacing" textLength="15" x="526.25" y="852.0322">&#171;vo&#187;</text><text fill="#33FF33" font-family="Verdana" font-size="7" lengthAdjust="spacing" textLength="109.5" x="479" y="860.3296">ExamHeaderTextualDescription</text></g><!--class ExamInitalDateTime--><g id="elem_ExamInitalDateTime"><rect codeLine="30" fill="#282828" height="20.7993" id="ExamInitalDateTime" rx="1.25" ry="1.25" style="stroke:#33FF33;stroke-width:0.5;" width="83.5" x="486.5" y="747.5"/><ellipse cx="493" cy="757.8997" fill="#282828" rx="4.5" ry="4.5" style="stroke:#33FF33;stroke-width:0.5;"/><path d="M494.3828,755.8372 Q494.4609,755.7278 494.5547,755.6731 Q494.6484,755.6184 494.7578,755.6184 Q494.9453,755.6184 495.0625,755.7512 Q495.1797,755.8762 495.1797,756.1809 L495.1797,756.9075 Q495.1797,757.2122 495.0625,757.345 Q494.9453,757.4778 494.7578,757.4778 Q494.5859,757.4778 494.4844,757.3762 Q494.3828,757.2825 494.3281,757.0247 Q494.3047,756.845 494.2109,756.7512 Q494.0469,756.5637 493.7422,756.4543 Q493.4375,756.345 493.125,756.345 Q492.7422,756.345 492.4219,756.509 Q492.1094,756.6731 491.8594,757.0481 Q491.6172,757.4231 491.6172,757.9387 L491.6172,758.4856 Q491.6172,759.1028 492.0625,759.5168 Q492.5078,759.9231 493.3047,759.9231 Q493.7734,759.9231 494.1016,759.7981 Q494.2969,759.72 494.5078,759.5012 Q494.6406,759.3684 494.7109,759.3293 Q494.7891,759.2903 494.8906,759.2903 Q495.0547,759.2903 495.1797,759.4231 Q495.3125,759.5481 495.3125,759.72 Q495.3125,759.8918 495.1406,760.095 Q494.8906,760.384 494.4922,760.5481 Q493.9531,760.7747 493.3047,760.7747 Q492.5469,760.7747 491.9453,760.4622 Q491.4531,760.2122 491.1094,759.6809 Q490.7656,759.1418 490.7656,758.5012 L490.7656,757.9231 Q490.7656,757.259 491.0703,756.6887 Q491.3828,756.1106 491.9297,755.8059 Q492.4766,755.4934 493.0938,755.4934 Q493.4609,755.4934 493.7813,755.5793 Q494.1094,755.6575 494.3828,755.8372 Z " fill="#33FF33"/><text fill="#33FF33" font-family="Verdana" font-size="6" font-style="italic" lengthAdjust="spacing" textLength="15" x="526.25" y="756.0322">&#171;vo&#187;</text><text fill="#33FF33" font-family="Verdana" font-size="7" lengthAdjust="spacing" textLength="69.5" x="499" y="764.3296">ExamInitalDateTime</text></g><!--class ExamFinalDateTime--><g id="elem_ExamFinalDateTime"><rect codeLine="31" fill="#282828" height="20.7993" id="ExamFinalDateTime" rx="1.25" ry="1.25" style="stroke:#33FF33;stroke-width:0.5;" width="82" x="487.25" y="651.5"/><ellipse cx="493.75" cy="661.8997" fill="#282828" rx="4.5" ry="4.5" style="stroke:#33FF33;stroke-width:0.5;"/><path d="M495.1328,659.8372 Q495.2109,659.7278 495.3047,659.6731 Q495.3984,659.6184 495.5078,659.6184 Q495.6953,659.6184 495.8125,659.7512 Q495.9297,659.8762 495.9297,660.1809 L495.9297,660.9075 Q495.9297,661.2122 495.8125,661.345 Q495.6953,661.4778 495.5078,661.4778 Q495.3359,661.4778 495.2344,661.3762 Q495.1328,661.2825 495.0781,661.0247 Q495.0547,660.845 494.9609,660.7512 Q494.7969,660.5637 494.4922,660.4543 Q494.1875,660.345 493.875,660.345 Q493.4922,660.345 493.1719,660.509 Q492.8594,660.6731 492.6094,661.0481 Q492.3672,661.4231 492.3672,661.9387 L492.3672,662.4856 Q492.3672,663.1028 492.8125,663.5168 Q493.2578,663.9231 494.0547,663.9231 Q494.5234,663.9231 494.8516,663.7981 Q495.0469,663.72 495.2578,663.5012 Q495.3906,663.3684 495.4609,663.3293 Q495.5391,663.2903 495.6406,663.2903 Q495.8047,663.2903 495.9297,663.4231 Q496.0625,663.5481 496.0625,663.72 Q496.0625,663.8918 495.8906,664.095 Q495.6406,664.384 495.2422,664.5481 Q494.7031,664.7747 494.0547,664.7747 Q493.2969,664.7747 492.6953,664.4622 Q492.2031,664.2122 491.8594,663.6809 Q491.5156,663.1418 491.5156,662.5012 L491.5156,661.9231 Q491.5156,661.259 491.8203,660.6887 Q492.1328,660.1106 492.6797,659.8059 Q493.2266,659.4934 493.8438,659.4934 Q494.2109,659.4934 494.5313,659.5793 Q494.8594,659.6575 495.1328,659.8372 Z " fill="#33FF33"/><text fill="#33FF33" font-family="Verdana" font-size="6" font-style="italic" lengthAdjust="spacing" textLength="15" x="526.25" y="660.0322">&#171;vo&#187;</text><text fill="#33FF33" font-family="Verdana" font-size="7" lengthAdjust="spacing" textLength="68" x="499.75" y="668.3296">ExamFinalDateTime</text></g><!--class Teacher--><g id="elem_Teacher"><rect fill="#282828" height="14" id="Teacher" rx="1.25" ry="1.25" style="stroke:#33FF33;stroke-width:0.5;" width="41.5" x="139.25" y="690.5"/><ellipse cx="145.75" cy="697.5" fill="#282828" rx="4.5" ry="4.5" style="stroke:#33FF33;stroke-width:0.5;"/><path d="M147.1328,695.4375 Q147.2109,695.3281 147.3047,695.2734 Q147.3984,695.2188 147.5078,695.2188 Q147.6953,695.2188 147.8125,695.3516 Q147.9297,695.4766 147.9297,695.7813 L147.9297,696.5078 Q147.9297,696.8125 147.8125,696.9453 Q147.6953,697.0781 147.5078,697.0781 Q147.3359,697.0781 147.2344,696.9766 Q147.1328,696.8828 147.0781,696.625 Q147.0547,696.4453 146.9609,696.3516 Q146.7969,696.1641 146.4922,696.0547 Q146.1875,695.9453 145.875,695.9453 Q145.4922,695.9453 145.1719,696.1094 Q144.8594,696.2734 144.6094,696.6484 Q144.3672,697.0234 144.3672,697.5391 L144.3672,698.0859 Q144.3672,698.7031 144.8125,699.1172 Q145.2578,699.5234 146.0547,699.5234 Q146.5234,699.5234 146.8516,699.3984 Q147.0469,699.3203 147.2578,699.1016 Q147.3906,698.9688 147.4609,698.9297 Q147.5391,698.8906 147.6406,698.8906 Q147.8047,698.8906 147.9297,699.0234 Q148.0625,699.1484 148.0625,699.3203 Q148.0625,699.4922 147.8906,699.6953 Q147.6406,699.9844 147.2422,700.1484 Q146.7031,700.375 146.0547,700.375 Q145.2969,700.375 144.6953,700.0625 Q144.2031,699.8125 143.8594,699.2813 Q143.5156,698.7422 143.5156,698.1016 L143.5156,697.5234 Q143.5156,696.8594 143.8203,696.2891 Q144.1328,695.7109 144.6797,695.4063 Q145.2266,695.0938 145.8438,695.0938 Q146.2109,695.0938 146.5313,695.1797 Q146.8594,695.2578 147.1328,695.4375 Z " fill="#33FF33"/><text fill="#33FF33" font-family="Verdana" font-size="7" lengthAdjust="spacing" textLength="27.5" x="151.75" y="700.2839">Teacher</text></g><!--class Course--><g id="elem_Course"><rect fill="#282828" height="14" id="Course" rx="1.25" ry="1.25" style="stroke:#33FF33;stroke-width:0.5;" width="39" x="508.75" y="562.5"/><ellipse cx="515.25" cy="569.5" fill="#282828" rx="4.5" ry="4.5" style="stroke:#33FF33;stroke-width:0.5;"/><path d="M516.6328,567.4375 Q516.7109,567.3281 516.8047,567.2734 Q516.8984,567.2188 517.0078,567.2188 Q517.1953,567.2188 517.3125,567.3516 Q517.4297,567.4766 517.4297,567.7813 L517.4297,568.5078 Q517.4297,568.8125 517.3125,568.9453 Q517.1953,569.0781 517.0078,569.0781 Q516.8359,569.0781 516.7344,568.9766 Q516.6328,568.8828 516.5781,568.625 Q516.5547,568.4453 516.4609,568.3516 Q516.2969,568.1641 515.9922,568.0547 Q515.6875,567.9453 515.375,567.9453 Q514.9922,567.9453 514.6719,568.1094 Q514.3594,568.2734 514.1094,568.6484 Q513.8672,569.0234 513.8672,569.5391 L513.8672,570.0859 Q513.8672,570.7031 514.3125,571.1172 Q514.7578,571.5234 515.5547,571.5234 Q516.0234,571.5234 516.3516,571.3984 Q516.5469,571.3203 516.7578,571.1016 Q516.8906,570.9688 516.9609,570.9297 Q517.0391,570.8906 517.1406,570.8906 Q517.3047,570.8906 517.4297,571.0234 Q517.5625,571.1484 517.5625,571.3203 Q517.5625,571.4922 517.3906,571.6953 Q517.1406,571.9844 516.7422,572.1484 Q516.2031,572.375 515.5547,572.375 Q514.7969,572.375 514.1953,572.0625 Q513.7031,571.8125 513.3594,571.2813 Q513.0156,570.7422 513.0156,570.1016 L513.0156,569.5234 Q513.0156,568.8594 513.3203,568.2891 Q513.6328,567.7109 514.1797,567.4063 Q514.7266,567.0938 515.3438,567.0938 Q515.7109,567.0938 516.0313,567.1797 Q516.3594,567.2578 516.6328,567.4375 Z " fill="#33FF33"/><text fill="#33FF33" font-family="Verdana" font-size="7" lengthAdjust="spacing" textLength="25" x="521.25" y="572.2839">Course</text></g><!--class ExamSection--><g id="elem_ExamSection"><rect codeLine="44" fill="#282828" height="28.0913" id="ExamSection" rx="1.25" ry="1.25" style="stroke:#33FF33;stroke-width:0.5;" width="59.5" x="130.25" y="1101.5"/><ellipse cx="136.75" cy="1115.5457" fill="#282828" rx="4.5" ry="4.5" style="stroke:#33FF33;stroke-width:0.5;"/><path d="M138.1328,1113.4832 Q138.2109,1113.3738 138.3047,1113.3191 Q138.3984,1113.2644 138.5078,1113.2644 Q138.6953,1113.2644 138.8125,1113.3972 Q138.9297,1113.5222 138.9297,1113.8269 L138.9297,1114.5535 Q138.9297,1114.8582 138.8125,1114.991 Q138.6953,1115.1238 138.5078,1115.1238 Q138.3359,1115.1238 138.2344,1115.0222 Q138.1328,1114.9285 138.0781,1114.6707 Q138.0547,1114.491 137.9609,1114.3972 Q137.7969,1114.2097 137.4922,1114.1003 Q137.1875,1113.991 136.875,1113.991 Q136.4922,1113.991 136.1719,1114.155 Q135.8594,1114.3191 135.6094,1114.6941 Q135.3672,1115.0691 135.3672,1115.5847 L135.3672,1116.1316 Q135.3672,1116.7488 135.8125,1117.1628 Q136.2578,1117.5691 137.0547,1117.5691 Q137.5234,1117.5691 137.8516,1117.4441 Q138.0469,1117.366 138.2578,1117.1472 Q138.3906,1117.0144 138.4609,1116.9753 Q138.5391,1116.9363 138.6406,1116.9363 Q138.8047,1116.9363 138.9297,1117.0691 Q139.0625,1117.1941 139.0625,1117.366 Q139.0625,1117.5378 138.8906,1117.741 Q138.6406,1118.03 138.2422,1118.1941 Q137.7031,1118.4207 137.0547,1118.4207 Q136.2969,1118.4207 135.6953,1118.1082 Q135.2031,1117.8582 134.8594,1117.3269 Q134.5156,1116.7878 134.5156,1116.1472 L134.5156,1115.5691 Q134.5156,1114.905 134.8203,1114.3347 Q135.1328,1113.7566 135.6797,1113.4519 Q136.2266,1113.1394 136.8438,1113.1394 Q137.2109,1113.1394 137.5313,1113.2253 Q137.8594,1113.3035 138.1328,1113.4832 Z " fill="#33FF33"/><text fill="#33FF33" font-family="Verdana" font-size="6" font-style="italic" lengthAdjust="spacing" textLength="25.5" x="152.75" y="1110.0322">&#171;entity&#187;</text><text fill="#33FF33" font-family="Verdana" font-size="6" font-style="italic" lengthAdjust="spacing" textLength="20" x="155.5" y="1117.3242">&#171;root&#187;</text><text fill="#33FF33" font-family="Verdana" font-size="7" lengthAdjust="spacing" textLength="45.5" x="142.75" y="1125.6216">ExamSection</text></g><!--class ExamSectionTextualDescription--><g id="elem_ExamSectionTextualDescription"><rect codeLine="45" fill="#282828" height="20.7993" id="ExamSectionTextualDescription" rx="1.25" ry="1.25" style="stroke:#33FF33;stroke-width:0.5;" width="125" x="275" y="1105"/><ellipse cx="281.5" cy="1115.3997" fill="#282828" rx="4.5" ry="4.5" style="stroke:#33FF33;stroke-width:0.5;"/><path d="M282.8828,1113.3372 Q282.9609,1113.2278 283.0547,1113.1731 Q283.1484,1113.1184 283.2578,1113.1184 Q283.4453,1113.1184 283.5625,1113.2512 Q283.6797,1113.3762 283.6797,1113.6809 L283.6797,1114.4075 Q283.6797,1114.7122 283.5625,1114.845 Q283.4453,1114.9778 283.2578,1114.9778 Q283.0859,1114.9778 282.9844,1114.8762 Q282.8828,1114.7825 282.8281,1114.5247 Q282.8047,1114.345 282.7109,1114.2512 Q282.5469,1114.0637 282.2422,1113.9543 Q281.9375,1113.845 281.625,1113.845 Q281.2422,1113.845 280.9219,1114.009 Q280.6094,1114.1731 280.3594,1114.5481 Q280.1172,1114.9231 280.1172,1115.4387 L280.1172,1115.9856 Q280.1172,1116.6028 280.5625,1117.0168 Q281.0078,1117.4231 281.8047,1117.4231 Q282.2734,1117.4231 282.6016,1117.2981 Q282.7969,1117.22 283.0078,1117.0012 Q283.1406,1116.8684 283.2109,1116.8293 Q283.2891,1116.7903 283.3906,1116.7903 Q283.5547,1116.7903 283.6797,1116.9231 Q283.8125,1117.0481 283.8125,1117.22 Q283.8125,1117.3918 283.6406,1117.595 Q283.3906,1117.884 282.9922,1118.0481 Q282.4531,1118.2747 281.8047,1118.2747 Q281.0469,1118.2747 280.4453,1117.9622 Q279.9531,1117.7122 279.6094,1117.1809 Q279.2656,1116.6418 279.2656,1116.0012 L279.2656,1115.4231 Q279.2656,1114.759 279.5703,1114.1887 Q279.8828,1113.6106 280.4297,1113.3059 Q280.9766,1112.9934 281.5938,1112.9934 Q281.9609,1112.9934 282.2813,1113.0793 Q282.6094,1113.1575 282.8828,1113.3372 Z " fill="#33FF33"/><text fill="#33FF33" font-family="Verdana" font-size="6" font-style="italic" lengthAdjust="spacing" textLength="15" x="335.5" y="1113.5322">&#171;vo&#187;</text><text fill="#33FF33" font-family="Verdana" font-size="7" lengthAdjust="spacing" textLength="111" x="287.5" y="1121.8296">ExamSectionTextualDescription</text></g><!--class ExamQuestion--><g id="elem_ExamQuestion"><rect codeLine="52" fill="#282828" height="28.0913" id="ExamQuestion" rx="1.25" ry="1.25" style="stroke:#33FF33;stroke-width:0.5;" width="65" x="13.5" y="1352"/><ellipse cx="20" cy="1366.0457" fill="#282828" rx="4.5" ry="4.5" style="stroke:#33FF33;stroke-width:0.5;"/><path d="M21.3828,1363.9832 Q21.4609,1363.8738 21.5547,1363.8191 Q21.6484,1363.7644 21.7578,1363.7644 Q21.9453,1363.7644 22.0625,1363.8972 Q22.1797,1364.0222 22.1797,1364.3269 L22.1797,1365.0535 Q22.1797,1365.3582 22.0625,1365.491 Q21.9453,1365.6238 21.7578,1365.6238 Q21.5859,1365.6238 21.4844,1365.5222 Q21.3828,1365.4285 21.3281,1365.1707 Q21.3047,1364.991 21.2109,1364.8972 Q21.0469,1364.7097 20.7422,1364.6003 Q20.4375,1364.491 20.125,1364.491 Q19.7422,1364.491 19.4219,1364.655 Q19.1094,1364.8191 18.8594,1365.1941 Q18.6172,1365.5691 18.6172,1366.0847 L18.6172,1366.6316 Q18.6172,1367.2488 19.0625,1367.6628 Q19.5078,1368.0691 20.3047,1368.0691 Q20.7734,1368.0691 21.1016,1367.9441 Q21.2969,1367.866 21.5078,1367.6472 Q21.6406,1367.5144 21.7109,1367.4753 Q21.7891,1367.4363 21.8906,1367.4363 Q22.0547,1367.4363 22.1797,1367.5691 Q22.3125,1367.6941 22.3125,1367.866 Q22.3125,1368.0378 22.1406,1368.241 Q21.8906,1368.53 21.4922,1368.6941 Q20.9531,1368.9207 20.3047,1368.9207 Q19.5469,1368.9207 18.9453,1368.6082 Q18.4531,1368.3582 18.1094,1367.8269 Q17.7656,1367.2878 17.7656,1366.6472 L17.7656,1366.0691 Q17.7656,1365.405 18.0703,1364.8347 Q18.3828,1364.2566 18.9297,1363.9519 Q19.4766,1363.6394 20.0938,1363.6394 Q20.4609,1363.6394 20.7813,1363.7253 Q21.1094,1363.8035 21.3828,1363.9832 Z " fill="#33FF33"/><text fill="#33FF33" font-family="Verdana" font-size="6" font-style="italic" lengthAdjust="spacing" textLength="25.5" x="38.75" y="1360.5322">&#171;entity&#187;</text><text fill="#33FF33" font-family="Verdana" font-size="6" font-style="italic" lengthAdjust="spacing" textLength="20" x="41.5" y="1367.8242">&#171;root&#187;</text><text fill="#33FF33" font-family="Verdana" font-size="7" lengthAdjust="spacing" textLength="51" x="26" y="1376.1216">ExamQuestion</text></g><!--class ExamQuestionStatement--><g id="elem_ExamQuestionStatement"><rect codeLine="53" fill="#282828" height="20.7993" id="ExamQuestionStatement" rx="1.25" ry="1.25" style="stroke:#33FF33;stroke-width:0.5;" width="102" x="109" y="1595.5"/><ellipse cx="115.5" cy="1605.8997" fill="#282828" rx="4.5" ry="4.5" style="stroke:#33FF33;stroke-width:0.5;"/><path d="M116.8828,1603.8372 Q116.9609,1603.7278 117.0547,1603.6731 Q117.1484,1603.6184 117.2578,1603.6184 Q117.4453,1603.6184 117.5625,1603.7512 Q117.6797,1603.8762 117.6797,1604.1809 L117.6797,1604.9075 Q117.6797,1605.2122 117.5625,1605.345 Q117.4453,1605.4778 117.2578,1605.4778 Q117.0859,1605.4778 116.9844,1605.3762 Q116.8828,1605.2825 116.8281,1605.0247 Q116.8047,1604.845 116.7109,1604.7512 Q116.5469,1604.5637 116.2422,1604.4543 Q115.9375,1604.345 115.625,1604.345 Q115.2422,1604.345 114.9219,1604.509 Q114.6094,1604.6731 114.3594,1605.0481 Q114.1172,1605.4231 114.1172,1605.9387 L114.1172,1606.4856 Q114.1172,1607.1028 114.5625,1607.5168 Q115.0078,1607.9231 115.8047,1607.9231 Q116.2734,1607.9231 116.6016,1607.7981 Q116.7969,1607.72 117.0078,1607.5012 Q117.1406,1607.3684 117.2109,1607.3293 Q117.2891,1607.2903 117.3906,1607.2903 Q117.5547,1607.2903 117.6797,1607.4231 Q117.8125,1607.5481 117.8125,1607.72 Q117.8125,1607.8918 117.6406,1608.095 Q117.3906,1608.384 116.9922,1608.5481 Q116.4531,1608.7747 115.8047,1608.7747 Q115.0469,1608.7747 114.4453,1608.4622 Q113.9531,1608.2122 113.6094,1607.6809 Q113.2656,1607.1418 113.2656,1606.5012 L113.2656,1605.9231 Q113.2656,1605.259 113.5703,1604.6887 Q113.8828,1604.1106 114.4297,1603.8059 Q114.9766,1603.4934 115.5938,1603.4934 Q115.9609,1603.4934 116.2813,1603.5793 Q116.6094,1603.6575 116.8828,1603.8372 Z " fill="#33FF33"/><text fill="#33FF33" font-family="Verdana" font-size="6" font-style="italic" lengthAdjust="spacing" textLength="15" x="158" y="1604.0322">&#171;vo&#187;</text><text fill="#33FF33" font-family="Verdana" font-size="7" lengthAdjust="spacing" textLength="88" x="121.5" y="1612.3296">ExamQuestionStatement</text></g><!--class ExamQuestionFeedback--><g id="elem_ExamQuestionFeedback"><rect codeLine="54" fill="#282828" height="20.7993" id="ExamQuestionFeedback" rx="1.25" ry="1.25" style="stroke:#33FF33;stroke-width:0.5;" width="97.5" x="111.25" y="1499.5"/><ellipse cx="117.75" cy="1509.8997" fill="#282828" rx="4.5" ry="4.5" style="stroke:#33FF33;stroke-width:0.5;"/><path d="M119.1328,1507.8372 Q119.2109,1507.7278 119.3047,1507.6731 Q119.3984,1507.6184 119.5078,1507.6184 Q119.6953,1507.6184 119.8125,1507.7512 Q119.9297,1507.8762 119.9297,1508.1809 L119.9297,1508.9075 Q119.9297,1509.2122 119.8125,1509.345 Q119.6953,1509.4778 119.5078,1509.4778 Q119.3359,1509.4778 119.2344,1509.3762 Q119.1328,1509.2825 119.0781,1509.0247 Q119.0547,1508.845 118.9609,1508.7512 Q118.7969,1508.5637 118.4922,1508.4543 Q118.1875,1508.345 117.875,1508.345 Q117.4922,1508.345 117.1719,1508.509 Q116.8594,1508.6731 116.6094,1509.0481 Q116.3672,1509.4231 116.3672,1509.9387 L116.3672,1510.4856 Q116.3672,1511.1028 116.8125,1511.5168 Q117.2578,1511.9231 118.0547,1511.9231 Q118.5234,1511.9231 118.8516,1511.7981 Q119.0469,1511.72 119.2578,1511.5012 Q119.3906,1511.3684 119.4609,1511.3293 Q119.5391,1511.2903 119.6406,1511.2903 Q119.8047,1511.2903 119.9297,1511.4231 Q120.0625,1511.5481 120.0625,1511.72 Q120.0625,1511.8918 119.8906,1512.095 Q119.6406,1512.384 119.2422,1512.5481 Q118.7031,1512.7747 118.0547,1512.7747 Q117.2969,1512.7747 116.6953,1512.4622 Q116.2031,1512.2122 115.8594,1511.6809 Q115.5156,1511.1418 115.5156,1510.5012 L115.5156,1509.9231 Q115.5156,1509.259 115.8203,1508.6887 Q116.1328,1508.1106 116.6797,1507.8059 Q117.2266,1507.4934 117.8438,1507.4934 Q118.2109,1507.4934 118.5313,1507.5793 Q118.8594,1507.6575 119.1328,1507.8372 Z " fill="#33FF33"/><text fill="#33FF33" font-family="Verdana" font-size="6" font-style="italic" lengthAdjust="spacing" textLength="15" x="158" y="1508.0322">&#171;vo&#187;</text><text fill="#33FF33" font-family="Verdana" font-size="7" lengthAdjust="spacing" textLength="83.5" x="123.75" y="1516.3296">ExamQuestionFeedback</text></g><!--class ExamQuestionValue--><g id="elem_ExamQuestionValue"><rect codeLine="55" fill="#282828" height="20.7993" id="ExamQuestionValue" rx="1.25" ry="1.25" style="stroke:#33FF33;stroke-width:0.5;" width="84" x="118" y="1403.5"/><ellipse cx="124.5" cy="1413.8997" fill="#282828" rx="4.5" ry="4.5" style="stroke:#33FF33;stroke-width:0.5;"/><path d="M125.8828,1411.8372 Q125.9609,1411.7278 126.0547,1411.6731 Q126.1484,1411.6184 126.2578,1411.6184 Q126.4453,1411.6184 126.5625,1411.7512 Q126.6797,1411.8762 126.6797,1412.1809 L126.6797,1412.9075 Q126.6797,1413.2122 126.5625,1413.345 Q126.4453,1413.4778 126.2578,1413.4778 Q126.0859,1413.4778 125.9844,1413.3762 Q125.8828,1413.2825 125.8281,1413.0247 Q125.8047,1412.845 125.7109,1412.7512 Q125.5469,1412.5637 125.2422,1412.4543 Q124.9375,1412.345 124.625,1412.345 Q124.2422,1412.345 123.9219,1412.509 Q123.6094,1412.6731 123.3594,1413.0481 Q123.1172,1413.4231 123.1172,1413.9387 L123.1172,1414.4856 Q123.1172,1415.1028 123.5625,1415.5168 Q124.0078,1415.9231 124.8047,1415.9231 Q125.2734,1415.9231 125.6016,1415.7981 Q125.7969,1415.72 126.0078,1415.5012 Q126.1406,1415.3684 126.2109,1415.3293 Q126.2891,1415.2903 126.3906,1415.2903 Q126.5547,1415.2903 126.6797,1415.4231 Q126.8125,1415.5481 126.8125,1415.72 Q126.8125,1415.8918 126.6406,1416.095 Q126.3906,1416.384 125.9922,1416.5481 Q125.4531,1416.7747 124.8047,1416.7747 Q124.0469,1416.7747 123.4453,1416.4622 Q122.9531,1416.2122 122.6094,1415.6809 Q122.2656,1415.1418 122.2656,1414.5012 L122.2656,1413.9231 Q122.2656,1413.259 122.5703,1412.6887 Q122.8828,1412.1106 123.4297,1411.8059 Q123.9766,1411.4934 124.5938,1411.4934 Q124.9609,1411.4934 125.2813,1411.5793 Q125.6094,1411.6575 125.8828,1411.8372 Z " fill="#33FF33"/><text fill="#33FF33" font-family="Verdana" font-size="6" font-style="italic" lengthAdjust="spacing" textLength="15" x="158" y="1412.0322">&#171;vo&#187;</text><text fill="#33FF33" font-family="Verdana" font-size="7" lengthAdjust="spacing" textLength="70" x="130.5" y="1420.3296">ExamQuestionValue</text></g><!--class ExamQuestionSolution--><g id="elem_ExamQuestionSolution"><rect codeLine="56" fill="#282828" height="20.7993" id="ExamQuestionSolution" rx="1.25" ry="1.25" style="stroke:#33FF33;stroke-width:0.5;" width="94" x="113" y="1307.5"/><ellipse cx="119.5" cy="1317.8997" fill="#282828" rx="4.5" ry="4.5" style="stroke:#33FF33;stroke-width:0.5;"/><path d="M120.8828,1315.8372 Q120.9609,1315.7278 121.0547,1315.6731 Q121.1484,1315.6184 121.2578,1315.6184 Q121.4453,1315.6184 121.5625,1315.7512 Q121.6797,1315.8762 121.6797,1316.1809 L121.6797,1316.9075 Q121.6797,1317.2122 121.5625,1317.345 Q121.4453,1317.4778 121.2578,1317.4778 Q121.0859,1317.4778 120.9844,1317.3762 Q120.8828,1317.2825 120.8281,1317.0247 Q120.8047,1316.845 120.7109,1316.7512 Q120.5469,1316.5637 120.2422,1316.4543 Q119.9375,1316.345 119.625,1316.345 Q119.2422,1316.345 118.9219,1316.509 Q118.6094,1316.6731 118.3594,1317.0481 Q118.1172,1317.4231 118.1172,1317.9387 L118.1172,1318.4856 Q118.1172,1319.1028 118.5625,1319.5168 Q119.0078,1319.9231 119.8047,1319.9231 Q120.2734,1319.9231 120.6016,1319.7981 Q120.7969,1319.72 121.0078,1319.5012 Q121.1406,1319.3684 121.2109,1319.3293 Q121.2891,1319.2903 121.3906,1319.2903 Q121.5547,1319.2903 121.6797,1319.4231 Q121.8125,1319.5481 121.8125,1319.72 Q121.8125,1319.8918 121.6406,1320.095 Q121.3906,1320.384 120.9922,1320.5481 Q120.4531,1320.7747 119.8047,1320.7747 Q119.0469,1320.7747 118.4453,1320.4622 Q117.9531,1320.2122 117.6094,1319.6809 Q117.2656,1319.1418 117.2656,1318.5012 L117.2656,1317.9231 Q117.2656,1317.259 117.5703,1316.6887 Q117.8828,1316.1106 118.4297,1315.8059 Q118.9766,1315.4934 119.5938,1315.4934 Q119.9609,1315.4934 120.2813,1315.5793 Q120.6094,1315.6575 120.8828,1315.8372 Z " fill="#33FF33"/><text fill="#33FF33" font-family="Verdana" font-size="6" font-style="italic" lengthAdjust="spacing" textLength="15" x="158" y="1316.0322">&#171;vo&#187;</text><text fill="#33FF33" font-family="Verdana" font-size="7" lengthAdjust="spacing" textLength="80" x="125.5" y="1324.3296">ExamQuestionSolution</text></g><!--class ExamQuestionType--><g id="elem_ExamQuestionType"><rect codeLine="57" fill="#282828" height="28.0913" id="ExamQuestionType" rx="1.25" ry="1.25" style="stroke:#33FF33;stroke-width:0.5;" width="82" x="119" y="1204.5"/><ellipse cx="125.5" cy="1218.5457" fill="#282828" rx="4.5" ry="4.5" style="stroke:#33FF33;stroke-width:0.5;"/><path d="M126.8828,1216.4832 Q126.9609,1216.3738 127.0547,1216.3191 Q127.1484,1216.2644 127.2578,1216.2644 Q127.4453,1216.2644 127.5625,1216.3972 Q127.6797,1216.5222 127.6797,1216.8269 L127.6797,1217.5535 Q127.6797,1217.8582 127.5625,1217.991 Q127.4453,1218.1238 127.2578,1218.1238 Q127.0859,1218.1238 126.9844,1218.0222 Q126.8828,1217.9285 126.8281,1217.6707 Q126.8047,1217.491 126.7109,1217.3972 Q126.5469,1217.2097 126.2422,1217.1003 Q125.9375,1216.991 125.625,1216.991 Q125.2422,1216.991 124.9219,1217.155 Q124.6094,1217.3191 124.3594,1217.6941 Q124.1172,1218.0691 124.1172,1218.5847 L124.1172,1219.1316 Q124.1172,1219.7488 124.5625,1220.1628 Q125.0078,1220.5691 125.8047,1220.5691 Q126.2734,1220.5691 126.6016,1220.4441 Q126.7969,1220.366 127.0078,1220.1472 Q127.1406,1220.0144 127.2109,1219.9753 Q127.2891,1219.9363 127.3906,1219.9363 Q127.5547,1219.9363 127.6797,1220.0691 Q127.8125,1220.1941 127.8125,1220.366 Q127.8125,1220.5378 127.6406,1220.741 Q127.3906,1221.03 126.9922,1221.1941 Q126.4531,1221.4207 125.8047,1221.4207 Q125.0469,1221.4207 124.4453,1221.1082 Q123.9531,1220.8582 123.6094,1220.3269 Q123.2656,1219.7878 123.2656,1219.1472 L123.2656,1218.5691 Q123.2656,1217.905 123.5703,1217.3347 Q123.8828,1216.7566 124.4297,1216.4519 Q124.9766,1216.1394 125.5938,1216.1394 Q125.9609,1216.1394 126.2813,1216.2253 Q126.6094,1216.3035 126.8828,1216.4832 Z " fill="#33FF33"/><text fill="#33FF33" font-family="Verdana" font-size="6" font-style="italic" lengthAdjust="spacing" textLength="15" x="158" y="1213.0322">&#171;vo&#187;</text><text fill="#33FF33" font-family="Verdana" font-size="6" font-style="italic" lengthAdjust="spacing" textLength="25.5" x="152.75" y="1220.3242">&#171;enum&#187;</text><text fill="#33FF33" font-family="Verdana" font-size="7" lengthAdjust="spacing" textLength="68" x="131.5" y="1228.6216">ExamQuestionType</text></g><!--class FormerExam--><g id="elem_FormerExam"><rect codeLine="68" fill="#282828" height="28.0913" id="FormerExam" rx="1.25" ry="1.25" style="stroke:#33FF33;stroke-width:0.5;" width="58.5" x="16.75" y="447"/><ellipse cx="23.25" cy="461.0457" fill="#282828" rx="4.5" ry="4.5" style="stroke:#33FF33;stroke-width:0.5;"/><path d="M24.6328,458.9832 Q24.7109,458.8738 24.8047,458.8191 Q24.8984,458.7644 25.0078,458.7644 Q25.1953,458.7644 25.3125,458.8972 Q25.4297,459.0222 25.4297,459.3269 L25.4297,460.0535 Q25.4297,460.3582 25.3125,460.491 Q25.1953,460.6238 25.0078,460.6238 Q24.8359,460.6238 24.7344,460.5222 Q24.6328,460.4285 24.5781,460.1707 Q24.5547,459.991 24.4609,459.8972 Q24.2969,459.7097 23.9922,459.6003 Q23.6875,459.491 23.375,459.491 Q22.9922,459.491 22.6719,459.655 Q22.3594,459.8191 22.1094,460.1941 Q21.8672,460.5691 21.8672,461.0847 L21.8672,461.6316 Q21.8672,462.2488 22.3125,462.6628 Q22.7578,463.0691 23.5547,463.0691 Q24.0234,463.0691 24.3516,462.9441 Q24.5469,462.866 24.7578,462.6472 Q24.8906,462.5144 24.9609,462.4753 Q25.0391,462.4363 25.1406,462.4363 Q25.3047,462.4363 25.4297,462.5691 Q25.5625,462.6941 25.5625,462.866 Q25.5625,463.0378 25.3906,463.241 Q25.1406,463.53 24.7422,463.6941 Q24.2031,463.9207 23.5547,463.9207 Q22.7969,463.9207 22.1953,463.6082 Q21.7031,463.3582 21.3594,462.8269 Q21.0156,462.2878 21.0156,461.6472 L21.0156,461.0691 Q21.0156,460.405 21.3203,459.8347 Q21.6328,459.2566 22.1797,458.9519 Q22.7266,458.6394 23.3438,458.6394 Q23.7109,458.6394 24.0313,458.7253 Q24.3594,458.8035 24.6328,458.9832 Z " fill="#33FF33"/><text fill="#33FF33" font-family="Verdana" font-size="6" font-style="italic" lengthAdjust="spacing" textLength="25.5" x="38.75" y="455.5322">&#171;entity&#187;</text><text fill="#33FF33" font-family="Verdana" font-size="6" font-style="italic" lengthAdjust="spacing" textLength="20" x="41.5" y="462.8242">&#171;root&#187;</text><text fill="#33FF33" font-family="Verdana" font-size="7" lengthAdjust="spacing" textLength="44.5" x="29.25" y="471.1216">FormerExam</text></g><!--class FinalGrade--><g id="elem_FinalGrade"><rect codeLine="69" fill="#282828" height="20.7993" id="FinalGrade" rx="1.25" ry="1.25" style="stroke:#33FF33;stroke-width:0.5;" width="50.5" x="134.75" y="450.5"/><ellipse cx="141.25" cy="460.8997" fill="#282828" rx="4.5" ry="4.5" style="stroke:#33FF33;stroke-width:0.5;"/><path d="M142.6328,458.8372 Q142.7109,458.7278 142.8047,458.6731 Q142.8984,458.6184 143.0078,458.6184 Q143.1953,458.6184 143.3125,458.7512 Q143.4297,458.8762 143.4297,459.1809 L143.4297,459.9075 Q143.4297,460.2122 143.3125,460.345 Q143.1953,460.4778 143.0078,460.4778 Q142.8359,460.4778 142.7344,460.3762 Q142.6328,460.2825 142.5781,460.0247 Q142.5547,459.845 142.4609,459.7512 Q142.2969,459.5637 141.9922,459.4543 Q141.6875,459.345 141.375,459.345 Q140.9922,459.345 140.6719,459.509 Q140.3594,459.6731 140.1094,460.0481 Q139.8672,460.4231 139.8672,460.9387 L139.8672,461.4856 Q139.8672,462.1028 140.3125,462.5168 Q140.7578,462.9231 141.5547,462.9231 Q142.0234,462.9231 142.3516,462.7981 Q142.5469,462.72 142.7578,462.5012 Q142.8906,462.3684 142.9609,462.3293 Q143.0391,462.2903 143.1406,462.2903 Q143.3047,462.2903 143.4297,462.4231 Q143.5625,462.5481 143.5625,462.72 Q143.5625,462.8918 143.3906,463.095 Q143.1406,463.384 142.7422,463.5481 Q142.2031,463.7747 141.5547,463.7747 Q140.7969,463.7747 140.1953,463.4622 Q139.7031,463.2122 139.3594,462.6809 Q139.0156,462.1418 139.0156,461.5012 L139.0156,460.9231 Q139.0156,460.259 139.3203,459.6887 Q139.6328,459.1106 140.1797,458.8059 Q140.7266,458.4934 141.3438,458.4934 Q141.7109,458.4934 142.0313,458.5793 Q142.3594,458.6575 142.6328,458.8372 Z " fill="#33FF33"/><text fill="#33FF33" font-family="Verdana" font-size="6" font-style="italic" lengthAdjust="spacing" textLength="15" x="158" y="459.0322">&#171;vo&#187;</text><text fill="#33FF33" font-family="Verdana" font-size="7" lengthAdjust="spacing" textLength="36.5" x="147.25" y="467.3296">FinalGrade</text></g><!--class CourseEnrollment--><g id="elem_CourseEnrollment"><rect codeLine="76" fill="#282828" height="28.0913" id="CourseEnrollment" rx="1.25" ry="1.25" style="stroke:#33FF33;stroke-width:0.5;" width="76.5" x="299.25" y="430"/><ellipse cx="305.75" cy="444.0457" fill="#282828" rx="4.5" ry="4.5" style="stroke:#33FF33;stroke-width:0.5;"/><path d="M307.1328,441.9832 Q307.2109,441.8738 307.3047,441.8191 Q307.3984,441.7644 307.5078,441.7644 Q307.6953,441.7644 307.8125,441.8972 Q307.9297,442.0222 307.9297,442.3269 L307.9297,443.0535 Q307.9297,443.3582 307.8125,443.491 Q307.6953,443.6238 307.5078,443.6238 Q307.3359,443.6238 307.2344,443.5222 Q307.1328,443.4285 307.0781,443.1707 Q307.0547,442.991 306.9609,442.8972 Q306.7969,442.7097 306.4922,442.6003 Q306.1875,442.491 305.875,442.491 Q305.4922,442.491 305.1719,442.655 Q304.8594,442.8191 304.6094,443.1941 Q304.3672,443.5691 304.3672,444.0847 L304.3672,444.6316 Q304.3672,445.2488 304.8125,445.6628 Q305.2578,446.0691 306.0547,446.0691 Q306.5234,446.0691 306.8516,445.9441 Q307.0469,445.866 307.2578,445.6472 Q307.3906,445.5144 307.4609,445.4753 Q307.5391,445.4363 307.6406,445.4363 Q307.8047,445.4363 307.9297,445.5691 Q308.0625,445.6941 308.0625,445.866 Q308.0625,446.0378 307.8906,446.241 Q307.6406,446.53 307.2422,446.6941 Q306.7031,446.9207 306.0547,446.9207 Q305.2969,446.9207 304.6953,446.6082 Q304.2031,446.3582 303.8594,445.8269 Q303.5156,445.2878 303.5156,444.6472 L303.5156,444.0691 Q303.5156,443.405 303.8203,442.8347 Q304.1328,442.2566 304.6797,441.9519 Q305.2266,441.6394 305.8438,441.6394 Q306.2109,441.6394 306.5313,441.7253 Q306.8594,441.8035 307.1328,441.9832 Z " fill="#33FF33"/><text fill="#33FF33" font-family="Verdana" font-size="6" font-style="italic" lengthAdjust="spacing" textLength="25.5" x="330.25" y="438.5322">&#171;entity&#187;</text><text fill="#33FF33" font-family="Verdana" font-size="6" font-style="italic" lengthAdjust="spacing" textLength="20" x="333" y="445.8242">&#171;root&#187;</text><text fill="#33FF33" font-family="Verdana" font-size="7" lengthAdjust="spacing" textLength="62.5" x="311.75" y="454.1216">CourseEnrollment</text></g><!--class StudentEnrollmentState--><g id="elem_StudentEnrollmentState"><rect codeLine="77" fill="#282828" height="28.0913" id="StudentEnrollmentState" rx="1.25" ry="1.25" style="stroke:#33FF33;stroke-width:0.5;" width="99" x="478.75" y="459.5"/><ellipse cx="485.25" cy="473.5457" fill="#282828" rx="4.5" ry="4.5" style="stroke:#33FF33;stroke-width:0.5;"/><path d="M486.6328,471.4832 Q486.7109,471.3738 486.8047,471.3191 Q486.8984,471.2644 487.0078,471.2644 Q487.1953,471.2644 487.3125,471.3972 Q487.4297,471.5222 487.4297,471.8269 L487.4297,472.5535 Q487.4297,472.8582 487.3125,472.991 Q487.1953,473.1238 487.0078,473.1238 Q486.8359,473.1238 486.7344,473.0222 Q486.6328,472.9285 486.5781,472.6707 Q486.5547,472.491 486.4609,472.3972 Q486.2969,472.2097 485.9922,472.1003 Q485.6875,471.991 485.375,471.991 Q484.9922,471.991 484.6719,472.155 Q484.3594,472.3191 484.1094,472.6941 Q483.8672,473.0691 483.8672,473.5847 L483.8672,474.1316 Q483.8672,474.7488 484.3125,475.1628 Q484.7578,475.5691 485.5547,475.5691 Q486.0234,475.5691 486.3516,475.4441 Q486.5469,475.366 486.7578,475.1472 Q486.8906,475.0144 486.9609,474.9753 Q487.0391,474.9363 487.1406,474.9363 Q487.3047,474.9363 487.4297,475.0691 Q487.5625,475.1941 487.5625,475.366 Q487.5625,475.5378 487.3906,475.741 Q487.1406,476.03 486.7422,476.1941 Q486.2031,476.4207 485.5547,476.4207 Q484.7969,476.4207 484.1953,476.1082 Q483.7031,475.8582 483.3594,475.3269 Q483.0156,474.7878 483.0156,474.1472 L483.0156,473.5691 Q483.0156,472.905 483.3203,472.3347 Q483.6328,471.7566 484.1797,471.4519 Q484.7266,471.1394 485.3438,471.1394 Q485.7109,471.1394 486.0313,471.2253 Q486.3594,471.3035 486.6328,471.4832 Z " fill="#33FF33"/><text fill="#33FF33" font-family="Verdana" font-size="6" font-style="italic" lengthAdjust="spacing" textLength="15" x="526.25" y="468.0322">&#171;vo&#187;</text><text fill="#33FF33" font-family="Verdana" font-size="6" font-style="italic" lengthAdjust="spacing" textLength="25.5" x="521" y="475.3242">&#171;enum&#187;</text><text fill="#33FF33" font-family="Verdana" font-size="7" lengthAdjust="spacing" textLength="85" x="491.25" y="483.6216">StudentEnrollmentState</text></g><!--class CourseEnrollmentDate--><g id="elem_CourseEnrollmentDate"><rect codeLine="78" fill="#282828" height="20.7993" id="CourseEnrollmentDate" rx="1.25" ry="1.25" style="stroke:#33FF33;stroke-width:0.5;" width="93" x="481.75" y="363.5"/><ellipse cx="488.25" cy="373.8997" fill="#282828" rx="4.5" ry="4.5" style="stroke:#33FF33;stroke-width:0.5;"/><path d="M489.6328,371.8372 Q489.7109,371.7278 489.8047,371.6731 Q489.8984,371.6184 490.0078,371.6184 Q490.1953,371.6184 490.3125,371.7512 Q490.4297,371.8762 490.4297,372.1809 L490.4297,372.9075 Q490.4297,373.2122 490.3125,373.345 Q490.1953,373.4778 490.0078,373.4778 Q489.8359,373.4778 489.7344,373.3762 Q489.6328,373.2825 489.5781,373.0247 Q489.5547,372.845 489.4609,372.7512 Q489.2969,372.5637 488.9922,372.4543 Q488.6875,372.345 488.375,372.345 Q487.9922,372.345 487.6719,372.509 Q487.3594,372.6731 487.1094,373.0481 Q486.8672,373.4231 486.8672,373.9387 L486.8672,374.4856 Q486.8672,375.1028 487.3125,375.5168 Q487.7578,375.9231 488.5547,375.9231 Q489.0234,375.9231 489.3516,375.7981 Q489.5469,375.72 489.7578,375.5012 Q489.8906,375.3684 489.9609,375.3293 Q490.0391,375.2903 490.1406,375.2903 Q490.3047,375.2903 490.4297,375.4231 Q490.5625,375.5481 490.5625,375.72 Q490.5625,375.8918 490.3906,376.095 Q490.1406,376.384 489.7422,376.5481 Q489.2031,376.7747 488.5547,376.7747 Q487.7969,376.7747 487.1953,376.4622 Q486.7031,376.2122 486.3594,375.6809 Q486.0156,375.1418 486.0156,374.5012 L486.0156,373.9231 Q486.0156,373.259 486.3203,372.6887 Q486.6328,372.1106 487.1797,371.8059 Q487.7266,371.4934 488.3438,371.4934 Q488.7109,371.4934 489.0313,371.5793 Q489.3594,371.6575 489.6328,371.8372 Z " fill="#33FF33"/><text fill="#33FF33" font-family="Verdana" font-size="6" font-style="italic" lengthAdjust="spacing" textLength="15" x="526.25" y="372.0322">&#171;vo&#187;</text><text fill="#33FF33" font-family="Verdana" font-size="7" lengthAdjust="spacing" textLength="79" x="494.25" y="380.3296">CourseEnrollmentDate</text></g><!--link Student to MechanographicalNumber--><g id="link_Student_MechanographicalNumber"><path codeLine="19" d="M181.265,271.325 C209.61,279.275 260.99,293.68 296.955,303.77 " fill="none" id="Student-to-MechanographicalNumber" style="stroke:#33FF33;stroke-width:0.5;"/><polygon fill="#33FF33" points="299.52,304.49,295.7315,301.3441,297.1138,303.8117,294.6462,305.194,299.52,304.49" style="stroke:#33FF33;stroke-width:0.5;"/><text fill="#33FF33" font-family="Verdana" font-size="6.5" lengthAdjust="spacing" textLength="4" x="282.7764" y="299.0752">1</text></g><!--link Student to SystemUser--><g id="link_Student_SystemUser"><path codeLine="20" d="M166.585,251.295 C181.425,217.785 222.17,132.31 275,75 C288.835,59.99 308.48,46.925 321.925,38.905 " fill="none" id="Student-to-SystemUser" style="stroke:#33FF33;stroke-width:0.5;"/><polygon fill="#33FF33" points="324.195,37.565,319.3036,38.1341,322.0431,38.8375,321.3396,41.5771,324.195,37.565" style="stroke:#33FF33;stroke-width:0.5;"/><text fill="#33FF33" font-family="Verdana" font-size="6.5" lengthAdjust="spacing" textLength="4" x="314.7426" y="48.0239">1</text></g><!--link Student to StudentDateOfBirth--><g id="link_Student_StudentDateOfBirth"><path codeLine="22" d="M177.245,251.405 C199.43,232.79 239.87,199.085 275,171 C290.48,158.625 308.405,144.805 320.985,135.18 " fill="none" id="Student-to-StudentDateOfBirth" style="stroke:#33FF33;stroke-width:0.5;"/><polygon fill="#33FF33" points="323.115,133.555,318.3266,134.7043,321.1305,135.0755,320.7593,137.8794,323.115,133.555" style="stroke:#33FF33;stroke-width:0.5;"/><text fill="#33FF33" font-family="Verdana" font-size="6.5" lengthAdjust="spacing" textLength="4" x="314.9163" y="143.8325">1</text></g><!--link Student to StudentTaxPayerNumber--><g id="link_Student_StudentTaxPayerNumber"><path codeLine="23" d="M181.265,260.03 C208.985,252.725 258.74,239.62 294.565,230.18 " fill="none" id="Student-to-StudentTaxPayerNumber" style="stroke:#33FF33;stroke-width:0.5;"/><polygon fill="#33FF33" points="297.115,229.505,292.2519,228.7302,294.6992,230.1483,293.2811,232.5955,297.115,229.505" style="stroke:#33FF33;stroke-width:0.5;"/><text fill="#33FF33" font-family="Verdana" font-size="6.5" lengthAdjust="spacing" textLength="4" x="282.2538" y="239.7697">1</text></g><!--link Teacher to Exam--><g id="link_Teacher_Exam"><path codeLine="33" d="M170.88,704.56 C199.285,723.87 278.655,777.83 316.465,803.54 " fill="none" id="Teacher-to-Exam" style="stroke:#33FF33;stroke-width:0.5;"/><polygon fill="#33FF33" points="318.675,805.04,316.0765,800.857,316.607,803.6352,313.8288,804.1657,318.675,805.04" style="stroke:#33FF33;stroke-width:0.5;"/><text fill="#33FF33" font-family="Verdana" font-size="6.5" lengthAdjust="spacing" textLength="25" x="231" y="741.5349">creates</text><text fill="#33FF33" font-family="Verdana" font-size="6.5" lengthAdjust="spacing" textLength="4.5" x="310.2893" y="809.9974">*</text></g><!--link Exam to ExamTitle--><g id="link_Exam_ExamTitle"><path codeLine="34" d="M356.365,830.325 C393.025,855.925 474.81,913.03 510.515,937.965 " fill="none" id="Exam-to-ExamTitle" style="stroke:#33FF33;stroke-width:0.5;"/><polygon fill="#33FF33" points="512.595,939.415,510.0465,935.2013,510.5439,937.9857,507.7596,938.4831,512.595,939.415" style="stroke:#33FF33;stroke-width:0.5;"/><text fill="#33FF33" font-family="Verdana" font-size="6.5" lengthAdjust="spacing" textLength="4" x="503.1882" y="934.1517">1</text></g><!--link Exam to ExamHeaderTextualDescription--><g id="link_Exam_ExamHeaderTextualDescription"><path codeLine="35" d="M356.365,821.035 C382.485,826.055 431.515,835.49 470.46,842.98 " fill="none" id="Exam-to-ExamHeaderTextualDescription" style="stroke:#33FF33;stroke-width:0.5;"/><polygon fill="#33FF33" points="473.01,843.47,468.9675,840.6579,470.5548,842.9989,468.2138,844.5863,473.01,843.47" style="stroke:#33FF33;stroke-width:0.5;"/><text fill="#33FF33" font-family="Verdana" font-size="6.5" lengthAdjust="spacing" textLength="13" x="449.3984" y="840.1021">0..1</text></g><!--link Exam to Course--><g id="link_Exam_Course"><path codeLine="36" d="M344.54,803.42 C361.225,768.495 408.22,676.2 466.5,614 C480.43,599.13 499.955,585.95 513.185,577.865 " fill="none" id="Exam-to-Course" style="stroke:#33FF33;stroke-width:0.5;"/><polygon fill="#33FF33" points="515.415,576.515,510.5297,577.1344,513.2763,577.8096,512.6011,580.5563,515.415,576.515" style="stroke:#33FF33;stroke-width:0.5;"/><text fill="#33FF33" font-family="Verdana" font-size="6.5" lengthAdjust="spacing" textLength="34.5" x="416.5" y="632.0349">belongs to</text><text fill="#33FF33" font-family="Verdana" font-size="6.5" lengthAdjust="spacing" textLength="4" x="505.9446" y="587.0932">1</text></g><!--link Exam to ExamType--><g id="link_Exam_ExamType"><path codeLine="37" d="M346.27,831.515 C365.245,863.095 414.33,941.455 466.5,998 C478.655,1011.175 494.12,1024.155 506.465,1033.785 " fill="none" id="Exam-to-ExamType" style="stroke:#33FF33;stroke-width:0.5;"/><polygon fill="#33FF33" points="508.575,1035.42,506.2541,1031.0768,506.6028,1033.8837,503.7959,1034.2324,508.575,1035.42" style="stroke:#33FF33;stroke-width:0.5;"/><text fill="#33FF33" font-family="Verdana" font-size="6.5" lengthAdjust="spacing" textLength="4" x="499.2917" y="1030.1464">1</text></g><!--link Exam to ExamInitalDateTime--><g id="link_Exam_ExamInitalDateTime"><path codeLine="38" d="M356.365,811.74 C387.49,801.98 451.145,782.02 491.51,769.365 " fill="none" id="Exam-to-ExamInitalDateTime" style="stroke:#33FF33;stroke-width:0.5;"/><polygon fill="#33FF33" points="494.135,768.54,489.2423,767.9816,491.7501,769.2898,490.4419,771.7975,494.135,768.54" style="stroke:#33FF33;stroke-width:0.5;"/><text fill="#33FF33" font-family="Verdana" font-size="6.5" lengthAdjust="spacing" textLength="4" x="480.8805" y="778.8136">1</text></g><!--link Exam to ExamFinalDateTime--><g id="link_Exam_ExamFinalDateTime"><path codeLine="39" d="M354.495,803.415 C378.815,782.71 425.81,742.95 466.5,710 C481.785,697.625 499.495,683.8 511.925,674.18 " fill="none" id="Exam-to-ExamFinalDateTime" style="stroke:#33FF33;stroke-width:0.5;"/><polygon fill="#33FF33" points="514.03,672.55,509.2462,673.7185,512.0516,674.0784,511.6917,676.8838,514.03,672.55" style="stroke:#33FF33;stroke-width:0.5;"/><text fill="#33FF33" font-family="Verdana" font-size="6.5" lengthAdjust="spacing" textLength="4" x="505.8736" y="682.8262">1</text></g><!--reverse link ExamSection to Exam--><g id="link_ExamSection_Exam"><path codeLine="47" d="M192.295,1105.745 C203.13,1101.155 214.61,1094.725 223,1086 C297.49,1008.51 326.825,874.945 334.675,831.555 " fill="none" id="ExamSection-backto-Exam" style="stroke:#33FF33;stroke-width:0.5;"/><polygon fill="#33FF33" points="189.85,1106.755,194.7726,1106.891,192.1617,1105.8031,193.2496,1103.1923,189.85,1106.755" style="stroke:#33FF33;stroke-width:0.5;"/><text fill="#33FF33" font-family="Verdana" font-size="6.5" lengthAdjust="spacing" textLength="4.5" x="193.7622" y="1112.6999">*</text></g><!--link ExamSection to ExamSectionTextualDescription--><g id="link_ExamSection_ExamSectionTextualDescription"><path codeLine="48" d="M189.845,1115.5 C212.3,1115.5 244.12,1115.5 272.43,1115.5 " fill="none" id="ExamSection-to-ExamSectionTextualDescription" style="stroke:#33FF33;stroke-width:0.5;"/><polygon fill="#33FF33" points="274.985,1115.5,270.485,1113.5,272.485,1115.5,270.485,1117.5,274.985,1115.5" style="stroke:#33FF33;stroke-width:0.5;"/><text fill="#33FF33" font-family="Verdana" font-size="6.5" lengthAdjust="spacing" textLength="13" x="257.9951" y="1122.2691">0..1</text></g><!--reverse link ExamQuestion to ExamSection--><g id="link_ExamQuestion_ExamSection"><path codeLine="59" d="M50.205,1349.495 C58.04,1316.385 78.14,1240.07 109,1182 C119.41,1162.415 135.415,1142.485 146.61,1129.62 " fill="none" id="ExamQuestion-backto-ExamSection" style="stroke:#33FF33;stroke-width:0.5;"/><polygon fill="#33FF33" points="49.62,1351.99,52.5975,1348.0677,50.1926,1349.5565,48.7038,1347.1515,49.62,1351.99" style="stroke:#33FF33;stroke-width:0.5;"/><text fill="#33FF33" font-family="Verdana" font-size="6.5" lengthAdjust="spacing" textLength="4.5" x="45.4539" y="1346.7335">*</text></g><!--link ExamQuestion to ExamQuestionValue--><g id="link_ExamQuestion_ExamQuestionValue"><path codeLine="60" d="M78.58,1379.625 C95.555,1386.84 116.18,1395.6 132.355,1402.47 " fill="none" id="ExamQuestion-to-ExamQuestionValue" style="stroke:#33FF33;stroke-width:0.5;"/><polygon fill="#33FF33" points="134.71,1403.47,131.3522,1399.8679,132.4096,1402.4912,129.7862,1403.5486,134.71,1403.47" style="stroke:#33FF33;stroke-width:0.5;"/><text fill="#33FF33" font-family="Verdana" font-size="6.5" lengthAdjust="spacing" textLength="4" x="122.0113" y="1398.0488">1</text></g><!--link ExamQuestion to ExamQuestionFeedback--><g id="link_ExamQuestion_ExamQuestionFeedback"><path codeLine="61" d="M54.25,1380.055 C65.225,1399.405 86.485,1434.94 109,1462 C119.995,1475.22 134.35,1488.555 144.945,1497.805 " fill="none" id="ExamQuestion-to-ExamQuestionFeedback" style="stroke:#33FF33;stroke-width:0.5;"/><polygon fill="#33FF33" points="146.88,1499.485,144.8008,1495.021,144.995,1497.8428,142.1733,1498.037,146.88,1499.485" style="stroke:#33FF33;stroke-width:0.5;"/><text fill="#33FF33" font-family="Verdana" font-size="6.5" lengthAdjust="spacing" textLength="4.5" x="137.4808" y="1494.0686">*</text></g><!--link ExamQuestion to ExamQuestionSolution--><g id="link_ExamQuestion_ExamQuestionSolution"><path codeLine="62" d="M78.58,1352.375 C95.555,1345.16 116.18,1336.4 132.355,1329.53 " fill="none" id="ExamQuestion-to-ExamQuestionSolution" style="stroke:#33FF33;stroke-width:0.5;"/><polygon fill="#33FF33" points="134.71,1328.53,129.7862,1328.4514,132.4096,1329.5088,131.3522,1332.1321,134.71,1328.53" style="stroke:#33FF33;stroke-width:0.5;"/><text fill="#33FF33" font-family="Verdana" font-size="6.5" lengthAdjust="spacing" textLength="4.5" x="123.1529" y="1338.8011">*</text></g><!--link ExamQuestion to ExamQuestionType--><g id="link_ExamQuestion_ExamQuestionType"><path codeLine="63" d="M54.48,1351.895 C65.645,1332.635 87.03,1297.375 109,1270 C119.185,1257.315 132.035,1244.24 142.225,1234.44 " fill="none" id="ExamQuestion-to-ExamQuestionType" style="stroke:#33FF33;stroke-width:0.5;"/><polygon fill="#33FF33" points="144.1,1232.65,139.4657,1234.3152,142.2934,1234.3781,142.2306,1237.2058,144.1,1232.65" style="stroke:#33FF33;stroke-width:0.5;"/><text fill="#33FF33" font-family="Verdana" font-size="6.5" lengthAdjust="spacing" textLength="4" x="136.1844" y="1243.1343">1</text></g><!--link ExamQuestion to ExamQuestionStatement--><g id="link_ExamQuestion_ExamQuestionStatement"><path codeLine="64" d="M48.625,1380.03 C54.15,1413.19 71.22,1498.11 109,1558 C117.93,1572.16 131.965,1585.035 142.97,1593.88 " fill="none" id="ExamQuestion-to-ExamQuestionStatement" style="stroke:#33FF33;stroke-width:0.5;"/><polygon fill="#33FF33" points="144.99,1595.485,142.704,1591.1233,143.0302,1593.9329,140.2206,1594.259,144.99,1595.485" style="stroke:#33FF33;stroke-width:0.5;"/><text fill="#33FF33" font-family="Verdana" font-size="6.5" lengthAdjust="spacing" textLength="4" x="135.5681" y="1590.0686">1</text></g><!--link FormerExam to FinalGrade--><g id="link_FormerExam_FinalGrade"><path codeLine="71" d="M75.305,461 C92.685,461 114.71,461 131.87,461 " fill="none" id="FormerExam-to-FinalGrade" style="stroke:#33FF33;stroke-width:0.5;"/><polygon fill="#33FF33" points="134.585,461,130.085,459,132.085,461,130.085,463,134.585,461" style="stroke:#33FF33;stroke-width:0.5;"/><text fill="#33FF33" font-family="Verdana" font-size="6.5" lengthAdjust="spacing" textLength="4" x="126.7298" y="468.1045">1</text></g><!--link FormerExam to Exam--><g id="link_FormerExam_Exam"><path codeLine="72" d="M47.81,475.065 C52.835,526.235 72.47,701.585 109,742 C164.515,803.42 271.06,814.98 316.09,817.08 " fill="none" id="FormerExam-to-Exam" style="stroke:#33FF33;stroke-width:0.5;"/><polygon fill="#33FF33" points="318.705,817.195,314.301,814.9916,316.2076,817.0808,314.1184,818.9874,318.705,817.195" style="stroke:#33FF33;stroke-width:0.5;"/><text fill="#33FF33" font-family="Verdana" font-size="6.5" lengthAdjust="spacing" textLength="4" x="310.741" y="824.416">1</text></g><!--link FormerExam to Student--><g id="link_FormerExam_Student"><path codeLine="73" d="M54.625,446.94 C75.045,411.615 128.405,319.295 150.11,281.74 " fill="none" id="FormerExam-to-Student" style="stroke:#33FF33;stroke-width:0.5;"/><polygon fill="#33FF33" points="151.37,279.565,147.3875,282.4615,150.1197,281.7299,150.8513,284.462,151.37,279.565" style="stroke:#33FF33;stroke-width:0.5;"/><text fill="#33FF33" font-family="Verdana" font-size="6.5" lengthAdjust="spacing" textLength="4" x="145.0447" y="290.0307">1</text></g><!--link CourseEnrollment to Course--><g id="link_CourseEnrollment_Course"><path codeLine="79" d="M359.215,458.03 C398.785,484.205 482.75,539.735 514.875,560.985 " fill="none" id="CourseEnrollment-to-Course" style="stroke:#33FF33;stroke-width:0.5;"/><polygon fill="#33FF33" points="517.1,562.455,514.4487,558.3052,515.0144,561.0765,512.2431,561.6422,517.1,562.455" style="stroke:#33FF33;stroke-width:0.5;"/><text fill="#33FF33" font-family="Verdana" font-size="6.5" lengthAdjust="spacing" textLength="32.5" x="417.5" y="497.5349">applied to</text><text fill="#33FF33" font-family="Verdana" font-size="6.5" lengthAdjust="spacing" textLength="4" x="507.6756" y="557.1194">1</text></g><!--link CourseEnrollment to StudentEnrollmentState--><g id="link_CourseEnrollment_StudentEnrollmentState"><path codeLine="80" d="M375.945,449.9 C404.66,454.365 444.425,460.545 476.05,465.46 " fill="none" id="CourseEnrollment-to-StudentEnrollmentState" style="stroke:#33FF33;stroke-width:0.5;"/><polygon fill="#33FF33" points="478.695,465.875,474.5572,463.205,476.2249,465.4895,473.9404,467.1572,478.695,465.875" style="stroke:#33FF33;stroke-width:0.5;"/><text fill="#33FF33" font-family="Verdana" font-size="6.5" lengthAdjust="spacing" textLength="4" x="470.7478" y="472.125">1</text></g><!--link CourseEnrollment to CourseEnrollmentDate--><g id="link_CourseEnrollment_CourseEnrollmentDate"><path codeLine="81" d="M375.945,430.005 C411.36,416.935 463.57,397.675 496.61,385.49 " fill="none" id="CourseEnrollment-to-CourseEnrollmentDate" style="stroke:#33FF33;stroke-width:0.5;"/><polygon fill="#33FF33" points="499.15,384.55,494.2359,384.2311,496.8045,385.4153,495.6203,387.9839,499.15,384.55" style="stroke:#33FF33;stroke-width:0.5;"/><text fill="#33FF33" font-family="Verdana" font-size="6.5" lengthAdjust="spacing" textLength="4" x="487.1806" y="394.8262">1</text></g><!--reverse link Student to CourseEnrollment--><g id="link_Student_CourseEnrollment"><path codeLine="82" d="M176.13,281.31 C210.15,315.715 290.46,396.93 322.97,429.81 " fill="none" id="Student-backto-CourseEnrollment" style="stroke:#33FF33;stroke-width:0.5;"/><polygon fill="#33FF33" points="174.35,279.505,176.0899,284.1118,176.107,281.2834,178.9354,281.3006,174.35,279.505" style="stroke:#33FF33;stroke-width:0.5;"/><text fill="#33FF33" font-family="Verdana" font-size="6.5" lengthAdjust="spacing" textLength="32" x="227.5" y="332.5349">applies to</text><text fill="#33FF33" font-family="Verdana" font-size="6.5" lengthAdjust="spacing" textLength="4" x="173.2059" y="290.1814">1</text></g><!--SRC=[ZPLBZziW4CVl_XJKbqehPRLxw6LbvT1cqrRgKqbx9_QiZHQC1RXAjCftBpZW5n0d1qTYVXvc_lFmErK10vGBjIe5G9t8Lr8tM626Qbw0X0OzVdX8Ab800jQe4sB03Y1aGk558SMH86MbK444v8hmEcbm_efBG6cMuLAWdMeBgDLwdRub2TA_d68ftN6MwGTHf_KwomJd6dixZwZla5UuvgN0JKLoJ7-qvkui-yTde7MtnyTV-0HYYTjW1JzVFXAXgXxgA6j7gzKQfOzf980WkZj91UoFjERtpfwjLYYzIz4thKyh03qXBQyYEMbq43Bioelo6ZPDEZdFA_1ynAoJVv31727aYuycOXbgVsgW0rjcC4_GZY6A6YXe_0Au0B67esentO3C1MbCdyJuhpLH6jIfxmbpNlsujgJsA5V4FU2y0d7HIIlVPVkaUnnwnRiZfsEVmypqS7zlhR4aV5-VU2kaAV81AAzBgISaSg4MDcoPAX1c9kadkkQXekyk4ncelRNSr06MlLR1FaRdrwXk-jwSUSQPjb7_aQn-jo0ZQJaJMbWhOtQdj8gi6zHmGpfm2r0ST3XBt5zCMrY2Tfosvdy1izDd63U3OxdxVCTwMprzQDm_as0Zw5qQpFyssYLuMnYJORXAzkLA_4MtvOA12AoxmR3G6DrOVHPwsAUzFJZeWnhG6D4tVy1cLxUVmsL_FDU2KyhSTtC8S6vUwdHxp_12fv_VKl4RDWDlEIy6R_VXfg442hVxeY-4exlbacbyaw-ZWSmip44NLhUIp_y1]--></g></svg>