<?xml version="1.0" encoding="us-ascii" standalone="no"?><svg xmlns="http://www.w3.org/2000/svg" xmlns:xlink="http://www.w3.org/1999/xlink" contentStyleType="text/css" height="3353px" preserveAspectRatio="none" style="width:1019px;height:3353px;background:#FFFFFF;" version="1.1" viewBox="0 0 1019 3353" width="1019px" zoomAndPan="magnify"><defs/><g><!--cluster <<agr Teacher>>--><g id="cluster_&lt;&lt;agr Teacher&gt;&gt;"><path d="M16.5,6.0137 L117.5,6.0137 A3.75,3.75 0 0 1 120,8.5137 L127,30.6348 L699,30.6348 A2.5,2.5 0 0 1 701.5,33.1348 L701.5,492.5137 A2.5,2.5 0 0 1 699,495.0137 L16.5,495.0137 A2.5,2.5 0 0 1 14,492.5137 L14,8.5137 A2.5,2.5 0 0 1 16.5,6.0137 " fill="none" style="stroke:#000000;stroke-width:1.5;"/><line style="stroke:#000000;stroke-width:1.5;" x1="14" x2="127" y1="30.6348" y2="30.6348"/><text fill="#000000" font-family="sans-serif" font-size="14" font-weight="bold" lengthAdjust="spacing" textLength="100" x="18" y="23.1211">&#171;agr Teacher&#187;</text></g><!--cluster <<agr Course>>--><g id="cluster_&lt;&lt;agr Course&gt;&gt;"><path d="M282,1438.0137 L377,1438.0137 A3.75,3.75 0 0 1 379.5,1440.5137 L386.5,1462.6348 L680,1462.6348 A2.5,2.5 0 0 1 682.5,1465.1348 L682.5,2135.5137 A2.5,2.5 0 0 1 680,2138.0137 L282,2138.0137 A2.5,2.5 0 0 1 279.5,2135.5137 L279.5,1440.5137 A2.5,2.5 0 0 1 282,1438.0137 " fill="none" style="stroke:#000000;stroke-width:1.5;"/><line style="stroke:#000000;stroke-width:1.5;" x1="279.5" x2="386.5" y1="1462.6348" y2="1462.6348"/><text fill="#000000" font-family="sans-serif" font-size="14" font-weight="bold" lengthAdjust="spacing" textLength="94" x="283.5" y="1455.1211">&#171;agr Course&#187;</text></g><!--cluster <<agr TeamElement>>--><g id="cluster_&lt;&lt;agr TeamElement&gt;&gt;"><path d="M10.5,731.0137 L148.5,731.0137 A3.75,3.75 0 0 1 151,733.5137 L158,755.6348 L382.5,755.6348 A2.5,2.5 0 0 1 385,758.1348 L385,843.5137 A2.5,2.5 0 0 1 382.5,846.0137 L10.5,846.0137 A2.5,2.5 0 0 1 8,843.5137 L8,733.5137 A2.5,2.5 0 0 1 10.5,731.0137 " fill="none" style="stroke:#000000;stroke-width:1.5;"/><line style="stroke:#000000;stroke-width:1.5;" x1="8" x2="158" y1="755.6348" y2="755.6348"/><text fill="#000000" font-family="sans-serif" font-size="14" font-weight="bold" lengthAdjust="spacing" textLength="137" x="12" y="748.1211">&#171;agr TeamElement&#187;</text></g><!--cluster <<agr Exam>>--><g id="cluster_&lt;&lt;agr Exam&gt;&gt;"><path d="M592,519.0137 L673,519.0137 A3.75,3.75 0 0 1 675.5,521.5137 L682.5,543.6348 L1009.5,543.6348 A2.5,2.5 0 0 1 1012,546.1348 L1012,1411.5137 A2.5,2.5 0 0 1 1009.5,1414.0137 L592,1414.0137 A2.5,2.5 0 0 1 589.5,1411.5137 L589.5,521.5137 A2.5,2.5 0 0 1 592,519.0137 " fill="none" style="stroke:#000000;stroke-width:1.5;"/><line style="stroke:#000000;stroke-width:1.5;" x1="589.5" x2="682.5" y1="543.6348" y2="543.6348"/><text fill="#000000" font-family="sans-serif" font-size="14" font-weight="bold" lengthAdjust="spacing" textLength="80" x="593.5" y="536.1211">&#171;agr Exam&#187;</text></g><!--cluster <<agr ExamSection>>--><g id="cluster_&lt;&lt;agr ExamSection&gt;&gt;"><path d="M264.5,2240.0137 L398.5,2240.0137 A3.75,3.75 0 0 1 401,2242.5137 L408,2264.6348 L743.5,2264.6348 A2.5,2.5 0 0 1 746,2267.1348 L746,2352.5137 A2.5,2.5 0 0 1 743.5,2355.0137 L264.5,2355.0137 A2.5,2.5 0 0 1 262,2352.5137 L262,2242.5137 A2.5,2.5 0 0 1 264.5,2240.0137 " fill="none" style="stroke:#000000;stroke-width:1.5;"/><line style="stroke:#000000;stroke-width:1.5;" x1="262" x2="408" y1="2264.6348" y2="2264.6348"/><text fill="#000000" font-family="sans-serif" font-size="14" font-weight="bold" lengthAdjust="spacing" textLength="133" x="266" y="2257.1211">&#171;agr ExamSection&#187;</text></g><!--cluster <<agr ExamQuestion>>--><g id="cluster_&lt;&lt;agr ExamQuestion&gt;&gt;"><path d="M8.5,2451.0137 L153.5,2451.0137 A3.75,3.75 0 0 1 156,2453.5137 L163,2475.6348 L415.5,2475.6348 A2.5,2.5 0 0 1 418,2478.1348 L418,3343.5137 A2.5,2.5 0 0 1 415.5,3346.0137 L8.5,3346.0137 A2.5,2.5 0 0 1 6,3343.5137 L6,2453.5137 A2.5,2.5 0 0 1 8.5,2451.0137 " fill="none" style="stroke:#000000;stroke-width:1.5;"/><line style="stroke:#000000;stroke-width:1.5;" x1="6" x2="163" y1="2475.6348" y2="2475.6348"/><text fill="#000000" font-family="sans-serif" font-size="14" font-weight="bold" lengthAdjust="spacing" textLength="144" x="10" y="2468.1211">&#171;agr ExamQuestion&#187;</text></g><!--class Teacher--><g id="elem_Teacher"><rect codeLine="11" fill="#F1F1F1" height="60.543" id="Teacher" rx="2.5" ry="2.5" style="stroke:#181818;stroke-width:0.5;" width="59" x="292" y="417.5137"/><text fill="#000000" font-family="sans-serif" font-size="12" font-style="italic" lengthAdjust="spacing" textLength="43" x="300" y="435.4629">&#171;entity&#187;</text><text fill="#000000" font-family="sans-serif" font-size="12" font-style="italic" lengthAdjust="spacing" textLength="35" x="304" y="451.4238">&#171;root&#187;</text><text fill="#000000" font-family="sans-serif" font-size="14" lengthAdjust="spacing" textLength="53" x="295" y="469.543">Teacher</text></g><!--class Acronym--><g id="elem_Acronym"><rect codeLine="12" fill="#F1F1F1" height="44.582" id="Acronym" rx="2.5" ry="2.5" style="stroke:#181818;stroke-width:0.5;" width="61" x="597.5" y="43.5137"/><text fill="#000000" font-family="sans-serif" font-size="12" font-style="italic" lengthAdjust="spacing" textLength="27" x="614.5" y="61.4629">&#171;vo&#187;</text><text fill="#000000" font-family="sans-serif" font-size="14" lengthAdjust="spacing" textLength="55" x="600.5" y="79.582">Acronym</text></g><!--class TaxPayerNumber--><g id="elem_TaxPayerNumber"><rect codeLine="13" fill="#F1F1F1" height="44.582" id="TaxPayerNumber" rx="2.5" ry="2.5" style="stroke:#181818;stroke-width:0.5;" width="115" x="570.5" y="433.5137"/><text fill="#000000" font-family="sans-serif" font-size="12" font-style="italic" lengthAdjust="spacing" textLength="27" x="614.5" y="451.4629">&#171;vo&#187;</text><text fill="#000000" font-family="sans-serif" font-size="14" lengthAdjust="spacing" textLength="109" x="573.5" y="469.582">TaxPayerNumber</text></g><!--class DateOfBirth--><g id="elem_DateOfBirth"><rect codeLine="14" fill="#F1F1F1" height="44.582" id="DateOfBirth" rx="2.5" ry="2.5" style="stroke:#181818;stroke-width:0.5;" width="80" x="588" y="238.5137"/><text fill="#000000" font-family="sans-serif" font-size="12" font-style="italic" lengthAdjust="spacing" textLength="27" x="614.5" y="256.4629">&#171;vo&#187;</text><text fill="#000000" font-family="sans-serif" font-size="14" lengthAdjust="spacing" textLength="74" x="591" y="274.582">DateOfBirth</text></g><!--class SystemUser--><g id="elem_SystemUser"><rect fill="#F1F1F1" height="28.6211" id="SystemUser" rx="2.5" ry="2.5" style="stroke:#181818;stroke-width:0.5;" width="81" x="30" y="433.5137"/><text fill="#000000" font-family="sans-serif" font-size="14" lengthAdjust="spacing" textLength="75" x="33" y="453.6211">SystemUser</text></g><!--class Course--><g id="elem_Course"><rect codeLine="23" fill="#F1F1F1" height="60.543" id="Course" rx="2.5" ry="2.5" style="stroke:#181818;stroke-width:0.5;" width="52" x="295.5" y="1475.5137"/><text fill="#000000" font-family="sans-serif" font-size="12" font-style="italic" lengthAdjust="spacing" textLength="43" x="300" y="1493.4629">&#171;entity&#187;</text><text fill="#000000" font-family="sans-serif" font-size="12" font-style="italic" lengthAdjust="spacing" textLength="35" x="304" y="1509.4238">&#171;root&#187;</text><text fill="#000000" font-family="sans-serif" font-size="14" lengthAdjust="spacing" textLength="46" x="298.5" y="1527.543">Course</text></g><!--class Code--><g id="elem_Code"><rect codeLine="24" fill="#F1F1F1" height="44.582" id="Code" rx="2.5" ry="2.5" style="stroke:#181818;stroke-width:0.5;" width="40" x="608" y="1670.5137"/><text fill="#000000" font-family="sans-serif" font-size="12" font-style="italic" lengthAdjust="spacing" textLength="27" x="614.5" y="1688.4629">&#171;vo&#187;</text><text fill="#000000" font-family="sans-serif" font-size="14" lengthAdjust="spacing" textLength="34" x="611" y="1706.582">Code</text></g><!--class Description--><g id="elem_Description"><rect codeLine="25" fill="#F1F1F1" height="44.582" id="Description" rx="2.5" ry="2.5" style="stroke:#181818;stroke-width:0.5;" width="77" x="589.5" y="1475.5137"/><text fill="#000000" font-family="sans-serif" font-size="12" font-style="italic" lengthAdjust="spacing" textLength="27" x="614.5" y="1493.4629">&#171;vo&#187;</text><text fill="#000000" font-family="sans-serif" font-size="14" lengthAdjust="spacing" textLength="71" x="592.5" y="1511.582">Description</text></g><!--class Title--><g id="elem_Title"><rect codeLine="26" fill="#F1F1F1" height="44.582" id="Title" rx="2.5" ry="2.5" style="stroke:#181818;stroke-width:0.5;" width="33" x="611.5" y="2076.5137"/><text fill="#000000" font-family="sans-serif" font-size="12" font-style="italic" lengthAdjust="spacing" textLength="27" x="614.5" y="2094.4629">&#171;vo&#187;</text><text fill="#000000" font-family="sans-serif" font-size="14" lengthAdjust="spacing" textLength="27" x="614.5" y="2112.582">Title</text></g><!--class State--><g id="elem_State"><rect codeLine="27" fill="#F1F1F1" height="60.543" id="State" rx="2.5" ry="2.5" style="stroke:#181818;stroke-width:0.5;" width="48" x="604" y="1865.5137"/><text fill="#000000" font-family="sans-serif" font-size="12" font-style="italic" lengthAdjust="spacing" textLength="27" x="614.5" y="1883.4629">&#171;vo&#187;</text><text fill="#000000" font-family="sans-serif" font-size="12" font-style="italic" lengthAdjust="spacing" textLength="46" x="605" y="1899.4238">&#171;enum&#187;</text><text fill="#000000" font-family="sans-serif" font-size="14" lengthAdjust="spacing" textLength="33" x="611.5" y="1917.543">State</text></g><!--class TeamElement--><g id="elem_TeamElement"><rect codeLine="37" fill="#F1F1F1" height="60.543" id="TeamElement" rx="2.5" ry="2.5" style="stroke:#181818;stroke-width:0.5;" width="93" x="24" y="768.5137"/><text fill="#000000" font-family="sans-serif" font-size="12" font-style="italic" lengthAdjust="spacing" textLength="43" x="49" y="786.4629">&#171;entity&#187;</text><text fill="#000000" font-family="sans-serif" font-size="12" font-style="italic" lengthAdjust="spacing" textLength="35" x="53" y="802.4238">&#171;root&#187;</text><text fill="#000000" font-family="sans-serif" font-size="14" lengthAdjust="spacing" textLength="87" x="27" y="820.543">TeamElement</text></g><!--class AdhesionDate--><g id="elem_AdhesionDate"><rect codeLine="38" fill="#F1F1F1" height="44.582" id="AdhesionDate" rx="2.5" ry="2.5" style="stroke:#181818;stroke-width:0.5;" width="95" x="274" y="776.5137"/><text fill="#000000" font-family="sans-serif" font-size="12" font-style="italic" lengthAdjust="spacing" textLength="27" x="308" y="794.4629">&#171;vo&#187;</text><text fill="#000000" font-family="sans-serif" font-size="14" lengthAdjust="spacing" textLength="89" x="277" y="812.582">AdhesionDate</text></g><!--class Exam--><g id="elem_Exam"><rect codeLine="45" fill="#F1F1F1" height="60.543" id="Exam" rx="2.5" ry="2.5" style="stroke:#181818;stroke-width:0.5;" width="45" x="605.5" y="1035.5137"/><text fill="#000000" font-family="sans-serif" font-size="12" font-style="italic" lengthAdjust="spacing" textLength="43" x="606.5" y="1053.4629">&#171;entity&#187;</text><text fill="#000000" font-family="sans-serif" font-size="12" font-style="italic" lengthAdjust="spacing" textLength="35" x="610.5" y="1069.4238">&#171;root&#187;</text><text fill="#000000" font-family="sans-serif" font-size="14" lengthAdjust="spacing" textLength="34" x="611" y="1087.543">Exam</text></g><!--class ExamType--><g id="elem_ExamType"><rect codeLine="46" fill="#F1F1F1" height="60.543" id="ExamType" rx="2.5" ry="2.5" style="stroke:#181818;stroke-width:0.5;" width="72" x="858.5" y="1336.5137"/><text fill="#000000" font-family="sans-serif" font-size="12" font-style="italic" lengthAdjust="spacing" textLength="46" x="871.5" y="1354.4629">&#171;enum&#187;</text><text fill="#000000" font-family="sans-serif" font-size="12" font-style="italic" lengthAdjust="spacing" textLength="27" x="881" y="1370.4238">&#171;vo&#187;</text><text fill="#000000" font-family="sans-serif" font-size="14" lengthAdjust="spacing" textLength="66" x="861.5" y="1388.543">ExamType</text></g><!--class ExamTitle--><g id="elem_ExamTitle"><rect codeLine="47" fill="#F1F1F1" height="44.582" id="ExamTitle" rx="2.5" ry="2.5" style="stroke:#181818;stroke-width:0.5;" width="67" x="861" y="1141.5137"/><text fill="#000000" font-family="sans-serif" font-size="12" font-style="italic" lengthAdjust="spacing" textLength="27" x="881" y="1159.4629">&#171;vo&#187;</text><text fill="#000000" font-family="sans-serif" font-size="14" lengthAdjust="spacing" textLength="61" x="864" y="1177.582">ExamTitle</text></g><!--class ExamHeaderTextualDescription--><g id="elem_ExamHeaderTextualDescription"><rect codeLine="48" fill="#F1F1F1" height="44.582" id="ExamHeaderTextualDescription" rx="2.5" ry="2.5" style="stroke:#181818;stroke-width:0.5;" width="203" x="793" y="946.5137"/><text fill="#000000" font-family="sans-serif" font-size="12" font-style="italic" lengthAdjust="spacing" textLength="27" x="881" y="964.4629">&#171;vo&#187;</text><text fill="#000000" font-family="sans-serif" font-size="14" lengthAdjust="spacing" textLength="197" x="796" y="982.582">ExamHeaderTextualDescription</text></g><!--class ExamInitalDateTime--><g id="elem_ExamInitalDateTime"><rect codeLine="49" fill="#F1F1F1" height="44.582" id="ExamInitalDateTime" rx="2.5" ry="2.5" style="stroke:#181818;stroke-width:0.5;" width="130" x="829.5" y="751.5137"/><text fill="#000000" font-family="sans-serif" font-size="12" font-style="italic" lengthAdjust="spacing" textLength="27" x="881" y="769.4629">&#171;vo&#187;</text><text fill="#000000" font-family="sans-serif" font-size="14" lengthAdjust="spacing" textLength="124" x="832.5" y="787.582">ExamInitalDateTime</text></g><!--class ExamFinalDateTime--><g id="elem_ExamFinalDateTime"><rect codeLine="50" fill="#F1F1F1" height="44.582" id="ExamFinalDateTime" rx="2.5" ry="2.5" style="stroke:#181818;stroke-width:0.5;" width="132" x="828.5" y="556.5137"/><text fill="#000000" font-family="sans-serif" font-size="12" font-style="italic" lengthAdjust="spacing" textLength="27" x="881" y="574.4629">&#171;vo&#187;</text><text fill="#000000" font-family="sans-serif" font-size="14" lengthAdjust="spacing" textLength="126" x="831.5" y="592.582">ExamFinalDateTime</text></g><!--class ExamSection--><g id="elem_ExamSection"><rect codeLine="63" fill="#F1F1F1" height="60.543" id="ExamSection" rx="2.5" ry="2.5" style="stroke:#181818;stroke-width:0.5;" width="87" x="278" y="2277.5137"/><text fill="#000000" font-family="sans-serif" font-size="12" font-style="italic" lengthAdjust="spacing" textLength="43" x="300" y="2295.4629">&#171;entity&#187;</text><text fill="#000000" font-family="sans-serif" font-size="12" font-style="italic" lengthAdjust="spacing" textLength="35" x="304" y="2311.4238">&#171;root&#187;</text><text fill="#000000" font-family="sans-serif" font-size="14" lengthAdjust="spacing" textLength="81" x="281" y="2329.543">ExamSection</text></g><!--class ExamSectionTextualDescription--><g id="elem_ExamSectionTextualDescription"><rect codeLine="64" fill="#F1F1F1" height="44.582" id="ExamSectionTextualDescription" rx="2.5" ry="2.5" style="stroke:#181818;stroke-width:0.5;" width="204" x="526" y="2289.5137"/><text fill="#000000" font-family="sans-serif" font-size="12" font-style="italic" lengthAdjust="spacing" textLength="27" x="614.5" y="2307.4629">&#171;vo&#187;</text><text fill="#000000" font-family="sans-serif" font-size="14" lengthAdjust="spacing" textLength="198" x="529" y="2325.582">ExamSectionTextualDescription</text></g><!--class ExamQuestion--><g id="elem_ExamQuestion"><rect codeLine="71" fill="#F1F1F1" height="60.543" id="ExamQuestion" rx="2.5" ry="2.5" style="stroke:#181818;stroke-width:0.5;" width="97" x="22" y="2788.5137"/><text fill="#000000" font-family="sans-serif" font-size="12" font-style="italic" lengthAdjust="spacing" textLength="43" x="49" y="2806.4629">&#171;entity&#187;</text><text fill="#000000" font-family="sans-serif" font-size="12" font-style="italic" lengthAdjust="spacing" textLength="35" x="53" y="2822.4238">&#171;root&#187;</text><text fill="#000000" font-family="sans-serif" font-size="14" lengthAdjust="spacing" textLength="91" x="25" y="2840.543">ExamQuestion</text></g><!--class ExamQuestionStatement--><g id="elem_ExamQuestionStatement"><rect codeLine="72" fill="#F1F1F1" height="44.582" id="ExamQuestionStatement" rx="2.5" ry="2.5" style="stroke:#181818;stroke-width:0.5;" width="161" x="241" y="3284.5137"/><text fill="#000000" font-family="sans-serif" font-size="12" font-style="italic" lengthAdjust="spacing" textLength="27" x="308" y="3302.4629">&#171;vo&#187;</text><text fill="#000000" font-family="sans-serif" font-size="14" lengthAdjust="spacing" textLength="155" x="244" y="3320.582">ExamQuestionStatement</text></g><!--class ExamQuestionNumber--><g id="elem_ExamQuestionNumber"><rect codeLine="73" fill="#F1F1F1" height="44.582" id="ExamQuestionNumber" rx="2.5" ry="2.5" style="stroke:#181818;stroke-width:0.5;" width="146" x="248.5" y="3089.5137"/><text fill="#000000" font-family="sans-serif" font-size="12" font-style="italic" lengthAdjust="spacing" textLength="27" x="308" y="3107.4629">&#171;vo&#187;</text><text fill="#000000" font-family="sans-serif" font-size="14" lengthAdjust="spacing" textLength="140" x="251.5" y="3125.582">ExamQuestionNumber</text></g><!--class ExamQuestionValue--><g id="elem_ExamQuestionValue"><rect codeLine="74" fill="#F1F1F1" height="44.582" id="ExamQuestionValue" rx="2.5" ry="2.5" style="stroke:#181818;stroke-width:0.5;" width="133" x="255" y="2894.5137"/><text fill="#000000" font-family="sans-serif" font-size="12" font-style="italic" lengthAdjust="spacing" textLength="27" x="308" y="2912.4629">&#171;vo&#187;</text><text fill="#000000" font-family="sans-serif" font-size="14" lengthAdjust="spacing" textLength="127" x="258" y="2930.582">ExamQuestionValue</text></g><!--class ExamQuestionSolution--><g id="elem_ExamQuestionSolution"><rect codeLine="75" fill="#F1F1F1" height="44.582" id="ExamQuestionSolution" rx="2.5" ry="2.5" style="stroke:#181818;stroke-width:0.5;" width="148" x="247.5" y="2699.5137"/><text fill="#000000" font-family="sans-serif" font-size="12" font-style="italic" lengthAdjust="spacing" textLength="27" x="308" y="2717.4629">&#171;vo&#187;</text><text fill="#000000" font-family="sans-serif" font-size="14" lengthAdjust="spacing" textLength="142" x="250.5" y="2735.582">ExamQuestionSolution</text></g><!--class ExamQuestionType--><g id="elem_ExamQuestionType"><rect codeLine="76" fill="#F1F1F1" height="60.543" id="ExamQuestionType" rx="2.5" ry="2.5" style="stroke:#181818;stroke-width:0.5;" width="129" x="257" y="2488.5137"/><text fill="#000000" font-family="sans-serif" font-size="12" font-style="italic" lengthAdjust="spacing" textLength="27" x="308" y="2506.4629">&#171;vo&#187;</text><text fill="#000000" font-family="sans-serif" font-size="12" font-style="italic" lengthAdjust="spacing" textLength="46" x="298.5" y="2522.4238">&#171;enum&#187;</text><text fill="#000000" font-family="sans-serif" font-size="14" lengthAdjust="spacing" textLength="123" x="260" y="2540.543">ExamQuestionType</text></g><!--reverse link SystemUser to Teacher--><g id="link_SystemUser_Teacher"><path codeLine="16" d="M116.36,448.0137 C167.26,448.0137 248.77,448.0137 291.78,448.0137 " fill="none" id="SystemUser-backto-Teacher" style="stroke:#181818;stroke-width:1.0;"/><polygon fill="#181818" points="111.23,448.0137,120.23,452.0137,116.23,448.0137,120.23,444.0137,111.23,448.0137" style="stroke:#181818;stroke-width:1.0;"/><text fill="#000000" font-family="sans-serif" font-size="13" lengthAdjust="spacing" textLength="7" x="119.1085" y="463.6157">1</text></g><!--link Teacher to Acronym--><g id="link_Teacher_Acronym"><path codeLine="17" d="M341.85,417.1037 C376.14,363.2537 451.05,249.7137 526,163.0137 C548.15,137.3837 576.11,110.9237 596.99,92.1237 " fill="none" id="Teacher-to-Acronym" style="stroke:#181818;stroke-width:1.0;"/><polygon fill="#181818" points="600.8,88.7037,591.4345,91.7512,597.0835,92.0485,596.7862,97.6975,600.8,88.7037" style="stroke:#181818;stroke-width:1.0;"/><text fill="#000000" font-family="sans-serif" font-size="13" lengthAdjust="spacing" textLength="7" x="586.7006" y="110.0267">1</text></g><!--link Teacher to DateOfBirth--><g id="link_Teacher_DateOfBirth"><path codeLine="18" d="M351.15,430.4237 C405.36,397.1237 523.15,324.7937 585.83,286.3037 " fill="none" id="Teacher-to-DateOfBirth" style="stroke:#181818;stroke-width:1.0;"/><polygon fill="#181818" points="590.24,283.5837,580.4775,284.8848,585.9793,286.2002,584.6639,291.702,590.24,283.5837" style="stroke:#181818;stroke-width:1.0;"/><text fill="#000000" font-family="sans-serif" font-size="13" lengthAdjust="spacing" textLength="7" x="573.1829" y="305.2717">1</text></g><!--link Teacher to TaxPayerNumber--><g id="link_Teacher_TaxPayerNumber"><path codeLine="19" d="M351.15,448.7637 C399.92,450.0437 500.12,452.6837 565.39,454.3937 " fill="none" id="Teacher-to-TaxPayerNumber" style="stroke:#181818;stroke-width:1.0;"/><polygon fill="#181818" points="570.41,454.5237,561.5158,450.2936,565.4117,454.3951,561.3102,458.291,570.41,454.5237" style="stroke:#181818;stroke-width:1.0;"/><text fill="#000000" font-family="sans-serif" font-size="13" lengthAdjust="spacing" textLength="7" x="555.5828" y="469.4956">1</text></g><!--link Course to State--><g id="link_Course_State"><path codeLine="29" d="M342.55,1536.8937 C377.62,1590.1837 453.28,1702.1737 526,1790.0137 C549.75,1818.7037 579.4,1849.2737 600.42,1870.1737 " fill="none" id="Course-to-State" style="stroke:#181818;stroke-width:1.0;"/><polygon fill="#181818" points="603.97,1873.7037,600.4159,1864.5184,600.4273,1870.1753,594.7705,1870.1867,603.97,1873.7037" style="stroke:#181818;stroke-width:1.0;"/><text fill="#000000" font-family="sans-serif" font-size="13" lengthAdjust="spacing" textLength="7" x="588.8831" y="1883.7852">1</text></g><!--link Course to Title--><g id="link_Course_Title"><path codeLine="30" d="M330.23,1536.6137 C351.7,1617.6837 417.68,1842.6437 526,2001.0137 C549.11,2034.8037 585.24,2066.3537 607.45,2084.1037 " fill="none" id="Course-to-Title" style="stroke:#181818;stroke-width:1.0;"/><polygon fill="#181818" points="611.42,2087.2637,606.848,2078.5403,607.5004,2084.1594,601.8812,2084.8117,611.42,2087.2637" style="stroke:#181818;stroke-width:1.0;"/><text fill="#000000" font-family="sans-serif" font-size="13" lengthAdjust="spacing" textLength="7" x="596.5135" y="2100.1519">1</text></g><!--link Course to Description--><g id="link_Course_Description"><path codeLine="31" d="M347.68,1505.3537 C399.72,1503.9837 519.65,1500.8337 584.13,1499.1437 " fill="none" id="Course-to-Description" style="stroke:#181818;stroke-width:1.0;"/><polygon fill="#181818" points="589.43,1499.0037,580.3302,1495.2363,584.4317,1499.1322,580.5358,1503.2337,589.43,1499.0037" style="stroke:#181818;stroke-width:1.0;"/><text fill="#000000" font-family="sans-serif" font-size="13" lengthAdjust="spacing" textLength="7" x="574.4104" y="1514.9086">1</text></g><!--link Course to Code--><g id="link_Course_Code"><path codeLine="32" d="M347.68,1521.4737 C405.47,1556.9637 546.99,1643.8737 603.31,1678.4637 " fill="none" id="Course-to-Code" style="stroke:#181818;stroke-width:1.0;"/><polygon fill="#181818" points="607.86,1681.2537,602.2839,1673.1354,603.5993,1678.6372,598.0975,1679.9526,607.86,1681.2537" style="stroke:#181818;stroke-width:1.0;"/><text fill="#000000" font-family="sans-serif" font-size="13" lengthAdjust="spacing" textLength="7" x="593.0293" y="1694.3195">1</text></g><!--link Course to Teacher--><g id="link_Course_Teacher"><path codeLine="33" d="M307.89,1475.3337 C275.66,1400.8237 195.35,1203.5937 168,1029.5137 C134.82,818.2737 252.96,572.8737 301.55,483.1537 " fill="none" id="Course-to-Teacher" style="stroke:#181818;stroke-width:1.0;"/><polygon fill="#181818" points="303.95,478.7437,296.1438,484.7489,301.5667,483.1391,303.1765,488.5621,303.95,478.7437" style="stroke:#181818;stroke-width:1.0;"/><text fill="#000000" font-family="sans-serif" font-size="13" lengthAdjust="spacing" textLength="60" x="150" y="1025.542">is ruled by</text><text fill="#000000" font-family="sans-serif" font-size="13" lengthAdjust="spacing" textLength="5" x="295.2533" y="500.074">*</text></g><!--link TeamElement to AdhesionDate--><g id="link_TeamElement_AdhesionDate"><path codeLine="39" d="M117.17,799.0137 C160.03,799.0137 224.05,799.0137 268.77,799.0137 " fill="none" id="TeamElement-to-AdhesionDate" style="stroke:#181818;stroke-width:1.0;"/><polygon fill="#181818" points="273.85,799.0137,264.85,795.0137,268.85,799.0137,264.85,803.0137,273.85,799.0137" style="stroke:#181818;stroke-width:1.0;"/><text fill="#000000" font-family="sans-serif" font-size="13" lengthAdjust="spacing" textLength="7" x="259.0177" y="814.3978">1</text></g><!--link TeamElement to Course--><g id="link_TeamElement_Course"><path codeLine="40" d="M79.46,829.7237 C92.61,879.6737 120.31,981.4537 149,1066.0137 C200.81,1218.7137 274.24,1396.4937 305.49,1470.6837 " fill="none" id="TeamElement-to-Course" style="stroke:#181818;stroke-width:1.0;"/><polygon fill="#181818" points="307.48,1475.4237,307.6631,1465.5765,305.5346,1470.8177,300.2935,1468.6892,307.48,1475.4237" style="stroke:#181818;stroke-width:1.0;"/><text fill="#000000" font-family="sans-serif" font-size="13" lengthAdjust="spacing" textLength="7" x="296.8665" y="1464.4668">1</text></g><!--link TeamElement to Teacher--><g id="link_TeamElement_Teacher"><path codeLine="41" d="M93.16,768.4837 C139.24,703.5237 246.75,551.9737 295.58,483.1437 " fill="none" id="TeamElement-to-Teacher" style="stroke:#181818;stroke-width:1.0;"/><polygon fill="#181818" points="298.71,478.7237,290.2506,483.7673,295.8255,482.8077,296.7851,488.3826,298.71,478.7237" style="stroke:#181818;stroke-width:1.0;"/><text fill="#000000" font-family="sans-serif" font-size="13" lengthAdjust="spacing" textLength="7" x="286.8628" y="500.0503">1</text></g><!--link Teacher to Exam--><g id="link_Teacher_Exam"><path codeLine="52" d="M337.6,478.6637 C388.68,582.3337 554.86,919.6037 609.45,1030.3937 " fill="none" id="Teacher-to-Exam" style="stroke:#181818;stroke-width:1.0;"/><polygon fill="#181818" points="611.81,1035.1837,611.4131,1025.3428,609.5968,1030.7002,604.2395,1028.8839,611.81,1035.1837" style="stroke:#181818;stroke-width:1.0;"/><text fill="#000000" font-family="sans-serif" font-size="13" lengthAdjust="spacing" textLength="43" x="443.5" y="680.042">creates</text><text fill="#000000" font-family="sans-serif" font-size="13" lengthAdjust="spacing" textLength="5" x="602.9552" y="1024.1773">*</text></g><!--link Exam to ExamTitle--><g id="link_Exam_ExamTitle"><path codeLine="53" d="M650.65,1074.0337 C695.56,1090.6737 799.36,1129.1337 855.62,1149.9737 " fill="none" id="Exam-to-ExamTitle" style="stroke:#181818;stroke-width:1.0;"/><polygon fill="#181818" points="860.58,1151.8137,853.5322,1144.9341,855.8919,1150.0752,850.7508,1152.4349,860.58,1151.8137" style="stroke:#181818;stroke-width:1.0;"/><text fill="#000000" font-family="sans-serif" font-size="13" lengthAdjust="spacing" textLength="7" x="845.8621" y="1165.152">1</text></g><!--link Exam to ExamHeaderTextualDescription--><g id="link_Exam_ExamHeaderTextualDescription"><path codeLine="54" d="M650.65,1058.0737 C688.75,1044.1037 769.24,1014.5837 827.12,993.3537 " fill="none" id="Exam-to-ExamHeaderTextualDescription" style="stroke:#181818;stroke-width:1.0;"/><polygon fill="#181818" points="831.95,991.5837,822.1242,990.9098,827.2527,993.297,824.8655,998.4254,831.95,991.5837" style="stroke:#181818;stroke-width:1.0;"/><text fill="#000000" font-family="sans-serif" font-size="13" lengthAdjust="spacing" textLength="22" x="792.0222" y="1013.2717">0..1</text></g><!--link Exam to Course--><g id="link_Exam_Course"><path codeLine="55" d="M605.77,1096.6937 C550.86,1176.0437 404.41,1387.6537 346.53,1471.2937 " fill="none" id="Exam-to-Course" style="stroke:#181818;stroke-width:1.0;"/><polygon fill="#181818" points="343.67,1475.4237,352.0854,1470.3069,346.519,1471.3148,345.5111,1465.7484,343.67,1475.4237" style="stroke:#181818;stroke-width:1.0;"/><text fill="#000000" font-family="sans-serif" font-size="13" lengthAdjust="spacing" textLength="60" x="435" y="1256.042">belongs to</text><text fill="#000000" font-family="sans-serif" font-size="13" lengthAdjust="spacing" textLength="7" x="340.5207" y="1464.4668">1</text></g><!--link Exam to ExamType--><g id="link_Exam_ExamType"><path codeLine="56" d="M650.53,1092.6137 C681.42,1130.5537 740.4,1202.1237 793,1261.0137 C814.79,1285.4037 840.13,1312.1237 859.92,1332.6337 " fill="none" id="Exam-to-ExamType" style="stroke:#181818;stroke-width:1.0;"/><polygon fill="#181818" points="863.54,1336.3937,860.1722,1327.1385,860.0693,1332.7945,854.4134,1332.6916,863.54,1336.3937" style="stroke:#181818;stroke-width:1.0;"/><text fill="#000000" font-family="sans-serif" font-size="13" lengthAdjust="spacing" textLength="7" x="849.4326" y="1325.4306">1</text></g><!--link Exam to ExamInitalDateTime--><g id="link_Exam_ExamInitalDateTime"><path codeLine="57" d="M650.69,1038.4437 C681.29,999.9537 739.41,928.4037 793,871.0137 C816.22,846.1537 844.16,819.4137 864.69,800.3237 " fill="none" id="Exam-to-ExamInitalDateTime" style="stroke:#181818;stroke-width:1.0;"/><polygon fill="#181818" points="868.43,796.8437,859.1154,800.0435,864.7686,800.2487,864.5634,805.9018,868.43,796.8437" style="stroke:#181818;stroke-width:1.0;"/><text fill="#000000" font-family="sans-serif" font-size="13" lengthAdjust="spacing" textLength="7" x="854.5919" y="818.199">1</text></g><!--link Exam to ExamFinalDateTime--><g id="link_Exam_ExamFinalDateTime"><path codeLine="58" d="M637.26,1035.3337 C656.72,966.6537 710.08,797.0537 793,676.0137 C811.71,648.7037 839.04,622.9437 860.48,604.8337 " fill="none" id="Exam-to-ExamFinalDateTime" style="stroke:#181818;stroke-width:1.0;"/><polygon fill="#181818" points="864.41,601.5437,854.9452,604.2671,860.5806,604.7586,860.0891,610.3941,864.41,601.5437" style="stroke:#181818;stroke-width:1.0;"/><text fill="#000000" font-family="sans-serif" font-size="13" lengthAdjust="spacing" textLength="7" x="849.2224" y="623.222">1</text></g><!--reverse link ExamSection to Exam--><g id="link_ExamSection_Exam"><path codeLine="66" d="M355.46,2273.6337 C379.15,2246.7937 409.68,2207.4037 426,2167.0137 C549.85,1860.5337 459.43,1753.8037 526,1430.0137 C551.75,1304.7437 596.87,1159.1137 616.92,1096.8337 " fill="none" id="ExamSection-backto-Exam" style="stroke:#181818;stroke-width:1.0;"/><polygon fill="#181818" points="352.02,2277.5037,360.9976,2273.4536,355.3498,2273.7737,355.0297,2268.1259,352.02,2277.5037" style="stroke:#181818;stroke-width:1.0;"/><text fill="#000000" font-family="sans-serif" font-size="13" lengthAdjust="spacing" textLength="5" x="353.1494" y="2266.0804">*</text></g><!--link ExamSection to ExamSectionTextualDescription--><g id="link_ExamSection_ExamSectionTextualDescription"><path codeLine="67" d="M365.16,2308.5737 C405.36,2309.1037 467.23,2309.9137 520.74,2310.6137 " fill="none" id="ExamSection-to-ExamSectionTextualDescription" style="stroke:#181818;stroke-width:1.0;"/><polygon fill="#181818" points="525.89,2310.6837,516.9481,2306.5555,520.8905,2310.6123,516.8338,2314.5547,525.89,2310.6837" style="stroke:#181818;stroke-width:1.0;"/><text fill="#000000" font-family="sans-serif" font-size="13" lengthAdjust="spacing" textLength="22" x="495.937" y="2325.2411">0..1</text></g><!--reverse link ExamQuestion to ExamSection--><g id="link_ExamQuestion_ExamSection"><path codeLine="78" d="M85.96,2783.5537 C113.79,2716.1537 177.65,2565.3337 241,2443.0137 C260.01,2406.3037 284.47,2365.5937 301.21,2338.5737 " fill="none" id="ExamQuestion-backto-ExamSection" style="stroke:#181818;stroke-width:1.0;"/><polygon fill="#181818" points="84.02,2788.2637,91.156,2781.4756,85.9309,2783.6432,83.7633,2778.4182,84.02,2788.2637" style="stroke:#181818;stroke-width:1.0;"/><text fill="#000000" font-family="sans-serif" font-size="13" lengthAdjust="spacing" textLength="5" x="81.2929" y="2777.2738">*</text></g><!--link ExamQuestion to ExamQuestionValue--><g id="link_ExamQuestion_ExamQuestionValue"><path codeLine="79" d="M119.22,2837.7937 C158.73,2853.3437 215.17,2875.5537 258.23,2892.5037 " fill="none" id="ExamQuestion-to-ExamQuestionValue" style="stroke:#181818;stroke-width:1.0;"/><polygon fill="#181818" points="262.89,2894.3337,256.0006,2887.2955,258.2427,2892.4891,253.0492,2894.7312,262.89,2894.3337" style="stroke:#181818;stroke-width:1.0;"/><text fill="#000000" font-family="sans-serif" font-size="13" lengthAdjust="spacing" textLength="7" x="239.9743" y="2883.463">1</text></g><!--link ExamQuestion to ExamQuestionNumber--><g id="link_ExamQuestion_ExamQuestionNumber"><path codeLine="80" d="M97.29,2849.7237 C112.34,2867.6237 131.71,2890.6237 149,2911.0137 C202.09,2973.6337 264.77,3046.9437 297.69,3085.3837 " fill="none" id="ExamQuestion-to-ExamQuestionNumber" style="stroke:#181818;stroke-width:1.0;"/><polygon fill="#181818" points="301.16,3089.4437,298.3604,3080.0011,297.9143,3085.6403,292.2751,3085.1942,301.16,3089.4437" style="stroke:#181818;stroke-width:1.0;"/><text fill="#000000" font-family="sans-serif" font-size="13" lengthAdjust="spacing" textLength="7" x="287.753" y="3078.2172">1</text></g><!--link ExamQuestion to ExamQuestionSolution--><g id="link_ExamQuestion_ExamQuestionSolution"><path codeLine="81" d="M119.22,2800.4237 C158.51,2785.1137 214.55,2763.2837 257.53,2746.5437 " fill="none" id="ExamQuestion-to-ExamQuestionSolution" style="stroke:#181818;stroke-width:1.0;"/><polygon fill="#181818" points="262.44,2744.6337,252.6024,2744.1633,257.7792,2746.4438,255.4986,2751.6206,262.44,2744.6337" style="stroke:#181818;stroke-width:1.0;"/><text fill="#000000" font-family="sans-serif" font-size="13" lengthAdjust="spacing" textLength="7" x="240.973" y="2765.9405">1</text></g><!--link ExamQuestion to ExamQuestionType--><g id="link_ExamQuestion_ExamQuestionType"><path codeLine="82" d="M96.98,2788.3137 C143.58,2732.1737 242.27,2613.2637 291.42,2554.0537 " fill="none" id="ExamQuestion-to-ExamQuestionType" style="stroke:#181818;stroke-width:1.0;"/><polygon fill="#181818" points="294.87,2549.8937,286.0546,2554.2856,291.686,2553.7488,292.2228,2559.3801,294.87,2549.8937" style="stroke:#181818;stroke-width:1.0;"/><text fill="#000000" font-family="sans-serif" font-size="13" lengthAdjust="spacing" textLength="7" x="282.5031" y="2571.0032">1</text></g><!--link ExamQuestion to ExamQuestionStatement--><g id="link_ExamQuestion_ExamQuestionStatement"><path codeLine="83" d="M81.01,2849.5737 C102.97,2917.6637 161.5,3085.6437 241,3210.0137 C257.14,3235.2537 278.89,3261.3837 295.57,3280.1537 " fill="none" id="ExamQuestion-to-ExamQuestionStatement" style="stroke:#181818;stroke-width:1.0;"/><polygon fill="#181818" points="299.26,3284.2837,296.2503,3274.9059,295.9302,3280.5537,290.2824,3280.2336,299.26,3284.2837" style="stroke:#181818;stroke-width:1.0;"/><text fill="#000000" font-family="sans-serif" font-size="13" lengthAdjust="spacing" textLength="7" x="285.6641" y="3273.4001">1</text></g><!--SRC=[ZLLDRzim3BtxLn0v3aZH7dO930DRss6xx0F9TbTj9XOgMuOaRp6A_lT9ifHAiTGa9vllXU9xfEYMDWWr5JL3MRJcfKFLyiQzx2ao_IoVQJyGGJheUOCI1xZxU3ipi1lKfF_KFQ6G1SEz0iL1q4EheA42QqLvNnJ5GEfdSa1ObIKv2DWXgLiKLRLwAGhGlveHANsuBB5NL4rLLPQ2SrLLBwy1wrCjU3zrPVcNdo4xSln99XJVHrDFWl105FxOVwP2jIVKmjj9Akn-InImkbj1kLxxOYpidc7Ty7_zkh8SLqQCEomu9ud7XHQl2uFk-IWaMd_Ugf-35zovros2MLme76Kjw62waVADAeQ9-5Pf7NFSd3fsRuRDjS19aQN6IE2LFI2B1iLbEKPM2DfpFwnEpcw0IX0ZmmQUfeIXcjSzCkoqTsUk1WXSchocHQchDEs5oAymYRSaP6T9ivmix8TmAUZnIBep9IO42GqGYJ2itJGW-9Oc6cyvfcUG0RyYQL3iyAX6meB-vVZVUgeqKJknevtFkgph2-qNB3znqHtIdRTgDr0Br7nfAJRahJjfE8DkRsuScXEnpEM6RWDFo7X_a7h9PGxKngQHs84q9v9VP9g-dPTgelSEkMe27FUz3fvgz7cDwsOpcjW2FFCscp-ZwjU8CYFBGvTkPyYrwyXTwUH0UkAyWI-n_X0suYNIbhCnis13chjxgQKQgGtTTcukIU7qHCLUHtNVdwkuNjvrxEWYl9_NjyeE_7y0]--></g></svg>