<?xml version="1.0" encoding="UTF-8" standalone="no"?><svg xmlns="http://www.w3.org/2000/svg" xmlns:xlink="http://www.w3.org/1999/xlink" contentStyleType="text/css" height="1398px" preserveAspectRatio="none" style="width:3856px;height:1398px;background:#FFFFFF;" version="1.1" viewBox="0 0 3856 1398" width="3856px" zoomAndPan="magnify"><defs/><g><rect fill="#FFFFFF" height="1187.3594" style="stroke:#181818;stroke-width:1.0;" width="10" x="48.5" y="96.2188"/><rect fill="#FFFFFF" height="218.4609" style="stroke:#181818;stroke-width:1.0;" width="10" x="664.5" y="143.9219"/><rect fill="#FFFFFF" height="37.3516" style="stroke:#181818;stroke-width:1.0;" width="10" x="664.5" y="392.7344"/><rect fill="#FFFFFF" height="823.1406" style="stroke:#181818;stroke-width:1.0;" width="10" x="664.5" y="460.4375"/><rect fill="#FFFFFF" height="154.7578" style="stroke:#181818;stroke-width:1.0;" width="10" x="1029.5" y="177.2734"/><rect fill="#FFFFFF" height="762.4375" style="stroke:#181818;stroke-width:1.0;" width="10" x="1029.5" y="490.7891"/><rect fill="#FFFFFF" height="91.0547" style="stroke:#181818;stroke-width:1.0;" width="10" x="1295.5" y="210.625"/><rect fill="#FFFFFF" height="30.3516" style="stroke:#181818;stroke-width:1.0;" width="10" x="1787.5" y="521.1406"/><rect fill="#FFFFFF" height="641.0313" style="stroke:#181818;stroke-width:1.0;" width="10" x="2029" y="581.8438"/><rect fill="#FFFFFF" height="30.3516" style="stroke:#181818;stroke-width:1.0;" width="10" x="2843" y="612.1953"/><rect fill="#FFFFFF" height="30.3516" style="stroke:#181818;stroke-width:1.0;" width="10" x="2843" y="1162.1719"/><rect fill="#FFFFFF" height="91.0547" style="stroke:#181818;stroke-width:1.0;" width="10" x="2961.5" y="849.6563"/><rect fill="#FFFFFF" height="30.3516" style="stroke:#181818;stroke-width:1.0;" width="10" x="3194.5" y="880.0078"/><rect fill="#FFFFFF" height="91.0547" style="stroke:#181818;stroke-width:1.0;" width="10" x="3300" y="1040.7656"/><rect fill="#FFFFFF" height="30.3516" style="stroke:#181818;stroke-width:1.0;" width="10" x="3561" y="1071.1172"/><rect fill="#FFFFFF" height="30.3516" style="stroke:#181818;stroke-width:1.0;" width="10" x="3787.5" y="240.9766"/><rect fill="none" height="297.5156" style="stroke:#000000;stroke-width:1.5;" width="3840" x="10" y="103.2188"/><rect fill="none" height="291.1641" style="stroke:#000000;stroke-width:1.5;" width="1384.5" x="1872.5" y="657.5469"/><rect fill="none" height="137.4063" style="stroke:#000000;stroke-width:1.5;" width="686.5" x="1882.5" y="682.8984"/><rect fill="none" height="61.7031" style="stroke:#000000;stroke-width:1.5;" width="412" x="1892.5" y="751.6016"/><rect fill="none" height="48.7031" style="stroke:#000000;stroke-width:1.5;" width="1852.5" x="1892.5" y="962.7109"/><line style="stroke:#181818;stroke-width:0.5;stroke-dasharray:5.0,5.0;" x1="53" x2="53" y1="86.2188" y2="1301.5781"/><line style="stroke:#181818;stroke-width:0.5;stroke-dasharray:5.0,5.0;" x1="669" x2="669" y1="86.2188" y2="1301.5781"/><line style="stroke:#181818;stroke-width:0.5;stroke-dasharray:5.0,5.0;" x1="1034" x2="1034" y1="86.2188" y2="1301.5781"/><line style="stroke:#181818;stroke-width:0.5;stroke-dasharray:5.0,5.0;" x1="1300" x2="1300" y1="86.2188" y2="1301.5781"/><line style="stroke:#181818;stroke-width:0.5;stroke-dasharray:5.0,5.0;" x1="1792.5" x2="1792.5" y1="86.2188" y2="1301.5781"/><line style="stroke:#181818;stroke-width:0.5;stroke-dasharray:5.0,5.0;" x1="2033.5" x2="2033.5" y1="86.2188" y2="1301.5781"/><line style="stroke:#181818;stroke-width:0.5;stroke-dasharray:5.0,5.0;" x1="2848" x2="2848" y1="86.2188" y2="1301.5781"/><line style="stroke:#181818;stroke-width:0.5;stroke-dasharray:5.0,5.0;" x1="2966" x2="2966" y1="86.2188" y2="1301.5781"/><line style="stroke:#181818;stroke-width:0.5;stroke-dasharray:5.0,5.0;" x1="3199" x2="3199" y1="86.2188" y2="1301.5781"/><line style="stroke:#181818;stroke-width:0.5;stroke-dasharray:5.0,5.0;" x1="3305" x2="3305" y1="86.2188" y2="1301.5781"/><line style="stroke:#181818;stroke-width:0.5;stroke-dasharray:5.0,5.0;" x1="3566" x2="3566" y1="86.2188" y2="1301.5781"/><line style="stroke:#181818;stroke-width:0.5;stroke-dasharray:5.0,5.0;" x1="3674" x2="3674" y1="86.2188" y2="1301.5781"/><line style="stroke:#181818;stroke-width:0.5;stroke-dasharray:5.0,5.0;" x1="3792" x2="3792" y1="86.2188" y2="1301.5781"/><rect fill="#E2E2F0" height="31.6094" rx="2.5" ry="2.5" style="stroke:#181818;stroke-width:0.5;" width="67" x="20" y="53.6094"/><text fill="#000000" font-family="sans-serif" font-size="14" lengthAdjust="spacing" textLength="53" x="27" y="75.1426">Teacher</text><rect fill="#E2E2F0" height="31.6094" rx="2.5" ry="2.5" style="stroke:#181818;stroke-width:0.5;" width="67" x="20" y="1300.5781"/><text fill="#000000" font-family="sans-serif" font-size="14" lengthAdjust="spacing" textLength="53" x="27" y="1322.1113">Teacher</text><rect fill="#E2E2F0" height="49.2188" rx="2.5" ry="2.5" style="stroke:#181818;stroke-width:0.5;" width="273" x="533" y="36"/><text fill="#000000" font-family="sans-serif" font-size="14" font-style="italic" lengthAdjust="spacing" textLength="95" x="622" y="57.5332">«presentation»</text><text fill="#000000" font-family="sans-serif" font-size="14" lengthAdjust="spacing" textLength="259" x="540" y="75.1426">CreateUpdateAutomaticFormativeExamUI</text><rect fill="#E2E2F0" height="49.2188" rx="2.5" ry="2.5" style="stroke:#181818;stroke-width:0.5;" width="273" x="533" y="1300.5781"/><text fill="#000000" font-family="sans-serif" font-size="14" font-style="italic" lengthAdjust="spacing" textLength="95" x="622" y="1322.1113">«presentation»</text><text fill="#000000" font-family="sans-serif" font-size="14" lengthAdjust="spacing" textLength="259" x="540" y="1339.7207">CreateUpdateAutomaticFormativeExamUI</text><rect fill="#E2E2F0" height="49.2188" rx="2.5" ry="2.5" style="stroke:#181818;stroke-width:0.5;" width="323" x="873" y="36"/><text fill="#000000" font-family="sans-serif" font-size="14" font-style="italic" lengthAdjust="spacing" textLength="84" x="992.5" y="57.5332">«application»</text><text fill="#000000" font-family="sans-serif" font-size="14" lengthAdjust="spacing" textLength="309" x="880" y="75.1426">CreateUpdateAutomaticFormativeExamController</text><rect fill="#E2E2F0" height="49.2188" rx="2.5" ry="2.5" style="stroke:#181818;stroke-width:0.5;" width="323" x="873" y="1300.5781"/><text fill="#000000" font-family="sans-serif" font-size="14" font-style="italic" lengthAdjust="spacing" textLength="84" x="992.5" y="1322.1113">«application»</text><text fill="#000000" font-family="sans-serif" font-size="14" lengthAdjust="spacing" textLength="309" x="880" y="1339.7207">CreateUpdateAutomaticFormativeExamController</text><rect fill="#E2E2F0" height="49.2188" rx="2.5" ry="2.5" style="stroke:#181818;stroke-width:0.5;" width="189" x="1206" y="36"/><text fill="#000000" font-family="sans-serif" font-size="14" font-style="italic" lengthAdjust="spacing" textLength="84" x="1258.5" y="57.5332">«application»</text><text fill="#000000" font-family="sans-serif" font-size="14" lengthAdjust="spacing" textLength="175" x="1213" y="75.1426">ListTeacherCoursesService</text><rect fill="#E2E2F0" height="49.2188" rx="2.5" ry="2.5" style="stroke:#181818;stroke-width:0.5;" width="189" x="1206" y="1300.5781"/><text fill="#000000" font-family="sans-serif" font-size="14" font-style="italic" lengthAdjust="spacing" textLength="84" x="1258.5" y="1322.1113">«application»</text><text fill="#000000" font-family="sans-serif" font-size="14" lengthAdjust="spacing" textLength="175" x="1213" y="1339.7207">ListTeacherCoursesService</text><rect fill="#E2E2F0" height="49.2188" rx="2.5" ry="2.5" style="stroke:#181818;stroke-width:0.5;" width="200" x="1692.5" y="36"/><text fill="#000000" font-family="sans-serif" font-size="14" font-style="italic" lengthAdjust="spacing" textLength="62" x="1761.5" y="57.5332">«domain»</text><text fill="#000000" font-family="sans-serif" font-size="14" lengthAdjust="spacing" textLength="186" x="1699.5" y="75.1426">FormativeExamParserService</text><rect fill="#E2E2F0" height="49.2188" rx="2.5" ry="2.5" style="stroke:#181818;stroke-width:0.5;" width="200" x="1692.5" y="1300.5781"/><text fill="#000000" font-family="sans-serif" font-size="14" font-style="italic" lengthAdjust="spacing" textLength="62" x="1761.5" y="1322.1113">«domain»</text><text fill="#000000" font-family="sans-serif" font-size="14" lengthAdjust="spacing" textLength="186" x="1699.5" y="1339.7207">FormativeExamParserService</text><rect fill="#E2E2F0" height="49.2188" rx="2.5" ry="2.5" style="stroke:#181818;stroke-width:0.5;" width="263" x="1902.5" y="36"/><text fill="#000000" font-family="sans-serif" font-size="14" font-style="italic" lengthAdjust="spacing" textLength="60" x="2004" y="57.5332">«service»</text><text fill="#000000" font-family="sans-serif" font-size="14" lengthAdjust="spacing" textLength="249" x="1909.5" y="75.1426">CreateAutomaticFormativeExamService</text><rect fill="#E2E2F0" height="49.2188" rx="2.5" ry="2.5" style="stroke:#181818;stroke-width:0.5;" width="263" x="1902.5" y="1300.5781"/><text fill="#000000" font-family="sans-serif" font-size="14" font-style="italic" lengthAdjust="spacing" textLength="60" x="2004" y="1322.1113">«service»</text><text fill="#000000" font-family="sans-serif" font-size="14" lengthAdjust="spacing" textLength="249" x="1909.5" y="1339.7207">CreateAutomaticFormativeExamService</text><text fill="#000000" font-family="sans-serif" font-size="14" font-style="italic" lengthAdjust="spacing" textLength="89" x="2800.5" y="65.5332">«persistence»</text><text fill="#000000" font-family="sans-serif" font-size="14" lengthAdjust="spacing" textLength="102" x="2794" y="83.1426">ExamRepository</text><path d="M2830,15 C2830,5 2848,5 2848,5 C2848,5 2866,5 2866,15 L2866,41 C2866,51 2848,51 2848,51 C2848,51 2830,51 2830,41 L2830,15 " fill="#E2E2F0" style="stroke:#181818;stroke-width:1.5;"/><path d="M2830,15 C2830,25 2848,25 2848,25 C2848,25 2866,25 2866,15 " fill="none" style="stroke:#181818;stroke-width:1.5;"/><text fill="#000000" font-family="sans-serif" font-size="14" font-style="italic" lengthAdjust="spacing" textLength="89" x="2800.5" y="1315.1113">«persistence»</text><text fill="#000000" font-family="sans-serif" font-size="14" lengthAdjust="spacing" textLength="102" x="2794" y="1332.7207">ExamRepository</text><path d="M2830,1345.7969 C2830,1335.7969 2848,1335.7969 2848,1335.7969 C2848,1335.7969 2866,1335.7969 2866,1345.7969 L2866,1371.7969 C2866,1381.7969 2848,1381.7969 2848,1381.7969 C2848,1381.7969 2830,1381.7969 2830,1371.7969 L2830,1345.7969 " fill="#E2E2F0" style="stroke:#181818;stroke-width:1.5;"/><path d="M2830,1345.7969 C2830,1355.7969 2848,1355.7969 2848,1355.7969 C2848,1355.7969 2866,1355.7969 2866,1345.7969 " fill="none" style="stroke:#181818;stroke-width:1.5;"/><rect fill="#E2E2F0" height="49.2188" rx="2.5" ry="2.5" style="stroke:#181818;stroke-width:0.5;" width="109" x="2912" y="36"/><text fill="#000000" font-family="sans-serif" font-size="14" font-style="italic" lengthAdjust="spacing" textLength="59" x="2937" y="57.5332">«factory»</text><text fill="#000000" font-family="sans-serif" font-size="14" lengthAdjust="spacing" textLength="95" x="2919" y="75.1426">SectionFactory</text><rect fill="#E2E2F0" height="49.2188" rx="2.5" ry="2.5" style="stroke:#181818;stroke-width:0.5;" width="109" x="2912" y="1300.5781"/><text fill="#000000" font-family="sans-serif" font-size="14" font-style="italic" lengthAdjust="spacing" textLength="59" x="2937" y="1322.1113">«factory»</text><text fill="#000000" font-family="sans-serif" font-size="14" lengthAdjust="spacing" textLength="95" x="2919" y="1339.7207">SectionFactory</text><rect fill="#E2E2F0" height="49.2188" rx="2.5" ry="2.5" style="stroke:#181818;stroke-width:0.5;" width="95" x="3152" y="36"/><text fill="#000000" font-family="sans-serif" font-size="14" font-style="italic" lengthAdjust="spacing" textLength="62" x="3168.5" y="57.5332">«domain»</text><text fill="#000000" font-family="sans-serif" font-size="14" lengthAdjust="spacing" textLength="81" x="3159" y="75.1426">ExamSection</text><rect fill="#E2E2F0" height="49.2188" rx="2.5" ry="2.5" style="stroke:#181818;stroke-width:0.5;" width="95" x="3152" y="1300.5781"/><text fill="#000000" font-family="sans-serif" font-size="14" font-style="italic" lengthAdjust="spacing" textLength="62" x="3168.5" y="1322.1113">«domain»</text><text fill="#000000" font-family="sans-serif" font-size="14" lengthAdjust="spacing" textLength="81" x="3159" y="1339.7207">ExamSection</text><rect fill="#E2E2F0" height="49.2188" rx="2.5" ry="2.5" style="stroke:#181818;stroke-width:0.5;" width="96" x="3257" y="36"/><text fill="#000000" font-family="sans-serif" font-size="14" font-style="italic" lengthAdjust="spacing" textLength="59" x="3275.5" y="57.5332">«factory»</text><text fill="#000000" font-family="sans-serif" font-size="14" lengthAdjust="spacing" textLength="82" x="3264" y="75.1426">ExamFactory</text><rect fill="#E2E2F0" height="49.2188" rx="2.5" ry="2.5" style="stroke:#181818;stroke-width:0.5;" width="96" x="3257" y="1300.5781"/><text fill="#000000" font-family="sans-serif" font-size="14" font-style="italic" lengthAdjust="spacing" textLength="59" x="3275.5" y="1322.1113">«factory»</text><text fill="#000000" font-family="sans-serif" font-size="14" lengthAdjust="spacing" textLength="82" x="3264" y="1339.7207">ExamFactory</text><rect fill="#E2E2F0" height="49.2188" rx="2.5" ry="2.5" style="stroke:#181818;stroke-width:0.5;" width="76" x="3528" y="36"/><text fill="#000000" font-family="sans-serif" font-size="14" font-style="italic" lengthAdjust="spacing" textLength="62" x="3535" y="57.5332">«domain»</text><text fill="#000000" font-family="sans-serif" font-size="14" lengthAdjust="spacing" textLength="34" x="3549" y="75.1426">Exam</text><rect fill="#E2E2F0" height="49.2188" rx="2.5" ry="2.5" style="stroke:#181818;stroke-width:0.5;" width="76" x="3528" y="1300.5781"/><text fill="#000000" font-family="sans-serif" font-size="14" font-style="italic" lengthAdjust="spacing" textLength="62" x="3535" y="1322.1113">«domain»</text><text fill="#000000" font-family="sans-serif" font-size="14" lengthAdjust="spacing" textLength="34" x="3549" y="1339.7207">Exam</text><text fill="#000000" font-family="sans-serif" font-size="14" font-style="italic" lengthAdjust="spacing" textLength="89" x="3627" y="65.5332">«persistence»</text><text fill="#000000" font-family="sans-serif" font-size="14" lengthAdjust="spacing" textLength="115" x="3614" y="83.1426">SectionRepository</text><path d="M3656.5,15 C3656.5,5 3674.5,5 3674.5,5 C3674.5,5 3692.5,5 3692.5,15 L3692.5,41 C3692.5,51 3674.5,51 3674.5,51 C3674.5,51 3656.5,51 3656.5,41 L3656.5,15 " fill="#E2E2F0" style="stroke:#181818;stroke-width:1.5;"/><path d="M3656.5,15 C3656.5,25 3674.5,25 3674.5,25 C3674.5,25 3692.5,25 3692.5,15 " fill="none" style="stroke:#181818;stroke-width:1.5;"/><text fill="#000000" font-family="sans-serif" font-size="14" font-style="italic" lengthAdjust="spacing" textLength="89" x="3627" y="1315.1113">«persistence»</text><text fill="#000000" font-family="sans-serif" font-size="14" lengthAdjust="spacing" textLength="115" x="3614" y="1332.7207">SectionRepository</text><path d="M3656.5,1345.7969 C3656.5,1335.7969 3674.5,1335.7969 3674.5,1335.7969 C3674.5,1335.7969 3692.5,1335.7969 3692.5,1345.7969 L3692.5,1371.7969 C3692.5,1381.7969 3674.5,1381.7969 3674.5,1381.7969 C3674.5,1381.7969 3656.5,1381.7969 3656.5,1371.7969 L3656.5,1345.7969 " fill="#E2E2F0" style="stroke:#181818;stroke-width:1.5;"/><path d="M3656.5,1345.7969 C3656.5,1355.7969 3674.5,1355.7969 3674.5,1355.7969 C3674.5,1355.7969 3692.5,1355.7969 3692.5,1345.7969 " fill="none" style="stroke:#181818;stroke-width:1.5;"/><text fill="#000000" font-family="sans-serif" font-size="14" font-style="italic" lengthAdjust="spacing" textLength="89" x="3745" y="65.5332">«persistence»</text><text fill="#000000" font-family="sans-serif" font-size="14" lengthAdjust="spacing" textLength="87" x="3746" y="83.1426">TeamElement</text><path d="M3774.5,15 C3774.5,5 3792.5,5 3792.5,5 C3792.5,5 3810.5,5 3810.5,15 L3810.5,41 C3810.5,51 3792.5,51 3792.5,51 C3792.5,51 3774.5,51 3774.5,41 L3774.5,15 " fill="#E2E2F0" style="stroke:#181818;stroke-width:1.5;"/><path d="M3774.5,15 C3774.5,25 3792.5,25 3792.5,25 C3792.5,25 3810.5,25 3810.5,15 " fill="none" style="stroke:#181818;stroke-width:1.5;"/><text fill="#000000" font-family="sans-serif" font-size="14" font-style="italic" lengthAdjust="spacing" textLength="89" x="3745" y="1315.1113">«persistence»</text><text fill="#000000" font-family="sans-serif" font-size="14" lengthAdjust="spacing" textLength="87" x="3746" y="1332.7207">TeamElement</text><path d="M3774.5,1345.7969 C3774.5,1335.7969 3792.5,1335.7969 3792.5,1335.7969 C3792.5,1335.7969 3810.5,1335.7969 3810.5,1345.7969 L3810.5,1371.7969 C3810.5,1381.7969 3792.5,1381.7969 3792.5,1381.7969 C3792.5,1381.7969 3774.5,1381.7969 3774.5,1371.7969 L3774.5,1345.7969 " fill="#E2E2F0" style="stroke:#181818;stroke-width:1.5;"/><path d="M3774.5,1345.7969 C3774.5,1355.7969 3792.5,1355.7969 3792.5,1355.7969 C3792.5,1355.7969 3810.5,1355.7969 3810.5,1345.7969 " fill="none" style="stroke:#181818;stroke-width:1.5;"/><rect fill="#FFFFFF" height="1187.3594" style="stroke:#181818;stroke-width:1.0;" width="10" x="48.5" y="96.2188"/><rect fill="#FFFFFF" height="218.4609" style="stroke:#181818;stroke-width:1.0;" width="10" x="664.5" y="143.9219"/><rect fill="#FFFFFF" height="37.3516" style="stroke:#181818;stroke-width:1.0;" width="10" x="664.5" y="392.7344"/><rect fill="#FFFFFF" height="823.1406" style="stroke:#181818;stroke-width:1.0;" width="10" x="664.5" y="460.4375"/><rect fill="#FFFFFF" height="154.7578" style="stroke:#181818;stroke-width:1.0;" width="10" x="1029.5" y="177.2734"/><rect fill="#FFFFFF" height="762.4375" style="stroke:#181818;stroke-width:1.0;" width="10" x="1029.5" y="490.7891"/><rect fill="#FFFFFF" height="91.0547" style="stroke:#181818;stroke-width:1.0;" width="10" x="1295.5" y="210.625"/><rect fill="#FFFFFF" height="30.3516" style="stroke:#181818;stroke-width:1.0;" width="10" x="1787.5" y="521.1406"/><rect fill="#FFFFFF" height="641.0313" style="stroke:#181818;stroke-width:1.0;" width="10" x="2029" y="581.8438"/><rect fill="#FFFFFF" height="30.3516" style="stroke:#181818;stroke-width:1.0;" width="10" x="2843" y="612.1953"/><rect fill="#FFFFFF" height="30.3516" style="stroke:#181818;stroke-width:1.0;" width="10" x="2843" y="1162.1719"/><rect fill="#FFFFFF" height="91.0547" style="stroke:#181818;stroke-width:1.0;" width="10" x="2961.5" y="849.6563"/><rect fill="#FFFFFF" height="30.3516" style="stroke:#181818;stroke-width:1.0;" width="10" x="3194.5" y="880.0078"/><rect fill="#FFFFFF" height="91.0547" style="stroke:#181818;stroke-width:1.0;" width="10" x="3300" y="1040.7656"/><rect fill="#FFFFFF" height="30.3516" style="stroke:#181818;stroke-width:1.0;" width="10" x="3561" y="1071.1172"/><rect fill="#FFFFFF" height="30.3516" style="stroke:#181818;stroke-width:1.0;" width="10" x="3787.5" y="240.9766"/><path d="M10,103.2188 L71,103.2188 L71,111.5703 L61,121.5703 L10,121.5703 L10,103.2188 " fill="#EEEEEE" style="stroke:#000000;stroke-width:1.5;"/><rect fill="none" height="297.5156" style="stroke:#000000;stroke-width:1.5;" width="3840" x="10" y="103.2188"/><text fill="#000000" font-family="sans-serif" font-size="13" font-weight="bold" lengthAdjust="spacing" textLength="16" x="25" y="117.7139">alt</text><text fill="#000000" font-family="sans-serif" font-size="11" font-weight="bold" lengthAdjust="spacing" textLength="243" x="86" y="116.6377">[user decides to create the formative exam]</text><polygon fill="#181818" points="652.5,139.9219,662.5,143.9219,652.5,147.9219,656.5,143.9219" style="stroke:#181818;stroke-width:1.0;"/><line style="stroke:#181818;stroke-width:1.0;" x1="58.5" x2="658.5" y1="143.9219" y2="143.9219"/><text fill="#000000" font-family="sans-serif" font-size="13" font-weight="bold" lengthAdjust="spacing" textLength="7" x="65.5" y="139.0654">1</text><text fill="#000000" font-family="sans-serif" font-size="13" lengthAdjust="spacing" textLength="185" x="76.5" y="139.0654">asks to create a formative exam</text><polygon fill="#181818" points="1017.5,173.2734,1027.5,177.2734,1017.5,181.2734,1021.5,177.2734" style="stroke:#181818;stroke-width:1.0;"/><line style="stroke:#181818;stroke-width:1.0;" x1="674.5" x2="1023.5" y1="177.2734" y2="177.2734"/><text fill="#000000" font-family="sans-serif" font-size="13" font-weight="bold" lengthAdjust="spacing" textLength="7" x="681.5" y="172.417">2</text><text fill="#000000" font-family="sans-serif" font-size="13" lengthAdjust="spacing" textLength="119" x="692.5" y="172.417">listTeacherCourses()</text><path d="M1044,156.9219 L1044,182.9219 L1282,182.9219 L1282,166.9219 L1272,156.9219 L1044,156.9219 " fill="#FEFFDD" style="stroke:#181818;stroke-width:0.5;"/><path d="M1272,156.9219 L1272,166.9219 L1282,166.9219 L1272,156.9219 " fill="#FEFFDD" style="stroke:#181818;stroke-width:0.5;"/><text fill="#000000" font-family="sans-serif" font-size="13" lengthAdjust="spacing" textLength="217" x="1050" y="175.417">The user is obtained through session.</text><polygon fill="#181818" points="1283.5,206.625,1293.5,210.625,1283.5,214.625,1287.5,210.625" style="stroke:#181818;stroke-width:1.0;"/><line style="stroke:#181818;stroke-width:1.0;" x1="1039.5" x2="1289.5" y1="210.625" y2="210.625"/><text fill="#000000" font-family="sans-serif" font-size="13" font-weight="bold" lengthAdjust="spacing" textLength="7" x="1046.5" y="205.7686">3</text><text fill="#000000" font-family="sans-serif" font-size="13" lengthAdjust="spacing" textLength="144" x="1057.5" y="205.7686">listTeacherCourses(user)</text><polygon fill="#181818" points="3775.5,236.9766,3785.5,240.9766,3775.5,244.9766,3779.5,240.9766" style="stroke:#181818;stroke-width:1.0;"/><line style="stroke:#181818;stroke-width:1.0;" x1="1305.5" x2="3781.5" y1="240.9766" y2="240.9766"/><text fill="#000000" font-family="sans-serif" font-size="13" font-weight="bold" lengthAdjust="spacing" textLength="7" x="1312.5" y="236.1201">4</text><text fill="#000000" font-family="sans-serif" font-size="13" lengthAdjust="spacing" textLength="144" x="1323.5" y="236.1201">listTeacherCourses(user)</text><polygon fill="#181818" points="1316.5,267.3281,1306.5,271.3281,1316.5,275.3281,1312.5,271.3281" style="stroke:#181818;stroke-width:1.0;"/><line style="stroke:#181818;stroke-width:1.0;stroke-dasharray:2.0,2.0;" x1="1310.5" x2="3791.5" y1="271.3281" y2="271.3281"/><text fill="#000000" font-family="sans-serif" font-size="13" font-weight="bold" lengthAdjust="spacing" textLength="7" x="1322.5" y="266.4717">5</text><text fill="#000000" font-family="sans-serif" font-size="13" lengthAdjust="spacing" textLength="4" x="1333.5" y="266.4717"> </text><polygon fill="#181818" points="1050.5,297.6797,1040.5,301.6797,1050.5,305.6797,1046.5,301.6797" style="stroke:#181818;stroke-width:1.0;"/><line style="stroke:#181818;stroke-width:1.0;stroke-dasharray:2.0,2.0;" x1="1044.5" x2="1299.5" y1="301.6797" y2="301.6797"/><text fill="#000000" font-family="sans-serif" font-size="13" font-weight="bold" lengthAdjust="spacing" textLength="7" x="1056.5" y="296.8232">6</text><text fill="#000000" font-family="sans-serif" font-size="13" lengthAdjust="spacing" textLength="4" x="1067.5" y="296.8232"> </text><polygon fill="#181818" points="685.5,328.0313,675.5,332.0313,685.5,336.0313,681.5,332.0313" style="stroke:#181818;stroke-width:1.0;"/><line style="stroke:#181818;stroke-width:1.0;stroke-dasharray:2.0,2.0;" x1="679.5" x2="1033.5" y1="332.0313" y2="332.0313"/><text fill="#000000" font-family="sans-serif" font-size="13" font-weight="bold" lengthAdjust="spacing" textLength="7" x="691.5" y="327.1748">7</text><text fill="#000000" font-family="sans-serif" font-size="13" lengthAdjust="spacing" textLength="4" x="702.5" y="327.1748"> </text><polygon fill="#181818" points="69.5,358.3828,59.5,362.3828,69.5,366.3828,65.5,362.3828" style="stroke:#181818;stroke-width:1.0;"/><line style="stroke:#181818;stroke-width:1.0;stroke-dasharray:2.0,2.0;" x1="63.5" x2="668.5" y1="362.3828" y2="362.3828"/><text fill="#000000" font-family="sans-serif" font-size="13" font-weight="bold" lengthAdjust="spacing" textLength="7" x="75.5" y="357.5264">8</text><text fill="#000000" font-family="sans-serif" font-size="13" lengthAdjust="spacing" textLength="136" x="86.5" y="357.5264">asks to select a course</text><polygon fill="#181818" points="652.5,388.7344,662.5,392.7344,652.5,396.7344,656.5,392.7344" style="stroke:#181818;stroke-width:1.0;"/><line style="stroke:#181818;stroke-width:1.0;" x1="58.5" x2="658.5" y1="392.7344" y2="392.7344"/><text fill="#000000" font-family="sans-serif" font-size="13" font-weight="bold" lengthAdjust="spacing" textLength="7" x="65.5" y="387.8779">9</text><text fill="#000000" font-family="sans-serif" font-size="13" lengthAdjust="spacing" textLength="96" x="76.5" y="387.8779">selects a course</text><polygon fill="#181818" points="69.5,426.0859,59.5,430.0859,69.5,434.0859,65.5,430.0859" style="stroke:#181818;stroke-width:1.0;"/><line style="stroke:#181818;stroke-width:1.0;stroke-dasharray:2.0,2.0;" x1="63.5" x2="668.5" y1="430.0859" y2="430.0859"/><text fill="#000000" font-family="sans-serif" font-size="13" font-weight="bold" lengthAdjust="spacing" textLength="14" x="75.5" y="425.2295">10</text><text fill="#000000" font-family="sans-serif" font-size="13" lengthAdjust="spacing" textLength="132" x="93.5" y="425.2295">asks for path to the file</text><polygon fill="#181818" points="652.5,456.4375,662.5,460.4375,652.5,464.4375,656.5,460.4375" style="stroke:#181818;stroke-width:1.0;"/><line style="stroke:#181818;stroke-width:1.0;" x1="58.5" x2="658.5" y1="460.4375" y2="460.4375"/><text fill="#000000" font-family="sans-serif" font-size="13" font-weight="bold" lengthAdjust="spacing" textLength="14" x="65.5" y="455.5811">11</text><text fill="#000000" font-family="sans-serif" font-size="13" lengthAdjust="spacing" textLength="141" x="83.5" y="455.5811">inserts path to the exam</text><polygon fill="#181818" points="1017.5,486.7891,1027.5,490.7891,1017.5,494.7891,1021.5,490.7891" style="stroke:#181818;stroke-width:1.0;"/><line style="stroke:#181818;stroke-width:1.0;" x1="674.5" x2="1023.5" y1="490.7891" y2="490.7891"/><text fill="#000000" font-family="sans-serif" font-size="13" font-weight="bold" lengthAdjust="spacing" textLength="14" x="681.5" y="485.9326">12</text><text fill="#000000" font-family="sans-serif" font-size="13" lengthAdjust="spacing" textLength="318" x="699.5" y="485.9326">ExamDTO exam = createFormativeExam(path, course)</text><polygon fill="#181818" points="1775.5,517.1406,1785.5,521.1406,1775.5,525.1406,1779.5,521.1406" style="stroke:#181818;stroke-width:1.0;"/><line style="stroke:#181818;stroke-width:1.0;" x1="1039.5" x2="1781.5" y1="521.1406" y2="521.1406"/><text fill="#000000" font-family="sans-serif" font-size="13" font-weight="bold" lengthAdjust="spacing" textLength="14" x="1046.5" y="516.2842">13</text><text fill="#000000" font-family="sans-serif" font-size="13" lengthAdjust="spacing" textLength="711" x="1064.5" y="516.2842">acceeds to an external module (ANTLR) to evaluate the exam structure and retrieve the relevant information about the exam</text><polygon fill="#181818" points="1050.5,547.4922,1040.5,551.4922,1050.5,555.4922,1046.5,551.4922" style="stroke:#181818;stroke-width:1.0;"/><line style="stroke:#181818;stroke-width:1.0;stroke-dasharray:2.0,2.0;" x1="1044.5" x2="1791.5" y1="551.4922" y2="551.4922"/><text fill="#000000" font-family="sans-serif" font-size="13" font-weight="bold" lengthAdjust="spacing" textLength="14" x="1056.5" y="546.6357">14</text><text fill="#000000" font-family="sans-serif" font-size="13" lengthAdjust="spacing" textLength="302" x="1074.5" y="546.6357">shows the success of the analysis and return values</text><polygon fill="#181818" points="2017,577.8438,2027,581.8438,2017,585.8438,2021,581.8438" style="stroke:#181818;stroke-width:1.0;"/><line style="stroke:#181818;stroke-width:1.0;" x1="1039.5" x2="2023" y1="581.8438" y2="581.8438"/><text fill="#000000" font-family="sans-serif" font-size="13" font-weight="bold" lengthAdjust="spacing" textLength="14" x="1046.5" y="576.9873">15</text><text fill="#000000" font-family="sans-serif" font-size="13" lengthAdjust="spacing" textLength="371" x="1064.5" y="576.9873">Exam theExam = createAutomaticFormativeExam(path, course)</text><polygon fill="#181818" points="2831,608.1953,2841,612.1953,2831,616.1953,2835,612.1953" style="stroke:#181818;stroke-width:1.0;"/><line style="stroke:#181818;stroke-width:1.0;" x1="2039" x2="2837" y1="612.1953" y2="612.1953"/><text fill="#000000" font-family="sans-serif" font-size="13" font-weight="bold" lengthAdjust="spacing" textLength="14" x="2046" y="607.3389">16</text><text fill="#000000" font-family="sans-serif" font-size="13" lengthAdjust="spacing" textLength="767" x="2064" y="607.3389">List&lt;ExamQuestion&gt; questions = listQuestionsByTypeAndCourse(String courseCode, HashSet&lt;ExamQuestionType&gt; questionType)</text><polygon fill="#181818" points="2050,638.5469,2040,642.5469,2050,646.5469,2046,642.5469" style="stroke:#181818;stroke-width:1.0;"/><line style="stroke:#181818;stroke-width:1.0;stroke-dasharray:2.0,2.0;" x1="2044" x2="2847" y1="642.5469" y2="642.5469"/><text fill="#000000" font-family="sans-serif" font-size="13" font-weight="bold" lengthAdjust="spacing" textLength="14" x="2056" y="637.6904">17</text><text fill="#000000" font-family="sans-serif" font-size="13" lengthAdjust="spacing" textLength="183" x="2074" y="637.6904">List&lt;ExamQuestion&gt; questions</text><path d="M1872.5,657.5469 L1945.5,657.5469 L1945.5,665.8984 L1935.5,675.8984 L1872.5,675.8984 L1872.5,657.5469 " fill="#EEEEEE" style="stroke:#000000;stroke-width:1.5;"/><rect fill="none" height="291.1641" style="stroke:#000000;stroke-width:1.5;" width="1384.5" x="1872.5" y="657.5469"/><text fill="#000000" font-family="sans-serif" font-size="13" font-weight="bold" lengthAdjust="spacing" textLength="28" x="1887.5" y="672.042">loop</text><text fill="#000000" font-family="sans-serif" font-size="11" font-weight="bold" lengthAdjust="spacing" textLength="211" x="1960.5" y="670.9658">[each item of sectionNQuestionTypes]</text><path d="M1882.5,682.8984 L1955.5,682.8984 L1955.5,691.25 L1945.5,701.25 L1882.5,701.25 L1882.5,682.8984 " fill="#EEEEEE" style="stroke:#000000;stroke-width:1.5;"/><rect fill="none" height="137.4063" style="stroke:#000000;stroke-width:1.5;" width="686.5" x="1882.5" y="682.8984"/><text fill="#000000" font-family="sans-serif" font-size="13" font-weight="bold" lengthAdjust="spacing" textLength="28" x="1897.5" y="697.3936">loop</text><text fill="#000000" font-family="sans-serif" font-size="11" font-weight="bold" lengthAdjust="spacing" textLength="257" x="1970.5" y="696.3174">[each item of sectionNquestionTypes.values()]</text><line style="stroke:#181818;stroke-width:1.0;" x1="2039" x2="2081" y1="723.6016" y2="723.6016"/><line style="stroke:#181818;stroke-width:1.0;" x1="2081" x2="2081" y1="723.6016" y2="736.6016"/><line style="stroke:#181818;stroke-width:1.0;" x1="2040" x2="2081" y1="736.6016" y2="736.6016"/><polygon fill="#181818" points="2050,732.6016,2040,736.6016,2050,740.6016,2046,736.6016" style="stroke:#181818;stroke-width:1.0;"/><text fill="#000000" font-family="sans-serif" font-size="13" font-weight="bold" lengthAdjust="spacing" textLength="14" x="2046" y="718.7451">18</text><text fill="#000000" font-family="sans-serif" font-size="13" lengthAdjust="spacing" textLength="493" x="2064" y="718.7451">question = questions.findAny().filter(e -&gt; e.questionType() == iterationQuestionType())</text><path d="M1892.5,751.6016 L1953.5,751.6016 L1953.5,759.9531 L1943.5,769.9531 L1892.5,769.9531 L1892.5,751.6016 " fill="#EEEEEE" style="stroke:#000000;stroke-width:1.5;"/><rect fill="none" height="61.7031" style="stroke:#000000;stroke-width:1.5;" width="412" x="1892.5" y="751.6016"/><text fill="#000000" font-family="sans-serif" font-size="13" font-weight="bold" lengthAdjust="spacing" textLength="16" x="1907.5" y="766.0967">alt</text><text fill="#000000" font-family="sans-serif" font-size="11" font-weight="bold" lengthAdjust="spacing" textLength="331" x="1968.5" y="765.0205">[there isn't any question with the required type of question]</text><line style="stroke:#181818;stroke-width:1.0;stroke-dasharray:2.0,2.0;" x1="2039" x2="2081" y1="792.3047" y2="792.3047"/><line style="stroke:#181818;stroke-width:1.0;stroke-dasharray:2.0,2.0;" x1="2081" x2="2081" y1="792.3047" y2="805.3047"/><line style="stroke:#181818;stroke-width:1.0;stroke-dasharray:2.0,2.0;" x1="2040" x2="2081" y1="805.3047" y2="805.3047"/><polygon fill="#181818" points="2050,801.3047,2040,805.3047,2050,809.3047,2046,805.3047" style="stroke:#181818;stroke-width:1.0;"/><text fill="#000000" font-family="sans-serif" font-size="13" font-weight="bold" lengthAdjust="spacing" textLength="14" x="2046" y="787.4482">19</text><text fill="#000000" font-family="sans-serif" font-size="13" lengthAdjust="spacing" textLength="189" x="2064" y="787.4482">throws IllegalArgumentException</text><polygon fill="#181818" points="2949.5,845.6563,2959.5,849.6563,2949.5,853.6563,2953.5,849.6563" style="stroke:#181818;stroke-width:1.0;"/><line style="stroke:#181818;stroke-width:1.0;" x1="2039" x2="2955.5" y1="849.6563" y2="849.6563"/><text fill="#000000" font-family="sans-serif" font-size="13" font-weight="bold" lengthAdjust="spacing" textLength="14" x="2046" y="844.7998">20</text><text fill="#000000" font-family="sans-serif" font-size="13" lengthAdjust="spacing" textLength="618" x="2064" y="844.7998">ExamSection section = SectionFactory.createSection(String section, Set&lt;ExamQuestion&gt; questionTypes)</text><polygon fill="#181818" points="3182.5,876.0078,3192.5,880.0078,3182.5,884.0078,3186.5,880.0078" style="stroke:#181818;stroke-width:1.0;"/><line style="stroke:#181818;stroke-width:1.0;" x1="2971.5" x2="3188.5" y1="880.0078" y2="880.0078"/><text fill="#000000" font-family="sans-serif" font-size="13" font-weight="bold" lengthAdjust="spacing" textLength="14" x="2978.5" y="875.1514">21</text><text fill="#000000" font-family="sans-serif" font-size="13" lengthAdjust="spacing" textLength="186" x="2996.5" y="875.1514">Section(section, questionTypes)</text><polygon fill="#181818" points="2982.5,906.3594,2972.5,910.3594,2982.5,914.3594,2978.5,910.3594" style="stroke:#181818;stroke-width:1.0;"/><line style="stroke:#181818;stroke-width:1.0;stroke-dasharray:2.0,2.0;" x1="2976.5" x2="3198.5" y1="910.3594" y2="910.3594"/><text fill="#000000" font-family="sans-serif" font-size="13" font-weight="bold" lengthAdjust="spacing" textLength="14" x="2988.5" y="905.5029">22</text><text fill="#000000" font-family="sans-serif" font-size="13" lengthAdjust="spacing" textLength="124" x="3006.5" y="905.5029">ExamSection section</text><polygon fill="#181818" points="2050,936.7109,2040,940.7109,2050,944.7109,2046,940.7109" style="stroke:#181818;stroke-width:1.0;"/><line style="stroke:#181818;stroke-width:1.0;stroke-dasharray:2.0,2.0;" x1="2044" x2="2965.5" y1="940.7109" y2="940.7109"/><text fill="#000000" font-family="sans-serif" font-size="13" font-weight="bold" lengthAdjust="spacing" textLength="14" x="2056" y="935.8545">23</text><text fill="#000000" font-family="sans-serif" font-size="13" lengthAdjust="spacing" textLength="124" x="2074" y="935.8545">ExamSection section</text><path d="M1892.5,962.7109 L1965.5,962.7109 L1965.5,971.0625 L1955.5,981.0625 L1892.5,981.0625 L1892.5,962.7109 " fill="#EEEEEE" style="stroke:#000000;stroke-width:1.5;"/><rect fill="none" height="48.7031" style="stroke:#000000;stroke-width:1.5;" width="1852.5" x="1892.5" y="962.7109"/><text fill="#000000" font-family="sans-serif" font-size="13" font-weight="bold" lengthAdjust="spacing" textLength="28" x="1907.5" y="977.2061">loop</text><text fill="#000000" font-family="sans-serif" font-size="11" font-weight="bold" lengthAdjust="spacing" textLength="97" x="1980.5" y="976.1299">[for each section]</text><polygon fill="#181818" points="3662.5,999.4141,3672.5,1003.4141,3662.5,1007.4141,3666.5,1003.4141" style="stroke:#181818;stroke-width:1.0;"/><line style="stroke:#181818;stroke-width:1.0;" x1="2039" x2="3668.5" y1="1003.4141" y2="1003.4141"/><text fill="#000000" font-family="sans-serif" font-size="13" font-weight="bold" lengthAdjust="spacing" textLength="14" x="2046" y="998.5576">24</text><text fill="#000000" font-family="sans-serif" font-size="13" lengthAdjust="spacing" textLength="76" x="2064" y="998.5576">save(section)</text><polygon fill="#181818" points="3288,1036.7656,3298,1040.7656,3288,1044.7656,3292,1040.7656" style="stroke:#181818;stroke-width:1.0;"/><line style="stroke:#181818;stroke-width:1.0;" x1="2039" x2="3294" y1="1040.7656" y2="1040.7656"/><text fill="#000000" font-family="sans-serif" font-size="13" font-weight="bold" lengthAdjust="spacing" textLength="14" x="2046" y="1035.9092">25</text><text fill="#000000" font-family="sans-serif" font-size="13" lengthAdjust="spacing" textLength="250" x="2064" y="1035.9092">createExam(title, header, sections, course)</text><polygon fill="#181818" points="3549,1067.1172,3559,1071.1172,3549,1075.1172,3553,1071.1172" style="stroke:#181818;stroke-width:1.0;"/><line style="stroke:#181818;stroke-width:1.0;" x1="3310" x2="3555" y1="1071.1172" y2="1071.1172"/><text fill="#000000" font-family="sans-serif" font-size="13" font-weight="bold" lengthAdjust="spacing" textLength="14" x="3317" y="1066.2607">26</text><text fill="#000000" font-family="sans-serif" font-size="13" lengthAdjust="spacing" textLength="214" x="3335" y="1066.2607">Exam(title, header, sections, course)</text><polygon fill="#181818" points="3321,1097.4688,3311,1101.4688,3321,1105.4688,3317,1101.4688" style="stroke:#181818;stroke-width:1.0;"/><line style="stroke:#181818;stroke-width:1.0;stroke-dasharray:2.0,2.0;" x1="3315" x2="3565" y1="1101.4688" y2="1101.4688"/><text fill="#000000" font-family="sans-serif" font-size="13" font-weight="bold" lengthAdjust="spacing" textLength="14" x="3327" y="1096.6123">27</text><text fill="#000000" font-family="sans-serif" font-size="13" lengthAdjust="spacing" textLength="70" x="3345" y="1096.6123">Exam exam</text><polygon fill="#181818" points="2050,1127.8203,2040,1131.8203,2050,1135.8203,2046,1131.8203" style="stroke:#181818;stroke-width:1.0;"/><line style="stroke:#181818;stroke-width:1.0;stroke-dasharray:2.0,2.0;" x1="2044" x2="3304" y1="1131.8203" y2="1131.8203"/><text fill="#000000" font-family="sans-serif" font-size="13" font-weight="bold" lengthAdjust="spacing" textLength="14" x="2056" y="1126.9639">28</text><text fill="#000000" font-family="sans-serif" font-size="13" lengthAdjust="spacing" textLength="70" x="2074" y="1126.9639">Exam exam</text><polygon fill="#181818" points="2831,1158.1719,2841,1162.1719,2831,1166.1719,2835,1162.1719" style="stroke:#181818;stroke-width:1.0;"/><line style="stroke:#181818;stroke-width:1.0;" x1="2039" x2="2837" y1="1162.1719" y2="1162.1719"/><text fill="#000000" font-family="sans-serif" font-size="13" font-weight="bold" lengthAdjust="spacing" textLength="14" x="2046" y="1157.3154">29</text><text fill="#000000" font-family="sans-serif" font-size="13" lengthAdjust="spacing" textLength="66" x="2064" y="1157.3154">save(exam)</text><polygon fill="#181818" points="2050,1188.5234,2040,1192.5234,2050,1196.5234,2046,1192.5234" style="stroke:#181818;stroke-width:1.0;"/><line style="stroke:#181818;stroke-width:1.0;stroke-dasharray:2.0,2.0;" x1="2044" x2="2847" y1="1192.5234" y2="1192.5234"/><text fill="#000000" font-family="sans-serif" font-size="13" font-weight="bold" lengthAdjust="spacing" textLength="14" x="2056" y="1187.667">30</text><text fill="#000000" font-family="sans-serif" font-size="13" lengthAdjust="spacing" textLength="70" x="2074" y="1187.667">Exam exam</text><polygon fill="#181818" points="1050.5,1218.875,1040.5,1222.875,1050.5,1226.875,1046.5,1222.875" style="stroke:#181818;stroke-width:1.0;"/><line style="stroke:#181818;stroke-width:1.0;stroke-dasharray:2.0,2.0;" x1="1044.5" x2="2033" y1="1222.875" y2="1222.875"/><text fill="#000000" font-family="sans-serif" font-size="13" font-weight="bold" lengthAdjust="spacing" textLength="14" x="1056.5" y="1218.0186">31</text><text fill="#000000" font-family="sans-serif" font-size="13" lengthAdjust="spacing" textLength="70" x="1074.5" y="1218.0186">Exam exam</text><polygon fill="#181818" points="685.5,1249.2266,675.5,1253.2266,685.5,1257.2266,681.5,1253.2266" style="stroke:#181818;stroke-width:1.0;"/><line style="stroke:#181818;stroke-width:1.0;stroke-dasharray:2.0,2.0;" x1="679.5" x2="1033.5" y1="1253.2266" y2="1253.2266"/><text fill="#000000" font-family="sans-serif" font-size="13" font-weight="bold" lengthAdjust="spacing" textLength="14" x="691.5" y="1248.3701">32</text><text fill="#000000" font-family="sans-serif" font-size="13" lengthAdjust="spacing" textLength="96" x="709.5" y="1248.3701">ExamDTO exam</text><polygon fill="#181818" points="64.5,1279.5781,54.5,1283.5781,64.5,1287.5781,60.5,1283.5781" style="stroke:#181818;stroke-width:1.0;"/><line style="stroke:#181818;stroke-width:1.0;stroke-dasharray:2.0,2.0;" x1="58.5" x2="668.5" y1="1283.5781" y2="1283.5781"/><text fill="#000000" font-family="sans-serif" font-size="13" font-weight="bold" lengthAdjust="spacing" textLength="14" x="70.5" y="1278.7217">33</text><text fill="#000000" font-family="sans-serif" font-size="13" lengthAdjust="spacing" textLength="564" x="88.5" y="1278.7217">presents the success of the operation and shows the final aspect of the formative exam generated</text><!--MD5=[96327004363715527cd9b81a54fb2ca5]
@startuml
'https://plantuml.com/sequence-diagram

autonumber

participant Teacher as teacher
participant CreateUpdateAutomaticFormativeExamUI as ui <<presentation>>

participant CreateUpdateAutomaticFormativeExamController as ctrl <<application>>
participant ListTeacherCoursesService as listsvc <<application>>
participant FormativeExamParserService as antlr <<domain>>
participant CreateAutomaticFormativeExamService as svc <<service>>
database ExamRepository as repo <<persistence>>
participant SectionFactory as section_fac <<factory>>
participant ExamSection as section <<domain>>
participant ExamFactory as exam_fac <<factory>>
participant Exam as exam <<domain>>
database SectionRepository as sec_repo <<persistence>>
database TeamElement as ter_repo <<persistence>>
activate teacher
alt user decides to create the formative exam
    teacher -> ui : asks to create a formative exam
    activate ui
    ui -> ctrl : listTeacherCourses()
    activate ctrl
    note right
    The user is obtained through session.
    end note
    ctrl -> listsvc : listTeacherCourses(user)
    activate listsvc
    listsvc -> ter_repo : listTeacherCourses(user)
    activate ter_repo
    ter_repo - -> listsvc
    deactivate ter_repo
    listsvc - -> ctrl
    deactivate listsvc
    ctrl - -> ui
    
    deactivate ctrl
    ui - -> teacher : asks to select a course
    deactivate ui
    teacher -> ui : selects a course
    activate ui

end

ui - -> teacher : asks for path to the file
deactivate ui
teacher -> ui : inserts path to the exam
activate ui
ui -> ctrl : ExamDTO exam = createFormativeExam(path, course)
activate ctrl
ctrl -> antlr : acceeds to an external module (ANTLR) to evaluate the exam structure and retrieve the relevant information about the exam
activate antlr
antlr - -> ctrl : shows the success of the analysis and return values
deactivate antlr
ctrl -> svc : Exam theExam = createAutomaticFormativeExam(path, course)
activate svc
svc -> repo : List<ExamQuestion> questions = listQuestionsByTypeAndCourse(String courseCode, HashSet<ExamQuestionType> questionType)
activate repo
repo - -> svc : List<ExamQuestion> questions
deactivate repo
loop each item of sectionNQuestionTypes
loop each item of sectionNquestionTypes.values()
svc -> svc : question = questions.findAny().filter(e -> e.questionType() == iterationQuestionType())
alt there isn't any question with the required type of question
svc - -> svc : throws IllegalArgumentException
end
end loop
svc -> section_fac : ExamSection section = SectionFactory.createSection(String section, Set<ExamQuestion> questionTypes)
activate section_fac
section_fac -> section : Section(section, questionTypes)
activate section
section - -> section_fac : ExamSection section
deactivate section
section_fac - -> svc : ExamSection section
deactivate section_fac
end loop
loop for each section
svc -> sec_repo : save(section)
end loop
svc -> exam_fac : createExam(title, header, sections, course)
activate exam_fac
exam_fac -> exam : Exam(title, header, sections, course)
activate exam
exam - -> exam_fac : Exam exam
deactivate exam
exam_fac - -> svc : Exam exam
deactivate exam_fac
svc -> repo : save(exam)
activate repo
repo - -> svc : Exam exam
deactivate repo
svc - -> ctrl : Exam exam
deactivate svc
ctrl - -> ui : ExamDTO exam
deactivate ctrl
ui - -> teacher : presents the success of the operation and shows the final aspect of the formative exam generated
deactivate ui
deactivate teacher

@enduml

@startuml

autonumber

participant Teacher as teacher
participant CreateUpdateAutomaticFormativeExamUI as ui <<presentation>>

participant CreateUpdateAutomaticFormativeExamController as ctrl <<application>>
participant ListTeacherCoursesService as listsvc <<application>>
participant FormativeExamParserService as antlr <<domain>>
participant CreateAutomaticFormativeExamService as svc <<service>>
database ExamRepository as repo <<persistence>>
participant SectionFactory as section_fac <<factory>>
participant ExamSection as section <<domain>>
participant ExamFactory as exam_fac <<factory>>
participant Exam as exam <<domain>>
database SectionRepository as sec_repo <<persistence>>
database TeamElement as ter_repo <<persistence>>
activate teacher
alt user decides to create the formative exam
    teacher -> ui : asks to create a formative exam
    activate ui
    ui -> ctrl : listTeacherCourses()
    activate ctrl
    note right
    The user is obtained through session.
    end note
    ctrl -> listsvc : listTeacherCourses(user)
    activate listsvc
    listsvc -> ter_repo : listTeacherCourses(user)
    activate ter_repo
    ter_repo - -> listsvc
    deactivate ter_repo
    listsvc - -> ctrl
    deactivate listsvc
    ctrl - -> ui
    
    deactivate ctrl
    ui - -> teacher : asks to select a course
    deactivate ui
    teacher -> ui : selects a course
    activate ui

end

ui - -> teacher : asks for path to the file
deactivate ui
teacher -> ui : inserts path to the exam
activate ui
ui -> ctrl : ExamDTO exam = createFormativeExam(path, course)
activate ctrl
ctrl -> antlr : acceeds to an external module (ANTLR) to evaluate the exam structure and retrieve the relevant information about the exam
activate antlr
antlr - -> ctrl : shows the success of the analysis and return values
deactivate antlr
ctrl -> svc : Exam theExam = createAutomaticFormativeExam(path, course)
activate svc
svc -> repo : List<ExamQuestion> questions = listQuestionsByTypeAndCourse(String courseCode, HashSet<ExamQuestionType> questionType)
activate repo
repo - -> svc : List<ExamQuestion> questions
deactivate repo
loop each item of sectionNQuestionTypes
loop each item of sectionNquestionTypes.values()
svc -> svc : question = questions.findAny().filter(e -> e.questionType() == iterationQuestionType())
alt there isn't any question with the required type of question
svc - -> svc : throws IllegalArgumentException
end
end loop
svc -> section_fac : ExamSection section = SectionFactory.createSection(String section, Set<ExamQuestion> questionTypes)
activate section_fac
section_fac -> section : Section(section, questionTypes)
activate section
section - -> section_fac : ExamSection section
deactivate section
section_fac - -> svc : ExamSection section
deactivate section_fac
end loop
loop for each section
svc -> sec_repo : save(section)
end loop
svc -> exam_fac : createExam(title, header, sections, course)
activate exam_fac
exam_fac -> exam : Exam(title, header, sections, course)
activate exam
exam - -> exam_fac : Exam exam
deactivate exam
exam_fac - -> svc : Exam exam
deactivate exam_fac
svc -> repo : save(exam)
activate repo
repo - -> svc : Exam exam
deactivate repo
svc - -> ctrl : Exam exam
deactivate svc
ctrl - -> ui : ExamDTO exam
deactivate ctrl
ui - -> teacher : presents the success of the operation and shows the final aspect of the formative exam generated
deactivate ui
deactivate teacher

@enduml

PlantUML version 1.2022.12(Sun Oct 23 19:12:26 BST 2022)
(GPL source distribution)
Java Runtime: OpenJDK Runtime Environment
JVM: OpenJDK 64-Bit Server VM
Default Encoding: Cp1252
Language: en
Country: US
--></g></svg>