<?xml version="1.0" encoding="UTF-8" standalone="no"?><svg xmlns="http://www.w3.org/2000/svg" xmlns:xlink="http://www.w3.org/1999/xlink" contentStyleType="text/css" height="824px" preserveAspectRatio="none" style="width:1684px;height:824px;background:#FFFFFF;" version="1.1" viewBox="0 0 1684 824" width="1684px" zoomAndPan="magnify"><defs/><g><!--MD5=[bc064d979c32666ae52f3d7624591b7b]
class SystemUser--><g id="elem_SystemUser"><rect codeLine="2" fill="#F1F1F1" height="66.575" id="SystemUser" rx="2" ry="2" style="stroke:#181818;stroke-width:0.4000000000000001;" width="85.6" x="686" y="5.6"/><ellipse cx="698" cy="18.4" fill="#ADD1B2" rx="8.8" ry="8.8" style="stroke:#181818;stroke-width:0.8000000000000002;"/><path d="M699.6,15.6 Q699.7625,15.2 699.95,15 Q700.1375,14.8 700.35,14.8 Q700.725,14.8 700.9625,15.025 Q701.2,15.25 701.2,15.775 L701.2,17.025 Q701.2,17.55 700.975,17.775 Q700.75,18 700.4,18 Q700.0875,18 699.8875,17.8625 Q699.6875,17.725 699.6,17.3625 Q699.5625,17.1125 699.425,16.975 Q699.175,16.7125 698.725,16.5625 Q698.275,16.4 697.825,16.4 Q697.2625,16.4 696.7875,16.625 Q696.325,16.85 695.9625,17.35 Q695.6,17.85 695.6,18.5375 L695.6,19.275 Q695.6,20.1 696.275,20.65 Q696.95,21.2 698.15,21.2 Q698.8625,21.2 699.3625,21.0375 Q699.65,20.95 699.975,20.6625 Q700.1875,20.5 700.3,20.45 Q700.4125,20.4 700.55,20.4 Q700.8125,20.4 701,20.6125 Q701.2,20.8125 701.2,21.1 Q701.2,21.375 700.925,21.7 Q700.525,22.175 699.8875,22.4375 Q699.05,22.8 698.025,22.8 Q696.825,22.8 695.8625,22.325 Q695.0875,21.95 694.5375,21.1375 Q694,20.325 694,19.3625 L694,18.4875 Q694,17.4875 694.475,16.6125 Q694.9625,15.7375 695.8,15.275 Q696.65,14.8 697.6,14.8 Q698.175,14.8 698.675,15 Q699.175,15.2 699.6,15.6 Z " fill="#000000"/><text fill="#000000" font-family="sans-serif" font-size="11.2" lengthAdjust="spacing" textLength="60" x="709.2" y="22.9828">SystemUser</text><line style="stroke:#181818;stroke-width:0.4000000000000001;" x1="686.8" x2="770.8" y1="31.2" y2="31.2"/><rect fill="none" height="4.8" style="stroke:#C82930;stroke-width:0.8000000000000002;" width="4.8" x="692.4" y="40.2438"/><text fill="#000000" font-family="sans-serif" font-size="11.2" lengthAdjust="spacing" textLength="50.4" x="702" y="46.0266">username</text><rect fill="none" height="4.8" style="stroke:#C82930;stroke-width:0.8000000000000002;" width="4.8" x="692.4" y="54.3313"/><text fill="#000000" font-family="sans-serif" font-size="11.2" lengthAdjust="spacing" textLength="38.4" x="702" y="60.1141">session</text><line style="stroke:#181818;stroke-width:0.4000000000000001;" x1="686.8" x2="770.8" y1="65.775" y2="65.775"/></g><!--MD5=[29935f06ec74c96fce7b0d280aed6579]
class ShareSharedBoardUI--><g id="elem_ShareSharedBoardUI"><rect codeLine="7" fill="#F1F1F1" height="52.4875" id="ShareSharedBoardUI" rx="2" ry="2" style="stroke:#181818;stroke-width:0.4000000000000001;" width="328.8" x="564.4" y="134.4"/><ellipse cx="671.8" cy="147.2" fill="#ADD1B2" rx="8.8" ry="8.8" style="stroke:#181818;stroke-width:0.8000000000000002;"/><path d="M673.4,144.4 Q673.5625,144 673.75,143.8 Q673.9375,143.6 674.15,143.6 Q674.525,143.6 674.7625,143.825 Q675,144.05 675,144.575 L675,145.825 Q675,146.35 674.775,146.575 Q674.55,146.8 674.2,146.8 Q673.8875,146.8 673.6875,146.6625 Q673.4875,146.525 673.4,146.1625 Q673.3625,145.9125 673.225,145.775 Q672.975,145.5125 672.525,145.3625 Q672.075,145.2 671.625,145.2 Q671.0625,145.2 670.5875,145.425 Q670.125,145.65 669.7625,146.15 Q669.4,146.65 669.4,147.3375 L669.4,148.075 Q669.4,148.9 670.075,149.45 Q670.75,150 671.95,150 Q672.6625,150 673.1625,149.8375 Q673.45,149.75 673.775,149.4625 Q673.9875,149.3 674.1,149.25 Q674.2125,149.2 674.35,149.2 Q674.6125,149.2 674.8,149.4125 Q675,149.6125 675,149.9 Q675,150.175 674.725,150.5 Q674.325,150.975 673.6875,151.2375 Q672.85,151.6 671.825,151.6 Q670.625,151.6 669.6625,151.125 Q668.8875,150.75 668.3375,149.9375 Q667.8,149.125 667.8,148.1625 L667.8,147.2875 Q667.8,146.2875 668.275,145.4125 Q668.7625,144.5375 669.6,144.075 Q670.45,143.6 671.4,143.6 Q671.975,143.6 672.475,143.8 Q672.975,144 673.4,144.4 Z " fill="#000000"/><text fill="#000000" font-family="sans-serif" font-size="11.2" lengthAdjust="spacing" textLength="107.2" x="688.2" y="151.7828">ShareSharedBoardUI</text><line style="stroke:#181818;stroke-width:0.4000000000000001;" x1="565.2" x2="892.4" y1="160" y2="160"/><line style="stroke:#181818;stroke-width:0.4000000000000001;" x1="565.2" x2="892.4" y1="166.4" y2="166.4"/><ellipse cx="573.2" cy="177.8438" fill="#84BE84" rx="2.4" ry="2.4" style="stroke:#038048;stroke-width:0.8000000000000002;"/><text fill="#000000" font-family="sans-serif" font-size="11.2" lengthAdjust="spacing" textLength="308" x="580.4" y="181.2266">listOwnedAndActiveSharedBoards(): List&lt;SharedBoardDTO&gt;</text></g><!--MD5=[90f995917fd7e8a86575e9cb0939f60f]
class ListOwnedSharedBoardsService--><g id="elem_ListOwnedSharedBoardsService"><rect codeLine="11" fill="#F1F1F1" height="52.4875" id="ListOwnedSharedBoardsService" rx="2" ry="2" style="stroke:#181818;stroke-width:0.4000000000000001;" width="356.8" x="16" y="249.6"/><ellipse cx="109.4" cy="262.4" fill="#ADD1B2" rx="8.8" ry="8.8" style="stroke:#181818;stroke-width:0.8000000000000002;"/><path d="M111,259.6 Q111.1625,259.2 111.35,259 Q111.5375,258.8 111.75,258.8 Q112.125,258.8 112.3625,259.025 Q112.6,259.25 112.6,259.775 L112.6,261.025 Q112.6,261.55 112.375,261.775 Q112.15,262 111.8,262 Q111.4875,262 111.2875,261.8625 Q111.0875,261.725 111,261.3625 Q110.9625,261.1125 110.825,260.975 Q110.575,260.7125 110.125,260.5625 Q109.675,260.4 109.225,260.4 Q108.6625,260.4 108.1875,260.625 Q107.725,260.85 107.3625,261.35 Q107,261.85 107,262.5375 L107,263.275 Q107,264.1 107.675,264.65 Q108.35,265.2 109.55,265.2 Q110.2625,265.2 110.7625,265.0375 Q111.05,264.95 111.375,264.6625 Q111.5875,264.5 111.7,264.45 Q111.8125,264.4 111.95,264.4 Q112.2125,264.4 112.4,264.6125 Q112.6,264.8125 112.6,265.1 Q112.6,265.375 112.325,265.7 Q111.925,266.175 111.2875,266.4375 Q110.45,266.8 109.425,266.8 Q108.225,266.8 107.2625,266.325 Q106.4875,265.95 105.9375,265.1375 Q105.4,264.325 105.4,263.3625 L105.4,262.4875 Q105.4,261.4875 105.875,260.6125 Q106.3625,259.7375 107.2,259.275 Q108.05,258.8 109,258.8 Q109.575,258.8 110.075,259 Q110.575,259.2 111,259.6 Z " fill="#000000"/><text fill="#000000" font-family="sans-serif" font-size="11.2" lengthAdjust="spacing" textLength="163.2" x="125.8" y="266.9828">ListOwnedSharedBoardsService</text><line style="stroke:#181818;stroke-width:0.4000000000000001;" x1="16.8" x2="372" y1="275.2" y2="275.2"/><line style="stroke:#181818;stroke-width:0.4000000000000001;" x1="16.8" x2="372" y1="281.6" y2="281.6"/><ellipse cx="24.8" cy="293.0438" fill="#84BE84" rx="2.4" ry="2.4" style="stroke:#038048;stroke-width:0.8000000000000002;"/><text fill="#000000" font-family="sans-serif" font-size="11.2" lengthAdjust="spacing" textLength="336" x="32" y="296.4266">listOwnedAndActiveSharedBoards(user: User): List&lt;SharedBoard&gt;</text></g><!--MD5=[fe86916473e508f3a235b67718037447]
class ListStudentsAndTeachersUsersService--><g id="elem_ListStudentsAndTeachersUsersService"><rect codeLine="15" fill="#F1F1F1" height="52.4875" id="ListStudentsAndTeachersUsersService" rx="2" ry="2" style="stroke:#181818;stroke-width:0.4000000000000001;" width="280.8" x="406.8" y="249.6"/><ellipse cx="445.4" cy="262.4" fill="#ADD1B2" rx="8.8" ry="8.8" style="stroke:#181818;stroke-width:0.8000000000000002;"/><path d="M447,259.6 Q447.1625,259.2 447.35,259 Q447.5375,258.8 447.75,258.8 Q448.125,258.8 448.3625,259.025 Q448.6,259.25 448.6,259.775 L448.6,261.025 Q448.6,261.55 448.375,261.775 Q448.15,262 447.8,262 Q447.4875,262 447.2875,261.8625 Q447.0875,261.725 447,261.3625 Q446.9625,261.1125 446.825,260.975 Q446.575,260.7125 446.125,260.5625 Q445.675,260.4 445.225,260.4 Q444.6625,260.4 444.1875,260.625 Q443.725,260.85 443.3625,261.35 Q443,261.85 443,262.5375 L443,263.275 Q443,264.1 443.675,264.65 Q444.35,265.2 445.55,265.2 Q446.2625,265.2 446.7625,265.0375 Q447.05,264.95 447.375,264.6625 Q447.5875,264.5 447.7,264.45 Q447.8125,264.4 447.95,264.4 Q448.2125,264.4 448.4,264.6125 Q448.6,264.8125 448.6,265.1 Q448.6,265.375 448.325,265.7 Q447.925,266.175 447.2875,266.4375 Q446.45,266.8 445.425,266.8 Q444.225,266.8 443.2625,266.325 Q442.4875,265.95 441.9375,265.1375 Q441.4,264.325 441.4,263.3625 L441.4,262.4875 Q441.4,261.4875 441.875,260.6125 Q442.3625,259.7375 443.2,259.275 Q444.05,258.8 445,258.8 Q445.575,258.8 446.075,259 Q446.575,259.2 447,259.6 Z " fill="#000000"/><text fill="#000000" font-family="sans-serif" font-size="11.2" lengthAdjust="spacing" textLength="196.8" x="461.8" y="266.9828">ListStudentsAndTeachersUsersService</text><line style="stroke:#181818;stroke-width:0.4000000000000001;" x1="407.6" x2="686.8" y1="275.2" y2="275.2"/><line style="stroke:#181818;stroke-width:0.4000000000000001;" x1="407.6" x2="686.8" y1="281.6" y2="281.6"/><ellipse cx="415.6" cy="293.0438" fill="#84BE84" rx="2.4" ry="2.4" style="stroke:#038048;stroke-width:0.8000000000000002;"/><text fill="#000000" font-family="sans-serif" font-size="11.2" lengthAdjust="spacing" textLength="260" x="422.8" y="296.4266">listStudentsAndTeachersUsers(): List&lt;SystemUser&gt;</text></g><!--MD5=[cd972f05dd966f5aed006fdaccec2941]
class SendRequestService--><g id="elem_SendRequestService"><rect codeLine="19" fill="#F1F1F1" height="52.4875" id="SendRequestService" rx="2" ry="2" style="stroke:#181818;stroke-width:0.4000000000000001;" width="705.6" x="716" y="249.6"/><ellipse cx="1012.2" cy="262.4" fill="#ADD1B2" rx="8.8" ry="8.8" style="stroke:#181818;stroke-width:0.8000000000000002;"/><path d="M1013.8,259.6 Q1013.9625,259.2 1014.15,259 Q1014.3375,258.8 1014.55,258.8 Q1014.925,258.8 1015.1625,259.025 Q1015.4,259.25 1015.4,259.775 L1015.4,261.025 Q1015.4,261.55 1015.175,261.775 Q1014.95,262 1014.6,262 Q1014.2875,262 1014.0875,261.8625 Q1013.8875,261.725 1013.8,261.3625 Q1013.7625,261.1125 1013.625,260.975 Q1013.375,260.7125 1012.925,260.5625 Q1012.475,260.4 1012.025,260.4 Q1011.4625,260.4 1010.9875,260.625 Q1010.525,260.85 1010.1625,261.35 Q1009.8,261.85 1009.8,262.5375 L1009.8,263.275 Q1009.8,264.1 1010.475,264.65 Q1011.15,265.2 1012.35,265.2 Q1013.0625,265.2 1013.5625,265.0375 Q1013.85,264.95 1014.175,264.6625 Q1014.3875,264.5 1014.5,264.45 Q1014.6125,264.4 1014.75,264.4 Q1015.0125,264.4 1015.2,264.6125 Q1015.4,264.8125 1015.4,265.1 Q1015.4,265.375 1015.125,265.7 Q1014.725,266.175 1014.0875,266.4375 Q1013.25,266.8 1012.225,266.8 Q1011.025,266.8 1010.0625,266.325 Q1009.2875,265.95 1008.7375,265.1375 Q1008.2,264.325 1008.2,263.3625 L1008.2,262.4875 Q1008.2,261.4875 1008.675,260.6125 Q1009.1625,259.7375 1010,259.275 Q1010.85,258.8 1011.8,258.8 Q1012.375,258.8 1012.875,259 Q1013.375,259.2 1013.8,259.6 Z " fill="#000000"/><text fill="#000000" font-family="sans-serif" font-size="11.2" lengthAdjust="spacing" textLength="106.4" x="1028.6" y="266.9828">SendRequestService</text><line style="stroke:#181818;stroke-width:0.4000000000000001;" x1="716.8" x2="1420.8" y1="275.2" y2="275.2"/><line style="stroke:#181818;stroke-width:0.4000000000000001;" x1="716.8" x2="1420.8" y1="281.6" y2="281.6"/><ellipse cx="724.8" cy="293.0438" fill="#84BE84" rx="2.4" ry="2.4" style="stroke:#038048;stroke-width:0.8000000000000002;"/><text fill="#000000" font-family="sans-serif" font-size="11.2" lengthAdjust="spacing" textLength="684.8" x="732" y="296.4266">sendShareSharedBoardRequest(sharedBoard: SharedBoardDTO, users: List&lt;SystemUser&gt;, permissions: List&lt;UserPermission&gt;): String</text></g><!--MD5=[c60af77fe5573b84a4aa4bce89659574]
class Server--><g id="elem_Server"><rect codeLine="23" fill="#F1F1F1" height="52.4875" id="Server" rx="2" ry="2" style="stroke:#181818;stroke-width:0.4000000000000001;" width="100.8" x="1011.2" y="480"/><ellipse cx="1041.92" cy="492.8" fill="#ADD1B2" rx="8.8" ry="8.8" style="stroke:#181818;stroke-width:0.8000000000000002;"/><path d="M1043.52,490 Q1043.6825,489.6 1043.87,489.4 Q1044.0575,489.2 1044.27,489.2 Q1044.645,489.2 1044.8825,489.425 Q1045.12,489.65 1045.12,490.175 L1045.12,491.425 Q1045.12,491.95 1044.895,492.175 Q1044.67,492.4 1044.32,492.4 Q1044.0075,492.4 1043.8075,492.2625 Q1043.6075,492.125 1043.52,491.7625 Q1043.4825,491.5125 1043.345,491.375 Q1043.095,491.1125 1042.645,490.9625 Q1042.195,490.8 1041.745,490.8 Q1041.1825,490.8 1040.7075,491.025 Q1040.245,491.25 1039.8825,491.75 Q1039.52,492.25 1039.52,492.9375 L1039.52,493.675 Q1039.52,494.5 1040.195,495.05 Q1040.87,495.6 1042.07,495.6 Q1042.7825,495.6 1043.2825,495.4375 Q1043.57,495.35 1043.895,495.0625 Q1044.1075,494.9 1044.22,494.85 Q1044.3325,494.8 1044.47,494.8 Q1044.7325,494.8 1044.92,495.0125 Q1045.12,495.2125 1045.12,495.5 Q1045.12,495.775 1044.845,496.1 Q1044.445,496.575 1043.8075,496.8375 Q1042.97,497.2 1041.945,497.2 Q1040.745,497.2 1039.7825,496.725 Q1039.0075,496.35 1038.4575,495.5375 Q1037.92,494.725 1037.92,493.7625 L1037.92,492.8875 Q1037.92,491.8875 1038.395,491.0125 Q1038.8825,490.1375 1039.72,489.675 Q1040.57,489.2 1041.52,489.2 Q1042.095,489.2 1042.595,489.4 Q1043.095,489.6 1043.52,490 Z " fill="#000000"/><text fill="#000000" font-family="sans-serif" font-size="11.2" lengthAdjust="spacing" textLength="33.6" x="1057.28" y="497.3828">Server</text><line style="stroke:#181818;stroke-width:0.4000000000000001;" x1="1012" x2="1111.2" y1="505.6" y2="505.6"/><rect fill="none" height="4.8" style="stroke:#C82930;stroke-width:0.8000000000000002;" width="4.8" x="1017.6" y="514.6438"/><text fill="#000000" font-family="sans-serif" font-size="11.2" lengthAdjust="spacing" textLength="80" x="1027.2" y="520.4266">TCPConnection</text><line style="stroke:#181818;stroke-width:0.4000000000000001;" x1="1012" x2="1111.2" y1="526.0875" y2="526.0875"/></g><!--MD5=[6832c2786635403abd94895393812e89]
class SendShareSharedBoardController--><g id="elem_SendShareSharedBoardController"><rect codeLine="27" fill="#F1F1F1" height="52.4875" id="SendShareSharedBoardController" rx="2" ry="2" style="stroke:#181818;stroke-width:0.4000000000000001;" width="525.6" x="1121.2" y="364.8"/><ellipse cx="1293.8" cy="377.6" fill="#ADD1B2" rx="8.8" ry="8.8" style="stroke:#181818;stroke-width:0.8000000000000002;"/><path d="M1295.4,374.8 Q1295.5625,374.4 1295.75,374.2 Q1295.9375,374 1296.15,374 Q1296.525,374 1296.7625,374.225 Q1297,374.45 1297,374.975 L1297,376.225 Q1297,376.75 1296.775,376.975 Q1296.55,377.2 1296.2,377.2 Q1295.8875,377.2 1295.6875,377.0625 Q1295.4875,376.925 1295.4,376.5625 Q1295.3625,376.3125 1295.225,376.175 Q1294.975,375.9125 1294.525,375.7625 Q1294.075,375.6 1293.625,375.6 Q1293.0625,375.6 1292.5875,375.825 Q1292.125,376.05 1291.7625,376.55 Q1291.4,377.05 1291.4,377.7375 L1291.4,378.475 Q1291.4,379.3 1292.075,379.85 Q1292.75,380.4 1293.95,380.4 Q1294.6625,380.4 1295.1625,380.2375 Q1295.45,380.15 1295.775,379.8625 Q1295.9875,379.7 1296.1,379.65 Q1296.2125,379.6 1296.35,379.6 Q1296.6125,379.6 1296.8,379.8125 Q1297,380.0125 1297,380.3 Q1297,380.575 1296.725,380.9 Q1296.325,381.375 1295.6875,381.6375 Q1294.85,382 1293.825,382 Q1292.625,382 1291.6625,381.525 Q1290.8875,381.15 1290.3375,380.3375 Q1289.8,379.525 1289.8,378.5625 L1289.8,377.6875 Q1289.8,376.6875 1290.275,375.8125 Q1290.7625,374.9375 1291.6,374.475 Q1292.45,374 1293.4,374 Q1293.975,374 1294.475,374.2 Q1294.975,374.4 1295.4,374.8 Z " fill="#000000"/><text fill="#000000" font-family="sans-serif" font-size="11.2" lengthAdjust="spacing" textLength="173.6" x="1310.2" y="382.1828">SendShareSharedBoardController</text><line style="stroke:#181818;stroke-width:0.4000000000000001;" x1="1122" x2="1646" y1="390.4" y2="390.4"/><line style="stroke:#181818;stroke-width:0.4000000000000001;" x1="1122" x2="1646" y1="396.8" y2="396.8"/><ellipse cx="1130" cy="408.2438" fill="#84BE84" rx="2.4" ry="2.4" style="stroke:#038048;stroke-width:0.8000000000000002;"/><text fill="#000000" font-family="sans-serif" font-size="11.2" lengthAdjust="spacing" textLength="504.8" x="1137.2" y="411.6266">shareBoard(sharedBoard: SharedBoardDTO, username: String, permission: UserPermission): String</text></g><!--MD5=[f3799c26814745ddcd47176221795d16]
class ShareSharedBoardService--><g id="elem_ShareSharedBoardService"><rect codeLine="31" fill="#F1F1F1" height="52.4875" id="ShareSharedBoardService" rx="2" ry="2" style="stroke:#181818;stroke-width:0.4000000000000001;" width="525.6" x="1140.4" y="480"/><ellipse cx="1332.2" cy="492.8" fill="#ADD1B2" rx="8.8" ry="8.8" style="stroke:#181818;stroke-width:0.8000000000000002;"/><path d="M1333.8,490 Q1333.9625,489.6 1334.15,489.4 Q1334.3375,489.2 1334.55,489.2 Q1334.925,489.2 1335.1625,489.425 Q1335.4,489.65 1335.4,490.175 L1335.4,491.425 Q1335.4,491.95 1335.175,492.175 Q1334.95,492.4 1334.6,492.4 Q1334.2875,492.4 1334.0875,492.2625 Q1333.8875,492.125 1333.8,491.7625 Q1333.7625,491.5125 1333.625,491.375 Q1333.375,491.1125 1332.925,490.9625 Q1332.475,490.8 1332.025,490.8 Q1331.4625,490.8 1330.9875,491.025 Q1330.525,491.25 1330.1625,491.75 Q1329.8,492.25 1329.8,492.9375 L1329.8,493.675 Q1329.8,494.5 1330.475,495.05 Q1331.15,495.6 1332.35,495.6 Q1333.0625,495.6 1333.5625,495.4375 Q1333.85,495.35 1334.175,495.0625 Q1334.3875,494.9 1334.5,494.85 Q1334.6125,494.8 1334.75,494.8 Q1335.0125,494.8 1335.2,495.0125 Q1335.4,495.2125 1335.4,495.5 Q1335.4,495.775 1335.125,496.1 Q1334.725,496.575 1334.0875,496.8375 Q1333.25,497.2 1332.225,497.2 Q1331.025,497.2 1330.0625,496.725 Q1329.2875,496.35 1328.7375,495.5375 Q1328.2,494.725 1328.2,493.7625 L1328.2,492.8875 Q1328.2,491.8875 1328.675,491.0125 Q1329.1625,490.1375 1330,489.675 Q1330.85,489.2 1331.8,489.2 Q1332.375,489.2 1332.875,489.4 Q1333.375,489.6 1333.8,490 Z " fill="#000000"/><text fill="#000000" font-family="sans-serif" font-size="11.2" lengthAdjust="spacing" textLength="135.2" x="1348.6" y="497.3828">ShareSharedBoardService</text><line style="stroke:#181818;stroke-width:0.4000000000000001;" x1="1141.2" x2="1665.2" y1="505.6" y2="505.6"/><line style="stroke:#181818;stroke-width:0.4000000000000001;" x1="1141.2" x2="1665.2" y1="512" y2="512"/><ellipse cx="1149.2" cy="523.4438" fill="#84BE84" rx="2.4" ry="2.4" style="stroke:#038048;stroke-width:0.8000000000000002;"/><text fill="#000000" font-family="sans-serif" font-size="11.2" lengthAdjust="spacing" textLength="504.8" x="1156.4" y="526.8266">shareBoard(sharedBoard: SharedBoardDTO, username: String, permission: UserPermission): String</text></g><!--MD5=[e571993088bd2d52c04470463f574384]
class SharedBoardParticipationFactory--><g id="elem_SharedBoardParticipationFactory"><rect codeLine="35" fill="#F1F1F1" height="52.4875" id="SharedBoardParticipationFactory" rx="2" ry="2" style="stroke:#181818;stroke-width:0.4000000000000001;" width="788" x="612.4" y="602"/><ellipse cx="919" cy="614.8" fill="#ADD1B2" rx="8.8" ry="8.8" style="stroke:#181818;stroke-width:0.8000000000000002;"/><path d="M920.6,612 Q920.7625,611.6 920.95,611.4 Q921.1375,611.2 921.35,611.2 Q921.725,611.2 921.9625,611.425 Q922.2,611.65 922.2,612.175 L922.2,613.425 Q922.2,613.95 921.975,614.175 Q921.75,614.4 921.4,614.4 Q921.0875,614.4 920.8875,614.2625 Q920.6875,614.125 920.6,613.7625 Q920.5625,613.5125 920.425,613.375 Q920.175,613.1125 919.725,612.9625 Q919.275,612.8 918.825,612.8 Q918.2625,612.8 917.7875,613.025 Q917.325,613.25 916.9625,613.75 Q916.6,614.25 916.6,614.9375 L916.6,615.675 Q916.6,616.5 917.275,617.05 Q917.95,617.6 919.15,617.6 Q919.8625,617.6 920.3625,617.4375 Q920.65,617.35 920.975,617.0625 Q921.1875,616.9 921.3,616.85 Q921.4125,616.8 921.55,616.8 Q921.8125,616.8 922,617.0125 Q922.2,617.2125 922.2,617.5 Q922.2,617.775 921.925,618.1 Q921.525,618.575 920.8875,618.8375 Q920.05,619.2 919.025,619.2 Q917.825,619.2 916.8625,618.725 Q916.0875,618.35 915.5375,617.5375 Q915,616.725 915,615.7625 L915,614.8875 Q915,613.8875 915.475,613.0125 Q915.9625,612.1375 916.8,611.675 Q917.65,611.2 918.6,611.2 Q919.175,611.2 919.675,611.4 Q920.175,611.6 920.6,612 Z " fill="#000000"/><text fill="#000000" font-family="sans-serif" font-size="11.2" lengthAdjust="spacing" textLength="168" x="935.4" y="619.3828">SharedBoardParticipationFactory</text><line style="stroke:#181818;stroke-width:0.4000000000000001;" x1="613.2" x2="1399.6" y1="627.6" y2="627.6"/><line style="stroke:#181818;stroke-width:0.4000000000000001;" x1="613.2" x2="1399.6" y1="634" y2="634"/><ellipse cx="621.2" cy="645.4438" fill="#84BE84" rx="2.4" ry="2.4" style="stroke:#038048;stroke-width:0.8000000000000002;"/><text fill="#000000" font-family="sans-serif" font-size="11.2" lengthAdjust="spacing" textLength="767.2" x="628.4" y="648.8266">createSharedBoardParticipation(permission: UserPermission, stats: Statistics, user: SystemUser, sharedBoard: SharedBoard): SharedBoardParticipation</text></g><!--MD5=[f571bf22324d4c4a7242538c26f4d98c]
class SharedBoardParticipation--><g id="elem_SharedBoardParticipation"><rect codeLine="39" fill="#F1F1F1" height="94.75" id="SharedBoardParticipation" rx="2" ry="2" style="stroke:#181818;stroke-width:0.4000000000000001;" width="160" x="926.4" y="724"/><ellipse cx="940.56" cy="736.8" fill="#ADD1B2" rx="8.8" ry="8.8" style="stroke:#181818;stroke-width:0.8000000000000002;"/><path d="M942.16,734 Q942.3225,733.6 942.51,733.4 Q942.6975,733.2 942.91,733.2 Q943.285,733.2 943.5225,733.425 Q943.76,733.65 943.76,734.175 L943.76,735.425 Q943.76,735.95 943.535,736.175 Q943.31,736.4 942.96,736.4 Q942.6475,736.4 942.4475,736.2625 Q942.2475,736.125 942.16,735.7625 Q942.1225,735.5125 941.985,735.375 Q941.735,735.1125 941.285,734.9625 Q940.835,734.8 940.385,734.8 Q939.8225,734.8 939.3475,735.025 Q938.885,735.25 938.5225,735.75 Q938.16,736.25 938.16,736.9375 L938.16,737.675 Q938.16,738.5 938.835,739.05 Q939.51,739.6 940.71,739.6 Q941.4225,739.6 941.9225,739.4375 Q942.21,739.35 942.535,739.0625 Q942.7475,738.9 942.86,738.85 Q942.9725,738.8 943.11,738.8 Q943.3725,738.8 943.56,739.0125 Q943.76,739.2125 943.76,739.5 Q943.76,739.775 943.485,740.1 Q943.085,740.575 942.4475,740.8375 Q941.61,741.2 940.585,741.2 Q939.385,741.2 938.4225,740.725 Q937.6475,740.35 937.0975,739.5375 Q936.56,738.725 936.56,737.7625 L936.56,736.8875 Q936.56,735.8875 937.035,735.0125 Q937.5225,734.1375 938.36,733.675 Q939.21,733.2 940.16,733.2 Q940.735,733.2 941.235,733.4 Q941.735,733.6 942.16,734 Z " fill="#000000"/><text fill="#000000" font-family="sans-serif" font-size="11.2" lengthAdjust="spacing" textLength="129.6" x="952.24" y="741.3828">SharedBoardParticipation</text><line style="stroke:#181818;stroke-width:0.4000000000000001;" x1="927.2" x2="1085.6" y1="749.6" y2="749.6"/><rect fill="none" height="4.8" style="stroke:#C82930;stroke-width:0.8000000000000002;" width="4.8" x="932.8" y="758.6438"/><text fill="#000000" font-family="sans-serif" font-size="11.2" lengthAdjust="spacing" textLength="139.2" x="942.4" y="764.4266">permission: UserPermission</text><rect fill="none" height="4.8" style="stroke:#C82930;stroke-width:0.8000000000000002;" width="4.8" x="932.8" y="772.7313"/><text fill="#000000" font-family="sans-serif" font-size="11.2" lengthAdjust="spacing" textLength="75.2" x="942.4" y="778.5141">stats: Statistics</text><rect fill="none" height="4.8" style="stroke:#C82930;stroke-width:0.8000000000000002;" width="4.8" x="932.8" y="786.8188"/><text fill="#000000" font-family="sans-serif" font-size="11.2" lengthAdjust="spacing" textLength="88.8" x="942.4" y="792.6016">user: SystemUser</text><rect fill="none" height="4.8" style="stroke:#C82930;stroke-width:0.8000000000000002;" width="4.8" x="932.8" y="800.9063"/><text fill="#000000" font-family="sans-serif" font-size="11.2" lengthAdjust="spacing" textLength="139.2" x="942.4" y="806.6891">sharedBoard: SharedBoard</text><line style="stroke:#181818;stroke-width:0.4000000000000001;" x1="927.2" x2="1085.6" y1="812.35" y2="812.35"/></g><!--MD5=[6e84673ea0e0779ac9797c6daf6a3606]
class SharedBoardRepository--><g id="elem_SharedBoardRepository"><rect codeLine="46" fill="#F1F1F1" height="52.4875" id="SharedBoardRepository" rx="2" ry="2" style="stroke:#181818;stroke-width:0.4000000000000001;" width="356.8" x="5.6" y="364.8"/><ellipse cx="119.8" cy="377.6" fill="#ADD1B2" rx="8.8" ry="8.8" style="stroke:#181818;stroke-width:0.8000000000000002;"/><path d="M121.4,374.8 Q121.5625,374.4 121.75,374.2 Q121.9375,374 122.15,374 Q122.525,374 122.7625,374.225 Q123,374.45 123,374.975 L123,376.225 Q123,376.75 122.775,376.975 Q122.55,377.2 122.2,377.2 Q121.8875,377.2 121.6875,377.0625 Q121.4875,376.925 121.4,376.5625 Q121.3625,376.3125 121.225,376.175 Q120.975,375.9125 120.525,375.7625 Q120.075,375.6 119.625,375.6 Q119.0625,375.6 118.5875,375.825 Q118.125,376.05 117.7625,376.55 Q117.4,377.05 117.4,377.7375 L117.4,378.475 Q117.4,379.3 118.075,379.85 Q118.75,380.4 119.95,380.4 Q120.6625,380.4 121.1625,380.2375 Q121.45,380.15 121.775,379.8625 Q121.9875,379.7 122.1,379.65 Q122.2125,379.6 122.35,379.6 Q122.6125,379.6 122.8,379.8125 Q123,380.0125 123,380.3 Q123,380.575 122.725,380.9 Q122.325,381.375 121.6875,381.6375 Q120.85,382 119.825,382 Q118.625,382 117.6625,381.525 Q116.8875,381.15 116.3375,380.3375 Q115.8,379.525 115.8,378.5625 L115.8,377.6875 Q115.8,376.6875 116.275,375.8125 Q116.7625,374.9375 117.6,374.475 Q118.45,374 119.4,374 Q119.975,374 120.475,374.2 Q120.975,374.4 121.4,374.8 Z " fill="#000000"/><text fill="#000000" font-family="sans-serif" font-size="11.2" lengthAdjust="spacing" textLength="121.6" x="136.2" y="382.1828">SharedBoardRepository</text><line style="stroke:#181818;stroke-width:0.4000000000000001;" x1="6.4" x2="361.6" y1="390.4" y2="390.4"/><line style="stroke:#181818;stroke-width:0.4000000000000001;" x1="6.4" x2="361.6" y1="396.8" y2="396.8"/><ellipse cx="14.4" cy="408.2438" fill="#84BE84" rx="2.4" ry="2.4" style="stroke:#038048;stroke-width:0.8000000000000002;"/><text fill="#000000" font-family="sans-serif" font-size="11.2" lengthAdjust="spacing" textLength="336" x="21.6" y="411.6266">listOwnedAndActiveSharedBoards(user: User): List&lt;SharedBoard&gt;</text></g><!--MD5=[a336cf746aaf15acb35d04bd3be296b7]
class SharedBoardParticipationRepository--><g id="elem_SharedBoardParticipationRepository"><rect codeLine="50" fill="#F1F1F1" height="66.575" id="SharedBoardParticipationRepository" rx="2" ry="2" style="stroke:#181818;stroke-width:0.4000000000000001;" width="250.4" x="1428.4" y="595.2"/><ellipse cx="1458.76" cy="608" fill="#ADD1B2" rx="8.8" ry="8.8" style="stroke:#181818;stroke-width:0.8000000000000002;"/><path d="M1460.36,605.2 Q1460.5225,604.8 1460.71,604.6 Q1460.8975,604.4 1461.11,604.4 Q1461.485,604.4 1461.7225,604.625 Q1461.96,604.85 1461.96,605.375 L1461.96,606.625 Q1461.96,607.15 1461.735,607.375 Q1461.51,607.6 1461.16,607.6 Q1460.8475,607.6 1460.6475,607.4625 Q1460.4475,607.325 1460.36,606.9625 Q1460.3225,606.7125 1460.185,606.575 Q1459.935,606.3125 1459.485,606.1625 Q1459.035,606 1458.585,606 Q1458.0225,606 1457.5475,606.225 Q1457.085,606.45 1456.7225,606.95 Q1456.36,607.45 1456.36,608.1375 L1456.36,608.875 Q1456.36,609.7 1457.035,610.25 Q1457.71,610.8 1458.91,610.8 Q1459.6225,610.8 1460.1225,610.6375 Q1460.41,610.55 1460.735,610.2625 Q1460.9475,610.1 1461.06,610.05 Q1461.1725,610 1461.31,610 Q1461.5725,610 1461.76,610.2125 Q1461.96,610.4125 1461.96,610.7 Q1461.96,610.975 1461.685,611.3 Q1461.285,611.775 1460.6475,612.0375 Q1459.81,612.4 1458.785,612.4 Q1457.585,612.4 1456.6225,611.925 Q1455.8475,611.55 1455.2975,610.7375 Q1454.76,609.925 1454.76,608.9625 L1454.76,608.0875 Q1454.76,607.0875 1455.235,606.2125 Q1455.7225,605.3375 1456.56,604.875 Q1457.41,604.4 1458.36,604.4 Q1458.935,604.4 1459.435,604.6 Q1459.935,604.8 1460.36,605.2 Z " fill="#000000"/><text fill="#000000" font-family="sans-serif" font-size="11.2" lengthAdjust="spacing" textLength="184" x="1474.04" y="612.5828">SharedBoardParticipationRepository</text><line style="stroke:#181818;stroke-width:0.4000000000000001;" x1="1429.2" x2="1678" y1="620.8" y2="620.8"/><line style="stroke:#181818;stroke-width:0.4000000000000001;" x1="1429.2" x2="1678" y1="627.2" y2="627.2"/><ellipse cx="1437.2" cy="638.6438" fill="#84BE84" rx="2.4" ry="2.4" style="stroke:#038048;stroke-width:0.8000000000000002;"/><text fill="#000000" font-family="sans-serif" font-size="11.2" lengthAdjust="spacing" textLength="67.2" x="1444.4" y="642.0266">repositories()</text><ellipse cx="1437.2" cy="652.7313" fill="#84BE84" rx="2.4" ry="2.4" style="stroke:#038048;stroke-width:0.8000000000000002;"/><text fill="#000000" font-family="sans-serif" font-size="11.2" lengthAdjust="spacing" textLength="229.6" x="1444.4" y="656.1141">save(participation: SharedBoardParticipation)</text></g><!--MD5=[5b96646d89acb44171a8e38db7a4047c]
class SystemUserRepository--><g id="elem_SystemUserRepository"><rect codeLine="55" fill="#F1F1F1" height="52.4875" id="SystemUserRepository" rx="2" ry="2" style="stroke:#181818;stroke-width:0.4000000000000001;" width="324" x="390.8" y="364.8"/><ellipse cx="492.2" cy="377.6" fill="#ADD1B2" rx="8.8" ry="8.8" style="stroke:#181818;stroke-width:0.8000000000000002;"/><path d="M493.8,374.8 Q493.9625,374.4 494.15,374.2 Q494.3375,374 494.55,374 Q494.925,374 495.1625,374.225 Q495.4,374.45 495.4,374.975 L495.4,376.225 Q495.4,376.75 495.175,376.975 Q494.95,377.2 494.6,377.2 Q494.2875,377.2 494.0875,377.0625 Q493.8875,376.925 493.8,376.5625 Q493.7625,376.3125 493.625,376.175 Q493.375,375.9125 492.925,375.7625 Q492.475,375.6 492.025,375.6 Q491.4625,375.6 490.9875,375.825 Q490.525,376.05 490.1625,376.55 Q489.8,377.05 489.8,377.7375 L489.8,378.475 Q489.8,379.3 490.475,379.85 Q491.15,380.4 492.35,380.4 Q493.0625,380.4 493.5625,380.2375 Q493.85,380.15 494.175,379.8625 Q494.3875,379.7 494.5,379.65 Q494.6125,379.6 494.75,379.6 Q495.0125,379.6 495.2,379.8125 Q495.4,380.0125 495.4,380.3 Q495.4,380.575 495.125,380.9 Q494.725,381.375 494.0875,381.6375 Q493.25,382 492.225,382 Q491.025,382 490.0625,381.525 Q489.2875,381.15 488.7375,380.3375 Q488.2,379.525 488.2,378.5625 L488.2,377.6875 Q488.2,376.6875 488.675,375.8125 Q489.1625,374.9375 490,374.475 Q490.85,374 491.8,374 Q492.375,374 492.875,374.2 Q493.375,374.4 493.8,374.8 Z " fill="#000000"/><text fill="#000000" font-family="sans-serif" font-size="11.2" lengthAdjust="spacing" textLength="114.4" x="508.6" y="382.1828">SystemUserRepository</text><line style="stroke:#181818;stroke-width:0.4000000000000001;" x1="391.6" x2="714" y1="390.4" y2="390.4"/><line style="stroke:#181818;stroke-width:0.4000000000000001;" x1="391.6" x2="714" y1="396.8" y2="396.8"/><ellipse cx="399.6" cy="408.2438" fill="#84BE84" rx="2.4" ry="2.4" style="stroke:#038048;stroke-width:0.8000000000000002;"/><text fill="#000000" font-family="sans-serif" font-size="11.2" lengthAdjust="spacing" textLength="303.2" x="406.8" y="411.6266">findSystemUserByUsername(username: String): SystemUser</text></g><!--MD5=[c231b3610cde8f2a9d80edad96033622]
link SystemUser to ShareSharedBoardUI--><g id="link_SystemUser_ShareSharedBoardUI"><path codeLine="59" d="M704.648,72.088 C698.616,83.904 694.768,97.528 698.4,110.4 C700.368,117.368 703.616,124.328 707.28,130.736 " fill="none" id="SystemUser-to-ShareSharedBoardUI" style="stroke:#181818;stroke-width:0.8000000000000002;"/><polygon fill="#181818" points="709.352,134.232,708.4415,126.4057,707.3159,130.789,702.9326,129.6634,709.352,134.232" style="stroke:#181818;stroke-width:0.8000000000000002;"/><text fill="#000000" font-family="sans-serif" font-size="10.4" lengthAdjust="spacing" textLength="22.4" x="699.2" y="107.5961">uses</text></g><!--MD5=[86d70e6892a7d77a5b6a4d49f041e3a3]
link ShareSharedBoardUI to SystemUser--><g id="link_ShareSharedBoardUI_SystemUser"><path codeLine="74" d="M728.8,134.256 C728.8,117.392 728.8,95.088 728.8,76.368 " fill="none" id="ShareSharedBoardUI-to-SystemUser" style="stroke:#181818;stroke-width:0.8000000000000002;"/><polygon fill="#181818" points="728.8,72.184,725.6,79.384,728.8,76.184,732,79.384,728.8,72.184" style="stroke:#181818;stroke-width:0.8000000000000002;"/><text fill="#000000" font-family="sans-serif" font-size="10.4" lengthAdjust="spacing" textLength="32" x="729.6" y="107.5961">returns</text></g><!--MD5=[bbbf9ebb9a961fa7c7c320bfcd17385b]
link ShareSharedBoardUI to ListOwnedSharedBoardsService--><g id="link_ShareSharedBoardUI_ListOwnedSharedBoardsService"><path codeLine="60" d="M608.2,187.232 C521.992,205.56 406.288,230.16 319.144,248.68 " fill="none" id="ShareSharedBoardUI-to-ListOwnedSharedBoardsService" style="stroke:#181818;stroke-width:0.8000000000000002;"/><polygon fill="#181818" points="315.016,249.56,322.7254,251.1865,318.9279,248.725,321.3894,244.9275,315.016,249.56" style="stroke:#181818;stroke-width:0.8000000000000002;"/><text fill="#000000" font-family="sans-serif" font-size="10.4" lengthAdjust="spacing" textLength="22.4" x="494.4" y="222.7961">uses</text></g><!--MD5=[f89ea28c88379ddd47dad1aded221df5]
link ListOwnedSharedBoardsService to SharedBoardRepository--><g id="link_ListOwnedSharedBoardsService_SharedBoardRepository"><path codeLine="61" d="M192.04,302.576 C190.456,319.864 188.368,342.672 186.72,360.72 " fill="none" id="ListOwnedSharedBoardsService-to-SharedBoardRepository" style="stroke:#181818;stroke-width:0.8000000000000002;"/><polygon fill="#181818" points="186.352,364.728,190.196,357.8503,186.7172,360.7447,183.8228,357.2659,186.352,364.728" style="stroke:#181818;stroke-width:0.8000000000000002;"/><text fill="#000000" font-family="sans-serif" font-size="10.4" lengthAdjust="spacing" textLength="22.4" x="191.2" y="337.9961">uses</text></g><!--MD5=[6329ca7a63e7aeb01d67949d30684e13]
link ShareSharedBoardUI to ListStudentsAndTeachersUsersService--><g id="link_ShareSharedBoardUI_ListStudentsAndTeachersUsersService"><path codeLine="62" d="M687.816,187.232 C659.272,205.096 621.2,228.904 591.88,247.248 " fill="none" id="ShareSharedBoardUI-to-ListStudentsAndTeachersUsersService" style="stroke:#181818;stroke-width:0.8000000000000002;"/><polygon fill="#181818" points="588.344,249.464,596.1446,248.3545,591.7341,247.3409,592.7477,242.9304,588.344,249.464" style="stroke:#181818;stroke-width:0.8000000000000002;"/><text fill="#000000" font-family="sans-serif" font-size="10.4" lengthAdjust="spacing" textLength="22.4" x="650.4" y="222.7961">uses</text></g><!--MD5=[8a7c5bcccca8edc4d33e404467345462]
link ListStudentsAndTeachersUsersService to SystemUserRepository--><g id="link_ListStudentsAndTeachersUsersService_SystemUserRepository"><path codeLine="63" d="M548.472,302.576 C549.32,319.864 550.448,342.672 551.336,360.72 " fill="none" id="ListStudentsAndTeachersUsersService-to-SystemUserRepository" style="stroke:#181818;stroke-width:0.8000000000000002;"/><polygon fill="#181818" points="551.536,364.728,554.3829,357.3812,551.3419,360.7327,547.9905,357.6917,551.536,364.728" style="stroke:#181818;stroke-width:0.8000000000000002;"/><text fill="#000000" font-family="sans-serif" font-size="10.4" lengthAdjust="spacing" textLength="22.4" x="551.2" y="337.9961">uses</text></g><!--MD5=[2db95c5248003d46be6bac892dcdc94d]
link ShareSharedBoardUI to SendRequestService--><g id="link_ShareSharedBoardUI_SendRequestService"><path codeLine="64" d="M805.528,187.232 C859.944,205.416 932.824,229.768 988.112,248.24 " fill="none" id="ShareSharedBoardUI-to-SendRequestService" style="stroke:#181818;stroke-width:0.8000000000000002;"/><polygon fill="#181818" points="992.056,249.56,986.2422,244.2421,988.2624,248.2917,984.2129,250.3119,992.056,249.56" style="stroke:#181818;stroke-width:0.8000000000000002;"/><text fill="#000000" font-family="sans-serif" font-size="10.4" lengthAdjust="spacing" textLength="22.4" x="919.2" y="222.7961">uses</text></g><!--MD5=[878326d858f2ff25f41d1ff1cadc4903]
link SendRequestService to ShareSharedBoardUI--><g id="link_SendRequestService_ShareSharedBoardUI"><path codeLine="73" d="M1027.328,249.52 C1004.784,236.488 976.024,221.32 948.8,211.2 C924.76,202.264 898.624,194.656 873.032,188.28 " fill="none" id="SendRequestService-to-ShareSharedBoardUI" style="stroke:#181818;stroke-width:0.8000000000000002;"/><polygon fill="#181818" points="868.936,187.264,875.1583,192.0975,872.8192,188.2234,876.6933,185.8843,868.936,187.264" style="stroke:#181818;stroke-width:0.8000000000000002;"/><text fill="#000000" font-family="sans-serif" font-size="10.4" lengthAdjust="spacing" textLength="32" x="980" y="222.7961">returns</text></g><!--MD5=[437971afa50c5957681120b1bb92a3c0]
link SendRequestService to Server--><g id="link_SendRequestService_Server"><path codeLine="65" d="M1067.992,302.6 C1066.648,345.288 1063.968,430.368 1062.544,475.64 " fill="none" id="SendRequestService-to-Server" style="stroke:#181818;stroke-width:0.8000000000000002;"/><polygon fill="#181818" points="1062.408,479.896,1065.8326,472.8001,1062.5337,475.898,1059.4358,472.599,1062.408,479.896" style="stroke:#181818;stroke-width:0.8000000000000002;"/><text fill="#000000" font-family="sans-serif" font-size="10.4" lengthAdjust="spacing" textLength="22.4" x="1066.4" y="395.5961">uses</text></g><!--MD5=[55fc1f6264ebfb621cd5f738405c06e0]
link Server to SendRequestService--><g id="link_Server_SendRequestService"><path codeLine="72" d="M1048.864,479.76 C1041.128,462.592 1032,439.312 1028,417.6 C1023.744,394.52 1022.944,387.712 1028,364.8 C1032.52,344.312 1042.304,322.928 1051.152,306.368 " fill="none" id="Server-to-SendRequestService" style="stroke:#181818;stroke-width:0.8000000000000002;"/><polygon fill="#181818" points="1053.144,302.696,1046.899,307.5002,1051.2374,306.2124,1052.5252,310.5508,1053.144,302.696" style="stroke:#181818;stroke-width:0.8000000000000002;"/><text fill="#000000" font-family="sans-serif" font-size="10.4" lengthAdjust="spacing" textLength="28" x="1028.8" y="395.5961">sends</text></g><!--MD5=[b1cf36199d5606a73d7e1a3e3bfcef78]
link SendRequestService to SendShareSharedBoardController--><g id="link_SendRequestService_SendShareSharedBoardController"><path codeLine="66" d="M1139.928,302.432 C1190.272,320.584 1257.672,344.872 1308.888,363.328 " fill="none" id="SendRequestService-to-SendShareSharedBoardController" style="stroke:#181818;stroke-width:0.8000000000000002;"/><polygon fill="#181818" points="1312.856,364.76,1307.1737,359.3018,1309.0945,363.3995,1304.9969,365.3202,1312.856,364.76" style="stroke:#181818;stroke-width:0.8000000000000002;"/><text fill="#000000" font-family="sans-serif" font-size="10.4" lengthAdjust="spacing" textLength="22.4" x="1245.6" y="337.9961">uses</text></g><!--MD5=[a942197e9b49e6f4f14813d58deb705c]
link SendShareSharedBoardController to ShareSharedBoardService--><g id="link_SendShareSharedBoardController_ShareSharedBoardService"><path codeLine="67" d="M1388.36,417.776 C1391.28,435.064 1395.136,457.872 1398.184,475.92 " fill="none" id="SendShareSharedBoardController-to-ShareSharedBoardService" style="stroke:#181818;stroke-width:0.8000000000000002;"/><polygon fill="#181818" points="1398.864,479.928,1400.8045,472.2916,1398.1897,475.9852,1394.4961,473.3704,1398.864,479.928" style="stroke:#181818;stroke-width:0.8000000000000002;"/><text fill="#000000" font-family="sans-serif" font-size="10.4" lengthAdjust="spacing" textLength="22.4" x="1395.2" y="453.1961">uses</text></g><!--MD5=[2d6f0698cd2ce9848ce9473d54a35ee2]
link ShareSharedBoardService to SharedBoardParticipationFactory--><g id="link_ShareSharedBoardService_SharedBoardParticipationFactory"><path codeLine="68" d="M1318.808,532.808 C1252.992,552.776 1161.832,580.44 1094.976,600.72 " fill="none" id="ShareSharedBoardService-to-SharedBoardParticipationFactory" style="stroke:#181818;stroke-width:0.8000000000000002;"/><polygon fill="#181818" points="1091.008,601.928,1098.8252,602.9134,1094.8377,600.7734,1096.9778,596.7859,1091.008,601.928" style="stroke:#181818;stroke-width:0.8000000000000002;"/><text fill="#000000" font-family="sans-serif" font-size="10.4" lengthAdjust="spacing" textLength="22.4" x="1228.8" y="568.3961">uses</text></g><!--MD5=[b731e05ace7b74678cfd349f331a6eb9]
link SharedBoardParticipationFactory to SharedBoardParticipation--><g id="link_SharedBoardParticipationFactory_SharedBoardParticipation"><path codeLine="69" d="M1006.4,655.096 C1006.4,673.16 1006.4,697.856 1006.4,719.76 " fill="none" id="SharedBoardParticipationFactory-to-SharedBoardParticipation" style="stroke:#181818;stroke-width:0.8000000000000002;"/><polygon fill="#181818" points="1006.4,723.816,1009.6,716.616,1006.4,719.816,1003.2,716.616,1006.4,723.816" style="stroke:#181818;stroke-width:0.8000000000000002;"/><text fill="#000000" font-family="sans-serif" font-size="10.4" lengthAdjust="spacing" textLength="34.4" x="1007.2" y="697.1961">creates</text></g><!--MD5=[18bbb055127df7feb2bbcfce85377385]
link ShareSharedBoardService to SharedBoardParticipationRepository--><g id="link_ShareSharedBoardService_SharedBoardParticipationRepository"><path codeLine="70" d="M1435.464,533.032 C1457.192,550.424 1486.104,573.568 1509.888,592.608 " fill="none" id="ShareSharedBoardService-to-SharedBoardParticipationRepository" style="stroke:#181818;stroke-width:0.8000000000000002;"/><polygon fill="#181818" points="1513.064,595.144,1509.4377,588.149,1509.9394,592.6466,1505.4418,593.1484,1513.064,595.144" style="stroke:#181818;stroke-width:0.8000000000000002;"/><text fill="#000000" font-family="sans-serif" font-size="10.4" lengthAdjust="spacing" textLength="22.4" x="1483.2" y="568.3961">uses</text></g><!--MD5=[8b9da13b2b061bfae9fa6670f0d134a5]
link SendShareSharedBoardController to Server--><g id="link_SendShareSharedBoardController_Server"><path codeLine="71" d="M1305.88,417.624 C1254.632,434.696 1186.272,457.96 1126.4,480 C1122.984,481.256 1119.472,482.576 1115.936,483.92 " fill="none" id="SendShareSharedBoardController-to-Server" style="stroke:#181818;stroke-width:0.8000000000000002;"/><polygon fill="#181818" points="1112.096,485.384,1119.964,485.8022,1115.8323,483.9557,1117.6788,479.8241,1112.096,485.384" style="stroke:#181818;stroke-width:0.8000000000000002;"/><text fill="#000000" font-family="sans-serif" font-size="10.4" lengthAdjust="spacing" textLength="22.4" x="1232.8" y="453.1961">uses</text></g><!--MD5=[c96d8da3deef960aecbff11fe16ceb61]
@startuml

class SystemUser {
  - username
  - session
}

class ShareSharedBoardUI {
  + listOwnedAndActiveSharedBoards(): List<SharedBoardDTO>
}

class ListOwnedSharedBoardsService {
  + listOwnedAndActiveSharedBoards(user: User): List<SharedBoard>
}

class ListStudentsAndTeachersUsersService {
  + listStudentsAndTeachersUsers(): List<SystemUser>
}

class SendRequestService {
  + sendShareSharedBoardRequest(sharedBoard: SharedBoardDTO, users: List<SystemUser>, permissions: List<UserPermission>): String
}

class Server {
  - TCPConnection
}

class SendShareSharedBoardController {
  + shareBoard(sharedBoard: SharedBoardDTO, username: String, permission: UserPermission): String
}

class ShareSharedBoardService {
  + shareBoard(sharedBoard: SharedBoardDTO, username: String, permission: UserPermission): String
}

class SharedBoardParticipationFactory {
  + createSharedBoardParticipation(permission: UserPermission, stats: Statistics, user: SystemUser, sharedBoard: SharedBoard): SharedBoardParticipation
}

class SharedBoardParticipation {
  - permission: UserPermission
  - stats: Statistics
  - user: SystemUser
  - sharedBoard: SharedBoard
}

class SharedBoardRepository {
  + listOwnedAndActiveSharedBoards(user: User): List<SharedBoard>
}

class SharedBoardParticipationRepository {
  + repositories()
  + save(participation: SharedBoardParticipation)
}

class SystemUserRepository {
  + findSystemUserByUsername(username: String): SystemUser
}

SystemUser - -> ShareSharedBoardUI : uses
ShareSharedBoardUI - -> ListOwnedSharedBoardsService : uses
ListOwnedSharedBoardsService - -> SharedBoardRepository : uses
ShareSharedBoardUI - -> ListStudentsAndTeachersUsersService : uses
ListStudentsAndTeachersUsersService - -> SystemUserRepository : uses
ShareSharedBoardUI - -> SendRequestService : uses
SendRequestService - -> Server : uses
SendRequestService - -> SendShareSharedBoardController : uses
SendShareSharedBoardController - -> ShareSharedBoardService : uses
ShareSharedBoardService - -> SharedBoardParticipationFactory : uses
SharedBoardParticipationFactory - -> SharedBoardParticipation : creates
ShareSharedBoardService - -> SharedBoardParticipationRepository : uses
SendShareSharedBoardController - -> Server : uses
Server - -> SendRequestService : sends
SendRequestService - -> ShareSharedBoardUI : returns
ShareSharedBoardUI - -> SystemUser : returns

@enduml

PlantUML version 1.2022.12(Sun Oct 23 19:12:26 BST 2022)
(GPL source distribution)
Java Runtime: OpenJDK Runtime Environment
JVM: OpenJDK 64-Bit Server VM
Default Encoding: Cp1252
Language: en
Country: US
--></g></svg>