<?xml version="1.0" encoding="UTF-8" standalone="no"?><svg xmlns="http://www.w3.org/2000/svg" xmlns:xlink="http://www.w3.org/1999/xlink" contentStyleType="text/css" height="241.2px" preserveAspectRatio="none" style="width:883px;height:241px;background:#FFFFFF;" version="1.1" viewBox="0 0 883 241" width="883.6px" zoomAndPan="magnify"><defs/><g><rect fill="#FFFFFF" height="200.85" style="stroke:#181818;stroke-width:0.20000000000000004;" width="2" x="3.5" y="19.2438"/><rect fill="#FFFFFF" height="194.5797" style="stroke:#181818;stroke-width:0.20000000000000004;" width="2" x="113.7" y="23.7141"/><rect fill="#FFFFFF" height="18.8109" style="stroke:#181818;stroke-width:0.20000000000000004;" width="2" x="218.1" y="30.3844"/><rect fill="#FFFFFF" height="18.2109" style="stroke:#181818;stroke-width:0.20000000000000004;" width="2" x="267.9" y="67.4063"/><rect fill="#FFFFFF" height="87.5844" style="stroke:#181818;stroke-width:0.20000000000000004;" width="2" x="390.2" y="118.5688"/><rect fill="#FFFFFF" height="54.6328" style="stroke:#181818;stroke-width:0.20000000000000004;" width="2" x="564.6" y="139.3797"/><rect fill="#FFFFFF" height="12.1406" style="stroke:#181818;stroke-width:0.20000000000000004;" width="2" x="660.6" y="157.5906"/><rect fill="#FFFFFF" height="6.0703" style="stroke:#181818;stroke-width:0.20000000000000004;" width="2" x="750.2" y="163.6609"/><rect fill="#FFFFFF" height="6.0703" style="stroke:#181818;stroke-width:0.20000000000000004;" width="2" x="785.6" y="37.0547"/><rect fill="#FFFFFF" height="50.3625" style="stroke:#181818;stroke-width:0.20000000000000004;" width="2" x="827" y="169.7313"/><rect fill="#FFFFFF" height="6.0703" style="stroke:#181818;stroke-width:0.20000000000000004;" width="2" x="867.5" y="73.4766"/><rect fill="#FFFFFF" height="12.1406" style="stroke:#181818;stroke-width:0.20000000000000004;" width="2" x="867.5" y="145.45"/><line style="stroke:#181818;stroke-width:0.10000000000000002;stroke-dasharray:5.0,5.0;" x1="4.4" x2="4.4" y1="17.2438" y2="221.8938"/><line style="stroke:#181818;stroke-width:0.10000000000000002;stroke-dasharray:5.0,5.0;" x1="114.7" x2="114.7" y1="17.2438" y2="221.8938"/><line style="stroke:#181818;stroke-width:0.10000000000000002;stroke-dasharray:5.0,5.0;" x1="219.1" x2="219.1" y1="17.2438" y2="221.8938"/><line style="stroke:#181818;stroke-width:0.10000000000000002;stroke-dasharray:5.0,5.0;" x1="268.9" x2="268.9" y1="17.2438" y2="221.8938"/><line style="stroke:#181818;stroke-width:0.10000000000000002;stroke-dasharray:5.0,5.0;" x1="311.5" x2="311.5" y1="17.2438" y2="221.8938"/><line style="stroke:#181818;stroke-width:0.10000000000000002;stroke-dasharray:5.0,5.0;" x1="391.1" x2="391.1" y1="17.2438" y2="221.8938"/><line style="stroke:#181818;stroke-width:0.10000000000000002;stroke-dasharray:5.0,5.0;" x1="478.3" x2="478.3" y1="17.2438" y2="221.8938"/><line style="stroke:#181818;stroke-width:0.10000000000000002;stroke-dasharray:5.0,5.0;" x1="565.5" x2="565.5" y1="17.2438" y2="221.8938"/><line style="stroke:#181818;stroke-width:0.10000000000000002;stroke-dasharray:5.0,5.0;" x1="661.6" x2="661.6" y1="17.2438" y2="221.8938"/><line style="stroke:#181818;stroke-width:0.10000000000000002;stroke-dasharray:5.0,5.0;" x1="751.2" x2="751.2" y1="17.2438" y2="221.8938"/><line style="stroke:#181818;stroke-width:0.10000000000000002;stroke-dasharray:5.0,5.0;" x1="786.6" x2="786.6" y1="17.2438" y2="221.8938"/><line style="stroke:#181818;stroke-width:0.10000000000000002;stroke-dasharray:5.0,5.0;" x1="828" x2="828" y1="17.2438" y2="221.8938"/><line style="stroke:#181818;stroke-width:0.10000000000000002;stroke-dasharray:5.0,5.0;" x1="868.4" x2="868.4" y1="17.2438" y2="221.8938"/><text fill="#000000" font-family="sans-serif" font-size="2.8" lengthAdjust="spacing" textLength="5.8" x="1" y="16.6285">User</text><ellipse cx="4.5" cy="3.4219" fill="#E2E2F0" rx="1.6" ry="1.6" style="stroke:#181818;stroke-width:0.10000000000000002;"/><path d="M4.5,5.0219 L4.5,10.4219 M1.9,6.6219 L7.1,6.6219 M4.5,10.4219 L1.9,13.4219 M4.5,10.4219 L7.1,13.4219 " fill="none" style="stroke:#181818;stroke-width:0.10000000000000002;"/><text fill="#000000" font-family="sans-serif" font-size="2.8" lengthAdjust="spacing" textLength="5.8" x="1" y="224.6004">User</text><ellipse cx="4.5" cy="226.9156" fill="#E2E2F0" rx="1.6" ry="1.6" style="stroke:#181818;stroke-width:0.10000000000000002;"/><path d="M4.5,228.5156 L4.5,233.9156 M1.9,230.1156 L7.1,230.1156 M4.5,233.9156 L1.9,236.9156 M4.5,233.9156 L7.1,236.9156 " fill="none" style="stroke:#181818;stroke-width:0.10000000000000002;"/><rect fill="#E2E2F0" height="9.8438" rx="0.5" ry="0.5" style="stroke:#181818;stroke-width:0.10000000000000002;" width="29.6" x="99.9" y="7.2"/><text fill="#000000" font-family="sans-serif" font-size="2.8" font-style="italic" lengthAdjust="spacing" textLength="19" x="105.2" y="11.5066">«presentation»</text><text fill="#000000" font-family="sans-serif" font-size="2.8" lengthAdjust="spacing" textLength="26.8" x="101.3" y="15.0285">ShareSharedBoardUI</text><rect fill="#E2E2F0" height="9.8438" rx="0.5" ry="0.5" style="stroke:#181818;stroke-width:0.10000000000000002;" width="29.6" x="99.9" y="221.6938"/><text fill="#000000" font-family="sans-serif" font-size="2.8" font-style="italic" lengthAdjust="spacing" textLength="19" x="105.2" y="226.0004">«presentation»</text><text fill="#000000" font-family="sans-serif" font-size="2.8" lengthAdjust="spacing" textLength="26.8" x="101.3" y="229.5223">ShareSharedBoardUI</text><rect fill="#E2E2F0" height="9.8438" rx="0.5" ry="0.5" style="stroke:#181818;stroke-width:0.10000000000000002;" width="43.6" x="197.3" y="7.2"/><text fill="#000000" font-family="sans-serif" font-size="2.8" font-style="italic" lengthAdjust="spacing" textLength="16.8" x="210.7" y="11.5066">«application»</text><text fill="#000000" font-family="sans-serif" font-size="2.8" lengthAdjust="spacing" textLength="40.8" x="198.7" y="15.0285">ListOwnedSharedBoardsService</text><rect fill="#E2E2F0" height="9.8438" rx="0.5" ry="0.5" style="stroke:#181818;stroke-width:0.10000000000000002;" width="43.6" x="197.3" y="221.6938"/><text fill="#000000" font-family="sans-serif" font-size="2.8" font-style="italic" lengthAdjust="spacing" textLength="16.8" x="210.7" y="226.0004">«application»</text><text fill="#000000" font-family="sans-serif" font-size="2.8" lengthAdjust="spacing" textLength="40.8" x="198.7" y="229.5223">ListOwnedSharedBoardsService</text><rect fill="#E2E2F0" height="9.8438" rx="0.5" ry="0.5" style="stroke:#181818;stroke-width:0.10000000000000002;" width="52" x="242.9" y="7.2"/><text fill="#000000" font-family="sans-serif" font-size="2.8" font-style="italic" lengthAdjust="spacing" textLength="16.8" x="260.5" y="11.5066">«application»</text><text fill="#000000" font-family="sans-serif" font-size="2.8" lengthAdjust="spacing" textLength="49.2" x="244.3" y="15.0285">ListStudentsAndTeachersUsersService</text><rect fill="#E2E2F0" height="9.8438" rx="0.5" ry="0.5" style="stroke:#181818;stroke-width:0.10000000000000002;" width="52" x="242.9" y="221.6938"/><text fill="#000000" font-family="sans-serif" font-size="2.8" font-style="italic" lengthAdjust="spacing" textLength="16.8" x="260.5" y="226.0004">«application»</text><text fill="#000000" font-family="sans-serif" font-size="2.8" lengthAdjust="spacing" textLength="49.2" x="244.3" y="229.5223">ListStudentsAndTeachersUsersService</text><rect fill="#E2E2F0" height="9.8438" rx="0.5" ry="0.5" style="stroke:#181818;stroke-width:0.10000000000000002;" width="29.4" x="296.9" y="7.2"/><text fill="#000000" font-family="sans-serif" font-size="2.8" font-style="italic" lengthAdjust="spacing" textLength="16.8" x="303.2" y="11.5066">«application»</text><text fill="#000000" font-family="sans-serif" font-size="2.8" lengthAdjust="spacing" textLength="26.6" x="298.3" y="15.0285">SendRequestService</text><rect fill="#E2E2F0" height="9.8438" rx="0.5" ry="0.5" style="stroke:#181818;stroke-width:0.10000000000000002;" width="29.4" x="296.9" y="221.6938"/><text fill="#000000" font-family="sans-serif" font-size="2.8" font-style="italic" lengthAdjust="spacing" textLength="16.8" x="303.2" y="226.0004">«application»</text><text fill="#000000" font-family="sans-serif" font-size="2.8" lengthAdjust="spacing" textLength="26.6" x="298.3" y="229.5223">SendRequestService</text><rect fill="#E2E2F0" height="9.8438" rx="0.5" ry="0.5" style="stroke:#181818;stroke-width:0.10000000000000002;" width="13.8" x="384.3" y="7.2"/><text fill="#000000" font-family="sans-serif" font-size="2.8" font-style="italic" lengthAdjust="spacing" textLength="11" x="385.7" y="11.5066">«server»</text><text fill="#000000" font-family="sans-serif" font-size="2.8" lengthAdjust="spacing" textLength="8.4" x="387" y="15.0285">Server</text><rect fill="#E2E2F0" height="9.8438" rx="0.5" ry="0.5" style="stroke:#181818;stroke-width:0.10000000000000002;" width="13.8" x="384.3" y="221.6938"/><text fill="#000000" font-family="sans-serif" font-size="2.8" font-style="italic" lengthAdjust="spacing" textLength="11" x="385.7" y="226.0004">«server»</text><text fill="#000000" font-family="sans-serif" font-size="2.8" lengthAdjust="spacing" textLength="8.4" x="387" y="229.5223">Server</text><rect fill="#E2E2F0" height="9.8438" rx="0.5" ry="0.5" style="stroke:#181818;stroke-width:0.10000000000000002;" width="46.2" x="455.3" y="7.2"/><text fill="#000000" font-family="sans-serif" font-size="2.8" font-style="italic" lengthAdjust="spacing" textLength="16.8" x="470" y="11.5066">«application»</text><text fill="#000000" font-family="sans-serif" font-size="2.8" lengthAdjust="spacing" textLength="43.4" x="456.7" y="15.0285">SendShareSharedBoardController</text><rect fill="#E2E2F0" height="9.8438" rx="0.5" ry="0.5" style="stroke:#181818;stroke-width:0.10000000000000002;" width="46.2" x="455.3" y="221.6938"/><text fill="#000000" font-family="sans-serif" font-size="2.8" font-style="italic" lengthAdjust="spacing" textLength="16.8" x="470" y="226.0004">«application»</text><text fill="#000000" font-family="sans-serif" font-size="2.8" lengthAdjust="spacing" textLength="43.4" x="456.7" y="229.5223">SendShareSharedBoardController</text><rect fill="#E2E2F0" height="9.8438" rx="0.5" ry="0.5" style="stroke:#181818;stroke-width:0.10000000000000002;" width="36.6" x="547.3" y="7.2"/><text fill="#000000" font-family="sans-serif" font-size="2.8" font-style="italic" lengthAdjust="spacing" textLength="12.4" x="559.4" y="11.5066">«domain»</text><text fill="#000000" font-family="sans-serif" font-size="2.8" lengthAdjust="spacing" textLength="33.8" x="548.7" y="15.0285">ShareSharedBoardService</text><rect fill="#E2E2F0" height="9.8438" rx="0.5" ry="0.5" style="stroke:#181818;stroke-width:0.10000000000000002;" width="36.6" x="547.3" y="221.6938"/><text fill="#000000" font-family="sans-serif" font-size="2.8" font-style="italic" lengthAdjust="spacing" textLength="12.4" x="559.4" y="226.0004">«domain»</text><text fill="#000000" font-family="sans-serif" font-size="2.8" lengthAdjust="spacing" textLength="33.8" x="548.7" y="229.5223">ShareSharedBoardService</text><rect fill="#E2E2F0" height="9.8438" rx="0.5" ry="0.5" style="stroke:#181818;stroke-width:0.10000000000000002;" width="44.8" x="639.2" y="7.2"/><text fill="#000000" font-family="sans-serif" font-size="2.8" font-style="italic" lengthAdjust="spacing" textLength="12.4" x="655.4" y="11.5066">«domain»</text><text fill="#000000" font-family="sans-serif" font-size="2.8" lengthAdjust="spacing" textLength="42" x="640.6" y="15.0285">SharedBoardParticipationFactory</text><rect fill="#E2E2F0" height="9.8438" rx="0.5" ry="0.5" style="stroke:#181818;stroke-width:0.10000000000000002;" width="44.8" x="639.2" y="221.6938"/><text fill="#000000" font-family="sans-serif" font-size="2.8" font-style="italic" lengthAdjust="spacing" textLength="12.4" x="655.4" y="226.0004">«domain»</text><text fill="#000000" font-family="sans-serif" font-size="2.8" lengthAdjust="spacing" textLength="42" x="640.6" y="229.5223">SharedBoardParticipationFactory</text><rect fill="#E2E2F0" height="9.8438" rx="0.5" ry="0.5" style="stroke:#181818;stroke-width:0.10000000000000002;" width="35.2" x="733.6" y="7.2"/><text fill="#000000" font-family="sans-serif" font-size="2.8" font-style="italic" lengthAdjust="spacing" textLength="12.4" x="745" y="11.5066">«domain»</text><text fill="#000000" font-family="sans-serif" font-size="2.8" lengthAdjust="spacing" textLength="32.4" x="735" y="15.0285">SharedBoardParticipation</text><rect fill="#E2E2F0" height="9.8438" rx="0.5" ry="0.5" style="stroke:#181818;stroke-width:0.10000000000000002;" width="35.2" x="733.6" y="221.6938"/><text fill="#000000" font-family="sans-serif" font-size="2.8" font-style="italic" lengthAdjust="spacing" textLength="12.4" x="745" y="226.0004">«domain»</text><text fill="#000000" font-family="sans-serif" font-size="2.8" lengthAdjust="spacing" textLength="32.4" x="735" y="229.5223">SharedBoardParticipation</text><text fill="#000000" font-family="sans-serif" font-size="2.8" font-style="italic" lengthAdjust="spacing" textLength="17.8" x="777.1" y="13.1066">«persistence»</text><text fill="#000000" font-family="sans-serif" font-size="2.8" lengthAdjust="spacing" textLength="30.4" x="770.8" y="16.6285">SharedBoardRepository</text><path d="M783,3 C783,1 786.6,1 786.6,1 C786.6,1 790.2,1 790.2,3 L790.2,8.2 C790.2,10.2 786.6,10.2 786.6,10.2 C786.6,10.2 783,10.2 783,8.2 L783,3 " fill="#E2E2F0" style="stroke:#181818;stroke-width:0.30000000000000004;"/><path d="M783,3 C783,5 786.6,5 786.6,5 C786.6,5 790.2,5 790.2,3 " fill="none" style="stroke:#181818;stroke-width:0.30000000000000004;"/><text fill="#000000" font-family="sans-serif" font-size="2.8" font-style="italic" lengthAdjust="spacing" textLength="17.8" x="777.1" y="224.6004">«persistence»</text><text fill="#000000" font-family="sans-serif" font-size="2.8" lengthAdjust="spacing" textLength="30.4" x="770.8" y="228.1223">SharedBoardRepository</text><path d="M783,230.7375 C783,228.7375 786.6,228.7375 786.6,228.7375 C786.6,228.7375 790.2,228.7375 790.2,230.7375 L790.2,235.9375 C790.2,237.9375 786.6,237.9375 786.6,237.9375 C786.6,237.9375 783,237.9375 783,235.9375 L783,230.7375 " fill="#E2E2F0" style="stroke:#181818;stroke-width:0.30000000000000004;"/><path d="M783,230.7375 C783,232.7375 786.6,232.7375 786.6,232.7375 C786.6,232.7375 790.2,232.7375 790.2,230.7375 " fill="none" style="stroke:#181818;stroke-width:0.30000000000000004;"/><text fill="#000000" font-family="sans-serif" font-size="2.8" font-style="italic" lengthAdjust="spacing" textLength="17.8" x="818.5" y="13.1066">«persistence»</text><text fill="#000000" font-family="sans-serif" font-size="2.8" lengthAdjust="spacing" textLength="46" x="804.4" y="16.6285">SharedBoardParticipationRepository</text><path d="M824.4,3 C824.4,1 828,1 828,1 C828,1 831.6,1 831.6,3 L831.6,8.2 C831.6,10.2 828,10.2 828,10.2 C828,10.2 824.4,10.2 824.4,8.2 L824.4,3 " fill="#E2E2F0" style="stroke:#181818;stroke-width:0.30000000000000004;"/><path d="M824.4,3 C824.4,5 828,5 828,5 C828,5 831.6,5 831.6,3 " fill="none" style="stroke:#181818;stroke-width:0.30000000000000004;"/><text fill="#000000" font-family="sans-serif" font-size="2.8" font-style="italic" lengthAdjust="spacing" textLength="17.8" x="818.5" y="224.6004">«persistence»</text><text fill="#000000" font-family="sans-serif" font-size="2.8" lengthAdjust="spacing" textLength="46" x="804.4" y="228.1223">SharedBoardParticipationRepository</text><path d="M824.4,230.7375 C824.4,228.7375 828,228.7375 828,228.7375 C828,228.7375 831.6,228.7375 831.6,230.7375 L831.6,235.9375 C831.6,237.9375 828,237.9375 828,237.9375 C828,237.9375 824.4,237.9375 824.4,235.9375 L824.4,230.7375 " fill="#E2E2F0" style="stroke:#181818;stroke-width:0.30000000000000004;"/><path d="M824.4,230.7375 C824.4,232.7375 828,232.7375 828,232.7375 C828,232.7375 831.6,232.7375 831.6,230.7375 " fill="none" style="stroke:#181818;stroke-width:0.30000000000000004;"/><text fill="#000000" font-family="sans-serif" font-size="2.8" font-style="italic" lengthAdjust="spacing" textLength="17.8" x="859" y="13.1066">«persistence»</text><text fill="#000000" font-family="sans-serif" font-size="2.8" lengthAdjust="spacing" textLength="28.6" x="853.6" y="16.6285">SystemUserRepository</text><path d="M864.9,3 C864.9,1 868.5,1 868.5,1 C868.5,1 872.1,1 872.1,3 L872.1,8.2 C872.1,10.2 868.5,10.2 868.5,10.2 C868.5,10.2 864.9,10.2 864.9,8.2 L864.9,3 " fill="#E2E2F0" style="stroke:#181818;stroke-width:0.30000000000000004;"/><path d="M864.9,3 C864.9,5 868.5,5 868.5,5 C868.5,5 872.1,5 872.1,3 " fill="none" style="stroke:#181818;stroke-width:0.30000000000000004;"/><text fill="#000000" font-family="sans-serif" font-size="2.8" font-style="italic" lengthAdjust="spacing" textLength="17.8" x="859" y="224.6004">«persistence»</text><text fill="#000000" font-family="sans-serif" font-size="2.8" lengthAdjust="spacing" textLength="28.6" x="853.6" y="228.1223">SystemUserRepository</text><path d="M864.9,230.7375 C864.9,228.7375 868.5,228.7375 868.5,228.7375 C868.5,228.7375 872.1,228.7375 872.1,230.7375 L872.1,235.9375 C872.1,237.9375 868.5,237.9375 868.5,237.9375 C868.5,237.9375 864.9,237.9375 864.9,235.9375 L864.9,230.7375 " fill="#E2E2F0" style="stroke:#181818;stroke-width:0.30000000000000004;"/><path d="M864.9,230.7375 C864.9,232.7375 868.5,232.7375 868.5,232.7375 C868.5,232.7375 872.1,232.7375 872.1,230.7375 " fill="none" style="stroke:#181818;stroke-width:0.30000000000000004;"/><rect fill="#FFFFFF" height="200.85" style="stroke:#181818;stroke-width:0.20000000000000004;" width="2" x="3.5" y="19.2438"/><rect fill="#FFFFFF" height="194.5797" style="stroke:#181818;stroke-width:0.20000000000000004;" width="2" x="113.7" y="23.7141"/><rect fill="#FFFFFF" height="18.8109" style="stroke:#181818;stroke-width:0.20000000000000004;" width="2" x="218.1" y="30.3844"/><rect fill="#FFFFFF" height="18.2109" style="stroke:#181818;stroke-width:0.20000000000000004;" width="2" x="267.9" y="67.4063"/><rect fill="#FFFFFF" height="87.5844" style="stroke:#181818;stroke-width:0.20000000000000004;" width="2" x="390.2" y="118.5688"/><rect fill="#FFFFFF" height="54.6328" style="stroke:#181818;stroke-width:0.20000000000000004;" width="2" x="564.6" y="139.3797"/><rect fill="#FFFFFF" height="12.1406" style="stroke:#181818;stroke-width:0.20000000000000004;" width="2" x="660.6" y="157.5906"/><rect fill="#FFFFFF" height="6.0703" style="stroke:#181818;stroke-width:0.20000000000000004;" width="2" x="750.2" y="163.6609"/><rect fill="#FFFFFF" height="6.0703" style="stroke:#181818;stroke-width:0.20000000000000004;" width="2" x="785.6" y="37.0547"/><rect fill="#FFFFFF" height="50.3625" style="stroke:#181818;stroke-width:0.20000000000000004;" width="2" x="827" y="169.7313"/><rect fill="#FFFFFF" height="6.0703" style="stroke:#181818;stroke-width:0.20000000000000004;" width="2" x="867.5" y="73.4766"/><rect fill="#FFFFFF" height="12.1406" style="stroke:#181818;stroke-width:0.20000000000000004;" width="2" x="867.5" y="145.45"/><polygon fill="#181818" points="111.3,22.9141,113.3,23.7141,111.3,24.5141,112.1,23.7141" style="stroke:#181818;stroke-width:0.20000000000000004;"/><line style="stroke:#181818;stroke-width:0.20000000000000004;" x1="5.5" x2="112.5" y1="23.7141" y2="23.7141"/><text fill="#000000" font-family="sans-serif" font-size="2.6" font-weight="bold" lengthAdjust="spacing" textLength="1.4" x="6.9" y="22.7428">1</text><text fill="#000000" font-family="sans-serif" font-size="2.6" lengthAdjust="spacing" textLength="33.8" x="9.1" y="22.7428">asks to share a shared board</text><polygon fill="#181818" points="215.7,29.5844,217.7,30.3844,215.7,31.1844,216.5,30.3844" style="stroke:#181818;stroke-width:0.20000000000000004;"/><line style="stroke:#181818;stroke-width:0.20000000000000004;" x1="115.7" x2="216.9" y1="30.3844" y2="30.3844"/><text fill="#000000" font-family="sans-serif" font-size="2.6" font-weight="bold" lengthAdjust="spacing" textLength="1.4" x="117.1" y="29.4131">2</text><text fill="#000000" font-family="sans-serif" font-size="2.6" lengthAdjust="spacing" textLength="96.4" x="119.3" y="29.4131">List&lt;SharedBoardDTO&gt; ownedSharedBoards = listOwnedAndActiveSharedBoards()</text><path d="M221,26.3141 L221,31.5141 L268.6,31.5141 L268.6,28.3141 L266.6,26.3141 L221,26.3141 " fill="#FEFFDD" style="stroke:#181818;stroke-width:0.10000000000000002;"/><path d="M266.6,26.3141 L266.6,28.3141 L268.6,28.3141 L266.6,26.3141 " fill="#FEFFDD" style="stroke:#181818;stroke-width:0.10000000000000002;"/><text fill="#000000" font-family="sans-serif" font-size="2.6" lengthAdjust="spacing" textLength="43.4" x="222.2" y="30.0131">The user is obtained through session.</text><polygon fill="#181818" points="783.2,36.2547,785.2,37.0547,783.2,37.8547,784,37.0547" style="stroke:#181818;stroke-width:0.20000000000000004;"/><line style="stroke:#181818;stroke-width:0.20000000000000004;" x1="220.1" x2="784.4" y1="37.0547" y2="37.0547"/><text fill="#000000" font-family="sans-serif" font-size="2.6" font-weight="bold" lengthAdjust="spacing" textLength="1.4" x="221.5" y="36.0834">3</text><text fill="#000000" font-family="sans-serif" font-size="2.6" lengthAdjust="spacing" textLength="96.2" x="223.7" y="36.0834">List&lt;SharedBoard&gt; ownedSharedBoards = listOwnedAndActiveSharedBoards(user)</text><polygon fill="#181818" points="222.3,42.325,220.3,43.125,222.3,43.925,221.5,43.125" style="stroke:#181818;stroke-width:0.20000000000000004;"/><line style="stroke:#181818;stroke-width:0.20000000000000004;stroke-dasharray:2.0,2.0;" x1="221.1" x2="786.4" y1="43.125" y2="43.125"/><text fill="#000000" font-family="sans-serif" font-size="2.6" font-weight="bold" lengthAdjust="spacing" textLength="1.4" x="223.5" y="42.1537">4</text><text fill="#000000" font-family="sans-serif" font-size="2.6" lengthAdjust="spacing" textLength="0.8" x="225.7" y="42.1537"> </text><polygon fill="#181818" points="117.9,48.3953,115.9,49.1953,117.9,49.9953,117.1,49.1953" style="stroke:#181818;stroke-width:0.20000000000000004;"/><line style="stroke:#181818;stroke-width:0.20000000000000004;stroke-dasharray:2.0,2.0;" x1="116.7" x2="218.9" y1="49.1953" y2="49.1953"/><text fill="#000000" font-family="sans-serif" font-size="2.6" font-weight="bold" lengthAdjust="spacing" textLength="1.4" x="119.1" y="48.224">5</text><text fill="#000000" font-family="sans-serif" font-size="2.6" lengthAdjust="spacing" textLength="0.8" x="121.3" y="48.224"> </text><polygon fill="#181818" points="7.7,54.4656,5.7,55.2656,7.7,56.0656,6.9,55.2656" style="stroke:#181818;stroke-width:0.20000000000000004;"/><line style="stroke:#181818;stroke-width:0.20000000000000004;stroke-dasharray:2.0,2.0;" x1="6.5" x2="113.5" y1="55.2656" y2="55.2656"/><text fill="#000000" font-family="sans-serif" font-size="2.6" font-weight="bold" lengthAdjust="spacing" textLength="1.4" x="8.9" y="54.2943">6</text><text fill="#000000" font-family="sans-serif" font-size="2.6" lengthAdjust="spacing" textLength="66.2" x="11.1" y="54.2943">asks to select one sharedBoard to share with other users</text><polygon fill="#181818" points="111.3,60.5359,113.3,61.3359,111.3,62.1359,112.1,61.3359" style="stroke:#181818;stroke-width:0.20000000000000004;"/><line style="stroke:#181818;stroke-width:0.20000000000000004;" x1="5.5" x2="112.5" y1="61.3359" y2="61.3359"/><text fill="#000000" font-family="sans-serif" font-size="2.6" font-weight="bold" lengthAdjust="spacing" textLength="1.4" x="6.9" y="60.3646">7</text><text fill="#000000" font-family="sans-serif" font-size="2.6" lengthAdjust="spacing" textLength="29.2" x="9.1" y="60.3646">selects one shared board</text><polygon fill="#181818" points="265.5,66.6063,267.5,67.4063,265.5,68.2063,266.3,67.4063" style="stroke:#181818;stroke-width:0.20000000000000004;"/><line style="stroke:#181818;stroke-width:0.20000000000000004;" x1="115.7" x2="266.7" y1="67.4063" y2="67.4063"/><text fill="#000000" font-family="sans-serif" font-size="2.6" font-weight="bold" lengthAdjust="spacing" textLength="1.4" x="117.1" y="66.435">8</text><text fill="#000000" font-family="sans-serif" font-size="2.6" lengthAdjust="spacing" textLength="69.6" x="119.3" y="66.435">List&lt;SystemUser&gt; users = listStudentsAndTeachersUsers()</text><polygon fill="#181818" points="865.1,72.6766,867.1,73.4766,865.1,74.2766,865.9,73.4766" style="stroke:#181818;stroke-width:0.20000000000000004;"/><line style="stroke:#181818;stroke-width:0.20000000000000004;" x1="269.9" x2="866.3" y1="73.4766" y2="73.4766"/><text fill="#000000" font-family="sans-serif" font-size="2.6" font-weight="bold" lengthAdjust="spacing" textLength="1.4" x="271.3" y="72.5053">9</text><text fill="#000000" font-family="sans-serif" font-size="2.6" lengthAdjust="spacing" textLength="60" x="273.5" y="72.5053">List&lt;SystemUser&gt; listStudentsAndTeachersUsers()</text><polygon fill="#181818" points="272.1,78.7469,270.1,79.5469,272.1,80.3469,271.3,79.5469" style="stroke:#181818;stroke-width:0.20000000000000004;"/><line style="stroke:#181818;stroke-width:0.20000000000000004;stroke-dasharray:2.0,2.0;" x1="270.9" x2="868.3" y1="79.5469" y2="79.5469"/><text fill="#000000" font-family="sans-serif" font-size="2.6" font-weight="bold" lengthAdjust="spacing" textLength="2.8" x="273.3" y="78.5756">10</text><text fill="#000000" font-family="sans-serif" font-size="2.6" lengthAdjust="spacing" textLength="0.8" x="276.9" y="78.5756"> </text><polygon fill="#181818" points="117.9,84.8172,115.9,85.6172,117.9,86.4172,117.1,85.6172" style="stroke:#181818;stroke-width:0.20000000000000004;"/><line style="stroke:#181818;stroke-width:0.20000000000000004;stroke-dasharray:2.0,2.0;" x1="116.7" x2="268.7" y1="85.6172" y2="85.6172"/><text fill="#000000" font-family="sans-serif" font-size="2.6" font-weight="bold" lengthAdjust="spacing" textLength="2.8" x="119.1" y="84.6459">11</text><text fill="#000000" font-family="sans-serif" font-size="2.6" lengthAdjust="spacing" textLength="0.8" x="122.7" y="84.6459"> </text><line style="stroke:#181818;stroke-width:0.20000000000000004;" x1="115.7" x2="124.1" y1="91.6875" y2="91.6875"/><line style="stroke:#181818;stroke-width:0.20000000000000004;" x1="124.1" x2="124.1" y1="91.6875" y2="94.2875"/><line style="stroke:#181818;stroke-width:0.20000000000000004;" x1="115.9" x2="124.1" y1="94.2875" y2="94.2875"/><polygon fill="#181818" points="117.9,93.4875,115.9,94.2875,117.9,95.0875,117.1,94.2875" style="stroke:#181818;stroke-width:0.20000000000000004;"/><text fill="#000000" font-family="sans-serif" font-size="2.6" font-weight="bold" lengthAdjust="spacing" textLength="2.8" x="117.1" y="90.7162">12</text><text fill="#000000" font-family="sans-serif" font-size="2.6" lengthAdjust="spacing" textLength="48.8" x="120.7" y="90.7162">List&lt;UserPermission&gt; userPermissionList</text><polygon fill="#181818" points="7.7,99.5578,5.7,100.3578,7.7,101.1578,6.9,100.3578" style="stroke:#181818;stroke-width:0.20000000000000004;"/><line style="stroke:#181818;stroke-width:0.20000000000000004;stroke-dasharray:2.0,2.0;" x1="6.5" x2="113.5" y1="100.3578" y2="100.3578"/><text fill="#000000" font-family="sans-serif" font-size="2.6" font-weight="bold" lengthAdjust="spacing" textLength="2.8" x="8.9" y="99.3865">13</text><text fill="#000000" font-family="sans-serif" font-size="2.6" lengthAdjust="spacing" textLength="99.8" x="12.5" y="99.3865">asks to select a list of users to add to the sharedBoard and it's respective permissions</text><polygon fill="#181818" points="111.3,105.6281,113.3,106.4281,111.3,107.2281,112.1,106.4281" style="stroke:#181818;stroke-width:0.20000000000000004;"/><line style="stroke:#181818;stroke-width:0.20000000000000004;" x1="5.5" x2="112.5" y1="106.4281" y2="106.4281"/><text fill="#000000" font-family="sans-serif" font-size="2.6" font-weight="bold" lengthAdjust="spacing" textLength="2.8" x="6.9" y="105.4568">14</text><text fill="#000000" font-family="sans-serif" font-size="2.6" lengthAdjust="spacing" textLength="15.6" x="10.5" y="105.4568">selects users</text><polygon fill="#181818" points="309.2,111.6984,311.2,112.4984,309.2,113.2984,310,112.4984" style="stroke:#181818;stroke-width:0.20000000000000004;"/><line style="stroke:#181818;stroke-width:0.20000000000000004;" x1="115.7" x2="310.4" y1="112.4984" y2="112.4984"/><text fill="#000000" font-family="sans-serif" font-size="2.6" font-weight="bold" lengthAdjust="spacing" textLength="2.8" x="117.1" y="111.5271">15</text><text fill="#000000" font-family="sans-serif" font-size="2.6" lengthAdjust="spacing" textLength="134" x="120.7" y="111.5271">String feedback = svc.sendShareSharedBoardRequest(selectedSharedBoard, selectedUsers, selectedPermissions);</text><polygon fill="#181818" points="387.8,117.7688,389.8,118.5688,387.8,119.3688,388.6,118.5688" style="stroke:#181818;stroke-width:0.20000000000000004;"/><line style="stroke:#181818;stroke-width:0.20000000000000004;" x1="311.6" x2="389" y1="118.5688" y2="118.5688"/><text fill="#000000" font-family="sans-serif" font-size="2.6" font-weight="bold" lengthAdjust="spacing" textLength="2.8" x="313" y="117.5975">16</text><text fill="#000000" font-family="sans-serif" font-size="2.6" lengthAdjust="spacing" textLength="32.4" x="316.6" y="117.5975">establishes TCP connection</text><polygon fill="#181818" points="313.8,123.8391,311.8,124.6391,313.8,125.4391,313,124.6391" style="stroke:#181818;stroke-width:0.20000000000000004;"/><line style="stroke:#181818;stroke-width:0.20000000000000004;stroke-dasharray:2.0,2.0;" x1="312.6" x2="390" y1="124.6391" y2="124.6391"/><text fill="#000000" font-family="sans-serif" font-size="2.6" font-weight="bold" lengthAdjust="spacing" textLength="2.8" x="315" y="123.6678">17</text><text fill="#000000" font-family="sans-serif" font-size="2.6" lengthAdjust="spacing" textLength="23" x="318.6" y="123.6678">accepts the request</text><line style="stroke:#181818;stroke-width:0.20000000000000004;" x1="392.2" x2="400.6" y1="130.7094" y2="130.7094"/><line style="stroke:#181818;stroke-width:0.20000000000000004;" x1="400.6" x2="400.6" y1="130.7094" y2="133.3094"/><line style="stroke:#181818;stroke-width:0.20000000000000004;" x1="392.4" x2="400.6" y1="133.3094" y2="133.3094"/><polygon fill="#181818" points="394.4,132.5094,392.4,133.3094,394.4,134.1094,393.6,133.3094" style="stroke:#181818;stroke-width:0.20000000000000004;"/><text fill="#000000" font-family="sans-serif" font-size="2.6" font-weight="bold" lengthAdjust="spacing" textLength="2.8" x="393.6" y="129.7381">18</text><text fill="#000000" font-family="sans-serif" font-size="2.6" lengthAdjust="spacing" textLength="53.4" x="397.2" y="129.7381">creates a new thread to attend client's request</text><polygon fill="#181818" points="476,138.5797,478,139.3797,476,140.1797,476.8,139.3797" style="stroke:#181818;stroke-width:0.20000000000000004;"/><line style="stroke:#181818;stroke-width:0.20000000000000004;" x1="392.2" x2="477.2" y1="139.3797" y2="139.3797"/><text fill="#000000" font-family="sans-serif" font-size="2.6" font-weight="bold" lengthAdjust="spacing" textLength="2.8" x="393.6" y="138.4084">19</text><text fill="#000000" font-family="sans-serif" font-size="2.6" lengthAdjust="spacing" textLength="77.8" x="397.2" y="138.4084">String feedback = shareBoard(sharedBoard, username, permission)</text><polygon fill="#181818" points="562.2,144.65,564.2,145.45,562.2,146.25,563,145.45" style="stroke:#181818;stroke-width:0.20000000000000004;"/><line style="stroke:#181818;stroke-width:0.20000000000000004;" x1="478.4" x2="563.4" y1="145.45" y2="145.45"/><text fill="#000000" font-family="sans-serif" font-size="2.6" font-weight="bold" lengthAdjust="spacing" textLength="2.8" x="479.8" y="144.4787">20</text><text fill="#000000" font-family="sans-serif" font-size="2.6" lengthAdjust="spacing" textLength="77.8" x="483.4" y="144.4787">String feedback = shareBoard(sharedBoard, username, permission)</text><polygon fill="#181818" points="865.1,150.7203,867.1,151.5203,865.1,152.3203,865.9,151.5203" style="stroke:#181818;stroke-width:0.20000000000000004;"/><line style="stroke:#181818;stroke-width:0.20000000000000004;" x1="566.6" x2="866.3" y1="151.5203" y2="151.5203"/><text fill="#000000" font-family="sans-serif" font-size="2.6" font-weight="bold" lengthAdjust="spacing" textLength="2.8" x="568" y="150.549">21</text><text fill="#000000" font-family="sans-serif" font-size="2.6" lengthAdjust="spacing" textLength="54.6" x="571.6" y="150.549">user = findSystemUserByUsername(username)</text><polygon fill="#181818" points="568.8,156.7906,566.8,157.5906,568.8,158.3906,568,157.5906" style="stroke:#181818;stroke-width:0.20000000000000004;"/><line style="stroke:#181818;stroke-width:0.20000000000000004;stroke-dasharray:2.0,2.0;" x1="567.6" x2="868.3" y1="157.5906" y2="157.5906"/><text fill="#000000" font-family="sans-serif" font-size="2.6" font-weight="bold" lengthAdjust="spacing" textLength="2.8" x="570" y="156.6193">22</text><text fill="#000000" font-family="sans-serif" font-size="2.6" lengthAdjust="spacing" textLength="0.8" x="573.6" y="156.6193"> </text><polygon fill="#181818" points="658.2,162.8609,660.2,163.6609,658.2,164.4609,659,163.6609" style="stroke:#181818;stroke-width:0.20000000000000004;"/><line style="stroke:#181818;stroke-width:0.20000000000000004;" x1="566.6" x2="659.4" y1="163.6609" y2="163.6609"/><text fill="#000000" font-family="sans-serif" font-size="2.6" font-weight="bold" lengthAdjust="spacing" textLength="2.8" x="568" y="162.6896">23</text><text fill="#000000" font-family="sans-serif" font-size="2.6" lengthAdjust="spacing" textLength="85.6" x="571.6" y="162.6896">e = createSharedBoardParticipation(permission, stats, user, sharedBoard)</text><polygon fill="#181818" points="748.8,168.9313,750.8,169.7313,748.8,170.5313,749.6,169.7313" style="stroke:#181818;stroke-width:0.20000000000000004;"/><line style="stroke:#181818;stroke-width:0.20000000000000004;" x1="661.6" x2="750" y1="169.7313" y2="169.7313"/><text fill="#000000" font-family="sans-serif" font-size="2.6" font-weight="bold" lengthAdjust="spacing" textLength="2.8" x="663" y="168.76">24</text><text fill="#000000" font-family="sans-serif" font-size="2.6" lengthAdjust="spacing" textLength="79.2" x="666.6" y="168.76">new SharedBoardParticipation(permission, stats, user, sharedBoard)</text><polygon fill="#181818" points="824.6,175.0016,826.6,175.8016,824.6,176.6016,825.4,175.8016" style="stroke:#181818;stroke-width:0.20000000000000004;"/><line style="stroke:#181818;stroke-width:0.20000000000000004;" x1="566.6" x2="825.8" y1="175.8016" y2="175.8016"/><text fill="#000000" font-family="sans-serif" font-size="2.6" font-weight="bold" lengthAdjust="spacing" textLength="2.8" x="568" y="174.8303">25</text><text fill="#000000" font-family="sans-serif" font-size="2.6" lengthAdjust="spacing" textLength="15" x="571.6" y="174.8303">repositories()</text><polygon fill="#181818" points="824.6,181.0719,826.6,181.8719,824.6,182.6719,825.4,181.8719" style="stroke:#181818;stroke-width:0.20000000000000004;"/><line style="stroke:#181818;stroke-width:0.20000000000000004;" x1="566.6" x2="825.8" y1="181.8719" y2="181.8719"/><text fill="#000000" font-family="sans-serif" font-size="2.6" font-weight="bold" lengthAdjust="spacing" textLength="2.8" x="568" y="180.9006">26</text><text fill="#000000" font-family="sans-serif" font-size="2.6" lengthAdjust="spacing" textLength="40.8" x="571.6" y="180.9006">save(newSharedBoardParticipation)</text><polygon fill="#181818" points="568.8,187.1422,566.8,187.9422,568.8,188.7422,568,187.9422" style="stroke:#181818;stroke-width:0.20000000000000004;"/><line style="stroke:#181818;stroke-width:0.20000000000000004;stroke-dasharray:2.0,2.0;" x1="567.6" x2="826.8" y1="187.9422" y2="187.9422"/><text fill="#000000" font-family="sans-serif" font-size="2.6" font-weight="bold" lengthAdjust="spacing" textLength="2.8" x="570" y="186.9709">27</text><text fill="#000000" font-family="sans-serif" font-size="2.6" lengthAdjust="spacing" textLength="29.4" x="573.6" y="186.9709">SharedBoardParticipation</text><polygon fill="#181818" points="480.6,193.2125,478.6,194.0125,480.6,194.8125,479.8,194.0125" style="stroke:#181818;stroke-width:0.20000000000000004;"/><line style="stroke:#181818;stroke-width:0.20000000000000004;stroke-dasharray:2.0,2.0;" x1="479.4" x2="565.4" y1="194.0125" y2="194.0125"/><text fill="#000000" font-family="sans-serif" font-size="2.6" font-weight="bold" lengthAdjust="spacing" textLength="2.8" x="481.8" y="193.0412">28</text><text fill="#000000" font-family="sans-serif" font-size="2.6" lengthAdjust="spacing" textLength="0.8" x="485.4" y="193.0412"> </text><polygon fill="#181818" points="394.4,199.2828,392.4,200.0828,394.4,200.8828,393.6,200.0828" style="stroke:#181818;stroke-width:0.20000000000000004;"/><line style="stroke:#181818;stroke-width:0.20000000000000004;stroke-dasharray:2.0,2.0;" x1="393.2" x2="478.2" y1="200.0828" y2="200.0828"/><text fill="#000000" font-family="sans-serif" font-size="2.6" font-weight="bold" lengthAdjust="spacing" textLength="2.8" x="395.6" y="199.1115">29</text><text fill="#000000" font-family="sans-serif" font-size="2.6" lengthAdjust="spacing" textLength="0.8" x="399.2" y="199.1115"> </text><polygon fill="#181818" points="313.8,205.3531,311.8,206.1531,313.8,206.9531,313,206.1531" style="stroke:#181818;stroke-width:0.20000000000000004;"/><line style="stroke:#181818;stroke-width:0.20000000000000004;stroke-dasharray:2.0,2.0;" x1="312.6" x2="391" y1="206.1531" y2="206.1531"/><text fill="#000000" font-family="sans-serif" font-size="2.6" font-weight="bold" lengthAdjust="spacing" textLength="2.8" x="315" y="205.1818">30</text><text fill="#000000" font-family="sans-serif" font-size="2.6" lengthAdjust="spacing" textLength="70.2" x="318.6" y="205.1818">answers with the operation success and respective message</text><polygon fill="#181818" points="117.9,211.4234,115.9,212.2234,117.9,213.0234,117.1,212.2234" style="stroke:#181818;stroke-width:0.20000000000000004;"/><line style="stroke:#181818;stroke-width:0.20000000000000004;stroke-dasharray:2.0,2.0;" x1="116.7" x2="311.4" y1="212.2234" y2="212.2234"/><text fill="#000000" font-family="sans-serif" font-size="2.6" font-weight="bold" lengthAdjust="spacing" textLength="2.8" x="119.1" y="211.2521">31</text><text fill="#000000" font-family="sans-serif" font-size="2.6" lengthAdjust="spacing" textLength="0.8" x="122.7" y="211.2521"> </text><polygon fill="#181818" points="7.7,217.4938,5.7,218.2938,7.7,219.0938,6.9,218.2938" style="stroke:#181818;stroke-width:0.20000000000000004;"/><line style="stroke:#181818;stroke-width:0.20000000000000004;stroke-dasharray:2.0,2.0;" x1="6.5" x2="114.5" y1="218.2938" y2="218.2938"/><text fill="#000000" font-family="sans-serif" font-size="2.6" font-weight="bold" lengthAdjust="spacing" textLength="2.8" x="8.9" y="217.3225">32</text><text fill="#000000" font-family="sans-serif" font-size="2.6" lengthAdjust="spacing" textLength="41" x="12.5" y="217.3225">shows the success of the operation</text><!--MD5=[ee3dd62c0a4738a24167401263a666de]
@startuml
autonumber
actor User as user
participant ShareSharedBoardUI as ui <<presentation>>
participant ListOwnedSharedBoardsService as service1 <<application>>
participant ListStudentsAndTeachersUsersService as service2 <<application>>
participant SendRequestService as service3 <<application>>
participant Server as server <<server>>
participant SendShareSharedBoardController as shCtrl <<application>>
participant ShareSharedBoardService as service4 <<domain>>
participant SharedBoardParticipationFactory as factory <<domain>>
participant SharedBoardParticipation as domain <<domain>>
database SharedBoardRepository as sbrepo <<persistence>>
database SharedBoardParticipationRepository as sbp_repo <<persistence>>
database SystemUserRepository as userRepo <<persistence>>


activate user
user -> ui : asks to share a shared board
activate ui
ui -> service1 : List<SharedBoardDTO> ownedSharedBoards = listOwnedAndActiveSharedBoards()
activate service1
note right
The user is obtained through session.
end note
service1 -> sbrepo : List<SharedBoard> ownedSharedBoards = listOwnedAndActiveSharedBoards(user)
activate sbrepo
sbrepo - -> service1:
deactivate sbrepo
service1 - -> ui :
deactivate service1
ui - -> user : asks to select one sharedBoard to share with other users
user -> ui : selects one shared board
ui -> service2 : List<SystemUser> users = listStudentsAndTeachersUsers()
activate service2
service2 -> userRepo: List<SystemUser> listStudentsAndTeachersUsers()
activate userRepo
userRepo - -> service2:
deactivate userRepo
service2 - -> ui:
deactivate service2
ui -> ui:  List<UserPermission> userPermissionList
ui- ->user: asks to select a list of users to add to the sharedBoard and it's respective permissions
user -> ui: selects users
ui -> service3: String feedback = svc.sendShareSharedBoardRequest(selectedSharedBoard, selectedUsers, selectedPermissions);
service3 -> server : establishes TCP connection
activate server
server - -> service3 : accepts the request
server -> server: creates a new thread to attend client's request
server->shCtrl: String feedback = shareBoard(sharedBoard, username, permission)
activate service4
shCtrl->service4: String feedback = shareBoard(sharedBoard, username, permission)
activate userRepo
service4->userRepo: user = findSystemUserByUsername(username)
userRepo- ->service4:
deactivate userRepo
activate factory
service4->factory: e = createSharedBoardParticipation(permission, stats, user, sharedBoard)
activate domain
factory->domain: new SharedBoardParticipation(permission, stats, user, sharedBoard)
deactivate domain
deactivate factory
activate sbp_repo
service4->sbp_repo: repositories()
service4->sbp_repo: save(newSharedBoardParticipation)
sbp_repo- ->service4: SharedBoardParticipation
service4- ->shCtrl
deactivate service4
shCtrl- ->server
server- ->service3: answers with the operation success and respective message
deactivate server
service3- ->ui:
ui- ->user:shows the success of the operation
deactivate ui

@enduml

PlantUML version 1.2022.12(Sun Oct 23 19:12:26 BST 2022)
(GPL source distribution)
Java Runtime: OpenJDK Runtime Environment
JVM: OpenJDK 64-Bit Server VM
Default Encoding: Cp1252
Language: en
Country: US
--></g></svg>